<?xml version="1.0" encoding="utf-8"?>
<!-- Generator: Adobe Illustrator 25.4.1, SVG Export Plug-In . SVG Version: 6.00 Build 0)  -->
<svg version="1.1" id="Layer_1" xmlns="http://www.w3.org/2000/svg" xmlns:xlink="http://www.w3.org/1999/xlink" x="0px" y="0px"
	 viewBox="0 0 168 168" style="enable-background:new 0 0 168 168;" xml:space="preserve">
<style type="text/css">
	.st0{opacity:0.2;fill:#151110;enable-background:new    ;}
	.st1{fill:url(#SVGID_1_);}
	.st2{fill:#FFFFFF;}
	.st3{fill:#C00D0D;}
	.st4{fill:#151110;}
	.st5{fill:url(#SVGID_00000150085303411622399120000012777614136172836785_);}
	.st6{fill:url(#SVGID_00000007412283047514431720000007839345878471312015_);}
	.st7{fill:none;stroke:#A03394;stroke-width:9;stroke-miterlimit:10;}
	.st8{fill:url(#SVGID_00000126312299357330799170000000926469391821826731_);}
	.st9{fill:#F0F0F0;}
	.st10{fill:url(#SVGID_00000041294077799382199520000005668396528075717778_);}
	.st11{fill:url(#SVGID_00000094609896128740576300000016443099644190771585_);}
	.st12{fill:url(#SVGID_00000060015090397400425490000005834154972645094548_);}
	.st13{fill:url(#SVGID_00000005244292685045255750000012778827165162642060_);}
	.st14{fill:url(#SVGID_00000136381596460814612760000000957612484021739690_);}
	.st15{fill:url(#SVGID_00000063611635349533801930000016750545487488421307_);}
	.st16{fill:url(#SVGID_00000021821085016705814380000011069464358397225131_);}
	.st17{fill:url(#SVGID_00000114774530157712901560000009760433456403160502_);}
	.st18{fill:url(#SVGID_00000118365275056150056010000005768014492132539275_);}
	.st19{fill:url(#SVGID_00000065049242162871739570000015297681874844865425_);}
	.st20{fill:url(#SVGID_00000165954958256044909230000016224224368114325148_);}
	.st21{fill:url(#SVGID_00000071560350064826323540000012943565318117667763_);}
	.st22{fill:url(#SVGID_00000152960442300262620970000008623375517938349702_);}
	.st23{fill:url(#SVGID_00000109722421912290522940000014381172232750166150_);}
	.st24{fill:url(#SVGID_00000151504003077448358400000001038921668530122375_);}
	.st25{fill:url(#SVGID_00000141449002098520450670000009990312814234932101_);}
	.st26{fill:url(#SVGID_00000018916656920122274430000005410087350790115469_);}
	.st27{fill:url(#SVGID_00000120519020635151655900000005306165758401222830_);}
	.st28{fill:url(#SVGID_00000000192901955274877690000000220241780725710221_);}
	.st29{fill:url(#SVGID_00000086686070559815768160000003017716418316687797_);}
	.st30{fill:url(#SVGID_00000145756151715040193920000010704650344508502659_);}
	.st31{fill:url(#SVGID_00000117676306298006343010000010205733047441339308_);}
	.st32{fill:url(#SVGID_00000085951756100187048070000017312623814978236325_);}
	.st33{fill:url(#SVGID_00000165224806236685856130000001590564419222230661_);}
	.st34{fill:url(#SVGID_00000095334091686943983300000001552413908533095862_);}
	.st35{fill:url(#SVGID_00000040552640175151533980000008099358043342714527_);}
	.st36{fill:url(#SVGID_00000110457847336806080030000007042793988455704503_);}
	.st37{fill:url(#SVGID_00000155834289136250559670000013935088135349656201_);}
	.st38{fill:url(#SVGID_00000160871471171168578600000009369966421550844050_);}
	.st39{fill:url(#SVGID_00000178171057562632873470000007397240449362984123_);}
	.st40{fill:url(#SVGID_00000110469025396856257180000013747718682724734130_);}
	.st41{fill:url(#SVGID_00000004506875324284529130000017489902962887030146_);}
	.st42{fill:url(#SVGID_00000071558125771122918640000011806712046968409731_);}
	.st43{fill:url(#SVGID_00000057867448396205998750000000891799187825652867_);}
	.st44{fill:url(#SVGID_00000109016558726206145250000002599451560483558293_);}
	.st45{fill:url(#SVGID_00000069385002510608825460000016413476530063329930_);}
	.st46{fill:url(#SVGID_00000076571117286988516970000012615841023817813405_);}
	.st47{fill:url(#SVGID_00000023261947131257132170000004701298424023132071_);}
	.st48{fill:url(#SVGID_00000110466235397743884310000009874942404581281428_);}
	.st49{fill:url(#SVGID_00000105415781052151853670000013768190444888049546_);}
	.st50{fill:url(#SVGID_00000076579823961585328920000015966687538159910553_);}
	.st51{fill:url(#SVGID_00000145774061965708344220000000769145396805164967_);}
	.st52{fill:url(#SVGID_00000019668840282702366840000000961854107189507734_);}
	.st53{fill:url(#SVGID_00000007414570410129187720000009721209489504408707_);}
	.st54{fill:url(#SVGID_00000084518756068868436240000017075129633919840413_);}
	.st55{fill:url(#SVGID_00000181045929358900202400000009722484325543414969_);}
	.st56{fill:url(#SVGID_00000131326624259186631860000005412377842245779635_);}
	.st57{fill:url(#SVGID_00000034091568678905329590000002228424164041891732_);}
	.st58{fill:url(#SVGID_00000183963440917239784190000010014608896317530808_);}
	.st59{fill:url(#SVGID_00000131356595073893748700000013687119098035329963_);}
	.st60{fill:url(#SVGID_00000098916554620398125270000014167715551289993386_);}
	.st61{fill:url(#SVGID_00000089541498538233641530000006696472639181250992_);}
	.st62{fill:url(#SVGID_00000129895079343569966900000008972411106561388468_);}
	.st63{fill:url(#SVGID_00000018915884843628502900000000195559478982978453_);}
	.st64{fill:url(#SVGID_00000080197919542150647430000004211582476796241046_);}
	.st65{fill:url(#SVGID_00000005260648306731109110000017031921668836408469_);}
	.st66{fill:url(#SVGID_00000033360094539829121190000006462948083252843682_);}
	.st67{fill:url(#SVGID_00000057119377518477613180000003033794708027215759_);}
	.st68{fill:url(#SVGID_00000160158876652646618530000017977366419006099873_);}
	.st69{fill:url(#SVGID_00000032618783944537658260000013998880244887685776_);}
	.st70{fill:url(#SVGID_00000006680091509867231800000001510952972644819608_);}
	.st71{fill:url(#SVGID_00000172441304645252761940000003021821981175590017_);}
	.st72{fill:url(#SVGID_00000124875141491788588920000002163676435507477128_);}
	.st73{fill:url(#SVGID_00000153678283410543108880000015050848481483833236_);}
	.st74{fill:url(#SVGID_00000175320384632481861610000010307396186714120327_);}
	.st75{fill:url(#SVGID_00000133520182317215131900000002795774466913187494_);}
	.st76{fill:url(#SVGID_00000109027902965991334520000006330599239762428049_);}
	.st77{fill:url(#SVGID_00000154416021681823112990000013908722474416152737_);}
	.st78{fill:url(#SVGID_00000096050471262119712000000001951845138434958753_);}
	.st79{fill:url(#SVGID_00000148632318096828183740000010348657984395215494_);}
	.st80{fill:url(#SVGID_00000000915732911058097350000000859543822498842769_);}
	.st81{fill:url(#SVGID_00000065795706391114346890000006799000699326637759_);}
	.st82{fill:url(#SVGID_00000147219953814635745650000008899320779968939396_);}
	.st83{fill:url(#SVGID_00000010286615299644926840000007748480483125730478_);}
	.st84{fill:url(#SVGID_00000092441320643320839210000014836986217042208396_);}
	.st85{fill:url(#SVGID_00000044883432585718551910000003010722504788173966_);}
	.st86{fill:url(#SVGID_00000049192493996646193000000014585067716768078513_);}
	.st87{fill:url(#SVGID_00000032610153102614563850000001592313725374406574_);}
	.st88{fill:url(#SVGID_00000127739831983811627350000005689991285350494875_);}
	.st89{fill:url(#SVGID_00000013188395942624560030000009670724714888950181_);}
	.st90{fill:url(#SVGID_00000036964399922840932120000003981494217588675209_);}
	.st91{fill:url(#SVGID_00000173134243506886135510000014790276420919378312_);}
	.st92{fill:url(#SVGID_00000067920749598843830730000014040171059945227666_);}
	.st93{fill:url(#SVGID_00000115503372942693976270000005699361434445958031_);}
	.st94{fill:url(#SVGID_00000152968643623456153240000015430629285488343964_);}
	.st95{fill:url(#SVGID_00000031186305827837195440000013896802472030944413_);}
	.st96{fill:url(#SVGID_00000076578309752456726050000001657487773381654924_);}
	.st97{fill:url(#SVGID_00000055688165224672520850000015043299317577402544_);}
	.st98{fill:url(#SVGID_00000108283015825471867040000002111090829054894262_);}
	.st99{fill:url(#SVGID_00000139261294643583855620000003197135933541283488_);}
	.st100{fill:url(#SVGID_00000087380142576752736340000012661768004206877601_);}
	.st101{fill:url(#SVGID_00000013896394258982325710000002586479035231910018_);}
	.st102{fill:url(#SVGID_00000167373447620244760330000008197778087380857483_);}
	.st103{fill:url(#SVGID_00000152264342184125815520000018265848035803109780_);}
	.st104{fill:url(#SVGID_00000173128406618359053550000018035739376337221034_);}
	.st105{fill:url(#SVGID_00000146499182789619956270000008384851102346531234_);}
	.st106{fill:url(#SVGID_00000144327831920521207290000002360636504052191155_);}
	.st107{fill:url(#SVGID_00000069366780941338177780000004120099808717970324_);}
	.st108{fill:url(#SVGID_00000029742538791417726400000007856065608942782133_);}
	.st109{fill:url(#SVGID_00000045609236407882985120000002017384066845642660_);}
	.st110{fill:url(#SVGID_00000118384651060815006960000008780380850543550654_);}
	.st111{fill:url(#SVGID_00000026869232135365065760000004806862144342055613_);}
	.st112{fill:url(#SVGID_00000039854268380292151590000008432192340066808215_);}
	.st113{fill:url(#SVGID_00000135679478820832409890000006405393584118502069_);}
	.st114{fill:url(#SVGID_00000166660974866924272580000007823077535598715543_);}
	.st115{fill:url(#SVGID_00000105403071472522516730000006471000567302879152_);}
	.st116{fill:url(#SVGID_00000152946939566345038700000007253453036516144315_);}
	.st117{fill:url(#SVGID_00000094612990352237763760000012217883785980121480_);}
	.st118{fill:url(#SVGID_00000168083195108631343230000001117617756413455269_);}
	.st119{fill:url(#SVGID_00000111901450915708332100000007521251590691795366_);}
	.st120{fill:url(#SVGID_00000097476443592539788550000015249221515122986652_);}
	.st121{fill:url(#SVGID_00000026847128297504343880000009253438550404845238_);}
	.st122{fill:url(#SVGID_00000055696540515951303630000001211903233683266208_);}
	.st123{fill:url(#SVGID_00000130648204464839147900000011628208659605086853_);}
	.st124{fill:url(#SVGID_00000014611993727503789240000014058837265611699882_);}
	.st125{fill:url(#SVGID_00000120548234911785720890000000964391010202951049_);}
	.st126{fill:url(#SVGID_00000032608644321309155860000016459847695216500901_);}
	.st127{fill:url(#SVGID_00000038400001690266867250000001699589831984676755_);}
	.st128{fill:url(#SVGID_00000037693657828751881590000001994321882613481108_);}
	.st129{fill:url(#SVGID_00000121968200270874604330000015530701144972012163_);}
	.st130{fill:url(#SVGID_00000113315224089341527940000010522028230949225910_);}
	.st131{fill:url(#SVGID_00000089566318981356556920000000469241990869266107_);}
	.st132{fill:url(#SVGID_00000059310364828376226960000014563491692333470884_);}
	.st133{fill:url(#SVGID_00000047061284911120242780000012358495761920130708_);}
	.st134{fill:url(#SVGID_00000137847291153744264530000000424093323066223262_);}
	.st135{fill:url(#SVGID_00000104696308136732654930000004678302184962590653_);}
	.st136{fill:url(#SVGID_00000182488978540106961180000015290296517925232300_);}
	.st137{fill:url(#SVGID_00000027575734986099450620000017408306620253833344_);}
	.st138{fill:url(#SVGID_00000139279734120784193460000001764274293627235728_);}
	.st139{fill:url(#SVGID_00000158746378585684189680000011899699281126878599_);}
	.st140{fill:url(#SVGID_00000022520473675444899450000016544557855504671143_);}
	.st141{fill:url(#SVGID_00000026153892733965013060000013207675963239552684_);}
	.st142{fill:url(#SVGID_00000004514596204676504990000008870894647625773753_);}
	.st143{fill:url(#SVGID_00000117637730960730109580000013032445907861786011_);}
	.st144{fill:url(#SVGID_00000008109959764521015920000014766585077601975224_);}
	.st145{fill:url(#SVGID_00000110454960346582906660000003411893869614527147_);}
	.st146{fill:url(#SVGID_00000083805747407844151030000016393439598599819185_);}
	.st147{fill:url(#SVGID_00000028291462106661633300000005031754685047943359_);}
	.st148{fill:url(#SVGID_00000061460705875226589300000011605360638841392541_);}
	.st149{fill:url(#SVGID_00000005245605650385714460000009101079778839019408_);}
</style>
<g>
	<path class="st0" d="M67.6,150.8c-0.5,0-1-0.1-1.5-0.2l0,0l-24.7-7l-1.2-11.3l1.1-108.1c0-0.2,0-0.4,0.1-0.5v-0.8h-0.1
		C72.7,13.3,96.9,23,96.9,23c-0.3-0.1-0.6-0.1-0.9-0.2c0.3,0.1,0.6,0.1,0.9,0.2l13.2,20.1l9.1,17.3v6.7v2.6v75.7
		c0,3-2.4,5.4-5.4,5.4L67.6,150.8L67.6,150.8z"/>
	
		<linearGradient id="SVGID_1_" gradientUnits="userSpaceOnUse" x1="85.6317" y1="121.1834" x2="85.91" y2="86.1101" gradientTransform="matrix(6.123234e-17 1 -1 6.123234e-17 168.765 2.6349)">
		<stop  offset="0" style="stop-color:#5C5C5C"/>
		<stop  offset="0.1042" style="stop-color:#979797"/>
	</linearGradient>
	<path class="st1" d="M71.8,152.1l-6.9-2c-0.1,0-0.2-0.1-0.4-0.1l-0.3-0.1c-0.1,0-0.2-0.1-0.2-0.1l-0.1,0l-9.9-2.8l-4.1-1.2
		l-0.8-0.2l-0.9-0.3L47.1,134l0-3.6l0.1-5.9c0,0,0,0,0,0l0.1-8.9l0.1-5.9l0.6-56.6l0.1-5.7l0.1-9.6l0.1-5.7l0.1-6.2v0
		c0-0.4,0.2-0.8,0.5-1c0.1-0.1,0.2-0.2,0.3-0.2c0.2,0,0.3-0.1,0.5-0.1c0.1,0,0.2,0,0.3,0c0,0,0.1,0,0.1,0c0,0,0,0,0,0
		c0.1,0,0.1,0,0.2,0.1c0.3,0.2,0.5,0.3,0.8,0.5c5.4,3.3,8.3,8.6,10.1,14.8L69,63.8v8.5v75c0,0.1,0,0.2,0,0.3v0c0,0.1,0,0.2,0,0.4
		c0,2.5-2.3,2.4-3.8,2.1l6.5,1.8C71.7,152,71.8,152.1,71.8,152.1z"/>
	<g>
		<path class="st2" d="M86.8,23.3l-0.1-0.1C86.7,23.2,86.8,23.3,86.8,23.3z"/>
		<path class="st2" d="M68.4,54.1l-3.7-11c0,0,0,0,0,0c0.4-0.4,8-6.9,25.9-6.3c18.4,0.6,25,6.9,25,6.9c-0.1,0-0.1,0-0.2-0.1
			c0,0,0,0,0.1,0.1c2.6,4.7,5.9,10.5,7.9,15.1c0.4,0.9-0.5,1.9-1.5,1.7c-16.2-4.2-30-3.7-45.8,1C71,63,70.2,59.2,68.4,54.1z"/>
		<polygon class="st3" points="54.1,147.1 49.2,145.7 49.2,143.6 54.1,145 		"/>
		<polygon class="st4" points="50,146 50,24.7 48.2,24.7 48.3,145.4 		"/>
		<ellipse class="st4" cx="48" cy="42.6" rx="4.4" ry="10.5"/>
		<ellipse class="st2" cx="48" cy="42.6" rx="2" ry="4.8"/>
		<ellipse class="st4" cx="48" cy="120.1" rx="4.4" ry="10.5"/>
		<ellipse class="st2" cx="48" cy="120.1" rx="2" ry="4.8"/>
		
			<linearGradient id="SVGID_00000150068646574818403470000000511077262804576184_" gradientUnits="userSpaceOnUse" x1="108.7224" y1="704.5383" x2="108.7224" y2="696.286" gradientTransform="matrix(6.123234e-17 1 -1 6.123234e-17 760.765 2.6349)">
			<stop  offset="0.3111" style="stop-color:#000000"/>
			<stop  offset="1" style="stop-color:#37475E"/>
		</linearGradient>
		<path style="fill:url(#SVGID_00000150068646574818403470000000511077262804576184_);" d="M62.8,75.8h-4.1c-1.3,0-2.4,0.9-2.4,2.1
			V143c0,1.2,0.4,1.9,2.1,2.5l4.4,1.3c1.8,0.4,2.4-0.9,2.4-2.1V77.9C65.2,76.7,64.1,75.8,62.8,75.8z"/>
		<path class="st2" d="M126,147.2V62.3L116.9,45l-13.2-20.1c0,0,0,0,0,0c-0.3,0-0.6-0.1-0.8-0.2c-0.1,0-0.1,0-0.1,0
			c-6.1-1.4-11.8-2.2-17.2-2.5l0.1,0.1l1.1,1c0.1,0,0.1,0.1,0.1,0.1l-0.1-0.1c-1.5-0.6-14.2-0.3-17.8,1.1l0.2-2.1
			C62.1,22.8,56,24,51,25.3c5.4,3.3,8.3,8.6,10.1,14.8L69,63.8v83.5c0,0.1,0,0.2,0,0.3v0c0,0.1,0,0.2,0,0.4c0,2.5-2.3,2.4-3.8,2.1
			l6.5,1.8c0.1,0,0.1,0.1,0.2,0.1c0.8,0.4,1.6,0.6,2.5,0.6h46.2C123.5,152.6,126,150.2,126,147.2z M68.4,54.1l-3.7-11c0,0,0,0,0,0
			c0.4-0.4,8-6.9,25.9-6.3c18.4,0.6,25,6.9,25,6.9c-0.1,0-0.1,0-0.2-0.1c0,0,0,0,0.1,0.1c2.6,4.7,5.9,10.5,7.9,15.1
			c0.4,0.9-0.5,1.9-1.5,1.7c-16.2-4.2-30-3.7-45.8,1C71,63,70.2,59.2,68.4,54.1z"/>
		
			<linearGradient id="SVGID_00000159443484942568875400000015242427809650573228_" gradientUnits="userSpaceOnUse" x1="51.7402" y1="74.6112" x2="39.9593" y2="74.9446" gradientTransform="matrix(6.123234e-17 1 -1 6.123234e-17 168.765 2.6349)">
			<stop  offset="0.3111" style="stop-color:#000000"/>
			<stop  offset="1" style="stop-color:#37475E"/>
		</linearGradient>
		<path style="fill:url(#SVGID_00000159443484942568875400000015242427809650573228_);" d="M68.4,54.1l-3.7-11c0,0,0,0,0,0
			c15.1-10.9,44.4-5.4,50.7,0.6c0,0,0,0,0.1,0.1c2.6,4.7,5.9,10.5,7.9,15.1c0.4,0.9-0.5,1.9-1.5,1.7c-16.2-4.2-30-3.7-45.8,1
			C71,63,70.2,59.2,68.4,54.1z"/>
		
			<linearGradient id="SVGID_00000018930425789400410570000003120254752236118446_" gradientUnits="userSpaceOnUse" x1="51.4855" y1="704.3694" x2="51.4855" y2="696.6798" gradientTransform="matrix(6.123234e-17 1 -1 6.123234e-17 760.765 2.6349)">
			<stop  offset="0.3111" style="stop-color:#000000"/>
			<stop  offset="1" style="stop-color:#37475E"/>
		</linearGradient>
		<path style="fill:url(#SVGID_00000018930425789400410570000003120254752236118446_);" d="M63.1,62.9H58c-0.9,0-1.6-0.7-1.6-1.6
			V46.9c0-0.9,0.7-1.6,1.6-1.6h0.3c0.7,0,1.3,0.4,1.5,1.1l4.8,14.5C65,61.8,64.2,62.9,63.1,62.9z"/>
		<path d="M115.4,43.7c-19.2-7.1-35.4-5.2-50.7-0.5c0,0,0,0,0,0c0.4-0.4,8-6.9,25.9-6.3c18.4,0.6,25,6.9,25,6.9
			C115.5,43.7,115.5,43.7,115.4,43.7z"/>
		<path d="M50.2,25.5L50,25.4l-0.9-0.4l-0.4-0.2l-0.5-0.2c30.7-9.3,54.5-0.2,55.5,0.2c-0.3-0.1-0.6-0.1-0.8-0.2c-0.1,0-0.1,0-0.1,0
			c-6.1-1.4-11.8-2.2-17.2-2.5c-5.9-0.4-11.4-0.3-16.4,0.1C62.1,22.8,56,24,51,25.3C50.7,25.4,50.4,25.5,50.2,25.5z"/>
		<path d="M86.8,23.3l-0.1-0.1C86.7,23.2,86.8,23.3,86.8,23.3z"/>
		<path d="M68.9,24.3l0.2-2.1l0-0.4l0-0.2h15.9l0.2,0.2l0.3,0.3l0.1,0.1l1.1,1C85.2,22.6,72.4,22.9,68.9,24.3z"/>
		<path class="st9" d="M64,149.8L64,149.8C64,149.8,64,149.8,64,149.8C64,149.8,64,149.8,64,149.8z"/>
		<path class="st9" d="M65.1,150.1c-0.1,0-0.1,0-0.2,0c-0.1,0-0.2-0.1-0.4-0.1l-0.3-0.1c-0.1,0-0.2-0.1-0.2-0.1c0,0,0,0-0.1,0
			L65.1,150.1z"/>
	</g>
</g>
</svg>
