<?xml version="1.0" encoding="utf-8"?>
<!-- Generator: Adobe Illustrator 25.4.1, SVG Export Plug-In . SVG Version: 6.00 Build 0)  -->
<svg version="1.1" id="Layer_1" xmlns="http://www.w3.org/2000/svg" xmlns:xlink="http://www.w3.org/1999/xlink" x="0px" y="0px"
	 viewBox="0 0 168 168" style="enable-background:new 0 0 168 168;" xml:space="preserve">
<style type="text/css">
	.st0{opacity:0.2;fill:#151110;enable-background:new    ;}
	.st1{fill:url(#SVGID_1_);}
	.st2{fill:#FFFFFF;}
	.st3{fill:#C00D0D;}
	.st4{fill:#151110;}
	.st5{fill:url(#SVGID_00000010268951326466889800000018011154530140635030_);}
	.st6{fill:url(#SVGID_00000156570387435019117410000012169455550846461363_);}
	.st7{fill:none;stroke:#A03394;stroke-width:9;stroke-miterlimit:10;}
	.st8{fill:url(#SVGID_00000114789962101680585920000002831682271186218397_);}
	.st9{fill:#F0F0F0;}
	.st10{fill:url(#SVGID_00000047052184242894986760000002284238725382257068_);}
	.st11{fill:url(#SVGID_00000042009238023681617400000013679087276811954608_);}
	.st12{fill:url(#SVGID_00000069355987732742082160000009369018037911396482_);}
	.st13{fill:url(#SVGID_00000090987465832829717140000001160206827470219710_);}
	.st14{fill:url(#SVGID_00000069386750232849728120000016645580307023613881_);}
	.st15{fill:url(#SVGID_00000165234467120551288430000004429815965605792155_);}
	.st16{fill:url(#SVGID_00000115494182250706090050000016809137543770596008_);}
	.st17{fill:url(#SVGID_00000008843610547823228370000002536365227714669697_);}
	.st18{fill:url(#SVGID_00000054240783424795451740000010361861508475565722_);}
	.st19{fill:url(#SVGID_00000174588939023407369050000001376687215902054287_);}
	.st20{fill:url(#SVGID_00000071528650842945741800000000218047265525501101_);}
	.st21{fill:url(#SVGID_00000081605461686710939340000014808169389335918257_);}
	.st22{fill:url(#SVGID_00000170273311264803151140000001796119909846707640_);}
	.st23{fill:url(#SVGID_00000003796561636603250570000016321267083421778824_);}
	.st24{fill:url(#SVGID_00000114785975381736292670000012495665853860495791_);}
	.st25{fill:url(#SVGID_00000028285719819975250670000000088336152095292290_);}
	.st26{fill:url(#SVGID_00000122698881763793534670000005293755838403357369_);}
	.st27{fill:url(#SVGID_00000127765943338104300450000002588729352006065592_);}
	.st28{fill:url(#SVGID_00000060741645660958237660000010711992786434620067_);}
	.st29{fill:url(#SVGID_00000157308036277715755890000007450519061281547963_);}
	.st30{fill:url(#SVGID_00000090976838543881279780000010285234627208841402_);}
	.st31{fill:url(#SVGID_00000070815686905900909130000016267338735399442570_);}
	.st32{fill:url(#SVGID_00000084497890635106534220000008770260337326835875_);}
	.st33{fill:url(#SVGID_00000071561588614344083470000017980490767103241655_);}
	.st34{fill:url(#SVGID_00000025431272234108074650000009705790766849253037_);}
	.st35{fill:url(#SVGID_00000001629714691514796440000015643610333200789646_);}
	.st36{fill:url(#SVGID_00000005963178219593494820000000130784793780238996_);}
	.st37{fill:url(#SVGID_00000059990474259252630070000003593724930198799006_);}
	.st38{fill:url(#SVGID_00000168823532495627782380000004635081005602712486_);}
	.st39{fill:url(#SVGID_00000068667074392962040590000009701148542588782490_);}
	.st40{fill:url(#SVGID_00000068642529655562801400000015470346634244667036_);}
	.st41{fill:url(#SVGID_00000117657840064241373190000014315439561333385122_);}
	.st42{fill:url(#SVGID_00000096024231588467217720000018381210214808803720_);}
	.st43{fill:url(#SVGID_00000070116104994631240290000002324416389607708854_);}
	.st44{fill:url(#SVGID_00000099632581294322610660000016406278913252058295_);}
	.st45{fill:url(#SVGID_00000062902349614264142730000010927550498373294233_);}
	.st46{fill:url(#SVGID_00000005234674167344604470000004026878397779416220_);}
	.st47{fill:url(#SVGID_00000072271437321490994320000013338763827979358359_);}
	.st48{fill:url(#SVGID_00000054228841990968534580000013693601584642320779_);}
	.st49{fill:url(#SVGID_00000175318369025023493910000012905756963904246161_);}
	.st50{fill:url(#SVGID_00000085252675215910869380000017040239217570096061_);}
	.st51{fill:url(#SVGID_00000015345025209725008240000004022402975840584095_);}
	.st52{fill:url(#SVGID_00000074432786109337849730000002514072371475410856_);}
	.st53{fill:url(#SVGID_00000176731721768277942840000006722341184854871456_);}
	.st54{fill:url(#SVGID_00000163045277534846806460000011384760326841665935_);}
	.st55{fill:url(#SVGID_00000108292274419651599250000005694147959649304244_);}
	.st56{fill:url(#SVGID_00000057128040250984934950000007066443733764220600_);}
	.st57{fill:url(#SVGID_00000073702929569599910870000016909406233340604088_);}
	.st58{fill:url(#SVGID_00000077302156443602683920000015045934966813670784_);}
	.st59{fill:url(#SVGID_00000130641093932478247680000017778944095080342429_);}
	.st60{fill:url(#SVGID_00000138569428514358865200000017839989951024161457_);}
	.st61{fill:url(#SVGID_00000052087399268914887750000012439961977981493902_);}
	.st62{fill:url(#SVGID_00000026132043869051244950000010467210792472783515_);}
	.st63{fill:url(#SVGID_00000151516717622667642340000003574323486888805040_);}
	.st64{fill:url(#SVGID_00000015335777166097416470000007209617981480255631_);}
	.st65{fill:url(#SVGID_00000072985394594072372660000007734891243999439781_);}
	.st66{fill:url(#SVGID_00000070811683284588725210000003641284564768996522_);}
	.st67{fill:url(#SVGID_00000133494161824130770260000015940430934645059203_);}
	.st68{fill:url(#SVGID_00000147195468271100930270000008632909307216306360_);}
	.st69{fill:url(#SVGID_00000002357405069599467490000003806851988778110601_);}
	.st70{fill:url(#SVGID_00000136406053074624761790000004926726348424841101_);}
	.st71{fill:url(#SVGID_00000019675611508114837880000005345503852608747198_);}
	.st72{fill:url(#SVGID_00000117652167310543282170000005831024951945642379_);}
	.st73{fill:url(#SVGID_00000158730308045309075910000016091660007740020390_);}
	.st74{fill:url(#SVGID_00000040568881976933464120000006856625034294650519_);}
	.st75{fill:url(#SVGID_00000144328302204256395430000000641579197664265622_);}
	.st76{fill:url(#SVGID_00000174576576941088110980000013656179192759180973_);}
	.st77{fill:url(#SVGID_00000019661335175088948920000002995150484695146382_);}
	.st78{fill:url(#SVGID_00000005947353152737118220000014093832516749464510_);}
	.st79{fill:url(#SVGID_00000183217341084179635120000006591460729602946724_);}
	.st80{fill:url(#SVGID_00000016792587327965522280000015217627956645945506_);}
	.st81{fill:url(#SVGID_00000161599724558691778920000007065336742826571417_);}
	.st82{fill:url(#SVGID_00000161616662179994996450000007229261991093962372_);}
	.st83{fill:url(#SVGID_00000181054591567498081280000011247788508039856045_);}
	.st84{fill:url(#SVGID_00000152943861948936399030000002015000777646810025_);}
	.st85{fill:url(#SVGID_00000012460225527067981740000008035536834336203164_);}
	.st86{fill:url(#SVGID_00000044884680270131932270000018228128875396047256_);}
	.st87{fill:url(#SVGID_00000034057717892930136730000013250800971902206336_);}
	.st88{fill:url(#SVGID_00000048502442237000012530000012789061384561102238_);}
	.st89{fill:url(#SVGID_00000121995764645704570130000004760197211395726486_);}
	.st90{fill:url(#SVGID_00000153688305200775190750000014003194179780217229_);}
	.st91{fill:url(#SVGID_00000176033926798876447180000009631586506883044741_);}
	.st92{fill:url(#SVGID_00000137095073858806144930000009044168016392936832_);}
	.st93{fill:url(#SVGID_00000084504995283571066980000014883957953402612895_);}
	.st94{fill:url(#SVGID_00000069369581572596365080000007009503430309983133_);}
	.st95{fill:url(#SVGID_00000062875693545663602250000010098821847435099562_);}
	.st96{fill:url(#SVGID_00000085218526031047766370000016874624296850028428_);}
	.st97{fill:url(#SVGID_00000150082486322785927840000003129638394476879021_);}
	.st98{fill:url(#SVGID_00000070820328977557701140000012498942720566178456_);}
	.st99{fill:url(#SVGID_00000057844483096254173950000011934755085437494711_);}
	.st100{fill:url(#SVGID_00000131337360762542143990000017910398409206172070_);}
	.st101{fill:url(#SVGID_00000122692127225111051380000018199331967713912745_);}
	.st102{fill:url(#SVGID_00000025412238999955989580000008586888270182006186_);}
	.st103{fill:url(#SVGID_00000065059737555257417810000014511188616891897226_);}
	.st104{fill:url(#SVGID_00000038412541252681868740000002744983582439109773_);}
	.st105{fill:url(#SVGID_00000018225973576012647450000001491449577393757099_);}
	.st106{fill:url(#SVGID_00000044163560946919285010000016524663070387225745_);}
	.st107{fill:url(#SVGID_00000042004921951334190680000009959587281320743839_);}
	.st108{fill:url(#SVGID_00000158716983449731381100000006486688906383466625_);}
	.st109{fill:url(#SVGID_00000111184933844710218080000003347213249223505584_);}
	.st110{fill:url(#SVGID_00000008859188479171587100000007353433408568905641_);}
	.st111{fill:url(#SVGID_00000145768793033094611220000016276393225112999102_);}
	.st112{fill:url(#SVGID_00000013872505939119022080000009898434576870899107_);}
	.st113{fill:url(#SVGID_00000182518813850299346710000016731464400727292588_);}
	.st114{fill:url(#SVGID_00000183965440541323660210000016484321732638332591_);}
	.st115{fill:url(#SVGID_00000147927885143337496930000016784381434129574787_);}
	.st116{fill:url(#SVGID_00000006687827682159517520000008674232967310881173_);}
	.st117{fill:url(#SVGID_00000002349775518437819410000007876392567276471956_);}
	.st118{fill:url(#SVGID_00000181073640482167112800000007017481382302775461_);}
	.st119{fill:url(#SVGID_00000043426486662096026780000007994392671839964349_);}
	.st120{fill:url(#SVGID_00000169533797060319012020000003797169843174283191_);}
	.st121{fill:url(#SVGID_00000007395918547965797740000017875726058130764987_);}
	.st122{fill:url(#SVGID_00000060020760002894372240000018226374288021398686_);}
	.st123{fill:url(#SVGID_00000127736217634032084680000001807253621212753327_);}
	.st124{fill:url(#SVGID_00000145054359437462033660000018384987901932808840_);}
	.st125{fill:url(#SVGID_00000012446367973037969330000014356858480435535517_);}
	.st126{fill:url(#SVGID_00000029031842577466224750000010035478427431185549_);}
	.st127{fill:url(#SVGID_00000045610096317121878460000004183884707796648078_);}
	.st128{fill:url(#SVGID_00000018946423174447466310000017827156201106115714_);}
	.st129{fill:url(#SVGID_00000139984472637398066210000015370509090002426300_);}
	.st130{fill:url(#SVGID_00000105384897955668421660000011455089132068907141_);}
	.st131{fill:url(#SVGID_00000074431625934231708760000000513284448232979646_);}
	.st132{fill:url(#SVGID_00000054260143029226061490000001044703322277326774_);}
	.st133{fill:url(#SVGID_00000049208274084948784660000000402286699651710341_);}
	.st134{fill:url(#SVGID_00000067212415725260861900000008001000264986941087_);}
	.st135{fill:url(#SVGID_00000016062567607508903620000003291422985137264813_);}
	.st136{fill:url(#SVGID_00000054950214029633965030000004828951699294908581_);}
	.st137{fill:url(#SVGID_00000121267546492404613030000002486193486548515503_);}
	.st138{fill:url(#SVGID_00000142875973932051036960000002167220234804484542_);}
	.st139{fill:url(#SVGID_00000060026224133356749140000012006247967623996314_);}
	.st140{fill:url(#SVGID_00000021104472782647762770000015444567296269624220_);}
	.st141{fill:url(#SVGID_00000055676017541571100410000010966259953634531251_);}
	.st142{fill:url(#SVGID_00000094616081352319990920000005507259951612377756_);}
	.st143{fill:url(#SVGID_00000121242154654947284610000004261870842726087045_);}
	.st144{fill:url(#SVGID_00000127757563999830072440000009346068052005908156_);}
	.st145{fill:url(#SVGID_00000182487865540243000270000012836925313198972075_);}
	.st146{fill:url(#SVGID_00000109747041741751757170000012235903615510825651_);}
	.st147{fill:url(#SVGID_00000179604478614487016340000007607508110879870105_);}
	.st148{fill:url(#SVGID_00000104666705814625039460000016891366407681914558_);}
	.st149{fill:url(#SVGID_00000061441936295218274060000014712140765197282982_);}
</style>
<g>
	<path class="st0" d="M56.5,147.1c-0.5-0.1-1-0.3-1.4-0.5l0,0l-23.1-11.2l0.8-11.3L52.6,17.9c0-0.2,0.1-0.4,0.2-0.5l0.1-0.8l-0.1,0
		c32.6-4,54.7,9.8,54.7,9.8c-0.3-0.2-0.6-0.2-0.9-0.4c0.3,0.2,0.6,0.2,0.9,0.4l9.5,22.1l6,18.6l-1.2,6.6l-0.5,2.6l-13.1,74.5
		c-0.5,3-3.3,4.9-6.3,4.4L56.5,147.1L56.5,147.1z"/>
	
		<linearGradient id="SVGID_1_" gradientUnits="userSpaceOnUse" x1="85.6317" y1="121.1834" x2="85.91" y2="86.1101" gradientTransform="matrix(-0.1736 0.9848 -0.9848 -0.1736 181.8872 18.7785)">
		<stop  offset="0" style="stop-color:#5C5C5C"/>
		<stop  offset="0.1042" style="stop-color:#979797"/>
	</linearGradient>
	<path class="st1" d="M60.5,149.1L54,146c-0.1-0.1-0.2-0.1-0.3-0.2l-0.3-0.1c-0.1,0-0.2-0.1-0.2-0.1l-0.1-0.1l-9.3-4.5l-3.8-1.9
		l-0.7-0.4l-0.8-0.4l0.8-11.3l0.7-3.5l1.1-5.8c0,0,0,0,0,0l1.6-8.7l1.1-5.8l10.4-55.7l1-5.6l1.8-9.4l1-5.6l1.1-6.1l0,0
		c0.1-0.4,0.3-0.7,0.7-0.9c0.1-0.1,0.2-0.1,0.4-0.1c0.2,0,0.3,0,0.5,0c0.1,0,0.2,0,0.3,0.1c0,0,0.1,0,0.1,0.1c0,0,0,0,0,0
		c0.1,0,0.1,0.1,0.2,0.1c0.2,0.2,0.5,0.4,0.7,0.6c4.7,4.2,6.6,9.9,7.4,16.3L73,61.7l-1.5,8.4l-13,73.9c0,0.1,0,0.2,0,0.3l0,0
		c0,0.1-0.1,0.2-0.1,0.4c-0.4,2.5-2.7,2-4.1,1.4l6.1,2.9C60.4,149,60.4,149.1,60.5,149.1z"/>
	<g>
		<path class="st2" d="M97.5,24.9l-0.1-0.2C97.5,24.8,97.5,24.9,97.5,24.9z"/>
		<path class="st2" d="M74.1,52l-1.7-11.5c0,0,0,0,0,0c0.5-0.3,9.1-5.4,26.6-1.7c18,3.8,23.4,11.1,23.4,11.1c-0.1,0-0.1-0.1-0.2-0.1
			c0,0,0,0,0.1,0.1c1.7,5.1,4,11.4,5.2,16.2c0.2,1-0.8,1.8-1.8,1.4c-15.2-6.9-28.9-8.9-45.3-7C75.1,61.3,75,57.4,74.1,52z"/>
		<polygon class="st3" points="43.8,141.2 39.3,138.9 39.6,136.9 44.2,139.1 		"/>
		<polygon class="st4" points="40,139.4 61.1,19.9 59.3,19.6 38.4,138.5 		"/>
		<ellipse transform="matrix(0.1736 -0.9848 0.9848 0.1736 9.6433 85.8522)" class="st4" cx="56" cy="37.2" rx="10.5" ry="4.4"/>
		<ellipse transform="matrix(0.1736 -0.9848 0.9848 0.1736 9.6433 85.8522)" class="st2" cx="56" cy="37.2" rx="4.8" ry="2"/>
		
			<ellipse transform="matrix(0.1736 -0.9848 0.9848 0.1736 -76.6406 135.6682)" class="st4" cx="42.5" cy="113.5" rx="10.5" ry="4.4"/>
		<ellipse transform="matrix(0.1736 -0.9848 0.9848 0.1736 -76.6406 135.6682)" class="st2" cx="42.5" cy="113.5" rx="4.8" ry="2"/>
		
			<linearGradient id="SVGID_00000077289245861559573490000014154625100110952077_" gradientUnits="userSpaceOnUse" x1="108.7224" y1="704.5383" x2="108.7224" y2="696.286" gradientTransform="matrix(-0.1736 0.9848 -0.9848 -0.1736 764.8934 121.5782)">
			<stop  offset="0.3111" style="stop-color:#000000"/>
			<stop  offset="1" style="stop-color:#37475E"/>
		</linearGradient>
		<path style="fill:url(#SVGID_00000077289245861559573490000014154625100110952077_);" d="M64.8,72.4l-4-0.7
			c-1.3-0.2-2.5,0.5-2.7,1.7l-11.3,64.1c-0.2,1.2,0.1,1.9,1.6,2.8l4.1,2c1.7,0.7,2.5-0.5,2.7-1.7l11.6-65.8
			C67,73.7,66.1,72.7,64.8,72.4z"/>
		<path class="st2" d="M114.6,153.7l14.7-83.6l-6-18.6l-9.5-22.1c0,0,0,0,0,0c-0.3-0.1-0.5-0.2-0.8-0.3c0,0-0.1,0-0.1-0.1
			c-5.7-2.4-11.2-4.2-16.5-5.5l0,0.1l0.9,1.1c0.1,0.1,0.1,0.1,0.1,0.2l-0.1-0.2c-1.3-0.9-13.9-2.7-17.7-2l0.6-2
			c-7-0.7-13.2-0.5-18.4-0.1c4.7,4.2,6.6,9.9,7.4,16.3L73,61.7l-14.5,82.2c0,0.1,0,0.2,0,0.3l0,0c0,0.1-0.1,0.2-0.1,0.4
			c-0.4,2.5-2.7,2-4.1,1.4l6.1,2.9c0.1,0.1,0.1,0.1,0.2,0.2c0.7,0.5,1.5,0.9,2.4,1l45.5,8C111.2,158.6,114.1,156.7,114.6,153.7z
			 M74.1,52l-1.7-11.5c0,0,0,0,0,0c0.5-0.3,9.1-5.4,26.6-1.7c18,3.8,23.4,11.1,23.4,11.1c-0.1,0-0.1-0.1-0.2-0.1c0,0,0,0,0.1,0.1
			c1.7,5.1,4,11.4,5.2,16.2c0.2,1-0.8,1.8-1.8,1.4c-15.2-6.9-28.9-8.9-45.3-7C75.1,61.3,75,57.4,74.1,52z"/>
		
			<linearGradient id="SVGID_00000045616925845036653130000009666637663996984708_" gradientUnits="userSpaceOnUse" x1="51.7402" y1="74.6112" x2="39.9593" y2="74.9446" gradientTransform="matrix(-0.1736 0.9848 -0.9848 -0.1736 181.8872 18.7785)">
			<stop  offset="0.3111" style="stop-color:#000000"/>
			<stop  offset="1" style="stop-color:#37475E"/>
		</linearGradient>
		<path style="fill:url(#SVGID_00000045616925845036653130000009666637663996984708_);" d="M74.1,52l-1.7-11.5c0,0,0,0,0,0
			c16.7-8.2,44.6,2.4,49.8,9.4c0,0,0,0,0.1,0.1c1.7,5.1,4,11.4,5.2,16.2c0.2,1-0.8,1.8-1.8,1.4c-15.2-6.9-28.9-8.9-45.3-7
			C75.1,61.3,75,57.4,74.1,52z"/>
		
			<linearGradient id="SVGID_00000053516297971973113510000017906501184194592696_" gradientUnits="userSpaceOnUse" x1="51.4855" y1="704.3694" x2="51.4855" y2="696.6798" gradientTransform="matrix(-0.1736 0.9848 -0.9848 -0.1736 764.8934 121.5782)">
			<stop  offset="0.3111" style="stop-color:#000000"/>
			<stop  offset="1" style="stop-color:#37475E"/>
		</linearGradient>
		<path style="fill:url(#SVGID_00000053516297971973113510000017906501184194592696_);" d="M67.3,59.8l-5-0.9
			c-0.9-0.2-1.5-1-1.3-1.9l2.5-14.2c0.2-0.9,1-1.5,1.9-1.3l0.3,0.1c0.7,0.1,1.2,0.6,1.3,1.3l2.2,15.1C69.4,59,68.4,60,67.3,59.8z"/>
		<path d="M122.2,49.9c-17.7-10.4-33.9-11.3-49.9-9.3c0,0,0,0,0,0c0.5-0.3,9.1-5.4,26.6-1.7c18,3.8,23.4,11.1,23.4,11.1
			C122.3,50,122.3,49.9,122.2,49.9z"/>
		<path d="M61.1,20.7l-0.2-0.1l-0.8-0.5l-0.4-0.2l-0.5-0.3c31.9-3.8,53.7,9.3,54.6,9.8c-0.3-0.1-0.5-0.2-0.8-0.3c0,0-0.1,0-0.1-0.1
			c-5.7-2.4-11.2-4.2-16.5-5.5c-5.8-1.5-11.2-2.3-16.2-2.8c-7-0.7-13.2-0.5-18.4-0.1C61.7,20.7,61.4,20.7,61.1,20.7z"/>
		<path d="M97.5,24.9l-0.1-0.2C97.5,24.8,97.5,24.9,97.5,24.9z"/>
		<path d="M79.7,22.8l0.6-2l0.1-0.3l0-0.1L96.1,23l0.1,0.2l0.2,0.3l0,0.1l0.9,1.1C96.1,23.9,83.5,22,79.7,22.8z"/>
		<path class="st9" d="M53.1,145.5L53.1,145.5C53.2,145.5,53.1,145.5,53.1,145.5C53.1,145.5,53.1,145.5,53.1,145.5z"/>
		<path class="st9" d="M54.2,146c0,0-0.1,0-0.1-0.1c-0.1-0.1-0.2-0.1-0.3-0.2l-0.3-0.1c-0.1,0-0.2-0.1-0.2-0.1c0,0,0,0-0.1,0
			L54.2,146z"/>
	</g>
</g>
</svg>
