<?xml version="1.0" encoding="utf-8"?>
<!-- Generator: Adobe Illustrator 25.4.1, SVG Export Plug-In . SVG Version: 6.00 Build 0)  -->
<svg version="1.1" id="Layer_1" xmlns="http://www.w3.org/2000/svg" xmlns:xlink="http://www.w3.org/1999/xlink" x="0px" y="0px"
	 viewBox="0 0 168 168" style="enable-background:new 0 0 168 168;" xml:space="preserve">
<style type="text/css">
	.st0{opacity:0.2;fill:#151110;enable-background:new    ;}
	.st1{fill:url(#SVGID_1_);}
	.st2{fill:#FFFFFF;}
	.st3{fill:#C00D0D;}
	.st4{fill:#151110;}
	.st5{fill:url(#SVGID_00000029738815601469922020000005404531771286254754_);}
	.st6{fill:url(#SVGID_00000116931984768296386530000017524884955936021182_);}
	.st7{fill:none;stroke:#A03394;stroke-width:9;stroke-miterlimit:10;}
	.st8{fill:url(#SVGID_00000116210819566849327350000003875063204297229190_);}
	.st9{fill:#F0F0F0;}
	.st10{fill:url(#SVGID_00000168826647447741178280000002792166103296963503_);}
	.st11{fill:url(#SVGID_00000005249662257843294820000003008974969796520611_);}
	.st12{fill:url(#SVGID_00000053526967445881459040000002866296243662571956_);}
	.st13{fill:url(#SVGID_00000133519507293899434900000013391997526940986036_);}
	.st14{fill:url(#SVGID_00000008864545525953974530000008850231171718323622_);}
	.st15{fill:url(#SVGID_00000053517838140385149800000016736000229311294625_);}
	.st16{fill:url(#SVGID_00000167382224086321089680000010549372713799389346_);}
	.st17{fill:url(#SVGID_00000011735886954639375810000007454952716511260560_);}
	.st18{fill:url(#SVGID_00000119119658243134652590000015513216651783238795_);}
	.st19{fill:url(#SVGID_00000091007665861062629980000009092159883515870899_);}
	.st20{fill:url(#SVGID_00000128467537475851222350000015594263348122623162_);}
	.st21{fill:url(#SVGID_00000050641198690163653670000008070074722716060085_);}
	.st22{fill:url(#SVGID_00000164476724459208750810000003267490590718022816_);}
	.st23{fill:url(#SVGID_00000175303348188950064870000008568451378205944993_);}
	.st24{fill:url(#SVGID_00000026868598155817939970000007195052267742593677_);}
	.st25{fill:url(#SVGID_00000065769445361439326780000003282994022336341144_);}
	.st26{fill:url(#SVGID_00000054251976413591971130000017171663934079866006_);}
	.st27{fill:url(#SVGID_00000082351121548789770240000005193688801233491114_);}
	.st28{fill:url(#SVGID_00000097472799697505156340000004226142676309484216_);}
	.st29{fill:url(#SVGID_00000068651880400195814690000016318793593073141945_);}
	.st30{fill:url(#SVGID_00000084529393485131090470000003088761327760270735_);}
	.st31{fill:url(#SVGID_00000028322085566403369570000007151270592970212747_);}
	.st32{fill:url(#SVGID_00000089553601698923291840000009193375557393320864_);}
	.st33{fill:url(#SVGID_00000073705728702533662190000014060474967480765076_);}
	.st34{fill:url(#SVGID_00000000203474973821864570000013355011357192499112_);}
	.st35{fill:url(#SVGID_00000014606894960003015300000006822621736668282760_);}
	.st36{fill:url(#SVGID_00000052804770647519077190000000559787187273067664_);}
	.st37{fill:url(#SVGID_00000015346626679881335500000000853277485119425185_);}
	.st38{fill:url(#SVGID_00000146483459156256063060000000993875758597270435_);}
	.st39{fill:url(#SVGID_00000052063856016884667140000017779047541223186871_);}
	.st40{fill:url(#SVGID_00000145774265995568204390000001623280812360972679_);}
	.st41{fill:url(#SVGID_00000077308866847798704270000014854530342638927268_);}
	.st42{fill:url(#SVGID_00000183971212106752012630000014210969224592685211_);}
	.st43{fill:url(#SVGID_00000032620292053984875560000004017549665815418020_);}
	.st44{fill:url(#SVGID_00000081617907711168574640000017308604459393990063_);}
	.st45{fill:url(#SVGID_00000008855951197208495510000003217569669461130943_);}
	.st46{fill:url(#SVGID_00000006668455730636982270000010204697455235587207_);}
	.st47{fill:url(#SVGID_00000152955593719797196750000018251569410152323478_);}
	.st48{fill:url(#SVGID_00000064336329655314298770000015977215982255272582_);}
	.st49{fill:url(#SVGID_00000059293858533137308070000008906178238864690345_);}
	.st50{fill:url(#SVGID_00000044870075670037568190000007380598207277336744_);}
	.st51{fill:url(#SVGID_00000059291500615278249550000010719257737261999512_);}
	.st52{fill:url(#SVGID_00000097482118679685847120000008175069985203496342_);}
	.st53{fill:url(#SVGID_00000145763755033434599520000006130762746892258439_);}
	.st54{fill:url(#SVGID_00000149347150893451006150000009086409735404978871_);}
	.st55{fill:url(#SVGID_00000021089169326644957120000002220811026761791653_);}
	.st56{fill:url(#SVGID_00000158740445552885268210000015535080054298802589_);}
	.st57{fill:url(#SVGID_00000076585604633743388230000014170999163005517967_);}
	.st58{fill:url(#SVGID_00000106125439788852409820000017887787260738236561_);}
	.st59{fill:url(#SVGID_00000127730751238953658840000015120345292686128565_);}
	.st60{fill:url(#SVGID_00000169520774014088892880000002029343562561853848_);}
	.st61{fill:url(#SVGID_00000132784078871805848670000004924182923275892149_);}
	.st62{fill:url(#SVGID_00000113352403223679698590000015141149646001292977_);}
	.st63{fill:url(#SVGID_00000052790914732086948780000006539746443644100270_);}
	.st64{fill:url(#SVGID_00000183954205747428039660000006948768099947011491_);}
	.st65{fill:url(#SVGID_00000169545115145577777260000004263751907482307990_);}
	.st66{fill:url(#SVGID_00000154393601549051114290000017768686202070658235_);}
	.st67{fill:url(#SVGID_00000012451330683375028080000002267179732137498260_);}
	.st68{fill:url(#SVGID_00000076568868258291620530000001131623270483816836_);}
	.st69{fill:url(#SVGID_00000054963165763899741130000017776635103599860869_);}
	.st70{fill:url(#SVGID_00000067954750646668153040000014867690990834764954_);}
	.st71{fill:url(#SVGID_00000010281112044893069400000011337485528406913691_);}
	.st72{fill:url(#SVGID_00000103978065669975729030000006789675162658062978_);}
	.st73{fill:url(#SVGID_00000091716178653871231150000013436281048109674657_);}
	.st74{fill:url(#SVGID_00000176030703927672126810000007085423866790067848_);}
	.st75{fill:url(#SVGID_00000158009001735736002700000010722563025819813285_);}
	.st76{fill:url(#SVGID_00000147911666969558547750000012667325693878792598_);}
	.st77{fill:url(#SVGID_00000013914164351901198400000004646283528210862233_);}
	.st78{fill:url(#SVGID_00000061462631803368893730000004733044522571491512_);}
	.st79{fill:url(#SVGID_00000111883650287761500630000017971925059614806452_);}
	.st80{fill:url(#SVGID_00000181074823653376682870000017281797676264021415_);}
	.st81{fill:url(#SVGID_00000103964396203661141700000016688931460243353518_);}
	.st82{fill:url(#SVGID_00000134942614861364798310000005576369277667318173_);}
	.st83{fill:url(#SVGID_00000081627236329277171760000000978360682282230685_);}
	.st84{fill:url(#SVGID_00000104672372340614579920000015151456157755343015_);}
	.st85{fill:url(#SVGID_00000041973808210099768580000015940893049214562453_);}
	.st86{fill:url(#SVGID_00000100382739729858404610000016325879208643013777_);}
	.st87{fill:url(#SVGID_00000146480014037408745130000003989120811189133441_);}
	.st88{fill:url(#SVGID_00000142156843538982043020000012943034103117416889_);}
	.st89{fill:url(#SVGID_00000139269356263550505840000016654009637155723153_);}
	.st90{fill:url(#SVGID_00000078765755759650504730000013175184339446835847_);}
	.st91{fill:url(#SVGID_00000041277299198113857950000008211732222240246695_);}
	.st92{fill:url(#SVGID_00000176044924516614757280000005844728581966649258_);}
	.st93{fill:url(#SVGID_00000107546416870781420080000017060935336989078400_);}
	.st94{fill:url(#SVGID_00000102545240439295073470000015028217189083839110_);}
	.st95{fill:url(#SVGID_00000047777830707935177570000009111224884142394272_);}
	.st96{fill:url(#SVGID_00000093152363582103601900000003204527887759431342_);}
	.st97{fill:url(#SVGID_00000113341998326708771470000003479665674689091724_);}
	.st98{fill:url(#SVGID_00000119083966361505909390000007172707822691655563_);}
	.st99{fill:url(#SVGID_00000158747276279323871400000015427915216736619161_);}
	.st100{fill:url(#SVGID_00000129893636716281316710000012505521325012610452_);}
	.st101{fill:url(#SVGID_00000006685276440348934170000005214986456287740563_);}
	.st102{fill:url(#SVGID_00000160174223506982290620000003050336231910978195_);}
	.st103{fill:url(#SVGID_00000103266601761613237490000009175039674057866662_);}
	.st104{fill:url(#SVGID_00000148620279655382948390000004789587659790705843_);}
	.st105{fill:url(#SVGID_00000178916673968499261390000016519773840179869322_);}
	.st106{fill:url(#SVGID_00000176733621077541621160000009623879342383065243_);}
	.st107{fill:url(#SVGID_00000174566191102232613100000016894792404652493212_);}
	.st108{fill:url(#SVGID_00000168826344487096043280000003051584220050650805_);}
	.st109{fill:url(#SVGID_00000078766281126445363190000015951477657255249544_);}
	.st110{fill:url(#SVGID_00000178195136065536189960000002639099715442482329_);}
	.st111{fill:url(#SVGID_00000143584218697399552090000013794436334562065067_);}
	.st112{fill:url(#SVGID_00000005261597288137914700000002311764112844349111_);}
	.st113{fill:url(#SVGID_00000118373168608651625050000005194969110949264826_);}
	.st114{fill:url(#SVGID_00000161618553793322669100000018299787745375637171_);}
	.st115{fill:url(#SVGID_00000159471732120456410390000010907403018094406575_);}
	.st116{fill:url(#SVGID_00000165930239032347993970000005622299932996581778_);}
	.st117{fill:url(#SVGID_00000117668714679230998600000006824326505810518419_);}
	.st118{fill:url(#SVGID_00000073706494273348376830000013918204941201346723_);}
	.st119{fill:url(#SVGID_00000085210810651306531050000009625337130564893064_);}
	.st120{fill:url(#SVGID_00000031921746692256970970000017558479328379556282_);}
	.st121{fill:url(#SVGID_00000130625976052806712210000014667316037993424804_);}
	.st122{fill:url(#SVGID_00000021802883857689784580000015477326172485067938_);}
	.st123{fill:url(#SVGID_00000147187734598071761020000007238701050994327218_);}
	.st124{fill:url(#SVGID_00000009552717422446583900000013494875402103371960_);}
	.st125{fill:url(#SVGID_00000019650127711596931250000012977651233009966767_);}
	.st126{fill:url(#SVGID_00000108305143160856588550000014939125173990793889_);}
	.st127{fill:url(#SVGID_00000139996548778761921910000012082855106087282614_);}
	.st128{fill:url(#SVGID_00000093863064687968886810000007859167728969157047_);}
	.st129{fill:url(#SVGID_00000171705041938890341990000002019364124884354477_);}
	.st130{fill:url(#SVGID_00000053530468924510591610000015550685602270343321_);}
	.st131{fill:url(#SVGID_00000079486246658850614640000008132733600021386373_);}
	.st132{fill:url(#SVGID_00000054249678391466285590000011616173851793802377_);}
	.st133{fill:url(#SVGID_00000145738426351511883310000003642118654748909697_);}
	.st134{fill:url(#SVGID_00000148622028705391752500000017900376354803864221_);}
	.st135{fill:url(#SVGID_00000163773690810068574810000007769295154270319805_);}
	.st136{fill:url(#SVGID_00000173162972333437150510000007477287791592334230_);}
	.st137{fill:url(#SVGID_00000070809316626077439020000014209680401552360127_);}
	.st138{fill:url(#SVGID_00000106110776190005702690000014245049143100129669_);}
	.st139{fill:url(#SVGID_00000150091895975842481140000010910054627532913545_);}
	.st140{fill:url(#SVGID_00000097458253008294127800000002415611491511850653_);}
	.st141{fill:url(#SVGID_00000062907181993744881540000005335638396493483669_);}
	.st142{fill:url(#SVGID_00000039114087961559856260000013008923842154101150_);}
	.st143{fill:url(#SVGID_00000181088062578126003170000008089823243527509687_);}
	.st144{fill:url(#SVGID_00000031170507140224056000000005847444129270697621_);}
	.st145{fill:url(#SVGID_00000158024108754867356400000014330518613684184241_);}
	.st146{fill:url(#SVGID_00000023261820128251638150000004275780620380147876_);}
	.st147{fill:url(#SVGID_00000098218130256639911850000012010917838374280116_);}
	.st148{fill:url(#SVGID_00000045620142844576681780000014341403054621105039_);}
	.st149{fill:url(#SVGID_00000043450719759892683600000006446505502225486988_);}
</style>
<g>
	<path class="st0" d="M22.4,91.4c-0.1,0.5-0.1,1-0.1,1.5l0,0l2.6,25.5l10.9,3.1l106.6,17.7c0.2,0,0.4,0.1,0.5,0l0.8,0.1l0,0.1
		c14.9-29.3,9.6-54.8,9.6-54.8c0,0.3,0,0.6,0,0.9c0-0.3,0-0.6,0-0.9l-17.5-16.5l-15.5-12l-6.6-1.2l-2.6-0.5L36.7,41.5
		c-3-0.5-5.7,1.4-6.3,4.4L22.4,91.4L22.4,91.4z"/>
	
		<linearGradient id="SVGID_1_" gradientUnits="userSpaceOnUse" x1="85.6317" y1="121.1834" x2="85.91" y2="86.1101" gradientTransform="matrix(-0.9848 -0.1736 -0.1736 0.9848 185.8809 17.4499)">
		<stop  offset="0" style="stop-color:#5C5C5C"/>
		<stop  offset="0.1042" style="stop-color:#979797"/>
	</linearGradient>
	<path class="st1" d="M21.9,87l0.8,7.1c0,0.1,0,0.3,0,0.4l0,0.3c0,0.1,0,0.2,0,0.2l0,0.1l1.1,10.3l0.5,4.2l0.1,0.8l0.1,0.9l10.9,3.1
		l3.6,0.6l5.8,1c0,0,0,0,0,0l8.8,1.5l5.8,1l55.8,9.3l5.6,0.9l9.5,1.6l5.6,0.9l6.1,1l0,0c0.4,0.1,0.8-0.1,1.1-0.3
		c0.1-0.1,0.2-0.2,0.3-0.3c0.1-0.1,0.1-0.3,0.2-0.4c0-0.1,0-0.2,0-0.3c0-0.1,0-0.1,0-0.1c0,0,0,0,0,0c0-0.1,0-0.1-0.1-0.2
		c-0.1-0.3-0.2-0.6-0.3-0.9c-2.3-5.9-7.1-9.6-12.8-12.5l-22-11.9l-8.4-1.5l-73.9-13c-0.1,0-0.2,0-0.3-0.1l0,0c-0.1,0-0.2,0-0.4,0
		c-2.5-0.4-2.8,1.9-2.8,3.4l-0.7-6.7C21.9,87.1,21.9,87,21.9,87z"/>
	<g>
		<path class="st2" d="M151.3,94.6l0.1,0.2C151.4,94.7,151.3,94.6,151.3,94.6z"/>
		<path class="st2" d="M117.7,107.4l10.2,5.6c0,0,0,0,0,0c0.5-0.4,8.2-6.7,10.7-24.4c2.6-18.2-2.5-25.8-2.5-25.8c0,0.1,0,0.1,0,0.2
			c0,0,0-0.1,0-0.1c-4.2-3.4-9.3-7.6-13.5-10.4c-0.8-0.6-2,0.2-1.9,1.2c1.3,16.7-1.6,30.2-8.9,44.9
			C109.4,103.3,113,104.7,117.7,107.4z"/>
		<polygon class="st3" points="23.7,105.3 24.2,110.4 26.3,110.8 25.7,105.7 		"/>
		<polygon class="st4" points="24,109.5 143.5,130.6 143.2,132.4 24.3,111.3 		"/>
		
			<ellipse transform="matrix(0.1736 -0.9848 0.9848 0.1736 -23.7755 230.608)" class="st4" cx="125.5" cy="129.5" rx="4.4" ry="10.5"/>
		<ellipse transform="matrix(0.1736 -0.9848 0.9848 0.1736 -23.7755 230.608)" class="st2" cx="125.5" cy="129.5" rx="2" ry="4.8"/>
		
			<ellipse transform="matrix(0.1736 -0.9848 0.9848 0.1736 -73.5915 144.3241)" class="st4" cx="49.2" cy="116" rx="4.4" ry="10.5"/>
		<ellipse transform="matrix(0.1736 -0.9848 0.9848 0.1736 -73.5915 144.3241)" class="st2" cx="49.2" cy="116" rx="2" ry="4.8"/>
		
			<linearGradient id="SVGID_00000155138969715340710510000010058864240735411095_" gradientUnits="userSpaceOnUse" x1="108.7224" y1="704.5383" x2="108.7224" y2="696.286" gradientTransform="matrix(-0.9848 -0.1736 -0.1736 0.9848 288.6806 -565.5563)">
			<stop  offset="0.3111" style="stop-color:#000000"/>
			<stop  offset="1" style="stop-color:#37475E"/>
		</linearGradient>
		<path style="fill:url(#SVGID_00000155138969715340710510000010058864240735411095_);" d="M95.4,109.1l-0.7,4
			c-0.2,1.3-1.3,2.2-2.5,2l-64.1-11.3c-1.2-0.2-1.8-0.7-2.1-2.5l-0.5-4.6c-0.1-1.8,1.3-2.2,2.5-2l65.8,11.6
			C94.9,106.6,95.6,107.9,95.4,109.1z"/>
		<path class="st2" d="M36.1,34.5l83.6,14.7l15.5,12l17.5,16.5c0,0,0,0,0,0c0,0.3,0,0.6,0,0.9c0,0.1,0,0.1,0,0.1
			c0.3,6.2,0.1,12-0.5,17.3l0-0.1l-0.8-1.2c0-0.1-0.1-0.2-0.1-0.2l0.1,0.2c0.4,1.5-2.2,14-4.2,17.3l2.1,0.1
			c-1.8,6.8-4,12.6-6.2,17.3c-2.3-5.9-7.1-9.6-12.8-12.5l-22-11.9L26.1,90.6c-0.1,0-0.2,0-0.3-0.1l0,0c-0.1,0-0.2,0-0.4,0
			c-2.5-0.4-2.8,1.9-2.8,3.4l-0.7-6.7c0-0.1-0.1-0.2-0.1-0.2c-0.3-0.8-0.3-1.7-0.2-2.6l8-45.5C30.3,36,33.1,34,36.1,34.5z
			 M117.7,107.4l10.2,5.6c0,0,0,0,0,0c0.5-0.4,8.2-6.7,10.7-24.4c2.6-18.2-2.5-25.8-2.5-25.8c0,0.1,0,0.1,0,0.2c0,0,0-0.1,0-0.1
			c-4.2-3.4-9.3-7.6-13.5-10.4c-0.8-0.6-2,0.2-1.9,1.2c1.3,16.7-1.6,30.2-8.9,44.9C109.4,103.3,113,104.7,117.7,107.4z"/>
		
			<linearGradient id="SVGID_00000028317437153880782310000015104201945542055597_" gradientUnits="userSpaceOnUse" x1="51.7402" y1="74.6112" x2="39.9593" y2="74.9446" gradientTransform="matrix(-0.9848 -0.1736 -0.1736 0.9848 185.8809 17.4499)">
			<stop  offset="0.3111" style="stop-color:#000000"/>
			<stop  offset="1" style="stop-color:#37475E"/>
		</linearGradient>
		<path style="fill:url(#SVGID_00000028317437153880782310000015104201945542055597_);" d="M117.7,107.4l10.2,5.6c0,0,0,0,0,0
			c13.4-12.9,13-42.8,8.3-50c0,0,0-0.1,0-0.1c-4.2-3.4-9.3-7.6-13.5-10.4c-0.8-0.6-2,0.2-1.9,1.2c1.3,16.7-1.6,30.2-8.9,44.9
			C109.4,103.3,113,104.7,117.7,107.4z"/>
		
			<linearGradient id="SVGID_00000016043897207638164060000018431606226187773602_" gradientUnits="userSpaceOnUse" x1="51.4855" y1="704.3694" x2="51.4855" y2="696.6798" gradientTransform="matrix(-0.9848 -0.1736 -0.1736 0.9848 288.6806 -565.5563)">
			<stop  offset="0.3111" style="stop-color:#000000"/>
			<stop  offset="1" style="stop-color:#37475E"/>
		</linearGradient>
		<path style="fill:url(#SVGID_00000016043897207638164060000018431606226187773602_);" d="M108.2,111.1l-0.9,5
			c-0.2,0.9,0.4,1.7,1.3,1.9l14.2,2.5c0.9,0.2,1.7-0.4,1.9-1.3l0.1-0.3c0.1-0.7-0.2-1.3-0.8-1.7l-13.4-7.2
			C109.6,109.4,108.3,110,108.2,111.1z"/>
		<path d="M136.2,62.9c3.7,20.2-1,35.8-8.3,50.1c0,0,0,0,0,0c0.5-0.4,8.2-6.7,10.7-24.4c2.6-18.2-2.5-25.8-2.5-25.8
			C136.2,62.8,136.2,62.8,136.2,62.9z"/>
		<path d="M142.7,130.3l0,0.2l0.2,0.9l0.1,0.4l0.1,0.5c14.5-28.7,9.7-53.6,9.4-54.7c0,0.3,0,0.6,0,0.9c0,0.1,0,0.1,0,0.1
			c0.3,6.2,0.1,12-0.5,17.3c-0.6,5.9-1.6,11.3-2.9,16.1c-1.8,6.8-4,12.6-6.2,17.3C143,129.8,142.9,130,142.7,130.3z"/>
		<path d="M151.3,94.6l0.1,0.2C151.4,94.7,151.3,94.6,151.3,94.6z"/>
		<path d="M147.2,112.1l2.1,0.1l0.4,0l0.2,0l2.8-15.7l-0.1-0.2l-0.2-0.3l0-0.1l-0.8-1.2C151.7,96.3,149.2,108.8,147.2,112.1z"/>
		<path class="st9" d="M22.7,95.1L22.7,95.1C22.7,95.1,22.7,95.1,22.7,95.1C22.7,95.1,22.7,95.1,22.7,95.1z"/>
		<path class="st9" d="M22.6,93.9c0,0.1,0,0.1,0,0.2c0,0.1,0,0.3,0,0.4l0,0.3c0,0.1,0,0.2,0,0.2c0,0,0,0.1,0,0.1L22.6,93.9z"/>
	</g>
</g>
</svg>
