<?xml version="1.0" encoding="utf-8"?>
<!-- Generator: Adobe Illustrator 25.4.1, SVG Export Plug-In . SVG Version: 6.00 Build 0)  -->
<svg version="1.1" id="Layer_1" xmlns="http://www.w3.org/2000/svg" xmlns:xlink="http://www.w3.org/1999/xlink" x="0px" y="0px"
	 viewBox="0 0 168 168" style="enable-background:new 0 0 168 168;" xml:space="preserve">
<style type="text/css">
	.st0{opacity:0.2;fill:#151110;enable-background:new    ;}
	.st1{fill:url(#SVGID_1_);}
	.st2{fill:#FFFFFF;}
	.st3{fill:#C00D0D;}
	.st4{fill:#151110;}
	.st5{fill:url(#SVGID_00000124141877045325801170000004931767852741635714_);}
	.st6{fill:url(#SVGID_00000176016617701502790700000012159970846918223276_);}
	.st7{fill:none;stroke:#A03394;stroke-width:9;stroke-miterlimit:10;}
	.st8{fill:url(#SVGID_00000054949117218135403580000017912558513971765920_);}
	.st9{fill:#F0F0F0;}
	.st10{fill:url(#SVGID_00000155127938208696988510000001857385443744386181_);}
	.st11{fill:url(#SVGID_00000035505002884690594200000012911418203832027323_);}
	.st12{fill:url(#SVGID_00000044145650744146232490000007139849706559957407_);}
	.st13{fill:url(#SVGID_00000107547225913739143050000002868464663565542531_);}
	.st14{fill:url(#SVGID_00000132078115738749198490000002301872868265441981_);}
	.st15{fill:url(#SVGID_00000015355147276668751220000017040155722075259558_);}
	.st16{fill:url(#SVGID_00000027581620524889253840000017458358371146112645_);}
	.st17{fill:url(#SVGID_00000053517575424248554340000009417589957578175649_);}
	.st18{fill:url(#SVGID_00000098907565565396656180000000955478837397569929_);}
	.st19{fill:url(#SVGID_00000136409339693369520900000000435540558733879433_);}
	.st20{fill:url(#SVGID_00000079480717400250204090000017672562606323870399_);}
	.st21{fill:url(#SVGID_00000021822130287631226150000006661044533411050132_);}
	.st22{fill:url(#SVGID_00000143578271357444845190000012655703182490943126_);}
	.st23{fill:url(#SVGID_00000152224657844029554000000008168117209604768179_);}
	.st24{fill:url(#SVGID_00000086694080991894136860000006031675021530520228_);}
	.st25{fill:url(#SVGID_00000003097030914309420850000002710967258306457504_);}
	.st26{fill:url(#SVGID_00000153670209480345643020000009560109869079947143_);}
	.st27{fill:url(#SVGID_00000116957443768888486760000009005152827715478926_);}
	.st28{fill:url(#SVGID_00000078027753504697910560000012629915112790885794_);}
	.st29{fill:url(#SVGID_00000017512227257405936030000012553973581518305183_);}
	.st30{fill:url(#SVGID_00000133488047106123160240000005952722427249367178_);}
	.st31{fill:url(#SVGID_00000013163149707811149680000001899136601271779731_);}
	.st32{fill:url(#SVGID_00000026140797648085710430000011738348427324241547_);}
	.st33{fill:url(#SVGID_00000111904445017726931490000005181647141167113143_);}
	.st34{fill:url(#SVGID_00000059306544337436340830000007631019408583624576_);}
	.st35{fill:url(#SVGID_00000176744243671311429630000015376483120733446832_);}
	.st36{fill:url(#SVGID_00000019662186204789738380000002779310853495693499_);}
	.st37{fill:url(#SVGID_00000063611658899971333030000001313222030520769183_);}
	.st38{fill:url(#SVGID_00000047770620726070917230000000978220008575104181_);}
	.st39{fill:url(#SVGID_00000011734365054494268530000002535313560045683336_);}
	.st40{fill:url(#SVGID_00000143578871105139761370000002124017305846848401_);}
	.st41{fill:url(#SVGID_00000131325847065702059750000004703406543907687063_);}
	.st42{fill:url(#SVGID_00000182520230052507356760000011992237555318202269_);}
	.st43{fill:url(#SVGID_00000137094536252264157820000016807042809216774050_);}
	.st44{fill:url(#SVGID_00000034800789084376076730000008342145348377262208_);}
	.st45{fill:url(#SVGID_00000110460208478901108740000002402055875633095353_);}
	.st46{fill:url(#SVGID_00000032609863955282396140000009062846158787060647_);}
	.st47{fill:url(#SVGID_00000058569920075494720870000011085103879233761686_);}
	.st48{fill:url(#SVGID_00000122690095576350297220000015527386617847012541_);}
	.st49{fill:url(#SVGID_00000088811478047099815380000016792780153266221703_);}
	.st50{fill:url(#SVGID_00000152227821022714535340000017825798248940187048_);}
	.st51{fill:url(#SVGID_00000144328649002037626520000008712325938728801673_);}
	.st52{fill:url(#SVGID_00000102528363813592566110000005154653907451836083_);}
	.st53{fill:url(#SVGID_00000079484176495663368300000000892067852544994997_);}
	.st54{fill:url(#SVGID_00000118364133524844700060000016222937161569479301_);}
	.st55{fill:url(#SVGID_00000003093718776597352580000000089132442737443493_);}
	.st56{fill:url(#SVGID_00000120537415026877865930000000343408946615062431_);}
	.st57{fill:url(#SVGID_00000093859403934259414680000003378169994131133872_);}
	.st58{fill:url(#SVGID_00000106121796246688898170000011882898622072517544_);}
	.st59{fill:url(#SVGID_00000095322363991636156330000003721788557550589843_);}
	.st60{fill:url(#SVGID_00000117673958529422933540000013807846953368454814_);}
	.st61{fill:url(#SVGID_00000063597023950591154810000004603517177562870711_);}
	.st62{fill:url(#SVGID_00000011018154096761081040000016300653808281111940_);}
	.st63{fill:url(#SVGID_00000119811466711297198660000001809172324833671333_);}
	.st64{fill:url(#SVGID_00000101797434438870796590000011092381598673412759_);}
	.st65{fill:url(#SVGID_00000178901866073811364980000017709589351316494233_);}
	.st66{fill:url(#SVGID_00000049900586726559606260000000563593983506850975_);}
	.st67{fill:url(#SVGID_00000147196917382655085470000008835613491869236644_);}
	.st68{fill:url(#SVGID_00000183938300360016462760000001132537563045045694_);}
	.st69{fill:url(#SVGID_00000015344372147785347800000000630284525534255516_);}
	.st70{fill:url(#SVGID_00000097470235288282212850000009305894704917324417_);}
	.st71{fill:url(#SVGID_00000046325976044617184800000017745811046193526927_);}
	.st72{fill:url(#SVGID_00000003822268727106442310000016045199397355768220_);}
	.st73{fill:url(#SVGID_00000021834841193441451790000007557986750953026713_);}
	.st74{fill:url(#SVGID_00000031928635203866516620000002146661306569337000_);}
	.st75{fill:url(#SVGID_00000025419057694786930820000004361521895197374895_);}
	.st76{fill:url(#SVGID_00000088831813989144630030000004341636218164402839_);}
	.st77{fill:url(#SVGID_00000038412953143130776410000010641300778343113890_);}
	.st78{fill:url(#SVGID_00000108301327659332758520000001981345987391783350_);}
	.st79{fill:url(#SVGID_00000072278488680549469190000010378229829784159127_);}
	.st80{fill:url(#SVGID_00000120551966854273422890000008789613578961255326_);}
	.st81{fill:url(#SVGID_00000143582411304499598610000003093012704158100618_);}
	.st82{fill:url(#SVGID_00000143588290923390531650000003058333225595640244_);}
	.st83{fill:url(#SVGID_00000145052307693176707210000010917895360005480623_);}
	.st84{fill:url(#SVGID_00000106835773729685805080000009504560312177138573_);}
	.st85{fill:url(#SVGID_00000160170361322910147530000008791911867424483506_);}
	.st86{fill:url(#SVGID_00000088121402154088509820000016470560840172977027_);}
	.st87{fill:url(#SVGID_00000125570811302052467040000006811279259834582204_);}
	.st88{fill:url(#SVGID_00000063592874880671626980000007297222092668478611_);}
	.st89{fill:url(#SVGID_00000080903845195419282400000005247653528700709292_);}
	.st90{fill:url(#SVGID_00000018941860190168655980000013023149481964098436_);}
	.st91{fill:url(#SVGID_00000064329981586211548100000004376134037444045213_);}
	.st92{fill:url(#SVGID_00000125584111643162251300000016849756004490040998_);}
	.st93{fill:url(#SVGID_00000029729564046386105030000013140374678060715697_);}
	.st94{fill:url(#SVGID_00000013871370647883560310000014392302120159638420_);}
	.st95{fill:url(#SVGID_00000127738554474256297240000008111944398717333653_);}
	.st96{fill:url(#SVGID_00000159445918625836529120000016000596718170434436_);}
	.st97{fill:url(#SVGID_00000150094606349048325270000016555059209021673383_);}
	.st98{fill:url(#SVGID_00000148642815987894724780000000290521382685711526_);}
	.st99{fill:url(#SVGID_00000170267041761786304250000016494807410026908084_);}
	.st100{fill:url(#SVGID_00000051378499330723836320000008021132819368026290_);}
	.st101{fill:url(#SVGID_00000109018928206983279590000012753188358363004595_);}
	.st102{fill:url(#SVGID_00000031203163689410814970000010256264346849930900_);}
	.st103{fill:url(#SVGID_00000097460658026974896160000018095902365775172503_);}
	.st104{fill:url(#SVGID_00000109711181441246792580000010547877993980120486_);}
	.st105{fill:url(#SVGID_00000182521015831533712980000009088069457068741012_);}
	.st106{fill:url(#SVGID_00000081607202357246419630000012916351032901621133_);}
	.st107{fill:url(#SVGID_00000173134104135696849880000012065825051027745712_);}
	.st108{fill:url(#SVGID_00000039135938494888197670000011691572078801922486_);}
	.st109{fill:url(#SVGID_00000142864475887283933710000003351138885049869963_);}
	.st110{fill:url(#SVGID_00000121259042577426153230000003461403720800049574_);}
	.st111{fill:url(#SVGID_00000136375666584995052010000012707211757556011196_);}
	.st112{fill:url(#SVGID_00000040574846851001132990000002367315609752530344_);}
	.st113{fill:url(#SVGID_00000124163955057546432400000005428028894040639639_);}
	.st114{fill:url(#SVGID_00000029015574594734834020000013216200881447779726_);}
	.st115{fill:url(#SVGID_00000168827427896174330550000005065098156451329975_);}
	.st116{fill:url(#SVGID_00000096035991151837318720000011184259356940228004_);}
	.st117{fill:url(#SVGID_00000002355042098352183980000007656524451574881962_);}
	.st118{fill:url(#SVGID_00000142895294123718014790000014043236710994446982_);}
	.st119{fill:url(#SVGID_00000178902337845981363580000016545882336268011670_);}
	.st120{fill:url(#SVGID_00000109712668562652014290000009812041871180073906_);}
	.st121{fill:url(#SVGID_00000121241020281710275380000009686621359156195979_);}
	.st122{fill:url(#SVGID_00000030481110906170657420000007191449818959732665_);}
	.st123{fill:url(#SVGID_00000141431213839011085170000011442200485897656491_);}
	.st124{fill:url(#SVGID_00000114764570348550283860000009548848285478101437_);}
	.st125{fill:url(#SVGID_00000005243744315925703980000008407763462418235069_);}
	.st126{fill:url(#SVGID_00000015331739852039221980000006925228921411699601_);}
	.st127{fill:url(#SVGID_00000171684736386625173950000015591118126841541297_);}
	.st128{fill:url(#SVGID_00000170253843377810504820000013990476070107208108_);}
	.st129{fill:url(#SVGID_00000080173227226097749470000009267383716271431342_);}
	.st130{fill:url(#SVGID_00000118395378211268975280000011880501058468851367_);}
	.st131{fill:url(#SVGID_00000047753901851241859340000017066308188362786494_);}
	.st132{fill:url(#SVGID_00000054229919465351004280000009386311039308098182_);}
	.st133{fill:url(#SVGID_00000111193051301367629260000009124899655232316811_);}
	.st134{fill:url(#SVGID_00000019672751506228194900000007570309621452854164_);}
	.st135{fill:url(#SVGID_00000044878403128057824490000016389797222722317493_);}
	.st136{fill:url(#SVGID_00000100356340572286435130000015000132016123966084_);}
	.st137{fill:url(#SVGID_00000156588114152696275120000014833640213839983793_);}
	.st138{fill:url(#SVGID_00000013906666272218679750000013852106325217531819_);}
	.st139{fill:url(#SVGID_00000156570559924523245830000005890305727834691722_);}
	.st140{fill:url(#SVGID_00000025424786036137487000000005250969925882523568_);}
	.st141{fill:url(#SVGID_00000021083047861072789780000010877890099214897068_);}
	.st142{fill:url(#SVGID_00000161625069554846300790000018107364691841595050_);}
	.st143{fill:url(#SVGID_00000101098214803111159680000008154188950743527577_);}
	.st144{fill:url(#SVGID_00000096025039628541877460000015488337617365532351_);}
	.st145{fill:url(#SVGID_00000078761243975445645760000005989399182387634581_);}
	.st146{fill:url(#SVGID_00000010995076877544867770000015325685725316451262_);}
	.st147{fill:url(#SVGID_00000004543354849008928090000008374300250941451967_);}
	.st148{fill:url(#SVGID_00000121985787853557091270000009319494220912870330_);}
	.st149{fill:url(#SVGID_00000034054243498497711300000008960381387097088445_);}
</style>
<g>
	<path class="st0" d="M22.6,79.9c-0.2,0.5-0.2,1-0.3,1.5l0,0L20.4,107l10.2,5l102,35.9c0.2,0.1,0.4,0.1,0.5,0.1l0.8,0.3l0,0.1
		c19.8-26.2,18.9-52.3,18.9-52.3c0,0.3-0.1,0.6-0.1,0.9c0-0.3,0.1-0.6,0.1-0.9l-14.4-19.3l-13.1-14.5l-6.3-2.3l-2.4-0.9L45.3,33.3
		c-2.8-1-5.9,0.4-6.9,3.2L22.6,79.9L22.6,79.9z"/>
	
		<linearGradient id="SVGID_1_" gradientUnits="userSpaceOnUse" x1="85.6317" y1="121.1834" x2="85.91" y2="86.1101" gradientTransform="matrix(-0.9397 -0.342 -0.342 0.9397 196.4615 35.5155)">
		<stop  offset="0" style="stop-color:#5C5C5C"/>
		<stop  offset="0.1042" style="stop-color:#979797"/>
	</linearGradient>
	<path class="st1" d="M22.9,75.5l-0.5,7.1c0,0.1,0,0.3,0,0.4l0,0.3c0,0.1,0,0.2,0,0.2l0,0.1l-0.7,10.3l-0.3,4.3L21.2,99l-0.1,0.9
		l10.2,5l3.4,1.2l5.6,2c0,0,0,0,0,0l8.4,2.9l5.6,2l53.4,18.8l5.4,1.9l9,3.2l5.4,1.9l5.9,2.1l0,0c0.4,0.1,0.8,0.1,1.1-0.1
		c0.1-0.1,0.2-0.2,0.3-0.3c0.1-0.1,0.2-0.3,0.2-0.4c0-0.1,0.1-0.2,0.1-0.3c0-0.1,0-0.1,0-0.1c0,0,0,0,0,0c0-0.1,0-0.1,0-0.2
		c-0.1-0.3-0.1-0.6-0.2-0.9c-1.3-6.2-5.3-10.7-10.5-14.5l-19.6-15.5l-8-2.9L26.4,79.8c-0.1,0-0.2-0.1-0.2-0.1l0,0
		c-0.1,0-0.2-0.1-0.4-0.1c-2.4-0.9-3.1,1.4-3.3,2.9l0.5-6.7C22.9,75.6,22.9,75.6,22.9,75.5z"/>
	<g>
		<path class="st2" d="M149,105.5l0.1,0.2C149,105.6,149,105.5,149,105.5z"/>
		<path class="st2" d="M113.7,112.3l9.1,7.2c0,0,0,0,0,0c0.5-0.3,9.2-5.2,14.8-22.2c5.7-17.5,2.1-25.9,2.1-25.9c0,0.1,0,0.1,0,0.2
			c0,0,0-0.1,0-0.1c-3.5-4.1-7.8-9.1-11.5-12.6c-0.7-0.7-2-0.2-2.1,0.8c-1.6,16.7-6.8,29.5-16.6,42.7
			C106.3,106.8,109.6,108.8,113.7,112.3z"/>
		<polygon class="st3" points="21.5,93.9 21.1,99 23.1,99.7 23.4,94.6 		"/>
		<polygon class="st4" points="21.1,98.1 135.1,139.6 134.5,141.3 21.1,99.9 		"/>
		
			<ellipse transform="matrix(0.342 -0.9397 0.9397 0.342 -49.832 199.5415)" class="st4" cx="117.6" cy="135.4" rx="4.4" ry="10.5"/>
		<ellipse transform="matrix(0.342 -0.9397 0.9397 0.342 -49.832 199.5415)" class="st2" cx="117.6" cy="135.4" rx="2" ry="4.8"/>
		
			<ellipse transform="matrix(0.342 -0.9397 0.9397 0.342 -72.8422 113.6665)" class="st4" cx="44.7" cy="108.8" rx="4.4" ry="10.5"/>
		<ellipse transform="matrix(0.342 -0.9397 0.9397 0.342 -72.8422 113.6665)" class="st2" cx="44.7" cy="108.8" rx="2" ry="4.8"/>
		
			<linearGradient id="SVGID_00000164503397752808525370000012351723174308267665_" gradientUnits="userSpaceOnUse" x1="108.7224" y1="704.5383" x2="108.7224" y2="696.286" gradientTransform="matrix(-0.9397 -0.342 -0.342 0.9397 398.9374 -520.7825)">
			<stop  offset="0.3111" style="stop-color:#000000"/>
			<stop  offset="1" style="stop-color:#37475E"/>
		</linearGradient>
		<path style="fill:url(#SVGID_00000164503397752808525370000012351723174308267665_);" d="M91.4,110.1l-1.4,3.9
			c-0.4,1.2-1.7,1.9-2.8,1.5L26.1,93.2c-1.1-0.4-1.6-1-1.6-2.8l0.3-4.6c0.2-1.8,1.7-1.9,2.8-1.5l62.8,22.8
			C91.4,107.5,91.9,108.9,91.4,110.1z"/>
		<path class="st2" d="M46,26.3l79.8,29l13.1,14.5l14.4,19.3c0,0,0,0,0,0c-0.1,0.3-0.1,0.6-0.1,0.9c0,0.1,0,0.1,0,0.1
			c-0.8,6.2-2,11.8-3.5,17l0-0.1l-0.5-1.3c0-0.1,0-0.2-0.1-0.2l0.1,0.2c0.1,1.6-4.6,13.4-7.1,16.3l2,0.5c-2.9,6.4-6.1,11.7-9.1,16
			c-1.3-6.2-5.3-10.7-10.5-14.5l-19.6-15.5L26.4,79.8c-0.1,0-0.2-0.1-0.2-0.1l0,0c-0.1,0-0.2-0.1-0.4-0.1c-2.4-0.9-3.1,1.4-3.3,2.9
			l0.5-6.7c0-0.1,0-0.2-0.1-0.2c-0.1-0.8,0-1.7,0.3-2.6l15.8-43.4C40,26.8,43.1,25.3,46,26.3z M113.7,112.3l9.1,7.2c0,0,0,0,0,0
			c0.5-0.3,9.2-5.2,14.8-22.2c5.7-17.5,2.1-25.9,2.1-25.9c0,0.1,0,0.1,0,0.2c0,0,0-0.1,0-0.1c-3.5-4.1-7.8-9.1-11.5-12.6
			c-0.7-0.7-2-0.2-2.1,0.8c-1.6,16.7-6.8,29.5-16.6,42.7C106.3,106.8,109.6,108.8,113.7,112.3z"/>
		
			<linearGradient id="SVGID_00000146494313069677912700000013100732240195656348_" gradientUnits="userSpaceOnUse" x1="51.7402" y1="74.6112" x2="39.9593" y2="74.9446" gradientTransform="matrix(-0.9397 -0.342 -0.342 0.9397 196.4615 35.5155)">
			<stop  offset="0.3111" style="stop-color:#000000"/>
			<stop  offset="1" style="stop-color:#37475E"/>
		</linearGradient>
		<path style="fill:url(#SVGID_00000146494313069677912700000013100732240195656348_);" d="M113.7,112.3l9.1,7.2c0,0,0,0,0,0
			c15.4-10.4,20.3-39.8,16.8-47.8c0,0,0-0.1,0-0.1c-3.5-4.1-7.8-9.1-11.5-12.6c-0.7-0.7-2-0.2-2.1,0.8c-1.6,16.7-6.8,29.5-16.6,42.7
			C106.3,106.8,109.6,108.8,113.7,112.3z"/>
		
			<linearGradient id="SVGID_00000008853096151572673780000006263270875702623140_" gradientUnits="userSpaceOnUse" x1="51.4855" y1="704.3694" x2="51.4855" y2="696.6798" gradientTransform="matrix(-0.9397 -0.342 -0.342 0.9397 398.9374 -520.7825)">
			<stop  offset="0.3111" style="stop-color:#000000"/>
			<stop  offset="1" style="stop-color:#37475E"/>
		</linearGradient>
		<path style="fill:url(#SVGID_00000008853096151572673780000006263270875702623140_);" d="M103.7,114.2l-1.7,4.8
			c-0.3,0.8,0.1,1.7,1,2.1l13.5,4.9c0.8,0.3,1.7-0.1,2.1-1l0.1-0.3c0.2-0.7,0.1-1.4-0.5-1.8l-12-9.5
			C105.3,112.8,104,113.2,103.7,114.2z"/>
		<path d="M139.7,71.6c0.1,20.5-7.2,35-16.8,47.9c0,0,0,0,0,0c0.5-0.3,9.2-5.2,14.8-22.2c5.7-17.5,2.1-25.9,2.1-25.9
			C139.7,71.5,139.7,71.6,139.7,71.6z"/>
		<path d="M134.4,139.1l0,0.2l0,1l0,0.4l0,0.5c19.3-25.7,18.8-51.1,18.8-52.2c0,0.3-0.1,0.6-0.1,0.9c0,0.1,0,0.1,0,0.1
			c-0.8,6.2-2,11.8-3.5,17c-1.6,5.7-3.6,10.8-5.7,15.4c-2.9,6.4-6.1,11.7-9.1,16C134.7,138.7,134.6,138.9,134.4,139.1z"/>
		<path d="M149,105.5l0.1,0.2C149,105.6,149,105.5,149,105.5z"/>
		<path d="M141.9,122l2,0.5l0.4,0.1l0.1,0l5.4-14.9l-0.1-0.2l-0.2-0.4l0-0.1l-0.5-1.3C149.1,107.3,144.5,119.1,141.9,122z"/>
		<path class="st9" d="M22.3,83.7L22.3,83.7C22.3,83.6,22.3,83.6,22.3,83.7C22.3,83.7,22.3,83.7,22.3,83.7z"/>
		<path class="st9" d="M22.4,82.5c0,0.1,0,0.1,0,0.2c0,0.1,0,0.3,0,0.4l0,0.3c0,0.1,0,0.2,0,0.2c0,0,0,0.1,0,0.1L22.4,82.5z"/>
	</g>
</g>
</svg>
