<?xml version="1.0" encoding="utf-8"?>
<!-- Generator: Adobe Illustrator 25.4.1, SVG Export Plug-In . SVG Version: 6.00 Build 0)  -->
<svg version="1.1" id="Layer_1" xmlns="http://www.w3.org/2000/svg" xmlns:xlink="http://www.w3.org/1999/xlink" x="0px" y="0px"
	 viewBox="0 0 168 168" style="enable-background:new 0 0 168 168;" xml:space="preserve">
<style type="text/css">
	.st0{opacity:0.2;fill:#151110;enable-background:new    ;}
	.st1{fill:url(#SVGID_1_);}
	.st2{fill:#FFFFFF;}
	.st3{fill:#C00D0D;}
	.st4{fill:#151110;}
	.st5{fill:url(#SVGID_00000070105519627871146840000018274481743635235767_);}
	.st6{fill:url(#SVGID_00000153665319635686008130000008513656820754358667_);}
	.st7{fill:none;stroke:#A03394;stroke-width:9;stroke-miterlimit:10;}
	.st8{fill:url(#SVGID_00000017478051000392844670000001185638009200862097_);}
	.st9{fill:#F0F0F0;}
	.st10{fill:url(#SVGID_00000133524950100499244470000012629966921139075723_);}
	.st11{fill:url(#SVGID_00000172419702715755102980000009126454587805283006_);}
	.st12{fill:url(#SVGID_00000162341151815045931550000016006060460980249227_);}
	.st13{fill:url(#SVGID_00000101819226044996740280000013236932609929476799_);}
	.st14{fill:url(#SVGID_00000092426987132424213830000012445626613907771545_);}
	.st15{fill:url(#SVGID_00000083063449499714561670000012130472966369017491_);}
	.st16{fill:url(#SVGID_00000170277762087370841710000008364821283460545712_);}
	.st17{fill:url(#SVGID_00000052066589073226461800000002080280361100660154_);}
	.st18{fill:url(#SVGID_00000111889997566964609550000013585981040814757011_);}
	.st19{fill:url(#SVGID_00000141444891352736191860000009905582378270600109_);}
	.st20{fill:url(#SVGID_00000013176201768123020160000017198779423307980933_);}
	.st21{fill:url(#SVGID_00000021108973580492697320000006633879450875932336_);}
	.st22{fill:url(#SVGID_00000088838075853505716820000017181623639617857429_);}
	.st23{fill:url(#SVGID_00000049197157694173725900000006234881164320790955_);}
	.st24{fill:url(#SVGID_00000168817140325058520370000001280719531414625949_);}
	.st25{fill:url(#SVGID_00000125596109747489555560000005049442206149601193_);}
	.st26{fill:url(#SVGID_00000103241987394430376440000013548030474439062974_);}
	.st27{fill:url(#SVGID_00000078761045047139529840000006239019628026964632_);}
	.st28{fill:url(#SVGID_00000120539827403347220040000010910065255255873682_);}
	.st29{fill:url(#SVGID_00000067236248645369672770000014282253893613999018_);}
	.st30{fill:url(#SVGID_00000070811364777437386400000002671833583525459897_);}
	.st31{fill:url(#SVGID_00000178892105127322318800000010282055244031584175_);}
	.st32{fill:url(#SVGID_00000029014404590058515670000016873548960062739075_);}
	.st33{fill:url(#SVGID_00000165947213320806931450000004091419505180681093_);}
	.st34{fill:url(#SVGID_00000007422891551491865210000001088541767064038066_);}
	.st35{fill:url(#SVGID_00000081644515986991544810000007214257384156529578_);}
	.st36{fill:url(#SVGID_00000082330613195202087300000016551644801576072612_);}
	.st37{fill:url(#SVGID_00000071550949843304426580000008536012864522536086_);}
	.st38{fill:url(#SVGID_00000050625257006356582130000001725585476431071152_);}
	.st39{fill:url(#SVGID_00000060019647725922545800000010785457397476566165_);}
	.st40{fill:url(#SVGID_00000137106462863725010320000009572729465619552156_);}
	.st41{fill:url(#SVGID_00000117671158607587179510000006224337533774257572_);}
	.st42{fill:url(#SVGID_00000161600818941389695630000008908953501521244291_);}
	.st43{fill:url(#SVGID_00000175320729718834606970000013161702524005014182_);}
	.st44{fill:url(#SVGID_00000052818545744264879470000009916417905262022316_);}
	.st45{fill:url(#SVGID_00000017518864619178283570000015567818136537917316_);}
	.st46{fill:url(#SVGID_00000155858360925494714480000005054982378148807316_);}
	.st47{fill:url(#SVGID_00000097494272282644046880000004429640028871857036_);}
	.st48{fill:url(#SVGID_00000075130136926470621460000008592688743542554254_);}
	.st49{fill:url(#SVGID_00000097464685295957266420000003763742249769389717_);}
	.st50{fill:url(#SVGID_00000138534946172327096190000009770806734790864778_);}
	.st51{fill:url(#SVGID_00000050632690117540246870000013748505817286649765_);}
	.st52{fill:url(#SVGID_00000183960699356449934320000017979908671928852401_);}
	.st53{fill:url(#SVGID_00000152245531820692969400000012184788968933067415_);}
	.st54{fill:url(#SVGID_00000116200024154014436160000011795233350022949517_);}
	.st55{fill:url(#SVGID_00000156555670621694041030000005426362603285942194_);}
	.st56{fill:url(#SVGID_00000146500461760865734960000002869189908703956646_);}
	.st57{fill:url(#SVGID_00000097500334504267733910000005973747998407296671_);}
	.st58{fill:url(#SVGID_00000088854248609163030110000003357030222934357181_);}
	.st59{fill:url(#SVGID_00000130638268052922091910000003852928225314666401_);}
	.st60{fill:url(#SVGID_00000103259667102362161070000016578698989053322113_);}
	.st61{fill:url(#SVGID_00000008109519665642653360000011316809822158498988_);}
	.st62{fill:url(#SVGID_00000044886367730163607140000011227767366569161358_);}
	.st63{fill:url(#SVGID_00000121260368913890277910000002832961820441452170_);}
	.st64{fill:url(#SVGID_00000047026258811859890650000005392224709773125269_);}
	.st65{fill:url(#SVGID_00000051359693237542934040000015420039720714169760_);}
	.st66{fill:url(#SVGID_00000129886723222108984200000000431547496948322195_);}
	.st67{fill:url(#SVGID_00000045616785262361233690000003680230065097199773_);}
	.st68{fill:url(#SVGID_00000009561947409784228080000013364440424161385366_);}
	.st69{fill:url(#SVGID_00000098188776592199694120000005671862960324145028_);}
	.st70{fill:url(#SVGID_00000183960032966766551370000018251550697640910748_);}
	.st71{fill:url(#SVGID_00000016767178262478507350000006206587877339605635_);}
	.st72{fill:url(#SVGID_00000043426481353821165800000016253057884788396722_);}
	.st73{fill:url(#SVGID_00000114044249564348526320000003061464182324645296_);}
	.st74{fill:url(#SVGID_00000059989718019259323430000014239275219943752344_);}
	.st75{fill:url(#SVGID_00000176740448750671141290000004852017874058126761_);}
	.st76{fill:url(#SVGID_00000011720668646404993130000005477790422264033966_);}
	.st77{fill:url(#SVGID_00000163049661246340567000000010072152312341151399_);}
	.st78{fill:url(#SVGID_00000080196621534473909460000002585621789135626904_);}
	.st79{fill:url(#SVGID_00000173839606111142529710000009043935128667607182_);}
	.st80{fill:url(#SVGID_00000011745688591956413730000001837704283844681365_);}
	.st81{fill:url(#SVGID_00000058566010965948757130000001208781535249285563_);}
	.st82{fill:url(#SVGID_00000083072233041431959610000002121191099250511037_);}
	.st83{fill:url(#SVGID_00000119839064387848447780000017706616428466903439_);}
	.st84{fill:url(#SVGID_00000048497805280888822670000007194505487672869785_);}
	.st85{fill:url(#SVGID_00000159427699548377867500000014697651617710259349_);}
	.st86{fill:url(#SVGID_00000104681757985771097630000001849930438486190984_);}
	.st87{fill:url(#SVGID_00000046317933819912116430000000860877195553393560_);}
	.st88{fill:url(#SVGID_00000079484038407464275360000003927088842201096355_);}
	.st89{fill:url(#SVGID_00000102546050034750121010000010866698041358352815_);}
	.st90{fill:url(#SVGID_00000177468788475606394320000004644025174198166145_);}
	.st91{fill:url(#SVGID_00000060741344756400527470000006327305457535009182_);}
	.st92{fill:url(#SVGID_00000125569898587980977360000016739527297823889041_);}
	.st93{fill:url(#SVGID_00000018214781383508067480000007921985075367641774_);}
	.st94{fill:url(#SVGID_00000089547342305975002390000016385494855131140750_);}
	.st95{fill:url(#SVGID_00000066513360292957207880000015402205661925313210_);}
	.st96{fill:url(#SVGID_00000081615720374797335360000013542721954004425348_);}
	.st97{fill:url(#SVGID_00000119089006985160294410000005599787250269867919_);}
	.st98{fill:url(#SVGID_00000119840460018674007820000015858273160921117848_);}
	.st99{fill:url(#SVGID_00000036243625110555831420000011053070443386548896_);}
	.st100{fill:url(#SVGID_00000026159012778153762760000003048353143028751260_);}
	.st101{fill:url(#SVGID_00000058553485021184189680000010753677279523988884_);}
	.st102{fill:url(#SVGID_00000037650595370648420860000016421987206009918089_);}
	.st103{fill:url(#SVGID_00000113311657927361047730000018113706456899516295_);}
	.st104{fill:url(#SVGID_00000133489725311328718880000009310807579489606316_);}
	.st105{fill:url(#SVGID_00000094612388984406780910000005069908557819819401_);}
	.st106{fill:url(#SVGID_00000032623322375175775300000005227330460163187603_);}
	.st107{fill:url(#SVGID_00000100378786393187833940000005631498874351983751_);}
	.st108{fill:url(#SVGID_00000143577609165862001720000015086959438491651516_);}
	.st109{fill:url(#SVGID_00000129194066234874541150000007195778360417912459_);}
	.st110{fill:url(#SVGID_00000075846711676685848800000002640304975945488565_);}
	.st111{fill:url(#SVGID_00000167361318221130484290000012027078634111942333_);}
	.st112{fill:url(#SVGID_00000176027881769099280520000003394533321604225194_);}
	.st113{fill:url(#SVGID_00000129192430024890824840000009028728352341135240_);}
	.st114{fill:url(#SVGID_00000068669674526204206200000006136780275861239954_);}
	.st115{fill:url(#SVGID_00000130645713865198563200000001216311642583900830_);}
	.st116{fill:url(#SVGID_00000010282197670859204540000007072542396642573476_);}
	.st117{fill:url(#SVGID_00000183966771050603643620000009442677628184125325_);}
	.st118{fill:url(#SVGID_00000042013858350743340180000002703229416366040475_);}
	.st119{fill:url(#SVGID_00000160908052326252545960000011537786764324290222_);}
	.st120{fill:url(#SVGID_00000157266509230940320190000014850435918505672337_);}
	.st121{fill:url(#SVGID_00000008129302020632855010000009320102298598479022_);}
	.st122{fill:url(#SVGID_00000054960677429880799620000004450201283543905211_);}
	.st123{fill:url(#SVGID_00000162332431125699930710000007163348748859423142_);}
	.st124{fill:url(#SVGID_00000164509253458594781050000008515256097336560276_);}
	.st125{fill:url(#SVGID_00000180345131089784430500000005391660501484163501_);}
	.st126{fill:url(#SVGID_00000165938040573365399640000009955257174983769239_);}
	.st127{fill:url(#SVGID_00000162332437917901620970000016082947495688675000_);}
	.st128{fill:url(#SVGID_00000041257404522256759120000007992885771943782030_);}
	.st129{fill:url(#SVGID_00000165214364661109547550000002544396062679699072_);}
	.st130{fill:url(#SVGID_00000023254277384686732210000001172476592456927111_);}
	.st131{fill:url(#SVGID_00000069375753335274877850000015043323288605933228_);}
	.st132{fill:url(#SVGID_00000065035410378219517820000004059889225936680350_);}
	.st133{fill:url(#SVGID_00000098218826157346515740000005777354054716589501_);}
	.st134{fill:url(#SVGID_00000040547049634030133700000017596217234977526165_);}
	.st135{fill:url(#SVGID_00000048473437070905367500000002323141743106400926_);}
	.st136{fill:url(#SVGID_00000018922858591526269050000010279756792259392136_);}
	.st137{fill:url(#SVGID_00000095297365148671472290000014227234463504258691_);}
	.st138{fill:url(#SVGID_00000144301993506561242410000011532880579129945009_);}
	.st139{fill:url(#SVGID_00000117654067295159758820000005024467138634202796_);}
	.st140{fill:url(#SVGID_00000130612195980577907890000007774402068429723532_);}
	.st141{fill:url(#SVGID_00000008115562789018594180000003195502541730490037_);}
	.st142{fill:url(#SVGID_00000005230705952698126490000005754150460061196940_);}
	.st143{fill:url(#SVGID_00000105416729789786669410000012622979766616770748_);}
	.st144{fill:url(#SVGID_00000029012009463765299970000005777838970930223291_);}
	.st145{fill:url(#SVGID_00000152967012911078490620000006485662714812519586_);}
	.st146{fill:url(#SVGID_00000051345801062956693550000016213682040721926292_);}
	.st147{fill:url(#SVGID_00000075863485879485711900000008532469503707320471_);}
	.st148{fill:url(#SVGID_00000175281798014622502380000016534704056906720391_);}
	.st149{fill:url(#SVGID_00000045609531376050411160000001109866811178097592_);}
</style>
<g>
	<path class="st0" d="M24.8,68.9c-0.2,0.4-0.4,0.9-0.6,1.4l0,0L18,95.2l9.2,6.7l94.2,53.1c0.2,0.1,0.3,0.2,0.5,0.2l0.7,0.4l0,0.1
		c24-22.4,27.7-48.2,27.7-48.2c-0.1,0.3-0.2,0.6-0.3,0.9c0.1-0.3,0.2-0.6,0.3-0.9l-10.8-21.5l-10.4-16.5l-5.8-3.3l-2.3-1.3
		L55.3,26.9c-2.6-1.5-5.9-0.6-7.4,2L24.8,68.9L24.8,68.9z"/>
	
		<linearGradient id="SVGID_1_" gradientUnits="userSpaceOnUse" x1="321.2206" y1="-114.4055" x2="321.499" y2="-149.4788" gradientTransform="matrix(-0.866 -0.5 -0.5 0.866 289.9981 377.1577)">
		<stop  offset="0" style="stop-color:#5C5C5C"/>
		<stop  offset="0.1042" style="stop-color:#979797"/>
	</linearGradient>
	<path class="st1" d="M25.9,64.5l-1.7,7c0,0.1-0.1,0.2-0.1,0.4L24,72.1c0,0.1,0,0.2-0.1,0.2l0,0.1l-2.5,10l-1,4.1l-0.2,0.8l-0.2,0.9
		l9.2,6.7l3.1,1.8l5.1,2.9c0,0,0,0,0,0l7.7,4.4l5.1,2.9l49.3,27.8l5,2.8l8.4,4.7l5,2.8l5.4,3.1l0,0c0.4,0.2,0.8,0.2,1.1,0.1
		c0.1,0,0.2-0.1,0.3-0.2c0.1-0.1,0.2-0.2,0.3-0.4c0-0.1,0.1-0.2,0.1-0.3c0,0,0-0.1,0-0.1c0,0,0,0,0,0c0-0.1,0-0.1,0-0.2
		c0-0.3,0-0.6,0-1c-0.2-6.3-3.3-11.5-7.8-16.1l-16.6-18.7l-7.3-4.2l-65-37.5c-0.1,0-0.2-0.1-0.2-0.2l0,0c-0.1,0-0.2-0.1-0.3-0.2
		c-2.2-1.3-3.3,0.8-3.7,2.2l1.7-6.5C25.9,64.7,25.9,64.6,25.9,64.5z"/>
	<g>
		<path class="st2" d="M144.9,116l0,0.2C144.9,116.1,144.9,116,144.9,116z"/>
		<path class="st2" d="M109,116.5l7.7,8.7c0,0,0,0,0,0c0.6-0.2,10-3.5,18.4-19.3c8.7-16.2,6.5-25.1,6.5-25.1c0,0.1,0,0.1,0,0.2
			c0,0,0-0.1,0-0.1c-2.8-4.6-6.1-10.4-9.1-14.4c-0.6-0.8-1.9-0.5-2.2,0.4c-4.5,16.1-11.8,27.8-23.8,39.2
			C102.6,109.8,105.5,112.4,109,116.5z"/>
		<polygon class="st3" points="21.3,82.4 20.1,87.4 21.9,88.4 23.1,83.5 		"/>
		<polygon class="st4" points="20.2,86.5 125.2,147.2 124.3,148.7 19.9,88.3 		"/>
		<ellipse transform="matrix(0.5 -0.866 0.866 0.5 -66.8402 164.1501)" class="st4" cx="108.7" cy="140" rx="4.4" ry="10.5"/>
		<ellipse transform="matrix(0.5 -0.866 0.866 0.5 -66.8402 164.1501)" class="st2" cx="108.7" cy="140" rx="2" ry="4.8"/>
		<ellipse transform="matrix(0.5 -0.866 0.866 0.5 -66.8402 86.6501)" class="st4" cx="41.6" cy="101.2" rx="4.4" ry="10.5"/>
		<ellipse transform="matrix(0.5 -0.866 0.866 0.5 -66.8402 86.6501)" class="st2" cx="41.6" cy="101.2" rx="2" ry="4.8"/>
		
			<linearGradient id="SVGID_00000026872864659340715320000005541633286063067278_" gradientUnits="userSpaceOnUse" x1="344.3113" y1="468.9493" x2="344.3113" y2="460.6971" gradientTransform="matrix(-0.866 -0.5 -0.5 0.866 585.998 -135.5293)">
			<stop  offset="0.3111" style="stop-color:#000000"/>
			<stop  offset="1" style="stop-color:#37475E"/>
		</linearGradient>
		<path style="fill:url(#SVGID_00000026872864659340715320000005541633286063067278_);" d="M87.4,110.5l-2.1,3.6c-0.7,1.1-2,1.6-3,1
			L25.9,82.6c-1-0.6-1.4-1.3-1.1-3.1l1.1-4.5c0.6-1.8,2-1.6,3-1l57.9,33.4C87.8,108,88,109.4,87.4,110.5z"/>
		<path class="st2" d="M57.2,20.1l73.5,42.5l10.4,16.5l10.8,21.5c0,0,0,0,0,0c-0.1,0.3-0.2,0.5-0.3,0.8c0,0.1,0,0.1,0,0.1
			c-1.9,5.9-4,11.3-6.4,16.1l0-0.1l-0.3-1.4c0-0.1,0-0.2,0-0.2l0,0.2c-0.2,1.6-6.8,12.4-9.9,14.8l1.9,0.8c-4,5.8-8.1,10.5-11.7,14.2
			c-0.2-6.3-3.3-11.5-7.8-16.1l-16.6-18.7L28.6,69.4c-0.1,0-0.2-0.1-0.2-0.2l0,0c-0.1,0-0.2-0.1-0.3-0.2c-2.2-1.3-3.3,0.8-3.7,2.2
			l1.7-6.5c0-0.1,0-0.2,0-0.2c0-0.8,0.3-1.7,0.7-2.5l23.1-40C51.2,19.6,54.6,18.6,57.2,20.1z M109,116.5l7.7,8.7c0,0,0,0,0,0
			c0.6-0.2,10-3.5,18.4-19.3c8.7-16.2,6.5-25.1,6.5-25.1c0,0.1,0,0.1,0,0.2c0,0,0-0.1,0-0.1c-2.8-4.6-6.1-10.4-9.1-14.4
			c-0.6-0.8-1.9-0.5-2.2,0.4c-4.5,16.1-11.8,27.8-23.8,39.2C102.6,109.8,105.5,112.4,109,116.5z"/>
		
			<linearGradient id="SVGID_00000020398667985896853870000004201673912241236634_" gradientUnits="userSpaceOnUse" x1="287.3291" y1="-160.9778" x2="275.5483" y2="-160.6443" gradientTransform="matrix(-0.866 -0.5 -0.5 0.866 289.9981 377.1577)">
			<stop  offset="0.3111" style="stop-color:#000000"/>
			<stop  offset="1" style="stop-color:#37475E"/>
		</linearGradient>
		<path style="fill:url(#SVGID_00000020398667985896853870000004201673912241236634_);" d="M109,116.5l7.7,8.7c0,0,0,0,0,0
			c17-7.6,26.9-35.7,24.9-44.2c0,0,0-0.1,0-0.1c-2.8-4.6-6.1-10.4-9.1-14.4c-0.6-0.8-1.9-0.5-2.2,0.4c-4.5,16.1-11.8,27.8-23.8,39.2
			C102.6,109.8,105.5,112.4,109,116.5z"/>
		
			<linearGradient id="SVGID_00000090268462097072915070000018338656827663116457_" gradientUnits="userSpaceOnUse" x1="287.0744" y1="468.7805" x2="287.0744" y2="461.0909" gradientTransform="matrix(-0.866 -0.5 -0.5 0.866 585.998 -135.5293)">
			<stop  offset="0.3111" style="stop-color:#000000"/>
			<stop  offset="1" style="stop-color:#37475E"/>
		</linearGradient>
		<path style="fill:url(#SVGID_00000090268462097072915070000018338656827663116457_);" d="M98.7,116.7l-2.5,4.4
			c-0.5,0.8-0.2,1.7,0.6,2.2l12.5,7.2c0.8,0.5,1.7,0.2,2.2-0.6l0.2-0.3c0.3-0.6,0.3-1.3-0.2-1.8l-10.2-11.4
			C100.6,115.6,99.3,115.8,98.7,116.7z"/>
		<path d="M141.6,81c-3.4,20.2-13.2,33.3-24.9,44.2c0,0,0,0,0,0c0.6-0.2,10-3.5,18.4-19.3c8.7-16.2,6.5-25.1,6.5-25.1
			C141.6,80.9,141.6,81,141.6,81z"/>
		<path d="M124.6,146.6l0,0.2l-0.1,1l-0.1,0.4l-0.1,0.5c23.4-22,27.4-47.1,27.6-48.1c-0.1,0.3-0.2,0.5-0.3,0.8c0,0.1,0,0.1,0,0.1
			c-1.9,5.9-4,11.3-6.4,16.1c-2.6,5.4-5.4,10.1-8.3,14.2c-4,5.8-8.1,10.5-11.7,14.2C125,146.2,124.8,146.4,124.6,146.6z"/>
		<path d="M144.9,116l0,0.2C144.9,116.1,144.9,116,144.9,116z"/>
		<path d="M135,131l1.9,0.8l0.3,0.1l0.1,0.1l7.9-13.8l-0.1-0.2l-0.1-0.4l0-0.1l-0.3-1.4C144.7,117.8,138,128.6,135,131z"/>
		<path class="st9" d="M23.9,72.5L23.9,72.5C23.9,72.5,23.9,72.5,23.9,72.5C23.9,72.5,23.9,72.5,23.9,72.5z"/>
		<path class="st9" d="M24.2,71.4c0,0,0,0.1,0,0.1c0,0.1-0.1,0.2-0.1,0.4L24,72.1c0,0.1,0,0.2-0.1,0.2c0,0,0,0.1,0,0.1L24.2,71.4z"
			/>
	</g>
</g>
</svg>
