<?xml version="1.0" encoding="utf-8"?>
<!-- Generator: Adobe Illustrator 25.4.1, SVG Export Plug-In . SVG Version: 6.00 Build 0)  -->
<svg version="1.1" id="Layer_1" xmlns="http://www.w3.org/2000/svg" xmlns:xlink="http://www.w3.org/1999/xlink" x="0px" y="0px"
	 viewBox="0 0 168 168" style="enable-background:new 0 0 168 168;" xml:space="preserve">
<style type="text/css">
	.st0{opacity:0.2;fill:#151110;enable-background:new    ;}
	.st1{fill:url(#SVGID_1_);}
	.st2{fill:#FFFFFF;}
	.st3{fill:#C00D0D;}
	.st4{fill:#151110;}
	.st5{fill:url(#SVGID_00000114752967373195999090000013637198544754142889_);}
	.st6{fill:url(#SVGID_00000000215410386979891240000004946982060087647379_);}
	.st7{fill:none;stroke:#A03394;stroke-width:9;stroke-miterlimit:10;}
	.st8{fill:url(#SVGID_00000085967939399871770250000010683286828469513623_);}
	.st9{fill:#F0F0F0;}
	.st10{fill:url(#SVGID_00000061449799830687217400000004709565245086048393_);}
	.st11{fill:url(#SVGID_00000049941272308054267670000016716003740024522156_);}
	.st12{fill:url(#SVGID_00000006666982210012135250000004545962922130781861_);}
	.st13{fill:url(#SVGID_00000029010134497372881260000003669419087168028803_);}
	.st14{fill:url(#SVGID_00000090295164959577987430000015271846622044881847_);}
	.st15{fill:url(#SVGID_00000182490949039566517520000013434294853384960653_);}
	.st16{fill:url(#SVGID_00000078724717457873707610000016641006215517678733_);}
	.st17{fill:url(#SVGID_00000079477448621210446260000010173216994283761057_);}
	.st18{fill:url(#SVGID_00000024701605960716014290000006546243556689884341_);}
	.st19{fill:url(#SVGID_00000133489994822186070440000005717830171012573373_);}
	.st20{fill:url(#SVGID_00000080929531936922416960000014860997049745801901_);}
	.st21{fill:url(#SVGID_00000152962688295217052560000008222257926088665777_);}
	.st22{fill:url(#SVGID_00000094590364177884441440000014192302923158148797_);}
	.st23{fill:url(#SVGID_00000097466467177157187550000006063782889975720067_);}
	.st24{fill:url(#SVGID_00000067940090001464590570000012666260480805445252_);}
	.st25{fill:url(#SVGID_00000111174449685136611930000016368708426982348730_);}
	.st26{fill:url(#SVGID_00000101790805165805409370000003918627626380339601_);}
	.st27{fill:url(#SVGID_00000064313841285577995320000006867139485827459988_);}
	.st28{fill:url(#SVGID_00000008136301092789434880000005725155047266588316_);}
	.st29{fill:url(#SVGID_00000052094080694606311620000004343894002377685895_);}
	.st30{fill:url(#SVGID_00000175284254194731656220000001123945129521633956_);}
	.st31{fill:url(#SVGID_00000074424163610600688030000006280429475780507271_);}
	.st32{fill:url(#SVGID_00000162343331828679583280000008595341457469969811_);}
	.st33{fill:url(#SVGID_00000024693767957444214340000004315292301926939051_);}
	.st34{fill:url(#SVGID_00000119828886067358105960000014172383471341948821_);}
	.st35{fill:url(#SVGID_00000169551901693359817450000004578097446175138947_);}
	.st36{fill:url(#SVGID_00000096751471412554354010000002544594973033012352_);}
	.st37{fill:url(#SVGID_00000163756682121223708660000016429716404835589773_);}
	.st38{fill:url(#SVGID_00000013179405771386773560000002148101913674248581_);}
	.st39{fill:url(#SVGID_00000081643565134462266110000005018385363879319960_);}
	.st40{fill:url(#SVGID_00000157993166411943357410000016871656731081541255_);}
	.st41{fill:url(#SVGID_00000039100561479874792710000010775479663265600177_);}
	.st42{fill:url(#SVGID_00000147219022533080276170000005480052354364722597_);}
	.st43{fill:url(#SVGID_00000045604845002009528050000010985916017972041602_);}
	.st44{fill:url(#SVGID_00000111173246483643800340000013672197135404498069_);}
	.st45{fill:url(#SVGID_00000016069363028740040180000006948790693271366317_);}
	.st46{fill:url(#SVGID_00000150070369945593162700000005123042921795869334_);}
	.st47{fill:url(#SVGID_00000093176175794024734340000013255564071673835709_);}
	.st48{fill:url(#SVGID_00000152256818460878032440000006276767136968999585_);}
	.st49{fill:url(#SVGID_00000122717227262101585380000001970709380145167005_);}
	.st50{fill:url(#SVGID_00000067959279304677627530000003644751976968445839_);}
	.st51{fill:url(#SVGID_00000136382190454549211590000014728198340521014157_);}
	.st52{fill:url(#SVGID_00000147219494538242805040000015007846492014991510_);}
	.st53{fill:url(#SVGID_00000009581946075298574000000004598186693289843589_);}
	.st54{fill:url(#SVGID_00000021821321266798345360000000878323105869600144_);}
	.st55{fill:url(#SVGID_00000005969265088707671620000001659564955567733909_);}
	.st56{fill:url(#SVGID_00000071525426523330185260000014874344535727047323_);}
	.st57{fill:url(#SVGID_00000059995234521027098440000009945560457344482733_);}
	.st58{fill:url(#SVGID_00000105423806458950807170000012353055802360374435_);}
	.st59{fill:url(#SVGID_00000062886973391656259860000010219594364230338996_);}
	.st60{fill:url(#SVGID_00000104675362857466637330000007924495129042849716_);}
	.st61{fill:url(#SVGID_00000062872342527730308500000008275400930452901791_);}
	.st62{fill:url(#SVGID_00000116204610724010708120000009959348649337027745_);}
	.st63{fill:url(#SVGID_00000016067928078597250160000015052925101275672740_);}
	.st64{fill:url(#SVGID_00000139983523175744688140000015072600811223173050_);}
	.st65{fill:url(#SVGID_00000132786693539977203960000007725318953984188094_);}
	.st66{fill:url(#SVGID_00000118392925614758886050000014068712407571032228_);}
	.st67{fill:url(#SVGID_00000118393057607243121520000009756838865864366270_);}
	.st68{fill:url(#SVGID_00000044869395707489760970000010836132052706826146_);}
	.st69{fill:url(#SVGID_00000104694744921018062210000011408216933244363648_);}
	.st70{fill:url(#SVGID_00000140010890286943682520000008796990614827591082_);}
	.st71{fill:url(#SVGID_00000009552372847517793620000001403417243617551531_);}
	.st72{fill:url(#SVGID_00000128475584426060053530000009143697396082598020_);}
	.st73{fill:url(#SVGID_00000016045609497622200940000015613782067953561777_);}
	.st74{fill:url(#SVGID_00000065050675640157814610000015265139763594095293_);}
	.st75{fill:url(#SVGID_00000167365003957412027790000007190012445539403707_);}
	.st76{fill:url(#SVGID_00000059290737728851231520000017846957987385875106_);}
	.st77{fill:url(#SVGID_00000097458319737042709130000013334072515532412348_);}
	.st78{fill:url(#SVGID_00000082354916045525512410000014329833832852972192_);}
	.st79{fill:url(#SVGID_00000160882279075785290360000011583960080074607269_);}
	.st80{fill:url(#SVGID_00000169544123126936184270000008671685925824913815_);}
	.st81{fill:url(#SVGID_00000103236043008288866900000000046640590938129063_);}
	.st82{fill:url(#SVGID_00000150787211270901800390000005498356038718504071_);}
	.st83{fill:url(#SVGID_00000163783795346320323790000005271612987021203106_);}
	.st84{fill:url(#SVGID_00000013172761792789767880000010784448557762887101_);}
	.st85{fill:url(#SVGID_00000161608741186836697910000009846700173648371902_);}
	.st86{fill:url(#SVGID_00000058562113582863252650000013982212539801473169_);}
	.st87{fill:url(#SVGID_00000125577340635788771210000003195521694066811835_);}
	.st88{fill:url(#SVGID_00000152240966296391551560000016842253481628034477_);}
	.st89{fill:url(#SVGID_00000063590862917887839660000004577303813865771150_);}
	.st90{fill:url(#SVGID_00000127735526755701431800000013215740901601525408_);}
	.st91{fill:url(#SVGID_00000152236562185376705060000004554231284545033364_);}
	.st92{fill:url(#SVGID_00000160173215849226802070000018328055029863126668_);}
	.st93{fill:url(#SVGID_00000156564458230035542260000016129398592095557002_);}
	.st94{fill:url(#SVGID_00000158021932468317729490000014799185464692979603_);}
	.st95{fill:url(#SVGID_00000093899940909347982450000004649329588038516896_);}
	.st96{fill:url(#SVGID_00000173859319642102270160000005151148426223861411_);}
	.st97{fill:url(#SVGID_00000160891008255704978080000017834123942532507829_);}
	.st98{fill:url(#SVGID_00000079449918151896792580000002511752654659069586_);}
	.st99{fill:url(#SVGID_00000176039442558919327660000003352142382745263026_);}
	.st100{fill:url(#SVGID_00000092442657926480243180000016018155789044913319_);}
	.st101{fill:url(#SVGID_00000092416117811146932220000008107652457761990021_);}
	.st102{fill:url(#SVGID_00000056401483830068171360000016936681797483190412_);}
	.st103{fill:url(#SVGID_00000039817973903802583120000014894206431671639738_);}
	.st104{fill:url(#SVGID_00000090988665817617329240000013325868633393510528_);}
	.st105{fill:url(#SVGID_00000018945614155292476090000010699490519381171601_);}
	.st106{fill:url(#SVGID_00000029046681674996326690000009882488383601607835_);}
	.st107{fill:url(#SVGID_00000041979496719206606100000003775308945628984211_);}
	.st108{fill:url(#SVGID_00000100360550529535692910000000542981934181073308_);}
	.st109{fill:url(#SVGID_00000128445340909065778820000009493485035416939950_);}
	.st110{fill:url(#SVGID_00000003822522716185814470000005270428627339784834_);}
	.st111{fill:url(#SVGID_00000116949756262454342590000005449239946696604344_);}
	.st112{fill:url(#SVGID_00000082363513898470131070000014945892693934499999_);}
	.st113{fill:url(#SVGID_00000034056934312911952810000006972420499502062007_);}
	.st114{fill:url(#SVGID_00000165953799267108643950000002753825488096043937_);}
	.st115{fill:url(#SVGID_00000120526886738041427360000014386350586161597079_);}
	.st116{fill:url(#SVGID_00000150100279878601944990000012610981180058789298_);}
	.st117{fill:url(#SVGID_00000073708901593751055380000005369730106063710083_);}
	.st118{fill:url(#SVGID_00000116219977434005286800000016207780304961003437_);}
	.st119{fill:url(#SVGID_00000003079156979355607100000000921968407155392929_);}
	.st120{fill:url(#SVGID_00000014615553284039963230000000377534715820840328_);}
	.st121{fill:url(#SVGID_00000111899493620861982560000015581346956975678861_);}
	.st122{fill:url(#SVGID_00000157990314251171981930000005628165475807711366_);}
	.st123{fill:url(#SVGID_00000108272744506674450760000004279567881466361787_);}
	.st124{fill:url(#SVGID_00000035507329094436745960000008345143438134912941_);}
	.st125{fill:url(#SVGID_00000108306414815593652420000013100928539692115865_);}
	.st126{fill:url(#SVGID_00000025435993580012814260000016025470606839647892_);}
	.st127{fill:url(#SVGID_00000087377418878476811810000008423868240961553309_);}
	.st128{fill:url(#SVGID_00000050657772433605686310000011165557317882170756_);}
	.st129{fill:url(#SVGID_00000027573855276822256280000016395481469274121607_);}
	.st130{fill:url(#SVGID_00000013182750823021111160000000248324567381304222_);}
	.st131{fill:url(#SVGID_00000106836760093069966580000017788182680260404150_);}
	.st132{fill:url(#SVGID_00000083784234775578519720000016493331982700908676_);}
	.st133{fill:url(#SVGID_00000065068642802542693560000003970356585747373227_);}
	.st134{fill:url(#SVGID_00000132088915637773192520000000530727370347164312_);}
	.st135{fill:url(#SVGID_00000021841183132076868110000014652744425132308666_);}
	.st136{fill:url(#SVGID_00000083082291240876337400000015126233233948064402_);}
	.st137{fill:url(#SVGID_00000104690635056048462650000009875193125851085473_);}
	.st138{fill:url(#SVGID_00000037673684110173843430000001222457121067048600_);}
	.st139{fill:url(#SVGID_00000042732432546710707880000002939489373385952644_);}
	.st140{fill:url(#SVGID_00000082348328032298270920000008486428094215299474_);}
	.st141{fill:url(#SVGID_00000146459791865219506560000008015323034525935513_);}
	.st142{fill:url(#SVGID_00000178184791639515462700000017349926116464238987_);}
	.st143{fill:url(#SVGID_00000001628668842111064560000007815722700042569398_);}
	.st144{fill:url(#SVGID_00000144327176612488386760000002882043789198152634_);}
	.st145{fill:url(#SVGID_00000155825153640528974200000017670620749025516453_);}
	.st146{fill:url(#SVGID_00000084522096949077671170000003795988659724111792_);}
	.st147{fill:url(#SVGID_00000010276787266711632330000007880555784581059758_);}
	.st148{fill:url(#SVGID_00000087373391717060214000000002518146215136306326_);}
	.st149{fill:url(#SVGID_00000048463883507500049460000016445831321455157912_);}
</style>
<g>
	<path class="st0" d="M29,58.7c-0.3,0.4-0.6,0.8-0.8,1.3l0,0L17.7,83.4l7.9,8.2l83.5,68.6c0.2,0.1,0.3,0.3,0.4,0.2l0.6,0.5l-0.1,0.1
		c27.5-17.9,35.7-42.7,35.7-42.7c-0.1,0.3-0.3,0.5-0.4,0.8c0.1-0.3,0.3-0.5,0.4-0.8l-6.9-23l-7.4-18.1l-5.1-4.3l-2-1.7l-58-48.7
		c-2.3-1.9-5.7-1.6-7.6,0.7L29,58.7L29,58.7z"/>
	
		<linearGradient id="SVGID_1_" gradientUnits="userSpaceOnUse" x1="321.2206" y1="-114.4055" x2="321.499" y2="-149.4788" gradientTransform="matrix(-0.766 -0.6428 -0.6428 0.766 236.585 408.3647)">
		<stop  offset="0" style="stop-color:#5C5C5C"/>
		<stop  offset="0.1042" style="stop-color:#979797"/>
	</linearGradient>
	<path class="st1" d="M30.7,54.6l-2.9,6.5c-0.1,0.1-0.1,0.2-0.2,0.3l-0.1,0.3c0,0.1-0.1,0.2-0.1,0.2l0,0.1l-4.2,9.4l-1.7,3.9
		l-0.3,0.8l-0.4,0.9l7.9,8.2l2.8,2.3l4.6,3.7c0,0,0,0,0,0l6.9,5.6l4.6,3.8l43.7,36l4.4,3.6l7.4,6.1l4.4,3.6l4.8,3.9l0,0
		c0.3,0.3,0.7,0.3,1.1,0.2c0.1,0,0.3-0.1,0.4-0.1c0.1-0.1,0.3-0.2,0.4-0.3c0.1-0.1,0.1-0.2,0.2-0.3c0,0,0-0.1,0.1-0.1c0,0,0,0,0,0
		c0-0.1,0.1-0.1,0.1-0.2c0.1-0.3,0.1-0.6,0.2-0.9c0.9-6.3-1.3-11.9-4.9-17.2l-13.1-21.3l-6.5-5.5L32.6,59.9
		c-0.1-0.1-0.1-0.1-0.2-0.2l0,0c-0.1-0.1-0.2-0.1-0.3-0.2c-1.9-1.6-3.4,0.2-4.1,1.5l2.8-6.1C30.7,54.8,30.7,54.7,30.7,54.6z"/>
	<g>
		<path class="st2" d="M139,126l0,0.2C139,126.1,139,126,139,126z"/>
		<path class="st2" d="M103.6,120.3l6,9.9c0,0,0,0,0,0c0.6-0.1,10.4-1.7,21.4-15.8c11.4-14.5,10.8-23.6,10.8-23.6
			c0,0.1,0,0.1-0.1,0.2c0,0,0-0.1,0-0.1c-1.9-5-4.3-11.3-6.5-15.8c-0.4-0.9-1.8-0.8-2.3,0.1c-7.2,15.1-16.4,25.4-30.2,34.4
			C98.4,112.6,100.8,115.6,103.6,120.3z"/>
		<polygon class="st3" points="23.1,71.5 21.1,76.1 22.7,77.5 24.7,72.8 		"/>
		<polygon class="st4" points="21.3,75.3 114.3,153.3 113.1,154.6 20.7,77 		"/>
		<ellipse transform="matrix(0.6428 -0.766 0.766 0.6428 -74.311 127.2303)" class="st4" cx="99.3" cy="143.3" rx="4.4" ry="10.5"/>
		<ellipse transform="matrix(0.6428 -0.766 0.766 0.6428 -74.311 127.2303)" class="st2" cx="99.3" cy="143.3" rx="2" ry="4.8"/>
		<ellipse transform="matrix(0.6428 -0.766 0.766 0.6428 -57.3568 63.9566)" class="st4" cx="39.9" cy="93.5" rx="4.4" ry="10.5"/>
		<ellipse transform="matrix(0.6428 -0.766 0.766 0.6428 -57.3568 63.9566)" class="st2" cx="39.9" cy="93.5" rx="2" ry="4.8"/>
		
			<linearGradient id="SVGID_00000091011787322281623020000011501414400691740036_" gradientUnits="userSpaceOnUse" x1="344.3113" y1="468.9493" x2="344.3113" y2="460.6971" gradientTransform="matrix(-0.766 -0.6428 -0.6428 0.766 617.1153 -45.1337)">
			<stop  offset="0.3111" style="stop-color:#000000"/>
			<stop  offset="1" style="stop-color:#37475E"/>
		</linearGradient>
		<path style="fill:url(#SVGID_00000091011787322281623020000011501414400691740036_);" d="M83.3,110.6l-2.6,3.1
			c-0.8,1-2.2,1.3-3.2,0.5L27.7,72.4c-0.9-0.8-1.2-1.5-0.6-3.2L29,65c0.9-1.6,2.2-1.3,3.2-0.5l51.2,42.9
			C84.2,108.2,84.2,109.6,83.3,110.6z"/>
		<path class="st2" d="M69.3,16.3l65,54.6l7.4,18.1l6.9,23c0,0,0,0,0,0c-0.2,0.2-0.3,0.5-0.4,0.8c0,0.1,0,0.1-0.1,0.1
			c-2.9,5.5-5.9,10.4-9.1,14.8l0-0.1l-0.1-1.4c0-0.1,0-0.2,0-0.2l0,0.2c-0.5,1.5-8.9,11-12.3,12.9l1.8,1.2c-4.9,5-9.8,8.9-14,11.9
			c0.9-6.3-1.3-11.9-4.9-17.2l-13.1-21.3l-64-53.7c-0.1-0.1-0.1-0.1-0.2-0.2l0,0c-0.1-0.1-0.2-0.1-0.3-0.2c-1.9-1.6-3.4,0.2-4.1,1.5
			l2.8-6.1c0-0.1,0-0.2,0-0.2c0.2-0.8,0.6-1.6,1.2-2.3l29.7-35.4C63.5,14.8,67,14.4,69.3,16.3z M103.6,120.3l6,9.9c0,0,0,0,0,0
			c0.6-0.1,10.4-1.7,21.4-15.8c11.4-14.5,10.8-23.6,10.8-23.6c0,0.1,0,0.1-0.1,0.2c0,0,0-0.1,0-0.1c-1.9-5-4.3-11.3-6.5-15.8
			c-0.4-0.9-1.8-0.8-2.3,0.1c-7.2,15.1-16.4,25.4-30.2,34.4C98.4,112.6,100.8,115.6,103.6,120.3z"/>
		
			<linearGradient id="SVGID_00000044166977562112917830000006086129180314768312_" gradientUnits="userSpaceOnUse" x1="287.3291" y1="-160.9778" x2="275.5483" y2="-160.6443" gradientTransform="matrix(-0.766 -0.6428 -0.6428 0.766 236.585 408.3647)">
			<stop  offset="0.3111" style="stop-color:#000000"/>
			<stop  offset="1" style="stop-color:#37475E"/>
		</linearGradient>
		<path style="fill:url(#SVGID_00000044166977562112917830000006086129180314768312_);" d="M103.6,120.3l6,9.9c0,0,0,0,0,0
			c18.1-4.5,32.7-30.5,32.2-39.2c0,0,0-0.1,0-0.1c-1.9-5-4.3-11.3-6.5-15.8c-0.4-0.9-1.8-0.8-2.3,0.1c-7.2,15.1-16.4,25.4-30.2,34.4
			C98.4,112.6,100.8,115.6,103.6,120.3z"/>
		
			<linearGradient id="SVGID_00000097463341313661926970000006667732330841347481_" gradientUnits="userSpaceOnUse" x1="287.0744" y1="468.7805" x2="287.0744" y2="461.0909" gradientTransform="matrix(-0.766 -0.6428 -0.6428 0.766 617.1153 -45.1337)">
			<stop  offset="0.3111" style="stop-color:#000000"/>
			<stop  offset="1" style="stop-color:#37475E"/>
		</linearGradient>
		<path style="fill:url(#SVGID_00000097463341313661926970000006667732330841347481_);" d="M93.4,118.7l-3.3,3.9
			c-0.6,0.7-0.5,1.7,0.2,2.3l11,9.3c0.7,0.6,1.7,0.5,2.3-0.2l0.2-0.2c0.4-0.5,0.5-1.3,0.1-1.9l-8-13
			C95.5,117.9,94.1,117.8,93.4,118.7z"/>
		<path d="M141.8,91c-6.9,19.3-18.7,30.5-32.2,39.2c0,0,0,0,0,0c0.6-0.1,10.4-1.7,21.4-15.8c11.4-14.5,10.8-23.6,10.8-23.6
			C141.9,90.9,141.8,90.9,141.8,91z"/>
		<path d="M113.8,152.6l-0.1,0.2l-0.3,0.9l-0.1,0.4l-0.2,0.5c26.9-17.6,35.2-41.6,35.5-42.6c-0.1,0.3-0.3,0.5-0.4,0.8
			c0,0.1,0,0.1-0.1,0.1c-2.9,5.5-5.9,10.4-9.1,14.8c-3.5,4.8-7.1,9-10.6,12.5c-4.9,5-9.8,8.9-14,11.9
			C114.2,152.3,114,152.4,113.8,152.6z"/>
		<path d="M139,126l0,0.2C139,126.1,139,126,139,126z"/>
		<path d="M126.7,139l1.8,1.2l0.3,0.2l0.1,0.1l10.2-12.2l0-0.2l0-0.4l0-0.1l-0.1-1.4C138.5,127.7,130.1,137.2,126.7,139z"/>
		<path class="st9" d="M27.4,62.1L27.4,62.1C27.5,62.1,27.4,62.1,27.4,62.1C27.4,62.1,27.4,62.1,27.4,62.1z"/>
		<path class="st9" d="M27.9,61.1c0,0,0,0.1-0.1,0.1c-0.1,0.1-0.1,0.2-0.2,0.3l-0.1,0.3c0,0.1-0.1,0.2-0.1,0.2c0,0,0,0.1,0,0.1
			L27.9,61.1z"/>
	</g>
</g>
</svg>
