<?xml version="1.0" encoding="utf-8"?>
<!-- Generator: Adobe Illustrator 25.4.1, SVG Export Plug-In . SVG Version: 6.00 Build 0)  -->
<svg version="1.1" id="Layer_1" xmlns="http://www.w3.org/2000/svg" xmlns:xlink="http://www.w3.org/1999/xlink" x="0px" y="0px"
	 viewBox="0 0 168 168" style="enable-background:new 0 0 168 168;" xml:space="preserve">
<style type="text/css">
	.st0{opacity:0.2;fill:#151110;enable-background:new    ;}
	.st1{fill:url(#SVGID_1_);}
	.st2{fill:#FFFFFF;}
	.st3{fill:#C00D0D;}
	.st4{fill:#151110;}
	.st5{fill:url(#SVGID_00000027580820664112453880000008146228389587389321_);}
	.st6{fill:url(#SVGID_00000095318057231654259910000009759044811773586362_);}
	.st7{fill:none;stroke:#A03394;stroke-width:9;stroke-miterlimit:10;}
	.st8{fill:url(#SVGID_00000021079413174530281580000009762530784582738111_);}
	.st9{fill:#F0F0F0;}
	.st10{fill:url(#SVGID_00000168812093373799374340000001179128566472031881_);}
	.st11{fill:url(#SVGID_00000101090465102365529970000012041111251635359910_);}
	.st12{fill:url(#SVGID_00000088114523769343994930000017576970566490566060_);}
	.st13{fill:url(#SVGID_00000088825411773101930200000005624809779262519698_);}
	.st14{fill:url(#SVGID_00000081648236828483869330000006631849892664237441_);}
	.st15{fill:url(#SVGID_00000044873656695438282190000007423534683296984488_);}
	.st16{fill:url(#SVGID_00000127743053361582079880000009179847559473052337_);}
	.st17{fill:url(#SVGID_00000071552052937491041310000015052226568443007654_);}
	.st18{fill:url(#SVGID_00000183965418412091214120000000859847589815877003_);}
	.st19{fill:url(#SVGID_00000066495805447211230480000014409691371920606355_);}
	.st20{fill:url(#SVGID_00000173162107961758460920000006766743201488085408_);}
	.st21{fill:url(#SVGID_00000024701526518739089080000008163695715300205987_);}
	.st22{fill:url(#SVGID_00000171683741547499383920000005517878031538366896_);}
	.st23{fill:url(#SVGID_00000099659066426091148630000000028891650464708540_);}
	.st24{fill:url(#SVGID_00000047776299443105072380000010390991163718389158_);}
	.st25{fill:url(#SVGID_00000033351621825653452400000002817973137776257425_);}
	.st26{fill:url(#SVGID_00000003814847288346571440000014325507031850150831_);}
	.st27{fill:url(#SVGID_00000168816612600155549310000011432390620191389087_);}
	.st28{fill:url(#SVGID_00000107571392636058536690000005243493370030527365_);}
	.st29{fill:url(#SVGID_00000168113646087479934550000009217634666403312547_);}
	.st30{fill:url(#SVGID_00000036217884430033363530000012491765428764421048_);}
	.st31{fill:url(#SVGID_00000016777116556944995620000018294756386703593356_);}
	.st32{fill:url(#SVGID_00000008851939389728692560000008017738460837156258_);}
	.st33{fill:url(#SVGID_00000153692762826575646110000003865009243033077896_);}
	.st34{fill:url(#SVGID_00000012458336448929383220000014713594598142129587_);}
	.st35{fill:url(#SVGID_00000060010125989348296770000014383390904130597287_);}
	.st36{fill:url(#SVGID_00000113341392393490567080000013697014867153144452_);}
	.st37{fill:url(#SVGID_00000128482521132464873940000010119536144534469289_);}
	.st38{fill:url(#SVGID_00000006691111712233823580000004110238317344681098_);}
	.st39{fill:url(#SVGID_00000068661942484423761460000007482800527395883147_);}
	.st40{fill:url(#SVGID_00000112630294713495167460000000839045362094569658_);}
	.st41{fill:url(#SVGID_00000086694233962466323830000005953193421556944811_);}
	.st42{fill:url(#SVGID_00000038401302157906009850000009869122002345873309_);}
	.st43{fill:url(#SVGID_00000005971350964269069410000000997097737343593863_);}
	.st44{fill:url(#SVGID_00000118374280037384825210000004111800191156691641_);}
	.st45{fill:url(#SVGID_00000105405624835027494610000015921232950835607467_);}
	.st46{fill:url(#SVGID_00000033352096647109479950000017260195072252980405_);}
	.st47{fill:url(#SVGID_00000073679977715973281800000003028569784863350927_);}
	.st48{fill:url(#SVGID_00000041278156579272325290000010203077299378952373_);}
	.st49{fill:url(#SVGID_00000026850917623772528010000005137601308806668691_);}
	.st50{fill:url(#SVGID_00000152953567307473538530000017964157539991719591_);}
	.st51{fill:url(#SVGID_00000179627924709843566370000012372295193677789594_);}
	.st52{fill:url(#SVGID_00000059295483428822311210000006472151861773363875_);}
	.st53{fill:url(#SVGID_00000049217996545617645220000002318214522474524072_);}
	.st54{fill:url(#SVGID_00000072267573580674649510000017092155805478603402_);}
	.st55{fill:url(#SVGID_00000181079691026708172700000015313353963916239770_);}
	.st56{fill:url(#SVGID_00000182492917563960236610000018294085093098146737_);}
	.st57{fill:url(#SVGID_00000010999021993532113140000006001400243008537740_);}
	.st58{fill:url(#SVGID_00000098214474979943784380000015133744072330327685_);}
	.st59{fill:url(#SVGID_00000113315846826945306970000015994960610763611021_);}
	.st60{fill:url(#SVGID_00000090999959092763727590000007689594419539605377_);}
	.st61{fill:url(#SVGID_00000025432804018767917910000007800430949618286252_);}
	.st62{fill:url(#SVGID_00000011749299221918037130000014210552225412079262_);}
	.st63{fill:url(#SVGID_00000021809374816490201930000001756104531032667791_);}
	.st64{fill:url(#SVGID_00000183971113209366791570000000880229831153675662_);}
	.st65{fill:url(#SVGID_00000132048140345392957110000013877647513944286889_);}
	.st66{fill:url(#SVGID_00000006695867688333193230000005408959521458012574_);}
	.st67{fill:url(#SVGID_00000036933822389171583180000012931705725524030859_);}
	.st68{fill:url(#SVGID_00000178910700774884609720000012074349870235040396_);}
	.st69{fill:url(#SVGID_00000074416740863709061840000017570576581119159199_);}
	.st70{fill:url(#SVGID_00000131365551142688871360000015634754761016210344_);}
	.st71{fill:url(#SVGID_00000067221615556107361410000013475774712068656798_);}
	.st72{fill:url(#SVGID_00000167358545697954579240000014851814622177742012_);}
	.st73{fill:url(#SVGID_00000160873481125188329530000016004462654633148556_);}
	.st74{fill:url(#SVGID_00000123399656458131481000000006585548063932547730_);}
	.st75{fill:url(#SVGID_00000106134737455395656380000002043274564590200732_);}
	.st76{fill:url(#SVGID_00000051384429097406873580000013764477947473009032_);}
	.st77{fill:url(#SVGID_00000032646475157543571020000007180380202063615139_);}
	.st78{fill:url(#SVGID_00000172415670004897579410000002590602911285122993_);}
	.st79{fill:url(#SVGID_00000053514022794575368140000001887687722418225546_);}
	.st80{fill:url(#SVGID_00000075869978392547657270000004227804971064278151_);}
	.st81{fill:url(#SVGID_00000093139335665891947870000001956667074489612675_);}
	.st82{fill:url(#SVGID_00000121991138403523741400000012804593582619406735_);}
	.st83{fill:url(#SVGID_00000053523133273990680860000000124404271045408906_);}
	.st84{fill:url(#SVGID_00000120522576992646410490000009065488790740723872_);}
	.st85{fill:url(#SVGID_00000143583498192731110680000013292742003559813054_);}
	.st86{fill:url(#SVGID_00000057110953738073631670000017185076217260825754_);}
	.st87{fill:url(#SVGID_00000180358463485461236580000003574136417438438828_);}
	.st88{fill:url(#SVGID_00000170992574720859187920000011149997070541915045_);}
	.st89{fill:url(#SVGID_00000062154764379441484680000002687235341431439795_);}
	.st90{fill:url(#SVGID_00000040576812411297908520000006154752620676201906_);}
	.st91{fill:url(#SVGID_00000059269804662397924500000004490492873491540879_);}
	.st92{fill:url(#SVGID_00000176727903289875497260000011797158164000906378_);}
	.st93{fill:url(#SVGID_00000021110786092609661390000013649667144097008316_);}
	.st94{fill:url(#SVGID_00000181768573122839420400000018191365258315133347_);}
	.st95{fill:url(#SVGID_00000046309504425744211930000003281284162753984681_);}
	.st96{fill:url(#SVGID_00000178892975293382565480000010099707792061613737_);}
	.st97{fill:url(#SVGID_00000014620794702657566010000016417672470356427676_);}
	.st98{fill:url(#SVGID_00000113347317198842686630000005513116850025727932_);}
	.st99{fill:url(#SVGID_00000167358141356494830680000013828002679699366792_);}
	.st100{fill:url(#SVGID_00000124862575526431298360000002195319405756734649_);}
	.st101{fill:url(#SVGID_00000016780353276277190700000009554897519401975480_);}
	.st102{fill:url(#SVGID_00000110458128529108854190000011390408628348720796_);}
	.st103{fill:url(#SVGID_00000121280112481781737420000006817617418320668802_);}
	.st104{fill:url(#SVGID_00000177450567079718285330000017851324610492013245_);}
	.st105{fill:url(#SVGID_00000132788170245935031760000000364078588429042829_);}
	.st106{fill:url(#SVGID_00000039855982742199767630000000707743776396088229_);}
	.st107{fill:url(#SVGID_00000065769597594076334360000007937796209616569226_);}
	.st108{fill:url(#SVGID_00000070803864942700064620000017455505147952571037_);}
	.st109{fill:url(#SVGID_00000067945027709561335050000017619459516285079470_);}
	.st110{fill:url(#SVGID_00000150787024101509872960000014073761927313338522_);}
	.st111{fill:url(#SVGID_00000036971837142139651830000015145829791003326909_);}
	.st112{fill:url(#SVGID_00000043452403275003521960000010446930612975222157_);}
	.st113{fill:url(#SVGID_00000147206619123273571450000010131687077758910850_);}
	.st114{fill:url(#SVGID_00000021835666854755051870000000630408314141307546_);}
	.st115{fill:url(#SVGID_00000039848742493525691770000016981240582298859912_);}
	.st116{fill:url(#SVGID_00000121269566105094448650000005391542698006665384_);}
	.st117{fill:url(#SVGID_00000173841011159623259990000003335111135150251171_);}
	.st118{fill:url(#SVGID_00000039855386573098446760000017568581709087017892_);}
	.st119{fill:url(#SVGID_00000026855055308106388660000006880677942543923847_);}
	.st120{fill:url(#SVGID_00000042719563492254818160000001100194646627733381_);}
	.st121{fill:url(#SVGID_00000108281229588892490040000001438992947136536724_);}
	.st122{fill:url(#SVGID_00000093882710919654248990000001489556905334601380_);}
	.st123{fill:url(#SVGID_00000049929333423791314540000015215535843338384807_);}
	.st124{fill:url(#SVGID_00000084517755226067476160000004592029334067612347_);}
	.st125{fill:url(#SVGID_00000034770938796173857120000015785178721931605632_);}
	.st126{fill:url(#SVGID_00000050650545233766787240000012042687042008989355_);}
	.st127{fill:url(#SVGID_00000093166168264141400520000005562536579545509523_);}
	.st128{fill:url(#SVGID_00000154401808014077551220000005765178465522559874_);}
	.st129{fill:url(#SVGID_00000145762330268595440900000014935813196599201945_);}
	.st130{fill:url(#SVGID_00000060005977194405129470000017440987721469401522_);}
	.st131{fill:url(#SVGID_00000001641519326703655800000000638421890742826938_);}
	.st132{fill:url(#SVGID_00000088131356918478099120000009632966031473543824_);}
	.st133{fill:url(#SVGID_00000119116628191713262440000016997258923582373780_);}
	.st134{fill:url(#SVGID_00000003074708080301756980000004677860343043317638_);}
	.st135{fill:url(#SVGID_00000149353264980146659300000001163596464581499578_);}
	.st136{fill:url(#SVGID_00000182493374275061775500000002533241806087455421_);}
	.st137{fill:url(#SVGID_00000154428180277088224550000013030644817827851423_);}
	.st138{fill:url(#SVGID_00000173850193950890613170000014145893953451266730_);}
	.st139{fill:url(#SVGID_00000181785182659684671070000017685892714532732589_);}
	.st140{fill:url(#SVGID_00000119093517502520288580000008092734129297969330_);}
	.st141{fill:url(#SVGID_00000081639368541349672780000016307131680443055497_);}
	.st142{fill:url(#SVGID_00000044878552336636317270000015385837689217632183_);}
	.st143{fill:url(#SVGID_00000165933952652649831750000011383873327922747551_);}
	.st144{fill:url(#SVGID_00000013905613705096704880000006700659184151220874_);}
	.st145{fill:url(#SVGID_00000081616444171224726410000008407608212129029038_);}
	.st146{fill:url(#SVGID_00000165944493422168967000000003253343598910869939_);}
	.st147{fill:url(#SVGID_00000030460229892034111390000014905392026536595644_);}
	.st148{fill:url(#SVGID_00000024721145672063533370000016275649256944307333_);}
	.st149{fill:url(#SVGID_00000069389846345861478110000005086393810700769436_);}
</style>
<g>
	<path class="st0" d="M34.9,49.8c-0.4,0.3-0.7,0.7-1,1.1l0,0L19.5,72.1l6.3,9.4l70.3,82.1c0.1,0.2,0.3,0.3,0.4,0.3l0.5,0.6l-0.1,0.1
		c30.2-12.8,42.5-35.8,42.5-35.8c-0.2,0.3-0.4,0.5-0.6,0.7c0.2-0.3,0.4-0.5,0.6-0.7l-2.8-23.9l-4.1-19.1l-4.3-5.1l-1.7-2l-48.7-58
		c-1.9-2.3-5.3-2.6-7.6-0.7L34.9,49.8L34.9,49.8z"/>
	
		<linearGradient id="SVGID_1_" gradientUnits="userSpaceOnUse" x1="321.2206" y1="-114.4055" x2="321.499" y2="-149.4788" gradientTransform="matrix(-0.6428 -0.766 -0.766 0.6428 178.6358 430.1437)">
		<stop  offset="0" style="stop-color:#5C5C5C"/>
		<stop  offset="0.1042" style="stop-color:#979797"/>
	</linearGradient>
	<path class="st1" d="M37.3,46l-4,5.9c-0.1,0.1-0.2,0.2-0.2,0.3L33,52.5c-0.1,0.1-0.1,0.1-0.1,0.2l-0.1,0.1L27,61.4l-2.4,3.5
		l-0.5,0.7l-0.5,0.8l6.3,9.4l2.3,2.7l3.8,4.5c0,0,0,0,0,0l5.8,6.7l3.8,4.5l36.8,43l3.7,4.3l6.2,7.3l3.7,4.3l4,4.7l0,0
		c0.3,0.3,0.6,0.5,1,0.4c0.1,0,0.3,0,0.4-0.1c0.1-0.1,0.3-0.1,0.4-0.2c0.1-0.1,0.1-0.1,0.2-0.2c0,0,0.1-0.1,0.1-0.1c0,0,0,0,0,0
		c0-0.1,0.1-0.1,0.1-0.2c0.1-0.3,0.2-0.6,0.3-0.9c2-6,0.8-11.9-1.8-17.8l-9.2-23.2l-5.5-6.5L38.2,51.6c-0.1-0.1-0.1-0.1-0.2-0.2l0,0
		c-0.1-0.1-0.2-0.2-0.3-0.3c-1.6-1.9-3.4-0.4-4.3,0.8l3.8-5.6C37.3,46.2,37.3,46.1,37.3,46z"/>
	<g>
		<path class="st2" d="M131.6,135.1l0,0.2C131.6,135.2,131.6,135.1,131.6,135.1z"/>
		<path class="st2" d="M97.7,123.3l4.2,10.8c0,0,0,0,0,0c0.6,0,10.6,0.1,23.9-11.8c13.7-12.3,14.7-21.4,14.7-21.4
			c0,0.1-0.1,0.1-0.1,0.2c0,0,0-0.1,0-0.1c-1-5.3-2.2-11.8-3.7-16.6c-0.3-0.9-1.6-1.1-2.2-0.3c-9.7,13.6-20.6,22.1-35.7,28.7
			C93.9,114.8,95.8,118.3,97.7,123.3z"/>
		<polygon class="st3" points="26.9,61.3 24.1,65.5 25.4,67.1 28.3,62.9 		"/>
		<polygon class="st4" points="24.5,64.8 102.5,157.7 101.1,158.8 23.6,66.3 		"/>
		<ellipse transform="matrix(0.766 -0.6428 0.6428 0.766 -72.4457 91.4703)" class="st4" cx="89.4" cy="145.3" rx="4.4" ry="10.5"/>
		<ellipse transform="matrix(0.766 -0.6428 0.6428 0.766 -72.4457 91.4703)" class="st2" cx="89.4" cy="145.3" rx="2" ry="4.8"/>
		<ellipse transform="matrix(0.766 -0.6428 0.6428 0.766 -45.9391 45.5596)" class="st4" cx="39.6" cy="85.9" rx="4.4" ry="10.5"/>
		<ellipse transform="matrix(0.766 -0.6428 0.6428 0.766 -45.9391 45.5596)" class="st2" cx="39.6" cy="85.9" rx="2" ry="4.8"/>
		
			<linearGradient id="SVGID_00000157997222563016118580000002599162869523259048_" gradientUnits="userSpaceOnUse" x1="344.3113" y1="468.9493" x2="344.3113" y2="460.6971" gradientTransform="matrix(-0.6428 -0.766 -0.766 0.6428 632.1341 49.6135)">
			<stop  offset="0.3111" style="stop-color:#000000"/>
			<stop  offset="1" style="stop-color:#37475E"/>
		</linearGradient>
		<path style="fill:url(#SVGID_00000157997222563016118580000002599162869523259048_);" d="M79.4,110.3l-3.1,2.6
			c-1,0.8-2.4,0.9-3.2-0.1L31.3,63c-0.8-0.9-0.9-1.7,0-3.3l2.5-3.8c1.1-1.5,2.4-0.9,3.2,0.1l42.9,51.2
			C80.7,108.1,80.4,109.5,79.4,110.3z"/>
		<path class="st2" d="M81.9,15l54.6,65l4.1,19.1l2.8,23.9c0,0,0,0,0,0c-0.2,0.2-0.4,0.4-0.5,0.7c0,0,0,0.1-0.1,0.1
			c-3.8,4.9-7.7,9.2-11.5,13l0-0.1l0.2-1.4c0-0.1,0.1-0.2,0-0.2l0,0.2c-0.7,1.4-10.7,9.3-14.3,10.6l1.5,1.4
			c-5.7,4.1-11.2,7.1-15.9,9.3c2-6,0.8-11.9-1.8-17.8l-9.2-23.2l-53.7-64c-0.1-0.1-0.1-0.1-0.2-0.2l0,0c-0.1-0.1-0.2-0.2-0.3-0.3
			c-1.6-1.9-3.4-0.4-4.3,0.8l3.8-5.6c0-0.1,0-0.2,0.1-0.2c0.3-0.8,0.8-1.5,1.5-2.1l35.4-29.7C76.6,12.5,80,12.7,81.9,15z
			 M97.7,123.3l4.2,10.8c0,0,0,0,0,0c0.6,0,10.6,0.1,23.9-11.8c13.7-12.3,14.7-21.4,14.7-21.4c0,0.1-0.1,0.1-0.1,0.2
			c0,0,0-0.1,0-0.1c-1-5.3-2.2-11.8-3.7-16.6c-0.3-0.9-1.6-1.1-2.2-0.3c-9.7,13.6-20.6,22.1-35.7,28.7
			C93.9,114.8,95.8,118.3,97.7,123.3z"/>
		
			<linearGradient id="SVGID_00000143580825136410768480000005621607255856677519_" gradientUnits="userSpaceOnUse" x1="287.3291" y1="-160.9778" x2="275.5483" y2="-160.6443" gradientTransform="matrix(-0.6428 -0.766 -0.766 0.6428 178.6358 430.1437)">
			<stop  offset="0.3111" style="stop-color:#000000"/>
			<stop  offset="1" style="stop-color:#37475E"/>
		</linearGradient>
		<path style="fill:url(#SVGID_00000143580825136410768480000005621607255856677519_);" d="M97.7,123.3l4.2,10.8c0,0,0,0,0,0
			c18.6-1.3,37.5-24.4,38.5-33c0,0,0-0.1,0-0.1c-1-5.3-2.2-11.8-3.7-16.6c-0.3-0.9-1.6-1.1-2.2-0.3c-9.7,13.6-20.6,22.1-35.7,28.7
			C93.9,114.8,95.8,118.3,97.7,123.3z"/>
		
			<linearGradient id="SVGID_00000093172589841153987770000006190308898288937371_" gradientUnits="userSpaceOnUse" x1="287.0744" y1="468.7805" x2="287.0744" y2="461.0909" gradientTransform="matrix(-0.6428 -0.766 -0.766 0.6428 632.1341 49.6135)">
			<stop  offset="0.3111" style="stop-color:#000000"/>
			<stop  offset="1" style="stop-color:#37475E"/>
		</linearGradient>
		<path style="fill:url(#SVGID_00000093172589841153987770000006190308898288937371_);" d="M88,120l-3.9,3.3
			c-0.7,0.6-0.8,1.6-0.2,2.3l9.3,11c0.6,0.7,1.6,0.8,2.3,0.2l0.2-0.2c0.5-0.4,0.7-1.1,0.4-1.8l-5.6-14.2
			C90.1,119.6,88.8,119.3,88,120z"/>
		<path d="M140.4,101.1c-10.1,17.8-23.7,26.7-38.5,33c0,0,0,0,0,0c0.6,0,10.6,0.1,23.9-11.8c13.7-12.3,14.7-21.4,14.7-21.4
			C140.5,101,140.5,101.1,140.4,101.1z"/>
		<path d="M102.1,156.9l-0.1,0.2l-0.5,0.8l-0.2,0.4l-0.3,0.5c29.5-12.6,41.9-34.9,42.4-35.8c-0.2,0.2-0.3,0.5-0.5,0.7
			c0,0,0,0.1-0.1,0.1c-3.8,4.9-7.7,9.2-11.5,13c-4.3,4.1-8.5,7.6-12.6,10.5c-5.7,4.1-11.2,7.1-15.9,9.3
			C102.6,156.7,102.4,156.8,102.1,156.9z"/>
		<path d="M131.6,135.1l0,0.2C131.6,135.2,131.6,135.1,131.6,135.1z"/>
		<path d="M117.2,145.8l1.5,1.4l0.3,0.3l0.1,0.1l12.2-10.2l0-0.2l0-0.4l0-0.1l0.2-1.4C130.8,136.7,120.9,144.6,117.2,145.8z"/>
		<path class="st9" d="M32.8,52.9L32.8,52.9C32.8,52.8,32.8,52.8,32.8,52.9C32.8,52.9,32.8,52.9,32.8,52.9z"/>
		<path class="st9" d="M33.5,51.9c0,0-0.1,0.1-0.1,0.1c-0.1,0.1-0.2,0.2-0.2,0.3L33,52.5c-0.1,0.1-0.1,0.1-0.1,0.2c0,0,0,0,0,0.1
			L33.5,51.9z"/>
	</g>
</g>
</svg>
