<?xml version="1.0" encoding="utf-8"?>
<!-- Generator: Adobe Illustrator 25.4.1, SVG Export Plug-In . SVG Version: 6.00 Build 0)  -->
<svg version="1.1" id="Layer_1" xmlns="http://www.w3.org/2000/svg" xmlns:xlink="http://www.w3.org/1999/xlink" x="0px" y="0px"
	 viewBox="0 0 168 168" style="enable-background:new 0 0 168 168;" xml:space="preserve">
<style type="text/css">
	.st0{opacity:0.2;fill:#151110;enable-background:new    ;}
	.st1{fill:url(#SVGID_1_);}
	.st2{fill:#FFFFFF;}
	.st3{fill:#C00D0D;}
	.st4{fill:#151110;}
	.st5{fill:url(#SVGID_00000097490731989316147510000009871016699910848640_);}
	.st6{fill:url(#SVGID_00000156584966463525688540000001670637713966254754_);}
	.st7{fill:none;stroke:#A03394;stroke-width:9;stroke-miterlimit:10;}
	.st8{fill:url(#SVGID_00000075163155660643131880000012297569950649089201_);}
	.st9{fill:#F0F0F0;}
	.st10{fill:url(#SVGID_00000139994350899042323160000012478781875678145722_);}
	.st11{fill:url(#SVGID_00000041992771529944972160000017991940056715563665_);}
	.st12{fill:url(#SVGID_00000034772791052070469260000002320688730254941609_);}
	.st13{fill:url(#SVGID_00000056425737307589642720000012563724435325715334_);}
	.st14{fill:url(#SVGID_00000050648608680457856590000017840721400603756432_);}
	.st15{fill:url(#SVGID_00000152246279588839033230000000756923146124857014_);}
	.st16{fill:url(#SVGID_00000010998246341499497980000016213274419268083081_);}
	.st17{fill:url(#SVGID_00000139280188585913563480000008793432509751754156_);}
	.st18{fill:url(#SVGID_00000038399036561605241720000008180041300199187596_);}
	.st19{fill:url(#SVGID_00000088815490521365285820000006027432041555051692_);}
	.st20{fill:url(#SVGID_00000057127247970608551840000002001858910749434283_);}
	.st21{fill:url(#SVGID_00000088839514399941794270000001749573252123855262_);}
	.st22{fill:url(#SVGID_00000145779552790196746140000005053579317022356666_);}
	.st23{fill:url(#SVGID_00000029765540478596821410000005869903205186587834_);}
	.st24{fill:url(#SVGID_00000008843405224524522490000007372879673222577062_);}
	.st25{fill:url(#SVGID_00000181782687960100807750000001218987915514891921_);}
	.st26{fill:url(#SVGID_00000151512143280681132380000016287732058293554879_);}
	.st27{fill:url(#SVGID_00000180347707600129039580000018102592585790844582_);}
	.st28{fill:url(#SVGID_00000091733548889928143040000017851590348321152952_);}
	.st29{fill:url(#SVGID_00000129186998740501554890000009327878938181316754_);}
	.st30{fill:url(#SVGID_00000167380729970715482810000013497968952932410006_);}
	.st31{fill:url(#SVGID_00000138569120023058206740000000019790253142496149_);}
	.st32{fill:url(#SVGID_00000082326843743451629160000003802637259627645847_);}
	.st33{fill:url(#SVGID_00000098190465358533677600000003958612954460251546_);}
	.st34{fill:url(#SVGID_00000005252274012762464640000013086862621357349779_);}
	.st35{fill:url(#SVGID_00000121250492158077915270000007866594052305836195_);}
	.st36{fill:url(#SVGID_00000036960505381240378940000003891283763991317936_);}
	.st37{fill:url(#SVGID_00000152984784652153625060000014833250928487906234_);}
	.st38{fill:url(#SVGID_00000060726145919762735000000006071980224724233347_);}
	.st39{fill:url(#SVGID_00000034078669932711519130000005526124093372879761_);}
	.st40{fill:url(#SVGID_00000037686923204836502450000008703684033034419616_);}
	.st41{fill:url(#SVGID_00000108267373578943600470000012307514764683239575_);}
	.st42{fill:url(#SVGID_00000072259433058369390340000015400289620685432991_);}
	.st43{fill:url(#SVGID_00000070102712278567825370000015650471510657369522_);}
	.st44{fill:url(#SVGID_00000070090442799449769060000018143589290046118284_);}
	.st45{fill:url(#SVGID_00000091714539830291341730000013897232987355804806_);}
	.st46{fill:url(#SVGID_00000158010230725436109310000012100125146455395997_);}
	.st47{fill:url(#SVGID_00000102539058596642373700000007362482548622726803_);}
	.st48{fill:url(#SVGID_00000160880414767392186150000003526500962790564494_);}
	.st49{fill:url(#SVGID_00000143614973331040183290000005766984221473366146_);}
	.st50{fill:url(#SVGID_00000174582285174045035170000010868995292304240279_);}
	.st51{fill:url(#SVGID_00000129886266605158954310000017869727461251855789_);}
	.st52{fill:url(#SVGID_00000155138889514501195910000002730155605950081717_);}
	.st53{fill:url(#SVGID_00000109752535123009984140000010495133330479701672_);}
	.st54{fill:url(#SVGID_00000031902513225058880570000015163153075094999739_);}
	.st55{fill:url(#SVGID_00000128467434061759354640000012183584601996426880_);}
	.st56{fill:url(#SVGID_00000008124772353797309540000010448777994230166182_);}
	.st57{fill:url(#SVGID_00000139251378854255787720000000639073295700001681_);}
	.st58{fill:url(#SVGID_00000077302746616609629250000000802434032187809181_);}
	.st59{fill:url(#SVGID_00000016779404480239261340000004503370940685253271_);}
	.st60{fill:url(#SVGID_00000078759137215357786900000001328232280834418601_);}
	.st61{fill:url(#SVGID_00000165225833726235728220000006359315221326717094_);}
	.st62{fill:url(#SVGID_00000074420460392531486710000005917049934961338763_);}
	.st63{fill:url(#SVGID_00000107564342907611920070000017584186076200540599_);}
	.st64{fill:url(#SVGID_00000005263781439829705580000017802066570787515789_);}
	.st65{fill:url(#SVGID_00000127023773360423412100000004970217917215478919_);}
	.st66{fill:url(#SVGID_00000121278046901558022500000000444539362740613770_);}
	.st67{fill:url(#SVGID_00000183212269814472844760000018369832137101042347_);}
	.st68{fill:url(#SVGID_00000103256347121576126330000010311664523393910454_);}
	.st69{fill:url(#SVGID_00000071557982200496969990000015544015574717033624_);}
	.st70{fill:url(#SVGID_00000068673043426802994800000006530884685840221602_);}
	.st71{fill:url(#SVGID_00000125569715669300294750000018243206093805533319_);}
	.st72{fill:url(#SVGID_00000016781281091308079690000007674887588390573452_);}
	.st73{fill:url(#SVGID_00000013185871836328105550000002610600850876576917_);}
	.st74{fill:url(#SVGID_00000037665937339917385210000006802274647352314248_);}
	.st75{fill:url(#SVGID_00000120538801374061608670000012100236578097038983_);}
	.st76{fill:url(#SVGID_00000060745891473705690300000014052605435538757298_);}
	.st77{fill:url(#SVGID_00000165231164561546359070000016811021169680703389_);}
	.st78{fill:url(#SVGID_00000043442871552559544770000009342413399689927851_);}
	.st79{fill:url(#SVGID_00000139261606421633694100000015839820081506803600_);}
	.st80{fill:url(#SVGID_00000001637248159200108300000017457451819986561213_);}
	.st81{fill:url(#SVGID_00000037670405069555861000000006475712026335662012_);}
	.st82{fill:url(#SVGID_00000108280400766775184590000014456249090767385760_);}
	.st83{fill:url(#SVGID_00000129192938869207066180000013473058802958495659_);}
	.st84{fill:url(#SVGID_00000024712078391254856940000001377648357956544645_);}
	.st85{fill:url(#SVGID_00000042004983531018805280000013675328343694221446_);}
	.st86{fill:url(#SVGID_00000015338116186833329460000007046134240953780106_);}
	.st87{fill:url(#SVGID_00000159436961584768189900000000717038543234546363_);}
	.st88{fill:url(#SVGID_00000061437188278922269960000006205293587621940401_);}
	.st89{fill:url(#SVGID_00000101105494315170376280000012577896263851205002_);}
	.st90{fill:url(#SVGID_00000160153378693406271340000003877467728821617079_);}
	.st91{fill:url(#SVGID_00000151515726141892095240000000272423479547334536_);}
	.st92{fill:url(#SVGID_00000121246057270974962580000007378968159490984370_);}
	.st93{fill:url(#SVGID_00000027601159960649768360000000484219510090640777_);}
	.st94{fill:url(#SVGID_00000047774143758690642870000014220403602616370358_);}
	.st95{fill:url(#SVGID_00000142148971665925856760000013163978975456643722_);}
	.st96{fill:url(#SVGID_00000044161956186796546420000017071964210256991663_);}
	.st97{fill:url(#SVGID_00000062907070155580005220000013941527302391363989_);}
	.st98{fill:url(#SVGID_00000063614924522666234610000006356574455926634882_);}
	.st99{fill:url(#SVGID_00000043425165738042895800000015925279024199774859_);}
	.st100{fill:url(#SVGID_00000126305972019785860470000016145090641668500126_);}
	.st101{fill:url(#SVGID_00000079486686730320686070000000395493149268109730_);}
	.st102{fill:url(#SVGID_00000151533277514831853970000000243505672492997269_);}
	.st103{fill:url(#SVGID_00000125578297522166634850000018076669904624901804_);}
	.st104{fill:url(#SVGID_00000019655577819257653530000006979636144568302264_);}
	.st105{fill:url(#SVGID_00000086690827414093910910000009925086259313946774_);}
	.st106{fill:url(#SVGID_00000023251457285508131760000013848183380631121554_);}
	.st107{fill:url(#SVGID_00000114753941357877820390000018413459877266631849_);}
	.st108{fill:url(#SVGID_00000040566449619799867900000015319497612124978594_);}
	.st109{fill:url(#SVGID_00000134933441499678593860000010408237910337267349_);}
	.st110{fill:url(#SVGID_00000081642871675193241820000009807597531859585194_);}
	.st111{fill:url(#SVGID_00000113340888737159534400000002547816881105535138_);}
	.st112{fill:url(#SVGID_00000153664895792650930230000012561969087338985097_);}
	.st113{fill:url(#SVGID_00000005234531323037762080000004033911524503105981_);}
	.st114{fill:url(#SVGID_00000052091157166886426730000006546454558464330370_);}
	.st115{fill:url(#SVGID_00000076586296540202642850000010635308002302708649_);}
	.st116{fill:url(#SVGID_00000100375717081530616310000014160793136699148709_);}
	.st117{fill:url(#SVGID_00000011032506276632139540000014564478325081671314_);}
	.st118{fill:url(#SVGID_00000085929739202999334330000018232260873602247838_);}
	.st119{fill:url(#SVGID_00000096042635870217051560000004091930772207884446_);}
	.st120{fill:url(#SVGID_00000072978210396129303360000012603601937587915931_);}
	.st121{fill:url(#SVGID_00000036964731566004566970000017744930524114470335_);}
	.st122{fill:url(#SVGID_00000052803490811960138920000016167747414533465780_);}
	.st123{fill:url(#SVGID_00000111879102090964576890000006855522829774635452_);}
	.st124{fill:url(#SVGID_00000082338808524151583980000014374440441673490333_);}
	.st125{fill:url(#SVGID_00000158736310780786993780000000757062779104908728_);}
	.st126{fill:url(#SVGID_00000003104116037419946780000013668491891491211392_);}
	.st127{fill:url(#SVGID_00000103265350020854096040000017840054675970446263_);}
	.st128{fill:url(#SVGID_00000140706412818777102830000009468640805232496288_);}
	.st129{fill:url(#SVGID_00000160881393053387429660000013266398977994759095_);}
	.st130{fill:url(#SVGID_00000088100532707393962370000000632733687970245557_);}
	.st131{fill:url(#SVGID_00000109737527449379696770000016940960974182575003_);}
	.st132{fill:url(#SVGID_00000150785180910062768700000011316934627052789429_);}
	.st133{fill:url(#SVGID_00000049212024492217612550000007317601242138672792_);}
	.st134{fill:url(#SVGID_00000155110446236937090880000009825494886465574035_);}
	.st135{fill:url(#SVGID_00000086650295894786602440000016510062848079676320_);}
	.st136{fill:url(#SVGID_00000104692471435287332040000006549258466386325411_);}
	.st137{fill:url(#SVGID_00000167373721726420252820000013039816673901514894_);}
	.st138{fill:url(#SVGID_00000016035055128861144790000010070209327676717959_);}
	.st139{fill:url(#SVGID_00000013881126407427067580000016317940867123050160_);}
	.st140{fill:url(#SVGID_00000124876645579389480850000003726207550711659909_);}
	.st141{fill:url(#SVGID_00000136413159911731202820000010255645284186714029_);}
	.st142{fill:url(#SVGID_00000168090643430956731290000007457872878768391330_);}
	.st143{fill:url(#SVGID_00000008867564481690785580000003803737482865412255_);}
	.st144{fill:url(#SVGID_00000079446907054708468780000013958987965310864010_);}
	.st145{fill:url(#SVGID_00000017480025396713984180000005484177532248363177_);}
	.st146{fill:url(#SVGID_00000111900036911329508880000011509764377867643294_);}
	.st147{fill:url(#SVGID_00000106837264063042839390000004948700970817432487_);}
	.st148{fill:url(#SVGID_00000027562187278168680750000012889914862230566303_);}
	.st149{fill:url(#SVGID_00000109744957629293236200000000201665077816874639_);}
</style>
<g>
	<path class="st0" d="M42.4,42.3c-0.4,0.2-0.8,0.6-1.2,0.9l0,0L23.3,61.6L27.9,72l55,93.1c0.1,0.2,0.2,0.3,0.3,0.4l0.4,0.7l-0.1,0.1
		c32-7.4,48.1-27.9,48.1-27.9c-0.2,0.2-0.5,0.4-0.7,0.6c0.2-0.2,0.5-0.4,0.7-0.6l1.4-24l-0.8-19.5l-3.4-5.8l-1.3-2.3L89.8,21.2
		c-1.5-2.6-4.8-3.5-7.4-2L42.4,42.3L42.4,42.3z"/>
	
		<linearGradient id="SVGID_1_" gradientUnits="userSpaceOnUse" x1="321.2206" y1="-114.4055" x2="321.499" y2="-149.4788" gradientTransform="matrix(-0.5 -0.866 -0.866 0.5 117.8963 441.8319)">
		<stop  offset="0" style="stop-color:#5C5C5C"/>
		<stop  offset="0.1042" style="stop-color:#979797"/>
	</linearGradient>
	<path class="st1" d="M45.5,39l-5,5.2c-0.1,0.1-0.2,0.2-0.3,0.3L40,44.7c-0.1,0.1-0.1,0.1-0.2,0.2l-0.1,0.1l-7.2,7.4l-3,3.1L29.1,56
		l-0.6,0.7L33,67.1l1.8,3.1l3,5.1c0,0,0,0,0,0l4.5,7.6l3,5.1l28.8,48.7l2.9,4.9l4.9,8.3l2.9,4.9l3.2,5.3l0,0
		c0.2,0.4,0.6,0.6,0.9,0.6c0.1,0,0.3,0,0.4,0c0.2,0,0.3-0.1,0.4-0.2c0.1,0,0.2-0.1,0.2-0.2c0,0,0.1-0.1,0.1-0.1c0,0,0,0,0,0
		c0.1-0.1,0.1-0.1,0.1-0.2c0.2-0.3,0.3-0.6,0.5-0.8c3-5.6,2.9-11.6,1.3-17.9l-5-24.5l-4.2-7.3l-37.5-65c0-0.1-0.1-0.2-0.1-0.2l0,0
		c-0.1-0.1-0.1-0.2-0.2-0.3c-1.3-2.2-3.2-0.9-4.4,0.1l4.7-4.8C45.4,39.2,45.4,39.1,45.5,39z"/>
	<g>
		<path class="st2" d="M122.8,143.1l-0.1,0.2C122.8,143.2,122.8,143.1,122.8,143.1z"/>
		<path class="st2" d="M91.4,125.6l2.3,11.4c0,0,0,0,0,0c0.6,0.1,10.4,1.9,25.6-7.5c15.6-9.7,18.2-18.5,18.2-18.5
			c0,0-0.1,0.1-0.1,0.1c0,0,0-0.1,0-0.1c-0.1-5.4-0.1-12-0.7-17c-0.1-1-1.4-1.4-2.1-0.7c-11.9,11.7-24.1,18.2-40.2,22
			C89.2,116.6,90.4,120.3,91.4,125.6z"/>
		<polygon class="st3" points="32.6,52.2 29,55.9 30.1,57.7 33.6,54.1 		"/>
		<polygon class="st4" points="29.6,55.2 90.2,160.3 88.6,161.2 28.4,56.6 		"/>
		<ellipse transform="matrix(0.866 -0.5 0.5 0.866 -62.2379 59.2908)" class="st4" cx="79.5" cy="145.8" rx="4.4" ry="10.5"/>
		<ellipse transform="matrix(0.866 -0.5 0.5 0.866 -62.2379 59.2908)" class="st2" cx="79.5" cy="145.8" rx="2" ry="4.8"/>
		<ellipse transform="matrix(0.866 -0.5 0.5 0.866 -33.871 30.9239)" class="st4" cx="40.8" cy="78.7" rx="4.4" ry="10.5"/>
		<ellipse transform="matrix(0.866 -0.5 0.5 0.866 -33.871 30.9239)" class="st2" cx="40.8" cy="78.7" rx="2" ry="4.8"/>
		
			<linearGradient id="SVGID_00000106836018304883654860000007351436242509706391_" gradientUnits="userSpaceOnUse" x1="344.3113" y1="468.9493" x2="344.3113" y2="460.6971" gradientTransform="matrix(-0.5 -0.866 -0.866 0.5 630.5834 145.8319)">
			<stop  offset="0.3111" style="stop-color:#000000"/>
			<stop  offset="1" style="stop-color:#37475E"/>
		</linearGradient>
		<path style="fill:url(#SVGID_00000106836018304883654860000007351436242509706391_);" d="M75.7,109.6l-3.6,2.1
			c-1.1,0.7-2.5,0.4-3.1-0.6L36.5,54.7c-0.6-1-0.6-1.8,0.6-3.2l3.2-3.3c1.4-1.2,2.5-0.4,3.1,0.6l33.4,57.9
			C77.4,107.7,76.9,109,75.7,109.6z"/>
		<path class="st2" d="M94.8,16.2l42.5,73.5l0.8,19.5l-1.4,24c0,0,0,0,0,0c-0.2,0.2-0.4,0.4-0.6,0.6c0,0-0.1,0.1-0.1,0.1
			c-4.6,4.2-9.1,7.8-13.6,10.8l0-0.1l0.4-1.4c0.1-0.1,0.1-0.1,0.1-0.2l-0.1,0.2c-0.9,1.3-12.1,7.3-15.9,7.9l1.3,1.7
			c-6.4,3-12.2,5-17.2,6.4c3-5.6,2.9-11.6,1.3-17.9l-5-24.5L45.4,44.6c0-0.1-0.1-0.2-0.1-0.2l0,0c-0.1-0.1-0.1-0.2-0.2-0.3
			c-1.3-2.2-3.2-0.9-4.4,0.1l4.7-4.8c0-0.1,0.1-0.1,0.1-0.2c0.4-0.7,1.1-1.3,1.9-1.8l40-23.1C89.9,12.8,93.3,13.6,94.8,16.2z
			 M91.4,125.6l2.3,11.4c0,0,0,0,0,0c0.6,0.1,10.4,1.9,25.6-7.5c15.6-9.7,18.2-18.5,18.2-18.5c0,0-0.1,0.1-0.1,0.1c0,0,0-0.1,0-0.1
			c-0.1-5.4-0.1-12-0.7-17c-0.1-1-1.4-1.4-2.1-0.7c-11.9,11.7-24.1,18.2-40.2,22C89.2,116.6,90.4,120.3,91.4,125.6z"/>
		
			<linearGradient id="SVGID_00000067232283240111461900000011635727540776255371_" gradientUnits="userSpaceOnUse" x1="287.3291" y1="-160.9778" x2="275.5483" y2="-160.6443" gradientTransform="matrix(-0.5 -0.866 -0.866 0.5 117.8963 441.8319)">
			<stop  offset="0.3111" style="stop-color:#000000"/>
			<stop  offset="1" style="stop-color:#37475E"/>
		</linearGradient>
		<path style="fill:url(#SVGID_00000067232283240111461900000011635727540776255371_);" d="M91.4,125.6l2.3,11.4c0,0,0,0,0,0
			c18.5,1.9,41.1-17.5,43.6-25.8c0,0,0-0.1,0-0.1c-0.1-5.4-0.1-12-0.7-17c-0.1-1-1.4-1.4-2.1-0.7c-11.9,11.7-24.1,18.2-40.2,22
			C89.2,116.6,90.4,120.3,91.4,125.6z"/>
		
			<linearGradient id="SVGID_00000154400655756893766490000007101496656391071872_" gradientUnits="userSpaceOnUse" x1="287.0744" y1="468.7805" x2="287.0744" y2="461.0909" gradientTransform="matrix(-0.5 -0.866 -0.866 0.5 630.5834 145.8319)">
			<stop  offset="0.3111" style="stop-color:#000000"/>
			<stop  offset="1" style="stop-color:#37475E"/>
		</linearGradient>
		<path style="fill:url(#SVGID_00000154400655756893766490000007101496656391071872_);" d="M82.4,120.7l-4.4,2.5
			c-0.8,0.5-1,1.4-0.6,2.2l7.2,12.5c0.4,0.8,1.4,1,2.2,0.6l0.3-0.1c0.6-0.4,0.9-1,0.7-1.7l-3.1-15C84.6,120.7,83.4,120.1,82.4,120.7
			z"/>
		<path d="M137.4,111.2c-13.1,15.8-28,22.2-43.7,25.8c0,0,0,0,0,0c0.6,0.1,10.4,1.9,25.6-7.5c15.6-9.7,18.2-18.5,18.2-18.5
			C137.5,111.1,137.4,111.1,137.4,111.2z"/>
		<path d="M90,159.5l-0.1,0.2l-0.6,0.8l-0.3,0.3l-0.3,0.4c31.3-7.3,47.3-27.1,47.9-27.9c-0.2,0.2-0.4,0.4-0.6,0.6
			c0,0-0.1,0.1-0.1,0.1c-4.6,4.2-9.1,7.8-13.6,10.8c-4.9,3.3-9.7,6-14.2,8.1c-6.4,3-12.2,5-17.2,6.4C90.5,159.3,90.2,159.4,90,159.5
			z"/>
		<path d="M122.8,143.1l-0.1,0.2C122.8,143.2,122.8,143.1,122.8,143.1z"/>
		<path d="M106.8,151.2l1.3,1.7l0.2,0.3l0.1,0.1l13.8-7.9l0.1-0.2l0.1-0.4l0-0.1l0.4-1.4C121.8,144.6,110.6,150.6,106.8,151.2z"/>
		<path class="st9" d="M39.8,44.9L39.8,44.9C39.8,44.9,39.8,44.9,39.8,44.9C39.8,44.9,39.8,44.9,39.8,44.9z"/>
		<path class="st9" d="M40.6,44.1c0,0-0.1,0.1-0.1,0.1c-0.1,0.1-0.2,0.2-0.3,0.3L40,44.7c-0.1,0.1-0.1,0.1-0.2,0.2c0,0,0,0,0,0.1
			L40.6,44.1z"/>
	</g>
</g>
</svg>
