<?xml version="1.0" encoding="utf-8"?>
<!-- Generator: Adobe Illustrator 25.4.1, SVG Export Plug-In . SVG Version: 6.00 Build 0)  -->
<svg version="1.1" id="Layer_1" xmlns="http://www.w3.org/2000/svg" xmlns:xlink="http://www.w3.org/1999/xlink" x="0px" y="0px"
	 viewBox="0 0 168 168" style="enable-background:new 0 0 168 168;" xml:space="preserve">
<style type="text/css">
	.st0{opacity:0.2;fill:#151110;enable-background:new    ;}
	.st1{fill:url(#SVGID_1_);}
	.st2{fill:#FFFFFF;}
	.st3{fill:#C00D0D;}
	.st4{fill:#151110;}
	.st5{fill:url(#SVGID_00000094605053800282169730000011464820435527348625_);}
	.st6{fill:url(#SVGID_00000046319027418711976350000007086878737042713732_);}
	.st7{fill:none;stroke:#A03394;stroke-width:9;stroke-miterlimit:10;}
	.st8{fill:url(#SVGID_00000157273610628748578560000017279928524494596016_);}
	.st9{fill:#F0F0F0;}
	.st10{fill:url(#SVGID_00000016058559040451384620000003319376338772956832_);}
	.st11{fill:url(#SVGID_00000145750733448582920640000005871525457358441912_);}
	.st12{fill:url(#SVGID_00000099654511199386339360000017919837243278484637_);}
	.st13{fill:url(#SVGID_00000070078933835979547160000013299212580217222542_);}
	.st14{fill:url(#SVGID_00000027605949530014835630000003705628953050270901_);}
	.st15{fill:url(#SVGID_00000024692547825473257620000001114423109276037281_);}
	.st16{fill:url(#SVGID_00000074434585607344207000000003979841392590007719_);}
	.st17{fill:url(#SVGID_00000131347827132535963100000005361372447541597337_);}
	.st18{fill:url(#SVGID_00000122721829796113414550000016070942438927258521_);}
	.st19{fill:url(#SVGID_00000000942508399297154370000006592696383862581914_);}
	.st20{fill:url(#SVGID_00000017493061554689754400000007625589054606111920_);}
	.st21{fill:url(#SVGID_00000120541994277776605850000001772431783113218969_);}
	.st22{fill:url(#SVGID_00000036932694346628198110000011158431518566134203_);}
	.st23{fill:url(#SVGID_00000103977555490098858100000015948085458329078929_);}
	.st24{fill:url(#SVGID_00000057132561766064888710000013171377204272021133_);}
	.st25{fill:url(#SVGID_00000023251712366976024210000017171764861587009944_);}
	.st26{fill:url(#SVGID_00000169516666634962136480000011721253445518867372_);}
	.st27{fill:url(#SVGID_00000029750062827397789710000008615715973454234523_);}
	.st28{fill:url(#SVGID_00000126289010665554862790000001860436241450328209_);}
	.st29{fill:url(#SVGID_00000169533580390978678430000016909559601496482719_);}
	.st30{fill:url(#SVGID_00000139262833877523542930000004320260752183820963_);}
	.st31{fill:url(#SVGID_00000020374934764337023370000000340246038458757803_);}
	.st32{fill:url(#SVGID_00000156554836131157296350000013183464895826783386_);}
	.st33{fill:url(#SVGID_00000089541465646325345730000016386331691263252414_);}
	.st34{fill:url(#SVGID_00000048478119040400600900000018387362218433352857_);}
	.st35{fill:url(#SVGID_00000101095385028353273440000001322904325125060787_);}
	.st36{fill:url(#SVGID_00000013176073841764338940000010498195003354562233_);}
	.st37{fill:url(#SVGID_00000102519369974935734440000013701715430510784136_);}
	.st38{fill:url(#SVGID_00000175317648226495435990000016849614058739841424_);}
	.st39{fill:url(#SVGID_00000182490924863638638770000017503040533365532849_);}
	.st40{fill:url(#SVGID_00000092444090818107971430000016628925193701592464_);}
	.st41{fill:url(#SVGID_00000149353513003922487130000014575241097910489998_);}
	.st42{fill:url(#SVGID_00000021818796577031306620000001569699487124463800_);}
	.st43{fill:url(#SVGID_00000147217959478366945620000017200014577397485240_);}
	.st44{fill:url(#SVGID_00000038376151365012406190000004263182724816610956_);}
	.st45{fill:url(#SVGID_00000168098759894009131050000017509116071394307752_);}
	.st46{fill:url(#SVGID_00000088127768604494151580000018055306010175809720_);}
	.st47{fill:url(#SVGID_00000067219104737345343060000018207157442893237384_);}
	.st48{fill:url(#SVGID_00000121245737602887428680000009283283993915193747_);}
	.st49{fill:url(#SVGID_00000176744689536134715280000008925875990922433950_);}
	.st50{fill:url(#SVGID_00000014611681074262804010000013519600596196895393_);}
	.st51{fill:url(#SVGID_00000081641100888542029720000011219894534309924766_);}
	.st52{fill:url(#SVGID_00000009582610527218697750000012734873111076562342_);}
	.st53{fill:url(#SVGID_00000064325880113597481880000009635948503839074982_);}
	.st54{fill:url(#SVGID_00000130646266667750089360000010133562131796138125_);}
	.st55{fill:url(#SVGID_00000128469932928144343930000004948172246774246274_);}
	.st56{fill:url(#SVGID_00000025428649126394318920000013171532262553552046_);}
	.st57{fill:url(#SVGID_00000063627015995415154610000003904326952970210225_);}
	.st58{fill:url(#SVGID_00000005964732036565633210000007453644993154816899_);}
	.st59{fill:url(#SVGID_00000011720439888621683080000004466730194344507553_);}
	.st60{fill:url(#SVGID_00000091714464413009103220000005858754751778689431_);}
	.st61{fill:url(#SVGID_00000096773150863634028700000004244842643450174089_);}
	.st62{fill:url(#SVGID_00000029752476634761672700000004275279951020123786_);}
	.st63{fill:url(#SVGID_00000163772874949209209950000016344291490393065143_);}
	.st64{fill:url(#SVGID_00000071533005251017188700000015686164163143312034_);}
	.st65{fill:url(#SVGID_00000042695818822295563910000001967346556611850171_);}
	.st66{fill:url(#SVGID_00000181806121228221287880000008344387521591896226_);}
	.st67{fill:url(#SVGID_00000089546317128692981960000001081477071239908501_);}
	.st68{fill:url(#SVGID_00000176734337029129261110000011853699409744405643_);}
	.st69{fill:url(#SVGID_00000003064633375861354750000008339015165984482750_);}
	.st70{fill:url(#SVGID_00000173843019448575233860000007088630678635896471_);}
	.st71{fill:url(#SVGID_00000046334457862515812610000018203885456324839307_);}
	.st72{fill:url(#SVGID_00000137817610188649418370000012056615968038541195_);}
	.st73{fill:url(#SVGID_00000140718689589931318240000001449906689646674304_);}
	.st74{fill:url(#SVGID_00000101792257873959015760000003929928106958567832_);}
	.st75{fill:url(#SVGID_00000007423328506335935430000001572474924355061170_);}
	.st76{fill:url(#SVGID_00000158730778102516492610000003003362227159141779_);}
	.st77{fill:url(#SVGID_00000031893166687957564150000002037103573415793074_);}
	.st78{fill:url(#SVGID_00000180333038544151882650000002377935752063286692_);}
	.st79{fill:url(#SVGID_00000136409139525344793850000016295345835434693505_);}
	.st80{fill:url(#SVGID_00000157301323578733700920000005513609875370507919_);}
	.st81{fill:url(#SVGID_00000150084420421649054340000001911100876591701923_);}
	.st82{fill:url(#SVGID_00000050654175949484429810000001554146828698527118_);}
	.st83{fill:url(#SVGID_00000081646172987699372540000013055618158278125703_);}
	.st84{fill:url(#SVGID_00000129168551623946269020000016264428511061696390_);}
	.st85{fill:url(#SVGID_00000002343189311215275400000007498074667351662491_);}
	.st86{fill:url(#SVGID_00000132063705974785907000000010549672223457298357_);}
	.st87{fill:url(#SVGID_00000013873412259480731080000003173322744618762139_);}
	.st88{fill:url(#SVGID_00000026145673332534881340000013090737418361379243_);}
	.st89{fill:url(#SVGID_00000093856891366814486110000004436238103066999945_);}
	.st90{fill:url(#SVGID_00000007411811336845491680000009536609592352326803_);}
	.st91{fill:url(#SVGID_00000057124203760760050420000016684245600513607858_);}
	.st92{fill:url(#SVGID_00000078762355217570497610000002131211768935858839_);}
	.st93{fill:url(#SVGID_00000178180967979502414470000001886492524560973211_);}
	.st94{fill:url(#SVGID_00000061433334543885282010000009300328588076376963_);}
	.st95{fill:url(#SVGID_00000099661596311455110030000006203993271126600368_);}
	.st96{fill:url(#SVGID_00000105385930250350527120000015470311527800330890_);}
	.st97{fill:url(#SVGID_00000147190104370063466480000000763455777772329109_);}
	.st98{fill:url(#SVGID_00000015354103994753176080000009843994520105779849_);}
	.st99{fill:url(#SVGID_00000021837003988005744830000010822440350099090847_);}
	.st100{fill:url(#SVGID_00000086663862597639004930000013815998479151592587_);}
	.st101{fill:url(#SVGID_00000025435842719701488260000014902140783715108793_);}
	.st102{fill:url(#SVGID_00000068637274095741464120000008460889088643533190_);}
	.st103{fill:url(#SVGID_00000173865740867086669880000012643165220412095663_);}
	.st104{fill:url(#SVGID_00000133502179923767771610000013715071940177574809_);}
	.st105{fill:url(#SVGID_00000086663875698166951470000007214346576398694326_);}
	.st106{fill:url(#SVGID_00000018932508442204157660000016204448235384198068_);}
	.st107{fill:url(#SVGID_00000094597972111932444830000006178711392667650708_);}
	.st108{fill:url(#SVGID_00000156567790089697212480000016248617322870544039_);}
	.st109{fill:url(#SVGID_00000097496430661727571000000006490107925822298242_);}
	.st110{fill:url(#SVGID_00000023269616721033147040000007685478375950602943_);}
	.st111{fill:url(#SVGID_00000113327104163373161040000015873980727771671682_);}
	.st112{fill:url(#SVGID_00000136408384202360432280000003744164168524052376_);}
	.st113{fill:url(#SVGID_00000084519294591111033560000008817062072177109176_);}
	.st114{fill:url(#SVGID_00000010274142731600352500000015801726987002820010_);}
	.st115{fill:url(#SVGID_00000015351984489281639660000012706037939629443771_);}
	.st116{fill:url(#SVGID_00000129927933079022206390000003607629632646890156_);}
	.st117{fill:url(#SVGID_00000170253073945922643160000000583844148551620274_);}
	.st118{fill:url(#SVGID_00000158718403194750117790000011255868912994302614_);}
	.st119{fill:url(#SVGID_00000173882962504154555140000001451588177810906780_);}
	.st120{fill:url(#SVGID_00000095320328947857394010000007894350746751158451_);}
	.st121{fill:url(#SVGID_00000039841974453817993040000001741234334135062182_);}
	.st122{fill:url(#SVGID_00000028305965501188799890000017830302382376087455_);}
	.st123{fill:url(#SVGID_00000122704788573701172950000011751223935486019755_);}
	.st124{fill:url(#SVGID_00000094616081651188918830000005136910946372351374_);}
	.st125{fill:url(#SVGID_00000098198875982559740220000007153524730094222228_);}
	.st126{fill:url(#SVGID_00000114755487006107154770000002669278903832198536_);}
	.st127{fill:url(#SVGID_00000072982188342099732520000014974417374822883221_);}
	.st128{fill:url(#SVGID_00000061445286662925466880000008360233585057141946_);}
	.st129{fill:url(#SVGID_00000147178794003934440480000017137436575299540890_);}
	.st130{fill:url(#SVGID_00000157997526840863457230000000504467479694589119_);}
	.st131{fill:url(#SVGID_00000183967189820843379860000016528083878739162770_);}
	.st132{fill:url(#SVGID_00000168090113945837575750000001258536337974536884_);}
	.st133{fill:url(#SVGID_00000162328399070166301380000014154091193083543696_);}
	.st134{fill:url(#SVGID_00000031922555004722539810000003103950851356986248_);}
	.st135{fill:url(#SVGID_00000065780451675692859650000010724712619476220093_);}
	.st136{fill:url(#SVGID_00000044150487115818062580000015175548702027760794_);}
	.st137{fill:url(#SVGID_00000175281368032477804960000013101657280349251474_);}
	.st138{fill:url(#SVGID_00000023999162826981041250000014191882998002510484_);}
	.st139{fill:url(#SVGID_00000089576400903737750190000005352494393363236796_);}
	.st140{fill:url(#SVGID_00000019680347924990342450000011026766447641815189_);}
	.st141{fill:url(#SVGID_00000032616992054593564440000015210093135458121889_);}
	.st142{fill:url(#SVGID_00000123426427474161841920000005495127527562427835_);}
	.st143{fill:url(#SVGID_00000123410579288788093110000000710496405132325278_);}
	.st144{fill:url(#SVGID_00000026139591053834205110000017510828830388964518_);}
	.st145{fill:url(#SVGID_00000127015857862703659050000016090746240115070904_);}
	.st146{fill:url(#SVGID_00000052072996253052021910000005341696869548734366_);}
	.st147{fill:url(#SVGID_00000088113544037502415890000016720689542669746826_);}
	.st148{fill:url(#SVGID_00000160900497351367778510000006470397428445888917_);}
	.st149{fill:url(#SVGID_00000160885859577234543740000010447228888102997429_);}
</style>
<g>
	<path class="st0" d="M51.2,36.4c-0.5,0.2-0.9,0.4-1.3,0.7l0,0l-20.8,15l2.7,11l38,101.2c0.1,0.2,0.1,0.4,0.3,0.4l0.3,0.8l-0.1,0
		c32.8-1.7,52.2-19.1,52.2-19.1c-0.2,0.2-0.5,0.3-0.8,0.5c0.2-0.2,0.5-0.3,0.8-0.5L128,123l2.6-19.4l-2.3-6.3l-0.9-2.4l-25.9-71.1
		c-1-2.8-4.1-4.3-6.9-3.2L51.2,36.4L51.2,36.4z"/>
	
		<linearGradient id="SVGID_1_" gradientUnits="userSpaceOnUse" x1="321.2206" y1="-114.4055" x2="321.499" y2="-149.4788" gradientTransform="matrix(-0.342 -0.9397 -0.9397 0.342 56.2075 442.9529)">
		<stop  offset="0" style="stop-color:#5C5C5C"/>
		<stop  offset="0.1042" style="stop-color:#979797"/>
	</linearGradient>
	<path class="st1" d="M54.8,33.7L49,37.9c-0.1,0.1-0.2,0.1-0.3,0.2l-0.2,0.2c-0.1,0-0.1,0.1-0.2,0.1l-0.1,0.1l-8.3,6.1l-3.4,2.5
		l-0.7,0.5L35,48.1l2.7,11l1.3,3.4l2.1,5.5c0,0,0,0,0,0l3.1,8.3l2.1,5.5l19.9,53l2,5.3l3.4,9l2,5.3l2.2,5.8l0,0
		c0.1,0.4,0.4,0.6,0.8,0.7c0.1,0.1,0.3,0.1,0.4,0.1c0.2,0,0.3,0,0.5-0.1c0.1,0,0.2-0.1,0.3-0.1c0,0,0.1,0,0.1-0.1c0,0,0,0,0,0
		c0.1,0,0.1-0.1,0.2-0.2c0.2-0.2,0.4-0.5,0.6-0.7c3.9-5,4.8-10.9,4.4-17.4l-0.7-25l-2.9-8L53.7,39.2c0-0.1-0.1-0.2-0.1-0.3l0,0
		c0-0.1-0.1-0.2-0.1-0.4c-0.9-2.4-3-1.5-4.3-0.7l5.5-3.9C54.7,33.8,54.8,33.8,54.8,33.7z"/>
	<g>
		<path class="st2" d="M112.9,149.6l-0.1,0.2C112.9,149.7,112.9,149.7,112.9,149.6z"/>
		<path class="st2" d="M85.1,127l0.3,11.6c0,0,0,0,0,0c0.5,0.2,9.9,3.7,26.5-3c17.1-6.9,21.1-15,21.1-15c0,0-0.1,0.1-0.1,0.1
			c0,0,0-0.1,0-0.1c0.8-5.3,2-11.9,2.3-16.9c0.1-1-1.1-1.6-2-1.1c-13.8,9.5-26.9,13.7-43.4,14.7C84.5,117.7,85,121.5,85.1,127z"/>
		<polygon class="st3" points="39.8,44.5 35.7,47.4 36.4,49.4 40.5,46.4 		"/>
		<polygon class="st4" points="36.3,46.9 77.8,160.9 76.1,161.5 34.9,48 		"/>
		<ellipse transform="matrix(0.9397 -0.342 0.342 0.9397 -45.2924 32.6092)" class="st4" cx="69.8" cy="144.7" rx="4.4" ry="10.5"/>
		<ellipse transform="matrix(0.9397 -0.342 0.342 0.9397 -45.2924 32.6092)" class="st2" cx="69.8" cy="144.7" rx="2" ry="4.8"/>
		<ellipse transform="matrix(0.9397 -0.342 0.342 0.9397 -21.9829 19.1515)" class="st4" cx="43.3" cy="71.9" rx="4.4" ry="10.5"/>
		<ellipse transform="matrix(0.9397 -0.342 0.342 0.9397 -21.9829 19.1515)" class="st2" cx="43.3" cy="71.9" rx="2" ry="4.8"/>
		
			<linearGradient id="SVGID_00000181803131635715652300000013986082538323467666_" gradientUnits="userSpaceOnUse" x1="344.3113" y1="468.9493" x2="344.3113" y2="460.6971" gradientTransform="matrix(-0.342 -0.9397 -0.9397 0.342 612.5055 240.4769)">
			<stop  offset="0.3111" style="stop-color:#000000"/>
			<stop  offset="1" style="stop-color:#37475E"/>
		</linearGradient>
		<path style="fill:url(#SVGID_00000181803131635715652300000013986082538323467666_);" d="M72.4,108.5l-3.9,1.4
			c-1.2,0.4-2.6,0-3-1.2L43.3,47.6c-0.4-1.1-0.3-1.9,1.1-3.1l3.7-2.7c1.6-1,2.6,0,3,1.2l22.8,62.8C74.3,106.8,73.6,108,72.4,108.5z"
			/>
		<path class="st2" d="M107.3,19.8l29,79.8l-2.6,19.4l-5.5,23.4c0,0,0,0,0,0c-0.3,0.1-0.5,0.3-0.7,0.5c0,0-0.1,0.1-0.1,0.1
			c-5.2,3.4-10.4,6.1-15.3,8.2l0-0.1l0.7-1.3c0.1-0.1,0.1-0.1,0.1-0.2l-0.1,0.2c-1.2,1.1-13.2,5.1-17.1,5l0.9,1.9
			c-6.8,1.9-12.9,2.8-18.1,3.3c3.9-5,4.8-10.9,4.4-17.4l-0.7-25L53.7,39.2c0-0.1-0.1-0.2-0.1-0.3l0,0c0-0.1-0.1-0.2-0.1-0.4
			c-0.9-2.4-3-1.5-4.3-0.7l5.5-3.9c0-0.1,0.1-0.1,0.2-0.2c0.6-0.6,1.3-1.1,2.2-1.4l43.4-15.8C103.1,15.5,106.3,16.9,107.3,19.8z
			 M85.1,127l0.3,11.6c0,0,0,0,0,0c0.5,0.2,9.9,3.7,26.5-3c17.1-6.9,21.1-15,21.1-15c0,0-0.1,0.1-0.1,0.1c0,0,0-0.1,0-0.1
			c0.8-5.3,2-11.9,2.3-16.9c0.1-1-1.1-1.6-2-1.1c-13.8,9.5-26.9,13.7-43.4,14.7C84.5,117.7,85,121.5,85.1,127z"/>
		
			<linearGradient id="SVGID_00000150090316767655799850000002471292395279222704_" gradientUnits="userSpaceOnUse" x1="287.3291" y1="-160.9778" x2="275.5483" y2="-160.6443" gradientTransform="matrix(-0.342 -0.9397 -0.9397 0.342 56.2075 442.9529)">
			<stop  offset="0.3111" style="stop-color:#000000"/>
			<stop  offset="1" style="stop-color:#37475E"/>
		</linearGradient>
		<path style="fill:url(#SVGID_00000150090316767655799850000002471292395279222704_);" d="M85.1,127l0.3,11.6c0,0,0,0,0,0
			c17.9,5.1,43.5-10.1,47.5-17.9c0,0,0-0.1,0-0.1c0.8-5.3,2-11.9,2.3-16.9c0.1-1-1.1-1.6-2-1.1c-13.8,9.5-26.9,13.7-43.4,14.7
			C84.5,117.7,85,121.5,85.1,127z"/>
		
			<linearGradient id="SVGID_00000076563392639589556830000016833095632032050613_" gradientUnits="userSpaceOnUse" x1="287.0744" y1="468.7805" x2="287.0744" y2="461.0909" gradientTransform="matrix(-0.342 -0.9397 -0.9397 0.342 612.5055 240.4769)">
			<stop  offset="0.3111" style="stop-color:#000000"/>
			<stop  offset="1" style="stop-color:#37475E"/>
		</linearGradient>
		<path style="fill:url(#SVGID_00000076563392639589556830000016833095632032050613_);" d="M77.1,120.5l-4.8,1.7
			c-0.8,0.3-1.3,1.2-1,2.1l4.9,13.5c0.3,0.8,1.2,1.3,2.1,1l0.3-0.1c0.7-0.2,1.1-0.8,1-1.5l-0.4-15.3
			C79.2,120.9,78.1,120.1,77.1,120.5z"/>
		<path d="M132.8,120.7c-15.6,13.3-31.5,17-47.5,17.9c0,0,0,0,0,0c0.5,0.2,9.9,3.7,26.5-3c17.1-6.9,21.1-15,21.1-15
			C132.9,120.6,132.9,120.7,132.8,120.7z"/>
		<path d="M77.7,160.1l-0.2,0.1l-0.7,0.6l-0.3,0.3l-0.4,0.4c32.1-1.8,51.3-18.4,52.1-19.2c-0.2,0.2-0.5,0.3-0.7,0.5
			c0,0-0.1,0.1-0.1,0.1c-5.2,3.4-10.4,6.1-15.3,8.2c-5.4,2.4-10.6,4.2-15.4,5.5c-6.8,1.9-12.9,2.8-18.1,3.3
			C78.3,160,78,160,77.7,160.1z"/>
		<path d="M112.9,149.6l-0.1,0.2C112.9,149.7,112.9,149.7,112.9,149.6z"/>
		<path d="M95.7,154.8l0.9,1.9l0.2,0.3l0.1,0.1l14.9-5.4l0.1-0.2l0.2-0.4l0-0.1l0.7-1.3C111.6,150.9,99.6,154.9,95.7,154.8z"/>
		<path class="st9" d="M48.2,38.5L48.2,38.5C48.2,38.5,48.2,38.5,48.2,38.5C48.2,38.5,48.2,38.5,48.2,38.5z"/>
		<path class="st9" d="M49.2,37.8c0,0-0.1,0.1-0.1,0.1c-0.1,0.1-0.2,0.1-0.3,0.2l-0.2,0.2c-0.1,0-0.1,0.1-0.2,0.1c0,0,0,0-0.1,0.1
			L49.2,37.8z"/>
	</g>
</g>
</svg>
