<?xml version="1.0" encoding="utf-8"?>
<!-- Generator: Adobe Illustrator 25.4.1, SVG Export Plug-In . SVG Version: 6.00 Build 0)  -->
<svg version="1.1" id="Layer_1" xmlns="http://www.w3.org/2000/svg" xmlns:xlink="http://www.w3.org/1999/xlink" x="0px" y="0px"
	 viewBox="0 0 168 168" style="enable-background:new 0 0 168 168;" xml:space="preserve">
<style type="text/css">
	.st0{opacity:0.2;fill:#151110;enable-background:new    ;}
	.st1{fill:url(#SVGID_1_);}
	.st2{fill:#FFFFFF;}
	.st3{fill:#C00D0D;}
	.st4{fill:#151110;}
	.st5{fill:url(#SVGID_00000064311748471856266620000018027553718380500361_);}
	.st6{fill:url(#SVGID_00000065073756840843555360000005999849147938531491_);}
	.st7{fill:none;stroke:#A03394;stroke-width:9;stroke-miterlimit:10;}
	.st8{fill:url(#SVGID_00000177445080441240531370000002031640045227230623_);}
	.st9{fill:#F0F0F0;}
	.st10{fill:url(#SVGID_00000088115005334880114810000015551976248601469369_);}
	.st11{fill:url(#SVGID_00000090289992065425316530000004563591230375937211_);}
	.st12{fill:url(#SVGID_00000034808524940571009820000012477142173844159108_);}
	.st13{fill:url(#SVGID_00000163777772750240390370000000364954598615632523_);}
	.st14{fill:url(#SVGID_00000030446147701627885600000009417554867274649521_);}
	.st15{fill:url(#SVGID_00000147900754535507136450000011118934853027500720_);}
	.st16{fill:url(#SVGID_00000090989164284058700480000012323036548889176753_);}
	.st17{fill:url(#SVGID_00000003098497726087928700000013469623358607853212_);}
	.st18{fill:url(#SVGID_00000008827888274170758350000000397518599451109786_);}
	.st19{fill:url(#SVGID_00000083793100931304721960000006244521715985426593_);}
	.st20{fill:url(#SVGID_00000032620839083103178970000002456448717865552771_);}
	.st21{fill:url(#SVGID_00000183931569157271155400000016905375455866219432_);}
	.st22{fill:url(#SVGID_00000030468819005123877820000012111188685006165182_);}
	.st23{fill:url(#SVGID_00000152221868839642125720000011814584951753705867_);}
	.st24{fill:url(#SVGID_00000034064147317104021630000006591818442520292020_);}
	.st25{fill:url(#SVGID_00000140735305653155731050000004578463527636967057_);}
	.st26{fill:url(#SVGID_00000029015096606213493530000010784363241635431820_);}
	.st27{fill:url(#SVGID_00000179607013934823151830000017722268876473457074_);}
	.st28{fill:url(#SVGID_00000103967283757992164130000016037194351144600971_);}
	.st29{fill:url(#SVGID_00000181778708582385825110000011434547794016315043_);}
	.st30{fill:url(#SVGID_00000003077766343457044790000011721641429258931333_);}
	.st31{fill:url(#SVGID_00000036974067411729622760000012724736036178622611_);}
	.st32{fill:url(#SVGID_00000029750026602736080950000009676394253851468688_);}
	.st33{fill:url(#SVGID_00000173866174351531585130000011164044123796381056_);}
	.st34{fill:url(#SVGID_00000098219764833925107320000017933426822297449400_);}
	.st35{fill:url(#SVGID_00000175291474603320856690000013766513848608267688_);}
	.st36{fill:url(#SVGID_00000082336841941750094270000002742096252676451762_);}
	.st37{fill:url(#SVGID_00000013191885690745506820000018369910783584144545_);}
	.st38{fill:url(#SVGID_00000164514755407494015080000006015549124173962670_);}
	.st39{fill:url(#SVGID_00000181775593659729614610000002853211583710380441_);}
	.st40{fill:url(#SVGID_00000120535932102842341630000005089937529620314522_);}
	.st41{fill:url(#SVGID_00000108280652280613222810000003728188383007829682_);}
	.st42{fill:url(#SVGID_00000149355301606588412150000004248196484534475408_);}
	.st43{fill:url(#SVGID_00000054965063076599210270000006892309866584797343_);}
	.st44{fill:url(#SVGID_00000173861374658799615860000006592260457938538390_);}
	.st45{fill:url(#SVGID_00000006695166549416588850000007882031989180258461_);}
	.st46{fill:url(#SVGID_00000091705031205402461370000007854548459841270429_);}
	.st47{fill:url(#SVGID_00000089576498418415655150000013348787540506067618_);}
	.st48{fill:url(#SVGID_00000109749306814002058180000008369941621980367529_);}
	.st49{fill:url(#SVGID_00000056407334721427303480000016545990906947024280_);}
	.st50{fill:url(#SVGID_00000031183997941378666700000009841382326793175939_);}
	.st51{fill:url(#SVGID_00000137101786145340478930000005715539623451174809_);}
	.st52{fill:url(#SVGID_00000046322496566192611100000006220851746191520666_);}
	.st53{fill:url(#SVGID_00000155863516961208661010000004195503151578574520_);}
	.st54{fill:url(#SVGID_00000023246195598465100060000010709445022087186591_);}
	.st55{fill:url(#SVGID_00000145767485341600485570000006008671294487797418_);}
	.st56{fill:url(#SVGID_00000054954730548426558730000000053788918764155526_);}
	.st57{fill:url(#SVGID_00000162337432822669846940000001585544003737574809_);}
	.st58{fill:url(#SVGID_00000162320691943000573080000013147055007961981622_);}
	.st59{fill:url(#SVGID_00000177458904506769464810000010066609071820131990_);}
	.st60{fill:url(#SVGID_00000150102062015728954300000010909165996604653756_);}
	.st61{fill:url(#SVGID_00000132807202387914855860000005487416541244802228_);}
	.st62{fill:url(#SVGID_00000173140186191850977270000006552246436949165706_);}
	.st63{fill:url(#SVGID_00000089541804595663402640000004881787900065112490_);}
	.st64{fill:url(#SVGID_00000146501235243803718780000011921747732096553649_);}
	.st65{fill:url(#SVGID_00000037655164615963708460000004274813475046051775_);}
	.st66{fill:url(#SVGID_00000102537228130650939590000000411274804216458655_);}
	.st67{fill:url(#SVGID_00000162327433949604381200000005662940891438280107_);}
	.st68{fill:url(#SVGID_00000031888948451190846230000018346928227076015537_);}
	.st69{fill:url(#SVGID_00000016784973715024553380000001139446127602069383_);}
	.st70{fill:url(#SVGID_00000158007932581115128020000004587646192936175240_);}
	.st71{fill:url(#SVGID_00000077302753177717720630000010010399307939182988_);}
	.st72{fill:url(#SVGID_00000168815456330187339110000001768065831659005063_);}
	.st73{fill:url(#SVGID_00000090981157991837755470000008647574719781739136_);}
	.st74{fill:url(#SVGID_00000099636083515159093110000008839018557348535738_);}
	.st75{fill:url(#SVGID_00000078763888167456742640000008384217755788787849_);}
	.st76{fill:url(#SVGID_00000119805764837941068780000006846675770738398384_);}
	.st77{fill:url(#SVGID_00000142859884322057789970000000140732049593802390_);}
	.st78{fill:url(#SVGID_00000057112770237595469250000007710026001503659164_);}
	.st79{fill:url(#SVGID_00000072982676874011595510000003484623945343275670_);}
	.st80{fill:url(#SVGID_00000150782258463486200730000008120969801253973930_);}
	.st81{fill:url(#SVGID_00000123418978906026858120000001815161811528446909_);}
	.st82{fill:url(#SVGID_00000131369185671023067180000003497309333371378865_);}
	.st83{fill:url(#SVGID_00000042729794159808414800000002426352521570268054_);}
	.st84{fill:url(#SVGID_00000047047612664174190700000002196971224377688239_);}
	.st85{fill:url(#SVGID_00000037668818384482846170000001600387080398589610_);}
	.st86{fill:url(#SVGID_00000108997901615060838890000003258303530873915324_);}
	.st87{fill:url(#SVGID_00000110440069745767210880000005884596637585418373_);}
	.st88{fill:url(#SVGID_00000122700958900028160950000014340195672425049787_);}
	.st89{fill:url(#SVGID_00000166637046805426726430000001317664297192899461_);}
	.st90{fill:url(#SVGID_00000113319614693764043640000003483951105814167965_);}
	.st91{fill:url(#SVGID_00000178927675843253567900000002482215040107352719_);}
	.st92{fill:url(#SVGID_00000041264329392404154720000006229742186880165552_);}
	.st93{fill:url(#SVGID_00000099645513107075456250000007619089868119069374_);}
	.st94{fill:url(#SVGID_00000162339056515126062390000002704872384291466915_);}
	.st95{fill:url(#SVGID_00000161630378807727132350000013521386335977115289_);}
	.st96{fill:url(#SVGID_00000057870534396625312560000015909643537969547930_);}
	.st97{fill:url(#SVGID_00000132070312791476079460000016501882998993039520_);}
	.st98{fill:url(#SVGID_00000078034996059637519640000000603639764996424590_);}
	.st99{fill:url(#SVGID_00000170975114570137294660000008491644674381528463_);}
	.st100{fill:url(#SVGID_00000108267386864624951450000014903846714504834225_);}
	.st101{fill:url(#SVGID_00000052079856130815804340000014326635544696289186_);}
	.st102{fill:url(#SVGID_00000162338815694596908290000009848058218037300408_);}
	.st103{fill:url(#SVGID_00000168111884191627918410000003783096734597651359_);}
	.st104{fill:url(#SVGID_00000026878207394033042810000015402935937068560286_);}
	.st105{fill:url(#SVGID_00000042735604321811758100000009367192978281591464_);}
	.st106{fill:url(#SVGID_00000171719631850542276080000010673625689090346413_);}
	.st107{fill:url(#SVGID_00000096746994440790281700000006854137047386558894_);}
	.st108{fill:url(#SVGID_00000140737315248151621650000004504019814806046125_);}
	.st109{fill:url(#SVGID_00000047023954742231673470000015862886653022998954_);}
	.st110{fill:url(#SVGID_00000051355525270500694770000010104027911181387453_);}
	.st111{fill:url(#SVGID_00000176736531634258276740000000958614307888184498_);}
	.st112{fill:url(#SVGID_00000055702324032604466430000017583694890105738144_);}
	.st113{fill:url(#SVGID_00000083065654789552867220000011188989297049477801_);}
	.st114{fill:url(#SVGID_00000103943185126889508010000017096750254091508664_);}
	.st115{fill:url(#SVGID_00000081638396444565226800000011176236031526969493_);}
	.st116{fill:url(#SVGID_00000176760502754058965210000002833344232322757301_);}
	.st117{fill:url(#SVGID_00000056421107801720207240000009680994204677796737_);}
	.st118{fill:url(#SVGID_00000101067529208462461910000008043091937146205573_);}
	.st119{fill:url(#SVGID_00000070102980061841807090000009822629570258745022_);}
	.st120{fill:url(#SVGID_00000009569839270621331600000010639881971121568168_);}
	.st121{fill:url(#SVGID_00000179622775428485177850000013357349648669015965_);}
	.st122{fill:url(#SVGID_00000128469428746232019240000008622174519761855652_);}
	.st123{fill:url(#SVGID_00000176751021252745438540000017944676772592108968_);}
	.st124{fill:url(#SVGID_00000047764190667353163190000010160713335848595085_);}
	.st125{fill:url(#SVGID_00000011032993417042213050000017151187541652151186_);}
	.st126{fill:url(#SVGID_00000043430824957911101060000007740116843020616065_);}
	.st127{fill:url(#SVGID_00000026122983703506810180000013265577398431077004_);}
	.st128{fill:url(#SVGID_00000140697514984204180000000011876079015947624593_);}
	.st129{fill:url(#SVGID_00000052083101470330570790000000257395035272562091_);}
	.st130{fill:url(#SVGID_00000140732828985076969090000013458573666400403594_);}
	.st131{fill:url(#SVGID_00000172434552252407895360000014409183658290435740_);}
	.st132{fill:url(#SVGID_00000016755264600980272200000005056323421523126448_);}
	.st133{fill:url(#SVGID_00000065778690357472903140000005151622029730984620_);}
	.st134{fill:url(#SVGID_00000051367751090282907210000009604480380257628055_);}
	.st135{fill:url(#SVGID_00000051360370225918430780000003756194929882940579_);}
	.st136{fill:url(#SVGID_00000080188268372585786720000009817716319493961384_);}
	.st137{fill:url(#SVGID_00000116205061656967575660000007849455134291015830_);}
	.st138{fill:url(#SVGID_00000142868561976927167550000006726710565484171415_);}
	.st139{fill:url(#SVGID_00000164477207343874315470000011029303761549698962_);}
	.st140{fill:url(#SVGID_00000087373792881732069710000001502770494644208513_);}
	.st141{fill:url(#SVGID_00000132062430296228417560000001617735463607220109_);}
	.st142{fill:url(#SVGID_00000034773404543055967670000006884660810263004080_);}
	.st143{fill:url(#SVGID_00000087399769817794518930000004117371652821128070_);}
	.st144{fill:url(#SVGID_00000149339991157890490360000016288757663429814671_);}
	.st145{fill:url(#SVGID_00000156567601015572583880000016878817583165690299_);}
	.st146{fill:url(#SVGID_00000183221049120606378350000003744453520939037321_);}
	.st147{fill:url(#SVGID_00000015317638921878539890000000044836504628339085_);}
	.st148{fill:url(#SVGID_00000130605225540290731880000007854792678158705297_);}
	.st149{fill:url(#SVGID_00000168817428852955095720000004068888626445558424_);}
</style>
<g>
	<path class="st0" d="M61.2,31.7c-0.5,0.1-1,0.3-1.4,0.5l0,0L36.6,43.4l0.8,11.3L57.3,161c0,0.2,0.1,0.4,0.2,0.5l0.1,0.8l-0.1,0
		c32.6,4,54.7-9.8,54.7-9.8c-0.3,0.2-0.6,0.2-0.9,0.4c0.3-0.2,0.6-0.2,0.9-0.4l9.5-22.1l6-18.6l-1.2-6.6l-0.5-2.6l-13.1-74.5
		c-0.5-3-3.3-4.9-6.3-4.4L61.2,31.7L61.2,31.7z"/>
	
		<linearGradient id="SVGID_1_" gradientUnits="userSpaceOnUse" x1="321.2206" y1="-114.4055" x2="321.499" y2="-149.4788" gradientTransform="matrix(-0.1736 -0.9848 -0.9848 0.1736 -4.5301 432.9985)">
		<stop  offset="0" style="stop-color:#5C5C5C"/>
		<stop  offset="0.1042" style="stop-color:#979797"/>
	</linearGradient>
	<path class="st1" d="M65.2,29.7l-6.4,3.2c-0.1,0.1-0.2,0.1-0.3,0.2l-0.3,0.1c-0.1,0-0.2,0.1-0.2,0.1l-0.1,0.1l-9.3,4.5l-3.8,1.9
		L44,40.1l-0.8,0.4l0.8,11.3l0.7,3.5l1.1,5.8c0,0,0,0,0,0l1.6,8.7l1.1,5.8l10.4,55.7l1,5.6l1.8,9.4l1,5.6l1.1,6.1l0,0
		c0.1,0.4,0.3,0.7,0.7,0.9c0.1,0.1,0.2,0.1,0.4,0.1c0.2,0,0.3,0,0.5,0c0.1,0,0.2,0,0.3-0.1c0,0,0.1,0,0.1-0.1c0,0,0,0,0,0
		c0.1,0,0.1-0.1,0.2-0.1c0.2-0.2,0.5-0.4,0.7-0.6c4.7-4.2,6.6-9.9,7.4-16.3l3.7-24.7l-1.5-8.4l-13-73.9c0-0.1,0-0.2,0-0.3l0,0
		c0-0.1-0.1-0.2-0.1-0.4c-0.4-2.5-2.7-2-4.1-1.4l6.1-2.9C65,29.8,65.1,29.8,65.2,29.7z"/>
	<g>
		<path class="st2" d="M102.2,153.9l-0.1,0.2C102.2,154,102.2,154,102.2,153.9z"/>
		<path class="st2" d="M78.8,126.8L77,138.3c0,0,0,0,0,0c0.5,0.3,9.1,5.4,26.6,1.7c18-3.8,23.4-11.1,23.4-11.1
			c-0.1,0-0.1,0.1-0.2,0.1c0,0,0,0,0.1-0.1c1.7-5.1,4-11.4,5.2-16.2c0.2-1-0.8-1.8-1.8-1.4c-15.2,6.9-28.9,8.9-45.3,7
			C79.8,117.6,79.6,121.5,78.8,126.8z"/>
		<polygon class="st3" points="48.5,37.7 43.9,39.9 44.3,42 48.9,39.8 		"/>
		<polygon class="st4" points="44.7,39.5 65.7,159 64,159.3 43.1,40.4 		"/>
		
			<ellipse transform="matrix(0.9848 -0.1736 0.1736 0.9848 -23.6805 12.6862)" class="st4" cx="60.7" cy="141.7" rx="4.4" ry="10.5"/>
		<ellipse transform="matrix(0.9848 -0.1736 0.1736 0.9848 -23.6805 12.6862)" class="st2" cx="60.7" cy="141.7" rx="2" ry="4.8"/>
		<ellipse transform="matrix(0.9848 -0.1736 0.1736 0.9848 -10.6317 9.1898)" class="st4" cx="47.2" cy="65.4" rx="4.4" ry="10.5"/>
		<ellipse transform="matrix(0.9848 -0.1736 0.1736 0.9848 -10.6317 9.1898)" class="st2" cx="47.2" cy="65.4" rx="2" ry="4.8"/>
		
			<linearGradient id="SVGID_00000111156358581835422680000006642368197245684381_" gradientUnits="userSpaceOnUse" x1="344.3113" y1="468.9493" x2="344.3113" y2="460.6971" gradientTransform="matrix(-0.1736 -0.9848 -0.9848 0.1736 578.4761 330.1988)">
			<stop  offset="0.3111" style="stop-color:#000000"/>
			<stop  offset="1" style="stop-color:#37475E"/>
		</linearGradient>
		<path style="fill:url(#SVGID_00000111156358581835422680000006642368197245684381_);" d="M69.5,106.4l-4,0.7
			c-1.3,0.2-2.5-0.5-2.7-1.7L51.4,41.4c-0.2-1.2,0.1-1.9,1.6-2.8l4.1-2c1.7-0.7,2.5,0.5,2.7,1.7l11.6,65.8
			C71.7,105.1,70.8,106.2,69.5,106.4z"/>
		<path class="st2" d="M119.3,25.1l14.7,83.6l-6,18.6l-9.5,22.1c0,0,0,0,0,0c-0.3,0.1-0.5,0.2-0.8,0.3c0,0-0.1,0-0.1,0.1
			c-5.7,2.4-11.2,4.2-16.5,5.5l0-0.1l0.9-1.1c0.1-0.1,0.1-0.1,0.1-0.2l-0.1,0.2c-1.3,0.9-13.9,2.7-17.7,2l0.6,2
			c-7,0.7-13.2,0.5-18.4,0.1c4.7-4.2,6.6-9.9,7.4-16.3l3.7-24.7L63.2,34.9c0-0.1,0-0.2,0-0.3l0,0c0-0.1-0.1-0.2-0.1-0.4
			c-0.4-2.5-2.7-2-4.1-1.4l6.1-2.9c0.1-0.1,0.1-0.1,0.2-0.2c0.7-0.5,1.5-0.9,2.4-1l45.5-8C115.9,20.2,118.8,22.2,119.3,25.1z
			 M78.8,126.8L77,138.3c0,0,0,0,0,0c0.5,0.3,9.1,5.4,26.6,1.7c18-3.8,23.4-11.1,23.4-11.1c-0.1,0-0.1,0.1-0.2,0.1c0,0,0,0,0.1-0.1
			c1.7-5.1,4-11.4,5.2-16.2c0.2-1-0.8-1.8-1.8-1.4c-15.2,6.9-28.9,8.9-45.3,7C79.8,117.6,79.6,121.5,78.8,126.8z"/>
		
			<linearGradient id="SVGID_00000149374724047400534030000009029953964912499134_" gradientUnits="userSpaceOnUse" x1="287.3291" y1="-160.9778" x2="275.5483" y2="-160.6443" gradientTransform="matrix(-0.1736 -0.9848 -0.9848 0.1736 -4.5301 432.9985)">
			<stop  offset="0.3111" style="stop-color:#000000"/>
			<stop  offset="1" style="stop-color:#37475E"/>
		</linearGradient>
		<path style="fill:url(#SVGID_00000149374724047400534030000009029953964912499134_);" d="M78.8,126.8L77,138.3c0,0,0,0,0,0
			c16.7,8.2,44.6-2.4,49.8-9.4c0,0,0,0,0.1-0.1c1.7-5.1,4-11.4,5.2-16.2c0.2-1-0.8-1.8-1.8-1.4c-15.2,6.9-28.9,8.9-45.3,7
			C79.8,117.6,79.6,121.5,78.8,126.8z"/>
		
			<linearGradient id="SVGID_00000085214146224574140580000006295150754045965991_" gradientUnits="userSpaceOnUse" x1="287.0744" y1="468.7805" x2="287.0744" y2="461.0909" gradientTransform="matrix(-0.1736 -0.9848 -0.9848 0.1736 578.4761 330.1988)">
			<stop  offset="0.3111" style="stop-color:#000000"/>
			<stop  offset="1" style="stop-color:#37475E"/>
		</linearGradient>
		<path style="fill:url(#SVGID_00000085214146224574140580000006295150754045965991_);" d="M72,119.1l-5,0.9c-0.9,0.2-1.5,1-1.3,1.9
			l2.5,14.2c0.2,0.9,1,1.5,1.9,1.3l0.3-0.1c0.7-0.1,1.2-0.6,1.3-1.3l2.2-15.1C74.1,119.8,73.1,118.9,72,119.1z"/>
		<path d="M126.9,128.9c-17.7,10.4-33.9,11.3-49.9,9.3c0,0,0,0,0,0c0.5,0.3,9.1,5.4,26.6,1.7c18-3.8,23.4-11.1,23.4-11.1
			C127,128.9,126.9,128.9,126.9,128.9z"/>
		<path d="M65.8,158.1l-0.2,0.1l-0.8,0.5l-0.4,0.2l-0.5,0.3c31.9,3.8,53.7-9.3,54.6-9.8c-0.3,0.1-0.5,0.2-0.8,0.3c0,0-0.1,0-0.1,0.1
			c-5.7,2.4-11.2,4.2-16.5,5.5c-5.8,1.5-11.2,2.3-16.2,2.8c-7,0.7-13.2,0.5-18.4,0.1C66.4,158.2,66.1,158.2,65.8,158.1z"/>
		<path d="M102.2,153.9l-0.1,0.2C102.2,154,102.2,154,102.2,153.9z"/>
		<path d="M84.4,156.1l0.6,2l0.1,0.3l0,0.1l15.7-2.8l0.1-0.2l0.2-0.3l0-0.1l0.9-1.1C100.8,155,88.2,156.8,84.4,156.1z"/>
		<path class="st9" d="M57.8,33.3L57.8,33.3C57.8,33.3,57.8,33.3,57.8,33.3C57.8,33.3,57.8,33.3,57.8,33.3z"/>
		<path class="st9" d="M58.9,32.8c0,0-0.1,0-0.1,0.1c-0.1,0.1-0.2,0.1-0.3,0.2l-0.3,0.1c-0.1,0-0.2,0.1-0.2,0.1c0,0,0,0-0.1,0
			L58.9,32.8z"/>
	</g>
</g>
</svg>
