<?xml version="1.0" encoding="utf-8"?>
<!-- Generator: Adobe Illustrator 25.4.1, SVG Export Plug-In . SVG Version: 6.00 Build 0)  -->
<svg version="1.1" id="Layer_1" xmlns="http://www.w3.org/2000/svg" xmlns:xlink="http://www.w3.org/1999/xlink" x="0px" y="0px"
	 viewBox="0 0 168 168" style="enable-background:new 0 0 168 168;" xml:space="preserve">
<style type="text/css">
	.st0{opacity:0.2;fill:#151110;enable-background:new    ;}
	.st1{fill:url(#SVGID_1_);}
	.st2{fill:#FFFFFF;}
	.st3{fill:#C00D0D;}
	.st4{fill:#151110;}
	.st5{fill:url(#SVGID_00000029723917386424387170000014070796706418431137_);}
	.st6{fill:url(#SVGID_00000052825066298389135210000007077224090176987326_);}
	.st7{fill:none;stroke:#A03394;stroke-width:9;stroke-miterlimit:10;}
	.st8{fill:url(#SVGID_00000004519121982747246250000005597106513731004807_);}
	.st9{fill:#F0F0F0;}
	.st10{fill:url(#SVGID_00000164479404838942217490000004668609739816882061_);}
	.st11{fill:url(#SVGID_00000105389915940634180780000012139798479925731464_);}
	.st12{fill:url(#SVGID_00000095321906417006084820000016059919117369394843_);}
	.st13{fill:url(#SVGID_00000095298214600708777730000001831624384532841903_);}
	.st14{fill:url(#SVGID_00000029028760593868363900000008621481055191773104_);}
	.st15{fill:url(#SVGID_00000099623241086919725870000012928779268673654952_);}
	.st16{fill:url(#SVGID_00000140711865190092873600000006871051547922426302_);}
	.st17{fill:url(#SVGID_00000132068488546735395110000017493545746617906852_);}
	.st18{fill:url(#SVGID_00000149368778322975017340000015758029140990775464_);}
	.st19{fill:url(#SVGID_00000162344198461676566000000008164836153419824028_);}
	.st20{fill:url(#SVGID_00000145743921144722319980000009614721361817439142_);}
	.st21{fill:url(#SVGID_00000046339800607366289710000003395344002911181475_);}
	.st22{fill:url(#SVGID_00000046299264845321929190000012905446788558484121_);}
	.st23{fill:url(#SVGID_00000093880909822269201420000000722851035300749705_);}
	.st24{fill:url(#SVGID_00000121974937210586917290000001991625810577052603_);}
	.st25{fill:url(#SVGID_00000103254109137216984460000008665622698742315453_);}
	.st26{fill:url(#SVGID_00000050623306938220178810000013162363541779426700_);}
	.st27{fill:url(#SVGID_00000178907825701911497470000012830481837213526149_);}
	.st28{fill:url(#SVGID_00000063592002517398053560000002709338513759812225_);}
	.st29{fill:url(#SVGID_00000177483909041888570620000007664073488168736940_);}
	.st30{fill:url(#SVGID_00000084492938871390475110000003284797574416885404_);}
	.st31{fill:url(#SVGID_00000165952735715495265300000009212449797328742811_);}
	.st32{fill:url(#SVGID_00000124864340519553062070000007116094246266450836_);}
	.st33{fill:url(#SVGID_00000018206004152302292680000000402573875771099273_);}
	.st34{fill:url(#SVGID_00000145747947710385088670000004151794876219355548_);}
	.st35{fill:url(#SVGID_00000014611171794716262720000000537523727497682593_);}
	.st36{fill:url(#SVGID_00000062874838247246375040000002291962558485135547_);}
	.st37{fill:url(#SVGID_00000060017768132956726230000013737560399456175546_);}
	.st38{fill:url(#SVGID_00000129899318961760162690000002736388519487547323_);}
	.st39{fill:url(#SVGID_00000061454137368012302800000015689403781229683871_);}
	.st40{fill:url(#SVGID_00000067202856779167288770000001957005184937153424_);}
	.st41{fill:url(#SVGID_00000157302608537534934040000015982302358300438204_);}
	.st42{fill:url(#SVGID_00000093868669493938820120000012788401523843227309_);}
	.st43{fill:url(#SVGID_00000029025753823232741560000005766108306569199543_);}
	.st44{fill:url(#SVGID_00000183933614406641119550000016766862206491288498_);}
	.st45{fill:url(#SVGID_00000091706727401013565680000001252984070332241043_);}
	.st46{fill:url(#SVGID_00000130608661468608330980000016814056905196127370_);}
	.st47{fill:url(#SVGID_00000047780471451762116710000000174821531168030397_);}
	.st48{fill:url(#SVGID_00000029762222515801956040000006248008329485511057_);}
	.st49{fill:url(#SVGID_00000121239462071105995680000003490377140385380795_);}
	.st50{fill:url(#SVGID_00000161626346716472638610000005128259667750366393_);}
	.st51{fill:url(#SVGID_00000128457402027454336390000014674853031081129348_);}
	.st52{fill:url(#SVGID_00000080203246122904017510000008032987047361932427_);}
	.st53{fill:url(#SVGID_00000054962691159094091500000016259711501287990440_);}
	.st54{fill:url(#SVGID_00000108270755993271562740000013916924933424707729_);}
	.st55{fill:url(#SVGID_00000168077708536964752040000002416151059075629232_);}
	.st56{fill:url(#SVGID_00000085937904324448229860000001719010954601605013_);}
	.st57{fill:url(#SVGID_00000070821020077729430510000002092865758075877266_);}
	.st58{fill:url(#SVGID_00000029047537785859457290000017075535355427274681_);}
	.st59{fill:url(#SVGID_00000060725812568438925580000000096434545925734840_);}
	.st60{fill:url(#SVGID_00000090266356658202771910000000583970560597569946_);}
	.st61{fill:url(#SVGID_00000178202484612296284680000000255958075860507577_);}
	.st62{fill:url(#SVGID_00000078042427629159072540000000731880549798143677_);}
	.st63{fill:url(#SVGID_00000052812640075240607340000003734949395146213267_);}
	.st64{fill:url(#SVGID_00000084532089912830181760000011987585278258573469_);}
	.st65{fill:url(#SVGID_00000134929142367637000040000001329104881805886860_);}
	.st66{fill:url(#SVGID_00000104687889901426422660000012582841001943424391_);}
	.st67{fill:url(#SVGID_00000072263947384789476320000010392794707730302136_);}
	.st68{fill:url(#SVGID_00000150092796605373885660000002410383474899017094_);}
	.st69{fill:url(#SVGID_00000165228570520756069050000006555737295575028642_);}
	.st70{fill:url(#SVGID_00000166670948387410079620000016413995860431525253_);}
	.st71{fill:url(#SVGID_00000075161449562609088700000010704389937932354728_);}
	.st72{fill:url(#SVGID_00000173119325963786172240000001397341290790534790_);}
	.st73{fill:url(#SVGID_00000025413280673496175770000003519408527981476767_);}
	.st74{fill:url(#SVGID_00000029015730832262399020000012729500248200350596_);}
	.st75{fill:url(#SVGID_00000029729820257614990800000016193782666743905966_);}
	.st76{fill:url(#SVGID_00000162347492699082216600000011686042740223828880_);}
	.st77{fill:url(#SVGID_00000019653274529273116430000000798320131992540562_);}
	.st78{fill:url(#SVGID_00000067225944005322603280000010300093159519506582_);}
	.st79{fill:url(#SVGID_00000003071926907811561340000017202047608347947905_);}
	.st80{fill:url(#SVGID_00000110442828764176558830000014373448409035734698_);}
	.st81{fill:url(#SVGID_00000000210203304907027540000017226387042737864345_);}
	.st82{fill:url(#SVGID_00000000943402340847779130000017578142973057036931_);}
	.st83{fill:url(#SVGID_00000021801548294648976920000010465282721208677276_);}
	.st84{fill:url(#SVGID_00000129193568146449315200000014246564388263212206_);}
	.st85{fill:url(#SVGID_00000182492630313440509410000011581345029500257974_);}
	.st86{fill:url(#SVGID_00000164480420611892260500000001355077714025512122_);}
	.st87{fill:url(#SVGID_00000115496163658001265080000002004313932351075750_);}
	.st88{fill:url(#SVGID_00000048463178130693501500000002490454709510266261_);}
	.st89{fill:url(#SVGID_00000168832725192899412740000003217150522373478331_);}
	.st90{fill:url(#SVGID_00000151541205727406174930000004956126238863996325_);}
	.st91{fill:url(#SVGID_00000075137109765311822010000012732030459246029994_);}
	.st92{fill:url(#SVGID_00000162324993578237198510000013356959762435396533_);}
	.st93{fill:url(#SVGID_00000145045782022032080520000014672311085568158903_);}
	.st94{fill:url(#SVGID_00000092433223008783538460000004850127774864060803_);}
	.st95{fill:url(#SVGID_00000153697753965598585920000018395639471631590069_);}
	.st96{fill:url(#SVGID_00000111170157419434308870000006930160193849592765_);}
	.st97{fill:url(#SVGID_00000174582955262017328560000003967155088620017555_);}
	.st98{fill:url(#SVGID_00000129918042894940866710000012896241803587126941_);}
	.st99{fill:url(#SVGID_00000150821454158609184030000008700152196626560130_);}
	.st100{fill:url(#SVGID_00000170991441582599718870000003386311933066705792_);}
	.st101{fill:url(#SVGID_00000044142565152937366370000009624999972504684473_);}
	.st102{fill:url(#SVGID_00000038374084988702119880000014889306068271682457_);}
	.st103{fill:url(#SVGID_00000023262619970519906920000016726930843576967605_);}
	.st104{fill:url(#SVGID_00000084507576923131716700000012958486346933392531_);}
	.st105{fill:url(#SVGID_00000134940222241408606870000011678665825488586892_);}
	.st106{fill:url(#SVGID_00000031930404110193826320000013096030487183514045_);}
	.st107{fill:url(#SVGID_00000072271433726133653940000017391269258281438896_);}
	.st108{fill:url(#SVGID_00000023996902804247326450000014097886788781773495_);}
	.st109{fill:url(#SVGID_00000083083509918623148110000015201593820464348570_);}
	.st110{fill:url(#SVGID_00000051381332677499718200000000112091877939978415_);}
	.st111{fill:url(#SVGID_00000034797963660258687310000017172213503602750868_);}
	.st112{fill:url(#SVGID_00000027570083845145115850000010761435998312894129_);}
	.st113{fill:url(#SVGID_00000036950923319198205000000006462998169485940398_);}
	.st114{fill:url(#SVGID_00000126291362732931678860000012161967903071360145_);}
	.st115{fill:url(#SVGID_00000086684197789439686590000012648774441413622413_);}
	.st116{fill:url(#SVGID_00000004519429211846695080000001661113293652944804_);}
	.st117{fill:url(#SVGID_00000021833156434178074870000003836099010007822213_);}
	.st118{fill:url(#SVGID_00000126319426835213313710000010683328495391374991_);}
	.st119{fill:url(#SVGID_00000034086064604308745710000002462175824712481430_);}
	.st120{fill:url(#SVGID_00000140734624340829802620000014079154820251919795_);}
	.st121{fill:url(#SVGID_00000163041234315101907630000000908161126408037547_);}
	.st122{fill:url(#SVGID_00000124119762566174132290000011419918742417754274_);}
	.st123{fill:url(#SVGID_00000123432317191335835290000011192895650611590591_);}
	.st124{fill:url(#SVGID_00000031926062634004766280000003732992531292669601_);}
	.st125{fill:url(#SVGID_00000044139487849392312170000013588461815747743372_);}
	.st126{fill:url(#SVGID_00000136410151405655370550000011980906380843199623_);}
	.st127{fill:url(#SVGID_00000173122414594853926980000002955239383048017818_);}
	.st128{fill:url(#SVGID_00000013190293620105263800000002573929415292482476_);}
	.st129{fill:url(#SVGID_00000052826520832710559400000007127484021376832907_);}
	.st130{fill:url(#SVGID_00000070109665492214550690000017184662903252381604_);}
	.st131{fill:url(#SVGID_00000042738164889431224520000008901423154361656709_);}
	.st132{fill:url(#SVGID_00000102516509058599393220000017216360336103508616_);}
	.st133{fill:url(#SVGID_00000152980827432221993350000015208536622773716647_);}
	.st134{fill:url(#SVGID_00000147218175102042454240000002845722171441622692_);}
	.st135{fill:url(#SVGID_00000162328124270200571230000015840417034571033993_);}
	.st136{fill:url(#SVGID_00000101083345195160263030000018046631358533460633_);}
	.st137{fill:url(#SVGID_00000027579324908075670840000013921395780724631176_);}
	.st138{fill:url(#SVGID_00000135681244999789286840000005909058040223477412_);}
	.st139{fill:url(#SVGID_00000063593609774327743030000006509972956181463483_);}
	.st140{fill:url(#SVGID_00000022540196392813715190000017167797485000594351_);}
	.st141{fill:url(#SVGID_00000025444204341880467210000013920131005954026141_);}
	.st142{fill:url(#SVGID_00000138547888340967337540000009939022135513125283_);}
	.st143{fill:url(#SVGID_00000023248692310782238440000009856021958561603478_);}
	.st144{fill:url(#SVGID_00000142171456218614564750000004456421610464214677_);}
	.st145{fill:url(#SVGID_00000137852845423771118200000008212227968572911798_);}
	.st146{fill:url(#SVGID_00000114766240222336327840000013830855973402879160_);}
	.st147{fill:url(#SVGID_00000029764425289138914730000013293709755131316896_);}
	.st148{fill:url(#SVGID_00000087374942156142433670000015800511445459579555_);}
	.st149{fill:url(#SVGID_00000054972846953600533120000000768227125673450921_);}
</style>
<g>
	<path class="st0" d="M72,28.4c-0.5,0-1,0.1-1.5,0.2l0,0l-24.7,7l-1.2,11.3L45.7,155c0,0.2,0,0.4,0.1,0.5v0.8h-0.1
		c31.4,9.6,55.6-0.1,55.6-0.1c-0.3,0.1-0.6,0.1-0.9,0.2c0.3-0.1,0.6-0.1,0.9-0.2l13.2-20.1l9.1-17.3v-6.7v-2.6V33.8
		c0-3-2.4-5.4-5.4-5.4L72,28.4L72,28.4z"/>
	
		<linearGradient id="SVGID_1_" gradientUnits="userSpaceOnUse" x1="321.2206" y1="-114.4055" x2="321.499" y2="-149.4788" gradientTransform="matrix(-1.387779e-16 -1 -1 1.387779e-16 -62.4166 412.2089)">
		<stop  offset="0" style="stop-color:#5C5C5C"/>
		<stop  offset="0.1042" style="stop-color:#979797"/>
	</linearGradient>
	<path class="st1" d="M76.2,27.2l-6.9,2c-0.1,0-0.2,0.1-0.4,0.1l-0.3,0.1c-0.1,0-0.2,0.1-0.2,0.1l-0.1,0l-9.9,2.8l-4.1,1.2l-0.8,0.2
		l-0.9,0.3l-1.2,11.3l0,3.6l0.1,5.9c0,0,0,0,0,0l0.1,8.9l0.1,5.9l0.6,56.6l0.1,5.7l0.1,9.6l0.1,5.7l0.1,6.2v0c0,0.4,0.2,0.8,0.5,1
		c0.1,0.1,0.2,0.2,0.3,0.2c0.2,0,0.3,0.1,0.5,0.1c0.1,0,0.2,0,0.3,0c0,0,0.1,0,0.1,0c0,0,0,0,0,0c0.1,0,0.1,0,0.2-0.1
		c0.3-0.2,0.5-0.3,0.8-0.5c5.4-3.3,8.3-8.6,10.1-14.8l7.9-23.7V107v-75c0-0.1,0-0.2,0-0.3v0c0-0.1,0-0.2,0-0.4
		c0-2.5-2.3-2.4-3.8-2.1l6.5-1.8C76.1,27.2,76.2,27.2,76.2,27.2z"/>
	<g>
		<path class="st2" d="M91.2,155.9l-0.1,0.1C91.1,156,91.2,156,91.2,155.9z"/>
		<path class="st2" d="M72.8,125.1l-3.7,11c0,0,0,0,0,0c0.4,0.4,8,6.9,25.9,6.3c18.4-0.6,25-6.9,25-6.9c-0.1,0-0.1,0-0.2,0.1
			c0,0,0,0,0.1-0.1c2.6-4.7,5.9-10.5,7.9-15.1c0.4-0.9-0.5-1.9-1.5-1.7c-16.2,4.2-30,3.7-45.8-1C75.4,116.2,74.6,120,72.8,125.1z"/>
		<polygon class="st3" points="58.5,32.1 53.6,33.5 53.6,35.6 58.5,34.2 		"/>
		<polygon class="st4" points="54.4,33.2 54.4,154.5 52.6,154.5 52.7,33.8 		"/>
		<ellipse class="st4" cx="52.4" cy="136.6" rx="4.4" ry="10.5"/>
		<ellipse class="st2" cx="52.4" cy="136.6" rx="2" ry="4.8"/>
		<ellipse class="st4" cx="52.4" cy="59.1" rx="4.4" ry="10.5"/>
		<ellipse class="st2" cx="52.4" cy="59.1" rx="2" ry="4.8"/>
		
			<linearGradient id="SVGID_00000041987285957191267260000010267954831442777482_" gradientUnits="userSpaceOnUse" x1="344.3113" y1="468.9493" x2="344.3113" y2="460.6971" gradientTransform="matrix(-1.387779e-16 -1 -1 1.387779e-16 529.5834 412.2089)">
			<stop  offset="0.3111" style="stop-color:#000000"/>
			<stop  offset="1" style="stop-color:#37475E"/>
		</linearGradient>
		<path style="fill:url(#SVGID_00000041987285957191267260000010267954831442777482_);" d="M67.2,103.4h-4.1c-1.3,0-2.4-0.9-2.4-2.1
			V36.2c0-1.2,0.4-1.9,2.1-2.5l4.4-1.3c1.8-0.4,2.4,0.9,2.4,2.1v66.8C69.6,102.5,68.5,103.4,67.2,103.4z"/>
		<path class="st2" d="M130.4,32v84.9l-9.1,17.3l-13.2,20.1c0,0,0,0,0,0c-0.3,0-0.6,0.1-0.8,0.2c-0.1,0-0.1,0-0.1,0
			c-6.1,1.4-11.8,2.2-17.2,2.5L90,157l1.1-1c0.1,0,0.1-0.1,0.1-0.1l-0.1,0.1c-1.5,0.6-14.2,0.3-17.8-1.1l0.2,2.1
			c-7-0.6-13.1-1.8-18.1-3.1c5.4-3.3,8.3-8.6,10.1-14.8l7.9-23.7V31.9c0-0.1,0-0.2,0-0.3v0c0-0.1,0-0.2,0-0.4c0-2.5-2.3-2.4-3.8-2.1
			l6.5-1.8c0.1,0,0.1-0.1,0.2-0.1c0.8-0.4,1.6-0.6,2.5-0.6H125C127.9,26.6,130.4,29,130.4,32z M72.8,125.1l-3.7,11c0,0,0,0,0,0
			c0.4,0.4,8,6.9,25.9,6.3c18.4-0.6,25-6.9,25-6.9c-0.1,0-0.1,0-0.2,0.1c0,0,0,0,0.1-0.1c2.6-4.7,5.9-10.5,7.9-15.1
			c0.4-0.9-0.5-1.9-1.5-1.7c-16.2,4.2-30,3.7-45.8-1C75.4,116.2,74.6,120,72.8,125.1z"/>
		
			<linearGradient id="SVGID_00000176756862439992453960000009195646880289402770_" gradientUnits="userSpaceOnUse" x1="287.3291" y1="-160.9778" x2="275.5483" y2="-160.6443" gradientTransform="matrix(-1.387779e-16 -1 -1 1.387779e-16 -62.4166 412.2089)">
			<stop  offset="0.3111" style="stop-color:#000000"/>
			<stop  offset="1" style="stop-color:#37475E"/>
		</linearGradient>
		<path style="fill:url(#SVGID_00000176756862439992453960000009195646880289402770_);" d="M72.8,125.1l-3.7,11c0,0,0,0,0,0
			c15.1,10.9,44.4,5.4,50.7-0.6c0,0,0,0,0.1-0.1c2.6-4.7,5.9-10.5,7.9-15.1c0.4-0.9-0.5-1.9-1.5-1.7c-16.2,4.2-30,3.7-45.8-1
			C75.4,116.2,74.6,120,72.8,125.1z"/>
		
			<linearGradient id="SVGID_00000092445389036885860330000005333815717047101619_" gradientUnits="userSpaceOnUse" x1="287.0744" y1="468.7805" x2="287.0744" y2="461.0909" gradientTransform="matrix(-1.387779e-16 -1 -1 1.387779e-16 529.5834 412.2089)">
			<stop  offset="0.3111" style="stop-color:#000000"/>
			<stop  offset="1" style="stop-color:#37475E"/>
		</linearGradient>
		<path style="fill:url(#SVGID_00000092445389036885860330000005333815717047101619_);" d="M67.5,116.3h-5.1c-0.9,0-1.6,0.7-1.6,1.6
			v14.4c0,0.9,0.7,1.6,1.6,1.6h0.3c0.7,0,1.3-0.4,1.5-1.1l4.8-14.5C69.4,117.4,68.6,116.3,67.5,116.3z"/>
		<path d="M119.8,135.6c-19.2,7.1-35.4,5.2-50.7,0.5c0,0,0,0,0,0c0.4,0.4,8,6.9,25.9,6.3c18.4-0.6,25-6.9,25-6.9
			C119.9,135.6,119.9,135.6,119.8,135.6z"/>
		<path d="M54.6,153.7l-0.2,0.1l-0.9,0.4l-0.4,0.2l-0.5,0.2c30.7,9.3,54.5,0.2,55.5-0.2c-0.3,0.1-0.6,0.1-0.8,0.2
			c-0.1,0-0.1,0-0.1,0c-6.1,1.4-11.8,2.2-17.2,2.5c-5.9,0.4-11.4,0.3-16.4-0.1c-7-0.6-13.1-1.8-18.1-3.1
			C55.1,153.9,54.8,153.8,54.6,153.7z"/>
		<path d="M91.2,155.9l-0.1,0.1C91.1,156,91.2,156,91.2,155.9z"/>
		<path d="M73.3,154.9l0.2,2.1l0,0.4l0,0.2h15.9l0.2-0.2l0.3-0.3L90,157l1.1-1C89.6,156.7,76.9,156.3,73.3,154.9z"/>
		<path class="st9" d="M68.4,29.4L68.4,29.4C68.4,29.4,68.4,29.4,68.4,29.4C68.4,29.4,68.4,29.4,68.4,29.4z"/>
		<path class="st9" d="M69.5,29.1c-0.1,0-0.1,0-0.2,0c-0.1,0-0.2,0.1-0.4,0.1l-0.3,0.1c-0.1,0-0.2,0.1-0.2,0.1c0,0,0,0-0.1,0
			L69.5,29.1z"/>
	</g>
</g>
</svg>
