<?xml version="1.0" encoding="utf-8"?>
<!-- Generator: Adobe Illustrator 25.4.1, SVG Export Plug-In . SVG Version: 6.00 Build 0)  -->
<svg version="1.1" id="Layer_1" xmlns="http://www.w3.org/2000/svg" xmlns:xlink="http://www.w3.org/1999/xlink" x="0px" y="0px"
	 viewBox="0 0 168 168" style="enable-background:new 0 0 168 168;" xml:space="preserve">
<style type="text/css">
	.st0{opacity:0.2;fill:#151110;enable-background:new    ;}
	.st1{fill:url(#SVGID_1_);}
	.st2{fill:#FFFFFF;}
	.st3{fill:#C00D0D;}
	.st4{fill:#151110;}
	.st5{fill:url(#SVGID_00000105428577082212218850000018439268118973522562_);}
	.st6{fill:url(#SVGID_00000039120059998454624720000003000270705383671481_);}
	.st7{fill:none;stroke:#A03394;stroke-width:9;stroke-miterlimit:10;}
	.st8{fill:url(#SVGID_00000013883346818903607180000013177369027032297638_);}
	.st9{fill:#F0F0F0;}
	.st10{fill:url(#SVGID_00000178899405083986710200000012099242633400641191_);}
	.st11{fill:url(#SVGID_00000168099909788194084380000003652962704007139981_);}
	.st12{fill:url(#SVGID_00000000910560730638220400000006645304354420268468_);}
	.st13{fill:url(#SVGID_00000178193498748356435770000003445142837337858493_);}
	.st14{fill:url(#SVGID_00000021830950520240855870000018081272298428115372_);}
	.st15{fill:url(#SVGID_00000133516622671641217890000011023268847902267320_);}
	.st16{fill:url(#SVGID_00000160149394270130357240000003555974868172015784_);}
	.st17{fill:url(#SVGID_00000014622812409546824630000012135131626272663216_);}
	.st18{fill:url(#SVGID_00000052098301817683699320000015482211794078302093_);}
	.st19{fill:url(#SVGID_00000109001183958054915440000008104046423254866330_);}
	.st20{fill:url(#SVGID_00000081635293059681824360000008946451937558676408_);}
	.st21{fill:url(#SVGID_00000034788141177182837400000010381950893803699616_);}
	.st22{fill:url(#SVGID_00000051344618936050679690000018285491290716673712_);}
	.st23{fill:url(#SVGID_00000150782013818198687500000004961835631080825733_);}
	.st24{fill:url(#SVGID_00000026157540431425760580000016036768863269786804_);}
	.st25{fill:url(#SVGID_00000124121929840739110550000011099211685768650900_);}
	.st26{fill:url(#SVGID_00000081614635950505065750000001265970614038261177_);}
	.st27{fill:url(#SVGID_00000098934788401978142470000004652283940197831563_);}
	.st28{fill:url(#SVGID_00000093859980884159959340000012271418725400821151_);}
	.st29{fill:url(#SVGID_00000156545634540167445130000003005570084395289771_);}
	.st30{fill:url(#SVGID_00000023961504018970002480000005798056312532738486_);}
	.st31{fill:url(#SVGID_00000065778006292493228950000004025355227842078607_);}
	.st32{fill:url(#SVGID_00000013163828601941645430000008801944612015899297_);}
	.st33{fill:url(#SVGID_00000167371408785694898870000012500207601464944000_);}
	.st34{fill:url(#SVGID_00000182520339394121731740000015408012305122289073_);}
	.st35{fill:url(#SVGID_00000054247183251163517710000015356297555216284320_);}
	.st36{fill:url(#SVGID_00000102532185890768535750000009744164853103222709_);}
	.st37{fill:url(#SVGID_00000000918927520962067420000001454501049437302679_);}
	.st38{fill:url(#SVGID_00000117657295427189055690000017431604137383426716_);}
	.st39{fill:url(#SVGID_00000012453878630542875500000011031576635641016763_);}
	.st40{fill:url(#SVGID_00000150088779218089826060000008241254637065345178_);}
	.st41{fill:url(#SVGID_00000136373511587241923340000011812503850631906975_);}
	.st42{fill:url(#SVGID_00000049208976889004018070000017364310883200485519_);}
	.st43{fill:url(#SVGID_00000096764069003003908760000009411241355048283294_);}
	.st44{fill:url(#SVGID_00000160886332118624580460000015355324528369753757_);}
	.st45{fill:url(#SVGID_00000100372907110470038070000003365457297843175310_);}
	.st46{fill:url(#SVGID_00000088097958926021916650000013912499075660220074_);}
	.st47{fill:url(#SVGID_00000075881612064032726990000014854099050106469287_);}
	.st48{fill:url(#SVGID_00000124149599124678389590000005629130061808812434_);}
	.st49{fill:url(#SVGID_00000082342750226401225670000013455957476568678571_);}
	.st50{fill:url(#SVGID_00000155115172001817843690000002040892038875753102_);}
	.st51{fill:url(#SVGID_00000108304915380734344040000007694924574519018644_);}
	.st52{fill:url(#SVGID_00000000201623883404701160000016567650020111053244_);}
	.st53{fill:url(#SVGID_00000016035620149126842890000002175131852045663878_);}
	.st54{fill:url(#SVGID_00000106830238593942926000000001786405074816410806_);}
	.st55{fill:url(#SVGID_00000081613776816288376020000010485574813959173258_);}
	.st56{fill:url(#SVGID_00000056388333500016404080000018347965139468034237_);}
	.st57{fill:url(#SVGID_00000084518384213658088950000000386563042167350921_);}
	.st58{fill:url(#SVGID_00000164510376431025964100000005879208267154487710_);}
	.st59{fill:url(#SVGID_00000165234494713947620930000004682717678423002296_);}
	.st60{fill:url(#SVGID_00000056424268560617109440000007601748922611971759_);}
	.st61{fill:url(#SVGID_00000012469874730082936160000003496725893093127325_);}
	.st62{fill:url(#SVGID_00000078045885202646478150000015853192748441768602_);}
	.st63{fill:url(#SVGID_00000000943310407379969830000001948631290221867157_);}
	.st64{fill:url(#SVGID_00000099625453749514142380000007269302567508171913_);}
	.st65{fill:url(#SVGID_00000139290842253982805760000017159303659920930709_);}
	.st66{fill:url(#SVGID_00000180360357458243346230000011825366879295526042_);}
	.st67{fill:url(#SVGID_00000079481237970424845650000011088478658980778650_);}
	.st68{fill:url(#SVGID_00000009576030751091584800000017360298761503642814_);}
	.st69{fill:url(#SVGID_00000176749087148750942760000001517201877082179744_);}
	.st70{fill:url(#SVGID_00000047753930852788089840000001518956083075627937_);}
	.st71{fill:url(#SVGID_00000105417062842344236170000012536835486647144894_);}
	.st72{fill:url(#SVGID_00000060028468956051203770000007233079856206902192_);}
	.st73{fill:url(#SVGID_00000021822401395300848690000008045920317692591255_);}
	.st74{fill:url(#SVGID_00000127003495877755157220000014426348756798226855_);}
	.st75{fill:url(#SVGID_00000011717183050555941980000006909469156168040629_);}
	.st76{fill:url(#SVGID_00000017510614435760975540000014283291183892144784_);}
	.st77{fill:url(#SVGID_00000026138814743014063670000005055111511074404999_);}
	.st78{fill:url(#SVGID_00000034776195325157926590000011343670484026542511_);}
	.st79{fill:url(#SVGID_00000046316170731735141740000014372107305787838865_);}
	.st80{fill:url(#SVGID_00000127015093752830032930000016422499572107469979_);}
	.st81{fill:url(#SVGID_00000033359121297173389270000005804237410564306061_);}
	.st82{fill:url(#SVGID_00000178885837216592177870000002564349290011658422_);}
	.st83{fill:url(#SVGID_00000041285190323062087390000011738038118207508920_);}
	.st84{fill:url(#SVGID_00000178897832000166812640000008614719224469591941_);}
	.st85{fill:url(#SVGID_00000058551665534566239690000000930137438463886242_);}
	.st86{fill:url(#SVGID_00000105415521111717426590000018180642771585779105_);}
	.st87{fill:url(#SVGID_00000093881063282282554620000012203869383658859702_);}
	.st88{fill:url(#SVGID_00000112610908984527517390000011026871112214497674_);}
	.st89{fill:url(#SVGID_00000046308535930761857930000005749979026504480658_);}
	.st90{fill:url(#SVGID_00000135673126954285614380000004336090431055451821_);}
	.st91{fill:url(#SVGID_00000131366694865636017150000013235385000003174028_);}
	.st92{fill:url(#SVGID_00000144307163336625448330000017707120443800485764_);}
	.st93{fill:url(#SVGID_00000103964036340475876860000002062184405641560212_);}
	.st94{fill:url(#SVGID_00000067212050125319516170000006401647148138039200_);}
	.st95{fill:url(#SVGID_00000163775582038413056360000017980249214283266479_);}
	.st96{fill:url(#SVGID_00000035529182925982094970000000209291259843987386_);}
	.st97{fill:url(#SVGID_00000145743935505452551010000006157222674765388222_);}
	.st98{fill:url(#SVGID_00000004538321979099042990000011828437614917498244_);}
	.st99{fill:url(#SVGID_00000168838379336543716200000018247955856072086687_);}
	.st100{fill:url(#SVGID_00000089543767674889157790000015650496738374541184_);}
	.st101{fill:url(#SVGID_00000114789811053585373680000011715586531123892637_);}
	.st102{fill:url(#SVGID_00000103972689283976453290000013006949639410639797_);}
	.st103{fill:url(#SVGID_00000119085319920920518810000010288475929983252400_);}
	.st104{fill:url(#SVGID_00000181052082708014648920000018429847322276822669_);}
	.st105{fill:url(#SVGID_00000116199616093337339630000009619810367095596187_);}
	.st106{fill:url(#SVGID_00000135655479014009864300000005279716630133188540_);}
	.st107{fill:url(#SVGID_00000093146975904944440890000005323194351921485985_);}
	.st108{fill:url(#SVGID_00000056416889405326874140000009762786042956146848_);}
	.st109{fill:url(#SVGID_00000079475471317422460380000010253002766215589028_);}
	.st110{fill:url(#SVGID_00000064339406937318338920000006782211031999705770_);}
	.st111{fill:url(#SVGID_00000052809831638372693540000015781785478889292417_);}
	.st112{fill:url(#SVGID_00000181791094142515409080000011492574252203002809_);}
	.st113{fill:url(#SVGID_00000106138360410331124300000006612798205469009064_);}
	.st114{fill:url(#SVGID_00000115479177213438804420000009400522419623914686_);}
	.st115{fill:url(#SVGID_00000114783743067846648350000007212555134944500409_);}
	.st116{fill:url(#SVGID_00000176014997744924207070000009789123492302376622_);}
	.st117{fill:url(#SVGID_00000136389407014325942490000015334902176503060107_);}
	.st118{fill:url(#SVGID_00000002353044600264451700000016696446052632022955_);}
	.st119{fill:url(#SVGID_00000178169061998398945700000007039635780609770653_);}
	.st120{fill:url(#SVGID_00000129886373477271329880000008065629860351211399_);}
	.st121{fill:url(#SVGID_00000058590661302518685790000006483441841618057860_);}
	.st122{fill:url(#SVGID_00000178892535642553494750000011162750201558695850_);}
	.st123{fill:url(#SVGID_00000080900373654782404280000009230192813362712479_);}
	.st124{fill:url(#SVGID_00000168115306212102112390000005310229357607030716_);}
	.st125{fill:url(#SVGID_00000038404401690387098830000007674242599652723640_);}
	.st126{fill:url(#SVGID_00000088818818932609970830000003086777312052691889_);}
	.st127{fill:url(#SVGID_00000130647299585975117300000011490141265227012258_);}
	.st128{fill:url(#SVGID_00000049920620928717023260000008514835233775890614_);}
	.st129{fill:url(#SVGID_00000071547140586671893910000000679796889980305082_);}
	.st130{fill:url(#SVGID_00000037665325785814205740000003884460884693492097_);}
	.st131{fill:url(#SVGID_00000085244693344405590260000001457847184785268383_);}
	.st132{fill:url(#SVGID_00000115482069879511692460000018436882255175947145_);}
	.st133{fill:url(#SVGID_00000013874047378913842250000001652835676512490909_);}
	.st134{fill:url(#SVGID_00000152252092349126572560000002666359496769944456_);}
	.st135{fill:url(#SVGID_00000168095131468625841810000012398407831571651744_);}
	.st136{fill:url(#SVGID_00000169525124926248078570000012261115550987425427_);}
	.st137{fill:url(#SVGID_00000130619042124166306800000014316987943559011744_);}
	.st138{fill:url(#SVGID_00000052793031992736234070000009703901299181299628_);}
	.st139{fill:url(#SVGID_00000096771759454194616660000013595219162134283193_);}
	.st140{fill:url(#SVGID_00000155835601840956992310000005968345702107487155_);}
	.st141{fill:url(#SVGID_00000036948378370252370580000000961625860998420620_);}
	.st142{fill:url(#SVGID_00000144301413585044202490000010508707428253111689_);}
	.st143{fill:url(#SVGID_00000143582110147394532990000007101212579645130899_);}
	.st144{fill:url(#SVGID_00000171689183904758790740000005856329450598106291_);}
	.st145{fill:url(#SVGID_00000037654841333080817890000017857337332819284385_);}
	.st146{fill:url(#SVGID_00000126301138478513371410000014239370726746805639_);}
	.st147{fill:url(#SVGID_00000087400829770492817770000011956681210932915606_);}
	.st148{fill:url(#SVGID_00000036951644441208664830000010248502122878784398_);}
	.st149{fill:url(#SVGID_00000158715563097803832950000001058544505530719912_);}
</style>
<g>
	<path class="st0" d="M83.5,26.7c-0.5-0.1-1-0.1-1.5-0.1l0,0l-25.5,2.6l-3.1,10.9L35.6,146.8c0,0.2-0.1,0.4,0,0.5l-0.1,0.8l-0.1,0
		c29.3,14.9,54.8,9.6,54.8,9.6c-0.3,0-0.6,0-0.9,0c0.3,0,0.6,0,0.9,0l16.5-17.5l12-15.5l1.2-6.6l0.5-2.6L133.4,41
		c0.5-3-1.4-5.7-4.4-6.3L83.5,26.7L83.5,26.7z"/>
	
		<linearGradient id="SVGID_1_" gradientUnits="userSpaceOnUse" x1="321.2206" y1="-114.4055" x2="321.499" y2="-149.4788" gradientTransform="matrix(0.1736 -0.9848 -0.9848 -0.1736 -115.4731 381.3399)">
		<stop  offset="0" style="stop-color:#5C5C5C"/>
		<stop  offset="0.1042" style="stop-color:#979797"/>
	</linearGradient>
	<path class="st1" d="M87.9,26.2L80.8,27c-0.1,0-0.3,0-0.4,0l-0.3,0c-0.1,0-0.2,0-0.2,0l-0.1,0l-10.3,1.1l-4.2,0.5l-0.8,0.1
		l-0.9,0.1l-3.1,10.9l-0.6,3.6l-1,5.8c0,0,0,0,0,0l-1.5,8.8l-1,5.8l-9.3,55.8l-0.9,5.6l-1.6,9.5l-0.9,5.6l-1,6.1l0,0
		c-0.1,0.4,0.1,0.8,0.3,1.1c0.1,0.1,0.2,0.2,0.3,0.3c0.1,0.1,0.3,0.1,0.4,0.2c0.1,0,0.2,0,0.3,0c0.1,0,0.1,0,0.1,0c0,0,0,0,0,0
		c0.1,0,0.1,0,0.2-0.1c0.3-0.1,0.6-0.2,0.9-0.3c5.9-2.3,9.6-7.1,12.5-12.8l11.9-22l1.5-8.4l13-73.9c0-0.1,0-0.2,0.1-0.3l0,0
		c0-0.1,0-0.2,0-0.4c0.4-2.5-1.9-2.8-3.4-2.8l6.7-0.7C87.8,26.3,87.9,26.2,87.9,26.2z"/>
	<g>
		<path class="st2" d="M80.3,155.6l-0.2,0.1C80.2,155.7,80.3,155.7,80.3,155.6z"/>
		<path class="st2" d="M67.5,122.1L62,132.3c0,0,0,0,0,0c0.4,0.5,6.7,8.2,24.4,10.7c18.2,2.6,25.8-2.5,25.8-2.5c-0.1,0-0.1,0-0.2,0
			c0,0,0.1,0,0.1,0c3.4-4.2,7.6-9.3,10.4-13.5c0.6-0.8-0.2-2-1.2-1.9c-16.7,1.3-30.2-1.6-44.9-8.9C71.6,113.8,70.2,117.4,67.5,122.1
			z"/>
		<polygon class="st3" points="69.6,28 64.5,28.6 64.1,30.6 69.2,30.1 		"/>
		<polygon class="st4" points="65.3,28.4 44.3,147.9 42.5,147.5 63.6,28.7 		"/>
		
			<ellipse transform="matrix(0.1736 -0.9848 0.9848 0.1736 -90.3747 152.0654)" class="st4" cx="45.4" cy="129.9" rx="10.5" ry="4.4"/>
		<ellipse transform="matrix(0.1736 -0.9848 0.9848 0.1736 -90.3747 152.0654)" class="st2" cx="45.4" cy="129.9" rx="4.8" ry="2"/>
		
			<ellipse transform="matrix(0.1736 -0.9848 0.9848 0.1736 -4.0908 102.2494)" class="st4" cx="58.9" cy="53.6" rx="10.5" ry="4.4"/>
		<ellipse transform="matrix(0.1736 -0.9848 0.9848 0.1736 -4.0908 102.2494)" class="st2" cx="58.9" cy="53.6" rx="4.8" ry="2"/>
		
			<linearGradient id="SVGID_00000057122424569387495860000014170573689535459496_" gradientUnits="userSpaceOnUse" x1="344.3113" y1="468.9493" x2="344.3113" y2="460.6971" gradientTransform="matrix(0.1736 -0.9848 -0.9848 -0.1736 467.5331 484.1396)">
			<stop  offset="0.3111" style="stop-color:#000000"/>
			<stop  offset="1" style="stop-color:#37475E"/>
		</linearGradient>
		<path style="fill:url(#SVGID_00000057122424569387495860000014170573689535459496_);" d="M65.8,99.8l-4-0.7
			c-1.3-0.2-2.2-1.3-2-2.5L71,32.5c0.2-1.2,0.7-1.8,2.5-2.1l4.6-0.5c1.8-0.1,2.2,1.3,2,2.5L68.5,98.1C68.3,99.3,67,100,65.8,99.8z"
			/>
		<path class="st2" d="M140.4,40.4L125.7,124l-12,15.5L97.2,157c0,0,0,0,0,0c-0.3,0-0.6,0-0.9,0c-0.1,0-0.1,0-0.1,0
			c-6.2,0.3-12,0.1-17.3-0.5l0.1,0l1.2-0.8c0.1,0,0.2-0.1,0.2-0.1l-0.2,0.1c-1.5,0.4-14-2.2-17.3-4.2l-0.1,2.1
			c-6.8-1.8-12.6-4-17.3-6.2c5.9-2.3,9.6-7.1,12.5-12.8l11.9-22l14.5-82.2c0-0.1,0-0.2,0.1-0.3l0,0c0-0.1,0-0.2,0-0.4
			c0.4-2.5-1.9-2.8-3.4-2.8l6.7-0.7c0.1,0,0.2-0.1,0.2-0.1c0.8-0.3,1.7-0.3,2.6-0.2l45.5,8C138.9,34.7,140.9,37.5,140.4,40.4z
			 M67.5,122.1L62,132.3c0,0,0,0,0,0c0.4,0.5,6.7,8.2,24.4,10.7c18.2,2.6,25.8-2.5,25.8-2.5c-0.1,0-0.1,0-0.2,0c0,0,0.1,0,0.1,0
			c3.4-4.2,7.6-9.3,10.4-13.5c0.6-0.8-0.2-2-1.2-1.9c-16.7,1.3-30.2-1.6-44.9-8.9C71.6,113.8,70.2,117.4,67.5,122.1z"/>
		
			<linearGradient id="SVGID_00000114770769179742922980000017647159089638858677_" gradientUnits="userSpaceOnUse" x1="287.3291" y1="-160.9778" x2="275.5483" y2="-160.6443" gradientTransform="matrix(0.1736 -0.9848 -0.9848 -0.1736 -115.4731 381.3399)">
			<stop  offset="0.3111" style="stop-color:#000000"/>
			<stop  offset="1" style="stop-color:#37475E"/>
		</linearGradient>
		<path style="fill:url(#SVGID_00000114770769179742922980000017647159089638858677_);" d="M67.5,122.1L62,132.3c0,0,0,0,0,0
			c12.9,13.4,42.8,13,50,8.3c0,0,0.1,0,0.1,0c3.4-4.2,7.6-9.3,10.4-13.5c0.6-0.8-0.2-2-1.2-1.9c-16.7,1.3-30.2-1.6-44.9-8.9
			C71.6,113.8,70.2,117.4,67.5,122.1z"/>
		
			<linearGradient id="SVGID_00000057126725361480582820000011585135094619501224_" gradientUnits="userSpaceOnUse" x1="287.0744" y1="468.7805" x2="287.0744" y2="461.0909" gradientTransform="matrix(0.1736 -0.9848 -0.9848 -0.1736 467.5331 484.1396)">
			<stop  offset="0.3111" style="stop-color:#000000"/>
			<stop  offset="1" style="stop-color:#37475E"/>
		</linearGradient>
		<path style="fill:url(#SVGID_00000057126725361480582820000011585135094619501224_);" d="M63.8,112.5l-5-0.9
			c-0.9-0.2-1.7,0.4-1.9,1.3l-2.5,14.2c-0.2,0.9,0.4,1.7,1.3,1.9L56,129c0.7,0.1,1.3-0.2,1.7-0.8l7.2-13.4
			C65.5,113.9,64.9,112.7,63.8,112.5z"/>
		<path d="M112,140.6c-20.2,3.7-35.8-1-50.1-8.3c0,0,0,0,0,0c0.4,0.5,6.7,8.2,24.4,10.7c18.2,2.6,25.8-2.5,25.8-2.5
			C112.1,140.5,112.1,140.6,112,140.6z"/>
		<path d="M44.6,147.1l-0.2,0l-0.9,0.2l-0.4,0.1l-0.5,0.1c28.7,14.5,53.6,9.7,54.7,9.4c-0.3,0-0.6,0-0.9,0c-0.1,0-0.1,0-0.1,0
			c-6.2,0.3-12,0.1-17.3-0.5c-5.9-0.6-11.3-1.6-16.1-2.9c-6.8-1.8-12.6-4-17.3-6.2C45.1,147.3,44.9,147.2,44.6,147.1z"/>
		<path d="M80.3,155.6l-0.2,0.1C80.2,155.7,80.3,155.7,80.3,155.6z"/>
		<path d="M62.8,151.5l-0.1,2.1l0,0.4l0,0.2l15.7,2.8l0.2-0.1l0.3-0.2l0.1,0l1.2-0.8C78.6,156.1,66.1,153.5,62.8,151.5z"/>
		<path class="st9" d="M79.8,27.1L79.8,27.1C79.8,27.1,79.8,27.1,79.8,27.1C79.8,27.1,79.8,27.1,79.8,27.1z"/>
		<path class="st9" d="M81,27c-0.1,0-0.1,0-0.2,0c-0.1,0-0.3,0-0.4,0l-0.3,0c-0.1,0-0.2,0-0.2,0c0,0-0.1,0-0.1,0L81,27z"/>
	</g>
</g>
</svg>
