<?xml version="1.0" encoding="utf-8"?>
<!-- Generator: Adobe Illustrator 25.4.1, SVG Export Plug-In . SVG Version: 6.00 Build 0)  -->
<svg version="1.1" id="Layer_1" xmlns="http://www.w3.org/2000/svg" xmlns:xlink="http://www.w3.org/1999/xlink" x="0px" y="0px"
	 viewBox="0 0 168 168" style="enable-background:new 0 0 168 168;" xml:space="preserve">
<style type="text/css">
	.st0{opacity:0.2;fill:#151110;enable-background:new    ;}
	.st1{fill:url(#SVGID_1_);}
	.st2{fill:#FFFFFF;}
	.st3{fill:#C00D0D;}
	.st4{fill:#151110;}
	.st5{fill:url(#SVGID_00000145777548758025054140000004044088929083429258_);}
	.st6{fill:url(#SVGID_00000029005492510188998250000002260138371377482936_);}
	.st7{fill:none;stroke:#A03394;stroke-width:9;stroke-miterlimit:10;}
	.st8{fill:url(#SVGID_00000045591407758937258630000003058853772428664492_);}
	.st9{fill:#F0F0F0;}
	.st10{fill:url(#SVGID_00000155141829802216426430000003709555280194321823_);}
	.st11{fill:url(#SVGID_00000142160882602770362010000014432435602181804204_);}
	.st12{fill:url(#SVGID_00000037661153288458818570000000549386213736160174_);}
	.st13{fill:url(#SVGID_00000002355739717239122950000005575574399908289453_);}
	.st14{fill:url(#SVGID_00000053537934281208123350000016610150256820745860_);}
	.st15{fill:url(#SVGID_00000112594530350752448020000014830604146738879164_);}
	.st16{fill:url(#SVGID_00000088845643705790137420000003080655790662751120_);}
	.st17{fill:url(#SVGID_00000158030199327675108170000014279034669347019411_);}
	.st18{fill:url(#SVGID_00000140718844515490718680000014645982155248746896_);}
	.st19{fill:url(#SVGID_00000000943715869228625020000004240154048557091766_);}
	.st20{fill:url(#SVGID_00000178885686533500129210000013955569250611410579_);}
	.st21{fill:url(#SVGID_00000126306761340995496330000015009094570034818186_);}
	.st22{fill:url(#SVGID_00000117660445416849397090000002303753370826107832_);}
	.st23{fill:url(#SVGID_00000014610426654424106750000008890009465476590227_);}
	.st24{fill:url(#SVGID_00000173125880763156960140000007893248964402558107_);}
	.st25{fill:url(#SVGID_00000103963120654963527160000005612868578489607850_);}
	.st26{fill:url(#SVGID_00000041990251347192974760000005505104956281880735_);}
	.st27{fill:url(#SVGID_00000015314338611320332600000011974791167926454157_);}
	.st28{fill:url(#SVGID_00000053533300891249649710000014150232554752519339_);}
	.st29{fill:url(#SVGID_00000146472632068149118970000009698307483711312563_);}
	.st30{fill:url(#SVGID_00000130626564343219819450000004633156122840067204_);}
	.st31{fill:url(#SVGID_00000106139724853714191950000002017044137002007227_);}
	.st32{fill:url(#SVGID_00000137128131322043759860000015974790496366436540_);}
	.st33{fill:url(#SVGID_00000155859509723429538510000014960912241800939928_);}
	.st34{fill:url(#SVGID_00000018922829261516897680000007631996776574314884_);}
	.st35{fill:url(#SVGID_00000167375307900825715240000009779881626684407742_);}
	.st36{fill:url(#SVGID_00000049913217303367104220000016275993582688329861_);}
	.st37{fill:url(#SVGID_00000075136238473765457120000001453456559459532674_);}
	.st38{fill:url(#SVGID_00000038386387927917809170000015635150626312474033_);}
	.st39{fill:url(#SVGID_00000107561305955592480310000002825949749682936251_);}
	.st40{fill:url(#SVGID_00000006681842593374502330000001054404707076487319_);}
	.st41{fill:url(#SVGID_00000170240187299428058190000009088411463299230113_);}
	.st42{fill:url(#SVGID_00000033364881184529163260000005377390911075121583_);}
	.st43{fill:url(#SVGID_00000121248412132651859630000001686000559412222867_);}
	.st44{fill:url(#SVGID_00000009560072549769215220000003218219201718856632_);}
	.st45{fill:url(#SVGID_00000145060765528783675350000011814563716811158459_);}
	.st46{fill:url(#SVGID_00000020368167233003361300000000353651892298941829_);}
	.st47{fill:url(#SVGID_00000003074625803224989230000005104261016207588019_);}
	.st48{fill:url(#SVGID_00000061439428629079242620000014149722079720872587_);}
	.st49{fill:url(#SVGID_00000031920383774759519860000001957295155847318931_);}
	.st50{fill:url(#SVGID_00000023972994800394303670000013785058558590986416_);}
	.st51{fill:url(#SVGID_00000133525439540715591690000016978680417729923003_);}
	.st52{fill:url(#SVGID_00000097463405367651851620000017442881875929425799_);}
	.st53{fill:url(#SVGID_00000021117292027689469600000012080868166054491527_);}
	.st54{fill:url(#SVGID_00000111179997493826514330000008178784331290430117_);}
	.st55{fill:url(#SVGID_00000073719873056907685620000009855501389459411344_);}
	.st56{fill:url(#SVGID_00000176033377119978185370000005915380967121200010_);}
	.st57{fill:url(#SVGID_00000030474725127533899760000014588378610469438654_);}
	.st58{fill:url(#SVGID_00000086656423584592565000000010598264000748598427_);}
	.st59{fill:url(#SVGID_00000183224114737980024250000017070672026535676821_);}
	.st60{fill:url(#SVGID_00000137098569603600225600000015554944306013146284_);}
	.st61{fill:url(#SVGID_00000109001409030512131970000003833990413723284363_);}
	.st62{fill:url(#SVGID_00000001661626388201565180000013930877156438734738_);}
	.st63{fill:url(#SVGID_00000163041507825283148820000010108698892188792195_);}
	.st64{fill:url(#SVGID_00000070825940328405246260000008248928846211380652_);}
	.st65{fill:url(#SVGID_00000156578662173921349540000011274510435405927825_);}
	.st66{fill:url(#SVGID_00000065071974083423096170000012832621388926373795_);}
	.st67{fill:url(#SVGID_00000074432720100769348570000009915030378692115596_);}
	.st68{fill:url(#SVGID_00000047039219064950397530000018202011638948541840_);}
	.st69{fill:url(#SVGID_00000104706516179556745800000005092913359170180541_);}
	.st70{fill:url(#SVGID_00000062876244031987892010000015230609916290364823_);}
	.st71{fill:url(#SVGID_00000113316538038197608670000010074300406693900712_);}
	.st72{fill:url(#SVGID_00000149344602130404905580000003226312660712952490_);}
	.st73{fill:url(#SVGID_00000078751178226612036190000005448726254741864125_);}
	.st74{fill:url(#SVGID_00000173862706114083591840000003321781765268293775_);}
	.st75{fill:url(#SVGID_00000091721218047411623820000006279400838443026856_);}
	.st76{fill:url(#SVGID_00000176725170579716883510000004536864826149260198_);}
	.st77{fill:url(#SVGID_00000011007866652224975060000016273412232272016791_);}
	.st78{fill:url(#SVGID_00000110441974780483347820000000432710501490863517_);}
	.st79{fill:url(#SVGID_00000126292309756228820200000007323515920581632188_);}
	.st80{fill:url(#SVGID_00000116208523506974887160000009106694874270293677_);}
	.st81{fill:url(#SVGID_00000155863057767076411140000010198152822724124331_);}
	.st82{fill:url(#SVGID_00000073680460516284838490000013479679140387657647_);}
	.st83{fill:url(#SVGID_00000121237518266922905950000006782883494871626424_);}
	.st84{fill:url(#SVGID_00000071554817056815764350000008127934292081589910_);}
	.st85{fill:url(#SVGID_00000016075015375556353040000007569436716329640346_);}
	.st86{fill:url(#SVGID_00000105387598109287827530000017225593857130859660_);}
	.st87{fill:url(#SVGID_00000162319977530498172190000002788857309678007711_);}
	.st88{fill:url(#SVGID_00000103958495610839970130000010693857934158890910_);}
	.st89{fill:url(#SVGID_00000021096685556435385440000015243769720223160750_);}
	.st90{fill:url(#SVGID_00000110429898649465264150000017707810162374650264_);}
	.st91{fill:url(#SVGID_00000101064336344789403870000010413515171668886913_);}
	.st92{fill:url(#SVGID_00000102505886997474606320000006487705639283369613_);}
	.st93{fill:url(#SVGID_00000093135442405679794480000017194264755408808346_);}
	.st94{fill:url(#SVGID_00000088101923166930679280000002943996580921247131_);}
	.st95{fill:url(#SVGID_00000081626941033197547370000018190077889189992632_);}
	.st96{fill:url(#SVGID_00000060021926248559064410000005802397390490370959_);}
	.st97{fill:url(#SVGID_00000054979424377163501940000017813712796987207052_);}
	.st98{fill:url(#SVGID_00000159440872373654883950000014376425853519892146_);}
	.st99{fill:url(#SVGID_00000023963533495310368200000018096614533585695873_);}
	.st100{fill:url(#SVGID_00000121976594816985264000000001440505388772041648_);}
	.st101{fill:url(#SVGID_00000054964510156077801820000002869871886477923467_);}
	.st102{fill:url(#SVGID_00000067213997656773514950000008270774766398797235_);}
	.st103{fill:url(#SVGID_00000150085708619888761200000004669790582142076071_);}
	.st104{fill:url(#SVGID_00000026140961028145395350000012360096115543109280_);}
	.st105{fill:url(#SVGID_00000000939135853723730760000009079447876928379569_);}
	.st106{fill:url(#SVGID_00000061441913376418698140000014432439208299880076_);}
	.st107{fill:url(#SVGID_00000021095189967305870610000009602876071558626491_);}
	.st108{fill:url(#SVGID_00000152979869327962834260000007152193622863953850_);}
	.st109{fill:url(#SVGID_00000060742905106935026100000014767013508246220942_);}
	.st110{fill:url(#SVGID_00000126281200798418749210000015148785417171284376_);}
	.st111{fill:url(#SVGID_00000017480175085023415410000015499355090992103833_);}
	.st112{fill:url(#SVGID_00000056409935713948186770000011398030721803898037_);}
	.st113{fill:url(#SVGID_00000160174669333624619880000018413797079458341773_);}
	.st114{fill:url(#SVGID_00000075159144096669860010000001905145848691261070_);}
	.st115{fill:url(#SVGID_00000120549824217395768880000012427623817301620882_);}
	.st116{fill:url(#SVGID_00000062182004345174225520000010199679841909398937_);}
	.st117{fill:url(#SVGID_00000012451100643012294120000012912798299092893616_);}
	.st118{fill:url(#SVGID_00000024720984113002840180000002425538247108247454_);}
	.st119{fill:url(#SVGID_00000134221762883623108160000004689772831890280353_);}
	.st120{fill:url(#SVGID_00000078740350175399594490000002601583934183862974_);}
	.st121{fill:url(#SVGID_00000045615838633832056860000011849962537749798564_);}
	.st122{fill:url(#SVGID_00000093892641061736288820000014986967523340437670_);}
	.st123{fill:url(#SVGID_00000124881477335390463110000010547565366850156184_);}
	.st124{fill:url(#SVGID_00000093171423678457657190000009820930690363055517_);}
	.st125{fill:url(#SVGID_00000125567891947719442300000000777625514204349096_);}
	.st126{fill:url(#SVGID_00000127025231106846726620000005584550001646853054_);}
	.st127{fill:url(#SVGID_00000147929482812181585770000015567716511037408956_);}
	.st128{fill:url(#SVGID_00000117674825828804373420000011527477153795876533_);}
	.st129{fill:url(#SVGID_00000017484747305192696660000017209615117914141881_);}
	.st130{fill:url(#SVGID_00000170978379426571219220000009359024997763828370_);}
	.st131{fill:url(#SVGID_00000073718955147159245270000003012485923350166715_);}
	.st132{fill:url(#SVGID_00000067920886983451527950000008367408902778583214_);}
	.st133{fill:url(#SVGID_00000024697897236442416720000009972056501734012078_);}
	.st134{fill:url(#SVGID_00000042012906988763857880000014410620011450624138_);}
	.st135{fill:url(#SVGID_00000116209187878558729650000017381170824308682430_);}
	.st136{fill:url(#SVGID_00000093140895548088158500000001931033161145243040_);}
	.st137{fill:url(#SVGID_00000000910300987008170990000011978345493335473846_);}
	.st138{fill:url(#SVGID_00000109713870393331646510000012686761669422834318_);}
	.st139{fill:url(#SVGID_00000153703823273431051340000018135757395616102072_);}
	.st140{fill:url(#SVGID_00000066511153882525018070000000262885493484318085_);}
	.st141{fill:url(#SVGID_00000022531421304584586700000015132699431355610021_);}
	.st142{fill:url(#SVGID_00000021086788102652690380000015171866611105521322_);}
	.st143{fill:url(#SVGID_00000082361795666825258470000016770371582404801438_);}
	.st144{fill:url(#SVGID_00000181771742878105244090000007847239758469316491_);}
	.st145{fill:url(#SVGID_00000027602716258231402450000011431344245158775940_);}
	.st146{fill:url(#SVGID_00000059284749266847986840000008809549445023301510_);}
	.st147{fill:url(#SVGID_00000071549365864469888370000011378842480768385169_);}
	.st148{fill:url(#SVGID_00000051365784915215696430000011592978628672462005_);}
	.st149{fill:url(#SVGID_00000108295450280671507820000009433564017979991721_);}
</style>
<g>
	<path class="st0" d="M46.4,142c-0.5-0.2-0.9-0.4-1.3-0.7l0,0l-20.8-15l2.7-11L65,14.1c0.1-0.2,0.1-0.4,0.3-0.4l0.3-0.8l-0.1,0
		C98.2,14.6,117.7,32,117.7,32c-0.2-0.2-0.5-0.3-0.8-0.5c0.2,0.2,0.5,0.3,0.8,0.5l5.5,23.4l2.6,19.4l-2.3,6.3l-0.9,2.4l-25.9,71.1
		c-1,2.8-4.1,4.3-6.9,3.2L46.4,142L46.4,142z"/>
	
		<linearGradient id="SVGID_1_" gradientUnits="userSpaceOnUse" x1="85.6317" y1="121.1834" x2="85.91" y2="86.1101" gradientTransform="matrix(-0.342 0.9397 -0.9397 -0.342 192.2091 37.3946)">
		<stop  offset="0" style="stop-color:#5C5C5C"/>
		<stop  offset="0.1042" style="stop-color:#979797"/>
	</linearGradient>
	<path class="st1" d="M50,144.7l-5.8-4.2c-0.1-0.1-0.2-0.1-0.3-0.2l-0.2-0.2c-0.1,0-0.1-0.1-0.2-0.1l-0.1-0.1l-8.3-6.1l-3.4-2.5
		l-0.7-0.5l-0.8-0.6l2.7-11l1.3-3.4l2.1-5.5c0,0,0,0,0,0l3.1-8.3l2.1-5.5l19.9-53l2-5.3l3.4-9l2-5.3l2.2-5.8l0,0
		c0.1-0.4,0.4-0.6,0.8-0.7c0.1-0.1,0.3-0.1,0.4-0.1c0.2,0,0.3,0,0.5,0.1c0.1,0,0.2,0.1,0.3,0.1c0,0,0.1,0,0.1,0.1c0,0,0,0,0,0
		c0.1,0,0.1,0.1,0.2,0.2c0.2,0.2,0.4,0.5,0.6,0.7c3.9,5,4.8,10.9,4.4,17.4l-0.7,25l-2.9,8l-25.7,70.5c0,0.1-0.1,0.2-0.1,0.3l0,0
		c0,0.1-0.1,0.2-0.1,0.4c-0.9,2.4-3,1.5-4.3,0.7l5.5,3.9C49.9,144.6,50,144.6,50,144.7z"/>
	<g>
		<path class="st2" d="M108.1,28.8l-0.1-0.2C108.1,28.7,108.1,28.7,108.1,28.8z"/>
		<path class="st2" d="M80.3,51.4l0.3-11.6c0,0,0,0,0,0c0.5-0.2,9.9-3.7,26.5,3c17.1,6.9,21.1,15,21.1,15c0,0-0.1-0.1-0.1-0.1
			c0,0,0,0.1,0,0.1c0.8,5.3,2,11.9,2.3,16.9c0.1,1-1.1,1.6-2,1.1C114.6,66.3,101.4,62,85,61C79.7,60.7,80.2,56.8,80.3,51.4z"/>
		<polygon class="st3" points="35,133.9 30.9,130.9 31.6,129 35.7,132 		"/>
		<polygon class="st4" points="31.5,131.5 73,17.5 71.3,16.9 30.1,130.4 		"/>
		<ellipse transform="matrix(0.342 -0.9397 0.9397 0.342 11.1577 83.24)" class="st4" cx="65" cy="33.7" rx="10.5" ry="4.4"/>
		<ellipse transform="matrix(0.342 -0.9397 0.9397 0.342 11.1577 83.24)" class="st2" cx="65" cy="33.7" rx="4.8" ry="2"/>
		
			<ellipse transform="matrix(0.342 -0.9397 0.9397 0.342 -74.7173 106.2502)" class="st4" cx="38.5" cy="106.5" rx="10.5" ry="4.4"/>
		<ellipse transform="matrix(0.342 -0.9397 0.9397 0.342 -74.7173 106.2502)" class="st2" cx="38.5" cy="106.5" rx="4.8" ry="2"/>
		
			<linearGradient id="SVGID_00000055679429141044810330000017182006654242760340_" gradientUnits="userSpaceOnUse" x1="108.7224" y1="704.5383" x2="108.7224" y2="696.286" gradientTransform="matrix(-0.342 0.9397 -0.9397 -0.342 748.5071 239.8705)">
			<stop  offset="0.3111" style="stop-color:#000000"/>
			<stop  offset="1" style="stop-color:#37475E"/>
		</linearGradient>
		<path style="fill:url(#SVGID_00000055679429141044810330000017182006654242760340_);" d="M67.6,69.9l-3.9-1.4
			c-1.2-0.4-2.6,0-3,1.2l-22.3,61.2c-0.4,1.1-0.3,1.9,1.1,3.1l3.7,2.7c1.6,1,2.6,0,3-1.2l22.8-62.8C69.5,71.6,68.8,70.4,67.6,69.9z"
			/>
		<path class="st2" d="M102.5,158.6l29-79.8l-2.6-19.4l-5.5-23.4c0,0,0,0,0,0c-0.3-0.1-0.5-0.3-0.7-0.5c0,0-0.1-0.1-0.1-0.1
			c-5.2-3.4-10.4-6.1-15.3-8.2l0,0.1l0.7,1.3c0.1,0.1,0.1,0.1,0.1,0.2l-0.1-0.2c-1.2-1.1-13.2-5.1-17.1-5l0.9-1.9
			c-6.8-1.9-12.9-2.8-18.1-3.3c3.9,5,4.8,10.9,4.4,17.4l-0.7,25l-28.6,78.5c0,0.1-0.1,0.2-0.1,0.3l0,0c0,0.1-0.1,0.2-0.1,0.4
			c-0.9,2.4-3,1.5-4.3,0.7l5.5,3.9c0,0.1,0.1,0.1,0.2,0.2c0.6,0.6,1.3,1.1,2.2,1.4l43.4,15.8C98.3,162.8,101.5,161.4,102.5,158.6z
			 M80.3,51.4l0.3-11.6c0,0,0,0,0,0c0.5-0.2,9.9-3.7,26.5,3c17.1,6.9,21.1,15,21.1,15c0,0-0.1-0.1-0.1-0.1c0,0,0,0.1,0,0.1
			c0.8,5.3,2,11.9,2.3,16.9c0.1,1-1.1,1.6-2,1.1C114.6,66.3,101.4,62,85,61C79.7,60.7,80.2,56.8,80.3,51.4z"/>
		
			<linearGradient id="SVGID_00000072244132312587227140000015020765121245955473_" gradientUnits="userSpaceOnUse" x1="51.7402" y1="74.6112" x2="39.9593" y2="74.9446" gradientTransform="matrix(-0.342 0.9397 -0.9397 -0.342 192.2091 37.3946)">
			<stop  offset="0.3111" style="stop-color:#000000"/>
			<stop  offset="1" style="stop-color:#37475E"/>
		</linearGradient>
		<path style="fill:url(#SVGID_00000072244132312587227140000015020765121245955473_);" d="M80.3,51.4l0.3-11.6c0,0,0,0,0,0
			c17.9-5.1,43.5,10.1,47.5,17.9c0,0,0,0.1,0,0.1c0.8,5.3,2,11.9,2.3,16.9c0.1,1-1.1,1.6-2,1.1C114.6,66.3,101.4,62,85,61
			C79.7,60.7,80.2,56.8,80.3,51.4z"/>
		
			<linearGradient id="SVGID_00000154404202556281251350000003138717027301947030_" gradientUnits="userSpaceOnUse" x1="51.4855" y1="704.3694" x2="51.4855" y2="696.6798" gradientTransform="matrix(-0.342 0.9397 -0.9397 -0.342 748.5071 239.8705)">
			<stop  offset="0.3111" style="stop-color:#000000"/>
			<stop  offset="1" style="stop-color:#37475E"/>
		</linearGradient>
		<path style="fill:url(#SVGID_00000154404202556281251350000003138717027301947030_);" d="M72.3,57.9l-4.8-1.7
			c-0.8-0.3-1.3-1.2-1-2.1l4.9-13.5c0.3-0.8,1.2-1.3,2.1-1l0.3,0.1c0.7,0.2,1.1,0.8,1,1.5l-0.4,15.3C74.4,57.5,73.3,58.3,72.3,57.9z
			"/>
		<path d="M128,57.7c-15.6-13.3-31.5-17-47.5-17.9c0,0,0,0,0,0c0.5-0.2,9.9-3.7,26.5,3c17.1,6.9,21.1,15,21.1,15
			C128.1,57.8,128.1,57.7,128,57.7z"/>
		<path d="M72.9,18.3l-0.2-0.1l-0.7-0.6l-0.3-0.3l-0.4-0.4c32.1,1.8,51.3,18.4,52.1,19.2c-0.2-0.2-0.5-0.3-0.7-0.5
			c0,0-0.1-0.1-0.1-0.1c-5.2-3.4-10.4-6.1-15.3-8.2c-5.4-2.4-10.6-4.2-15.4-5.5c-6.8-1.9-12.9-2.8-18.1-3.3
			C73.5,18.4,73.2,18.4,72.9,18.3z"/>
		<path d="M108.1,28.8l-0.1-0.2C108.1,28.7,108.1,28.7,108.1,28.8z"/>
		<path d="M90.9,23.6l0.9-1.9l0.2-0.3l0.1-0.1l14.9,5.4l0.1,0.2l0.2,0.4l0,0.1l0.7,1.3C106.8,27.5,94.8,23.5,90.9,23.6z"/>
		<path class="st9" d="M43.4,139.9L43.4,139.9C43.4,139.9,43.4,139.9,43.4,139.9C43.4,139.9,43.4,139.9,43.4,139.9z"/>
		<path class="st9" d="M44.4,140.6c0,0-0.1-0.1-0.1-0.1c-0.1-0.1-0.2-0.1-0.3-0.2l-0.2-0.2c-0.1,0-0.1-0.1-0.2-0.1c0,0,0,0-0.1-0.1
			L44.4,140.6z"/>
	</g>
</g>
</svg>
