<?xml version="1.0" encoding="utf-8"?>
<!-- Generator: Adobe Illustrator 25.4.1, SVG Export Plug-In . SVG Version: 6.00 Build 0)  -->
<svg version="1.1" id="Layer_1" xmlns="http://www.w3.org/2000/svg" xmlns:xlink="http://www.w3.org/1999/xlink" x="0px" y="0px"
	 viewBox="0 0 168 168" style="enable-background:new 0 0 168 168;" xml:space="preserve">
<style type="text/css">
	.st0{opacity:0.2;fill:#151110;enable-background:new    ;}
	.st1{fill:url(#SVGID_1_);}
	.st2{fill:#FFFFFF;}
	.st3{fill:#C00D0D;}
	.st4{fill:#151110;}
	.st5{fill:url(#SVGID_00000057830861449645427420000000537603472379834803_);}
	.st6{fill:url(#SVGID_00000052801317047420235260000003506993320024450443_);}
	.st7{fill:none;stroke:#A03394;stroke-width:9;stroke-miterlimit:10;}
	.st8{fill:url(#SVGID_00000087390364606783149590000016029120400337039282_);}
	.st9{fill:#F0F0F0;}
	.st10{fill:url(#SVGID_00000054974438492634732650000008536381631372888485_);}
	.st11{fill:url(#SVGID_00000058574301844068040780000007678662398774836650_);}
	.st12{fill:url(#SVGID_00000145770176079853298070000015386337271037132421_);}
	.st13{fill:url(#SVGID_00000152250273269839769660000013129075290412064917_);}
	.st14{fill:url(#SVGID_00000090291999093015609330000017836484621776601501_);}
	.st15{fill:url(#SVGID_00000150813565929881711390000017035764094904376248_);}
	.st16{fill:url(#SVGID_00000019650255628101244250000011393371485684237488_);}
	.st17{fill:url(#SVGID_00000145765619496954424580000006346385615606460552_);}
	.st18{fill:url(#SVGID_00000183958411038487167100000008370023574940680864_);}
	.st19{fill:url(#SVGID_00000044861805542669979320000002441426609844883892_);}
	.st20{fill:url(#SVGID_00000088099527927450938440000009652730203957764489_);}
	.st21{fill:url(#SVGID_00000003783241527106924240000009556968948413755051_);}
	.st22{fill:url(#SVGID_00000142155601208127199850000014859361255064874638_);}
	.st23{fill:url(#SVGID_00000110462808346322743300000010316824515246510248_);}
	.st24{fill:url(#SVGID_00000137107075444725125080000008457695222881163913_);}
	.st25{fill:url(#SVGID_00000158733036307300870760000002161001907868444842_);}
	.st26{fill:url(#SVGID_00000095337428900822022370000017732382569106196372_);}
	.st27{fill:url(#SVGID_00000153696412203649273210000014294092859391777154_);}
	.st28{fill:url(#SVGID_00000014621705817390957950000007583672462255574144_);}
	.st29{fill:url(#SVGID_00000013882678482648769290000011957767557267132348_);}
	.st30{fill:url(#SVGID_00000052811816121447522890000008093536483707432079_);}
	.st31{fill:url(#SVGID_00000034058649861268264460000000358935184585731491_);}
	.st32{fill:url(#SVGID_00000034807708965548884390000006674219612120373928_);}
	.st33{fill:url(#SVGID_00000054229952400218644460000009308891085639847830_);}
	.st34{fill:url(#SVGID_00000042003290591453513970000012130158919832331197_);}
	.st35{fill:url(#SVGID_00000111173005869778021190000003332530465076519312_);}
	.st36{fill:url(#SVGID_00000130617173347744791020000014343262360090219392_);}
	.st37{fill:url(#SVGID_00000069370191628425965850000017535959309937516418_);}
	.st38{fill:url(#SVGID_00000137090582218523338560000017324381615976497300_);}
	.st39{fill:url(#SVGID_00000061467922262970722100000003350765708537553027_);}
	.st40{fill:url(#SVGID_00000021106683749505026650000007947357482012809629_);}
	.st41{fill:url(#SVGID_00000093135718424834041730000007383238064776247993_);}
	.st42{fill:url(#SVGID_00000121250035918613572340000003078591600448827269_);}
	.st43{fill:url(#SVGID_00000107550821466585463250000001717445760645754548_);}
	.st44{fill:url(#SVGID_00000042710741891884039050000000219594705764266660_);}
	.st45{fill:url(#SVGID_00000030476188285896364280000016661449216284433293_);}
	.st46{fill:url(#SVGID_00000043437531335602165680000002295630316239068594_);}
	.st47{fill:url(#SVGID_00000172435032893518086580000017184344250228487330_);}
	.st48{fill:url(#SVGID_00000013160045819496122720000007805065385381254787_);}
	.st49{fill:url(#SVGID_00000142151234451570768790000015881833081295230349_);}
	.st50{fill:url(#SVGID_00000152251503244549927240000002798411936089368462_);}
	.st51{fill:url(#SVGID_00000168084645103248863280000014740238983974034104_);}
	.st52{fill:url(#SVGID_00000132064563684468801340000014573812764210431881_);}
	.st53{fill:url(#SVGID_00000097482146254967411030000010425489881368848557_);}
	.st54{fill:url(#SVGID_00000060023010675131669220000011631746318051271815_);}
	.st55{fill:url(#SVGID_00000052088959800338196870000009441036211943239326_);}
	.st56{fill:url(#SVGID_00000109727693147157423050000014432575015429591971_);}
	.st57{fill:url(#SVGID_00000039839961949783983840000014577422903549065382_);}
	.st58{fill:url(#SVGID_00000084531713030227064200000007922260171509935007_);}
	.st59{fill:url(#SVGID_00000062152257664581844780000018327807487839168658_);}
	.st60{fill:url(#SVGID_00000095334528040449920700000014109025395384367795_);}
	.st61{fill:url(#SVGID_00000154411041075454172720000003238273165574808199_);}
	.st62{fill:url(#SVGID_00000160161522340568313980000013000610588852958103_);}
	.st63{fill:url(#SVGID_00000020384234918201024230000017076780349991928740_);}
	.st64{fill:url(#SVGID_00000032625497491738909290000001952920192591910793_);}
	.st65{fill:url(#SVGID_00000067210389611055789820000002754844242162551475_);}
	.st66{fill:url(#SVGID_00000103225607450871354270000001343354428794209934_);}
	.st67{fill:url(#SVGID_00000016791625149352109030000001595642783242974381_);}
	.st68{fill:url(#SVGID_00000072977069541966187420000004114155155247447486_);}
	.st69{fill:url(#SVGID_00000035500895535748660850000012319648439344897667_);}
	.st70{fill:url(#SVGID_00000047038597624705666480000012054820577819712898_);}
	.st71{fill:url(#SVGID_00000067198682789557546930000005963110774966537624_);}
	.st72{fill:url(#SVGID_00000137119623815491239900000008495274699441008019_);}
	.st73{fill:url(#SVGID_00000008123446768367039860000005998846332335580550_);}
	.st74{fill:url(#SVGID_00000010271539768765870290000017962279780290896773_);}
	.st75{fill:url(#SVGID_00000081606225075329197420000014505224942090229384_);}
	.st76{fill:url(#SVGID_00000006666803327705609850000014022524855422452899_);}
	.st77{fill:url(#SVGID_00000131362194349261412790000006504055686337615275_);}
	.st78{fill:url(#SVGID_00000078022877495185935400000008841611315969228928_);}
	.st79{fill:url(#SVGID_00000009556595062970675090000001339531432132711821_);}
	.st80{fill:url(#SVGID_00000029726710859659959240000011415443326207401393_);}
	.st81{fill:url(#SVGID_00000096759533993405434770000001591247783811963062_);}
	.st82{fill:url(#SVGID_00000146501379832440592970000012411545263484120218_);}
	.st83{fill:url(#SVGID_00000012431599010378835470000000582155627871668635_);}
	.st84{fill:url(#SVGID_00000150090188982244658350000016393723187455648394_);}
	.st85{fill:url(#SVGID_00000082343015497009266030000016686772195163270791_);}
	.st86{fill:url(#SVGID_00000101093421886596282990000017259570733359109550_);}
	.st87{fill:url(#SVGID_00000030467527218379308960000008105274500339006116_);}
	.st88{fill:url(#SVGID_00000107570321151825596950000002748830646276468367_);}
	.st89{fill:url(#SVGID_00000005231068985363231950000010391528605625394592_);}
	.st90{fill:url(#SVGID_00000168808160515169735510000001892680755864453764_);}
	.st91{fill:url(#SVGID_00000119829298055111012460000005681623332049349512_);}
	.st92{fill:url(#SVGID_00000162350109538881332130000006746296340187216317_);}
	.st93{fill:url(#SVGID_00000178922578901313034510000018087695790209272727_);}
	.st94{fill:url(#SVGID_00000177480763979339684770000014282902895630097830_);}
	.st95{fill:url(#SVGID_00000074402142372484288670000005376312096088852395_);}
	.st96{fill:url(#SVGID_00000160871514884780222550000009431811445600471728_);}
	.st97{fill:url(#SVGID_00000012430210548693930870000008659470449528071830_);}
	.st98{fill:url(#SVGID_00000087409208740195201540000011226392861046872236_);}
	.st99{fill:url(#SVGID_00000039855850029636173850000017331644388953886098_);}
	.st100{fill:url(#SVGID_00000173851688176430544730000012590415155007257754_);}
	.st101{fill:url(#SVGID_00000092432779738462254150000006989968931135439515_);}
	.st102{fill:url(#SVGID_00000155864009159420195760000006747757760028803493_);}
	.st103{fill:url(#SVGID_00000123429362431144139060000016608970928313495426_);}
	.st104{fill:url(#SVGID_00000038407069876951070840000015515800768351336869_);}
	.st105{fill:url(#SVGID_00000139269338825381220070000007111586996131375775_);}
	.st106{fill:url(#SVGID_00000146478943508744986650000016532894008392660146_);}
	.st107{fill:url(#SVGID_00000114062223293305256460000004778256830718646970_);}
	.st108{fill:url(#SVGID_00000090281131264909050720000005978238230147692934_);}
	.st109{fill:url(#SVGID_00000153700325314643678450000004733593641702992290_);}
	.st110{fill:url(#SVGID_00000062165548119109340860000006859995126852883845_);}
	.st111{fill:url(#SVGID_00000034797852719467774980000003124027798729516964_);}
	.st112{fill:url(#SVGID_00000124147760091475209050000010338244502562997380_);}
	.st113{fill:url(#SVGID_00000079453117161767834040000014733174971670738076_);}
	.st114{fill:url(#SVGID_00000122699463545807228900000017183934578458983097_);}
	.st115{fill:url(#SVGID_00000055684487872800732920000002610898297042060440_);}
	.st116{fill:url(#SVGID_00000178924046697445513040000003807038170339617187_);}
	.st117{fill:url(#SVGID_00000145026866578643688190000005272695242502903971_);}
	.st118{fill:url(#SVGID_00000170979065787510786350000016220607399502248610_);}
	.st119{fill:url(#SVGID_00000152242514493077115870000008076333749143991938_);}
	.st120{fill:url(#SVGID_00000178921893691049019350000016736370237461084077_);}
	.st121{fill:url(#SVGID_00000091719321329809881030000000771096697311072397_);}
	.st122{fill:url(#SVGID_00000073002468964772309640000009987480055591027860_);}
	.st123{fill:url(#SVGID_00000171692849706656739740000012412347800995279760_);}
	.st124{fill:url(#SVGID_00000059309136036158815060000011845067090277201063_);}
	.st125{fill:url(#SVGID_00000008829652206953843300000011879746286932043962_);}
	.st126{fill:url(#SVGID_00000159466162349875485890000003442579021002485153_);}
	.st127{fill:url(#SVGID_00000135668149176635137080000017804093314339520699_);}
	.st128{fill:url(#SVGID_00000003803008117826303320000007962667500255244701_);}
	.st129{fill:url(#SVGID_00000131359378679592092790000011706278521607213205_);}
	.st130{fill:url(#SVGID_00000077295266290462637120000008853136798486957227_);}
	.st131{fill:url(#SVGID_00000007424787481233585820000005033626864571255461_);}
	.st132{fill:url(#SVGID_00000146490986487301303440000014301039498212188843_);}
	.st133{fill:url(#SVGID_00000084519984137896820360000009678998794628308145_);}
	.st134{fill:url(#SVGID_00000123420879277727166310000008561041773307031959_);}
	.st135{fill:url(#SVGID_00000135667033921710210300000013928282656437487294_);}
	.st136{fill:url(#SVGID_00000142897741318801010090000008190926406089181104_);}
	.st137{fill:url(#SVGID_00000143609460889983206660000009765568254479158949_);}
	.st138{fill:url(#SVGID_00000077281829376002063770000003191381603179149741_);}
	.st139{fill:url(#SVGID_00000178911596611133650940000003802702596128656021_);}
	.st140{fill:url(#SVGID_00000173138083672510817010000015615834401626416274_);}
	.st141{fill:url(#SVGID_00000054960586064283450310000014551495867592796806_);}
	.st142{fill:url(#SVGID_00000082347441525850642980000010973164774434043786_);}
	.st143{fill:url(#SVGID_00000067933441807091759090000011636269538645434024_);}
	.st144{fill:url(#SVGID_00000134936954789109576140000009274126891418610877_);}
	.st145{fill:url(#SVGID_00000168101834487969967510000010616653572293833129_);}
	.st146{fill:url(#SVGID_00000070076299950283647850000004964116353809441438_);}
	.st147{fill:url(#SVGID_00000018198670705613056760000016408627708824876694_);}
	.st148{fill:url(#SVGID_00000036242226813562418430000005201202842676292030_);}
	.st149{fill:url(#SVGID_00000011711536433477708270000004928086856814301607_);}
</style>
<g>
	<path class="st0" d="M95,27c-0.5-0.2-1-0.2-1.5-0.3l0,0l-25.6-1.9l-5,10.2L27,136.9c-0.1,0.2-0.1,0.4-0.1,0.5l-0.3,0.8l-0.1,0
		c26.2,19.8,52.3,18.9,52.3,18.9c-0.3,0-0.6-0.1-0.9-0.1c0.3,0,0.6,0.1,0.9,0.1l19.3-14.4l14.5-13.1l2.3-6.3l0.9-2.4l25.9-71.1
		c1-2.8-0.4-5.9-3.2-6.9L95,27L95,27z"/>
	
		<linearGradient id="SVGID_1_" gradientUnits="userSpaceOnUse" x1="321.2206" y1="-114.4055" x2="321.499" y2="-149.4788" gradientTransform="matrix(0.342 -0.9397 -0.9397 -0.342 -162.5767 341.6252)">
		<stop  offset="0" style="stop-color:#5C5C5C"/>
		<stop  offset="0.1042" style="stop-color:#979797"/>
	</linearGradient>
	<path class="st1" d="M99.4,27.2l-7.1-0.5c-0.1,0-0.3,0-0.4,0l-0.3,0c-0.1,0-0.2,0-0.2,0l-0.1,0L81,25.9l-4.3-0.3l-0.8-0.1l-0.9-0.1
		l-5,10.2l-1.2,3.4l-2,5.6c0,0,0,0,0,0l-2.9,8.4l-2,5.6L43.1,112l-1.9,5.4l-3.2,9l-1.9,5.4l-2.1,5.9l0,0c-0.1,0.4-0.1,0.8,0.1,1.1
		c0.1,0.1,0.2,0.2,0.3,0.3c0.1,0.1,0.3,0.2,0.4,0.2c0.1,0,0.2,0.1,0.3,0.1c0.1,0,0.1,0,0.1,0c0,0,0,0,0,0c0.1,0,0.1,0,0.2,0
		c0.3-0.1,0.6-0.1,0.9-0.2c6.2-1.3,10.7-5.3,14.5-10.5l15.5-19.6l2.9-8l25.7-70.5c0-0.1,0.1-0.2,0.1-0.2l0,0c0-0.1,0.1-0.2,0.1-0.4
		c0.9-2.4-1.4-3.1-2.9-3.3l6.7,0.5C99.3,27.2,99.3,27.2,99.4,27.2z"/>
	<g>
		<path class="st2" d="M69.4,153.3l-0.2,0.1C69.3,153.4,69.4,153.4,69.4,153.3z"/>
		<path class="st2" d="M62.6,118.1l-7.2,9.1c0,0,0,0,0,0c0.3,0.5,5.2,9.2,22.2,14.8c17.5,5.7,25.9,2.1,25.9,2.1c-0.1,0-0.1,0-0.2,0
			c0,0,0.1,0,0.1,0c4.1-3.5,9.1-7.8,12.6-11.5c0.7-0.7,0.2-2-0.8-2.1c-16.7-1.6-29.5-6.8-42.7-16.6
			C68.1,110.6,66.1,113.9,62.6,118.1z"/>
		<polygon class="st3" points="81,25.8 75.9,25.5 75.2,27.4 80.3,27.8 		"/>
		<polygon class="st4" points="76.8,25.4 35.3,139.4 33.6,138.8 75,25.4 		"/>
		
			<ellipse transform="matrix(0.342 -0.9397 0.9397 0.342 -88.5592 117.3845)" class="st4" cx="39.5" cy="121.9" rx="10.5" ry="4.4"/>
		<ellipse transform="matrix(0.342 -0.9397 0.9397 0.342 -88.5592 117.3845)" class="st2" cx="39.5" cy="121.9" rx="4.8" ry="2"/>
		<ellipse transform="matrix(0.342 -0.9397 0.9397 0.342 -2.6842 94.3744)" class="st4" cx="66" cy="49.1" rx="10.5" ry="4.4"/>
		<ellipse transform="matrix(0.342 -0.9397 0.9397 0.342 -2.6842 94.3744)" class="st2" cx="66" cy="49.1" rx="4.8" ry="2"/>
		
			<linearGradient id="SVGID_00000116235531911764222380000007129162536748787632_" gradientUnits="userSpaceOnUse" x1="344.3113" y1="468.9493" x2="344.3113" y2="460.6971" gradientTransform="matrix(0.342 -0.9397 -0.9397 -0.342 393.7213 544.1011)">
			<stop  offset="0.3111" style="stop-color:#000000"/>
			<stop  offset="1" style="stop-color:#37475E"/>
		</linearGradient>
		<path style="fill:url(#SVGID_00000116235531911764222380000007129162536748787632_);" d="M64.8,95.8L61,94.4
			c-1.2-0.4-1.9-1.7-1.5-2.8l22.3-61.2c0.4-1.1,1-1.6,2.8-1.6l4.6,0.3c1.8,0.2,1.9,1.7,1.5,2.8L67.8,94.6
			C67.4,95.8,66,96.2,64.8,95.8z"/>
		<path class="st2" d="M148.6,50.3l-29,79.8l-14.5,13.1l-19.3,14.4c0,0,0,0,0,0c-0.3-0.1-0.6-0.1-0.9-0.1c-0.1,0-0.1,0-0.1,0
			c-6.2-0.8-11.8-2-17-3.5l0.1,0l1.3-0.5c0.1,0,0.2,0,0.2-0.1l-0.2,0.1c-1.6,0.1-13.4-4.6-16.3-7.1l-0.5,2c-6.4-2.9-11.7-6.1-16-9.1
			c6.2-1.3,10.7-5.3,14.5-10.5l15.5-19.6l28.6-78.5c0-0.1,0.1-0.2,0.1-0.2l0,0c0-0.1,0.1-0.2,0.1-0.4c0.9-2.4-1.4-3.1-2.9-3.3
			l6.7,0.5c0.1,0,0.2,0,0.2-0.1c0.8-0.1,1.7,0,2.6,0.3l43.4,15.8C148.1,44.4,149.6,47.5,148.6,50.3z M62.6,118.1l-7.2,9.1
			c0,0,0,0,0,0c0.3,0.5,5.2,9.2,22.2,14.8c17.5,5.7,25.9,2.1,25.9,2.1c-0.1,0-0.1,0-0.2,0c0,0,0.1,0,0.1,0
			c4.1-3.5,9.1-7.8,12.6-11.5c0.7-0.7,0.2-2-0.8-2.1c-16.7-1.6-29.5-6.8-42.7-16.6C68.1,110.6,66.1,113.9,62.6,118.1z"/>
		
			<linearGradient id="SVGID_00000124859065447934074560000017820374557239943850_" gradientUnits="userSpaceOnUse" x1="287.3291" y1="-160.9778" x2="275.5483" y2="-160.6443" gradientTransform="matrix(0.342 -0.9397 -0.9397 -0.342 -162.5767 341.6252)">
			<stop  offset="0.3111" style="stop-color:#000000"/>
			<stop  offset="1" style="stop-color:#37475E"/>
		</linearGradient>
		<path style="fill:url(#SVGID_00000124859065447934074560000017820374557239943850_);" d="M62.6,118.1l-7.2,9.1c0,0,0,0,0,0
			c10.4,15.4,39.8,20.3,47.8,16.8c0,0,0.1,0,0.1,0c4.1-3.5,9.1-7.8,12.6-11.5c0.7-0.7,0.2-2-0.8-2.1c-16.7-1.6-29.5-6.8-42.7-16.6
			C68.1,110.6,66.1,113.9,62.6,118.1z"/>
		
			<linearGradient id="SVGID_00000011711864459869900580000017560767783567307153_" gradientUnits="userSpaceOnUse" x1="287.0744" y1="468.7805" x2="287.0744" y2="461.0909" gradientTransform="matrix(0.342 -0.9397 -0.9397 -0.342 393.7213 544.1011)">
			<stop  offset="0.3111" style="stop-color:#000000"/>
			<stop  offset="1" style="stop-color:#37475E"/>
		</linearGradient>
		<path style="fill:url(#SVGID_00000011711864459869900580000017560767783567307153_);" d="M60.7,108l-4.8-1.7
			c-0.8-0.3-1.7,0.1-2.1,1l-4.9,13.5c-0.3,0.8,0.1,1.7,1,2.1l0.3,0.1c0.7,0.2,1.4,0.1,1.8-0.5l9.5-12
			C62.1,109.7,61.7,108.4,60.7,108z"/>
		<path d="M103.3,144c-20.5,0.1-35-7.2-47.9-16.8c0,0,0,0,0,0c0.3,0.5,5.2,9.2,22.2,14.8c17.5,5.7,25.9,2.1,25.9,2.1
			C103.4,144,103.3,144,103.3,144z"/>
		<path d="M35.8,138.8l-0.2,0l-1,0l-0.4,0l-0.5,0c25.7,19.3,51.1,18.8,52.2,18.8c-0.3,0-0.6-0.1-0.9-0.1c-0.1,0-0.1,0-0.1,0
			c-6.2-0.8-11.8-2-17-3.5c-5.7-1.6-10.8-3.6-15.4-5.7c-6.4-2.9-11.7-6.1-16-9.1C36.2,139.1,36,138.9,35.8,138.8z"/>
		<path d="M69.4,153.3l-0.2,0.1C69.3,153.4,69.4,153.4,69.4,153.3z"/>
		<path d="M52.9,146.3l-0.5,2l-0.1,0.4l0,0.1l14.9,5.4l0.2-0.1l0.4-0.2l0.1,0l1.3-0.5C67.6,153.5,55.8,148.8,52.9,146.3z"/>
		<path class="st9" d="M91.2,26.7L91.2,26.7C91.3,26.7,91.3,26.7,91.2,26.7C91.2,26.7,91.2,26.7,91.2,26.7z"/>
		<path class="st9" d="M92.4,26.8c-0.1,0-0.1,0-0.2,0c-0.1,0-0.3,0-0.4,0l-0.3,0c-0.1,0-0.2,0-0.2,0c0,0-0.1,0-0.1,0L92.4,26.8z"/>
	</g>
</g>
</svg>
