<?xml version="1.0" encoding="utf-8"?>
<!-- Generator: Adobe Illustrator 25.4.1, SVG Export Plug-In . SVG Version: 6.00 Build 0)  -->
<svg version="1.1" id="Layer_1" xmlns="http://www.w3.org/2000/svg" xmlns:xlink="http://www.w3.org/1999/xlink" x="0px" y="0px"
	 viewBox="0 0 168 168" style="enable-background:new 0 0 168 168;" xml:space="preserve">
<style type="text/css">
	.st0{opacity:0.2;fill:#151110;enable-background:new    ;}
	.st1{fill:url(#SVGID_1_);}
	.st2{fill:#FFFFFF;}
	.st3{fill:#C00D0D;}
	.st4{fill:#151110;}
	.st5{fill:url(#SVGID_00000101805688304703357910000002332357773233389462_);}
	.st6{fill:url(#SVGID_00000098905544936459647970000007485755857658614417_);}
	.st7{fill:none;stroke:#A03394;stroke-width:9;stroke-miterlimit:10;}
	.st8{fill:url(#SVGID_00000139267300811935679780000010925552402593523849_);}
	.st9{fill:#F0F0F0;}
	.st10{fill:url(#SVGID_00000028305431145569263560000005985292043067730061_);}
	.st11{fill:url(#SVGID_00000170270140763210199800000013762362596792389037_);}
	.st12{fill:url(#SVGID_00000023982927184430087550000014208838480229106050_);}
	.st13{fill:url(#SVGID_00000099663719687951138030000009082686051593621896_);}
	.st14{fill:url(#SVGID_00000093872446832703178500000007552431059701261717_);}
	.st15{fill:url(#SVGID_00000030482661250645763180000003202410566816065456_);}
	.st16{fill:url(#SVGID_00000034788835143823729930000012534988554005219461_);}
	.st17{fill:url(#SVGID_00000002358394998260143130000011457557404876837277_);}
	.st18{fill:url(#SVGID_00000037670766801190953010000005127898786286976659_);}
	.st19{fill:url(#SVGID_00000055677933143369450440000010691997801486069162_);}
	.st20{fill:url(#SVGID_00000173131799260942497040000004951965058821517729_);}
	.st21{fill:url(#SVGID_00000120527433019012112730000007959160633422397361_);}
	.st22{fill:url(#SVGID_00000064333675866309129230000003608778145534035623_);}
	.st23{fill:url(#SVGID_00000100348108970838108010000018207652310303606673_);}
	.st24{fill:url(#SVGID_00000117674809519654435620000012009055714790254527_);}
	.st25{fill:url(#SVGID_00000119118894761043472490000002249777346116801464_);}
	.st26{fill:url(#SVGID_00000126281420978155969550000011568071544914093981_);}
	.st27{fill:url(#SVGID_00000079473776067667009720000008270851127532442796_);}
	.st28{fill:url(#SVGID_00000152243809006411101190000013223405031285401264_);}
	.st29{fill:url(#SVGID_00000024715866403709184840000015402832255650168718_);}
	.st30{fill:url(#SVGID_00000110438508384814980350000016544172095833075630_);}
	.st31{fill:url(#SVGID_00000163768931276497402900000002422140382069878193_);}
	.st32{fill:url(#SVGID_00000059283823574309504290000002243814164133987502_);}
	.st33{fill:url(#SVGID_00000128460361299222505580000005231336643657103498_);}
	.st34{fill:url(#SVGID_00000085227388274331985420000000026666779527865477_);}
	.st35{fill:url(#SVGID_00000110452650005898859260000012946333076201134513_);}
	.st36{fill:url(#SVGID_00000065794942015121344290000010154618136394347416_);}
	.st37{fill:url(#SVGID_00000013151664066697540080000008465214572792967076_);}
	.st38{fill:url(#SVGID_00000016058637388966671040000017660265246085221549_);}
	.st39{fill:url(#SVGID_00000069373639522402650420000005123241245704848258_);}
	.st40{fill:url(#SVGID_00000015332836688547568680000018439259179521371315_);}
	.st41{fill:url(#SVGID_00000120527558896941880140000010644479086530293401_);}
	.st42{fill:url(#SVGID_00000136395848676399003170000004451629295267943854_);}
	.st43{fill:url(#SVGID_00000013169636241600735080000004264458816673117078_);}
	.st44{fill:url(#SVGID_00000012433402118944357580000006509868350497921420_);}
	.st45{fill:url(#SVGID_00000146493261806615985270000012248538493846948527_);}
	.st46{fill:url(#SVGID_00000024711375579568562480000006126538405048955785_);}
	.st47{fill:url(#SVGID_00000150103668986155741100000010832806321479210393_);}
	.st48{fill:url(#SVGID_00000107556275664191791440000001662886167004650886_);}
	.st49{fill:url(#SVGID_00000176014120945585471820000007406619482637556901_);}
	.st50{fill:url(#SVGID_00000182499903545585916150000013492177077902322062_);}
	.st51{fill:url(#SVGID_00000137134292193583415960000003252002515163391634_);}
	.st52{fill:url(#SVGID_00000049912737789173430340000009791424362403540895_);}
	.st53{fill:url(#SVGID_00000062186168834923665880000009162486696843114636_);}
	.st54{fill:url(#SVGID_00000177471223089601332670000009288238766882018432_);}
	.st55{fill:url(#SVGID_00000097498893540763355880000014409556242890315913_);}
	.st56{fill:url(#SVGID_00000001644532936018440380000004981926250537039237_);}
	.st57{fill:url(#SVGID_00000116928703019513120870000013808510818157929130_);}
	.st58{fill:url(#SVGID_00000166657630347026288550000014308649465048779679_);}
	.st59{fill:url(#SVGID_00000138562528361050113620000000392666946227447212_);}
	.st60{fill:url(#SVGID_00000124158948875447123710000008386209405086492334_);}
	.st61{fill:url(#SVGID_00000058583463183950334910000011748863715057983401_);}
	.st62{fill:url(#SVGID_00000076585107026342906780000014317221625967016337_);}
	.st63{fill:url(#SVGID_00000025439906078326404980000011858676161833007513_);}
	.st64{fill:url(#SVGID_00000171706657725889991930000012744193331988149376_);}
	.st65{fill:url(#SVGID_00000049937430718046559270000000075706809117543315_);}
	.st66{fill:url(#SVGID_00000035513113928374227530000014982429789944417168_);}
	.st67{fill:url(#SVGID_00000057827206427673311290000013081822798268377218_);}
	.st68{fill:url(#SVGID_00000093895120791986654810000005486031201792411050_);}
	.st69{fill:url(#SVGID_00000065064453423487479730000009826652906665079969_);}
	.st70{fill:url(#SVGID_00000068646369630476422240000007866728969220032692_);}
	.st71{fill:url(#SVGID_00000068670857917462105120000006468584036783958689_);}
	.st72{fill:url(#SVGID_00000006681162462956927850000004316743574328189853_);}
	.st73{fill:url(#SVGID_00000086685773485570201180000017294089456175616900_);}
	.st74{fill:url(#SVGID_00000075870324490957417310000001140661586412271542_);}
	.st75{fill:url(#SVGID_00000172398438505481847830000009593883689308269185_);}
	.st76{fill:url(#SVGID_00000092441770168441146800000011730029219031808180_);}
	.st77{fill:url(#SVGID_00000044157313306032442260000008483616552721747111_);}
	.st78{fill:url(#SVGID_00000084525856943334713230000014055550610931858308_);}
	.st79{fill:url(#SVGID_00000132076962405523997460000017293953695990594951_);}
	.st80{fill:url(#SVGID_00000098196005961597994600000013973846723526834623_);}
	.st81{fill:url(#SVGID_00000065778907771656022140000010624359373768848040_);}
	.st82{fill:url(#SVGID_00000099663706933812905110000000580896791205797006_);}
	.st83{fill:url(#SVGID_00000127747211821316680720000013050036380549093507_);}
	.st84{fill:url(#SVGID_00000076575394562845783350000002243529698280352418_);}
	.st85{fill:url(#SVGID_00000035516260636278165890000000258660017046884245_);}
	.st86{fill:url(#SVGID_00000076592410804341224340000009633145208121493429_);}
	.st87{fill:url(#SVGID_00000049935060086603469500000002634546747518641287_);}
	.st88{fill:url(#SVGID_00000176008098251722737020000004572524888380019124_);}
	.st89{fill:url(#SVGID_00000116212675039522887850000011967492638259757443_);}
	.st90{fill:url(#SVGID_00000008143981129045145110000014998793746756857764_);}
	.st91{fill:url(#SVGID_00000088812800956005851690000018030062877515550593_);}
	.st92{fill:url(#SVGID_00000119117543840904006110000003568138282534976915_);}
	.st93{fill:url(#SVGID_00000175316512531031461670000016266043990940283055_);}
	.st94{fill:url(#SVGID_00000038390228654417158460000006696690942304935839_);}
	.st95{fill:url(#SVGID_00000124121362474810884320000009823032522803584143_);}
	.st96{fill:url(#SVGID_00000074399510372460737340000010772742248928604593_);}
	.st97{fill:url(#SVGID_00000080170810087220793530000015235824242773896077_);}
	.st98{fill:url(#SVGID_00000133489086117795645410000000174583393208418476_);}
	.st99{fill:url(#SVGID_00000113349601803218818380000007959381100883390081_);}
	.st100{fill:url(#SVGID_00000060725560497038341510000000058346781966293902_);}
	.st101{fill:url(#SVGID_00000051362620374928832440000007578911879099233161_);}
	.st102{fill:url(#SVGID_00000145052825819990258430000001215029925218880922_);}
	.st103{fill:url(#SVGID_00000003821328276427090720000006509438937439198115_);}
	.st104{fill:url(#SVGID_00000016755180959684777870000013644701611921854111_);}
	.st105{fill:url(#SVGID_00000055675289625406517410000015988245077398163642_);}
	.st106{fill:url(#SVGID_00000155836459770031248140000010991022778894759819_);}
	.st107{fill:url(#SVGID_00000047019508898261851000000010848940668587139245_);}
	.st108{fill:url(#SVGID_00000054240957506150736680000014955178556727169977_);}
	.st109{fill:url(#SVGID_00000176740110025326463410000012545159302855183033_);}
	.st110{fill:url(#SVGID_00000170996587970905358040000018313060579452863920_);}
	.st111{fill:url(#SVGID_00000139980962060953058430000005377365272528603578_);}
	.st112{fill:url(#SVGID_00000034768089788046382690000000055122081401444495_);}
	.st113{fill:url(#SVGID_00000061460285201923638980000012776307368252954771_);}
	.st114{fill:url(#SVGID_00000030468973505484658000000003782940653188580012_);}
	.st115{fill:url(#SVGID_00000078011145908897451900000001524510598955225772_);}
	.st116{fill:url(#SVGID_00000137823198928074196150000018192060087167521949_);}
	.st117{fill:url(#SVGID_00000003808541907985148150000000016051103658386832_);}
	.st118{fill:url(#SVGID_00000173126132983432170280000001127091328749414562_);}
	.st119{fill:url(#SVGID_00000177475977112887619680000010461888304114883000_);}
	.st120{fill:url(#SVGID_00000010996293580768144370000016154561376799448727_);}
	.st121{fill:url(#SVGID_00000083067392467598443700000001707076742374425228_);}
	.st122{fill:url(#SVGID_00000049190171047479036150000006486641309923144361_);}
	.st123{fill:url(#SVGID_00000108281911548823716890000002971595756527927705_);}
	.st124{fill:url(#SVGID_00000140728444497873637710000012401812024802168988_);}
	.st125{fill:url(#SVGID_00000159469812298275556440000000185939593462034830_);}
	.st126{fill:url(#SVGID_00000155142343966624662090000016465022322251825819_);}
	.st127{fill:url(#SVGID_00000129177283340558760560000014762109188536241795_);}
	.st128{fill:url(#SVGID_00000096018045222537311020000011056026134819957143_);}
	.st129{fill:url(#SVGID_00000051358505935285678770000001384568891383016865_);}
	.st130{fill:url(#SVGID_00000141441617297704759280000016304303042973494199_);}
	.st131{fill:url(#SVGID_00000137097359837508391280000012763396969766250674_);}
	.st132{fill:url(#SVGID_00000005244266325511380110000016774369331669921675_);}
	.st133{fill:url(#SVGID_00000072237911247702637930000007618066541595096221_);}
	.st134{fill:url(#SVGID_00000005242878452336584340000009890453923606922387_);}
	.st135{fill:url(#SVGID_00000072247229573586923050000001319466598962690954_);}
	.st136{fill:url(#SVGID_00000044174517238500467080000008495458197647546021_);}
	.st137{fill:url(#SVGID_00000040573695401053307920000015497312601576476545_);}
	.st138{fill:url(#SVGID_00000029755189652559217890000016410588448739043506_);}
	.st139{fill:url(#SVGID_00000087374693951878897230000003389375418758973872_);}
	.st140{fill:url(#SVGID_00000116201466421643805550000003275725017231988662_);}
	.st141{fill:url(#SVGID_00000060750334095326095360000000478978767717599384_);}
	.st142{fill:url(#SVGID_00000013180989310728400700000002434620924097691835_);}
	.st143{fill:url(#SVGID_00000068676933818619484230000017184584409019664273_);}
	.st144{fill:url(#SVGID_00000183243499191202338860000014726913606948935082_);}
	.st145{fill:url(#SVGID_00000054250884168927700920000009360721862280989103_);}
	.st146{fill:url(#SVGID_00000042013701394432805950000005809874493410192572_);}
	.st147{fill:url(#SVGID_00000125577740335617070430000005913777127785475985_);}
	.st148{fill:url(#SVGID_00000146494102279076465270000000293957390405987998_);}
	.st149{fill:url(#SVGID_00000141444923905036449400000006698001019169687720_);}
</style>
<g>
	<path class="st0" d="M106,29.2c-0.4-0.2-0.9-0.4-1.4-0.6l0,0l-24.9-6.3L73,31.5l-53.1,94.2c-0.1,0.2-0.2,0.3-0.2,0.5l-0.4,0.7
		l-0.1,0c22.4,24,48.2,27.7,48.2,27.7c-0.3-0.1-0.6-0.2-0.9-0.3c0.3,0.1,0.6,0.2,0.9,0.3L89,143.7l16.5-10.4l3.3-5.8l1.3-2.3
		L148,59.7c1.5-2.6,0.6-5.9-2-7.4L106,29.2L106,29.2z"/>
	
		<linearGradient id="SVGID_1_" gradientUnits="userSpaceOnUse" x1="321.2206" y1="-114.4055" x2="321.499" y2="-149.4788" gradientTransform="matrix(0.5 -0.866 -0.866 -0.5 -202.2616 294.3568)">
		<stop  offset="0" style="stop-color:#5C5C5C"/>
		<stop  offset="0.1042" style="stop-color:#979797"/>
	</linearGradient>
	<path class="st1" d="M110.3,30.2l-7-1.7c-0.1,0-0.2-0.1-0.4-0.1l-0.3-0.1c-0.1,0-0.2,0-0.2-0.1l-0.1,0l-10-2.5l-4.1-1l-0.8-0.2
		l-0.9-0.2l-6.7,9.2l-1.8,3.1l-2.9,5.1c0,0,0,0,0,0l-4.4,7.7l-2.9,5.1L40.1,104l-2.8,5l-4.7,8.4l-2.8,5l-3.1,5.4l0,0
		c-0.2,0.4-0.2,0.8-0.1,1.1c0,0.1,0.1,0.2,0.2,0.3c0.1,0.1,0.2,0.2,0.4,0.3c0.1,0,0.2,0.1,0.3,0.1c0,0,0.1,0,0.1,0c0,0,0,0,0,0
		c0.1,0,0.1,0,0.2,0c0.3,0,0.6,0,1,0c6.3-0.2,11.5-3.3,16.1-7.8l18.7-16.6l4.2-7.3l37.5-65c0-0.1,0.1-0.2,0.2-0.2l0,0
		c0-0.1,0.1-0.2,0.2-0.3c1.3-2.2-0.8-3.3-2.2-3.7l6.5,1.7C110.2,30.2,110.3,30.2,110.3,30.2z"/>
	<g>
		<path class="st2" d="M58.9,149.2l-0.2,0C58.8,149.3,58.9,149.3,58.9,149.2z"/>
		<path class="st2" d="M58.4,113.3l-8.7,7.7c0,0,0,0,0,0c0.2,0.6,3.5,10,19.3,18.4c16.2,8.7,25.1,6.5,25.1,6.5c-0.1,0-0.1,0-0.2,0
			c0,0,0.1,0,0.1,0c4.6-2.8,10.4-6.1,14.4-9.1c0.8-0.6,0.5-1.9-0.4-2.2c-16.1-4.5-27.8-11.8-39.2-23.8
			C65.1,106.9,62.5,109.8,58.4,113.3z"/>
		<polygon class="st3" points="92.5,25.6 87.5,24.4 86.5,26.2 91.4,27.5 		"/>
		<polygon class="st4" points="88.4,24.5 27.7,129.6 26.2,128.7 86.6,24.2 		"/>
		<ellipse transform="matrix(0.5 -0.866 0.866 0.5 -80.4768 86.8037)" class="st4" cx="34.9" cy="113.1" rx="10.5" ry="4.4"/>
		<ellipse transform="matrix(0.5 -0.866 0.866 0.5 -80.4768 86.8037)" class="st2" cx="34.9" cy="113.1" rx="4.8" ry="2"/>
		<ellipse transform="matrix(0.5 -0.866 0.866 0.5 -2.9768 86.8037)" class="st4" cx="73.7" cy="46" rx="10.5" ry="4.4"/>
		<ellipse transform="matrix(0.5 -0.866 0.866 0.5 -2.9768 86.8037)" class="st2" cx="73.7" cy="46" rx="4.8" ry="2"/>
		
			<linearGradient id="SVGID_00000101100494881766622960000017361551999513340065_" gradientUnits="userSpaceOnUse" x1="344.3113" y1="468.9493" x2="344.3113" y2="460.6971" gradientTransform="matrix(0.5 -0.866 -0.866 -0.5 310.4254 590.3568)">
			<stop  offset="0.3111" style="stop-color:#000000"/>
			<stop  offset="1" style="stop-color:#37475E"/>
		</linearGradient>
		<path style="fill:url(#SVGID_00000101100494881766622960000017361551999513340065_);" d="M64.4,91.7l-3.6-2.1c-1.1-0.7-1.6-2-1-3
			l32.5-56.4c0.6-1,1.3-1.4,3.1-1.1l4.5,1.1c1.8,0.6,1.6,2,1,3L67.5,91.1C66.9,92.2,65.5,92.4,64.4,91.7z"/>
		<path class="st2" d="M154.8,61.5L112.3,135l-16.5,10.4l-21.5,10.8c0,0,0,0,0,0c-0.3-0.1-0.5-0.2-0.8-0.3c-0.1,0-0.1,0-0.1,0
			c-5.9-1.9-11.3-4-16.1-6.4l0.1,0l1.4-0.3c0.1,0,0.2,0,0.2,0l-0.2,0c-1.6-0.2-12.4-6.8-14.8-9.9l-0.8,1.9
			c-5.8-4-10.5-8.1-14.2-11.7c6.3-0.2,11.5-3.3,16.1-7.8l18.7-16.6l41.8-72.3c0-0.1,0.1-0.2,0.2-0.2l0,0c0-0.1,0.1-0.2,0.2-0.3
			c1.3-2.2-0.8-3.3-2.2-3.7l6.5,1.7c0.1,0,0.2,0,0.2,0c0.8,0,1.7,0.3,2.5,0.7l40,23.1C155.3,55.6,156.3,58.9,154.8,61.5z
			 M58.4,113.3l-8.7,7.7c0,0,0,0,0,0c0.2,0.6,3.5,10,19.3,18.4c16.2,8.7,25.1,6.5,25.1,6.5c-0.1,0-0.1,0-0.2,0c0,0,0.1,0,0.1,0
			c4.6-2.8,10.4-6.1,14.4-9.1c0.8-0.6,0.5-1.9-0.4-2.2c-16.1-4.5-27.8-11.8-39.2-23.8C65.1,106.9,62.5,109.8,58.4,113.3z"/>
		
			<linearGradient id="SVGID_00000161600759461886319990000011239414427568951175_" gradientUnits="userSpaceOnUse" x1="287.3291" y1="-160.9778" x2="275.5483" y2="-160.6443" gradientTransform="matrix(0.5 -0.866 -0.866 -0.5 -202.2616 294.3568)">
			<stop  offset="0.3111" style="stop-color:#000000"/>
			<stop  offset="1" style="stop-color:#37475E"/>
		</linearGradient>
		<path style="fill:url(#SVGID_00000161600759461886319990000011239414427568951175_);" d="M58.4,113.3l-8.7,7.7c0,0,0,0,0,0
			c7.6,17,35.7,26.9,44.2,24.9c0,0,0.1,0,0.1,0c4.6-2.8,10.4-6.1,14.4-9.1c0.8-0.6,0.5-1.9-0.4-2.2c-16.1-4.5-27.8-11.8-39.2-23.8
			C65.1,106.9,62.5,109.8,58.4,113.3z"/>
		
			<linearGradient id="SVGID_00000178207044024297059770000008256090780836564625_" gradientUnits="userSpaceOnUse" x1="287.0744" y1="468.7805" x2="287.0744" y2="461.0909" gradientTransform="matrix(0.5 -0.866 -0.866 -0.5 310.4254 590.3568)">
			<stop  offset="0.3111" style="stop-color:#000000"/>
			<stop  offset="1" style="stop-color:#37475E"/>
		</linearGradient>
		<path style="fill:url(#SVGID_00000178207044024297059770000008256090780836564625_);" d="M58.2,103.1l-4.4-2.5
			c-0.8-0.5-1.7-0.2-2.2,0.6l-7.2,12.5c-0.5,0.8-0.2,1.7,0.6,2.2l0.3,0.2c0.6,0.3,1.3,0.3,1.8-0.2l11.4-10.2
			C59.3,105,59.1,103.6,58.2,103.1z"/>
		<path d="M93.9,145.9c-20.2-3.4-33.3-13.2-44.2-24.9c0,0,0,0,0,0c0.2,0.6,3.5,10,19.3,18.4c16.2,8.7,25.1,6.5,25.1,6.5
			C94,145.9,93.9,145.9,93.9,145.9z"/>
		<path d="M28.3,129l-0.2,0l-1-0.1l-0.4-0.1l-0.5-0.1c22,23.4,47.1,27.4,48.1,27.6c-0.3-0.1-0.5-0.2-0.8-0.3c-0.1,0-0.1,0-0.1,0
			c-5.9-1.9-11.3-4-16.1-6.4c-5.4-2.6-10.1-5.4-14.2-8.3c-5.8-4-10.5-8.1-14.2-11.7C28.7,129.4,28.5,129.2,28.3,129z"/>
		<path d="M58.9,149.2l-0.2,0C58.8,149.3,58.9,149.3,58.9,149.2z"/>
		<path d="M43.9,139.4l-0.8,1.9l-0.1,0.3l-0.1,0.1l13.8,7.9l0.2-0.1l0.4-0.1l0.1,0l1.4-0.3C57.1,149.1,46.3,142.4,43.9,139.4z"/>
		<path class="st9" d="M102.4,28.3L102.4,28.3C102.4,28.3,102.4,28.3,102.4,28.3C102.4,28.3,102.4,28.3,102.4,28.3z"/>
		<path class="st9" d="M103.5,28.6c0,0-0.1,0-0.1,0c-0.1,0-0.2-0.1-0.4-0.1l-0.3-0.1c-0.1,0-0.2,0-0.2-0.1c0,0-0.1,0-0.1,0
			L103.5,28.6z"/>
	</g>
</g>
</svg>
