<?xml version="1.0" encoding="utf-8"?>
<!-- Generator: Adobe Illustrator 25.4.1, SVG Export Plug-In . SVG Version: 6.00 Build 0)  -->
<svg version="1.1" id="Layer_1" xmlns="http://www.w3.org/2000/svg" xmlns:xlink="http://www.w3.org/1999/xlink" x="0px" y="0px"
	 viewBox="0 0 168 168" style="enable-background:new 0 0 168 168;" xml:space="preserve">
<style type="text/css">
	.st0{opacity:0.2;fill:#151110;enable-background:new    ;}
	.st1{fill:url(#SVGID_1_);}
	.st2{fill:#FFFFFF;}
	.st3{fill:#C00D0D;}
	.st4{fill:#151110;}
	.st5{fill:url(#SVGID_00000175281782005171935280000003971196549879723936_);}
	.st6{fill:url(#SVGID_00000054250201819146493280000017456553051958446743_);}
	.st7{fill:none;stroke:#A03394;stroke-width:9;stroke-miterlimit:10;}
	.st8{fill:url(#SVGID_00000176025360950461769770000008010237657534817157_);}
	.st9{fill:#F0F0F0;}
	.st10{fill:url(#SVGID_00000104702857106981227580000005423686036879464074_);}
	.st11{fill:url(#SVGID_00000015352501883360990200000014164726235813323652_);}
	.st12{fill:url(#SVGID_00000180332839856674595200000000965664368910994092_);}
	.st13{fill:url(#SVGID_00000147932306379219458690000000957911039302256276_);}
	.st14{fill:url(#SVGID_00000156572812403910770070000011440345456469013139_);}
	.st15{fill:url(#SVGID_00000165220257508495820000000000731682668093537197_);}
	.st16{fill:url(#SVGID_00000004515079745738773160000012157531373732031930_);}
	.st17{fill:url(#SVGID_00000029739563297526451550000003650221476300887188_);}
	.st18{fill:url(#SVGID_00000091724096622833542360000009821675971894601129_);}
	.st19{fill:url(#SVGID_00000020371095668625890740000008193752023514673578_);}
	.st20{fill:url(#SVGID_00000076573641764551392060000008244998144871328932_);}
	.st21{fill:url(#SVGID_00000094606946829878492960000017212672333530108573_);}
	.st22{fill:url(#SVGID_00000098210355629458014010000000131884649298214041_);}
	.st23{fill:url(#SVGID_00000014607864606452674360000005752959293953314743_);}
	.st24{fill:url(#SVGID_00000137825156864610719290000006069751974001460643_);}
	.st25{fill:url(#SVGID_00000025407402891656355060000001163291630851215269_);}
	.st26{fill:url(#SVGID_00000004510398868902256500000003453298834001583251_);}
	.st27{fill:url(#SVGID_00000077309382918945204710000010400946302554307212_);}
	.st28{fill:url(#SVGID_00000041258874503459482220000014367807442210825114_);}
	.st29{fill:url(#SVGID_00000092453983479600122470000017849930115977402528_);}
	.st30{fill:url(#SVGID_00000129887515273497880910000018036044937150666680_);}
	.st31{fill:url(#SVGID_00000016782694489848881730000008403810199211858606_);}
	.st32{fill:url(#SVGID_00000170257275449662564570000003981825248552443549_);}
	.st33{fill:url(#SVGID_00000125569021043373069400000001565690250902217398_);}
	.st34{fill:url(#SVGID_00000077318349985909548290000017753599282031781802_);}
	.st35{fill:url(#SVGID_00000079461103863075897390000001995636979043362750_);}
	.st36{fill:url(#SVGID_00000180340654275841863790000001439414544081703866_);}
	.st37{fill:url(#SVGID_00000026149984231437836230000001119745072929015949_);}
	.st38{fill:url(#SVGID_00000175298656307676581030000015978221191313727909_);}
	.st39{fill:url(#SVGID_00000065753602804689501030000000772360916628954034_);}
	.st40{fill:url(#SVGID_00000112613821974474516750000017203596935826705306_);}
	.st41{fill:url(#SVGID_00000029753087835212900790000016636020356549148844_);}
	.st42{fill:url(#SVGID_00000057829010320896531340000016860676339598900102_);}
	.st43{fill:url(#SVGID_00000120545177091901962900000006222373526688621214_);}
	.st44{fill:url(#SVGID_00000083804223555704978200000011687578642387107718_);}
	.st45{fill:url(#SVGID_00000111873555654885442110000002691105906813797310_);}
	.st46{fill:url(#SVGID_00000077302668125310871840000005478720779991299001_);}
	.st47{fill:url(#SVGID_00000134241738510131511950000002865260405163638700_);}
	.st48{fill:url(#SVGID_00000178920605262722105390000013254167021796896179_);}
	.st49{fill:url(#SVGID_00000121267862816733427430000013093866107591000742_);}
	.st50{fill:url(#SVGID_00000031916713434498443290000013843149465655403400_);}
	.st51{fill:url(#SVGID_00000052809867387136434810000010610106844514588331_);}
	.st52{fill:url(#SVGID_00000105404981453678575150000007461670153615280028_);}
	.st53{fill:url(#SVGID_00000079445201747087221430000016554661784530289815_);}
	.st54{fill:url(#SVGID_00000072238638516639532080000009220009457550879397_);}
	.st55{fill:url(#SVGID_00000116236851786937436160000000597071222787689860_);}
	.st56{fill:url(#SVGID_00000013906692856847578080000009891930986313205421_);}
	.st57{fill:url(#SVGID_00000092430140282844116710000017454859145472369827_);}
	.st58{fill:url(#SVGID_00000162348761073891963900000007994319929923908009_);}
	.st59{fill:url(#SVGID_00000180336562350246132330000008403024262807753913_);}
	.st60{fill:url(#SVGID_00000114047913485633211070000017312196589458728348_);}
	.st61{fill:url(#SVGID_00000018196247799611207960000000056844865315924623_);}
	.st62{fill:url(#SVGID_00000122721443795164281460000005199923191325438606_);}
	.st63{fill:url(#SVGID_00000131356354917785988100000013766963205933586576_);}
	.st64{fill:url(#SVGID_00000127031787833212042180000002045263158916840589_);}
	.st65{fill:url(#SVGID_00000018236548965853139910000017102199753088105636_);}
	.st66{fill:url(#SVGID_00000049189228656188710090000017490649878877176981_);}
	.st67{fill:url(#SVGID_00000162352598342693284760000010642303035734780079_);}
	.st68{fill:url(#SVGID_00000000941834645842052780000018180628257212852879_);}
	.st69{fill:url(#SVGID_00000064311525499208453670000000934989965541314207_);}
	.st70{fill:url(#SVGID_00000005265145074856000890000008038638690892375739_);}
	.st71{fill:url(#SVGID_00000140704866370799725620000001781917344338313653_);}
	.st72{fill:url(#SVGID_00000100355974539761896920000015108777922471507592_);}
	.st73{fill:url(#SVGID_00000149377870275773059220000007737594187107427775_);}
	.st74{fill:url(#SVGID_00000130622939728604398140000003960580162775944623_);}
	.st75{fill:url(#SVGID_00000170260175079922434410000005723282081904783240_);}
	.st76{fill:url(#SVGID_00000180366668637058002040000010714945267352904104_);}
	.st77{fill:url(#SVGID_00000050661149504427458650000009244713215859055023_);}
	.st78{fill:url(#SVGID_00000126289586115128005990000012777652538406702499_);}
	.st79{fill:url(#SVGID_00000091708612570316767130000003096683320444318650_);}
	.st80{fill:url(#SVGID_00000018230755283973531670000005786387903705971115_);}
	.st81{fill:url(#SVGID_00000131353608482126736140000011261689639111572125_);}
	.st82{fill:url(#SVGID_00000015350744746351717130000002653855197024807313_);}
	.st83{fill:url(#SVGID_00000037652624306467395590000004646227163413746343_);}
	.st84{fill:url(#SVGID_00000029036017460567645300000013180346985899592108_);}
	.st85{fill:url(#SVGID_00000175287021156283922130000000160268884955678911_);}
	.st86{fill:url(#SVGID_00000022556709244407013840000016501670218811548093_);}
	.st87{fill:url(#SVGID_00000031192486972048035370000012098643426773108921_);}
	.st88{fill:url(#SVGID_00000167354629451922525460000010045330175574765708_);}
	.st89{fill:url(#SVGID_00000067215873420689411610000009975228933903951758_);}
	.st90{fill:url(#SVGID_00000039101375720005740160000004985273013663909770_);}
	.st91{fill:url(#SVGID_00000112614031990109677270000013214202462008065678_);}
	.st92{fill:url(#SVGID_00000106129998126362214050000013935484511294153856_);}
	.st93{fill:url(#SVGID_00000091007491147496356600000012225803765173910446_);}
	.st94{fill:url(#SVGID_00000154426164231943513090000009143704734009144504_);}
	.st95{fill:url(#SVGID_00000078743331273140924070000011160317706885952897_);}
	.st96{fill:url(#SVGID_00000174592671239590983780000002792752508649067136_);}
	.st97{fill:url(#SVGID_00000010302087934783300590000003047407026701907345_);}
	.st98{fill:url(#SVGID_00000057123437101933638790000009539750860112149905_);}
	.st99{fill:url(#SVGID_00000000181598561103688900000003427507431571590814_);}
	.st100{fill:url(#SVGID_00000179610037005665962670000006083388055444305554_);}
	.st101{fill:url(#SVGID_00000059994600448755539930000017549049768129126838_);}
	.st102{fill:url(#SVGID_00000106108190960489425730000006725847437883388073_);}
	.st103{fill:url(#SVGID_00000090271149809356291810000006692756893732671369_);}
	.st104{fill:url(#SVGID_00000144295596130365471700000000832851628549446847_);}
	.st105{fill:url(#SVGID_00000134216780385571282930000008197188795023381424_);}
	.st106{fill:url(#SVGID_00000150081490442924823220000003508048886361219496_);}
	.st107{fill:url(#SVGID_00000011717776571144677780000015533146236926045059_);}
	.st108{fill:url(#SVGID_00000067954334417481356160000003799886280371288722_);}
	.st109{fill:url(#SVGID_00000111167439274330124030000008383786667141575330_);}
	.st110{fill:url(#SVGID_00000173873088249387440140000008016507997574453130_);}
	.st111{fill:url(#SVGID_00000070092325410277927780000000214304695760096403_);}
	.st112{fill:url(#SVGID_00000173140731690748953440000007982237610276067257_);}
	.st113{fill:url(#SVGID_00000040572066859072137230000011569435268241676672_);}
	.st114{fill:url(#SVGID_00000123413190826100706310000005368118709715719338_);}
	.st115{fill:url(#SVGID_00000150075704584888853270000002295683680447036824_);}
	.st116{fill:url(#SVGID_00000075866977146528020340000004395300306743656856_);}
	.st117{fill:url(#SVGID_00000018922957142281823460000003103373459412516999_);}
	.st118{fill:url(#SVGID_00000121237276286887553210000009606515659810738593_);}
	.st119{fill:url(#SVGID_00000034086359568962264250000008603250866731818934_);}
	.st120{fill:url(#SVGID_00000026846885725780923630000012916865814680162963_);}
	.st121{fill:url(#SVGID_00000060017726487102586640000012820107483805179317_);}
	.st122{fill:url(#SVGID_00000101824309585564202560000015938884933902918817_);}
	.st123{fill:url(#SVGID_00000116216520039737477110000010949409961387912344_);}
	.st124{fill:url(#SVGID_00000020393377741305231800000016557532881817112974_);}
	.st125{fill:url(#SVGID_00000080908635509886830380000005105763137761081753_);}
	.st126{fill:url(#SVGID_00000122718667259674737030000002652746035427220127_);}
	.st127{fill:url(#SVGID_00000041260281957216738000000003606141705587142578_);}
	.st128{fill:url(#SVGID_00000099659632547667444270000007690890878508349356_);}
	.st129{fill:url(#SVGID_00000054258112889366637740000007276565560341629826_);}
	.st130{fill:url(#SVGID_00000100343012077327248880000008474715659643488191_);}
	.st131{fill:url(#SVGID_00000083058106927702090750000015290668294358625958_);}
	.st132{fill:url(#SVGID_00000004518333601235560200000008764320774520431241_);}
	.st133{fill:url(#SVGID_00000137119235955672698910000005415831113707440783_);}
	.st134{fill:url(#SVGID_00000058554832978004030290000017462315530173026471_);}
	.st135{fill:url(#SVGID_00000074417471580894080280000018024309254850176413_);}
	.st136{fill:url(#SVGID_00000005258760897586354330000015800935099279941799_);}
	.st137{fill:url(#SVGID_00000013183921913889622680000004001333663673252997_);}
	.st138{fill:url(#SVGID_00000127010151427494116850000005444754883898329218_);}
	.st139{fill:url(#SVGID_00000121253938474476682470000008705618031886665620_);}
	.st140{fill:url(#SVGID_00000121275689257174127300000004808534594501214862_);}
	.st141{fill:url(#SVGID_00000085971706895877301370000005273245271958109568_);}
	.st142{fill:url(#SVGID_00000170994111185668213930000003752889811781203899_);}
	.st143{fill:url(#SVGID_00000078747500374903215500000004491198485126064045_);}
	.st144{fill:url(#SVGID_00000109741535761683079020000005209418442519815565_);}
	.st145{fill:url(#SVGID_00000108996466746364565140000016870981393258799781_);}
	.st146{fill:url(#SVGID_00000083781893552544926350000007818140215696612765_);}
	.st147{fill:url(#SVGID_00000012447196297767277300000003646590151993292211_);}
	.st148{fill:url(#SVGID_00000171680911914395312210000002495691999423985320_);}
	.st149{fill:url(#SVGID_00000023975605751234374590000013329324306553057440_);}
</style>
<g>
	<path class="st0" d="M116.2,33.3c-0.4-0.3-0.8-0.6-1.3-0.8l0,0L91.5,22l-8.2,7.9l-68.6,83.5c-0.1,0.2-0.3,0.3-0.2,0.4l-0.5,0.6
		l-0.1-0.1c17.9,27.5,42.7,35.7,42.7,35.7c-0.3-0.1-0.5-0.3-0.8-0.4c0.3,0.1,0.5,0.3,0.8,0.4l23-6.9l18.1-7.4l4.3-5.1l1.7-2l48.7-58
		c1.9-2.3,1.6-5.7-0.7-7.6L116.2,33.3L116.2,33.3z"/>
	
		<linearGradient id="SVGID_1_" gradientUnits="userSpaceOnUse" x1="321.2206" y1="-114.4055" x2="321.499" y2="-149.4788" gradientTransform="matrix(0.6428 -0.766 -0.766 -0.6428 -233.4685 240.9437)">
		<stop  offset="0" style="stop-color:#5C5C5C"/>
		<stop  offset="0.1042" style="stop-color:#979797"/>
	</linearGradient>
	<path class="st1" d="M120.3,35.1l-6.5-2.9c-0.1-0.1-0.2-0.1-0.3-0.2l-0.3-0.1c-0.1,0-0.2-0.1-0.2-0.1l-0.1,0l-9.4-4.2l-3.9-1.7
		l-0.8-0.3l-0.9-0.4L89.7,33l-2.3,2.8l-3.7,4.6c0,0,0,0,0,0L78,47.2l-3.8,4.6l-36,43.7l-3.6,4.4l-6.1,7.4l-3.6,4.4l-3.9,4.8l0,0
		c-0.3,0.3-0.3,0.7-0.2,1.1c0,0.1,0.1,0.3,0.1,0.4c0.1,0.1,0.2,0.3,0.3,0.4c0.1,0.1,0.2,0.1,0.3,0.2c0,0,0.1,0,0.1,0.1c0,0,0,0,0,0
		c0.1,0,0.1,0.1,0.2,0.1c0.3,0.1,0.6,0.1,0.9,0.2c6.3,0.9,11.9-1.3,17.2-4.9l21.3-13.1l5.5-6.5L115,36.9c0.1-0.1,0.1-0.1,0.2-0.2
		l0,0c0.1-0.1,0.1-0.2,0.2-0.3c1.6-1.9-0.2-3.4-1.5-4.1l6.1,2.8C120.1,35.1,120.2,35.1,120.3,35.1z"/>
	<g>
		<path class="st2" d="M48.9,143.4l-0.2,0C48.8,143.4,48.9,143.4,48.9,143.4z"/>
		<path class="st2" d="M54.6,107.9l-9.9,6c0,0,0,0,0,0c0.1,0.6,1.7,10.4,15.8,21.4c14.5,11.4,23.6,10.8,23.6,10.8
			c-0.1,0-0.1,0-0.2-0.1c0,0,0.1,0,0.1,0c5-1.9,11.3-4.3,15.8-6.5c0.9-0.4,0.8-1.8-0.1-2.3c-15.1-7.2-25.4-16.4-34.4-30.2
			C62.3,102.8,59.3,105.2,54.6,107.9z"/>
		<polygon class="st3" points="103.4,27.5 98.8,25.4 97.4,27 102.1,29.1 		"/>
		<polygon class="st4" points="99.6,25.7 21.6,118.6 20.2,117.5 97.9,25.1 		"/>
		<ellipse transform="matrix(0.6428 -0.766 0.766 0.6428 -68.0942 61.2242)" class="st4" cx="31.6" cy="103.6" rx="10.5" ry="4.4"/>
		<ellipse transform="matrix(0.6428 -0.766 0.766 0.6428 -68.0942 61.2242)" class="st2" cx="31.6" cy="103.6" rx="4.8" ry="2"/>
		<ellipse transform="matrix(0.6428 -0.766 0.766 0.6428 -4.8205 78.1784)" class="st4" cx="81.4" cy="44.3" rx="10.5" ry="4.4"/>
		<ellipse transform="matrix(0.6428 -0.766 0.766 0.6428 -4.8205 78.1784)" class="st2" cx="81.4" cy="44.3" rx="4.8" ry="2"/>
		
			<linearGradient id="SVGID_00000098221960188837429690000014611327464572693121_" gradientUnits="userSpaceOnUse" x1="344.3113" y1="468.9493" x2="344.3113" y2="460.6971" gradientTransform="matrix(0.6428 -0.766 -0.766 -0.6428 220.0298 621.474)">
			<stop  offset="0.3111" style="stop-color:#000000"/>
			<stop  offset="1" style="stop-color:#37475E"/>
		</linearGradient>
		<path style="fill:url(#SVGID_00000098221960188837429690000014611327464572693121_);" d="M64.3,87.7l-3.1-2.6
			c-1-0.8-1.3-2.2-0.5-3.2l41.8-49.9c0.8-0.9,1.5-1.2,3.2-0.6l4.2,1.8c1.6,0.9,1.3,2.2,0.5,3.2L67.5,87.6
			C66.7,88.6,65.3,88.5,64.3,87.7z"/>
		<path class="st2" d="M158.6,73.6l-54.6,65l-18.1,7.4l-23,6.9c0,0,0,0,0,0c-0.2-0.2-0.5-0.3-0.8-0.4c-0.1,0-0.1,0-0.1-0.1
			c-5.5-2.9-10.4-5.9-14.8-9.1l0.1,0l1.4-0.1c0.1,0,0.2,0,0.2,0l-0.2,0c-1.5-0.5-11-8.9-12.9-12.3l-1.2,1.8c-5-4.9-8.9-9.8-11.9-14
			c6.3,0.9,11.9-1.3,17.2-4.9l21.3-13.1l53.7-64c0.1-0.1,0.1-0.1,0.2-0.2l0,0c0.1-0.1,0.1-0.2,0.2-0.3c1.6-1.9-0.2-3.4-1.5-4.1
			l6.1,2.8c0.1,0,0.2,0,0.2,0c0.8,0.2,1.6,0.6,2.3,1.2L158,66C160.1,67.9,160.5,71.3,158.6,73.6z M54.6,107.9l-9.9,6c0,0,0,0,0,0
			c0.1,0.6,1.7,10.4,15.8,21.4c14.5,11.4,23.6,10.8,23.6,10.8c-0.1,0-0.1,0-0.2-0.1c0,0,0.1,0,0.1,0c5-1.9,11.3-4.3,15.8-6.5
			c0.9-0.4,0.8-1.8-0.1-2.3c-15.1-7.2-25.4-16.4-34.4-30.2C62.3,102.8,59.3,105.2,54.6,107.9z"/>
		
			<linearGradient id="SVGID_00000163762939299279896850000017057006337409781942_" gradientUnits="userSpaceOnUse" x1="287.3291" y1="-160.9778" x2="275.5483" y2="-160.6443" gradientTransform="matrix(0.6428 -0.766 -0.766 -0.6428 -233.4685 240.9437)">
			<stop  offset="0.3111" style="stop-color:#000000"/>
			<stop  offset="1" style="stop-color:#37475E"/>
		</linearGradient>
		<path style="fill:url(#SVGID_00000163762939299279896850000017057006337409781942_);" d="M54.6,107.9l-9.9,6c0,0,0,0,0,0
			c4.5,18.1,30.5,32.7,39.2,32.2c0,0,0.1,0,0.1,0c5-1.9,11.3-4.3,15.8-6.5c0.9-0.4,0.8-1.8-0.1-2.3c-15.1-7.2-25.4-16.4-34.4-30.2
			C62.3,102.8,59.3,105.2,54.6,107.9z"/>
		
			<linearGradient id="SVGID_00000086677969410915895610000012081575418934975887_" gradientUnits="userSpaceOnUse" x1="287.0744" y1="468.7805" x2="287.0744" y2="461.0909" gradientTransform="matrix(0.6428 -0.766 -0.766 -0.6428 220.0298 621.474)">
			<stop  offset="0.3111" style="stop-color:#000000"/>
			<stop  offset="1" style="stop-color:#37475E"/>
		</linearGradient>
		<path style="fill:url(#SVGID_00000086677969410915895610000012081575418934975887_);" d="M56.2,97.8l-3.9-3.3
			c-0.7-0.6-1.7-0.5-2.3,0.2l-9.3,11c-0.6,0.7-0.5,1.7,0.2,2.3l0.2,0.2c0.5,0.4,1.3,0.5,1.9,0.1l13-8C57,99.8,57.1,98.5,56.2,97.8z"
			/>
		<path d="M83.9,146.2c-19.3-6.9-30.5-18.7-39.2-32.2c0,0,0,0,0,0c0.1,0.6,1.7,10.4,15.8,21.4c14.5,11.4,23.6,10.8,23.6,10.8
			C84,146.2,84,146.2,83.9,146.2z"/>
		<path d="M22.3,118.1l-0.2-0.1l-0.9-0.3l-0.4-0.1l-0.5-0.2c17.6,26.9,41.6,35.2,42.6,35.5c-0.3-0.1-0.5-0.3-0.8-0.4
			c-0.1,0-0.1,0-0.1-0.1c-5.5-2.9-10.4-5.9-14.8-9.1c-4.8-3.5-9-7.1-12.5-10.6c-5-4.9-8.9-9.8-11.9-14
			C22.6,118.6,22.5,118.4,22.3,118.1z"/>
		<path d="M48.9,143.4l-0.2,0C48.8,143.4,48.9,143.4,48.9,143.4z"/>
		<path d="M35.8,131.1l-1.2,1.8l-0.2,0.3l-0.1,0.1l12.2,10.2l0.2,0l0.4,0l0.1,0l1.4-0.1C47.2,142.9,37.7,134.5,35.8,131.1z"/>
		<path class="st9" d="M112.8,31.8L112.8,31.8C112.8,31.8,112.8,31.8,112.8,31.8C112.8,31.8,112.8,31.8,112.8,31.8z"/>
		<path class="st9" d="M113.8,32.3c0,0-0.1,0-0.1-0.1c-0.1-0.1-0.2-0.1-0.3-0.2l-0.3-0.1c-0.1,0-0.2-0.1-0.2-0.1c0,0-0.1,0-0.1,0
			L113.8,32.3z"/>
	</g>
</g>
</svg>
