<?xml version="1.0" encoding="utf-8"?>
<!-- Generator: Adobe Illustrator 25.4.1, SVG Export Plug-In . SVG Version: 6.00 Build 0)  -->
<svg version="1.1" id="Layer_1" xmlns="http://www.w3.org/2000/svg" xmlns:xlink="http://www.w3.org/1999/xlink" x="0px" y="0px"
	 viewBox="0 0 168 168" style="enable-background:new 0 0 168 168;" xml:space="preserve">
<style type="text/css">
	.st0{opacity:0.2;fill:#151110;enable-background:new    ;}
	.st1{fill:url(#SVGID_1_);}
	.st2{fill:#FFFFFF;}
	.st3{fill:#C00D0D;}
	.st4{fill:#151110;}
	.st5{fill:url(#SVGID_00000182527956637853118860000006284406166302785188_);}
	.st6{fill:url(#SVGID_00000163057206840498954400000004971548230966702475_);}
	.st7{fill:none;stroke:#A03394;stroke-width:9;stroke-miterlimit:10;}
	.st8{fill:url(#SVGID_00000140716809939020730280000001775580331636231089_);}
	.st9{fill:#F0F0F0;}
	.st10{fill:url(#SVGID_00000163067253148445726480000011184786161234388119_);}
	.st11{fill:url(#SVGID_00000050656838304303919870000001343811145769931452_);}
	.st12{fill:url(#SVGID_00000054982676355127508900000000021749358296305305_);}
	.st13{fill:url(#SVGID_00000171713420370951571070000000531125775604882567_);}
	.st14{fill:url(#SVGID_00000020386488572933013930000008824372032785233070_);}
	.st15{fill:url(#SVGID_00000160872298656280584550000015116733805934724237_);}
	.st16{fill:url(#SVGID_00000087389218765985856050000006202823437905816225_);}
	.st17{fill:url(#SVGID_00000052096701174819136610000009175054007032102335_);}
	.st18{fill:url(#SVGID_00000133506479419837787750000012699453740925137594_);}
	.st19{fill:url(#SVGID_00000050658084271366504250000002145974551886932103_);}
	.st20{fill:url(#SVGID_00000080205282169610776290000015893511142879167668_);}
	.st21{fill:url(#SVGID_00000111163078453717606160000002275150370494694819_);}
	.st22{fill:url(#SVGID_00000004514819041571506000000013201648345868348584_);}
	.st23{fill:url(#SVGID_00000083801815693702059140000000393533897203389882_);}
	.st24{fill:url(#SVGID_00000121271794312245878510000017886063942165743770_);}
	.st25{fill:url(#SVGID_00000143600996015617154130000006511833133434387864_);}
	.st26{fill:url(#SVGID_00000059994412515585381140000014527347065237601433_);}
	.st27{fill:url(#SVGID_00000050630173410961897440000010712117745406265222_);}
	.st28{fill:url(#SVGID_00000104704366803759616950000014089266354112765595_);}
	.st29{fill:url(#SVGID_00000035515344713588742490000006059028182836088764_);}
	.st30{fill:url(#SVGID_00000171711112493340632390000002131274812686566581_);}
	.st31{fill:url(#SVGID_00000006671167541902878950000010825285644869664651_);}
	.st32{fill:url(#SVGID_00000034801876430783951020000008408790031397274793_);}
	.st33{fill:url(#SVGID_00000023964574671997982130000012952363895415878576_);}
	.st34{fill:url(#SVGID_00000012463637308425845650000012182087653514113152_);}
	.st35{fill:url(#SVGID_00000136392383641873046260000000556065843597812618_);}
	.st36{fill:url(#SVGID_00000082329343669382915080000001947494329942766269_);}
	.st37{fill:url(#SVGID_00000160868872586397458420000017524742508799788454_);}
	.st38{fill:url(#SVGID_00000078760193423723486140000000460370100999451558_);}
	.st39{fill:url(#SVGID_00000050643806947344651130000014296792123213376920_);}
	.st40{fill:url(#SVGID_00000166670184019410256720000010081935832319771052_);}
	.st41{fill:url(#SVGID_00000151512169380933257090000007338781246330439327_);}
	.st42{fill:url(#SVGID_00000102520075776626413590000015882743403598082694_);}
	.st43{fill:url(#SVGID_00000113316016102385772500000005863883808937651589_);}
	.st44{fill:url(#SVGID_00000100352032204170720180000003715837279256821686_);}
	.st45{fill:url(#SVGID_00000135653358685508943000000009337978587387716284_);}
	.st46{fill:url(#SVGID_00000175296392666674335990000011673915090331359654_);}
	.st47{fill:url(#SVGID_00000110464807322429622190000006925498603060117673_);}
	.st48{fill:url(#SVGID_00000081608619930184958000000016704970474473241533_);}
	.st49{fill:url(#SVGID_00000021820956450092490280000013909475974392240543_);}
	.st50{fill:url(#SVGID_00000069364955933055168190000002424686448032571804_);}
	.st51{fill:url(#SVGID_00000108300875961723897210000014826660874905446299_);}
	.st52{fill:url(#SVGID_00000165947062069636407540000012406566102528504204_);}
	.st53{fill:url(#SVGID_00000045590240219902380310000003162531268638501783_);}
	.st54{fill:url(#SVGID_00000077287776946268004440000010428805312916973223_);}
	.st55{fill:url(#SVGID_00000124140748456673417360000006327825645011636358_);}
	.st56{fill:url(#SVGID_00000079443867716478747860000010131473766976303550_);}
	.st57{fill:url(#SVGID_00000042735699820327761170000015787246577028706749_);}
	.st58{fill:url(#SVGID_00000016037967086267065100000015809804960656809886_);}
	.st59{fill:url(#SVGID_00000152967034157388685390000014942675935468721809_);}
	.st60{fill:url(#SVGID_00000111877028051979390500000007230675818300627843_);}
	.st61{fill:url(#SVGID_00000145031695557238640600000007120320653647202194_);}
	.st62{fill:url(#SVGID_00000150087768676026527270000011491997056970928531_);}
	.st63{fill:url(#SVGID_00000011723156191845336410000004943422099586036411_);}
	.st64{fill:url(#SVGID_00000003072215661620158850000013465541788059568297_);}
	.st65{fill:url(#SVGID_00000090268863395072974630000015671433884583077265_);}
	.st66{fill:url(#SVGID_00000012468840312606088420000011782010434236345250_);}
	.st67{fill:url(#SVGID_00000098899305121735210460000014645109730534904473_);}
	.st68{fill:url(#SVGID_00000101090671031404009290000007272528506523324309_);}
	.st69{fill:url(#SVGID_00000068640064384503571230000000795298838775893151_);}
	.st70{fill:url(#SVGID_00000057136502357547179680000012769467445628794269_);}
	.st71{fill:url(#SVGID_00000115509091927477990840000006082693571941338812_);}
	.st72{fill:url(#SVGID_00000098922282540018563140000016096706310081903541_);}
	.st73{fill:url(#SVGID_00000058562078271097074220000015956282090722669241_);}
	.st74{fill:url(#SVGID_00000099637273859775666330000010598397162621265068_);}
	.st75{fill:url(#SVGID_00000025405269424158111290000006786962065872078269_);}
	.st76{fill:url(#SVGID_00000164484628462985097720000015905243296332744615_);}
	.st77{fill:url(#SVGID_00000026886452476848700810000016698375051973533119_);}
	.st78{fill:url(#SVGID_00000174569636507382828200000006295207801903081119_);}
	.st79{fill:url(#SVGID_00000104683806863737115150000009640212669880606615_);}
	.st80{fill:url(#SVGID_00000010304250029281940050000014525304268837413005_);}
	.st81{fill:url(#SVGID_00000035509861934489756260000005381404731856598419_);}
	.st82{fill:url(#SVGID_00000055707810656527400260000005902689077891681726_);}
	.st83{fill:url(#SVGID_00000160149793826925444580000017699025865506154156_);}
	.st84{fill:url(#SVGID_00000014620221683772634580000001943535164393235085_);}
	.st85{fill:url(#SVGID_00000027592874325509366360000002992359635171314871_);}
	.st86{fill:url(#SVGID_00000169520371860529446420000015551549189284934837_);}
	.st87{fill:url(#SVGID_00000078759249613488963030000017596878015223006125_);}
	.st88{fill:url(#SVGID_00000044159411710823985630000001713146949188078775_);}
	.st89{fill:url(#SVGID_00000097480001464010227090000004513750530872178367_);}
	.st90{fill:url(#SVGID_00000182487647641208710630000008011485731233791140_);}
	.st91{fill:url(#SVGID_00000150080325057328706590000011973684231168383638_);}
	.st92{fill:url(#SVGID_00000072968062004176465440000017359460850942021804_);}
	.st93{fill:url(#SVGID_00000119104331866980006080000005951643634712541356_);}
	.st94{fill:url(#SVGID_00000111875066229027535220000001895838720907367809_);}
	.st95{fill:url(#SVGID_00000115472616724560798920000007027771845611584915_);}
	.st96{fill:url(#SVGID_00000098205084152361221380000003169210897570509977_);}
	.st97{fill:url(#SVGID_00000150104295253369324770000014975959600054214307_);}
	.st98{fill:url(#SVGID_00000053522730183384539160000014426839770600475531_);}
	.st99{fill:url(#SVGID_00000053511032720139067440000013183303033873386387_);}
	.st100{fill:url(#SVGID_00000160188750485407770040000009743443281499037079_);}
	.st101{fill:url(#SVGID_00000023271009780164657090000007602521996894777758_);}
	.st102{fill:url(#SVGID_00000158740549444991976540000011985040689422617001_);}
	.st103{fill:url(#SVGID_00000044866118472639000750000006189152211864270219_);}
	.st104{fill:url(#SVGID_00000093165761024963870330000005880318619089151114_);}
	.st105{fill:url(#SVGID_00000062882582340818701110000012984727480068494499_);}
	.st106{fill:url(#SVGID_00000179614144860736020020000015415135035231043251_);}
	.st107{fill:url(#SVGID_00000054250814602163718580000001901118060495784613_);}
	.st108{fill:url(#SVGID_00000085943786691829531240000006637409991985553313_);}
	.st109{fill:url(#SVGID_00000132070932239786695440000016362301598750339754_);}
	.st110{fill:url(#SVGID_00000049199605371110454390000006083425819833098426_);}
	.st111{fill:url(#SVGID_00000178202115618302178330000014295309062606874036_);}
	.st112{fill:url(#SVGID_00000127736864271414054510000015792330226066717327_);}
	.st113{fill:url(#SVGID_00000111875398296224825260000018405012446102000024_);}
	.st114{fill:url(#SVGID_00000026123205678885021620000017498750688002746039_);}
	.st115{fill:url(#SVGID_00000096739726977394016950000013376999487894600882_);}
	.st116{fill:url(#SVGID_00000166671441398444316540000015983388137895351471_);}
	.st117{fill:url(#SVGID_00000047763961427756194030000017572463864777426570_);}
	.st118{fill:url(#SVGID_00000074431999304191565020000007909822717774396836_);}
	.st119{fill:url(#SVGID_00000081625966968097987130000003233904228841976490_);}
	.st120{fill:url(#SVGID_00000096749042039663273220000006470838200677184146_);}
	.st121{fill:url(#SVGID_00000052089121678727261330000009354558917251270273_);}
	.st122{fill:url(#SVGID_00000031205700345109912350000003949535011128433595_);}
	.st123{fill:url(#SVGID_00000023252434776292929330000001700764430698169500_);}
	.st124{fill:url(#SVGID_00000098915215659866616610000000122850019926387857_);}
	.st125{fill:url(#SVGID_00000027591325576978035340000001138950876521125307_);}
	.st126{fill:url(#SVGID_00000057832492611258235750000000502833111054077096_);}
	.st127{fill:url(#SVGID_00000170969557382891873180000012741654268803518650_);}
	.st128{fill:url(#SVGID_00000058586537684909437050000008538442041963627188_);}
	.st129{fill:url(#SVGID_00000156579836358125414190000016020470064355185537_);}
	.st130{fill:url(#SVGID_00000036943240520589663580000017509756375123387820_);}
	.st131{fill:url(#SVGID_00000137854403205570740180000009746723963209824914_);}
	.st132{fill:url(#SVGID_00000056407923740053152580000017940889226726997893_);}
	.st133{fill:url(#SVGID_00000131367169335863819560000005745890619495290792_);}
	.st134{fill:url(#SVGID_00000137128274537953092910000013966853321284092332_);}
	.st135{fill:url(#SVGID_00000007387956429733035440000002717358087968106122_);}
	.st136{fill:url(#SVGID_00000106120142173706133470000010543212719529600395_);}
	.st137{fill:url(#SVGID_00000016796543975731280620000006282200786066584711_);}
	.st138{fill:url(#SVGID_00000068673149155019414280000016162960329613019534_);}
	.st139{fill:url(#SVGID_00000023246815666838621620000003184831625484597413_);}
	.st140{fill:url(#SVGID_00000081637308882521437960000017716347948728554129_);}
	.st141{fill:url(#SVGID_00000114041534332702949430000005597299818699971482_);}
	.st142{fill:url(#SVGID_00000018948039561424874560000005782801068080628359_);}
	.st143{fill:url(#SVGID_00000158741987253004979120000016380208969216517051_);}
	.st144{fill:url(#SVGID_00000170982136329740881140000015512534592852919732_);}
	.st145{fill:url(#SVGID_00000019663205343200365480000000416822924850523529_);}
	.st146{fill:url(#SVGID_00000012469998445125471810000001175976840721575329_);}
	.st147{fill:url(#SVGID_00000023988982414456940760000017356555354623359115_);}
	.st148{fill:url(#SVGID_00000034056021508674944980000012567487729730901650_);}
	.st149{fill:url(#SVGID_00000041267222804291047840000004163174789633781127_);}
</style>
<g>
	<path class="st0" d="M125.1,39.3c-0.3-0.4-0.7-0.7-1.1-1l0,0l-21.2-14.4l-9.4,6.3l-82.1,70.3c-0.2,0.1-0.3,0.3-0.3,0.4l-0.6,0.5
		l-0.1-0.1c12.8,30.2,35.8,42.5,35.8,42.5c-0.3-0.2-0.5-0.4-0.7-0.6c0.3,0.2,0.5,0.4,0.7,0.6l23.9-2.8l19.1-4.1l5.1-4.3l2-1.7
		l58-48.7c2.3-1.9,2.6-5.3,0.7-7.6L125.1,39.3L125.1,39.3z"/>
	
		<linearGradient id="SVGID_1_" gradientUnits="userSpaceOnUse" x1="321.2206" y1="-114.4055" x2="321.499" y2="-149.4788" gradientTransform="matrix(0.766 -0.6428 -0.6428 -0.766 -255.2476 182.9946)">
		<stop  offset="0" style="stop-color:#5C5C5C"/>
		<stop  offset="0.1042" style="stop-color:#979797"/>
	</linearGradient>
	<path class="st1" d="M128.8,41.7l-5.9-4c-0.1-0.1-0.2-0.2-0.3-0.2l-0.2-0.2c-0.1-0.1-0.1-0.1-0.2-0.1l-0.1-0.1l-8.5-5.8L110,29
		l-0.7-0.5l-0.8-0.5l-9.4,6.3l-2.7,2.3l-4.5,3.8c0,0,0,0,0,0l-6.7,5.8l-4.5,3.8L37.6,87l-4.3,3.7L26,96.9l-4.3,3.7l-4.7,4l0,0
		c-0.3,0.3-0.5,0.6-0.4,1c0,0.1,0,0.3,0.1,0.4c0.1,0.1,0.1,0.3,0.2,0.4c0.1,0.1,0.1,0.1,0.2,0.2c0,0,0.1,0.1,0.1,0.1c0,0,0,0,0,0
		c0.1,0,0.1,0.1,0.2,0.1c0.3,0.1,0.6,0.2,0.9,0.3c6,2,11.9,0.8,17.8-1.8l23.2-9.2l6.5-5.5l57.5-48.2c0.1-0.1,0.1-0.1,0.2-0.2l0,0
		c0.1-0.1,0.2-0.2,0.3-0.3c1.9-1.6,0.4-3.4-0.8-4.3l5.6,3.8C128.7,41.6,128.8,41.7,128.8,41.7z"/>
	<g>
		<path class="st2" d="M39.8,135.9l-0.2,0C39.7,135.9,39.8,136,39.8,135.9z"/>
		<path class="st2" d="M51.6,102l-10.8,4.2c0,0,0,0,0,0c0,0.6-0.1,10.6,11.8,23.9c12.3,13.7,21.4,14.7,21.4,14.7
			c-0.1,0-0.1-0.1-0.2-0.1c0,0,0.1,0,0.1,0c5.3-1,11.8-2.2,16.6-3.7c0.9-0.3,1.1-1.6,0.3-2.2c-13.6-9.7-22.1-20.6-28.7-35.7
			C60.1,98.3,56.6,100.1,51.6,102z"/>
		<polygon class="st3" points="113.6,31.3 109.4,28.4 107.8,29.8 112,32.6 		"/>
		<polygon class="st4" points="110.1,28.9 17.2,106.8 16.1,105.5 108.6,27.9 		"/>
		<ellipse transform="matrix(0.766 -0.6428 0.6428 0.766 -53.3541 40.9951)" class="st4" cx="29.6" cy="93.8" rx="10.5" ry="4.4"/>
		<ellipse transform="matrix(0.766 -0.6428 0.6428 0.766 -53.3541 40.9951)" class="st2" cx="29.6" cy="93.8" rx="4.8" ry="2"/>
		<ellipse transform="matrix(0.766 -0.6428 0.6428 0.766 -7.4434 67.5017)" class="st4" cx="89" cy="44" rx="10.5" ry="4.4"/>
		<ellipse transform="matrix(0.766 -0.6428 0.6428 0.766 -7.4434 67.5017)" class="st2" cx="89" cy="44" rx="4.8" ry="2"/>
		
			<linearGradient id="SVGID_00000013194333881311506370000004590474038765934998_" gradientUnits="userSpaceOnUse" x1="344.3113" y1="468.9493" x2="344.3113" y2="460.6971" gradientTransform="matrix(0.766 -0.6428 -0.6428 -0.766 125.2827 636.4929)">
			<stop  offset="0.3111" style="stop-color:#000000"/>
			<stop  offset="1" style="stop-color:#37475E"/>
		</linearGradient>
		<path style="fill:url(#SVGID_00000013194333881311506370000004590474038765934998_);" d="M64.6,83.8L62,80.6
			c-0.8-1-0.9-2.4,0.1-3.2l49.9-41.8c0.9-0.8,1.7-0.9,3.3,0l3.8,2.5c1.5,1.1,0.9,2.4-0.1,3.2L67.7,84.3C66.8,85,65.4,84.8,64.6,83.8
			z"/>
		<path class="st2" d="M159.9,86.3l-65,54.6L75.8,145l-23.9,2.8c0,0,0,0,0,0c-0.2-0.2-0.4-0.4-0.7-0.5c0,0-0.1,0-0.1-0.1
			c-4.9-3.8-9.2-7.7-13-11.5l0.1,0l1.4,0.2c0.1,0,0.2,0.1,0.2,0l-0.2,0c-1.4-0.7-9.3-10.7-10.6-14.3l-1.4,1.5
			c-4.1-5.7-7.1-11.2-9.3-15.9c6,2,11.9,0.8,17.8-1.8l23.2-9.2l64-53.7c0.1-0.1,0.1-0.1,0.2-0.2l0,0c0.1-0.1,0.2-0.2,0.3-0.3
			c1.9-1.6,0.4-3.4-0.8-4.3l5.6,3.8c0.1,0,0.2,0,0.2,0.1c0.8,0.3,1.5,0.8,2.1,1.5l29.7,35.4C162.4,80.9,162.2,84.4,159.9,86.3z
			 M51.6,102l-10.8,4.2c0,0,0,0,0,0c0,0.6-0.1,10.6,11.8,23.9c12.3,13.7,21.4,14.7,21.4,14.7c-0.1,0-0.1-0.1-0.2-0.1
			c0,0,0.1,0,0.1,0c5.3-1,11.8-2.2,16.6-3.7c0.9-0.3,1.1-1.6,0.3-2.2c-13.6-9.7-22.1-20.6-28.7-35.7C60.1,98.3,56.6,100.1,51.6,102z
			"/>
		
			<linearGradient id="SVGID_00000080924420443215157340000001813473806596415675_" gradientUnits="userSpaceOnUse" x1="287.3291" y1="-160.9778" x2="275.5483" y2="-160.6443" gradientTransform="matrix(0.766 -0.6428 -0.6428 -0.766 -255.2476 182.9946)">
			<stop  offset="0.3111" style="stop-color:#000000"/>
			<stop  offset="1" style="stop-color:#37475E"/>
		</linearGradient>
		<path style="fill:url(#SVGID_00000080924420443215157340000001813473806596415675_);" d="M51.6,102l-10.8,4.2c0,0,0,0,0,0
			c1.3,18.6,24.4,37.5,33,38.5c0,0,0.1,0,0.1,0c5.3-1,11.8-2.2,16.6-3.7c0.9-0.3,1.1-1.6,0.3-2.2c-13.6-9.7-22.1-20.6-28.7-35.7
			C60.1,98.3,56.6,100.1,51.6,102z"/>
		
			<linearGradient id="SVGID_00000154386396677373030030000012324881887057686694_" gradientUnits="userSpaceOnUse" x1="287.0744" y1="468.7805" x2="287.0744" y2="461.0909" gradientTransform="matrix(0.766 -0.6428 -0.6428 -0.766 125.2827 636.4929)">
			<stop  offset="0.3111" style="stop-color:#000000"/>
			<stop  offset="1" style="stop-color:#37475E"/>
		</linearGradient>
		<path style="fill:url(#SVGID_00000154386396677373030030000012324881887057686694_);" d="M54.9,92.3l-3.3-3.9
			c-0.6-0.7-1.6-0.8-2.3-0.2l-11,9.3c-0.7,0.6-0.8,1.6-0.2,2.3l0.2,0.2c0.4,0.5,1.1,0.7,1.8,0.4l14.2-5.6
			C55.3,94.5,55.6,93.2,54.9,92.3z"/>
		<path d="M73.8,144.8C56,134.6,47,121,40.8,106.3c0,0,0,0,0,0c0,0.6-0.1,10.6,11.8,23.9c12.3,13.7,21.4,14.7,21.4,14.7
			C73.9,144.8,73.8,144.8,73.8,144.8z"/>
		<path d="M18,106.5l-0.2-0.1l-0.8-0.5l-0.4-0.2l-0.5-0.3c12.6,29.5,34.9,41.9,35.8,42.4c-0.2-0.2-0.5-0.3-0.7-0.5
			c0,0-0.1,0-0.1-0.1c-4.9-3.8-9.2-7.7-13-11.5c-4.1-4.3-7.6-8.5-10.5-12.6c-4.1-5.7-7.1-11.2-9.3-15.9
			C18.2,107,18.1,106.7,18,106.5z"/>
		<path d="M39.8,135.9l-0.2,0C39.7,135.9,39.8,136,39.8,135.9z"/>
		<path d="M29.1,121.6l-1.4,1.5l-0.3,0.3l-0.1,0.1l10.2,12.2l0.2,0l0.4,0l0.1,0l1.4,0.2C38.2,135.2,30.3,125.2,29.1,121.6z"/>
		<path class="st9" d="M122,37.1L122,37.1C122.1,37.2,122.1,37.2,122,37.1C122,37.1,122,37.1,122,37.1z"/>
		<path class="st9" d="M123,37.8c0,0-0.1-0.1-0.1-0.1c-0.1-0.1-0.2-0.2-0.3-0.2l-0.2-0.2c-0.1-0.1-0.1-0.1-0.2-0.1c0,0,0,0-0.1,0
			L123,37.8z"/>
	</g>
</g>
</svg>
