<?xml version="1.0" encoding="utf-8"?>
<!-- Generator: Adobe Illustrator 25.4.1, SVG Export Plug-In . SVG Version: 6.00 Build 0)  -->
<svg version="1.1" id="Layer_1" xmlns="http://www.w3.org/2000/svg" xmlns:xlink="http://www.w3.org/1999/xlink" x="0px" y="0px"
	 viewBox="0 0 168 168" style="enable-background:new 0 0 168 168;" xml:space="preserve">
<style type="text/css">
	.st0{opacity:0.2;fill:#151110;enable-background:new    ;}
	.st1{fill:url(#SVGID_1_);}
	.st2{fill:#FFFFFF;}
	.st3{fill:#C00D0D;}
	.st4{fill:#151110;}
	.st5{fill:url(#SVGID_00000036221142924745400480000004875600850304551350_);}
	.st6{fill:url(#SVGID_00000147908836488327186700000007955723334567909005_);}
	.st7{fill:none;stroke:#A03394;stroke-width:9;stroke-miterlimit:10;}
	.st8{fill:url(#SVGID_00000031204292675806678530000007743751884790808470_);}
	.st9{fill:#F0F0F0;}
	.st10{fill:url(#SVGID_00000163035962172683699770000004385028259445036454_);}
	.st11{fill:url(#SVGID_00000116917490499184164610000001849903271997072019_);}
	.st12{fill:url(#SVGID_00000099635158009336455970000013895789323053143735_);}
	.st13{fill:url(#SVGID_00000032644207137561635530000012645367050543429298_);}
	.st14{fill:url(#SVGID_00000048498181547628350410000011378537384025303687_);}
	.st15{fill:url(#SVGID_00000179633869744135669120000001629336578823922347_);}
	.st16{fill:url(#SVGID_00000037687420519834586960000009716763268424776835_);}
	.st17{fill:url(#SVGID_00000090989256226303303610000013511113282002543290_);}
	.st18{fill:url(#SVGID_00000004522240714550530070000004758355648804423306_);}
	.st19{fill:url(#SVGID_00000096762629917813903880000007316266465811092866_);}
	.st20{fill:url(#SVGID_00000181790871986418009480000018331027065554740875_);}
	.st21{fill:url(#SVGID_00000058589088682993047730000009650340619803200425_);}
	.st22{fill:url(#SVGID_00000142164188295392321010000014242293303384350867_);}
	.st23{fill:url(#SVGID_00000042717911864429344140000016328861240383544494_);}
	.st24{fill:url(#SVGID_00000098929035968867385300000014846756695707167913_);}
	.st25{fill:url(#SVGID_00000099632005394482399550000016548395959549458818_);}
	.st26{fill:url(#SVGID_00000100381738718482681740000007978330333554489755_);}
	.st27{fill:url(#SVGID_00000059303470922988979760000001950879911261281457_);}
	.st28{fill:url(#SVGID_00000065054851714150734600000008031781008887240077_);}
	.st29{fill:url(#SVGID_00000075150333994165346050000014766542098703566223_);}
	.st30{fill:url(#SVGID_00000059311807289267243810000007839835134761628032_);}
	.st31{fill:url(#SVGID_00000085242015115262739250000015508386038617281451_);}
	.st32{fill:url(#SVGID_00000177478632291986072380000012652683193949950608_);}
	.st33{fill:url(#SVGID_00000172416088231369404290000017524964482202546338_);}
	.st34{fill:url(#SVGID_00000168820307093408707770000009029785057217192886_);}
	.st35{fill:url(#SVGID_00000136379344412351792210000001079722036219273637_);}
	.st36{fill:url(#SVGID_00000135679442443952082560000006168579697766452120_);}
	.st37{fill:url(#SVGID_00000176740787274700594270000008648279024620660635_);}
	.st38{fill:url(#SVGID_00000050642831638809801720000016551561737854315150_);}
	.st39{fill:url(#SVGID_00000010276151684978823250000006618524685183117696_);}
	.st40{fill:url(#SVGID_00000018919826182657737290000011390890921192756630_);}
	.st41{fill:url(#SVGID_00000098204393532613424060000002706746869609954177_);}
	.st42{fill:url(#SVGID_00000141443942746219918880000001873491499492795009_);}
	.st43{fill:url(#SVGID_00000112612915572093563890000015844091448267711387_);}
	.st44{fill:url(#SVGID_00000054238989051406951890000005850030139666617241_);}
	.st45{fill:url(#SVGID_00000151504813333729792850000010888499592722238893_);}
	.st46{fill:url(#SVGID_00000119798345421901415960000005808555527953139371_);}
	.st47{fill:url(#SVGID_00000028319171010602040980000017402074872662326934_);}
	.st48{fill:url(#SVGID_00000054247923466820659230000000247369696318922430_);}
	.st49{fill:url(#SVGID_00000047749793616629513870000009567549311920251830_);}
	.st50{fill:url(#SVGID_00000104680258605992354120000011894523688327759244_);}
	.st51{fill:url(#SVGID_00000007399925851068518090000000050641253206784903_);}
	.st52{fill:url(#SVGID_00000152256667095196830480000007802743168955116473_);}
	.st53{fill:url(#SVGID_00000090996949118414686260000012235634777064123803_);}
	.st54{fill:url(#SVGID_00000066492259754898722470000003908366367205533834_);}
	.st55{fill:url(#SVGID_00000000184808113231197660000005621466828099628208_);}
	.st56{fill:url(#SVGID_00000148653678176914721190000011463362458459881365_);}
	.st57{fill:url(#SVGID_00000130611040761824006390000006327895077436052898_);}
	.st58{fill:url(#SVGID_00000038407248506784739230000000147828457637801132_);}
	.st59{fill:url(#SVGID_00000036948524893430790240000007232398447946386341_);}
	.st60{fill:url(#SVGID_00000016782748250295015030000009761055204474692495_);}
	.st61{fill:url(#SVGID_00000121246273359058051070000006611845393681296774_);}
	.st62{fill:url(#SVGID_00000034047747302191751930000016891097261826597765_);}
	.st63{fill:url(#SVGID_00000045594989336150453540000003964354617885624721_);}
	.st64{fill:url(#SVGID_00000044866913053131275310000013059613729867386256_);}
	.st65{fill:url(#SVGID_00000021833782441106020660000012804201238244249515_);}
	.st66{fill:url(#SVGID_00000168077749827996516950000015329880831118587542_);}
	.st67{fill:url(#SVGID_00000142153926597302006530000012723811691375199127_);}
	.st68{fill:url(#SVGID_00000053540848484229238540000005949883511466916533_);}
	.st69{fill:url(#SVGID_00000154390890521163953990000002947780080677533609_);}
	.st70{fill:url(#SVGID_00000147218545408439332560000006417056210825760662_);}
	.st71{fill:url(#SVGID_00000023967849109129325190000018331607459636504722_);}
	.st72{fill:url(#SVGID_00000011740956302026110790000008746746376124394668_);}
	.st73{fill:url(#SVGID_00000085953707846192787700000013799310725999455661_);}
	.st74{fill:url(#SVGID_00000023966061260093987980000002152116788034981054_);}
	.st75{fill:url(#SVGID_00000081630390516886044880000003076690536908880534_);}
	.st76{fill:url(#SVGID_00000155861444172438204040000012954045640851335067_);}
	.st77{fill:url(#SVGID_00000029751240645920973590000015429567352102699145_);}
	.st78{fill:url(#SVGID_00000161633244377193204970000002948368718500696987_);}
	.st79{fill:url(#SVGID_00000124122998904038460500000013315607206853561533_);}
	.st80{fill:url(#SVGID_00000003076522664521404920000015101679227664553884_);}
	.st81{fill:url(#SVGID_00000039833762934727874430000014541628593708085180_);}
	.st82{fill:url(#SVGID_00000101074115620611549240000001154312109547713719_);}
	.st83{fill:url(#SVGID_00000067926945543558950530000008029172446681615768_);}
	.st84{fill:url(#SVGID_00000142878540076006894440000011906820909036787625_);}
	.st85{fill:url(#SVGID_00000072246790576399294700000008029715373122526600_);}
	.st86{fill:url(#SVGID_00000026878385521944932100000005317590226435076480_);}
	.st87{fill:url(#SVGID_00000150811909465374349740000000109615673147351195_);}
	.st88{fill:url(#SVGID_00000051342270119046691310000011251383908558814906_);}
	.st89{fill:url(#SVGID_00000169543544207872908890000012115397662055944086_);}
	.st90{fill:url(#SVGID_00000149381297383039426860000002165682741002440376_);}
	.st91{fill:url(#SVGID_00000119076427008102405950000003069176414178323603_);}
	.st92{fill:url(#SVGID_00000137812349539783102840000006559994206558056074_);}
	.st93{fill:url(#SVGID_00000165212496891008004400000012289549978252022921_);}
	.st94{fill:url(#SVGID_00000093886028782203446460000007668869119451894704_);}
	.st95{fill:url(#SVGID_00000000218997674694066150000012141381087713368488_);}
	.st96{fill:url(#SVGID_00000150095205409815947320000004852702050267651208_);}
	.st97{fill:url(#SVGID_00000037685260872871758070000014919799686494173356_);}
	.st98{fill:url(#SVGID_00000148637560436953761560000002880094530340589732_);}
	.st99{fill:url(#SVGID_00000134241516897166916780000003519058867515398589_);}
	.st100{fill:url(#SVGID_00000016069849562268510050000007385989587742619534_);}
	.st101{fill:url(#SVGID_00000038404677235163591240000006105731613774092194_);}
	.st102{fill:url(#SVGID_00000081645285958723289610000014276099245932356776_);}
	.st103{fill:url(#SVGID_00000075864317164842379410000009502978373414832292_);}
	.st104{fill:url(#SVGID_00000170261424174559647760000002567170744838347700_);}
	.st105{fill:url(#SVGID_00000127008345581405438490000011440596693267065271_);}
	.st106{fill:url(#SVGID_00000018923283709339538880000001548970432135909008_);}
	.st107{fill:url(#SVGID_00000080177914515250727330000012872006455545146246_);}
	.st108{fill:url(#SVGID_00000049904610285622383360000012384799294791348613_);}
	.st109{fill:url(#SVGID_00000041257033573682041800000001324126297082118558_);}
	.st110{fill:url(#SVGID_00000120556163268713453420000003166955382778345904_);}
	.st111{fill:url(#SVGID_00000116232696420681970550000007043067827306527677_);}
	.st112{fill:url(#SVGID_00000085214069824205931230000003004867570705646747_);}
	.st113{fill:url(#SVGID_00000039846380258328487010000016263132119372569507_);}
	.st114{fill:url(#SVGID_00000127041920988098348270000016099158532537995678_);}
	.st115{fill:url(#SVGID_00000181779929701365385990000005290922439883965579_);}
	.st116{fill:url(#SVGID_00000032611060897838146640000016717846292657879984_);}
	.st117{fill:url(#SVGID_00000080185133469796171220000018043035396471634358_);}
	.st118{fill:url(#SVGID_00000160184059534557568860000007474849620470457498_);}
	.st119{fill:url(#SVGID_00000144319928765874835150000011916318610163579020_);}
	.st120{fill:url(#SVGID_00000132046356821477190590000005667638452436872846_);}
	.st121{fill:url(#SVGID_00000127019214122790665260000002336718850048305557_);}
	.st122{fill:url(#SVGID_00000141430507798903464190000015714716042302003624_);}
	.st123{fill:url(#SVGID_00000003097090739987606150000003420726970487988911_);}
	.st124{fill:url(#SVGID_00000015330701299077469480000005366367847293744288_);}
	.st125{fill:url(#SVGID_00000016777671434120950390000007547923417343668925_);}
	.st126{fill:url(#SVGID_00000084520008467844394040000000165915502067650227_);}
	.st127{fill:url(#SVGID_00000132798252218553136790000008969331031669586100_);}
	.st128{fill:url(#SVGID_00000144318746262861868930000015078050480357112247_);}
	.st129{fill:url(#SVGID_00000117647182959337928270000011521836609524284831_);}
	.st130{fill:url(#SVGID_00000044168581399835028340000018023233758850000276_);}
	.st131{fill:url(#SVGID_00000003064718752873186460000006607042521418814374_);}
	.st132{fill:url(#SVGID_00000130609594435958522400000017764572156506252466_);}
	.st133{fill:url(#SVGID_00000146488762894175188800000003368506051188994176_);}
	.st134{fill:url(#SVGID_00000132795908759052539870000013075968896459701648_);}
	.st135{fill:url(#SVGID_00000145781067880639335080000009462339959202514581_);}
	.st136{fill:url(#SVGID_00000166653974336377548590000016710286904371918234_);}
	.st137{fill:url(#SVGID_00000034048328106891374950000011317060060624543887_);}
	.st138{fill:url(#SVGID_00000079453116121375049520000009751757895275955864_);}
	.st139{fill:url(#SVGID_00000036957851864187138600000016420920634999057831_);}
	.st140{fill:url(#SVGID_00000062152499936017044820000017856341075530719155_);}
	.st141{fill:url(#SVGID_00000120544237692346285680000017102312180382982799_);}
	.st142{fill:url(#SVGID_00000109709485176529279140000002210032905360424114_);}
	.st143{fill:url(#SVGID_00000048479137703124822250000004344618184597920659_);}
	.st144{fill:url(#SVGID_00000170240325976188997650000010331548355194066607_);}
	.st145{fill:url(#SVGID_00000115495787980862597580000006947413458421591175_);}
	.st146{fill:url(#SVGID_00000173152440277950279100000015985047985885568643_);}
	.st147{fill:url(#SVGID_00000164505795064154991200000004762459632100600764_);}
	.st148{fill:url(#SVGID_00000142175502257087017790000015877354823335509685_);}
	.st149{fill:url(#SVGID_00000168117190547959140110000003472627715993160599_);}
</style>
<g>
	<path class="st0" d="M132.6,46.8c-0.2-0.4-0.6-0.8-0.9-1.2l0,0l-18.4-17.9l-10.4,4.6l-93.1,55c-0.2,0.1-0.3,0.2-0.4,0.3L8.8,88
		l0-0.1c7.4,32,27.9,48.1,27.9,48.1c-0.2-0.2-0.4-0.5-0.6-0.7c0.2,0.2,0.4,0.5,0.6,0.7l24,1.4l19.5-0.8l5.8-3.3l2.3-1.3l65.6-37.8
		c2.6-1.5,3.5-4.8,2-7.4L132.6,46.8L132.6,46.8z"/>
	
		<linearGradient id="SVGID_1_" gradientUnits="userSpaceOnUse" x1="539.6312" y1="-332.8161" x2="539.9095" y2="-367.8894" gradientTransform="matrix(0.866 -0.5 -0.5 -0.866 -565.2902 42.3112)">
		<stop  offset="0" style="stop-color:#5C5C5C"/>
		<stop  offset="0.1042" style="stop-color:#979797"/>
	</linearGradient>
	<path class="st1" d="M135.9,49.8l-5.2-5c-0.1-0.1-0.2-0.2-0.3-0.3l-0.2-0.2c-0.1-0.1-0.1-0.1-0.2-0.2l-0.1-0.1l-7.4-7.2l-3.1-3
		l-0.6-0.6l-0.7-0.6l-10.4,4.6l-3.1,1.8l-5.1,3c0,0,0,0,0,0L92,46.8l-5.1,3L38.2,78.6l-4.9,2.9L25,86.3l-4.9,2.9l-5.3,3.2l0,0
		c-0.4,0.2-0.6,0.6-0.6,0.9c0,0.1,0,0.3,0,0.4c0,0.2,0.1,0.3,0.2,0.4c0,0.1,0.1,0.2,0.2,0.2c0,0,0.1,0.1,0.1,0.1c0,0,0,0,0,0
		c0.1,0.1,0.1,0.1,0.2,0.1c0.3,0.2,0.6,0.3,0.8,0.5c5.6,3,11.6,2.9,17.9,1.3l24.5-5l7.3-4.2l65-37.5c0.1,0,0.2-0.1,0.2-0.1l0,0
		c0.1-0.1,0.2-0.1,0.3-0.2c2.2-1.3,0.9-3.2-0.1-4.4l4.8,4.7C135.7,49.7,135.8,49.8,135.9,49.8z"/>
	<g>
		<path class="st2" d="M31.8,127.1l-0.2-0.1C31.7,127.1,31.8,127.2,31.8,127.1z"/>
		<path class="st2" d="M49.3,95.8l-11.4,2.3c0,0,0,0,0,0c-0.1,0.6-1.9,10.4,7.5,25.6c9.7,15.6,18.5,18.2,18.5,18.2
			c0,0-0.1-0.1-0.1-0.1c0,0,0.1,0,0.1,0c5.4-0.1,12-0.1,17-0.7c1-0.1,1.4-1.4,0.7-2.1c-11.7-11.9-18.2-24.1-22-40.2
			C58.3,93.6,54.6,94.8,49.3,95.8z"/>
		<polygon class="st3" points="122.7,36.9 119,33.4 117.2,34.4 120.8,38 		"/>
		<polygon class="st4" points="119.7,33.9 14.6,94.6 13.7,93 118.3,32.7 		"/>
		<ellipse transform="matrix(0.866 -0.5 0.5 0.866 -38.0386 25.7941)" class="st4" cx="29.1" cy="83.9" rx="10.5" ry="4.4"/>
		<ellipse transform="matrix(0.866 -0.5 0.5 0.866 -38.0386 25.7941)" class="st2" cx="29.1" cy="83.9" rx="4.8" ry="2"/>
		<ellipse transform="matrix(0.866 -0.5 0.5 0.866 -9.6716 54.1611)" class="st4" cx="96.2" cy="45.1" rx="10.5" ry="4.4"/>
		<ellipse transform="matrix(0.866 -0.5 0.5 0.866 -9.6716 54.1611)" class="st2" cx="96.2" cy="45.1" rx="4.8" ry="2"/>
		
			<linearGradient id="SVGID_00000165233680844719064470000000460010239548778421_" gradientUnits="userSpaceOnUse" x1="562.7219" y1="250.5388" x2="562.7219" y2="242.2865" gradientTransform="matrix(0.866 -0.5 -0.5 -0.866 -269.2902 554.9983)">
			<stop  offset="0.3111" style="stop-color:#000000"/>
			<stop  offset="1" style="stop-color:#37475E"/>
		</linearGradient>
		<path style="fill:url(#SVGID_00000165233680844719064470000000460010239548778421_);" d="M65.3,80.1l-2-3.6
			c-0.7-1.1-0.4-2.5,0.6-3.1l56.4-32.5c1-0.6,1.8-0.6,3.2,0.6l3.3,3.2c1.2,1.4,0.4,2.5-0.6,3.1L68.3,81.1
			C67.2,81.7,65.9,81.2,65.3,80.1z"/>
		<path class="st2" d="M158.7,99.1l-73.5,42.5l-19.5,0.8l-24-1.4c0,0,0,0,0,0c-0.2-0.2-0.4-0.4-0.6-0.6c0,0-0.1-0.1-0.1-0.1
			c-4.2-4.6-7.8-9.1-10.8-13.6l0.1,0l1.4,0.4c0.1,0.1,0.1,0.1,0.2,0.1l-0.2-0.1c-1.3-0.9-7.3-12.1-7.9-15.9l-1.7,1.3
			c-3-6.4-5-12.2-6.4-17.2c5.6,3,11.6,2.9,17.9,1.3l24.5-5l72.3-41.8c0.1,0,0.2-0.1,0.2-0.1l0,0c0.1-0.1,0.2-0.1,0.3-0.2
			c2.2-1.3,0.9-3.2-0.1-4.4l4.8,4.7c0.1,0,0.1,0.1,0.2,0.1c0.7,0.4,1.3,1.1,1.8,1.9l23.1,40C162.1,94.3,161.3,97.6,158.7,99.1z
			 M49.3,95.8l-11.4,2.3c0,0,0,0,0,0c-0.1,0.6-1.9,10.4,7.5,25.6c9.7,15.6,18.5,18.2,18.5,18.2c0,0-0.1-0.1-0.1-0.1c0,0,0.1,0,0.1,0
			c5.4-0.1,12-0.1,17-0.7c1-0.1,1.4-1.4,0.7-2.1c-11.7-11.9-18.2-24.1-22-40.2C58.3,93.6,54.6,94.8,49.3,95.8z"/>
		
			<linearGradient id="SVGID_00000119117848514148853380000016262598637656398496_" gradientUnits="userSpaceOnUse" x1="505.7397" y1="-379.3883" x2="493.9589" y2="-379.0549" gradientTransform="matrix(0.866 -0.5 -0.5 -0.866 -565.2902 42.3112)">
			<stop  offset="0.3111" style="stop-color:#000000"/>
			<stop  offset="1" style="stop-color:#37475E"/>
		</linearGradient>
		<path style="fill:url(#SVGID_00000119117848514148853380000016262598637656398496_);" d="M49.3,95.8l-11.4,2.3c0,0,0,0,0,0
			c-1.9,18.5,17.5,41.1,25.8,43.6c0,0,0.1,0,0.1,0c5.4-0.1,12-0.1,17-0.7c1-0.1,1.4-1.4,0.7-2.1c-11.7-11.9-18.2-24.1-22-40.2
			C58.3,93.6,54.6,94.8,49.3,95.8z"/>
		
			<linearGradient id="SVGID_00000003821800238905480260000003052508730823547323_" gradientUnits="userSpaceOnUse" x1="505.485" y1="250.3699" x2="505.485" y2="242.6803" gradientTransform="matrix(0.866 -0.5 -0.5 -0.866 -269.2902 554.9983)">
			<stop  offset="0.3111" style="stop-color:#000000"/>
			<stop  offset="1" style="stop-color:#37475E"/>
		</linearGradient>
		<path style="fill:url(#SVGID_00000003821800238905480260000003052508730823547323_);" d="M54.2,86.8l-2.5-4.4
			c-0.5-0.8-1.4-1-2.2-0.6L37,89c-0.8,0.4-1,1.4-0.6,2.2l0.2,0.3c0.3,0.6,1,0.9,1.7,0.7l15-3.1C54.2,89,54.8,87.8,54.2,86.8z"/>
		<path d="M63.7,141.8c-15.8-13.1-22.2-28-25.8-43.7c0,0,0,0,0,0c-0.1,0.6-1.9,10.4,7.5,25.6c9.7,15.6,18.5,18.2,18.5,18.2
			C63.8,141.8,63.8,141.8,63.7,141.8z"/>
		<path d="M15.4,94.3l-0.2-0.1l-0.8-0.6l-0.3-0.3L13.7,93c7.3,31.3,27.1,47.3,27.9,47.9c-0.2-0.2-0.4-0.4-0.6-0.6
			c0,0-0.1-0.1-0.1-0.1c-4.2-4.6-7.8-9.1-10.8-13.6c-3.3-4.9-6-9.7-8.1-14.2c-3-6.4-5-12.2-6.4-17.2C15.6,94.9,15.5,94.6,15.4,94.3z
			"/>
		<path d="M31.8,127.1l-0.2-0.1C31.7,127.1,31.8,127.2,31.8,127.1z"/>
		<path d="M23.7,111.1l-1.7,1.3l-0.3,0.2l-0.1,0.1l7.9,13.8l0.2,0.1l0.4,0.1l0.1,0l1.4,0.4C30.3,126.1,24.3,114.9,23.7,111.1z"/>
		<path class="st9" d="M130,44.1L130,44.1C130,44.2,130,44.1,130,44.1C130,44.1,130,44.1,130,44.1z"/>
		<path class="st9" d="M130.8,45c0,0-0.1-0.1-0.1-0.1c-0.1-0.1-0.2-0.2-0.3-0.3l-0.2-0.2c-0.1-0.1-0.1-0.1-0.2-0.2c0,0,0,0-0.1,0
			L130.8,45z"/>
	</g>
</g>
</svg>
