<?xml version="1.0" encoding="utf-8"?>
<!-- Generator: Adobe Illustrator 25.4.1, SVG Export Plug-In . SVG Version: 6.00 Build 0)  -->
<svg version="1.1" id="Layer_1" xmlns="http://www.w3.org/2000/svg" xmlns:xlink="http://www.w3.org/1999/xlink" x="0px" y="0px"
	 viewBox="0 0 168 168" style="enable-background:new 0 0 168 168;" xml:space="preserve">
<style type="text/css">
	.st0{opacity:0.2;fill:#151110;enable-background:new    ;}
	.st1{fill:url(#SVGID_1_);}
	.st2{fill:#FFFFFF;}
	.st3{fill:#C00D0D;}
	.st4{fill:#151110;}
	.st5{fill:url(#SVGID_00000032611473771046687910000012003985484993202080_);}
	.st6{fill:url(#SVGID_00000128486806503736963370000009300786425732181402_);}
	.st7{fill:none;stroke:#A03394;stroke-width:9;stroke-miterlimit:10;}
	.st8{fill:url(#SVGID_00000137821897839835620160000014084794711478231728_);}
	.st9{fill:#F0F0F0;}
	.st10{fill:url(#SVGID_00000015333749251432066030000000264019046886748808_);}
	.st11{fill:url(#SVGID_00000034054714831744151150000004879355441437695136_);}
	.st12{fill:url(#SVGID_00000041292386219646559320000002676629242626985867_);}
	.st13{fill:url(#SVGID_00000170237592975050492570000010895982508029371029_);}
	.st14{fill:url(#SVGID_00000052799994610504422660000010747306474251785625_);}
	.st15{fill:url(#SVGID_00000045579782485302003670000013144862538844229521_);}
	.st16{fill:url(#SVGID_00000035529513389003346720000013875001167519682227_);}
	.st17{fill:url(#SVGID_00000181775675467387773020000002188066245071209917_);}
	.st18{fill:url(#SVGID_00000090976369184606586370000005796984003998863500_);}
	.st19{fill:url(#SVGID_00000104673406974823154260000012513677308749569929_);}
	.st20{fill:url(#SVGID_00000108281465517277424240000002878792759069697453_);}
	.st21{fill:url(#SVGID_00000058554609727581543040000010235262680607318676_);}
	.st22{fill:url(#SVGID_00000015335005808887357140000015344835471402164137_);}
	.st23{fill:url(#SVGID_00000110447876922278331340000011968109724796587445_);}
	.st24{fill:url(#SVGID_00000172406078863287604300000001005736112893355136_);}
	.st25{fill:url(#SVGID_00000044142644908268031700000004362009111462777509_);}
	.st26{fill:url(#SVGID_00000104690873867575584300000012378711071171274394_);}
	.st27{fill:url(#SVGID_00000102526383571765738710000008372799713670022285_);}
	.st28{fill:url(#SVGID_00000086670892330188759620000009984445847101294255_);}
	.st29{fill:url(#SVGID_00000172408281563987879940000012982439564344588468_);}
	.st30{fill:url(#SVGID_00000101803857619312924270000018335911210508321198_);}
	.st31{fill:url(#SVGID_00000023960347218836894840000008618626527757107589_);}
	.st32{fill:url(#SVGID_00000124159894889026382010000009371970069528932500_);}
	.st33{fill:url(#SVGID_00000004546687971694193580000006010570770544848514_);}
	.st34{fill:url(#SVGID_00000167366699600516541240000003967259705310015404_);}
	.st35{fill:url(#SVGID_00000064333686758914974340000007686025819279728808_);}
	.st36{fill:url(#SVGID_00000008116334633300077580000010896079296914237353_);}
	.st37{fill:url(#SVGID_00000026879894994913428950000006422086221547468204_);}
	.st38{fill:url(#SVGID_00000109006311395882443210000009445103978800579487_);}
	.st39{fill:url(#SVGID_00000160911981071503835290000009428170145090942115_);}
	.st40{fill:url(#SVGID_00000077299921090990410020000012604492223350566536_);}
	.st41{fill:url(#SVGID_00000182499709658840892670000018355244406515132588_);}
	.st42{fill:url(#SVGID_00000123419683596034261140000002080305649841175211_);}
	.st43{fill:url(#SVGID_00000181066232120773724940000004390708873812779670_);}
	.st44{fill:url(#SVGID_00000178902287170714868410000004400994551882355352_);}
	.st45{fill:url(#SVGID_00000009565811313881078800000009162993539552772003_);}
	.st46{fill:url(#SVGID_00000110432653721429111180000001438753991542107022_);}
	.st47{fill:url(#SVGID_00000044870076836886236610000007042473313186753162_);}
	.st48{fill:url(#SVGID_00000108284476835239959860000017491523150012209055_);}
	.st49{fill:url(#SVGID_00000031913185313042513600000012403008805530297990_);}
	.st50{fill:url(#SVGID_00000154410052336800304220000003963629179939550097_);}
	.st51{fill:url(#SVGID_00000085945921842526079130000017102204069019268998_);}
	.st52{fill:url(#SVGID_00000082355486590225508300000017932063026886478212_);}
	.st53{fill:url(#SVGID_00000145766147958095800870000010766348081666323110_);}
	.st54{fill:url(#SVGID_00000088842477107996006010000014650616500865175969_);}
	.st55{fill:url(#SVGID_00000137836715654730401580000005025473633921386155_);}
	.st56{fill:url(#SVGID_00000123429547518220152610000010213579188348119713_);}
	.st57{fill:url(#SVGID_00000056414677776425002210000010243454167855027350_);}
	.st58{fill:url(#SVGID_00000077311941727160574370000011157997319671185328_);}
	.st59{fill:url(#SVGID_00000100341486319953939100000003599749752051536527_);}
	.st60{fill:url(#SVGID_00000034772004053665098680000005791723133446543255_);}
	.st61{fill:url(#SVGID_00000023257577798708450680000002929155555780428977_);}
	.st62{fill:url(#SVGID_00000044140947334847176280000008622642218974852499_);}
	.st63{fill:url(#SVGID_00000067936419648129651970000008511462546421437842_);}
	.st64{fill:url(#SVGID_00000092415182541951504370000008440826659330953866_);}
	.st65{fill:url(#SVGID_00000085955712718335337850000008556756643719614881_);}
	.st66{fill:url(#SVGID_00000019657112060357218380000017089141047773607049_);}
	.st67{fill:url(#SVGID_00000139259904863246475140000001531642930238696880_);}
	.st68{fill:url(#SVGID_00000031200773282572642010000004548605123616850070_);}
	.st69{fill:url(#SVGID_00000108996741408361269980000016366251257583821501_);}
	.st70{fill:url(#SVGID_00000128460484188037479590000015986626459920259724_);}
	.st71{fill:url(#SVGID_00000168799011738476073170000009223768896530293145_);}
	.st72{fill:url(#SVGID_00000046326335616514041870000011354178633567510931_);}
	.st73{fill:url(#SVGID_00000137830462301236993720000001431034566169263247_);}
	.st74{fill:url(#SVGID_00000159448558751335241240000009057739180361436568_);}
	.st75{fill:url(#SVGID_00000178909442497965408150000004761056234393174160_);}
	.st76{fill:url(#SVGID_00000011022368639882047370000008071539622186789022_);}
	.st77{fill:url(#SVGID_00000178889569492113146920000015411137941218262414_);}
	.st78{fill:url(#SVGID_00000167375345753888772540000011212890146695122314_);}
	.st79{fill:url(#SVGID_00000085216769287762136390000014157438289151108252_);}
	.st80{fill:url(#SVGID_00000083070885261301522850000005056708948178399632_);}
	.st81{fill:url(#SVGID_00000005261955937882319540000005088256959024129210_);}
	.st82{fill:url(#SVGID_00000165919867797961289110000008307445861955905925_);}
	.st83{fill:url(#SVGID_00000157296242635124552170000006500245611894356643_);}
	.st84{fill:url(#SVGID_00000101089502006232616980000006483380334204953533_);}
	.st85{fill:url(#SVGID_00000145769986262027650500000001050035486024104616_);}
	.st86{fill:url(#SVGID_00000052067976562558713530000011518651616664023694_);}
	.st87{fill:url(#SVGID_00000095336566374415010860000006861318572671556492_);}
	.st88{fill:url(#SVGID_00000141417442165087358790000005952355410250010253_);}
	.st89{fill:url(#SVGID_00000041995175958024314610000010390043340998919073_);}
	.st90{fill:url(#SVGID_00000126289624898545967960000001030695277652272303_);}
	.st91{fill:url(#SVGID_00000136370044361377068500000006429112273246901676_);}
	.st92{fill:url(#SVGID_00000075856918281730776220000016985568331217673898_);}
	.st93{fill:url(#SVGID_00000048480131110704281790000009518706617294246534_);}
	.st94{fill:url(#SVGID_00000104687263448953185870000016574428666621523121_);}
	.st95{fill:url(#SVGID_00000032616099285955574230000005633931964101590921_);}
	.st96{fill:url(#SVGID_00000049939562733200337720000005433493574656671378_);}
	.st97{fill:url(#SVGID_00000055686111510808207220000005515379232569621173_);}
	.st98{fill:url(#SVGID_00000142174078452496682050000012699531390307873454_);}
	.st99{fill:url(#SVGID_00000165914032990429515840000014440946711070996125_);}
	.st100{fill:url(#SVGID_00000108270769519975421470000005273995729842640775_);}
	.st101{fill:url(#SVGID_00000173149043091608686340000011842463014620376973_);}
	.st102{fill:url(#SVGID_00000025439243688709978270000008664300537516524471_);}
	.st103{fill:url(#SVGID_00000016764969897709740060000006324613392148848265_);}
	.st104{fill:url(#SVGID_00000103247007609063215710000006349110777750939299_);}
	.st105{fill:url(#SVGID_00000052066871367649322660000000457787611735576737_);}
	.st106{fill:url(#SVGID_00000107578719417547260370000002681642813851989131_);}
	.st107{fill:url(#SVGID_00000099631188548573203870000002354352048910547635_);}
	.st108{fill:url(#SVGID_00000049918878327640767810000001558007758392152709_);}
	.st109{fill:url(#SVGID_00000085231302735522406880000001070620225979913893_);}
	.st110{fill:url(#SVGID_00000164511498239754644300000015602599909747996312_);}
	.st111{fill:url(#SVGID_00000157300294402224080520000014798422734599260032_);}
	.st112{fill:url(#SVGID_00000084524467351526514460000011067724620565385651_);}
	.st113{fill:url(#SVGID_00000065054619007394311340000003504751659424867006_);}
	.st114{fill:url(#SVGID_00000026153277075140268290000015278690351092912018_);}
	.st115{fill:url(#SVGID_00000000190303179630491000000015172490183740717956_);}
	.st116{fill:url(#SVGID_00000023267482278924826380000006004699700523620536_);}
	.st117{fill:url(#SVGID_00000021091744148173542130000003602522095049440681_);}
	.st118{fill:url(#SVGID_00000122698211382771141070000003508695722903660947_);}
	.st119{fill:url(#SVGID_00000160172061439388337670000008351867546034844068_);}
	.st120{fill:url(#SVGID_00000031207072823461892410000006715613131782591655_);}
	.st121{fill:url(#SVGID_00000018200203206999947570000008236716867261059970_);}
	.st122{fill:url(#SVGID_00000155858236869257804970000016998862501574267831_);}
	.st123{fill:url(#SVGID_00000071533798183998471590000004032799162360569249_);}
	.st124{fill:url(#SVGID_00000026870318674273193100000013841677427472779659_);}
	.st125{fill:url(#SVGID_00000005227178212826847560000014180360088862695091_);}
	.st126{fill:url(#SVGID_00000112593265848586001480000007697484863551504020_);}
	.st127{fill:url(#SVGID_00000063611341897686082730000001731413478238859436_);}
	.st128{fill:url(#SVGID_00000055696728594978143460000016956091776821772968_);}
	.st129{fill:url(#SVGID_00000037685088901621405530000003964348178150891152_);}
	.st130{fill:url(#SVGID_00000135669927993738985580000008322414215822835641_);}
	.st131{fill:url(#SVGID_00000018228770025107170860000011073893780291615895_);}
	.st132{fill:url(#SVGID_00000176024192300301775750000012360450508734476951_);}
	.st133{fill:url(#SVGID_00000165203911774098958320000007477914114363746215_);}
	.st134{fill:url(#SVGID_00000101077591632813299230000014507265114815356307_);}
	.st135{fill:url(#SVGID_00000159443001938895528050000003249454731953708452_);}
	.st136{fill:url(#SVGID_00000010289877053769941560000017867905601959736765_);}
	.st137{fill:url(#SVGID_00000142886127312116034880000015487279951914496189_);}
	.st138{fill:url(#SVGID_00000020373183880690005150000016174491053128842165_);}
	.st139{fill:url(#SVGID_00000120558086629023561870000012645930705555318669_);}
	.st140{fill:url(#SVGID_00000135668564872410743970000006012685596270230422_);}
	.st141{fill:url(#SVGID_00000080901974647602426750000010429925456023113904_);}
	.st142{fill:url(#SVGID_00000125590864763107234080000012020009586776386717_);}
	.st143{fill:url(#SVGID_00000022528388030583750040000011894312589141313926_);}
	.st144{fill:url(#SVGID_00000132777983041408723380000013232519045246942630_);}
	.st145{fill:url(#SVGID_00000057870380572679189060000010802778827516456335_);}
	.st146{fill:url(#SVGID_00000051347267691757164870000003560024432874066829_);}
	.st147{fill:url(#SVGID_00000085930904852287719980000016680669802146687153_);}
	.st148{fill:url(#SVGID_00000153702776696145297720000007627503807758825635_);}
	.st149{fill:url(#SVGID_00000005244972446273909280000017793007293964203906_);}
</style>
<g>
	<path class="st0" d="M138.5,55.6c-0.2-0.5-0.4-0.9-0.7-1.3l0,0l-15-20.8l-11,2.7l-101.2,38c-0.2,0.1-0.4,0.1-0.4,0.3l-0.8,0.3
		l0-0.1c1.7,32.8,19.1,52.2,19.1,52.2c-0.2-0.2-0.3-0.5-0.5-0.8c0.2,0.2,0.3,0.5,0.5,0.8l23.4,5.5l19.4,2.6l6.3-2.3l2.4-0.9
		l71.1-25.9c2.8-1,4.3-4.1,3.2-6.9L138.5,55.6L138.5,55.6z"/>
	
		<linearGradient id="SVGID_1_" gradientUnits="userSpaceOnUse" x1="539.6312" y1="-332.8161" x2="539.9095" y2="-367.8894" gradientTransform="matrix(0.9397 -0.342 -0.342 -0.9397 -547.9963 -69.9718)">
		<stop  offset="0" style="stop-color:#5C5C5C"/>
		<stop  offset="0.1042" style="stop-color:#979797"/>
	</linearGradient>
	<path class="st1" d="M141.2,59.2l-4.2-5.8c-0.1-0.1-0.1-0.2-0.2-0.3l-0.2-0.2c0-0.1-0.1-0.1-0.1-0.2l-0.1-0.1l-6.1-8.3l-2.5-3.4
		l-0.5-0.7l-0.6-0.8l-11,2.7l-3.4,1.3l-5.5,2.1c0,0,0,0,0,0l-8.3,3.1L93,50.6L40,70.5l-5.3,2l-9,3.4l-5.3,2l-5.8,2.2l0,0
		c-0.4,0.1-0.6,0.4-0.7,0.8c-0.1,0.1-0.1,0.3-0.1,0.4c0,0.2,0,0.3,0.1,0.5c0,0.1,0.1,0.2,0.1,0.3c0,0,0,0.1,0.1,0.1c0,0,0,0,0,0
		c0,0.1,0.1,0.1,0.2,0.2c0.2,0.2,0.5,0.4,0.7,0.6c5,3.9,10.9,4.8,17.4,4.4l25-0.7l8-2.9l70.5-25.7c0.1,0,0.2-0.1,0.3-0.1l0,0
		c0.1,0,0.2-0.1,0.4-0.1c2.4-0.9,1.5-3,0.7-4.3L141,59C141.1,59.1,141.1,59.1,141.2,59.2z"/>
	<g>
		<path class="st2" d="M25.3,117.2l-0.2-0.1C25.2,117.2,25.2,117.3,25.3,117.2z"/>
		<path class="st2" d="M47.9,89.4l-11.6,0.3c0,0,0,0,0,0c-0.2,0.5-3.7,9.9,3,26.5c6.9,17.1,15,21.1,15,21.1c0,0-0.1-0.1-0.1-0.1
			c0,0,0.1,0,0.1,0c5.3,0.8,11.9,2,16.9,2.3c1,0.1,1.6-1.1,1.1-2c-9.5-13.8-13.7-26.9-14.7-43.4C57.2,88.8,53.4,89.4,47.9,89.4z"/>
		<polygon class="st3" points="130.4,44.2 127.5,40 125.5,40.8 128.5,44.9 		"/>
		<polygon class="st4" points="128,40.7 14,82.2 13.4,80.5 126.9,39.3 		"/>
		<ellipse transform="matrix(0.9397 -0.342 0.342 0.9397 -23.5524 14.7885)" class="st4" cx="30.2" cy="74.2" rx="10.5" ry="4.4"/>
		<ellipse transform="matrix(0.9397 -0.342 0.342 0.9397 -23.5524 14.7885)" class="st2" cx="30.2" cy="74.2" rx="4.8" ry="2"/>
		<ellipse transform="matrix(0.9397 -0.342 0.342 0.9397 -10.0947 38.098)" class="st4" cx="103" cy="47.7" rx="10.5" ry="4.4"/>
		<ellipse transform="matrix(0.9397 -0.342 0.342 0.9397 -10.0947 38.098)" class="st2" cx="103" cy="47.7" rx="4.8" ry="2"/>
		
			<linearGradient id="SVGID_00000109000092322573477080000007096262206397854336_" gradientUnits="userSpaceOnUse" x1="562.7219" y1="250.5388" x2="562.7219" y2="242.2865" gradientTransform="matrix(0.9397 -0.342 -0.342 -0.9397 -345.5204 486.3262)">
			<stop  offset="0.3111" style="stop-color:#000000"/>
			<stop  offset="1" style="stop-color:#37475E"/>
		</linearGradient>
		<path style="fill:url(#SVGID_00000109000092322573477080000007096262206397854336_);" d="M66.4,76.7L65,72.9c-0.4-1.2,0-2.6,1.2-3
			l61.2-22.3c1.1-0.4,1.9-0.3,3.1,1.1l2.7,3.7c1,1.6,0,2.6-1.2,3L69.2,78.3C68.1,78.7,66.9,78,66.4,76.7z"/>
		<path class="st2" d="M155.1,111.7l-79.8,29L56,138.1l-23.4-5.5c0,0,0,0,0,0c-0.1-0.3-0.3-0.5-0.5-0.7c0,0-0.1-0.1-0.1-0.1
			c-3.4-5.2-6.1-10.4-8.2-15.3l0.1,0l1.3,0.7c0.1,0.1,0.1,0.1,0.2,0.1l-0.2-0.1c-1.1-1.2-5.1-13.2-5-17.1l-1.9,0.9
			c-1.9-6.8-2.8-12.9-3.3-18.1c5,3.9,10.9,4.8,17.4,4.4l25-0.7l78.5-28.6c0.1,0,0.2-0.1,0.3-0.1l0,0c0.1,0,0.2-0.1,0.4-0.1
			c2.4-0.9,1.5-3,0.7-4.3L141,59c0.1,0,0.1,0.1,0.2,0.2c0.6,0.6,1.1,1.3,1.4,2.2l15.8,43.4C159.3,107.5,157.9,110.7,155.1,111.7z
			 M47.9,89.4l-11.6,0.3c0,0,0,0,0,0c-0.2,0.5-3.7,9.9,3,26.5c6.9,17.1,15,21.1,15,21.1c0,0-0.1-0.1-0.1-0.1c0,0,0.1,0,0.1,0
			c5.3,0.8,11.9,2,16.9,2.3c1,0.1,1.6-1.1,1.1-2c-9.5-13.8-13.7-26.9-14.7-43.4C57.2,88.8,53.4,89.4,47.9,89.4z"/>
		
			<linearGradient id="SVGID_00000136411754151094746720000006353389634310128046_" gradientUnits="userSpaceOnUse" x1="505.7397" y1="-379.3883" x2="493.9589" y2="-379.0549" gradientTransform="matrix(0.9397 -0.342 -0.342 -0.9397 -547.9963 -69.9718)">
			<stop  offset="0.3111" style="stop-color:#000000"/>
			<stop  offset="1" style="stop-color:#37475E"/>
		</linearGradient>
		<path style="fill:url(#SVGID_00000136411754151094746720000006353389634310128046_);" d="M47.9,89.4l-11.6,0.3c0,0,0,0,0,0
			c-5.1,17.9,10.1,43.5,17.9,47.5c0,0,0.1,0,0.1,0c5.3,0.8,11.9,2,16.9,2.3c1,0.1,1.6-1.1,1.1-2c-9.5-13.8-13.7-26.9-14.7-43.4
			C57.2,88.8,53.4,89.4,47.9,89.4z"/>
		
			<linearGradient id="SVGID_00000005982772385847885750000006331152564367187872_" gradientUnits="userSpaceOnUse" x1="505.485" y1="250.3699" x2="505.485" y2="242.6803" gradientTransform="matrix(0.9397 -0.342 -0.342 -0.9397 -345.5204 486.3262)">
			<stop  offset="0.3111" style="stop-color:#000000"/>
			<stop  offset="1" style="stop-color:#37475E"/>
		</linearGradient>
		<path style="fill:url(#SVGID_00000005982772385847885750000006331152564367187872_);" d="M54.4,81.4l-1.7-4.8
			c-0.3-0.8-1.2-1.3-2.1-1l-13.5,4.9c-0.8,0.3-1.3,1.2-1,2.1l0.1,0.3c0.2,0.7,0.8,1.1,1.5,1L53,83.5C54,83.6,54.8,82.5,54.4,81.4z"
			/>
		<path d="M54.2,137.2c-13.3-15.6-17-31.5-17.9-47.5c0,0,0,0,0,0c-0.2,0.5-3.7,9.9,3,26.5c6.9,17.1,15,21.1,15,21.1
			C54.3,137.3,54.2,137.2,54.2,137.2z"/>
		<path d="M14.8,82.1l-0.1-0.2l-0.6-0.7l-0.3-0.3l-0.4-0.4c1.8,32.1,18.4,51.3,19.2,52.1c-0.2-0.2-0.3-0.5-0.5-0.7
			c0,0-0.1-0.1-0.1-0.1c-3.4-5.2-6.1-10.4-8.2-15.3c-2.4-5.4-4.2-10.6-5.5-15.4c-1.9-6.8-2.8-12.9-3.3-18.1
			C14.9,82.7,14.9,82.4,14.8,82.1z"/>
		<path d="M25.3,117.2l-0.2-0.1C25.2,117.2,25.2,117.3,25.3,117.2z"/>
		<path d="M20.1,100.1l-1.9,0.9l-0.3,0.2l-0.1,0.1l5.4,14.9l0.2,0.1l0.4,0.2l0.1,0l1.3,0.7C24,116,20,103.9,20.1,100.1z"/>
		<path class="st9" d="M136.4,52.6L136.4,52.6C136.4,52.6,136.4,52.6,136.4,52.6C136.4,52.6,136.4,52.6,136.4,52.6z"/>
		<path class="st9" d="M137.1,53.5c0,0-0.1-0.1-0.1-0.1c-0.1-0.1-0.1-0.2-0.2-0.3l-0.2-0.2c0-0.1-0.1-0.1-0.1-0.2c0,0,0,0-0.1-0.1
			L137.1,53.5z"/>
	</g>
</g>
</svg>
