<?xml version="1.0" encoding="utf-8"?>
<!-- Generator: Adobe Illustrator 25.4.1, SVG Export Plug-In . SVG Version: 6.00 Build 0)  -->
<svg version="1.1" id="Layer_1" xmlns="http://www.w3.org/2000/svg" xmlns:xlink="http://www.w3.org/1999/xlink" x="0px" y="0px"
	 viewBox="0 0 168 168" style="enable-background:new 0 0 168 168;" xml:space="preserve">
<style type="text/css">
	.st0{opacity:0.2;fill:#151110;enable-background:new    ;}
	.st1{fill:url(#SVGID_1_);}
	.st2{fill:#FFFFFF;}
	.st3{fill:#C00D0D;}
	.st4{fill:#151110;}
	.st5{fill:url(#SVGID_00000029014972675682549240000000172977408857456265_);}
	.st6{fill:url(#SVGID_00000159453249042304133470000008562801213238945689_);}
	.st7{fill:none;stroke:#A03394;stroke-width:9;stroke-miterlimit:10;}
	.st8{fill:url(#SVGID_00000002371818451704423130000018222009600645395885_);}
	.st9{fill:#F0F0F0;}
	.st10{fill:url(#SVGID_00000078747045800733767690000001841460488537129860_);}
	.st11{fill:url(#SVGID_00000147192963578682092160000000014795046595402900_);}
	.st12{fill:url(#SVGID_00000039834058743803125270000009612903605016713350_);}
	.st13{fill:url(#SVGID_00000041292428768237945110000006236563568714574526_);}
	.st14{fill:url(#SVGID_00000152962544176105440080000010965655789939319227_);}
	.st15{fill:url(#SVGID_00000153694829459447521900000004919527777615570107_);}
	.st16{fill:url(#SVGID_00000089575667570656408180000009258552434032827819_);}
	.st17{fill:url(#SVGID_00000016063593159793398840000017742478301792427953_);}
	.st18{fill:url(#SVGID_00000069379978385446397470000014919756372399604865_);}
	.st19{fill:url(#SVGID_00000061449437262039570960000001993375562987584436_);}
	.st20{fill:url(#SVGID_00000014604453744762472790000004117823760205087911_);}
	.st21{fill:url(#SVGID_00000163054315260803144010000017765552861089716611_);}
	.st22{fill:url(#SVGID_00000078754903063482073620000012070566971393788842_);}
	.st23{fill:url(#SVGID_00000071545115930834749420000016953766533225651616_);}
	.st24{fill:url(#SVGID_00000164479685139594901530000016192847959696638650_);}
	.st25{fill:url(#SVGID_00000165206724815757708660000002068349790031469473_);}
	.st26{fill:url(#SVGID_00000150075656305719511410000003271435170133287335_);}
	.st27{fill:url(#SVGID_00000074412362127434875960000006020496913680560315_);}
	.st28{fill:url(#SVGID_00000014617604344152225810000012494624576337129904_);}
	.st29{fill:url(#SVGID_00000054245058412834003760000005010866494012268928_);}
	.st30{fill:url(#SVGID_00000149364246897148838010000002929766138220766384_);}
	.st31{fill:url(#SVGID_00000033365915350587333610000002200814110722592699_);}
	.st32{fill:url(#SVGID_00000005237890545790848630000015638584946011455408_);}
	.st33{fill:url(#SVGID_00000168831704009946602530000005508789901544701869_);}
	.st34{fill:url(#SVGID_00000129889151654434487250000003211607219407402403_);}
	.st35{fill:url(#SVGID_00000103985684853022060370000014578478827282505870_);}
	.st36{fill:url(#SVGID_00000104674801037127917210000011951694674834279557_);}
	.st37{fill:url(#SVGID_00000158737000358079249000000017859483710938297997_);}
	.st38{fill:url(#SVGID_00000138561521160007669140000016806446798470638014_);}
	.st39{fill:url(#SVGID_00000119095415899217989610000016661709259713963947_);}
	.st40{fill:url(#SVGID_00000176736636778969499140000003179880019186755229_);}
	.st41{fill:url(#SVGID_00000049916178760359155030000016181262610878223536_);}
	.st42{fill:url(#SVGID_00000138548863770349108390000002908954730454690716_);}
	.st43{fill:url(#SVGID_00000147910881299512976630000000671951175039344513_);}
	.st44{fill:url(#SVGID_00000046332998911427165530000004995614571071683774_);}
	.st45{fill:url(#SVGID_00000047763312786139289170000010217029897283410586_);}
	.st46{fill:url(#SVGID_00000067943085457485353490000000400666134210707637_);}
	.st47{fill:url(#SVGID_00000019645474425792569180000012002320740634269058_);}
	.st48{fill:url(#SVGID_00000115488983738599616050000006381143354203882900_);}
	.st49{fill:url(#SVGID_00000098928213242447321250000018053519217934911137_);}
	.st50{fill:url(#SVGID_00000154391177643179489290000006138177567714255523_);}
	.st51{fill:url(#SVGID_00000172430760512743808040000004096818404896893830_);}
	.st52{fill:url(#SVGID_00000160875691964225746200000000024769107453203600_);}
	.st53{fill:url(#SVGID_00000019674870804713228500000003072712833481918123_);}
	.st54{fill:url(#SVGID_00000029734131668086218740000008417119488814751894_);}
	.st55{fill:url(#SVGID_00000046325841388705009760000000716614271439047073_);}
	.st56{fill:url(#SVGID_00000023984688711223858090000013070077589472730297_);}
	.st57{fill:url(#SVGID_00000022521767273145186330000003014031606528026509_);}
	.st58{fill:url(#SVGID_00000005258133931723637430000017325651333705363337_);}
	.st59{fill:url(#SVGID_00000068639531605994162150000008425153013191745678_);}
	.st60{fill:url(#SVGID_00000050637418177714018060000010181067269649516441_);}
	.st61{fill:url(#SVGID_00000142871671463020379310000006421572725753524356_);}
	.st62{fill:url(#SVGID_00000173121944477051803940000006824994587822937243_);}
	.st63{fill:url(#SVGID_00000090998869851805950590000012557016488468164513_);}
	.st64{fill:url(#SVGID_00000042695148306237959290000003661704573600844469_);}
	.st65{fill:url(#SVGID_00000099623597825617812370000001499250317457002908_);}
	.st66{fill:url(#SVGID_00000108273762975451255680000005350267665320078752_);}
	.st67{fill:url(#SVGID_00000031904324783118250680000000369065084935780999_);}
	.st68{fill:url(#SVGID_00000112598886938251595230000012433789000751949717_);}
	.st69{fill:url(#SVGID_00000116930227648818939520000011952761064735348643_);}
	.st70{fill:url(#SVGID_00000167370502774106071470000001495005023962282173_);}
	.st71{fill:url(#SVGID_00000183213083315845286240000010361095447041509039_);}
	.st72{fill:url(#SVGID_00000000902177445108262040000015567423283721121684_);}
	.st73{fill:url(#SVGID_00000054977969909619794350000004878392915531874479_);}
	.st74{fill:url(#SVGID_00000158744109201783525220000006579459423117286530_);}
	.st75{fill:url(#SVGID_00000039823097374433038120000014353073910794277512_);}
	.st76{fill:url(#SVGID_00000163067431768501092580000016859303641611931789_);}
	.st77{fill:url(#SVGID_00000066512696435607041650000003009194287267138983_);}
	.st78{fill:url(#SVGID_00000163760844908052941330000012341012021972909196_);}
	.st79{fill:url(#SVGID_00000114049423598027814780000010748604885933973182_);}
	.st80{fill:url(#SVGID_00000128468223757318200160000017341569163194684290_);}
	.st81{fill:url(#SVGID_00000116919882132994544990000011933880786523316360_);}
	.st82{fill:url(#SVGID_00000021818794751568418080000000096072328059827896_);}
	.st83{fill:url(#SVGID_00000160888417293269263960000016820551290229047697_);}
	.st84{fill:url(#SVGID_00000071552466579145430950000006629212937018488991_);}
	.st85{fill:url(#SVGID_00000127023593974664315550000004611670671418897839_);}
	.st86{fill:url(#SVGID_00000061467324840774829810000015209784967572696753_);}
	.st87{fill:url(#SVGID_00000140010170708187941450000008696187767336817811_);}
	.st88{fill:url(#SVGID_00000173138303059193867850000004774956299301936045_);}
	.st89{fill:url(#SVGID_00000164481560208100102280000002731649964288252573_);}
	.st90{fill:url(#SVGID_00000179619612745782377760000015363227814089734789_);}
	.st91{fill:url(#SVGID_00000010299703112201943100000007948126991658095802_);}
	.st92{fill:url(#SVGID_00000092423351473741473170000005333301900952794536_);}
	.st93{fill:url(#SVGID_00000106842096343289370310000010823622382578002576_);}
	.st94{fill:url(#SVGID_00000024695285827411805830000014818479002427937962_);}
	.st95{fill:url(#SVGID_00000105395986789244564430000015058500264536659078_);}
	.st96{fill:url(#SVGID_00000040540202704363428750000016414717750882943408_);}
	.st97{fill:url(#SVGID_00000113318511512258240550000011586410720574561723_);}
	.st98{fill:url(#SVGID_00000158724417462292890750000015166201422153268412_);}
	.st99{fill:url(#SVGID_00000073694321088852526720000013009547119176186266_);}
	.st100{fill:url(#SVGID_00000120547530483337528510000003187827090398465197_);}
	.st101{fill:url(#SVGID_00000097501069712046084670000004152106704038731420_);}
	.st102{fill:url(#SVGID_00000058588510506535682790000012595213724504347063_);}
	.st103{fill:url(#SVGID_00000003791048742861195940000004092807678517105299_);}
	.st104{fill:url(#SVGID_00000147900776595949999350000007309603490218760885_);}
	.st105{fill:url(#SVGID_00000075850474248513422920000018356592201549346733_);}
	.st106{fill:url(#SVGID_00000047743584167527377110000016075714528483863696_);}
	.st107{fill:url(#SVGID_00000052786665192012067200000007468058889162434990_);}
	.st108{fill:url(#SVGID_00000149374928114452704210000017954576415899674536_);}
	.st109{fill:url(#SVGID_00000078759813945781191430000015096576209309263286_);}
	.st110{fill:url(#SVGID_00000096768313625808209850000013505053979968816263_);}
	.st111{fill:url(#SVGID_00000007393010183634863480000009865574289844628098_);}
	.st112{fill:url(#SVGID_00000072267671685480105010000014030443581942465423_);}
	.st113{fill:url(#SVGID_00000095325129994787714070000009412277625447258293_);}
	.st114{fill:url(#SVGID_00000056400058741652770460000004116465784470501284_);}
	.st115{fill:url(#SVGID_00000057829498490125073380000005916248172418943143_);}
	.st116{fill:url(#SVGID_00000160168942636525295920000007430141673435370380_);}
	.st117{fill:url(#SVGID_00000143575675573637283100000010512324796268766911_);}
	.st118{fill:url(#SVGID_00000144317970860436420790000002560249329749259411_);}
	.st119{fill:url(#SVGID_00000086688794888781597420000009820956211072067477_);}
	.st120{fill:url(#SVGID_00000105384875797205964520000001720729645202152076_);}
	.st121{fill:url(#SVGID_00000014611075508597407670000000838367238919887545_);}
	.st122{fill:url(#SVGID_00000105391158846554401230000012457963801775249071_);}
	.st123{fill:url(#SVGID_00000163038604692607040140000015481879423720071081_);}
	.st124{fill:url(#SVGID_00000075132785222227611980000004786071517789126320_);}
	.st125{fill:url(#SVGID_00000006668602382839302600000012759737846381273248_);}
	.st126{fill:url(#SVGID_00000098942134172134085750000013091157140238209204_);}
	.st127{fill:url(#SVGID_00000098219056511229269860000000047456277289273489_);}
	.st128{fill:url(#SVGID_00000062879648576306303580000016683862619581182648_);}
	.st129{fill:url(#SVGID_00000000183064616398357330000010335535253850963072_);}
	.st130{fill:url(#SVGID_00000016784867156956682590000014545265469409150605_);}
	.st131{fill:url(#SVGID_00000092426764089417655330000010259863635404249233_);}
	.st132{fill:url(#SVGID_00000075882330810401999820000015888088396805596032_);}
	.st133{fill:url(#SVGID_00000021830949240885928320000001206592870697062801_);}
	.st134{fill:url(#SVGID_00000057117249554760868780000016394123208028174507_);}
	.st135{fill:url(#SVGID_00000062883162628069785200000008244336285888576386_);}
	.st136{fill:url(#SVGID_00000062167731521246190280000017628825841979249026_);}
	.st137{fill:url(#SVGID_00000048467829663258436260000007369869388130472881_);}
	.st138{fill:url(#SVGID_00000001661494996326784340000015975428576882153661_);}
	.st139{fill:url(#SVGID_00000139261497222785642550000009327280702518860429_);}
	.st140{fill:url(#SVGID_00000121278942124362141220000015393293014196791981_);}
	.st141{fill:url(#SVGID_00000060712192112405671860000013148136100022301622_);}
	.st142{fill:url(#SVGID_00000064334501955979622990000007313213000936501404_);}
	.st143{fill:url(#SVGID_00000058560226614554450060000003917875375775200954_);}
	.st144{fill:url(#SVGID_00000173130556306356479880000001160257210819603072_);}
	.st145{fill:url(#SVGID_00000105427086990264779740000011441969580997898378_);}
	.st146{fill:url(#SVGID_00000145758310120747772210000009094076287594040489_);}
	.st147{fill:url(#SVGID_00000018949572488711389500000016016039896908395406_);}
	.st148{fill:url(#SVGID_00000143584027507892874600000005712071571846214547_);}
	.st149{fill:url(#SVGID_00000029027964947181494050000004735911652738477235_);}
</style>
<g>
	<path class="st0" d="M143.2,65.5c-0.1-0.5-0.3-1-0.5-1.4l0,0L131.5,41l-11.3,0.8L13.9,61.6c-0.2,0-0.4,0.1-0.5,0.2l-0.8,0.1l0-0.1
		c-4,32.6,9.8,54.7,9.8,54.7c-0.2-0.3-0.2-0.6-0.4-0.9c0.2,0.3,0.2,0.6,0.4,0.9l22.1,9.5l18.6,6l6.6-1.2l2.6-0.5l74.5-13.1
		c3-0.5,4.9-3.3,4.4-6.3L143.2,65.5L143.2,65.5z"/>
	
		<linearGradient id="SVGID_1_" gradientUnits="userSpaceOnUse" x1="539.6312" y1="-332.8161" x2="539.9095" y2="-367.8894" gradientTransform="matrix(0.9848 -0.1736 -0.1736 -0.9848 -511.1214 -177.3372)">
		<stop  offset="0" style="stop-color:#5C5C5C"/>
		<stop  offset="0.1042" style="stop-color:#979797"/>
	</linearGradient>
	<path class="st1" d="M145.2,69.5l-3.2-6.4c-0.1-0.1-0.1-0.2-0.2-0.3l-0.1-0.3c0-0.1-0.1-0.2-0.1-0.2l-0.1-0.1l-4.5-9.3l-1.9-3.8
		l-0.4-0.7l-0.4-0.8l-11.3,0.8l-3.5,0.7l-5.8,1.1c0,0,0,0,0,0l-8.7,1.6l-5.8,1.1L43.5,63.1l-5.6,1l-9.4,1.8l-5.6,1l-6.1,1.1l0,0
		c-0.4,0.1-0.7,0.3-0.9,0.7c-0.1,0.1-0.1,0.2-0.1,0.4c0,0.2,0,0.3,0,0.5c0,0.1,0,0.2,0.1,0.3c0,0,0,0.1,0.1,0.1c0,0,0,0,0,0
		c0,0.1,0.1,0.1,0.1,0.2c0.2,0.2,0.4,0.5,0.6,0.7c4.2,4.7,9.9,6.6,16.3,7.4L57.7,82l8.4-1.5l73.9-13c0.1,0,0.2,0,0.3,0l0,0
		c0.1,0,0.2-0.1,0.4-0.1c2.5-0.4,2-2.7,1.4-4.1l2.9,6.1C145.1,69.4,145.1,69.5,145.2,69.5z"/>
	<g>
		<path class="st2" d="M20.9,106.6l-0.2-0.1C20.9,106.5,20.9,106.6,20.9,106.6z"/>
		<path class="st2" d="M48.1,83.1l-11.5-1.7c0,0,0,0,0,0c-0.3,0.5-5.4,9.1-1.7,26.6c3.8,18,11.1,23.4,11.1,23.4
			c0-0.1-0.1-0.1-0.1-0.2c0,0,0,0,0.1,0.1c5.1,1.7,11.4,4,16.2,5.2c1,0.2,1.8-0.8,1.4-1.8c-6.9-15.2-8.9-28.9-7-45.3
			C57.3,84.1,53.4,84,48.1,83.1z"/>
		<polygon class="st3" points="137.2,52.9 135,48.3 132.9,48.7 135.1,53.2 		"/>
		<polygon class="st4" points="135.4,49 15.9,70.1 15.6,68.3 134.5,47.5 		"/>
		<ellipse transform="matrix(0.9848 -0.1736 0.1736 0.9848 -10.7861 6.7561)" class="st4" cx="33.2" cy="65" rx="10.5" ry="4.4"/>
		<ellipse transform="matrix(0.9848 -0.1736 0.1736 0.9848 -10.7861 6.7561)" class="st2" cx="33.2" cy="65" rx="4.8" ry="2"/>
		
			<ellipse transform="matrix(0.9848 -0.1736 0.1736 0.9848 -7.2896 19.8049)" class="st4" cx="109.5" cy="51.6" rx="10.5" ry="4.4"/>
		<ellipse transform="matrix(0.9848 -0.1736 0.1736 0.9848 -7.2896 19.8049)" class="st2" cx="109.5" cy="51.6" rx="4.8" ry="2"/>
		
			<linearGradient id="SVGID_00000029026804214225141990000005588493081156916890_" gradientUnits="userSpaceOnUse" x1="562.7219" y1="250.5388" x2="562.7219" y2="242.2865" gradientTransform="matrix(0.9848 -0.1736 -0.1736 -0.9848 -408.3217 405.6689)">
			<stop  offset="0.3111" style="stop-color:#000000"/>
			<stop  offset="1" style="stop-color:#37475E"/>
		</linearGradient>
		<path style="fill:url(#SVGID_00000029026804214225141990000005588493081156916890_);" d="M68.5,73.8l-0.7-4
			c-0.2-1.3,0.5-2.5,1.7-2.7l64.1-11.3c1.2-0.2,1.9,0.1,2.8,1.6l2,4.1c0.7,1.7-0.5,2.5-1.7,2.7L71,75.8C69.8,76,68.7,75.1,68.5,73.8
			z"/>
		<path class="st2" d="M149.8,123.7l-83.6,14.7l-18.6-6l-22.1-9.5c0,0,0,0,0,0c-0.1-0.3-0.2-0.5-0.3-0.8c0,0,0-0.1-0.1-0.1
			c-2.4-5.7-4.2-11.2-5.5-16.5l0.1,0l1.1,0.9c0.1,0.1,0.1,0.1,0.2,0.1l-0.2-0.1c-0.9-1.3-2.7-13.9-2-17.7l-2,0.6
			c-0.7-7-0.5-13.2-0.1-18.4c4.2,4.7,9.9,6.6,16.3,7.4L57.7,82L140,67.5c0.1,0,0.2,0,0.3,0l0,0c0.1,0,0.2-0.1,0.4-0.1
			c2.5-0.4,2-2.7,1.4-4.1l2.9,6.1c0.1,0.1,0.1,0.1,0.2,0.2c0.5,0.7,0.9,1.5,1,2.4l8,45.5C154.7,120.3,152.7,123.2,149.8,123.7z
			 M48.1,83.1l-11.5-1.7c0,0,0,0,0,0c-0.3,0.5-5.4,9.1-1.7,26.6c3.8,18,11.1,23.4,11.1,23.4c0-0.1-0.1-0.1-0.1-0.2c0,0,0,0,0.1,0.1
			c5.1,1.7,11.4,4,16.2,5.2c1,0.2,1.8-0.8,1.4-1.8c-6.9-15.2-8.9-28.9-7-45.3C57.3,84.1,53.4,84,48.1,83.1z"/>
		
			<linearGradient id="SVGID_00000024679829466223870770000009667018059131105931_" gradientUnits="userSpaceOnUse" x1="505.7397" y1="-379.3883" x2="493.9589" y2="-379.0549" gradientTransform="matrix(0.9848 -0.1736 -0.1736 -0.9848 -511.1214 -177.3372)">
			<stop  offset="0.3111" style="stop-color:#000000"/>
			<stop  offset="1" style="stop-color:#37475E"/>
		</linearGradient>
		<path style="fill:url(#SVGID_00000024679829466223870770000009667018059131105931_);" d="M48.1,83.1l-11.5-1.7c0,0,0,0,0,0
			C28.4,98.1,39,126,46,131.2c0,0,0,0,0.1,0.1c5.1,1.7,11.4,4,16.2,5.2c1,0.2,1.8-0.8,1.4-1.8c-6.9-15.2-8.9-28.9-7-45.3
			C57.3,84.1,53.4,84,48.1,83.1z"/>
		
			<linearGradient id="SVGID_00000172409431194793019860000001222439058515916682_" gradientUnits="userSpaceOnUse" x1="505.485" y1="250.3699" x2="505.485" y2="242.6803" gradientTransform="matrix(0.9848 -0.1736 -0.1736 -0.9848 -408.3217 405.6689)">
			<stop  offset="0.3111" style="stop-color:#000000"/>
			<stop  offset="1" style="stop-color:#37475E"/>
		</linearGradient>
		<path style="fill:url(#SVGID_00000172409431194793019860000001222439058515916682_);" d="M55.8,76.4l-0.9-5
			c-0.2-0.9-1-1.5-1.9-1.3l-14.2,2.5c-0.9,0.2-1.5,1-1.3,1.9l0.1,0.3c0.1,0.7,0.6,1.2,1.3,1.3l15.1,2.2C55.1,78.4,56,77.4,55.8,76.4
			z"/>
		<path d="M46,131.2c-10.4-17.7-11.3-33.9-9.3-49.9c0,0,0,0,0,0c-0.3,0.5-5.4,9.1-1.7,26.6c3.8,18,11.1,23.4,11.1,23.4
			C46,131.3,46,131.3,46,131.2z"/>
		<path d="M16.8,70.2L16.6,70l-0.5-0.8l-0.2-0.4l-0.3-0.5c-3.8,31.9,9.3,53.7,9.8,54.6c-0.1-0.3-0.2-0.5-0.3-0.8c0,0,0-0.1-0.1-0.1
			c-2.4-5.7-4.2-11.2-5.5-16.5c-1.5-5.8-2.3-11.2-2.8-16.2c-0.7-7-0.5-13.2-0.1-18.4C16.7,70.7,16.7,70.4,16.8,70.2z"/>
		<path d="M20.9,106.6l-0.2-0.1C20.9,106.5,20.9,106.6,20.9,106.6z"/>
		<path d="M18.8,88.8l-2,0.6l-0.3,0.1l-0.1,0l2.8,15.7l0.2,0.1l0.3,0.2l0.1,0l1.1,0.9C19.9,105.1,18.1,92.6,18.8,88.8z"/>
		<path class="st9" d="M141.6,62.2L141.6,62.2C141.6,62.2,141.6,62.2,141.6,62.2C141.6,62.2,141.6,62.2,141.6,62.2z"/>
		<path class="st9" d="M142.1,63.2c0,0,0-0.1-0.1-0.1c-0.1-0.1-0.1-0.2-0.2-0.3l-0.1-0.3c0-0.1-0.1-0.2-0.1-0.2c0,0,0,0,0-0.1
			L142.1,63.2z"/>
	</g>
</g>
</svg>
