<?xml version="1.0" encoding="utf-8"?>
<!-- Generator: Adobe Illustrator 25.4.1, SVG Export Plug-In . SVG Version: 6.00 Build 0)  -->
<svg version="1.1" id="Layer_1" xmlns="http://www.w3.org/2000/svg" xmlns:xlink="http://www.w3.org/1999/xlink" x="0px" y="0px"
	 viewBox="0 0 168 168" style="enable-background:new 0 0 168 168;" xml:space="preserve">
<style type="text/css">
	.st0{opacity:0.2;fill:#151110;enable-background:new    ;}
	.st1{fill:url(#SVGID_1_);}
	.st2{fill:#FFFFFF;}
	.st3{fill:#C00D0D;}
	.st4{fill:#151110;}
	.st5{fill:url(#SVGID_00000174595732849085233930000009545258637028141709_);}
	.st6{fill:url(#SVGID_00000130628958262109126580000015877718208439540413_);}
	.st7{fill:none;stroke:#A03394;stroke-width:9;stroke-miterlimit:10;}
	.st8{fill:url(#SVGID_00000181773190538622006140000006492120649401589936_);}
	.st9{fill:#F0F0F0;}
	.st10{fill:url(#SVGID_00000036250895619622487480000003094669584593833378_);}
	.st11{fill:url(#SVGID_00000113334674387132691850000015308719372759224462_);}
	.st12{fill:url(#SVGID_00000016056656878465814220000006878964020456495748_);}
	.st13{fill:url(#SVGID_00000014602881060051642900000001545238344516635046_);}
	.st14{fill:url(#SVGID_00000142891257748537654020000009168195680053321345_);}
	.st15{fill:url(#SVGID_00000170991104767985737060000010123929255123707020_);}
	.st16{fill:url(#SVGID_00000088100328027598808220000004489094209891527829_);}
	.st17{fill:url(#SVGID_00000081646350936899771490000002351799707578539946_);}
	.st18{fill:url(#SVGID_00000075123605711986990720000014196422094375706259_);}
	.st19{fill:url(#SVGID_00000145054426471948064530000004876598408847594396_);}
	.st20{fill:url(#SVGID_00000142866367476673228370000012159562521011535018_);}
	.st21{fill:url(#SVGID_00000168081671772701340130000001218219943696213655_);}
	.st22{fill:url(#SVGID_00000120541001057076244710000005518953221908945854_);}
	.st23{fill:url(#SVGID_00000183967892963687029260000009473918327807981235_);}
	.st24{fill:url(#SVGID_00000092452389622891977780000010158597579035489408_);}
	.st25{fill:url(#SVGID_00000003083877297647980590000016024012988739046844_);}
	.st26{fill:url(#SVGID_00000097479244473103531700000016606020852450309517_);}
	.st27{fill:url(#SVGID_00000017514701263850527340000008220517355495270540_);}
	.st28{fill:url(#SVGID_00000172429177705168705550000015693450634063495064_);}
	.st29{fill:url(#SVGID_00000093169810313189567220000004162971416242558626_);}
	.st30{fill:url(#SVGID_00000038386375487533932670000018436634544733110191_);}
	.st31{fill:url(#SVGID_00000181057505862942167860000016801675802869155750_);}
	.st32{fill:url(#SVGID_00000128466241033343647300000000419023794923200685_);}
	.st33{fill:url(#SVGID_00000012452381366197069000000016176674354825009853_);}
	.st34{fill:url(#SVGID_00000047774347328261549880000009872185196082087829_);}
	.st35{fill:url(#SVGID_00000103242996806450124750000018151880056616406413_);}
	.st36{fill:url(#SVGID_00000145055562444502566740000016064187718896375711_);}
	.st37{fill:url(#SVGID_00000142868375948628739390000001117324589325002897_);}
	.st38{fill:url(#SVGID_00000169547151864146779970000017323099894310353798_);}
	.st39{fill:url(#SVGID_00000015343983402644706500000013482429710341511820_);}
	.st40{fill:url(#SVGID_00000079467257808081591940000012275541517565462949_);}
	.st41{fill:url(#SVGID_00000137102594347856556570000001679897436557467306_);}
	.st42{fill:url(#SVGID_00000133518042612959811270000017053541917419274894_);}
	.st43{fill:url(#SVGID_00000009549802342568366760000000066443893896228769_);}
	.st44{fill:url(#SVGID_00000072246315384260898170000003367967320622630025_);}
	.st45{fill:url(#SVGID_00000138547882519413343130000017948981358323177623_);}
	.st46{fill:url(#SVGID_00000124882159358260849730000007371845726080603823_);}
	.st47{fill:url(#SVGID_00000158719690449163906140000017907217101071519401_);}
	.st48{fill:url(#SVGID_00000158722877734730317420000011759305678707752334_);}
	.st49{fill:url(#SVGID_00000062193034300106972980000016856253315573306243_);}
	.st50{fill:url(#SVGID_00000141443696725504765320000009031978078256879027_);}
	.st51{fill:url(#SVGID_00000127737447469361948870000006984473360236175802_);}
	.st52{fill:url(#SVGID_00000127761534120682789070000010229920930470545339_);}
	.st53{fill:url(#SVGID_00000132772573059782209240000016095188259198640013_);}
	.st54{fill:url(#SVGID_00000151521989975208361140000000881800189024691863_);}
	.st55{fill:url(#SVGID_00000137825002285244830590000013419078280048492209_);}
	.st56{fill:url(#SVGID_00000062173545256121738960000015236756496108504218_);}
	.st57{fill:url(#SVGID_00000117637440517616853440000006263952223474255235_);}
	.st58{fill:url(#SVGID_00000070832485561180120350000005104417871697348510_);}
	.st59{fill:url(#SVGID_00000023239090637084924490000009012556413267697808_);}
	.st60{fill:url(#SVGID_00000029767972503169696220000011177984005234654878_);}
	.st61{fill:url(#SVGID_00000049184348315736853430000016977724440991978424_);}
	.st62{fill:url(#SVGID_00000059286186636766193780000016877787836517281459_);}
	.st63{fill:url(#SVGID_00000033358493765516785220000017003666673841366933_);}
	.st64{fill:url(#SVGID_00000113325965024106544210000009503022953406598291_);}
	.st65{fill:url(#SVGID_00000039121037541765573580000018034935272633369738_);}
	.st66{fill:url(#SVGID_00000014617389126920381790000016467250416227620485_);}
	.st67{fill:url(#SVGID_00000141418247277896264940000018349102639961086087_);}
	.st68{fill:url(#SVGID_00000160881540045508974100000011016345832233177017_);}
	.st69{fill:url(#SVGID_00000125562964873018931660000007076399534427943609_);}
	.st70{fill:url(#SVGID_00000172415263550736891940000018375262286634923421_);}
	.st71{fill:url(#SVGID_00000132800328343310244420000000105578245850594691_);}
	.st72{fill:url(#SVGID_00000084515277597699497370000014613093888574966419_);}
	.st73{fill:url(#SVGID_00000119106721417593639370000017850337824938322567_);}
	.st74{fill:url(#SVGID_00000131344801701179031160000005888057050744828558_);}
	.st75{fill:url(#SVGID_00000126288281038006271420000005968543962676342172_);}
	.st76{fill:url(#SVGID_00000018923428570851331600000005041125794677011875_);}
	.st77{fill:url(#SVGID_00000180363793841713054860000018419477334880163505_);}
	.st78{fill:url(#SVGID_00000078749479735489331190000003671520117976473501_);}
	.st79{fill:url(#SVGID_00000022553466590091740210000012666220135563822002_);}
	.st80{fill:url(#SVGID_00000147186370027486984770000015594573474526092185_);}
	.st81{fill:url(#SVGID_00000117672343805076895420000008057064711449686439_);}
	.st82{fill:url(#SVGID_00000057130214192889160060000014774511707495546003_);}
	.st83{fill:url(#SVGID_00000026162792059029456540000004966343150821137025_);}
	.st84{fill:url(#SVGID_00000160870987407822044010000010227026467801087911_);}
	.st85{fill:url(#SVGID_00000092457570862735961350000009121693894324100267_);}
	.st86{fill:url(#SVGID_00000075138928654441983450000000161383466483185290_);}
	.st87{fill:url(#SVGID_00000074419109656679850220000005645270198779803066_);}
	.st88{fill:url(#SVGID_00000089545583764805681950000015786057387006886547_);}
	.st89{fill:url(#SVGID_00000143582133091544358980000001754509432602886049_);}
	.st90{fill:url(#SVGID_00000067237401828677885760000005870514843393325966_);}
	.st91{fill:url(#SVGID_00000116955681310642712210000012386702521654737828_);}
	.st92{fill:url(#SVGID_00000041266643045980406170000012087347016967827336_);}
	.st93{fill:url(#SVGID_00000121266072102769920840000007814559215290672011_);}
	.st94{fill:url(#SVGID_00000108299622961099968400000010183117798757368760_);}
	.st95{fill:url(#SVGID_00000132070608198864246270000011968103591998268075_);}
	.st96{fill:url(#SVGID_00000055692801551610698370000001922473997493964167_);}
	.st97{fill:url(#SVGID_00000054952452970870762410000008015512966253059733_);}
	.st98{fill:url(#SVGID_00000078737357842435893980000002690665849495314819_);}
	.st99{fill:url(#SVGID_00000057864998637621628730000015003151163799915912_);}
	.st100{fill:url(#SVGID_00000009588602531066605850000010419745006617261198_);}
	.st101{fill:url(#SVGID_00000171697188510230244650000014309563414259969951_);}
	.st102{fill:url(#SVGID_00000163034659555807620580000018323170417939556254_);}
	.st103{fill:url(#SVGID_00000120521285965276736600000016872288824758095275_);}
	.st104{fill:url(#SVGID_00000101798924220176505510000015892900335725739685_);}
	.st105{fill:url(#SVGID_00000001646444545609687300000007067638220737603512_);}
	.st106{fill:url(#SVGID_00000023246051741060099460000011526695036878364079_);}
	.st107{fill:url(#SVGID_00000133525954955201521380000010989515644778601399_);}
	.st108{fill:url(#SVGID_00000088811820399311409700000007822917140993414049_);}
	.st109{fill:url(#SVGID_00000009590488190045737910000011977124340842995335_);}
	.st110{fill:url(#SVGID_00000139274930902262818660000004221972480016967054_);}
	.st111{fill:url(#SVGID_00000111173008554599105800000007378242859559038863_);}
	.st112{fill:url(#SVGID_00000151528536374309760830000012077427432250863498_);}
	.st113{fill:url(#SVGID_00000090986205682403500530000014987699478068839310_);}
	.st114{fill:url(#SVGID_00000083777933738721674890000014607989515888211865_);}
	.st115{fill:url(#SVGID_00000096748913415096579850000005403528932979850164_);}
	.st116{fill:url(#SVGID_00000143608825860824287530000017671437984698949812_);}
	.st117{fill:url(#SVGID_00000181064435075537102800000006663040330730802086_);}
	.st118{fill:url(#SVGID_00000026152964623110836400000013600808422566867594_);}
	.st119{fill:url(#SVGID_00000002379848349275037690000002658811523650237608_);}
	.st120{fill:url(#SVGID_00000183948210089606518950000016035332216308394405_);}
	.st121{fill:url(#SVGID_00000057123710840965852250000017492005868630230941_);}
	.st122{fill:url(#SVGID_00000099650629173366969610000008770030162395386241_);}
	.st123{fill:url(#SVGID_00000031905759584521053530000009203348296295311755_);}
	.st124{fill:url(#SVGID_00000142152823102427905810000016904801899666880674_);}
	.st125{fill:url(#SVGID_00000024692835130833587470000015537172190074757053_);}
	.st126{fill:url(#SVGID_00000078763595674801399630000017155870550445628858_);}
	.st127{fill:url(#SVGID_00000127023973257074714020000000358119895040703935_);}
	.st128{fill:url(#SVGID_00000090295569491912906100000011557659886532788865_);}
	.st129{fill:url(#SVGID_00000088839592477030928280000016683409408502727587_);}
	.st130{fill:url(#SVGID_00000150821495807368569620000007451316672335436210_);}
	.st131{fill:url(#SVGID_00000124156473370823268220000011740674115477258889_);}
	.st132{fill:url(#SVGID_00000156589350703529452060000004145679942728744601_);}
	.st133{fill:url(#SVGID_00000055678929861577983250000013012009871587674510_);}
	.st134{fill:url(#SVGID_00000049937456339965953900000003315114897408889766_);}
	.st135{fill:url(#SVGID_00000178926928213352598920000001479052893399670677_);}
	.st136{fill:url(#SVGID_00000109710082220545223890000005847713270553982907_);}
	.st137{fill:url(#SVGID_00000075153368503664414000000010004549976459146404_);}
	.st138{fill:url(#SVGID_00000029764085710170393350000012572231408508401313_);}
	.st139{fill:url(#SVGID_00000039845462767250362440000009080004369240480185_);}
	.st140{fill:url(#SVGID_00000112597333685602899830000014799931510875139001_);}
	.st141{fill:url(#SVGID_00000097469183607839165360000006570995694311983495_);}
	.st142{fill:url(#SVGID_00000114062818042874850710000008853106712984218534_);}
	.st143{fill:url(#SVGID_00000168800035698452844720000011542429441453433490_);}
	.st144{fill:url(#SVGID_00000065035779406424280220000005945392485748923817_);}
	.st145{fill:url(#SVGID_00000023996695157266071870000017668114468202698132_);}
	.st146{fill:url(#SVGID_00000150821710947498737440000009844676523119313041_);}
	.st147{fill:url(#SVGID_00000138546737039215461020000006603601236829973693_);}
	.st148{fill:url(#SVGID_00000010311992943123245660000001303857874584577205_);}
	.st149{fill:url(#SVGID_00000005243486379264381400000012699533876999901108_);}
</style>
<g>
	<path class="st0" d="M141.8,101.8c0,0.5-0.1,1-0.2,1.5l0,0l-7,24.7l-11.3,1.2l-108.1-1.1c-0.2,0-0.4,0-0.5-0.1h-0.8v0.1
		C4.3,96.7,14,72.5,14,72.5c-0.1,0.3-0.1,0.6-0.2,0.9c0.1-0.3,0.1-0.6,0.2-0.9l20.1-13.2l17.3-9.1h6.7h2.6h75.7c3,0,5.4,2.4,5.4,5.4
		L141.8,101.8L141.8,101.8z"/>
	
		<linearGradient id="SVGID_1_" gradientUnits="userSpaceOnUse" x1="539.6312" y1="-332.8161" x2="539.9095" y2="-367.8894" gradientTransform="matrix(1 0 0 1 -460.3368 454.6325)">
		<stop  offset="0" style="stop-color:#5C5C5C"/>
		<stop  offset="0.1042" style="stop-color:#979797"/>
	</linearGradient>
	<path class="st1" d="M143.1,97.6l-2,6.9c0,0.1-0.1,0.2-0.1,0.4l-0.1,0.3c0,0.1-0.1,0.2-0.1,0.2l0,0.1l-2.8,9.9l-1.2,4.1l-0.2,0.8
		l-0.3,0.9l-11.3,1.2l-3.6,0l-5.9-0.1c0,0,0,0,0,0l-8.9-0.1l-5.9-0.1l-56.6-0.6l-5.7-0.1l-9.6-0.1l-5.7-0.1l-6.2-0.1h0
		c-0.4,0-0.8-0.2-1-0.5c-0.1-0.1-0.2-0.2-0.2-0.3c0-0.2-0.1-0.3-0.1-0.5c0-0.1,0-0.2,0-0.3c0,0,0-0.1,0-0.1c0,0,0,0,0,0
		c0-0.1,0-0.1,0.1-0.2c0.2-0.3,0.3-0.5,0.5-0.8c3.3-5.4,8.6-8.3,14.8-10.1l23.7-7.9h8.5h75c0.1,0,0.2,0,0.3,0h0c0.1,0,0.2,0,0.4,0
		c2.5,0,2.4,2.3,2.1,3.8l1.8-6.5C143,97.7,143.1,97.6,143.1,97.6z"/>
	<g>
		<path class="st2" d="M14.3,82.6l-0.1,0.1C14.3,82.7,14.3,82.6,14.3,82.6z"/>
		<path class="st2" d="M45.1,101l-11,3.7c0,0,0,0,0,0c-0.4-0.4-6.9-8-6.3-25.9c0.6-18.4,6.9-25,6.9-25c0,0.1,0,0.1-0.1,0.2
			c0,0,0,0,0.1-0.1c4.7-2.6,10.5-5.9,15.1-7.9c0.9-0.4,1.9,0.5,1.7,1.5c-4.2,16.2-3.7,30,1,45.8C54,98.4,50.2,99.2,45.1,101z"/>
		<polygon class="st3" points="138.1,115.3 136.7,120.2 134.6,120.2 136,115.3 		"/>
		<polygon class="st4" points="137,119.4 15.7,119.4 15.7,121.2 136.4,121.1 		"/>
		<ellipse class="st4" cx="33.6" cy="121.4" rx="10.5" ry="4.4"/>
		<ellipse class="st2" cx="33.6" cy="121.4" rx="4.8" ry="2"/>
		<ellipse class="st4" cx="111.1" cy="121.4" rx="10.5" ry="4.4"/>
		<ellipse class="st2" cx="111.1" cy="121.4" rx="4.8" ry="2"/>
		
			<linearGradient id="SVGID_00000034780916102107144950000007331186956593683087_" gradientUnits="userSpaceOnUse" x1="562.7219" y1="250.5388" x2="562.7219" y2="242.2865" gradientTransform="matrix(1 0 0 1 -460.3368 -137.3675)">
			<stop  offset="0.3111" style="stop-color:#000000"/>
			<stop  offset="1" style="stop-color:#37475E"/>
		</linearGradient>
		<path style="fill:url(#SVGID_00000034780916102107144950000007331186956593683087_);" d="M66.8,106.6v4.1c0,1.3,0.9,2.4,2.1,2.4
			H134c1.2,0,1.9-0.4,2.5-2.1l1.3-4.4c0.4-1.8-0.9-2.4-2.1-2.4H68.9C67.7,104.2,66.8,105.3,66.8,106.6z"/>
		<path class="st2" d="M138.2,43.4H53.3L36,52.5L15.9,65.7c0,0,0,0,0,0c0,0.3-0.1,0.6-0.2,0.8c0,0.1,0,0.1,0,0.1
			c-1.4,6.1-2.2,11.8-2.5,17.2l0.1-0.1l1-1.1c0-0.1,0.1-0.1,0.1-0.1l-0.1,0.1c-0.6,1.5-0.3,14.2,1.1,17.8l-2.1-0.2
			c0.6,7,1.8,13.1,3.1,18.1c3.3-5.4,8.6-8.3,14.8-10.1l23.7-7.9h83.5c0.1,0,0.2,0,0.3,0h0c0.1,0,0.2,0,0.4,0c2.5,0,2.4,2.3,2.1,3.8
			l1.8-6.5c0-0.1,0.1-0.1,0.1-0.2c0.4-0.8,0.6-1.6,0.6-2.5V48.8C143.6,45.9,141.2,43.4,138.2,43.4z M45.1,101l-11,3.7c0,0,0,0,0,0
			c-0.4-0.4-6.9-8-6.3-25.9c0.6-18.4,6.9-25,6.9-25c0,0.1,0,0.1-0.1,0.2c0,0,0,0,0.1-0.1c4.7-2.6,10.5-5.9,15.1-7.9
			c0.9-0.4,1.9,0.5,1.7,1.5c-4.2,16.2-3.7,30,1,45.8C54,98.4,50.2,99.2,45.1,101z"/>
		
			<linearGradient id="SVGID_00000044896111028892648690000016494523216567810694_" gradientUnits="userSpaceOnUse" x1="505.7397" y1="-379.3883" x2="493.9589" y2="-379.0549" gradientTransform="matrix(1 0 0 1 -460.3368 454.6325)">
			<stop  offset="0.3111" style="stop-color:#000000"/>
			<stop  offset="1" style="stop-color:#37475E"/>
		</linearGradient>
		<path style="fill:url(#SVGID_00000044896111028892648690000016494523216567810694_);" d="M45.1,101l-11,3.7c0,0,0,0,0,0
			C23.2,89.7,28.7,60.3,34.7,54c0,0,0,0,0.1-0.1c4.7-2.6,10.5-5.9,15.1-7.9c0.9-0.4,1.9,0.5,1.7,1.5c-4.2,16.2-3.7,30,1,45.8
			C54,98.4,50.2,99.2,45.1,101z"/>
		
			<linearGradient id="SVGID_00000018941267931626756510000005139898705892611992_" gradientUnits="userSpaceOnUse" x1="505.485" y1="250.3699" x2="505.485" y2="242.6803" gradientTransform="matrix(1 0 0 1 -460.3368 -137.3675)">
			<stop  offset="0.3111" style="stop-color:#000000"/>
			<stop  offset="1" style="stop-color:#37475E"/>
		</linearGradient>
		<path style="fill:url(#SVGID_00000018941267931626756510000005139898705892611992_);" d="M53.9,106.3v5.1c0,0.9-0.7,1.6-1.6,1.6
			H37.9c-0.9,0-1.6-0.7-1.6-1.6v-0.3c0-0.7,0.4-1.3,1.1-1.5l14.5-4.8C52.8,104.4,53.9,105.2,53.9,106.3z"/>
		<path d="M34.7,54c-7.1,19.2-5.2,35.4-0.5,50.7c0,0,0,0,0,0c-0.4-0.4-6.9-8-6.3-25.9c0.6-18.4,6.9-25,6.9-25
			C34.7,53.9,34.7,53.9,34.7,54z"/>
		<path d="M16.5,119.2l-0.1,0.2l-0.4,0.9l-0.2,0.4l-0.2,0.5c-9.3-30.7-0.2-54.5,0.2-55.5c-0.1,0.3-0.1,0.6-0.2,0.8
			c0,0.1,0,0.1,0,0.1c-1.4,6.1-2.2,11.8-2.5,17.2c-0.4,5.9-0.3,11.4,0.1,16.4c0.6,7,1.8,13.1,3.1,18.1
			C16.4,118.7,16.5,119,16.5,119.2z"/>
		<path d="M14.3,82.6l-0.1,0.1C14.3,82.7,14.3,82.6,14.3,82.6z"/>
		<path d="M15.3,100.5l-2.1-0.2l-0.4,0l-0.2,0V84.3l0.2-0.2l0.3-0.3l0.1-0.1l1-1.1C13.6,84.2,13.9,97,15.3,100.5z"/>
		<path class="st9" d="M140.8,105.4L140.8,105.4C140.9,105.4,140.9,105.4,140.8,105.4C140.8,105.4,140.8,105.4,140.8,105.4z"/>
		<path class="st9" d="M141.2,104.3c0,0.1,0,0.1,0,0.2c0,0.1-0.1,0.2-0.1,0.4l-0.1,0.3c0,0.1-0.1,0.2-0.1,0.2c0,0,0,0,0,0.1
			L141.2,104.3z"/>
	</g>
</g>
</svg>
