<?xml version="1.0" encoding="utf-8"?>
<!-- Generator: Adobe Illustrator 25.4.1, SVG Export Plug-In . SVG Version: 6.00 Build 0)  -->
<svg version="1.1" id="Layer_1" xmlns="http://www.w3.org/2000/svg" xmlns:xlink="http://www.w3.org/1999/xlink" x="0px" y="0px"
	 viewBox="0 0 168 168" style="enable-background:new 0 0 168 168;" xml:space="preserve">
<style type="text/css">
	.st0{opacity:0.2;fill:#151110;enable-background:new    ;}
	.st1{fill:url(#SVGID_1_);}
	.st2{fill:#FFFFFF;}
	.st3{fill:#C00D0D;}
	.st4{fill:#151110;}
	.st5{fill:url(#SVGID_00000090267803335584688850000001755123688595143822_);}
	.st6{fill:url(#SVGID_00000100363579881427740910000015662395399169203645_);}
	.st7{fill:none;stroke:#A03394;stroke-width:9;stroke-miterlimit:10;}
	.st8{fill:url(#SVGID_00000005230791907501347000000009061112172531613873_);}
	.st9{fill:#F0F0F0;}
	.st10{fill:url(#SVGID_00000143612911221488883940000012588550535198726834_);}
	.st11{fill:url(#SVGID_00000095322300621864070570000017995688100655507883_);}
	.st12{fill:url(#SVGID_00000106144426038621999020000014618093232209381529_);}
	.st13{fill:url(#SVGID_00000005950588872976651920000012892277665288482993_);}
	.st14{fill:url(#SVGID_00000023986256583691355440000007195287835146230719_);}
	.st15{fill:url(#SVGID_00000152256725239139085830000007908562667520502160_);}
	.st16{fill:url(#SVGID_00000085229673194660184390000009289918251518995870_);}
	.st17{fill:url(#SVGID_00000045593138897427318610000010231335634364292241_);}
	.st18{fill:url(#SVGID_00000013896562886157033660000010928511624150181309_);}
	.st19{fill:url(#SVGID_00000139979011692569268140000008086343777087871895_);}
	.st20{fill:url(#SVGID_00000174604111955869273150000009173926635264236960_);}
	.st21{fill:url(#SVGID_00000054965118464700560760000005449006631178495164_);}
	.st22{fill:url(#SVGID_00000002344213167955924840000000275456089285456270_);}
	.st23{fill:url(#SVGID_00000030452104875865165650000014774954204918241699_);}
	.st24{fill:url(#SVGID_00000054947796172931381680000011797566405787264411_);}
	.st25{fill:url(#SVGID_00000066480198642195705810000016871572535723970726_);}
	.st26{fill:url(#SVGID_00000082329968755595836890000002908478129976992430_);}
	.st27{fill:url(#SVGID_00000047035006540727671250000011679345019152198281_);}
	.st28{fill:url(#SVGID_00000056396294566506980540000011994083278306674622_);}
	.st29{fill:url(#SVGID_00000181793231726064163400000012266608453464816554_);}
	.st30{fill:url(#SVGID_00000089537477208877627600000012810894160694477186_);}
	.st31{fill:url(#SVGID_00000098938953290917123200000016031529053779279509_);}
	.st32{fill:url(#SVGID_00000073698114010265275880000006694802302859641735_);}
	.st33{fill:url(#SVGID_00000009575717543736816440000008644207877514856107_);}
	.st34{fill:url(#SVGID_00000077283733227698315370000007483341900712145538_);}
	.st35{fill:url(#SVGID_00000071548690060728235560000005609428324731513765_);}
	.st36{fill:url(#SVGID_00000006694564036326087450000005881399549788375689_);}
	.st37{fill:url(#SVGID_00000069383629982173041010000011334055436545855141_);}
	.st38{fill:url(#SVGID_00000152241851563615188430000010146255245716024986_);}
	.st39{fill:url(#SVGID_00000037684135809990034480000006977661363355312006_);}
	.st40{fill:url(#SVGID_00000141438011668359000670000007269173554073346696_);}
	.st41{fill:url(#SVGID_00000120516629253435451680000005560251425337706645_);}
	.st42{fill:url(#SVGID_00000057127892522691425170000006825236526282089365_);}
	.st43{fill:url(#SVGID_00000155857419943369536070000003414014255118389152_);}
	.st44{fill:url(#SVGID_00000034812739212439497060000016512989828156151211_);}
	.st45{fill:url(#SVGID_00000042714294119364575870000014114064740443255970_);}
	.st46{fill:url(#SVGID_00000156545772257625173320000015047211235703249542_);}
	.st47{fill:url(#SVGID_00000003074703930434430490000012810976994448656816_);}
	.st48{fill:url(#SVGID_00000002383870904648214320000018193069065069105082_);}
	.st49{fill:url(#SVGID_00000082358310049843429840000008364915726063232184_);}
	.st50{fill:url(#SVGID_00000006681526417158903480000009595519589483484805_);}
	.st51{fill:url(#SVGID_00000068647602526928079700000014684186901657088158_);}
	.st52{fill:url(#SVGID_00000157992723536451983090000010074922060140977849_);}
	.st53{fill:url(#SVGID_00000066505317827969316900000007641420393118427026_);}
	.st54{fill:url(#SVGID_00000138566994740216477410000004442531221137757071_);}
	.st55{fill:url(#SVGID_00000098924354229515934700000010475949215627895938_);}
	.st56{fill:url(#SVGID_00000089541853259097823590000001144244075069710483_);}
	.st57{fill:url(#SVGID_00000155145121285037447670000000434085040973441471_);}
	.st58{fill:url(#SVGID_00000048484558540094274630000002523786211403890097_);}
	.st59{fill:url(#SVGID_00000181048587410172923580000001008092777766728118_);}
	.st60{fill:url(#SVGID_00000155146830706876443400000017286699253901390254_);}
	.st61{fill:url(#SVGID_00000026866436577592379910000010981444903872832650_);}
	.st62{fill:url(#SVGID_00000066502613159280039040000007239947522391692964_);}
	.st63{fill:url(#SVGID_00000146490094286765601300000001528943364878535054_);}
	.st64{fill:url(#SVGID_00000122712445785312720750000013895826700024072372_);}
	.st65{fill:url(#SVGID_00000119111892204130291440000015206698284641415326_);}
	.st66{fill:url(#SVGID_00000019650329026767887970000013432563487422048402_);}
	.st67{fill:url(#SVGID_00000173133914953992782430000013665903983180924301_);}
	.st68{fill:url(#SVGID_00000014625661281989973980000005535117018488283565_);}
	.st69{fill:url(#SVGID_00000064345378485027741490000001102258767636687039_);}
	.st70{fill:url(#SVGID_00000036945673181342368340000002686072784591105951_);}
	.st71{fill:url(#SVGID_00000081613674771641226480000015879737457541103500_);}
	.st72{fill:url(#SVGID_00000020365374611028141870000015920107276313618863_);}
	.st73{fill:url(#SVGID_00000008106766125108970510000007279360605499510686_);}
	.st74{fill:url(#SVGID_00000034070513364533725210000011821646118016624292_);}
	.st75{fill:url(#SVGID_00000083063809884500765750000008191161994383699607_);}
	.st76{fill:url(#SVGID_00000149367506963305239120000002967312052151914896_);}
	.st77{fill:url(#SVGID_00000103231519833832192300000014230114380710940829_);}
	.st78{fill:url(#SVGID_00000108268229487678818140000008002768522238394530_);}
	.st79{fill:url(#SVGID_00000156575031396827843870000000073641529152261803_);}
	.st80{fill:url(#SVGID_00000054968027645929846160000017461906685161410988_);}
	.st81{fill:url(#SVGID_00000002371953440778293440000014407386693632247963_);}
	.st82{fill:url(#SVGID_00000134931919689435394090000016860091640606049957_);}
	.st83{fill:url(#SVGID_00000054954215155678426030000016767081873161459362_);}
	.st84{fill:url(#SVGID_00000085940449188204487200000005192219625416768941_);}
	.st85{fill:url(#SVGID_00000090278321456415170670000016244817179602769575_);}
	.st86{fill:url(#SVGID_00000044897736149344731020000007675463821354632886_);}
	.st87{fill:url(#SVGID_00000174595451319764469100000017610658490546107810_);}
	.st88{fill:url(#SVGID_00000099648294247115391660000001835375612739497613_);}
	.st89{fill:url(#SVGID_00000092453591052541289850000016542405344817135795_);}
	.st90{fill:url(#SVGID_00000146468553652111138590000011327402802343236508_);}
	.st91{fill:url(#SVGID_00000114074261327881622130000001279953115176438404_);}
	.st92{fill:url(#SVGID_00000113334583253935738970000000715929542145917881_);}
	.st93{fill:url(#SVGID_00000076563897324198183100000001772321459573284754_);}
	.st94{fill:url(#SVGID_00000070089192692083960850000017134896211775561402_);}
	.st95{fill:url(#SVGID_00000031905329653874938420000016846575954487307197_);}
	.st96{fill:url(#SVGID_00000095310414812246122960000014585727433267256960_);}
	.st97{fill:url(#SVGID_00000131331933928445508190000009353062809201628091_);}
	.st98{fill:url(#SVGID_00000034059898012358916990000017267556941640241284_);}
	.st99{fill:url(#SVGID_00000091709818834328607620000009411342546500600211_);}
	.st100{fill:url(#SVGID_00000055669697281291435590000002771040328157589159_);}
	.st101{fill:url(#SVGID_00000045580043994352035670000001562397917138190759_);}
	.st102{fill:url(#SVGID_00000000203214782369320090000000603610985165909650_);}
	.st103{fill:url(#SVGID_00000137810152311294692390000004661992097269705398_);}
	.st104{fill:url(#SVGID_00000123414812158385158420000007138917576575702423_);}
	.st105{fill:url(#SVGID_00000045587087340565664950000002772161648230478761_);}
	.st106{fill:url(#SVGID_00000027594412240130458760000015129318231714834322_);}
	.st107{fill:url(#SVGID_00000025441599478768522230000006470487035193107855_);}
	.st108{fill:url(#SVGID_00000135664872382339808230000003819616762325708478_);}
	.st109{fill:url(#SVGID_00000058561897376390960310000013933239023209274525_);}
	.st110{fill:url(#SVGID_00000047768883374342189830000002874604104352529320_);}
	.st111{fill:url(#SVGID_00000138572776787165783370000002583294874381888140_);}
	.st112{fill:url(#SVGID_00000016048234005433591560000003316758030686084537_);}
	.st113{fill:url(#SVGID_00000079468194979814241800000002688219997057168059_);}
	.st114{fill:url(#SVGID_00000167381254620692488570000004970042583162677130_);}
	.st115{fill:url(#SVGID_00000162351518623728771300000010889314390060229252_);}
	.st116{fill:url(#SVGID_00000090975229366927003610000014679060751633105816_);}
	.st117{fill:url(#SVGID_00000115474094409534596710000011964596286773062325_);}
	.st118{fill:url(#SVGID_00000114056079930581379420000004364038387290272693_);}
	.st119{fill:url(#SVGID_00000019659997709676079080000008803164600109759407_);}
	.st120{fill:url(#SVGID_00000160893208623603659660000007520767453233401752_);}
	.st121{fill:url(#SVGID_00000158030460895935202900000003937318092119852675_);}
	.st122{fill:url(#SVGID_00000127745503291601480070000011267402231017242547_);}
	.st123{fill:url(#SVGID_00000070823124498579039560000003153130718394674343_);}
	.st124{fill:url(#SVGID_00000132800576873602083380000007321698134028668082_);}
	.st125{fill:url(#SVGID_00000067211243997888806700000005409422223487089049_);}
	.st126{fill:url(#SVGID_00000065763750051204595750000018066002802040820609_);}
	.st127{fill:url(#SVGID_00000121261518898757860470000015135748985948559276_);}
	.st128{fill:url(#SVGID_00000049212717274416934880000012078251398941222819_);}
	.st129{fill:url(#SVGID_00000097472187470159703070000008824418783426806920_);}
	.st130{fill:url(#SVGID_00000127732183237327986320000001507713442560912274_);}
	.st131{fill:url(#SVGID_00000139268876160897816430000003750285184280032402_);}
	.st132{fill:url(#SVGID_00000140697024657439761100000013830768940317906860_);}
	.st133{fill:url(#SVGID_00000163777939234439700190000016796319455834597274_);}
	.st134{fill:url(#SVGID_00000018932097362266619280000011933043231568737716_);}
	.st135{fill:url(#SVGID_00000013190831909116528020000006270906946013220016_);}
	.st136{fill:url(#SVGID_00000111907107361378464860000000948872770365212579_);}
	.st137{fill:url(#SVGID_00000098185338535670404200000009047387247062126523_);}
	.st138{fill:url(#SVGID_00000069391042403111216970000002851728154872184762_);}
	.st139{fill:url(#SVGID_00000132078342555114343490000018152734287087056308_);}
	.st140{fill:url(#SVGID_00000082361836013093291110000006900577535138581426_);}
	.st141{fill:url(#SVGID_00000179624800859857423170000014951726475602459832_);}
	.st142{fill:url(#SVGID_00000172441605598493072640000001464899578113432737_);}
	.st143{fill:url(#SVGID_00000175322909675471794120000013097931994398414755_);}
	.st144{fill:url(#SVGID_00000156565397038651742390000007364431742158255276_);}
	.st145{fill:url(#SVGID_00000141420394682716463200000007233774838834333616_);}
	.st146{fill:url(#SVGID_00000101816573140807615550000008636237751938128775_);}
	.st147{fill:url(#SVGID_00000049223977557191393130000010263778084604327359_);}
	.st148{fill:url(#SVGID_00000093868652942645815050000011898131420244247176_);}
	.st149{fill:url(#SVGID_00000052783216582372657930000000501403190280905613_);}
</style>
<g>
	<path class="st0" d="M138.2,112.9c-0.1,0.5-0.3,1-0.5,1.4l0,0l-11.2,23.1l-11.3-0.8L8.9,116.8c-0.2,0-0.4-0.1-0.5-0.2l-0.8-0.1
		l0,0.1c-4-32.6,9.8-54.7,9.8-54.7c-0.2,0.3-0.2,0.6-0.4,0.9c0.2-0.3,0.2-0.6,0.4-0.9l22.1-9.5l18.6-6l6.6,1.2l2.6,0.5l74.5,13.1
		c3,0.5,4.9,3.3,4.4,6.3L138.2,112.9L138.2,112.9z"/>
	
		<linearGradient id="SVGID_1_" gradientUnits="userSpaceOnUse" x1="539.6312" y1="-332.8161" x2="539.9095" y2="-367.8894" gradientTransform="matrix(0.9848 0.1736 -0.1736 0.9848 -516.1321 355.7769)">
		<stop  offset="0" style="stop-color:#5C5C5C"/>
		<stop  offset="0.1042" style="stop-color:#979797"/>
	</linearGradient>
	<path class="st1" d="M140.2,108.9l-3.2,6.4c-0.1,0.1-0.1,0.2-0.2,0.3l-0.1,0.3c0,0.1-0.1,0.2-0.1,0.2l-0.1,0.1l-4.5,9.3l-1.9,3.8
		l-0.4,0.7l-0.4,0.8l-11.3-0.8l-3.5-0.7l-5.8-1.1c0,0,0,0,0,0l-8.7-1.6l-5.8-1.1l-55.7-10.4l-5.6-1l-9.4-1.8l-5.6-1l-6.1-1.1l0,0
		c-0.4-0.1-0.7-0.3-0.9-0.7c-0.1-0.1-0.1-0.2-0.1-0.4c0-0.2,0-0.3,0-0.5c0-0.1,0-0.2,0.1-0.3c0,0,0-0.1,0.1-0.1c0,0,0,0,0,0
		c0-0.1,0.1-0.1,0.1-0.2c0.2-0.2,0.4-0.5,0.6-0.7c4.2-4.7,9.9-6.6,16.3-7.4l24.7-3.7l8.4,1.5l73.9,13c0.1,0,0.2,0,0.3,0l0,0
		c0.1,0,0.2,0.1,0.4,0.1c2.5,0.4,2,2.7,1.4,4.1l2.9-6.1C140.1,109,140.1,109,140.2,108.9z"/>
	<g>
		<path class="st2" d="M15.9,71.9L15.8,72C15.8,71.9,15.9,71.8,15.9,71.9z"/>
		<path class="st2" d="M43.1,95.3l-11.5,1.7c0,0,0,0,0,0c-0.3-0.5-5.4-9.1-1.7-26.6C33.7,52.4,41,47,41,47c0,0.1-0.1,0.1-0.1,0.2
			c0,0,0,0,0.1-0.1c5.1-1.7,11.4-4,16.2-5.2c1-0.2,1.8,0.8,1.4,1.8c-6.9,15.2-8.9,28.9-7,45.3C52.3,94.3,48.4,94.4,43.1,95.3z"/>
		<polygon class="st3" points="132.2,125.6 129.9,130.1 127.9,129.8 130.1,125.2 		"/>
		<polygon class="st4" points="130.4,129.4 10.9,108.3 10.6,110.1 129.5,131 		"/>
		
			<ellipse transform="matrix(0.1736 -0.9848 0.9848 0.1736 -88.3865 121.5031)" class="st4" cx="28.2" cy="113.4" rx="4.4" ry="10.5"/>
		<ellipse transform="matrix(0.1736 -0.9848 0.9848 0.1736 -88.3865 121.5031)" class="st2" cx="28.2" cy="113.4" rx="2" ry="4.8"/>
		
			<ellipse transform="matrix(0.1736 -0.9848 0.9848 0.1736 -38.5705 207.787)" class="st4" cx="104.5" cy="126.9" rx="4.4" ry="10.5"/>
		<ellipse transform="matrix(0.1736 -0.9848 0.9848 0.1736 -38.5705 207.787)" class="st2" cx="104.5" cy="126.9" rx="2" ry="4.8"/>
		
			<linearGradient id="SVGID_00000039852914142943164920000010331259951312789381_" gradientUnits="userSpaceOnUse" x1="562.7219" y1="250.5388" x2="562.7219" y2="242.2865" gradientTransform="matrix(0.9848 0.1736 -0.1736 0.9848 -413.3324 -227.2293)">
			<stop  offset="0.3111" style="stop-color:#000000"/>
			<stop  offset="1" style="stop-color:#37475E"/>
		</linearGradient>
		<path style="fill:url(#SVGID_00000039852914142943164920000010331259951312789381_);" d="M63.5,104.6l-0.7,4
			c-0.2,1.3,0.5,2.5,1.7,2.7l64.1,11.3c1.2,0.2,1.9-0.1,2.8-1.6l2-4.1c0.7-1.7-0.5-2.5-1.7-2.7L66,102.6
			C64.8,102.4,63.7,103.3,63.5,104.6z"/>
		<path class="st2" d="M144.8,54.8L61.2,40l-18.6,6l-22.1,9.5c0,0,0,0,0,0c-0.1,0.3-0.2,0.5-0.3,0.8c0,0,0,0.1-0.1,0.1
			c-2.4,5.7-4.2,11.2-5.5,16.5l0.1,0l1.1-0.9c0.1-0.1,0.1-0.1,0.2-0.1L15.8,72c-0.9,1.3-2.7,13.9-2,17.7l-2-0.6
			c-0.7,7-0.5,13.2-0.1,18.4c4.2-4.7,9.9-6.6,16.3-7.4l24.7-3.7l82.2,14.5c0.1,0,0.2,0,0.3,0l0,0c0.1,0,0.2,0.1,0.4,0.1
			c2.5,0.4,2,2.7,1.4,4.1l2.9-6.1c0.1-0.1,0.1-0.1,0.2-0.2c0.5-0.7,0.9-1.5,1-2.4l8-45.5C149.6,58.2,147.7,55.3,144.8,54.8z
			 M43.1,95.3l-11.5,1.7c0,0,0,0,0,0c-0.3-0.5-5.4-9.1-1.7-26.6C33.7,52.4,41,47,41,47c0,0.1-0.1,0.1-0.1,0.2c0,0,0,0,0.1-0.1
			c5.1-1.7,11.4-4,16.2-5.2c1-0.2,1.8,0.8,1.4,1.8c-6.9,15.2-8.9,28.9-7,45.3C52.3,94.3,48.4,94.4,43.1,95.3z"/>
		
			<linearGradient id="SVGID_00000017506823530969663150000003738290318593463210_" gradientUnits="userSpaceOnUse" x1="505.7397" y1="-379.3883" x2="493.9589" y2="-379.0549" gradientTransform="matrix(0.9848 0.1736 -0.1736 0.9848 -516.1321 355.7769)">
			<stop  offset="0.3111" style="stop-color:#000000"/>
			<stop  offset="1" style="stop-color:#37475E"/>
		</linearGradient>
		<path style="fill:url(#SVGID_00000017506823530969663150000003738290318593463210_);" d="M43.1,95.3l-11.5,1.7c0,0,0,0,0,0
			c-8.2-16.7,2.4-44.6,9.4-49.8c0,0,0,0,0.1-0.1c5.1-1.7,11.4-4,16.2-5.2c1-0.2,1.8,0.8,1.4,1.8c-6.9,15.2-8.9,28.9-7,45.3
			C52.3,94.3,48.4,94.4,43.1,95.3z"/>
		
			<linearGradient id="SVGID_00000112618321832897158560000006348398302130881937_" gradientUnits="userSpaceOnUse" x1="505.485" y1="250.3699" x2="505.485" y2="242.6803" gradientTransform="matrix(0.9848 0.1736 -0.1736 0.9848 -413.3324 -227.2293)">
			<stop  offset="0.3111" style="stop-color:#000000"/>
			<stop  offset="1" style="stop-color:#37475E"/>
		</linearGradient>
		<path style="fill:url(#SVGID_00000112618321832897158560000006348398302130881937_);" d="M50.8,102.1l-0.9,5
			c-0.2,0.9-1,1.5-1.9,1.3l-14.2-2.5c-0.9-0.2-1.5-1-1.3-1.9l0.1-0.3c0.1-0.7,0.6-1.2,1.3-1.3l15.1-2.2C50.1,100,51,101,50.8,102.1z
			"/>
		<path d="M40.9,47.2c-10.4,17.7-11.3,33.9-9.3,49.9c0,0,0,0,0,0c-0.3-0.5-5.4-9.1-1.7-26.6C33.7,52.4,41,47,41,47
			C41,47.1,41,47.1,40.9,47.2z"/>
		<path d="M11.7,108.3l-0.1,0.2l-0.5,0.8l-0.2,0.4l-0.3,0.5c-3.8-31.9,9.3-53.7,9.8-54.6c-0.1,0.3-0.2,0.5-0.3,0.8
			c0,0,0,0.1-0.1,0.1c-2.4,5.7-4.2,11.2-5.5,16.5c-1.5,5.8-2.3,11.2-2.8,16.2c-0.7,7-0.5,13.2-0.1,18.4
			C11.7,107.7,11.7,108,11.7,108.3z"/>
		<path d="M15.9,71.9L15.8,72C15.8,71.9,15.9,71.8,15.9,71.9z"/>
		<path d="M13.8,89.7l-2-0.6L11.5,89l-0.1,0l2.8-15.7l0.2-0.1l0.3-0.2l0.1,0l1.1-0.9C14.9,73.3,13,85.9,13.8,89.7z"/>
		<path class="st9" d="M136.6,116.3L136.6,116.3C136.6,116.2,136.6,116.3,136.6,116.3C136.6,116.3,136.6,116.3,136.6,116.3z"/>
		<path class="st9" d="M137.1,115.2c0,0,0,0.1-0.1,0.1c-0.1,0.1-0.1,0.2-0.2,0.3l-0.1,0.3c0,0.1-0.1,0.2-0.1,0.2c0,0,0,0,0,0.1
			L137.1,115.2z"/>
	</g>
</g>
</svg>
