<?xml version="1.0" encoding="utf-8"?>
<!-- Generator: Adobe Illustrator 25.4.1, SVG Export Plug-In . SVG Version: 6.00 Build 0)  -->
<svg version="1.1" id="Layer_1" xmlns="http://www.w3.org/2000/svg" xmlns:xlink="http://www.w3.org/1999/xlink" x="0px" y="0px"
	 viewBox="0 0 168 168" style="enable-background:new 0 0 168 168;" xml:space="preserve">
<style type="text/css">
	.st0{opacity:0.2;fill:#151110;enable-background:new    ;}
	.st1{fill:url(#SVGID_1_);}
	.st2{fill:#FFFFFF;}
	.st3{fill:#C00D0D;}
	.st4{fill:#151110;}
	.st5{fill:url(#SVGID_00000090258992703965238970000001617541800029424532_);}
	.st6{fill:url(#SVGID_00000098214364995037655010000013998433147178611339_);}
	.st7{fill:none;stroke:#A03394;stroke-width:9;stroke-miterlimit:10;}
	.st8{fill:url(#SVGID_00000101105792769648038010000004165190728505596343_);}
	.st9{fill:#F0F0F0;}
	.st10{fill:url(#SVGID_00000054984818271500788010000014785665327008014765_);}
	.st11{fill:url(#SVGID_00000179633614705134938420000013109562313782732161_);}
	.st12{fill:url(#SVGID_00000154386535696976908270000017279475199078864521_);}
	.st13{fill:url(#SVGID_00000021822055314049852580000008750353726183132078_);}
	.st14{fill:url(#SVGID_00000052802871789696192040000010973960192537026176_);}
	.st15{fill:url(#SVGID_00000051364923278830593820000001197276593926805142_);}
	.st16{fill:url(#SVGID_00000150075179577249366160000014502494889887527825_);}
	.st17{fill:url(#SVGID_00000069398259165627094000000014310953871333374387_);}
	.st18{fill:url(#SVGID_00000132776760828141760940000016607437965882230167_);}
	.st19{fill:url(#SVGID_00000136387400065386730950000004649000993453007517_);}
	.st20{fill:url(#SVGID_00000062168404995985294740000008295316252734246544_);}
	.st21{fill:url(#SVGID_00000127026918121107556120000006587409332192855707_);}
	.st22{fill:url(#SVGID_00000077288542747023550050000002488576413614867374_);}
	.st23{fill:url(#SVGID_00000020358894519398217760000014562841607585082802_);}
	.st24{fill:url(#SVGID_00000087411064174875990570000012506456730658377135_);}
	.st25{fill:url(#SVGID_00000057118822825220825110000004144646842259763338_);}
	.st26{fill:url(#SVGID_00000095328161068813985150000017246378047423195282_);}
	.st27{fill:url(#SVGID_00000183219895841269070420000006657685775715668659_);}
	.st28{fill:url(#SVGID_00000093138919472824140150000010930343542260804286_);}
	.st29{fill:url(#SVGID_00000126303206888674195550000005514730890370544290_);}
	.st30{fill:url(#SVGID_00000133526460683978971950000015651916464098166446_);}
	.st31{fill:url(#SVGID_00000078027732608666817770000014634001880464213395_);}
	.st32{fill:url(#SVGID_00000145028614454228157530000012826000147932439725_);}
	.st33{fill:url(#SVGID_00000104673226275452209120000009443931682163357873_);}
	.st34{fill:url(#SVGID_00000044147204655515485680000012472017205559344529_);}
	.st35{fill:url(#SVGID_00000008866885166099535610000012875742170691341212_);}
	.st36{fill:url(#SVGID_00000124126765218571450560000008600697965158375348_);}
	.st37{fill:url(#SVGID_00000171696804469972715100000017836151530411513217_);}
	.st38{fill:url(#SVGID_00000047029771811760995330000008680829844223904643_);}
	.st39{fill:url(#SVGID_00000031170672561400068940000014059636886636157346_);}
	.st40{fill:url(#SVGID_00000070095364192734941780000001194824400542314913_);}
	.st41{fill:url(#SVGID_00000018196624081880846230000001783333909018012820_);}
	.st42{fill:url(#SVGID_00000029012523876203902770000007344413755498591623_);}
	.st43{fill:url(#SVGID_00000165220285650122334200000014900944072606912189_);}
	.st44{fill:url(#SVGID_00000101796016264850413030000015453596670217124528_);}
	.st45{fill:url(#SVGID_00000182508349531572296780000014237665671071555713_);}
	.st46{fill:url(#SVGID_00000040547797823173481390000000163017767410021526_);}
	.st47{fill:url(#SVGID_00000016769012228642157000000005947001291011093910_);}
	.st48{fill:url(#SVGID_00000095315294501771463780000014047637729106299833_);}
	.st49{fill:url(#SVGID_00000143580169438977470550000005964601631477885090_);}
	.st50{fill:url(#SVGID_00000135656649553012504310000017655770987695208888_);}
	.st51{fill:url(#SVGID_00000134950176035865203060000010291441510986394256_);}
	.st52{fill:url(#SVGID_00000031918675247574178680000012242120579269891753_);}
	.st53{fill:url(#SVGID_00000013893882066144602950000004759260703005014958_);}
	.st54{fill:url(#SVGID_00000016067466370549946870000000977239598128757138_);}
	.st55{fill:url(#SVGID_00000183232132945848694910000004651718400664716723_);}
	.st56{fill:url(#SVGID_00000023987097771845768050000014363933774934335634_);}
	.st57{fill:url(#SVGID_00000159451448780469583010000003715201329148494467_);}
	.st58{fill:url(#SVGID_00000069386568058885250040000004239090587031447948_);}
	.st59{fill:url(#SVGID_00000018223438582877607090000017322262414807594164_);}
	.st60{fill:url(#SVGID_00000063623299351780759180000006129748941138728588_);}
	.st61{fill:url(#SVGID_00000150066102292449624890000006840783592647277211_);}
	.st62{fill:url(#SVGID_00000090291169575406754410000010008749790990172065_);}
	.st63{fill:url(#SVGID_00000019670009147730677560000014489063634536858012_);}
	.st64{fill:url(#SVGID_00000162311648486219972490000004012916453502094506_);}
	.st65{fill:url(#SVGID_00000101096458627798686950000004697193677681088694_);}
	.st66{fill:url(#SVGID_00000041259830470043943020000006020951824746565001_);}
	.st67{fill:url(#SVGID_00000121979715501199973450000010939948561490143381_);}
	.st68{fill:url(#SVGID_00000161605409736049118500000013071794944808924304_);}
	.st69{fill:url(#SVGID_00000113341828822377261290000014245139354690389949_);}
	.st70{fill:url(#SVGID_00000008844471930496300510000003707461860288736663_);}
	.st71{fill:url(#SVGID_00000157307337213360672090000000349264946483258793_);}
	.st72{fill:url(#SVGID_00000088110867035544620980000007247594855707202692_);}
	.st73{fill:url(#SVGID_00000027587704790774136790000003273906548482361513_);}
	.st74{fill:url(#SVGID_00000164480563089263575560000007208821977285190554_);}
	.st75{fill:url(#SVGID_00000153671400284526836000000000063768273503261370_);}
	.st76{fill:url(#SVGID_00000003073650691447220610000010935307875548981406_);}
	.st77{fill:url(#SVGID_00000154405948830355456990000003312673655099701173_);}
	.st78{fill:url(#SVGID_00000088111002424843676540000003383806726023582347_);}
	.st79{fill:url(#SVGID_00000054236078586341089410000007988936363318473133_);}
	.st80{fill:url(#SVGID_00000076573992214548693120000015291570881373939875_);}
	.st81{fill:url(#SVGID_00000055701679817381656930000006838801254211685520_);}
	.st82{fill:url(#SVGID_00000111149023597691009610000017866802111355706045_);}
	.st83{fill:url(#SVGID_00000103950566617473934680000017865931300833768833_);}
	.st84{fill:url(#SVGID_00000042711461723863605390000018128890688094989730_);}
	.st85{fill:url(#SVGID_00000159462160718668251840000010608777207870082720_);}
	.st86{fill:url(#SVGID_00000031890735255954547990000011616823660226913418_);}
	.st87{fill:url(#SVGID_00000183955541395158310370000013879290648665510047_);}
	.st88{fill:url(#SVGID_00000179611928796597103290000017490600899952641425_);}
	.st89{fill:url(#SVGID_00000100357317246311706570000017267037960282018699_);}
	.st90{fill:url(#SVGID_00000000214593307719149910000013387277260657191603_);}
	.st91{fill:url(#SVGID_00000170966868220228694340000004960572182270077096_);}
	.st92{fill:url(#SVGID_00000015346511616065495330000016373690984102053293_);}
	.st93{fill:url(#SVGID_00000070816475780843066550000002552254502531083675_);}
	.st94{fill:url(#SVGID_00000072982509494426790080000009657294634076368014_);}
	.st95{fill:url(#SVGID_00000049928390435205406490000000696169677080291726_);}
	.st96{fill:url(#SVGID_00000034792880580807783930000011410010385109239172_);}
	.st97{fill:url(#SVGID_00000067943702336637233030000017138610651436328111_);}
	.st98{fill:url(#SVGID_00000078026848421429442500000004439634596184118678_);}
	.st99{fill:url(#SVGID_00000066512760183369513170000005562573993193798548_);}
	.st100{fill:url(#SVGID_00000151530989689993286390000009454385992916271010_);}
	.st101{fill:url(#SVGID_00000081629393673560730810000013836251846101094280_);}
	.st102{fill:url(#SVGID_00000182517107332235984970000007637292313995710341_);}
	.st103{fill:url(#SVGID_00000000902064058725525980000017899977359582338744_);}
	.st104{fill:url(#SVGID_00000165928035856609688090000004203635392247005856_);}
	.st105{fill:url(#SVGID_00000089538738224517445200000004792794064173915061_);}
	.st106{fill:url(#SVGID_00000147209740688012342750000010976322994994245819_);}
	.st107{fill:url(#SVGID_00000049902789153483939800000012861396061337378751_);}
	.st108{fill:url(#SVGID_00000096019119008262678420000014774333814126025640_);}
	.st109{fill:url(#SVGID_00000121272240563875060480000008096262089045970318_);}
	.st110{fill:url(#SVGID_00000109711165391425033650000015729462828893605299_);}
	.st111{fill:url(#SVGID_00000151545079587117673840000012461158331871755436_);}
	.st112{fill:url(#SVGID_00000091013387164873266210000010558942067168040864_);}
	.st113{fill:url(#SVGID_00000041266187481191094580000010927246608640544167_);}
	.st114{fill:url(#SVGID_00000042712346932866226470000009169467159907658937_);}
	.st115{fill:url(#SVGID_00000175301824400118826590000013701680714093120184_);}
	.st116{fill:url(#SVGID_00000019678933154608655010000011765919825876019130_);}
	.st117{fill:url(#SVGID_00000057826237128599048580000016624073715490579375_);}
	.st118{fill:url(#SVGID_00000071541005931956044060000002871762989134419108_);}
	.st119{fill:url(#SVGID_00000032610037667790543480000002219448672563069600_);}
	.st120{fill:url(#SVGID_00000038398132865334073110000016817317833595467937_);}
	.st121{fill:url(#SVGID_00000087384232096838123400000004026547452805886655_);}
	.st122{fill:url(#SVGID_00000178896681606254874060000009293902234870093195_);}
	.st123{fill:url(#SVGID_00000119101054108041149820000017647495857135380139_);}
	.st124{fill:url(#SVGID_00000149349337476421806530000009953765948950353292_);}
	.st125{fill:url(#SVGID_00000067942203652459074470000000774096142802566321_);}
	.st126{fill:url(#SVGID_00000102525187303499866540000003687314377416546484_);}
	.st127{fill:url(#SVGID_00000083055990671632939900000012528060933834524821_);}
	.st128{fill:url(#SVGID_00000132802426877174742820000016832385434719427739_);}
	.st129{fill:url(#SVGID_00000029005653802671216150000010256420113665633421_);}
	.st130{fill:url(#SVGID_00000092446003852023631340000014919675523216177588_);}
	.st131{fill:url(#SVGID_00000118388380792413040550000018399072591698743193_);}
	.st132{fill:url(#SVGID_00000134245775031201073190000015155114547137988532_);}
	.st133{fill:url(#SVGID_00000023976130412082067470000002535452833660542343_);}
	.st134{fill:url(#SVGID_00000147921522947429974260000013343751458825207733_);}
	.st135{fill:url(#SVGID_00000135680589646334698020000017553740182540233123_);}
	.st136{fill:url(#SVGID_00000111875777146882824390000011131041032674088598_);}
	.st137{fill:url(#SVGID_00000109717752621808399190000001884856043126447247_);}
	.st138{fill:url(#SVGID_00000111184047112040264910000000500587733177263252_);}
	.st139{fill:url(#SVGID_00000140706646966100041460000001909437117859230346_);}
	.st140{fill:url(#SVGID_00000075129725669910041020000004335168181849787564_);}
	.st141{fill:url(#SVGID_00000140705513269041450700000003146197379703154083_);}
	.st142{fill:url(#SVGID_00000010278498298235275040000010240094748747195556_);}
	.st143{fill:url(#SVGID_00000161598639722790000110000002209585049556684943_);}
	.st144{fill:url(#SVGID_00000026128564722994960830000000265756390441074319_);}
	.st145{fill:url(#SVGID_00000084497204024823370220000002745030301715553177_);}
	.st146{fill:url(#SVGID_00000163793174888701279130000012115648876389694649_);}
	.st147{fill:url(#SVGID_00000003090338929136701730000011447402225489485728_);}
	.st148{fill:url(#SVGID_00000165209027395471283510000014195222664768966072_);}
	.st149{fill:url(#SVGID_00000103949144207031267300000015432500683627890818_);}
</style>
<g>
	<path class="st0" d="M133.1,123c-0.2,0.5-0.4,0.9-0.7,1.3l0,0l-15,20.8l-11-2.7l-101.2-38c-0.2-0.1-0.4-0.1-0.4-0.3l-0.8-0.3l0,0.1
		C5.6,71.1,23,51.7,23,51.7c-0.2,0.2-0.3,0.5-0.5,0.8c0.2-0.2,0.3-0.5,0.5-0.8l23.4-5.5l19.4-2.6l6.3,2.3l2.4,0.9l71.1,25.9
		c2.8,1,4.3,4.1,3.2,6.9L133.1,123L133.1,123z"/>
	
		<linearGradient id="SVGID_1_" gradientUnits="userSpaceOnUse" x1="539.6312" y1="-332.8161" x2="539.9095" y2="-367.8894" gradientTransform="matrix(0.9397 0.342 -0.342 0.9397 -553.4747 248.5319)">
		<stop  offset="0" style="stop-color:#5C5C5C"/>
		<stop  offset="0.1042" style="stop-color:#979797"/>
	</linearGradient>
	<path class="st1" d="M135.7,119.4l-4.2,5.8c-0.1,0.1-0.1,0.2-0.2,0.3l-0.2,0.2c0,0.1-0.1,0.1-0.1,0.2l-0.1,0.1l-6.1,8.3l-2.5,3.4
		l-0.5,0.7l-0.6,0.8l-11-2.7l-3.4-1.3l-5.5-2.1c0,0,0,0,0,0l-8.3-3.1l-5.5-2.1l-53-19.9l-5.3-2l-9-3.4l-5.3-2l-5.8-2.2l0,0
		c-0.4-0.1-0.6-0.4-0.7-0.8c-0.1-0.1-0.1-0.3-0.1-0.4c0-0.2,0-0.3,0.1-0.5c0-0.1,0.1-0.2,0.1-0.3c0,0,0-0.1,0.1-0.1c0,0,0,0,0,0
		c0-0.1,0.1-0.1,0.2-0.2C9,96,9.2,95.8,9.4,95.6c5-3.9,10.9-4.8,17.4-4.4l25,0.7l8,2.9l70.5,25.7c0.1,0,0.2,0.1,0.3,0.1l0,0
		c0.1,0,0.2,0.1,0.4,0.1c2.4,0.9,1.5,3,0.7,4.3l3.9-5.5C135.6,119.5,135.7,119.4,135.7,119.4z"/>
	<g>
		<path class="st2" d="M19.8,61.3l-0.2,0.1C19.7,61.3,19.8,61.3,19.8,61.3z"/>
		<path class="st2" d="M42.5,89.1l-11.6-0.3c0,0,0,0,0,0c-0.2-0.5-3.7-9.9,3-26.5c6.9-17.1,15-21.1,15-21.1c0,0-0.1,0.1-0.1,0.1
			c0,0,0.1,0,0.1,0c5.3-0.8,11.9-2,16.9-2.3c1-0.1,1.6,1.1,1.1,2C57.3,54.8,53,68,52.1,84.4C51.7,89.7,47.9,89.2,42.5,89.1z"/>
		<polygon class="st3" points="125,134.4 122,138.5 120,137.8 123,133.7 		"/>
		<polygon class="st4" points="122.5,137.9 8.5,96.4 7.9,98.1 121.4,139.3 		"/>
		<ellipse transform="matrix(0.342 -0.9397 0.9397 0.342 -81.8456 91.8717)" class="st4" cx="24.7" cy="104.4" rx="4.4" ry="10.5"/>
		<ellipse transform="matrix(0.342 -0.9397 0.9397 0.342 -81.8456 91.8717)" class="st2" cx="24.7" cy="104.4" rx="2" ry="4.8"/>
		
			<ellipse transform="matrix(0.342 -0.9397 0.9397 0.342 -58.8354 177.7467)" class="st4" cx="97.5" cy="130.9" rx="4.4" ry="10.5"/>
		<ellipse transform="matrix(0.342 -0.9397 0.9397 0.342 -58.8354 177.7467)" class="st2" cx="97.5" cy="130.9" rx="2" ry="4.8"/>
		
			<linearGradient id="SVGID_00000111881032568164461170000010734567365658145704_" gradientUnits="userSpaceOnUse" x1="562.7219" y1="250.5388" x2="562.7219" y2="242.2865" gradientTransform="matrix(0.9397 0.342 -0.342 0.9397 -350.9987 -307.7661)">
			<stop  offset="0.3111" style="stop-color:#000000"/>
			<stop  offset="1" style="stop-color:#37475E"/>
		</linearGradient>
		<path style="fill:url(#SVGID_00000111881032568164461170000010734567365658145704_);" d="M60.9,101.8l-1.4,3.9
			c-0.4,1.2,0,2.6,1.2,3l61.2,22.3c1.1,0.4,1.9,0.3,3.1-1.1l2.7-3.7c1-1.6,0-2.6-1.2-3l-62.8-22.8C62.6,99.9,61.4,100.6,60.9,101.8z
			"/>
		<path class="st2" d="M149.6,66.9l-79.8-29l-19.4,2.6L27.1,46c0,0,0,0,0,0c-0.1,0.3-0.3,0.5-0.5,0.7c0,0-0.1,0.1-0.1,0.1
			c-3.4,5.2-6.1,10.4-8.2,15.3l0.1,0l1.3-0.7c0.1-0.1,0.1-0.1,0.2-0.1l-0.2,0.1c-1.1,1.2-5.1,13.2-5,17.1l-1.9-0.9
			c-1.9,6.8-2.8,12.9-3.3,18.1c5-3.9,10.9-4.8,17.4-4.4l25,0.7l78.5,28.6c0.1,0,0.2,0.1,0.3,0.1l0,0c0.1,0,0.2,0.1,0.4,0.1
			c2.4,0.9,1.5,3,0.7,4.3l3.9-5.5c0.1,0,0.1-0.1,0.2-0.2c0.6-0.6,1.1-1.3,1.4-2.2L153,73.8C153.9,71.1,152.5,67.9,149.6,66.9z
			 M42.5,89.1l-11.6-0.3c0,0,0,0,0,0c-0.2-0.5-3.7-9.9,3-26.5c6.9-17.1,15-21.1,15-21.1c0,0-0.1,0.1-0.1,0.1c0,0,0.1,0,0.1,0
			c5.3-0.8,11.9-2,16.9-2.3c1-0.1,1.6,1.1,1.1,2C57.3,54.8,53,68,52.1,84.4C51.7,89.7,47.9,89.2,42.5,89.1z"/>
		
			<linearGradient id="SVGID_00000003794398628941678330000002245441240392732569_" gradientUnits="userSpaceOnUse" x1="505.7397" y1="-379.3883" x2="493.9589" y2="-379.0549" gradientTransform="matrix(0.9397 0.342 -0.342 0.9397 -553.4747 248.5319)">
			<stop  offset="0.3111" style="stop-color:#000000"/>
			<stop  offset="1" style="stop-color:#37475E"/>
		</linearGradient>
		<path style="fill:url(#SVGID_00000003794398628941678330000002245441240392732569_);" d="M42.5,89.1l-11.6-0.3c0,0,0,0,0,0
			c-5.1-17.9,10.1-43.5,17.9-47.5c0,0,0.1,0,0.1,0c5.3-0.8,11.9-2,16.9-2.3c1-0.1,1.6,1.1,1.1,2C57.3,54.8,53,68,52.1,84.4
			C51.7,89.7,47.9,89.2,42.5,89.1z"/>
		
			<linearGradient id="SVGID_00000051351266962335590070000005410517255257003412_" gradientUnits="userSpaceOnUse" x1="505.485" y1="250.3699" x2="505.485" y2="242.6803" gradientTransform="matrix(0.9397 0.342 -0.342 0.9397 -350.9987 -307.7661)">
			<stop  offset="0.3111" style="stop-color:#000000"/>
			<stop  offset="1" style="stop-color:#37475E"/>
		</linearGradient>
		<path style="fill:url(#SVGID_00000051351266962335590070000005410517255257003412_);" d="M48.9,97.1l-1.7,4.8
			c-0.3,0.8-1.2,1.3-2.1,1L31.6,98c-0.8-0.3-1.3-1.2-1-2.1l0.1-0.3c0.2-0.7,0.8-1.1,1.5-1L47.6,95C48.5,95,49.3,96.1,48.9,97.1z"/>
		<path d="M48.7,41.4C35.4,57,31.7,72.8,30.9,88.9c0,0,0,0,0,0c-0.2-0.5-3.7-9.9,3-26.5c6.9-17.1,15-21.1,15-21.1
			C48.8,41.3,48.8,41.3,48.7,41.4z"/>
		<path d="M9.4,96.5l-0.1,0.2l-0.6,0.7l-0.3,0.3l-0.4,0.4C9.7,66,26.4,46.8,27.1,46c-0.2,0.2-0.3,0.5-0.5,0.7c0,0-0.1,0.1-0.1,0.1
			c-3.4,5.2-6.1,10.4-8.2,15.3c-2.4,5.4-4.2,10.6-5.5,15.4c-1.9,6.8-2.8,12.9-3.3,18.1C9.4,95.9,9.4,96.2,9.4,96.5z"/>
		<path d="M19.8,61.3l-0.2,0.1C19.7,61.3,19.8,61.3,19.8,61.3z"/>
		<path d="M14.6,78.5l-1.9-0.9l-0.3-0.2l-0.1-0.1l5.4-14.9l0.2-0.1l0.4-0.2l0.1,0l1.3-0.7C18.6,62.6,14.5,74.6,14.6,78.5z"/>
		<path class="st9" d="M130.9,126L130.9,126C130.9,126,130.9,126,130.9,126C130.9,126,130.9,126,130.9,126z"/>
		<path class="st9" d="M131.6,125c0,0-0.1,0.1-0.1,0.1c-0.1,0.1-0.1,0.2-0.2,0.3l-0.2,0.2c0,0.1-0.1,0.1-0.1,0.2c0,0,0,0-0.1,0.1
			L131.6,125z"/>
	</g>
</g>
</svg>
