<?xml version="1.0" encoding="utf-8"?>
<!-- Generator: Adobe Illustrator 25.4.1, SVG Export Plug-In . SVG Version: 6.00 Build 0)  -->
<svg version="1.1" id="Layer_1" xmlns="http://www.w3.org/2000/svg" xmlns:xlink="http://www.w3.org/1999/xlink" x="0px" y="0px"
	 viewBox="0 0 168 168" style="enable-background:new 0 0 168 168;" xml:space="preserve">
<style type="text/css">
	.st0{opacity:0.2;fill:#151110;enable-background:new    ;}
	.st1{fill:url(#SVGID_1_);}
	.st2{fill:#FFFFFF;}
	.st3{fill:#C00D0D;}
	.st4{fill:#151110;}
	.st5{fill:url(#SVGID_00000125589752801873244000000009374066969174360989_);}
	.st6{fill:url(#SVGID_00000054249283677119472780000005600193646798137782_);}
	.st7{fill:none;stroke:#A03394;stroke-width:9;stroke-miterlimit:10;}
	.st8{fill:url(#SVGID_00000168833951797990028280000008806530080004920974_);}
	.st9{fill:#F0F0F0;}
	.st10{fill:url(#SVGID_00000134935778646975760470000013953194963329820086_);}
	.st11{fill:url(#SVGID_00000053526612189113973920000005098327177487178903_);}
	.st12{fill:url(#SVGID_00000157291676181804317900000006090189871293220029_);}
	.st13{fill:url(#SVGID_00000095321527838200058250000004968068199846798013_);}
	.st14{fill:url(#SVGID_00000070811780278747967740000000029224419828256938_);}
	.st15{fill:url(#SVGID_00000057865331365892324510000003828040561923076534_);}
	.st16{fill:url(#SVGID_00000096056382411695726650000003641870306753185961_);}
	.st17{fill:url(#SVGID_00000019661094772068455580000001930321511483080624_);}
	.st18{fill:url(#SVGID_00000010287772476912535320000016654839358819881858_);}
	.st19{fill:url(#SVGID_00000134251180864062398060000008355648695045432230_);}
	.st20{fill:url(#SVGID_00000147189099086498428940000001429132400685707176_);}
	.st21{fill:url(#SVGID_00000054266650319190997350000007171716656992631180_);}
	.st22{fill:url(#SVGID_00000088101409521085962250000017341924030705299352_);}
	.st23{fill:url(#SVGID_00000049929058937416883940000008656753521390593171_);}
	.st24{fill:url(#SVGID_00000026138185033486754890000016135219788174507956_);}
	.st25{fill:url(#SVGID_00000065757609904875113170000009400575428201477823_);}
	.st26{fill:url(#SVGID_00000033328529153517487460000016824147193540555411_);}
	.st27{fill:url(#SVGID_00000021838650537781282440000014666069043283172793_);}
	.st28{fill:url(#SVGID_00000145750998492201189160000011479469913378937476_);}
	.st29{fill:url(#SVGID_00000109002448293007370390000013823533622206871989_);}
	.st30{fill:url(#SVGID_00000142138654595387701350000009977879759583892386_);}
	.st31{fill:url(#SVGID_00000156578417814054245580000016177005724982956464_);}
	.st32{fill:url(#SVGID_00000096737650171129598520000005977168002314818962_);}
	.st33{fill:url(#SVGID_00000034080438265771491210000000032457613302427062_);}
	.st34{fill:url(#SVGID_00000135677307089150823590000000880465501686270624_);}
	.st35{fill:url(#SVGID_00000081612741115405317100000004628548316058084497_);}
	.st36{fill:url(#SVGID_00000183240050182320294820000000440767924777873543_);}
	.st37{fill:url(#SVGID_00000179621029680832745050000014618413598164099723_);}
	.st38{fill:url(#SVGID_00000093139604160268047410000014170189240356949894_);}
	.st39{fill:url(#SVGID_00000181068791457043772260000007310996897622302356_);}
	.st40{fill:url(#SVGID_00000174589770769749436500000001381773498270913720_);}
	.st41{fill:url(#SVGID_00000155849972031611096230000002417472158289289117_);}
	.st42{fill:url(#SVGID_00000136408562527799474830000015951003151389072789_);}
	.st43{fill:url(#SVGID_00000039837855272194549870000009412337476390804102_);}
	.st44{fill:url(#SVGID_00000008861030088659719900000015465144227018458555_);}
	.st45{fill:url(#SVGID_00000168098413014985610210000011126770509510195587_);}
	.st46{fill:url(#SVGID_00000080887843139721220760000009023546038521551541_);}
	.st47{fill:url(#SVGID_00000093896572809212376920000017472399747126113975_);}
	.st48{fill:url(#SVGID_00000155848360440180635120000005759097621598516367_);}
	.st49{fill:url(#SVGID_00000029743561675201274540000016061235343330001583_);}
	.st50{fill:url(#SVGID_00000177446164126324593190000012230263985336947340_);}
	.st51{fill:url(#SVGID_00000155844529167642654620000000300745475236816538_);}
	.st52{fill:url(#SVGID_00000098182282150544233070000009992332205724698273_);}
	.st53{fill:url(#SVGID_00000004505309071074790410000017092346548162604930_);}
	.st54{fill:url(#SVGID_00000047773820976071275040000008987497982678769303_);}
	.st55{fill:url(#SVGID_00000142875943467772062740000015101683140771525520_);}
	.st56{fill:url(#SVGID_00000178912653699720216070000009577053598560032942_);}
	.st57{fill:url(#SVGID_00000160178404964536708680000009799069060198630832_);}
	.st58{fill:url(#SVGID_00000042737799000444898570000014876585419295584686_);}
	.st59{fill:url(#SVGID_00000142897469181743642020000011575496659185852065_);}
	.st60{fill:url(#SVGID_00000000913680190632326040000001926228685287064240_);}
	.st61{fill:url(#SVGID_00000012445587834213504810000008931923764841490617_);}
	.st62{fill:url(#SVGID_00000018927024080673153010000008035708824164195251_);}
	.st63{fill:url(#SVGID_00000182519689544436454060000003500701513538935737_);}
	.st64{fill:url(#SVGID_00000070812781143703132030000006522822228023956652_);}
	.st65{fill:url(#SVGID_00000027587832476197485770000000882512816178120852_);}
	.st66{fill:url(#SVGID_00000051341134884685951740000003116701141240809102_);}
	.st67{fill:url(#SVGID_00000148659492265748755710000013853978896417475757_);}
	.st68{fill:url(#SVGID_00000172417836863072754020000004158685752921285813_);}
	.st69{fill:url(#SVGID_00000013177089781100067230000011049618510873638548_);}
	.st70{fill:url(#SVGID_00000098216592487710901420000001577013079705644179_);}
	.st71{fill:url(#SVGID_00000044167309271786601480000008929605314461897602_);}
	.st72{fill:url(#SVGID_00000135680224474748055270000016052534625512748955_);}
	.st73{fill:url(#SVGID_00000181081638670757670550000016414188530822111875_);}
	.st74{fill:url(#SVGID_00000119111308967108065700000001723935641452638339_);}
	.st75{fill:url(#SVGID_00000047744683813254999950000001362888060040511627_);}
	.st76{fill:url(#SVGID_00000011735824123617819390000008325988170176593809_);}
	.st77{fill:url(#SVGID_00000032636340785953787670000012479944957996032703_);}
	.st78{fill:url(#SVGID_00000110463322625902679420000007585704045510902460_);}
	.st79{fill:url(#SVGID_00000061460944993768602370000007699135610178677125_);}
	.st80{fill:url(#SVGID_00000072255112885215392840000011930862727064464062_);}
	.st81{fill:url(#SVGID_00000165942178081101210160000016913616929159604630_);}
	.st82{fill:url(#SVGID_00000122709653325782921370000001204613439310524094_);}
	.st83{fill:url(#SVGID_00000072277643332105574230000012593405988619879567_);}
	.st84{fill:url(#SVGID_00000022530161314398087130000004913176601514216353_);}
	.st85{fill:url(#SVGID_00000031169184878647902350000010704088043881713045_);}
	.st86{fill:url(#SVGID_00000075878523201564165900000016656434669782653093_);}
	.st87{fill:url(#SVGID_00000132798073422932537960000009313187141093111429_);}
	.st88{fill:url(#SVGID_00000046340987993017907800000015534754230984723589_);}
	.st89{fill:url(#SVGID_00000160180868864843440200000011692200969067317931_);}
	.st90{fill:url(#SVGID_00000159470363185265878660000012858516918923535239_);}
	.st91{fill:url(#SVGID_00000078747513416858676320000000939419965983035523_);}
	.st92{fill:url(#SVGID_00000124848913503956142960000004292643227590425728_);}
	.st93{fill:url(#SVGID_00000059291893456809607580000009767624528380010660_);}
	.st94{fill:url(#SVGID_00000081614280216289067260000015322993586024975504_);}
	.st95{fill:url(#SVGID_00000054233087500284592730000017220285490733216919_);}
	.st96{fill:url(#SVGID_00000022526892941879089260000007138435140258144437_);}
	.st97{fill:url(#SVGID_00000079453501732789263560000005168860441239447217_);}
	.st98{fill:url(#SVGID_00000090275669739351506340000006032531871551269561_);}
	.st99{fill:url(#SVGID_00000153672232658675890540000012250190903078339262_);}
	.st100{fill:url(#SVGID_00000078738717265585282760000017164831934487815329_);}
	.st101{fill:url(#SVGID_00000003100864971687817510000002257145002922183354_);}
	.st102{fill:url(#SVGID_00000042707484287134953770000007046408172436674691_);}
	.st103{fill:url(#SVGID_00000181797814436058420350000007391968443420210060_);}
	.st104{fill:url(#SVGID_00000150787633089242331230000002768259165257169335_);}
	.st105{fill:url(#SVGID_00000140692785453178770350000004461522719190914210_);}
	.st106{fill:url(#SVGID_00000145050521515541497250000016786253585971837852_);}
	.st107{fill:url(#SVGID_00000136388598135880355780000009267234884593685928_);}
	.st108{fill:url(#SVGID_00000100361185054643498200000010525454163783271075_);}
	.st109{fill:url(#SVGID_00000124854667989895133370000016606680956420169110_);}
	.st110{fill:url(#SVGID_00000109734253258099432600000003107978715157931937_);}
	.st111{fill:url(#SVGID_00000111894374656402371860000012608948532089354631_);}
	.st112{fill:url(#SVGID_00000102508551264963744110000005272279617893854908_);}
	.st113{fill:url(#SVGID_00000148619815263188560680000002051023715423407767_);}
	.st114{fill:url(#SVGID_00000109726894871712719380000017548615280366603177_);}
	.st115{fill:url(#SVGID_00000108272506374667678780000001580922316167075459_);}
	.st116{fill:url(#SVGID_00000159440854282186240160000002796638550512045981_);}
	.st117{fill:url(#SVGID_00000099634905754653736930000009409770373869860508_);}
	.st118{fill:url(#SVGID_00000150065037797628296860000013211911376183626403_);}
	.st119{fill:url(#SVGID_00000080885357931279048670000007487430636477980852_);}
	.st120{fill:url(#SVGID_00000035508292404612363020000007691575902349678521_);}
	.st121{fill:url(#SVGID_00000137836945081194281910000009464744882418618298_);}
	.st122{fill:url(#SVGID_00000093154941998942337240000011773486129834430395_);}
	.st123{fill:url(#SVGID_00000004511822797358802710000016088190938358059962_);}
	.st124{fill:url(#SVGID_00000150092980963098430190000003726157234532929198_);}
	.st125{fill:url(#SVGID_00000139295054439119456260000000062967447743064240_);}
	.st126{fill:url(#SVGID_00000070829596620512262580000009082453659917323940_);}
	.st127{fill:url(#SVGID_00000150780792197136441870000007323046379428698044_);}
	.st128{fill:url(#SVGID_00000039841194275897348520000000495707909144118707_);}
	.st129{fill:url(#SVGID_00000062875315798962229190000002473825659785799557_);}
	.st130{fill:url(#SVGID_00000041268992291028766900000015743489808937548974_);}
	.st131{fill:url(#SVGID_00000075849227995578712660000001461189786604570525_);}
	.st132{fill:url(#SVGID_00000106865480920868694310000001459055488699070126_);}
	.st133{fill:url(#SVGID_00000168081936830285679480000016945947394263560114_);}
	.st134{fill:url(#SVGID_00000013874572063474262160000003748201929224520849_);}
	.st135{fill:url(#SVGID_00000075884403735343657270000005049847080015223681_);}
	.st136{fill:url(#SVGID_00000114758562780136638840000000112819359787382964_);}
	.st137{fill:url(#SVGID_00000036239322500361932790000010392920964770065826_);}
	.st138{fill:url(#SVGID_00000071551636152687514600000005394126257905666746_);}
	.st139{fill:url(#SVGID_00000065776857034887661750000015807819872211276719_);}
	.st140{fill:url(#SVGID_00000053508178741307402580000013350882558312028057_);}
	.st141{fill:url(#SVGID_00000077324662819297373490000002126983211695140525_);}
	.st142{fill:url(#SVGID_00000093138717296582456000000014363067985773283216_);}
	.st143{fill:url(#SVGID_00000054248196593276224090000007413460393147584681_);}
	.st144{fill:url(#SVGID_00000079462782028276465700000006454143558815685563_);}
	.st145{fill:url(#SVGID_00000068661010495740140140000002134907928188885174_);}
	.st146{fill:url(#SVGID_00000059992042994152399200000008508452955366751156_);}
	.st147{fill:url(#SVGID_00000094608152384735058890000008673184824626262936_);}
	.st148{fill:url(#SVGID_00000139288220285759626330000015577935364109368194_);}
	.st149{fill:url(#SVGID_00000053536776687599618540000008275592904535824052_);}
</style>
<g>
	<path class="st0" d="M37.4,135.7c-0.4-0.2-0.8-0.6-1.2-0.9l0,0l-17.9-18.4L23,106l55-93.1c0.1-0.2,0.2-0.3,0.3-0.4l0.4-0.7l-0.1,0
		c32,7.4,48.1,27.9,48.1,27.9c-0.2-0.2-0.5-0.4-0.7-0.6c0.2,0.2,0.5,0.4,0.7,0.6l1.4,24l-0.8,19.5L124,89l-1.3,2.3l-37.8,65.6
		c-1.5,2.6-4.8,3.5-7.4,2L37.4,135.7L37.4,135.7z"/>
	
		<linearGradient id="SVGID_1_" gradientUnits="userSpaceOnUse" x1="85.6317" y1="121.1834" x2="85.91" y2="86.1101" gradientTransform="matrix(-0.5 0.866 -0.866 -0.5 199.179 58.0016)">
		<stop  offset="0" style="stop-color:#5C5C5C"/>
		<stop  offset="0.1042" style="stop-color:#979797"/>
	</linearGradient>
	<path class="st1" d="M40.5,139l-5-5.2c-0.1-0.1-0.2-0.2-0.3-0.3l-0.2-0.2c-0.1-0.1-0.1-0.1-0.2-0.2l-0.1-0.1l-7.2-7.4l-3-3.1
		l-0.6-0.6l-0.6-0.7l4.6-10.4l1.8-3.1l3-5.1c0,0,0,0,0,0l4.5-7.6l3-5.1l28.8-48.7l2.9-4.9l4.9-8.3l2.9-4.9l3.2-5.3l0,0
		c0.2-0.4,0.6-0.6,0.9-0.6c0.1,0,0.3,0,0.4,0c0.2,0,0.3,0.1,0.4,0.2c0.1,0,0.2,0.1,0.2,0.2c0,0,0.1,0.1,0.1,0.1c0,0,0,0,0,0
		c0.1,0.1,0.1,0.1,0.1,0.2c0.2,0.3,0.3,0.6,0.5,0.8c3,5.6,2.9,11.6,1.3,17.9l-5,24.5l-4.2,7.3l-37.5,65c0,0.1-0.1,0.2-0.1,0.2l0,0
		c-0.1,0.1-0.1,0.2-0.2,0.3c-1.3,2.2-3.2,0.9-4.4-0.1l4.7,4.8C40.4,138.8,40.5,138.9,40.5,139z"/>
	<g>
		<path class="st2" d="M117.8,34.9l-0.1-0.2C117.8,34.8,117.8,34.9,117.8,34.9z"/>
		<path class="st2" d="M86.5,52.4L88.8,41c0,0,0,0,0,0c0.6-0.1,10.4-1.9,25.6,7.5C130,58.2,132.6,67,132.6,67c0,0-0.1-0.1-0.1-0.1
			c0,0,0,0.1,0,0.1c-0.1,5.4-0.1,12-0.7,17c-0.1,1-1.4,1.4-2.1,0.7c-11.9-11.7-24.1-18.2-40.2-22C84.3,61.4,85.5,57.7,86.5,52.4z"/>
		<polygon class="st3" points="27.6,125.8 24.1,122.1 25.1,120.3 28.7,124 		"/>
		<polygon class="st4" points="24.6,122.8 85.3,17.7 83.7,16.8 23.4,121.4 		"/>
		<ellipse transform="matrix(0.5 -0.866 0.866 0.5 9.3732 80.6949)" class="st4" cx="74.6" cy="32.2" rx="10.5" ry="4.4"/>
		<ellipse transform="matrix(0.5 -0.866 0.866 0.5 9.3732 80.6949)" class="st2" cx="74.6" cy="32.2" rx="4.8" ry="2"/>
		<ellipse transform="matrix(0.5 -0.866 0.866 0.5 -68.1268 80.6949)" class="st4" cx="35.8" cy="99.3" rx="10.5" ry="4.4"/>
		<ellipse transform="matrix(0.5 -0.866 0.866 0.5 -68.1268 80.6949)" class="st2" cx="35.8" cy="99.3" rx="4.8" ry="2"/>
		
			<linearGradient id="SVGID_00000164508536953174261630000005571557275923493278_" gradientUnits="userSpaceOnUse" x1="108.7224" y1="704.5383" x2="108.7224" y2="696.286" gradientTransform="matrix(-0.5 0.866 -0.866 -0.5 711.866 354.0016)">
			<stop  offset="0.3111" style="stop-color:#000000"/>
			<stop  offset="1" style="stop-color:#37475E"/>
		</linearGradient>
		<path style="fill:url(#SVGID_00000164508536953174261630000005571557275923493278_);" d="M70.8,68.4l-3.6-2
			c-1.1-0.7-2.5-0.4-3.1,0.6l-32.5,56.4c-0.6,1-0.6,1.8,0.6,3.2l3.2,3.3c1.4,1.2,2.5,0.4,3.1-0.6l33.4-57.9
			C72.4,70.4,71.9,69,70.8,68.4z"/>
		<path class="st2" d="M89.8,161.8l42.5-73.5l0.8-19.5l-1.4-24c0,0,0,0,0,0c-0.2-0.2-0.4-0.4-0.6-0.6c0,0-0.1-0.1-0.1-0.1
			c-4.6-4.2-9.1-7.8-13.6-10.8l0,0.1l0.4,1.4c0.1,0.1,0.1,0.1,0.1,0.2l-0.1-0.2c-0.9-1.3-12.1-7.3-15.9-7.9l1.3-1.7
			c-6.4-3-12.2-5-17.2-6.4c3,5.6,2.9,11.6,1.3,17.9l-5,24.5l-41.8,72.3c0,0.1-0.1,0.2-0.1,0.2l0,0c-0.1,0.1-0.1,0.2-0.2,0.3
			c-1.3,2.2-3.2,0.9-4.4-0.1l4.7,4.8c0,0.1,0.1,0.1,0.1,0.2c0.4,0.7,1.1,1.3,1.9,1.8l40,23.1C85,165.2,88.3,164.4,89.8,161.8z
			 M86.5,52.4L88.8,41c0,0,0,0,0,0c0.6-0.1,10.4-1.9,25.6,7.5C130,58.2,132.6,67,132.6,67c0,0-0.1-0.1-0.1-0.1c0,0,0,0.1,0,0.1
			c-0.1,5.4-0.1,12-0.7,17c-0.1,1-1.4,1.4-2.1,0.7c-11.9-11.7-24.1-18.2-40.2-22C84.3,61.4,85.5,57.7,86.5,52.4z"/>
		
			<linearGradient id="SVGID_00000113316317614857172850000011166317274408114327_" gradientUnits="userSpaceOnUse" x1="51.7402" y1="74.6112" x2="39.9593" y2="74.9446" gradientTransform="matrix(-0.5 0.866 -0.866 -0.5 199.179 58.0016)">
			<stop  offset="0.3111" style="stop-color:#000000"/>
			<stop  offset="1" style="stop-color:#37475E"/>
		</linearGradient>
		<path style="fill:url(#SVGID_00000113316317614857172850000011166317274408114327_);" d="M86.5,52.4L88.8,41c0,0,0,0,0,0
			c18.5-1.9,41.1,17.5,43.6,25.8c0,0,0,0.1,0,0.1c-0.1,5.4-0.1,12-0.7,17c-0.1,1-1.4,1.4-2.1,0.7c-11.9-11.7-24.1-18.2-40.2-22
			C84.3,61.4,85.5,57.7,86.5,52.4z"/>
		
			<linearGradient id="SVGID_00000162324150608668703140000014988642305765587357_" gradientUnits="userSpaceOnUse" x1="51.4855" y1="704.3694" x2="51.4855" y2="696.6798" gradientTransform="matrix(-0.5 0.866 -0.866 -0.5 711.866 354.0016)">
			<stop  offset="0.3111" style="stop-color:#000000"/>
			<stop  offset="1" style="stop-color:#37475E"/>
		</linearGradient>
		<path style="fill:url(#SVGID_00000162324150608668703140000014988642305765587357_);" d="M77.5,57.4l-4.4-2.5
			c-0.8-0.5-1-1.4-0.6-2.2l7.2-12.5c0.4-0.8,1.4-1,2.2-0.6l0.3,0.2c0.6,0.3,0.9,1,0.7,1.7l-3.1,15C79.7,57.4,78.5,57.9,77.5,57.4z"
			/>
		<path d="M132.4,66.8c-13.1-15.8-28-22.2-43.7-25.8c0,0,0,0,0,0c0.6-0.1,10.4-1.9,25.6,7.5C130,58.2,132.6,67,132.6,67
			C132.5,66.9,132.5,66.9,132.4,66.8z"/>
		<path d="M85,18.5l-0.1-0.2l-0.6-0.8L84,17.3l-0.3-0.4c31.3,7.3,47.3,27.1,47.9,27.9c-0.2-0.2-0.4-0.4-0.6-0.6c0,0-0.1-0.1-0.1-0.1
			c-4.6-4.2-9.1-7.8-13.6-10.8c-4.9-3.3-9.7-6-14.2-8.1c-6.4-3-12.2-5-17.2-6.4C85.6,18.7,85.3,18.6,85,18.5z"/>
		<path d="M117.8,34.9l-0.1-0.2C117.8,34.8,117.8,34.9,117.8,34.9z"/>
		<path d="M101.8,26.8l1.3-1.7l0.2-0.3l0.1-0.1l13.8,7.9l0.1,0.2l0.1,0.4l0,0.1l0.4,1.4C116.8,33.5,105.6,27.4,101.8,26.8z"/>
		<path class="st9" d="M34.8,133.1L34.8,133.1C34.9,133.1,34.8,133.1,34.8,133.1C34.8,133.1,34.8,133.1,34.8,133.1z"/>
		<path class="st9" d="M35.7,133.9c0,0-0.1-0.1-0.1-0.1c-0.1-0.1-0.2-0.2-0.3-0.3l-0.2-0.2c-0.1-0.1-0.1-0.1-0.2-0.2c0,0,0,0,0-0.1
			L35.7,133.9z"/>
	</g>
</g>
</svg>
