<?xml version="1.0" encoding="utf-8"?>
<!-- Generator: Adobe Illustrator 25.4.1, SVG Export Plug-In . SVG Version: 6.00 Build 0)  -->
<svg version="1.1" id="Layer_1" xmlns="http://www.w3.org/2000/svg" xmlns:xlink="http://www.w3.org/1999/xlink" x="0px" y="0px"
	 viewBox="0 0 168 168" style="enable-background:new 0 0 168 168;" xml:space="preserve">
<style type="text/css">
	.st0{opacity:0.2;fill:#151110;enable-background:new    ;}
	.st1{fill:url(#SVGID_1_);}
	.st2{fill:#FFFFFF;}
	.st3{fill:#C00D0D;}
	.st4{fill:#151110;}
	.st5{fill:url(#SVGID_00000025433993199916437000000008093947432195378351_);}
	.st6{fill:url(#SVGID_00000023242572986979788550000012802858119503638458_);}
	.st7{fill:none;stroke:#A03394;stroke-width:9;stroke-miterlimit:10;}
	.st8{fill:url(#SVGID_00000044875295512708530380000001349007711647921820_);}
	.st9{fill:#F0F0F0;}
	.st10{fill:url(#SVGID_00000019662551538621509770000012087597619692202404_);}
	.st11{fill:url(#SVGID_00000131348537003523101410000007245099732074249647_);}
	.st12{fill:url(#SVGID_00000178205486390616049630000010222880881038447522_);}
	.st13{fill:url(#SVGID_00000129904672770262974780000008822134525312895631_);}
	.st14{fill:url(#SVGID_00000111171086100419889120000005943426636046270647_);}
	.st15{fill:url(#SVGID_00000010284864148872491910000017569185374152732351_);}
	.st16{fill:url(#SVGID_00000013168949364966903560000014796319440876827536_);}
	.st17{fill:url(#SVGID_00000129897995180957876650000000460318766691628955_);}
	.st18{fill:url(#SVGID_00000163756577797773338050000016939354960288722606_);}
	.st19{fill:url(#SVGID_00000132050162093450695180000012637384294074706363_);}
	.st20{fill:url(#SVGID_00000052061642602185598150000017132035854990533047_);}
	.st21{fill:url(#SVGID_00000055702315199231339530000017732828187612581049_);}
	.st22{fill:url(#SVGID_00000121267598011683145180000016107249844269952433_);}
	.st23{fill:url(#SVGID_00000096042727020154315590000008923271278913904521_);}
	.st24{fill:url(#SVGID_00000129911001926153332580000011151466209606688942_);}
	.st25{fill:url(#SVGID_00000109027997655320020250000015400651257263973004_);}
	.st26{fill:url(#SVGID_00000002361268444495347640000002837529401740002469_);}
	.st27{fill:url(#SVGID_00000157290889489267100740000011951157946800624264_);}
	.st28{fill:url(#SVGID_00000126292154361830503990000015739346410758724759_);}
	.st29{fill:url(#SVGID_00000141416962933640092380000011325514323910388375_);}
	.st30{fill:url(#SVGID_00000017512504946283709080000014916064351660333952_);}
	.st31{fill:url(#SVGID_00000168083560532580457060000005860906749480501419_);}
	.st32{fill:url(#SVGID_00000183216037900840675620000017960873853059841927_);}
	.st33{fill:url(#SVGID_00000158709816585581631000000007015882122295791524_);}
	.st34{fill:url(#SVGID_00000155143306683860831180000008954918962392670084_);}
	.st35{fill:url(#SVGID_00000037692489641731983170000009874953332679297208_);}
	.st36{fill:url(#SVGID_00000010276191735862107630000013885129115100116131_);}
	.st37{fill:url(#SVGID_00000152973460742236870720000007251378581696515492_);}
	.st38{fill:url(#SVGID_00000049190852204989331290000004833524099948339076_);}
	.st39{fill:url(#SVGID_00000167395409943728489690000001136823888857054869_);}
	.st40{fill:url(#SVGID_00000150082676924621287130000000327092223859336876_);}
	.st41{fill:url(#SVGID_00000089550997908176891750000003888990283862344117_);}
	.st42{fill:url(#SVGID_00000046320765115479351640000000893012829282367651_);}
	.st43{fill:url(#SVGID_00000177446073582728072090000017291818019426414216_);}
	.st44{fill:url(#SVGID_00000108282647872910539730000006213947609987296669_);}
	.st45{fill:url(#SVGID_00000079450527530706400850000003010099499656746376_);}
	.st46{fill:url(#SVGID_00000051381886841023457720000003214565501381373082_);}
	.st47{fill:url(#SVGID_00000091715428829010854470000017446343761839402373_);}
	.st48{fill:url(#SVGID_00000017481426515237034100000007914052630638101150_);}
	.st49{fill:url(#SVGID_00000036960515109326081170000001522858544271774121_);}
	.st50{fill:url(#SVGID_00000158735917868794685820000012164817328699321762_);}
	.st51{fill:url(#SVGID_00000145745713388285011710000008665570127476393620_);}
	.st52{fill:url(#SVGID_00000085209319351628861910000000645811232681359508_);}
	.st53{fill:url(#SVGID_00000082336593411655537390000012977228210409314178_);}
	.st54{fill:url(#SVGID_00000160163397173162031730000000985201257204393358_);}
	.st55{fill:url(#SVGID_00000077324338326788189300000013325380528039681683_);}
	.st56{fill:url(#SVGID_00000140010595792359643450000015831393427092174978_);}
	.st57{fill:url(#SVGID_00000105391021885807995240000003706918529791965363_);}
	.st58{fill:url(#SVGID_00000172429790808585201750000006251410947357176253_);}
	.st59{fill:url(#SVGID_00000170962815743347000570000010758342502693237637_);}
	.st60{fill:url(#SVGID_00000118395513823798881460000015408927801457691024_);}
	.st61{fill:url(#SVGID_00000043437975618872584200000004505786684534744201_);}
	.st62{fill:url(#SVGID_00000139268466444714654720000006817410527709655427_);}
	.st63{fill:url(#SVGID_00000122695256247240685650000007904887622243629754_);}
	.st64{fill:url(#SVGID_00000114790034646401120330000005939439645566309274_);}
	.st65{fill:url(#SVGID_00000038381835049496185630000009267809930987882406_);}
	.st66{fill:url(#SVGID_00000127030177067737681600000001421383539395001278_);}
	.st67{fill:url(#SVGID_00000131355899991177232170000012350011144384316312_);}
	.st68{fill:url(#SVGID_00000095302613136961732390000005390339706329397401_);}
	.st69{fill:url(#SVGID_00000072272962318706989440000006328373364565899663_);}
	.st70{fill:url(#SVGID_00000140731342868237634360000016441862856922409648_);}
	.st71{fill:url(#SVGID_00000057865807098748404310000003308782639810165665_);}
	.st72{fill:url(#SVGID_00000125597535486249841350000006827212451831568810_);}
	.st73{fill:url(#SVGID_00000085943835209314208680000018192403790693072820_);}
	.st74{fill:url(#SVGID_00000116945425900402228370000010880925181603812480_);}
	.st75{fill:url(#SVGID_00000054967950184948757560000007129156076839516578_);}
	.st76{fill:url(#SVGID_00000127740361243923122140000001463585277123196850_);}
	.st77{fill:url(#SVGID_00000094586387188460590530000007970032620537371302_);}
	.st78{fill:url(#SVGID_00000116917268959097566000000009232981471617404054_);}
	.st79{fill:url(#SVGID_00000123439346460061496070000006398798109438037165_);}
	.st80{fill:url(#SVGID_00000066505380501199488420000010010004223373040533_);}
	.st81{fill:url(#SVGID_00000148645307898233992680000002456066982797671812_);}
	.st82{fill:url(#SVGID_00000007424875169638257870000004969626598192823705_);}
	.st83{fill:url(#SVGID_00000107578745922870240510000012346007840973911709_);}
	.st84{fill:url(#SVGID_00000183957395972183255700000009051589188940147335_);}
	.st85{fill:url(#SVGID_00000018941745512689430040000011599906983364117930_);}
	.st86{fill:url(#SVGID_00000020358548165381447600000002319986790141412509_);}
	.st87{fill:url(#SVGID_00000170970874877584678300000004471585816181752194_);}
	.st88{fill:url(#SVGID_00000070824550369050176100000005453926618041366410_);}
	.st89{fill:url(#SVGID_00000013157263505607074490000000101818435752307590_);}
	.st90{fill:url(#SVGID_00000073001910224827958120000000021215307105891736_);}
	.st91{fill:url(#SVGID_00000029726294299559164210000001408066992290051473_);}
	.st92{fill:url(#SVGID_00000050647866179812739970000013073610074769888659_);}
	.st93{fill:url(#SVGID_00000017496873607553019850000006312031025719128724_);}
	.st94{fill:url(#SVGID_00000006674913506278767560000012599051101727946118_);}
	.st95{fill:url(#SVGID_00000047019951025211562080000012950400514613466756_);}
	.st96{fill:url(#SVGID_00000042005160213573259780000013968670145949686155_);}
	.st97{fill:url(#SVGID_00000079462488092900280300000014875509022736760728_);}
	.st98{fill:url(#SVGID_00000088112847313786776310000018409365561577950109_);}
	.st99{fill:url(#SVGID_00000151518325595226312670000014709121829244919965_);}
	.st100{fill:url(#SVGID_00000178924158321929176710000005830397016844144520_);}
	.st101{fill:url(#SVGID_00000109018778137958344810000006456574455084581024_);}
	.st102{fill:url(#SVGID_00000055680707146295209060000003155879439115494552_);}
	.st103{fill:url(#SVGID_00000018934674259279433660000010959228403473728682_);}
	.st104{fill:url(#SVGID_00000041263986160662169860000007954612230787795849_);}
	.st105{fill:url(#SVGID_00000016033466679986036490000014707037551848231831_);}
	.st106{fill:url(#SVGID_00000076577757142366037500000016179201144829215401_);}
	.st107{fill:url(#SVGID_00000129170942765694297630000003723486334044975260_);}
	.st108{fill:url(#SVGID_00000038388669207629914250000009831140675462625154_);}
	.st109{fill:url(#SVGID_00000157297857664120322500000001451772025335675551_);}
	.st110{fill:url(#SVGID_00000089542243147216662250000018408544872516844991_);}
	.st111{fill:url(#SVGID_00000029757518357339709540000009526802272484565636_);}
	.st112{fill:url(#SVGID_00000152970293013004374800000006610655359221924483_);}
	.st113{fill:url(#SVGID_00000153706588928890228760000007232713956276490928_);}
	.st114{fill:url(#SVGID_00000159465661257937457330000002368383893371278011_);}
	.st115{fill:url(#SVGID_00000152252448821400563370000017182475919720221059_);}
	.st116{fill:url(#SVGID_00000174563057986063238700000007057152068339046075_);}
	.st117{fill:url(#SVGID_00000063617655323438170090000002023145271224170129_);}
	.st118{fill:url(#SVGID_00000023253707307728769680000000091543593009191062_);}
	.st119{fill:url(#SVGID_00000124859116109131481330000001193459718673597338_);}
	.st120{fill:url(#SVGID_00000006677344890562507900000017049174705028166274_);}
	.st121{fill:url(#SVGID_00000005239614280700716270000006452987313477017787_);}
	.st122{fill:url(#SVGID_00000119075761771396583150000013742050668830594971_);}
	.st123{fill:url(#SVGID_00000059291457445421080880000003057357719325673601_);}
	.st124{fill:url(#SVGID_00000037679023970714757510000004623334386632684172_);}
	.st125{fill:url(#SVGID_00000103966987251622984720000005723030178695999361_);}
	.st126{fill:url(#SVGID_00000144305828833574898750000008582310341541596578_);}
	.st127{fill:url(#SVGID_00000075841813663927848090000000865386600557985962_);}
	.st128{fill:url(#SVGID_00000054951601916899475990000007950358234018929038_);}
	.st129{fill:url(#SVGID_00000106121473943635838960000003328853477220575160_);}
	.st130{fill:url(#SVGID_00000075853881004242850170000018373319569318744245_);}
	.st131{fill:url(#SVGID_00000070110800903159041170000012802776986856032923_);}
	.st132{fill:url(#SVGID_00000025402017587560902540000002865625780395235252_);}
	.st133{fill:url(#SVGID_00000006698380941983050410000008200268390615038342_);}
	.st134{fill:url(#SVGID_00000036957252685076594260000008307362684967449502_);}
	.st135{fill:url(#SVGID_00000107564779086970249770000009377621180525803944_);}
	.st136{fill:url(#SVGID_00000041974488441543857830000001815686820830813853_);}
	.st137{fill:url(#SVGID_00000034788711726170782960000009107520135705689022_);}
	.st138{fill:url(#SVGID_00000117658151867748486710000014834907615777510591_);}
	.st139{fill:url(#SVGID_00000163065138352027458230000013148932173790632098_);}
	.st140{fill:url(#SVGID_00000105423185841800884000000001557269327069998259_);}
	.st141{fill:url(#SVGID_00000028301613092063810770000002163347238045035962_);}
	.st142{fill:url(#SVGID_00000093876766463265069050000014898632990920510399_);}
	.st143{fill:url(#SVGID_00000020357474625606162050000005933030280425445025_);}
	.st144{fill:url(#SVGID_00000077292783359909894890000001550229036429230994_);}
	.st145{fill:url(#SVGID_00000170238964944073182670000009733880449340606372_);}
	.st146{fill:url(#SVGID_00000062169481678566985860000007667339067841214362_);}
	.st147{fill:url(#SVGID_00000016795529521892222470000003834130564899257765_);}
	.st148{fill:url(#SVGID_00000176005321575869994710000006028773206800105650_);}
	.st149{fill:url(#SVGID_00000147902383506377726430000012099219272052065666_);}
</style>
<g>
	<path class="st0" d="M126.8,132c-0.2,0.4-0.6,0.8-0.9,1.2l0,0L107.4,151L97,146.4L4,91.4c-0.2-0.1-0.3-0.2-0.4-0.3l-0.7-0.4l0,0.1
		c7.4-32,27.9-48.1,27.9-48.1c-0.2,0.2-0.4,0.5-0.6,0.7c0.2-0.2,0.4-0.5,0.6-0.7l24-1.4l19.5,0.8l5.8,3.3l2.3,1.3l65.6,37.8
		c2.6,1.5,3.5,4.8,2,7.4L126.8,132L126.8,132z"/>
	
		<linearGradient id="SVGID_1_" gradientUnits="userSpaceOnUse" x1="539.6312" y1="-332.8161" x2="539.9095" y2="-367.8894" gradientTransform="matrix(0.866 0.5 -0.5 0.866 -571.1456 136.3943)">
		<stop  offset="0" style="stop-color:#5C5C5C"/>
		<stop  offset="0.1042" style="stop-color:#979797"/>
	</linearGradient>
	<path class="st1" d="M130,128.9l-5.2,5c-0.1,0.1-0.2,0.2-0.3,0.3l-0.2,0.2c-0.1,0.1-0.1,0.1-0.2,0.2l-0.1,0.1l-7.4,7.2l-3.1,3
		l-0.6,0.6l-0.7,0.6l-10.4-4.6l-3.1-1.8l-5.1-3c0,0,0,0,0,0l-7.6-4.5l-5.1-3l-48.7-28.8l-4.9-2.9l-8.3-4.9l-4.9-2.9l-5.3-3.2l0,0
		c-0.4-0.2-0.6-0.6-0.6-0.9c0-0.1,0-0.3,0-0.4c0-0.2,0.1-0.3,0.2-0.4c0-0.1,0.1-0.2,0.2-0.2c0,0,0.1-0.1,0.1-0.1c0,0,0,0,0,0
		c0.1-0.1,0.1-0.1,0.2-0.1c0.3-0.2,0.6-0.3,0.8-0.5c5.6-3,11.6-2.9,17.9-1.3l24.5,5l7.3,4.2l65,37.5c0.1,0,0.2,0.1,0.2,0.1l0,0
		c0.1,0.1,0.2,0.1,0.3,0.2c2.2,1.3,0.9,3.2-0.1,4.4l4.8-4.7C129.9,129,129.9,128.9,130,128.9z"/>
	<g>
		<path class="st2" d="M25.9,51.6l-0.2,0.1C25.8,51.6,25.9,51.6,25.9,51.6z"/>
		<path class="st2" d="M43.4,82.9L32,80.6c0,0,0,0,0,0C31.9,80,30.1,70.2,39.5,55C49.3,39.4,58,36.8,58,36.8c0,0-0.1,0.1-0.1,0.1
			c0,0,0.1,0,0.1,0c5.4,0.1,12,0.1,17,0.7c1,0.1,1.4,1.4,0.7,2.1C64,51.7,57.5,63.9,53.7,79.9C52.4,85.1,48.7,83.9,43.4,82.9z"/>
		<polygon class="st3" points="116.8,141.8 113.1,145.3 111.3,144.3 115,140.7 		"/>
		<polygon class="st4" points="113.8,144.8 8.8,84.1 7.9,85.7 112.4,146 		"/>
		<ellipse transform="matrix(0.5 -0.866 0.866 0.5 -70.4942 67.5556)" class="st4" cx="23.3" cy="94.8" rx="4.4" ry="10.5"/>
		<ellipse transform="matrix(0.5 -0.866 0.866 0.5 -70.4942 67.5556)" class="st2" cx="23.3" cy="94.8" rx="2" ry="4.8"/>
		<ellipse transform="matrix(0.5 -0.866 0.866 0.5 -70.4942 145.0556)" class="st4" cx="90.4" cy="133.6" rx="4.4" ry="10.5"/>
		<ellipse transform="matrix(0.5 -0.866 0.866 0.5 -70.4942 145.0556)" class="st2" cx="90.4" cy="133.6" rx="2" ry="4.8"/>
		
			<linearGradient id="SVGID_00000039849814659386251780000007180592837538609550_" gradientUnits="userSpaceOnUse" x1="562.7219" y1="250.5388" x2="562.7219" y2="242.2865" gradientTransform="matrix(0.866 0.5 -0.5 0.866 -275.1455 -376.2927)">
			<stop  offset="0.3111" style="stop-color:#000000"/>
			<stop  offset="1" style="stop-color:#37475E"/>
		</linearGradient>
		<path style="fill:url(#SVGID_00000039849814659386251780000007180592837538609550_);" d="M59.4,98.6l-2,3.6
			c-0.7,1.1-0.4,2.5,0.6,3.1l56.4,32.6c1,0.6,1.8,0.6,3.2-0.6l3.3-3.2c1.2-1.4,0.4-2.5-0.6-3.1L62.4,97.6
			C61.4,97,60.1,97.5,59.4,98.6z"/>
		<path class="st2" d="M152.8,79.6L79.3,37.1l-19.5-0.8l-24,1.4c0,0,0,0,0,0c-0.2,0.2-0.4,0.4-0.6,0.6c0,0-0.1,0.1-0.1,0.1
			c-4.2,4.6-7.8,9.1-10.8,13.6l0.1,0l1.4-0.4c0.1-0.1,0.1-0.1,0.2-0.1l-0.2,0.1c-1.3,0.9-7.3,12.1-7.9,15.9l-1.7-1.3
			c-3,6.4-5,12.2-6.4,17.2c5.6-3,11.6-2.9,17.9-1.3l24.5,5l72.3,41.8c0.1,0,0.2,0.1,0.2,0.1l0,0c0.1,0.1,0.2,0.1,0.3,0.2
			c2.2,1.3,0.9,3.2-0.1,4.4l4.8-4.7c0.1,0,0.1-0.1,0.2-0.1c0.7-0.4,1.3-1.1,1.8-1.9l23.1-40C156.3,84.4,155.4,81.1,152.8,79.6z
			 M43.4,82.9L32,80.6c0,0,0,0,0,0C31.9,80,30.1,70.2,39.5,55C49.3,39.4,58,36.8,58,36.8c0,0-0.1,0.1-0.1,0.1c0,0,0.1,0,0.1,0
			c5.4,0.1,12,0.1,17,0.7c1,0.1,1.4,1.4,0.7,2.1C64,51.7,57.5,63.9,53.7,79.9C52.4,85.1,48.7,83.9,43.4,82.9z"/>
		
			<linearGradient id="SVGID_00000069394226429009220030000004515822636061288834_" gradientUnits="userSpaceOnUse" x1="505.7397" y1="-379.3883" x2="493.9589" y2="-379.0549" gradientTransform="matrix(0.866 0.5 -0.5 0.866 -571.1456 136.3943)">
			<stop  offset="0.3111" style="stop-color:#000000"/>
			<stop  offset="1" style="stop-color:#37475E"/>
		</linearGradient>
		<path style="fill:url(#SVGID_00000069394226429009220030000004515822636061288834_);" d="M43.4,82.9L32,80.6c0,0,0,0,0,0
			C30.1,62.1,49.5,39.5,57.9,37c0,0,0.1,0,0.1,0c5.4,0.1,12,0.1,17,0.7c1,0.1,1.4,1.4,0.7,2.1C64,51.7,57.5,63.9,53.7,79.9
			C52.4,85.1,48.7,83.9,43.4,82.9z"/>
		
			<linearGradient id="SVGID_00000034074132974570012980000006727734063530276792_" gradientUnits="userSpaceOnUse" x1="505.485" y1="250.3699" x2="505.485" y2="242.6803" gradientTransform="matrix(0.866 0.5 -0.5 0.866 -275.1455 -376.2927)">
			<stop  offset="0.3111" style="stop-color:#000000"/>
			<stop  offset="1" style="stop-color:#37475E"/>
		</linearGradient>
		<path style="fill:url(#SVGID_00000034074132974570012980000006727734063530276792_);" d="M48.4,91.9l-2.5,4.4
			c-0.5,0.8-1.4,1-2.2,0.6l-12.5-7.2c-0.8-0.5-1-1.4-0.6-2.2l0.2-0.3c0.3-0.6,1-0.9,1.7-0.7l15,3.1C48.4,89.7,48.9,90.9,48.4,91.9z"
			/>
		<path d="M57.9,37C42.1,50,35.7,65,32,80.6c0,0,0,0,0,0C31.9,80,30.1,70.2,39.5,55C49.3,39.4,58,36.8,58,36.8
			C58,36.9,57.9,36.9,57.9,37z"/>
		<path d="M9.5,84.4l-0.2,0.1l-0.8,0.6l-0.3,0.3l-0.4,0.3c7.3-31.3,27.1-47.3,27.9-47.9c-0.2,0.2-0.4,0.4-0.6,0.6
			c0,0-0.1,0.1-0.1,0.1c-4.2,4.6-7.8,9.1-10.8,13.6c-3.3,4.9-6,9.7-8.1,14.2c-3,6.4-5,12.2-6.4,17.2C9.7,83.8,9.6,84.1,9.5,84.4z"/>
		<path d="M25.9,51.6l-0.2,0.1C25.8,51.6,25.9,51.6,25.9,51.6z"/>
		<path d="M17.9,67.6l-1.7-1.3l-0.3-0.2L15.8,66l7.9-13.8l0.2-0.1l0.4-0.1l0.1,0l1.4-0.4C24.5,52.6,18.4,63.8,17.9,67.6z"/>
		<path class="st9" d="M124.1,134.6L124.1,134.6C124.1,134.5,124.1,134.6,124.1,134.6C124.1,134.6,124.1,134.6,124.1,134.6z"/>
		<path class="st9" d="M124.9,133.7c0,0-0.1,0.1-0.1,0.1c-0.1,0.1-0.2,0.2-0.3,0.3l-0.2,0.2c-0.1,0.1-0.1,0.1-0.2,0.2c0,0,0,0-0.1,0
			L124.9,133.7z"/>
	</g>
</g>
</svg>
