<?xml version="1.0" encoding="utf-8"?>
<!-- Generator: Adobe Illustrator 25.4.1, SVG Export Plug-In . SVG Version: 6.00 Build 0)  -->
<svg version="1.1" id="Layer_1" xmlns="http://www.w3.org/2000/svg" xmlns:xlink="http://www.w3.org/1999/xlink" x="0px" y="0px"
	 viewBox="0 0 168 168" style="enable-background:new 0 0 168 168;" xml:space="preserve">
<style type="text/css">
	.st0{opacity:0.2;fill:#151110;enable-background:new    ;}
	.st1{fill:url(#SVGID_1_);}
	.st2{fill:#FFFFFF;}
	.st3{fill:#C00D0D;}
	.st4{fill:#151110;}
	.st5{fill:url(#SVGID_00000073712837998573892450000006281740105057654186_);}
	.st6{fill:url(#SVGID_00000047746292753373470850000001920969042741980330_);}
	.st7{fill:none;stroke:#A03394;stroke-width:9;stroke-miterlimit:10;}
	.st8{fill:url(#SVGID_00000001629401362190117670000003739089526546601876_);}
	.st9{fill:#F0F0F0;}
	.st10{fill:url(#SVGID_00000148646883862979125310000000803340603002605472_);}
	.st11{fill:url(#SVGID_00000156554343246512550570000005888039796148515746_);}
	.st12{fill:url(#SVGID_00000178903294196080282130000013129518991105013668_);}
	.st13{fill:url(#SVGID_00000072958756023798084260000008417728931547131838_);}
	.st14{fill:url(#SVGID_00000183963605276193862810000015177502530006208927_);}
	.st15{fill:url(#SVGID_00000045585901893405446500000017434325522834908289_);}
	.st16{fill:url(#SVGID_00000150093362527504312940000008165951254551405440_);}
	.st17{fill:url(#SVGID_00000113325076762592699750000014018167555237795733_);}
	.st18{fill:url(#SVGID_00000108309609958118203520000000380814695554912927_);}
	.st19{fill:url(#SVGID_00000170988182644326293720000009649632125443315616_);}
	.st20{fill:url(#SVGID_00000107583798305799718030000006949967240832777349_);}
	.st21{fill:url(#SVGID_00000168838228497326478740000009602391080202384776_);}
	.st22{fill:url(#SVGID_00000165234323428241376660000007966612454520811927_);}
	.st23{fill:url(#SVGID_00000116929389702289503060000013553842420955211952_);}
	.st24{fill:url(#SVGID_00000158026845937068088190000006818658307578334618_);}
	.st25{fill:url(#SVGID_00000117652705678088687670000012782966557207241899_);}
	.st26{fill:url(#SVGID_00000116226995061248620480000008990306709637521341_);}
	.st27{fill:url(#SVGID_00000054263724790168975030000005107473457987716488_);}
	.st28{fill:url(#SVGID_00000114789930849961369200000007107730033208150450_);}
	.st29{fill:url(#SVGID_00000019638962871701938060000013208524715493506483_);}
	.st30{fill:url(#SVGID_00000056410943121496840980000014321799086458446768_);}
	.st31{fill:url(#SVGID_00000015352466183441674530000014926916886213181119_);}
	.st32{fill:url(#SVGID_00000021119953189794555460000009566204225642592651_);}
	.st33{fill:url(#SVGID_00000012457588280857991840000016380982243496230532_);}
	.st34{fill:url(#SVGID_00000157310380536871442290000003180129419877751218_);}
	.st35{fill:url(#SVGID_00000008830334766563447010000015479948843854066305_);}
	.st36{fill:url(#SVGID_00000178189543386581639990000000101711242279852446_);}
	.st37{fill:url(#SVGID_00000067955535999158001360000008609586903976368318_);}
	.st38{fill:url(#SVGID_00000140006739522725662680000011750729965601177527_);}
	.st39{fill:url(#SVGID_00000038383061586675562700000008887078958321364653_);}
	.st40{fill:url(#SVGID_00000070827908608537424120000012120891818017463468_);}
	.st41{fill:url(#SVGID_00000070823420737212692610000005946123281861851806_);}
	.st42{fill:url(#SVGID_00000182516197432385473790000001527699352266877593_);}
	.st43{fill:url(#SVGID_00000132055619756864142420000007265797825102439103_);}
	.st44{fill:url(#SVGID_00000117659358500909900070000009433451773300196236_);}
	.st45{fill:url(#SVGID_00000060023364030806274870000005162990750283904910_);}
	.st46{fill:url(#SVGID_00000013914840718598267630000008579176057247775394_);}
	.st47{fill:url(#SVGID_00000173162735530758208610000014561500061826401444_);}
	.st48{fill:url(#SVGID_00000094605131000397043340000010219361944432176316_);}
	.st49{fill:url(#SVGID_00000085957026636844308170000007430846382795654024_);}
	.st50{fill:url(#SVGID_00000034069193565609763380000004529607518655864767_);}
	.st51{fill:url(#SVGID_00000081633358244028891960000012606338307093787052_);}
	.st52{fill:url(#SVGID_00000054244042670928405840000014182113654321353092_);}
	.st53{fill:url(#SVGID_00000016050593657897467380000002071208456582141360_);}
	.st54{fill:url(#SVGID_00000029763786958828078730000016457493865506132147_);}
	.st55{fill:url(#SVGID_00000088128933359135779150000001266438128955574408_);}
	.st56{fill:url(#SVGID_00000026135460209984132510000007635608832763518137_);}
	.st57{fill:url(#SVGID_00000052066280379827163400000013129766452681558203_);}
	.st58{fill:url(#SVGID_00000135649873299889368360000003168666595975530626_);}
	.st59{fill:url(#SVGID_00000003804000840753240390000005126826839432412351_);}
	.st60{fill:url(#SVGID_00000029758848080059036400000005569915170393688469_);}
	.st61{fill:url(#SVGID_00000115502310901010039790000005519919836625350797_);}
	.st62{fill:url(#SVGID_00000075128908224894075970000013007495460861905335_);}
	.st63{fill:url(#SVGID_00000163069746901116846110000000395477278728272575_);}
	.st64{fill:url(#SVGID_00000033351937059704094600000015789982200139181232_);}
	.st65{fill:url(#SVGID_00000013913526381311350300000014479250812364022146_);}
	.st66{fill:url(#SVGID_00000137850174160091376220000009755749051377037999_);}
	.st67{fill:url(#SVGID_00000052083737790171509900000007271332392309067420_);}
	.st68{fill:url(#SVGID_00000090285209372869604270000004072199982326291074_);}
	.st69{fill:url(#SVGID_00000050625179290421905700000001730244293468804485_);}
	.st70{fill:url(#SVGID_00000153676387932524944250000009519467428583324862_);}
	.st71{fill:url(#SVGID_00000099637740510677201510000015416762776567852734_);}
	.st72{fill:url(#SVGID_00000090296930784996541600000000418178984363307695_);}
	.st73{fill:url(#SVGID_00000132046262865946318540000012110696521562558373_);}
	.st74{fill:url(#SVGID_00000006700446666059567400000000084210646703288200_);}
	.st75{fill:url(#SVGID_00000011737089123062081080000007020498168395728301_);}
	.st76{fill:url(#SVGID_00000117665208119446966000000013646657635805505954_);}
	.st77{fill:url(#SVGID_00000036250770145163476710000007032673097341900460_);}
	.st78{fill:url(#SVGID_00000121967228270971917960000015007745754914332859_);}
	.st79{fill:url(#SVGID_00000137837229327843004750000002645398209050941100_);}
	.st80{fill:url(#SVGID_00000043449564890091256500000012497165051925721474_);}
	.st81{fill:url(#SVGID_00000034795454124996211380000004996182226092250003_);}
	.st82{fill:url(#SVGID_00000181077079646815482240000003468973351892650412_);}
	.st83{fill:url(#SVGID_00000104676647189011284460000009508397068705862537_);}
	.st84{fill:url(#SVGID_00000062175861828408498540000001211477379799250107_);}
	.st85{fill:url(#SVGID_00000101811953780781572830000005865021855829473156_);}
	.st86{fill:url(#SVGID_00000055671053468437133900000011679118880283904417_);}
	.st87{fill:url(#SVGID_00000048478975997143218260000017052012572516320665_);}
	.st88{fill:url(#SVGID_00000121242364303521960520000010958541314199611293_);}
	.st89{fill:url(#SVGID_00000093149061790446975640000004582861565804153781_);}
	.st90{fill:url(#SVGID_00000168115299636884210690000003101803337806873996_);}
	.st91{fill:url(#SVGID_00000178906847200574457250000005339918823490952606_);}
	.st92{fill:url(#SVGID_00000000203445824111082570000005258462537802606268_);}
	.st93{fill:url(#SVGID_00000130642005858788359680000013792077434252008335_);}
	.st94{fill:url(#SVGID_00000101072896353469164210000000696836207272139155_);}
	.st95{fill:url(#SVGID_00000160889452088383794140000005256364977617366152_);}
	.st96{fill:url(#SVGID_00000114043813690074501310000016278839241315595707_);}
	.st97{fill:url(#SVGID_00000021821826764434529500000010420513124673298066_);}
	.st98{fill:url(#SVGID_00000167389824015329765380000010383290517159501970_);}
	.st99{fill:url(#SVGID_00000036972832443905963910000015930011376733994382_);}
	.st100{fill:url(#SVGID_00000090279079371873799930000012921146507562583964_);}
	.st101{fill:url(#SVGID_00000158023760439741412180000000253915089467364525_);}
	.st102{fill:url(#SVGID_00000005952425397941372460000017419984908256982945_);}
	.st103{fill:url(#SVGID_00000127739433284544746610000013385379661365952143_);}
	.st104{fill:url(#SVGID_00000099636546271339148050000009594860435692965049_);}
	.st105{fill:url(#SVGID_00000163053017197765432580000018320913246412965527_);}
	.st106{fill:url(#SVGID_00000031171857411059166820000008278552088842898591_);}
	.st107{fill:url(#SVGID_00000078026398478429072870000010196858840022910873_);}
	.st108{fill:url(#SVGID_00000129894434092550115170000007637250496232201641_);}
	.st109{fill:url(#SVGID_00000029033372250868466450000012383500089455482754_);}
	.st110{fill:url(#SVGID_00000063633069101251924340000014052508194821568177_);}
	.st111{fill:url(#SVGID_00000034070879791982584750000016626823321815959937_);}
	.st112{fill:url(#SVGID_00000080901713890976523830000000621286807664263581_);}
	.st113{fill:url(#SVGID_00000082344900495044529610000002443850218154000310_);}
	.st114{fill:url(#SVGID_00000036944094955814754340000016898857818651948976_);}
	.st115{fill:url(#SVGID_00000179614595649523984760000002490889591021895313_);}
	.st116{fill:url(#SVGID_00000089554639862593555550000017836295690853514119_);}
	.st117{fill:url(#SVGID_00000161630043874786148440000003997258161756689305_);}
	.st118{fill:url(#SVGID_00000001636213919464799410000005573024657519231902_);}
	.st119{fill:url(#SVGID_00000103237300031901511960000007096126297587929473_);}
	.st120{fill:url(#SVGID_00000159466477391455590420000017672418567045327012_);}
	.st121{fill:url(#SVGID_00000029035468294399779040000016545538265734993792_);}
	.st122{fill:url(#SVGID_00000138543484275768409240000002281332754738233729_);}
	.st123{fill:url(#SVGID_00000173882622007803446810000008894939177842214031_);}
	.st124{fill:url(#SVGID_00000049204656634007278310000008720217883419490211_);}
	.st125{fill:url(#SVGID_00000026150086631964381320000005184581847725489084_);}
	.st126{fill:url(#SVGID_00000114060722293891981380000007400433011945944963_);}
	.st127{fill:url(#SVGID_00000066509020826285390010000006000968408528755345_);}
	.st128{fill:url(#SVGID_00000085959645647581770980000015093608126955704489_);}
	.st129{fill:url(#SVGID_00000145772675823986551640000014348862644087976070_);}
	.st130{fill:url(#SVGID_00000176027477361267310670000016680045576097407895_);}
	.st131{fill:url(#SVGID_00000159453470425250738760000005215915100012938675_);}
	.st132{fill:url(#SVGID_00000137113507237087543830000000873261716960418185_);}
	.st133{fill:url(#SVGID_00000149383628379675912880000014138256581471928759_);}
	.st134{fill:url(#SVGID_00000017506700184505403080000013090186710416502656_);}
	.st135{fill:url(#SVGID_00000062888648910596494770000015956595389275666106_);}
	.st136{fill:url(#SVGID_00000124144058819165149460000004323810178487646100_);}
	.st137{fill:url(#SVGID_00000163054125868566998520000017154966273505374360_);}
	.st138{fill:url(#SVGID_00000112611876322348590030000013588991758715326102_);}
	.st139{fill:url(#SVGID_00000051361741256156007140000013535681337127712391_);}
	.st140{fill:url(#SVGID_00000110465275907677467810000006176103148051204754_);}
	.st141{fill:url(#SVGID_00000010290435669965527960000012820008673331917739_);}
	.st142{fill:url(#SVGID_00000136381479530589061830000008863074537281216161_);}
	.st143{fill:url(#SVGID_00000180346241428043473530000001763321199016802972_);}
	.st144{fill:url(#SVGID_00000078761135511347103250000002447431156427626161_);}
	.st145{fill:url(#SVGID_00000004541139877837486230000014169700912096043931_);}
	.st146{fill:url(#SVGID_00000151512090129766973630000005276484530450113435_);}
	.st147{fill:url(#SVGID_00000160878425538887716150000017897890604398022819_);}
	.st148{fill:url(#SVGID_00000013899969713337660430000014377930675209538196_);}
	.st149{fill:url(#SVGID_00000183225384324765699220000009213419980285417088_);}
</style>
<g>
	<path class="st0" d="M119.4,139.6c-0.3,0.4-0.7,0.7-1.1,1l0,0L97,155.1l-9.4-6.3L5.5,78.4c-0.2-0.1-0.3-0.3-0.3-0.4l-0.6-0.5
		l-0.1,0.1C17.3,47.3,40.3,35,40.3,35c-0.3,0.2-0.5,0.4-0.7,0.6c0.3-0.2,0.5-0.4,0.7-0.6l23.9,2.8L83.3,42l5.1,4.3l2,1.7l58,48.7
		c2.3,1.9,2.6,5.3,0.7,7.6L119.4,139.6L119.4,139.6z"/>
	
		<linearGradient id="SVGID_1_" gradientUnits="userSpaceOnUse" x1="539.6312" y1="-332.8161" x2="539.9095" y2="-367.8894" gradientTransform="matrix(0.766 0.6428 -0.6428 0.766 -568.679 22.8141)">
		<stop  offset="0" style="stop-color:#5C5C5C"/>
		<stop  offset="0.1042" style="stop-color:#979797"/>
	</linearGradient>
	<path class="st1" d="M123.1,137.2l-5.9,4c-0.1,0.1-0.2,0.2-0.3,0.2l-0.2,0.2c-0.1,0.1-0.1,0.1-0.2,0.1l-0.1,0.1l-8.5,5.8l-3.5,2.4
		l-0.7,0.5l-0.8,0.5l-9.4-6.3l-2.7-2.3l-4.5-3.8c0,0,0,0,0,0l-6.7-5.8l-4.5-3.8l-43-36.8l-4.3-3.7L20.3,82L16,78.2l-4.7-4l0,0
		c-0.3-0.3-0.5-0.6-0.4-1c0-0.1,0-0.3,0.1-0.4c0.1-0.1,0.1-0.3,0.2-0.4c0.1-0.1,0.1-0.1,0.2-0.2c0,0,0.1-0.1,0.1-0.1c0,0,0,0,0,0
		c0.1,0,0.1-0.1,0.2-0.1c0.3-0.1,0.6-0.2,0.9-0.3c6-2,11.9-0.8,17.8,1.8l23.2,9.2l6.5,5.5l57.5,48.2c0.1,0.1,0.1,0.1,0.2,0.2l0,0
		c0.1,0.1,0.2,0.2,0.3,0.3c1.9,1.6,0.4,3.4-0.8,4.3l5.6-3.8C123,137.2,123,137.2,123.1,137.2z"/>
	<g>
		<path class="st2" d="M34.1,43l-0.2,0C34,42.9,34,42.9,34.1,43z"/>
		<path class="st2" d="M45.8,76.9L35,72.6c0,0,0,0,0,0C35,72,34.9,62,46.9,48.7C59.1,35,68.2,34,68.2,34c-0.1,0-0.1,0.1-0.2,0.1
			c0,0,0.1,0,0.1,0c5.3,1,11.8,2.2,16.6,3.7c0.9,0.3,1.1,1.6,0.3,2.2C71.5,49.7,63,60.6,56.5,75.7C54.3,80.6,50.9,78.8,45.8,76.9z"
			/>
		<polygon class="st3" points="107.9,147.6 103.7,150.4 102.1,149.1 106.3,146.2 		"/>
		<polygon class="st4" points="104.4,150 11.5,72.1 10.3,73.4 102.9,150.9 		"/>
		<ellipse transform="matrix(0.6428 -0.766 0.766 0.6428 -56.6456 48.715)" class="st4" cx="23.9" cy="85.1" rx="4.4" ry="10.5"/>
		<ellipse transform="matrix(0.6428 -0.766 0.766 0.6428 -56.6456 48.715)" class="st2" cx="23.9" cy="85.1" rx="2" ry="4.8"/>
		
			<ellipse transform="matrix(0.6428 -0.766 0.766 0.6428 -73.5997 111.9888)" class="st4" cx="83.3" cy="134.9" rx="4.4" ry="10.5"/>
		<ellipse transform="matrix(0.6428 -0.766 0.766 0.6428 -73.5997 111.9888)" class="st2" cx="83.3" cy="134.9" rx="2" ry="4.8"/>
		
			<linearGradient id="SVGID_00000091734444755798900930000012671731559791302039_" gradientUnits="userSpaceOnUse" x1="562.7219" y1="250.5388" x2="562.7219" y2="242.2865" gradientTransform="matrix(0.766 0.6428 -0.6428 0.766 -188.1487 -430.6842)">
			<stop  offset="0.3111" style="stop-color:#000000"/>
			<stop  offset="1" style="stop-color:#37475E"/>
		</linearGradient>
		<path style="fill:url(#SVGID_00000091734444755798900930000012671731559791302039_);" d="M58.9,95.1l-2.6,3.1
			c-0.8,1-0.9,2.4,0.1,3.2l49.9,41.8c0.9,0.8,1.7,0.9,3.3,0l3.8-2.5c1.5-1.1,0.9-2.4-0.1-3.2L62,94.6C61.1,93.8,59.7,94.1,58.9,95.1
			z"/>
		<path class="st2" d="M154.2,92.6L89.1,38L70,33.9L46.2,31c0,0,0,0,0,0c-0.2,0.2-0.4,0.4-0.7,0.5c0,0-0.1,0-0.1,0.1
			c-4.9,3.8-9.2,7.7-13,11.5l0.1,0l1.4-0.2c0.1,0,0.2-0.1,0.2,0l-0.2,0c-1.4,0.7-9.3,10.7-10.6,14.3l-1.4-1.5
			c-4.1,5.7-7.1,11.2-9.3,15.9c6-2,11.9-0.8,17.8,1.8l23.2,9.2l64,53.7c0.1,0.1,0.1,0.1,0.2,0.2l0,0c0.1,0.1,0.2,0.2,0.3,0.3
			c1.9,1.6,0.4,3.4-0.8,4.3l5.6-3.8c0.1,0,0.2,0,0.2-0.1c0.8-0.3,1.5-0.8,2.1-1.5l29.7-35.4C156.7,98,156.5,94.5,154.2,92.6z
			 M45.8,76.9L35,72.6c0,0,0,0,0,0C35,72,34.9,62,46.9,48.7C59.1,35,68.2,34,68.2,34c-0.1,0-0.1,0.1-0.2,0.1c0,0,0.1,0,0.1,0
			c5.3,1,11.8,2.2,16.6,3.7c0.9,0.3,1.1,1.6,0.3,2.2C71.5,49.7,63,60.6,56.5,75.7C54.3,80.6,50.9,78.8,45.8,76.9z"/>
		
			<linearGradient id="SVGID_00000067220461735890886630000001493114104867699639_" gradientUnits="userSpaceOnUse" x1="505.7397" y1="-379.3883" x2="493.9589" y2="-379.0549" gradientTransform="matrix(0.766 0.6428 -0.6428 0.766 -568.679 22.8141)">
			<stop  offset="0.3111" style="stop-color:#000000"/>
			<stop  offset="1" style="stop-color:#37475E"/>
		</linearGradient>
		<path style="fill:url(#SVGID_00000067220461735890886630000001493114104867699639_);" d="M45.8,76.9L35,72.6c0,0,0,0,0,0
			c1.3-18.6,24.4-37.5,33-38.5c0,0,0.1,0,0.1,0c5.3,1,11.8,2.2,16.6,3.7c0.9,0.3,1.1,1.6,0.3,2.2C71.5,49.7,63,60.6,56.5,75.7
			C54.3,80.6,50.9,78.8,45.8,76.9z"/>
		
			<linearGradient id="SVGID_00000074432167861756681760000014717603103602584734_" gradientUnits="userSpaceOnUse" x1="505.485" y1="250.3699" x2="505.485" y2="242.6803" gradientTransform="matrix(0.766 0.6428 -0.6428 0.766 -188.1487 -430.6842)">
			<stop  offset="0.3111" style="stop-color:#000000"/>
			<stop  offset="1" style="stop-color:#37475E"/>
		</linearGradient>
		<path style="fill:url(#SVGID_00000074432167861756681760000014717603103602584734_);" d="M49.2,86.6l-3.3,3.9
			c-0.6,0.7-1.6,0.8-2.3,0.2l-11-9.3c-0.7-0.6-0.8-1.6-0.2-2.3l0.2-0.2c0.4-0.5,1.1-0.7,1.8-0.4l14.2,5.6
			C49.5,84.4,49.9,85.7,49.2,86.6z"/>
		<path d="M68.1,34.1C50.2,44.3,41.3,57.9,35,72.6c0,0,0,0,0,0C35,72,34.9,62,46.9,48.7C59.1,35,68.2,34,68.2,34
			C68.2,34.1,68.1,34.1,68.1,34.1z"/>
		<path d="M12.2,72.4L12,72.5L11.2,73l-0.4,0.2l-0.5,0.3C23,43.9,45.2,31.6,46.1,31.1c-0.2,0.2-0.5,0.3-0.7,0.5c0,0-0.1,0-0.1,0.1
			c-4.9,3.8-9.2,7.7-13,11.5c-4.1,4.3-7.6,8.5-10.5,12.6c-4.1,5.7-7.1,11.2-9.3,15.9C12.5,71.9,12.3,72.2,12.2,72.4z"/>
		<path d="M34.1,43l-0.2,0C34,42.9,34,42.9,34.1,43z"/>
		<path d="M23.3,57.3l-1.4-1.5l-0.3-0.3l-0.1-0.1l10.2-12.2l0.2,0l0.4,0l0.1,0l1.4-0.2C32.5,43.7,24.5,53.7,23.3,57.3z"/>
		<path class="st9" d="M116.3,141.7L116.3,141.7C116.4,141.7,116.3,141.7,116.3,141.7C116.3,141.7,116.3,141.7,116.3,141.7z"/>
		<path class="st9" d="M117.3,141.1c0,0-0.1,0.1-0.1,0.1c-0.1,0.1-0.2,0.2-0.3,0.2l-0.2,0.2c-0.1,0.1-0.1,0.1-0.2,0.1c0,0,0,0-0.1,0
			L117.3,141.1z"/>
	</g>
</g>
</svg>
