<?xml version="1.0" encoding="utf-8"?>
<!-- Generator: Adobe Illustrator 25.4.1, SVG Export Plug-In . SVG Version: 6.00 Build 0)  -->
<svg version="1.1" id="Layer_1" xmlns="http://www.w3.org/2000/svg" xmlns:xlink="http://www.w3.org/1999/xlink" x="0px" y="0px"
	 viewBox="0 0 168 168" style="enable-background:new 0 0 168 168;" xml:space="preserve">
<style type="text/css">
	.st0{opacity:0.2;fill:#151110;enable-background:new    ;}
	.st1{fill:url(#SVGID_1_);}
	.st2{fill:#FFFFFF;}
	.st3{fill:#C00D0D;}
	.st4{fill:#151110;}
	.st5{fill:url(#SVGID_00000044163272142187730120000014876577279019432610_);}
	.st6{fill:url(#SVGID_00000118372358128071786330000014898466327068950458_);}
	.st7{fill:none;stroke:#A03394;stroke-width:9;stroke-miterlimit:10;}
	.st8{fill:url(#SVGID_00000021083894792686973360000014319935933150116501_);}
	.st9{fill:#F0F0F0;}
	.st10{fill:url(#SVGID_00000155128845326146763110000006377402831241863835_);}
	.st11{fill:url(#SVGID_00000136412615471326478940000012902577571456993190_);}
	.st12{fill:url(#SVGID_00000000924754782255415520000014202866003842304133_);}
	.st13{fill:url(#SVGID_00000060721092332213927050000012183674256307611275_);}
	.st14{fill:url(#SVGID_00000177470395183994888090000004984906004226009472_);}
	.st15{fill:url(#SVGID_00000128454945225378894420000013802565070633161398_);}
	.st16{fill:url(#SVGID_00000169549105528273386520000003314907310550174351_);}
	.st17{fill:url(#SVGID_00000030469789934524412590000010342647243499945604_);}
	.st18{fill:url(#SVGID_00000163060929481566723190000016576962248129963183_);}
	.st19{fill:url(#SVGID_00000097475933469577296410000006525277766347534227_);}
	.st20{fill:url(#SVGID_00000034091098953130135190000013259219947512864410_);}
	.st21{fill:url(#SVGID_00000026864516131314821320000014235642836852937903_);}
	.st22{fill:url(#SVGID_00000021820364300837098360000016030201650750315182_);}
	.st23{fill:url(#SVGID_00000153665239641953727850000006616940067387842699_);}
	.st24{fill:url(#SVGID_00000067221556550435270860000012828631092761027257_);}
	.st25{fill:url(#SVGID_00000072264549692248419560000005588457652125458356_);}
	.st26{fill:url(#SVGID_00000111173346546682064520000014590594171334691216_);}
	.st27{fill:url(#SVGID_00000018956989001711555350000001782258374011536266_);}
	.st28{fill:url(#SVGID_00000005237716768428660200000012065638143765750698_);}
	.st29{fill:url(#SVGID_00000076567954995257667660000001283200409203518340_);}
	.st30{fill:url(#SVGID_00000075131638743088029840000008988551637435900852_);}
	.st31{fill:url(#SVGID_00000069356004543011608230000004517330051059424387_);}
	.st32{fill:url(#SVGID_00000103256272554842643650000016787379970639803061_);}
	.st33{fill:url(#SVGID_00000116951216549162359710000005668083123865091514_);}
	.st34{fill:url(#SVGID_00000173871287063612678380000001257194906721801136_);}
	.st35{fill:url(#SVGID_00000143593233776670047610000003129033656552678571_);}
	.st36{fill:url(#SVGID_00000014631200200119685450000005153903920491980708_);}
	.st37{fill:url(#SVGID_00000084512051735236378000000001994781299261308313_);}
	.st38{fill:url(#SVGID_00000052819858824514967370000008948626508807359667_);}
	.st39{fill:url(#SVGID_00000057115315761646451030000002614208604906492587_);}
	.st40{fill:url(#SVGID_00000029751468858747071250000012341016330324873092_);}
	.st41{fill:url(#SVGID_00000029016412911886668130000010180311989760361356_);}
	.st42{fill:url(#SVGID_00000011730381752742798760000015577971065613485192_);}
	.st43{fill:url(#SVGID_00000009571502273086087670000014080546604088013454_);}
	.st44{fill:url(#SVGID_00000157286117269884832220000002751255528528908976_);}
	.st45{fill:url(#SVGID_00000166658956984054049110000016654614196312525494_);}
	.st46{fill:url(#SVGID_00000150090696302407048740000007232184868576444558_);}
	.st47{fill:url(#SVGID_00000165912722833794863970000009383857100467625644_);}
	.st48{fill:url(#SVGID_00000117651603076399963470000010042309864066281097_);}
	.st49{fill:url(#SVGID_00000107551713139870460530000006577426657365280183_);}
	.st50{fill:url(#SVGID_00000169519831650533368280000016406142701681611151_);}
	.st51{fill:url(#SVGID_00000012438128556138154240000010056084767343111055_);}
	.st52{fill:url(#SVGID_00000103266791890179405470000009469383069841717936_);}
	.st53{fill:url(#SVGID_00000041288083915145001210000002882735928226343837_);}
	.st54{fill:url(#SVGID_00000029008216395679127410000016988745752141057205_);}
	.st55{fill:url(#SVGID_00000032645053428440723680000005930291023499473333_);}
	.st56{fill:url(#SVGID_00000065052086151570218740000002611699104498796163_);}
	.st57{fill:url(#SVGID_00000042012234334033544590000004168668428891701141_);}
	.st58{fill:url(#SVGID_00000059271002181858197750000013106512081162334377_);}
	.st59{fill:url(#SVGID_00000001646261733380396900000013203021227255321989_);}
	.st60{fill:url(#SVGID_00000025408064774124971910000015402523812532200617_);}
	.st61{fill:url(#SVGID_00000066513741168880735930000004928020134403028613_);}
	.st62{fill:url(#SVGID_00000100362702688156419190000001393300330328755336_);}
	.st63{fill:url(#SVGID_00000178202184688273288490000011555949731605697705_);}
	.st64{fill:url(#SVGID_00000141438242727004399140000005974783622755742391_);}
	.st65{fill:url(#SVGID_00000027584120050561831900000006435630901276889534_);}
	.st66{fill:url(#SVGID_00000152967434580771688160000011058486809111069627_);}
	.st67{fill:url(#SVGID_00000036950417346390483750000002343361222421865344_);}
	.st68{fill:url(#SVGID_00000101083739524778729170000003703422797023249084_);}
	.st69{fill:url(#SVGID_00000060024654114515526360000016020920105569140389_);}
	.st70{fill:url(#SVGID_00000002361154627058088010000012755196600070049414_);}
	.st71{fill:url(#SVGID_00000137848455007287619390000007847001369659717527_);}
	.st72{fill:url(#SVGID_00000033363748533873409480000012793250284663516057_);}
	.st73{fill:url(#SVGID_00000055699175391896780330000008427871616595076253_);}
	.st74{fill:url(#SVGID_00000129905610954692537210000006771920481218672826_);}
	.st75{fill:url(#SVGID_00000170268028308495838290000003184232075563347073_);}
	.st76{fill:url(#SVGID_00000039100201482834698970000007086701245309172396_);}
	.st77{fill:url(#SVGID_00000110439619860881196720000014435913892269144495_);}
	.st78{fill:url(#SVGID_00000052792666283157026810000011010374248453454242_);}
	.st79{fill:url(#SVGID_00000074416913472295122010000011766909975348395700_);}
	.st80{fill:url(#SVGID_00000110428947343166538580000002297477182817630369_);}
	.st81{fill:url(#SVGID_00000162353990349066662470000007152241703340201893_);}
	.st82{fill:url(#SVGID_00000005257894660514932310000002541050759258236327_);}
	.st83{fill:url(#SVGID_00000140734155705238059490000002524924041076188858_);}
	.st84{fill:url(#SVGID_00000077317344970060013300000004945656676797771432_);}
	.st85{fill:url(#SVGID_00000088093719123912722620000012305562269736888764_);}
	.st86{fill:url(#SVGID_00000140736393777867482180000002306784483945068983_);}
	.st87{fill:url(#SVGID_00000078751423379848278110000013881849740954871693_);}
	.st88{fill:url(#SVGID_00000181045605574279551230000000750638730058899107_);}
	.st89{fill:url(#SVGID_00000013913704115879465170000009408740591731894696_);}
	.st90{fill:url(#SVGID_00000018944734770443268260000000774206767047893636_);}
	.st91{fill:url(#SVGID_00000111173394469368710380000001861518473983772601_);}
	.st92{fill:url(#SVGID_00000076580592868841148210000014643368740357384093_);}
	.st93{fill:url(#SVGID_00000049179788876507805370000012263027548874693775_);}
	.st94{fill:url(#SVGID_00000005251808763970965910000006113467452944333189_);}
	.st95{fill:url(#SVGID_00000159467285166154231550000009097639106991083919_);}
	.st96{fill:url(#SVGID_00000172401843143993060020000002695936913750159010_);}
	.st97{fill:url(#SVGID_00000118386728936689257220000005024650240266639519_);}
	.st98{fill:url(#SVGID_00000078755191378179129640000007499195660342124178_);}
	.st99{fill:url(#SVGID_00000059276366157853961250000001130041357047094938_);}
	.st100{fill:url(#SVGID_00000164514486341620629550000002497373342639810198_);}
	.st101{fill:url(#SVGID_00000003826363239317404560000006996435331156659898_);}
	.st102{fill:url(#SVGID_00000170278687371601529820000003278444483898185092_);}
	.st103{fill:url(#SVGID_00000107556893787240345840000017552462842105025672_);}
	.st104{fill:url(#SVGID_00000153683947404510745560000008408145596623583927_);}
	.st105{fill:url(#SVGID_00000086684942195446852270000000025659899114513316_);}
	.st106{fill:url(#SVGID_00000034799979183758673000000010225639886304947132_);}
	.st107{fill:url(#SVGID_00000009584509011228359770000018315642936630141592_);}
	.st108{fill:url(#SVGID_00000177449047229484980390000015969246056558695333_);}
	.st109{fill:url(#SVGID_00000168833361617096375130000018255565418716360336_);}
	.st110{fill:url(#SVGID_00000028317158676770849140000017447277612275619727_);}
	.st111{fill:url(#SVGID_00000073720698695205616340000002634241324827746194_);}
	.st112{fill:url(#SVGID_00000122691723694116174460000015639652041353852347_);}
	.st113{fill:url(#SVGID_00000000217767864823486490000009008713243703908522_);}
	.st114{fill:url(#SVGID_00000054224727781648877220000013137258179939311778_);}
	.st115{fill:url(#SVGID_00000023271566169453126090000018016811794307200931_);}
	.st116{fill:url(#SVGID_00000118397994263999141370000000845546545618430876_);}
	.st117{fill:url(#SVGID_00000106132533387781657240000008605676797878013344_);}
	.st118{fill:url(#SVGID_00000072961263549341561210000012381634130160991927_);}
	.st119{fill:url(#SVGID_00000006685159338134932040000017521203178681410713_);}
	.st120{fill:url(#SVGID_00000069366834624117330040000007868599700719406740_);}
	.st121{fill:url(#SVGID_00000132075362307230198510000004168151317061117102_);}
	.st122{fill:url(#SVGID_00000150080228940856145310000012748658625714351502_);}
	.st123{fill:url(#SVGID_00000013911604275345643350000003507223835029334406_);}
	.st124{fill:url(#SVGID_00000005228133835159915580000013915079918314642584_);}
	.st125{fill:url(#SVGID_00000021827093871101260920000015239083670715820221_);}
	.st126{fill:url(#SVGID_00000035505092423572097690000012710992847679797656_);}
	.st127{fill:url(#SVGID_00000130642809485764078000000018405249240958316949_);}
	.st128{fill:url(#SVGID_00000016790411043515280140000013236529845090887842_);}
	.st129{fill:url(#SVGID_00000127747277540048118390000001035937685751747465_);}
	.st130{fill:url(#SVGID_00000159447606241705720930000011411492940792590476_);}
	.st131{fill:url(#SVGID_00000140000176109641602560000009470354878289779873_);}
	.st132{fill:url(#SVGID_00000025429278017751600500000000059307654264090756_);}
	.st133{fill:url(#SVGID_00000167385754137970748260000011933092873106812557_);}
	.st134{fill:url(#SVGID_00000134968057301438090220000009210843690885766545_);}
	.st135{fill:url(#SVGID_00000070101260813499535280000009127936878885979564_);}
	.st136{fill:url(#SVGID_00000112629244282533736300000001905151480386020540_);}
	.st137{fill:url(#SVGID_00000125598534832964514230000013707155824869263543_);}
	.st138{fill:url(#SVGID_00000106843051256437337030000005984855264334532278_);}
	.st139{fill:url(#SVGID_00000155839219207244906550000017053254225367733656_);}
	.st140{fill:url(#SVGID_00000047052280975072438740000003616732363252173205_);}
	.st141{fill:url(#SVGID_00000178916307972488567490000016940885354674268863_);}
	.st142{fill:url(#SVGID_00000007428541430268304710000017175089908029963185_);}
	.st143{fill:url(#SVGID_00000002355543123263516880000009258596464647894715_);}
	.st144{fill:url(#SVGID_00000075146551144933078470000015737001977844078722_);}
	.st145{fill:url(#SVGID_00000083785102828356005830000004464412158949900683_);}
	.st146{fill:url(#SVGID_00000003064598702265132080000017117503471615010971_);}
	.st147{fill:url(#SVGID_00000120532067852323454920000010900249582123808164_);}
	.st148{fill:url(#SVGID_00000039824858787180622240000009609154858526583470_);}
	.st149{fill:url(#SVGID_00000155133922679947261290000010842558904977424828_);}
</style>
<g>
	<path class="st0" d="M110.7,145.7c-0.4,0.3-0.8,0.6-1.3,0.8l0,0L86,157l-8.2-7.9L9.2,65.6c-0.1-0.2-0.3-0.3-0.2-0.4l-0.5-0.6
		l-0.1,0.1C26.2,37.1,51,29,51,29c-0.3,0.1-0.5,0.3-0.8,0.4c0.3-0.1,0.5-0.3,0.8-0.4l23,6.9l18.1,7.4l4.3,5.1l1.7,2l48.7,58
		c1.9,2.3,1.6,5.7-0.7,7.6L110.7,145.7L110.7,145.7z"/>
	
		<linearGradient id="SVGID_1_" gradientUnits="userSpaceOnUse" x1="539.6312" y1="-332.8161" x2="539.9095" y2="-367.8894" gradientTransform="matrix(0.6428 0.766 -0.766 0.6428 -546.621 -88.8142)">
		<stop  offset="0" style="stop-color:#5C5C5C"/>
		<stop  offset="0.1042" style="stop-color:#979797"/>
	</linearGradient>
	<path class="st1" d="M114.8,143.9l-6.5,2.9c-0.1,0.1-0.2,0.1-0.3,0.2l-0.3,0.1c-0.1,0-0.2,0.1-0.2,0.1l-0.1,0l-9.4,4.2l-3.9,1.7
		l-0.8,0.3l-0.9,0.4l-8.2-7.9l-2.3-2.8l-3.7-4.6c0,0,0,0,0,0l-5.6-6.9l-3.8-4.6l-36-43.7l-3.6-4.4l-6.1-7.4l-3.6-4.4l-3.9-4.8l0,0
		c-0.3-0.3-0.3-0.7-0.2-1.1c0-0.1,0.1-0.3,0.1-0.4c0.1-0.1,0.2-0.3,0.3-0.4c0.1-0.1,0.2-0.1,0.3-0.2c0,0,0.1,0,0.1-0.1c0,0,0,0,0,0
		c0.1,0,0.1-0.1,0.2-0.1c0.3-0.1,0.6-0.1,0.9-0.2c6.3-0.9,11.9,1.3,17.2,4.9l21.3,13.1l5.5,6.5l48.2,57.5c0.1,0.1,0.1,0.1,0.2,0.2
		l0,0c0.1,0.1,0.1,0.2,0.2,0.3c1.6,1.9-0.2,3.4-1.5,4.1l6.1-2.8C114.7,144,114.7,144,114.8,143.9z"/>
	<g>
		<path class="st2" d="M43.5,35.7l-0.2,0C43.4,35.7,43.4,35.7,43.5,35.7z"/>
		<path class="st2" d="M49.2,71.1l-9.9-6c0,0,0,0,0,0c0.1-0.6,1.7-10.4,15.8-21.4c14.5-11.4,23.6-10.8,23.6-10.8
			c-0.1,0-0.1,0-0.2,0.1c0,0,0.1,0,0.1,0c5,1.9,11.3,4.3,15.8,6.5c0.9,0.4,0.8,1.8-0.1,2.3c-15.1,7.2-25.4,16.4-34.4,30.2
			C56.9,76.3,53.8,73.9,49.2,71.1z"/>
		<polygon class="st3" points="98,151.6 93.3,153.6 92,152 96.6,149.9 		"/>
		<polygon class="st4" points="94.1,153.3 16.2,60.4 14.8,61.6 92.5,154 		"/>
		<ellipse transform="matrix(0.766 -0.6428 0.6428 0.766 -42.363 34.456)" class="st4" cx="26.2" cy="75.4" rx="4.4" ry="10.5"/>
		<ellipse transform="matrix(0.766 -0.6428 0.6428 0.766 -42.363 34.456)" class="st2" cx="26.2" cy="75.4" rx="2" ry="4.8"/>
		<ellipse transform="matrix(0.766 -0.6428 0.6428 0.766 -68.8696 80.3668)" class="st4" cx="76" cy="134.8" rx="4.4" ry="10.5"/>
		<ellipse transform="matrix(0.766 -0.6428 0.6428 0.766 -68.8696 80.3668)" class="st2" cx="76" cy="134.8" rx="2" ry="4.8"/>
		
			<linearGradient id="SVGID_00000017474810841156987730000013247436710209774237_" gradientUnits="userSpaceOnUse" x1="562.7219" y1="250.5388" x2="562.7219" y2="242.2865" gradientTransform="matrix(0.6428 0.766 -0.766 0.6428 -93.1227 -469.3445)">
			<stop  offset="0.3111" style="stop-color:#000000"/>
			<stop  offset="1" style="stop-color:#37475E"/>
		</linearGradient>
		<path style="fill:url(#SVGID_00000017474810841156987730000013247436710209774237_);" d="M58.8,91.3L55.7,94
			c-1,0.8-1.3,2.2-0.5,3.2L97,147c0.8,0.9,1.5,1.2,3.2,0.6l4.2-1.8c1.6-0.9,1.3-2.2,0.5-3.2L62,91.4C61.2,90.5,59.8,90.5,58.8,91.3z
			"/>
		<path class="st2" d="M153.1,105.4l-54.6-65L80.5,33l-23-6.9c0,0,0,0,0,0c-0.2,0.2-0.5,0.3-0.8,0.4c-0.1,0-0.1,0-0.1,0.1
			c-5.5,2.9-10.4,5.9-14.8,9.1l0.1,0l1.4,0.1c0.1,0,0.2,0,0.2,0l-0.2,0c-1.5,0.5-11,8.9-12.9,12.3l-1.2-1.8c-5,4.9-8.9,9.8-11.9,14
			c6.3-0.9,11.9,1.3,17.2,4.9l21.3,13.1l53.7,64c0.1,0.1,0.1,0.1,0.2,0.2l0,0c0.1,0.1,0.1,0.2,0.2,0.3c1.6,1.9-0.2,3.4-1.5,4.1
			l6.1-2.8c0.1,0,0.2,0,0.2,0c0.8-0.2,1.6-0.6,2.3-1.2l35.4-29.7C154.7,111.2,155.1,107.7,153.1,105.4z M49.2,71.1l-9.9-6
			c0,0,0,0,0,0c0.1-0.6,1.7-10.4,15.8-21.4c14.5-11.4,23.6-10.8,23.6-10.8c-0.1,0-0.1,0-0.2,0.1c0,0,0.1,0,0.1,0
			c5,1.9,11.3,4.3,15.8,6.5c0.9,0.4,0.8,1.8-0.1,2.3c-15.1,7.2-25.4,16.4-34.4,30.2C56.9,76.3,53.8,73.9,49.2,71.1z"/>
		
			<linearGradient id="SVGID_00000021822982724198629220000011189741575329805211_" gradientUnits="userSpaceOnUse" x1="505.7397" y1="-379.3883" x2="493.9589" y2="-379.0549" gradientTransform="matrix(0.6428 0.766 -0.766 0.6428 -546.621 -88.8142)">
			<stop  offset="0.3111" style="stop-color:#000000"/>
			<stop  offset="1" style="stop-color:#37475E"/>
		</linearGradient>
		<path style="fill:url(#SVGID_00000021822982724198629220000011189741575329805211_);" d="M49.2,71.1l-9.9-6c0,0,0,0,0,0
			C43.8,47,69.8,32.4,78.5,32.9c0,0,0.1,0,0.1,0c5,1.9,11.3,4.3,15.8,6.5c0.9,0.4,0.8,1.8-0.1,2.3c-15.1,7.2-25.4,16.4-34.4,30.2
			C56.9,76.3,53.8,73.9,49.2,71.1z"/>
		
			<linearGradient id="SVGID_00000144328862031697919130000017506649941128531382_" gradientUnits="userSpaceOnUse" x1="505.485" y1="250.3699" x2="505.485" y2="242.6803" gradientTransform="matrix(0.6428 0.766 -0.766 0.6428 -93.1227 -469.3445)">
			<stop  offset="0.3111" style="stop-color:#000000"/>
			<stop  offset="1" style="stop-color:#37475E"/>
		</linearGradient>
		<path style="fill:url(#SVGID_00000144328862031697919130000017506649941128531382_);" d="M50.8,81.3l-3.9,3.3
			c-0.7,0.6-1.7,0.5-2.3-0.2l-9.3-11c-0.6-0.7-0.5-1.7,0.2-2.3l0.2-0.2c0.5-0.4,1.3-0.5,1.9-0.1l13,8C51.5,79.2,51.6,80.6,50.8,81.3
			z"/>
		<path d="M78.5,32.9C59.2,39.8,48,51.6,39.3,65.1c0,0,0,0,0,0c0.1-0.6,1.7-10.4,15.8-21.4c14.5-11.4,23.6-10.8,23.6-10.8
			C78.6,32.8,78.5,32.9,78.5,32.9z"/>
		<path d="M16.8,60.9L16.6,61l-0.9,0.3l-0.4,0.1l-0.5,0.2c17.6-26.9,41.6-35.2,42.6-35.5c-0.3,0.1-0.5,0.3-0.8,0.4
			c-0.1,0-0.1,0-0.1,0.1c-5.5,2.9-10.4,5.9-14.8,9.1c-4.8,3.5-9,7.1-12.5,10.6c-5,4.9-8.9,9.8-11.9,14C17.2,60.5,17,60.7,16.8,60.9z
			"/>
		<path d="M43.5,35.7l-0.2,0C43.4,35.7,43.4,35.7,43.5,35.7z"/>
		<path d="M30.4,48l-1.2-1.8L29,45.9L29,45.8l12.2-10.2l0.2,0l0.4,0l0.1,0l1.4,0.1C41.8,36.1,32.2,44.6,30.4,48z"/>
		<path class="st9" d="M107.3,147.3L107.3,147.3C107.4,147.2,107.3,147.3,107.3,147.3C107.3,147.3,107.3,147.3,107.3,147.3z"/>
		<path class="st9" d="M108.4,146.8c0,0-0.1,0-0.1,0.1c-0.1,0.1-0.2,0.1-0.3,0.2l-0.3,0.1c-0.1,0-0.2,0.1-0.2,0.1c0,0-0.1,0-0.1,0
			L108.4,146.8z"/>
	</g>
</g>
</svg>
