<?xml version="1.0" encoding="utf-8"?>
<!-- Generator: Adobe Illustrator 25.4.1, SVG Export Plug-In . SVG Version: 6.00 Build 0)  -->
<svg version="1.1" id="Layer_1" xmlns="http://www.w3.org/2000/svg" xmlns:xlink="http://www.w3.org/1999/xlink" x="0px" y="0px"
	 viewBox="0 0 168 168" style="enable-background:new 0 0 168 168;" xml:space="preserve">
<style type="text/css">
	.st0{opacity:0.2;fill:#151110;enable-background:new    ;}
	.st1{fill:url(#SVGID_1_);}
	.st2{fill:#FFFFFF;}
	.st3{fill:#C00D0D;}
	.st4{fill:#151110;}
	.st5{fill:url(#SVGID_00000057828723596986806880000002842306973795750330_);}
	.st6{fill:url(#SVGID_00000060028536968835991030000013171696032820607161_);}
	.st7{fill:none;stroke:#A03394;stroke-width:9;stroke-miterlimit:10;}
	.st8{fill:url(#SVGID_00000098189598985329489990000013577205497462280332_);}
	.st9{fill:#F0F0F0;}
	.st10{fill:url(#SVGID_00000069385261400392288080000017563987999104518578_);}
	.st11{fill:url(#SVGID_00000049190182827490340230000001667562895827792817_);}
	.st12{fill:url(#SVGID_00000183965515881612648390000016334516101183423925_);}
	.st13{fill:url(#SVGID_00000029041165910199476770000001979680315909688244_);}
	.st14{fill:url(#SVGID_00000088115971070483791780000015456648139665848969_);}
	.st15{fill:url(#SVGID_00000169545529562422992500000001189136613149983118_);}
	.st16{fill:url(#SVGID_00000168819175593220972800000010597480177966867371_);}
	.st17{fill:url(#SVGID_00000034081909067888700670000017936910879270506413_);}
	.st18{fill:url(#SVGID_00000125560741056008280000000012509407454848232380_);}
	.st19{fill:url(#SVGID_00000017480476799969723390000007304521831786360249_);}
	.st20{fill:url(#SVGID_00000115509445320902919170000004139037724611649920_);}
	.st21{fill:url(#SVGID_00000087409596407960557080000001169153773918243996_);}
	.st22{fill:url(#SVGID_00000136370171768894890220000013507684403091676568_);}
	.st23{fill:url(#SVGID_00000012454310944806274930000015170295542738379182_);}
	.st24{fill:url(#SVGID_00000041276709478470425890000006987011311213706898_);}
	.st25{fill:url(#SVGID_00000083784949021644106010000013821360696868677007_);}
	.st26{fill:url(#SVGID_00000052078595387985994600000003296326383689600690_);}
	.st27{fill:url(#SVGID_00000116943163414543094660000013423066683936004757_);}
	.st28{fill:url(#SVGID_00000115495442382812899930000005259627497048547227_);}
	.st29{fill:url(#SVGID_00000047062496208761613910000002031075870150180531_);}
	.st30{fill:url(#SVGID_00000038389898810093449550000012558884948638094496_);}
	.st31{fill:url(#SVGID_00000085971504238533548480000017253800469127047317_);}
	.st32{fill:url(#SVGID_00000172442712442805849600000003773397438437174198_);}
	.st33{fill:url(#SVGID_00000057146594872971236500000004503629630737565598_);}
	.st34{fill:url(#SVGID_00000147211487517044837960000014619638635337482368_);}
	.st35{fill:url(#SVGID_00000075158706099628100360000006555470114656093571_);}
	.st36{fill:url(#SVGID_00000103954201279304770090000003522254032811785143_);}
	.st37{fill:url(#SVGID_00000129178120083198619580000017264017627983478688_);}
	.st38{fill:url(#SVGID_00000030467706205438845710000014149883786763538323_);}
	.st39{fill:url(#SVGID_00000080195518197017377110000004297948948030546352_);}
	.st40{fill:url(#SVGID_00000095321302754527309690000010020360109220585356_);}
	.st41{fill:url(#SVGID_00000024691313061552456600000010348339675692540800_);}
	.st42{fill:url(#SVGID_00000056405015292183535250000005102934620378485684_);}
	.st43{fill:url(#SVGID_00000164494588956140142090000016818145884749666963_);}
	.st44{fill:url(#SVGID_00000031892044863986094920000013299733425760818348_);}
	.st45{fill:url(#SVGID_00000066495274262400204530000003716173542735464104_);}
	.st46{fill:url(#SVGID_00000060709988023247063560000003724319727324302505_);}
	.st47{fill:url(#SVGID_00000065072592916093576190000007691511588553283722_);}
	.st48{fill:url(#SVGID_00000145766380936417528620000001370027000795965333_);}
	.st49{fill:url(#SVGID_00000152234882660672442070000008152046243158693761_);}
	.st50{fill:url(#SVGID_00000003067417719350536970000002598724820955784355_);}
	.st51{fill:url(#SVGID_00000077319936011830676690000008579788343204625836_);}
	.st52{fill:url(#SVGID_00000058572020029322130270000017470321195551629722_);}
	.st53{fill:url(#SVGID_00000173132434277137712460000003844593112241544602_);}
	.st54{fill:url(#SVGID_00000116229028441583251780000003958910131120321703_);}
	.st55{fill:url(#SVGID_00000109009798979105859820000004312823747983766445_);}
	.st56{fill:url(#SVGID_00000047038048205514530960000009443766818981164937_);}
	.st57{fill:url(#SVGID_00000074436757791875114750000013537777457957524877_);}
	.st58{fill:url(#SVGID_00000146485332266422022700000004346458144250614195_);}
	.st59{fill:url(#SVGID_00000059295822426155622060000015688172273654070929_);}
	.st60{fill:url(#SVGID_00000098223031589978207590000009279289240234922390_);}
	.st61{fill:url(#SVGID_00000106140796064877859580000004558573083424104327_);}
	.st62{fill:url(#SVGID_00000183931303350684891540000013085992958042331826_);}
	.st63{fill:url(#SVGID_00000039822681166586454100000015614742059108125326_);}
	.st64{fill:url(#SVGID_00000078765714475275929910000012032190891464712639_);}
	.st65{fill:url(#SVGID_00000106847101456037995560000002043978977174360964_);}
	.st66{fill:url(#SVGID_00000038396599704664628660000006432102358885872775_);}
	.st67{fill:url(#SVGID_00000159461825153795063000000013302385018107710087_);}
	.st68{fill:url(#SVGID_00000122696843762755240880000015483569062652728243_);}
	.st69{fill:url(#SVGID_00000122721096292772521370000003826251713169611199_);}
	.st70{fill:url(#SVGID_00000160877061485935572220000005249361440201036202_);}
	.st71{fill:url(#SVGID_00000054258475607214938130000003382558687060964010_);}
	.st72{fill:url(#SVGID_00000126285962572875366610000009193152119728814982_);}
	.st73{fill:url(#SVGID_00000052800994572614907880000003974573703860720017_);}
	.st74{fill:url(#SVGID_00000145025582435896866470000018087076495473683380_);}
	.st75{fill:url(#SVGID_00000015347448554024479470000004150453809593932199_);}
	.st76{fill:url(#SVGID_00000044863832013248030370000006491365949125851010_);}
	.st77{fill:url(#SVGID_00000032611875145255467560000016178098581340415619_);}
	.st78{fill:url(#SVGID_00000044870568064444150590000009349191597361233080_);}
	.st79{fill:url(#SVGID_00000039819831656295892250000018101878188289761429_);}
	.st80{fill:url(#SVGID_00000166651942726756602040000016683485951209378730_);}
	.st81{fill:url(#SVGID_00000042710312173006262720000009737363453912044476_);}
	.st82{fill:url(#SVGID_00000014630818603238457990000017639437650098716855_);}
	.st83{fill:url(#SVGID_00000025427752197349826720000012862827541275449500_);}
	.st84{fill:url(#SVGID_00000135657909094726527520000000354276003949793933_);}
	.st85{fill:url(#SVGID_00000098195505981160348480000005922945857148334983_);}
	.st86{fill:url(#SVGID_00000170992575437835239200000017930481860447098027_);}
	.st87{fill:url(#SVGID_00000021085731384892271740000005188039679230606255_);}
	.st88{fill:url(#SVGID_00000165950922510195894150000005239336707461021826_);}
	.st89{fill:url(#SVGID_00000021822029505136086750000014875009510328418706_);}
	.st90{fill:url(#SVGID_00000107558190542224044480000018318271606000282264_);}
	.st91{fill:url(#SVGID_00000021090058396463157710000011458112872621579663_);}
	.st92{fill:url(#SVGID_00000163779008597406781530000000273233124396640939_);}
	.st93{fill:url(#SVGID_00000112629562428025845210000009806126679207850642_);}
	.st94{fill:url(#SVGID_00000170260523432095356080000015155236885446822063_);}
	.st95{fill:url(#SVGID_00000096036055191189589340000008080261547583111310_);}
	.st96{fill:url(#SVGID_00000098223065765279474060000013659660045558034844_);}
	.st97{fill:url(#SVGID_00000167371948366464813840000010722121469507269007_);}
	.st98{fill:url(#SVGID_00000061473575070254926130000013570803365322643358_);}
	.st99{fill:url(#SVGID_00000038399083100065815010000012043651597838349216_);}
	.st100{fill:url(#SVGID_00000093158020883313550520000003761930837216157119_);}
	.st101{fill:url(#SVGID_00000080193911101158098580000006616504175458252433_);}
	.st102{fill:url(#SVGID_00000127723715414836231860000014471052707394080142_);}
	.st103{fill:url(#SVGID_00000022527191366093161460000002735005630220679301_);}
	.st104{fill:url(#SVGID_00000056397298131845342640000007386155374010006156_);}
	.st105{fill:url(#SVGID_00000124876501218053666490000002403256185580699009_);}
	.st106{fill:url(#SVGID_00000116225593670883972420000011013935080793404078_);}
	.st107{fill:url(#SVGID_00000041996932562450523200000004151037390204982433_);}
	.st108{fill:url(#SVGID_00000075130424322684441470000018009597560076806845_);}
	.st109{fill:url(#SVGID_00000125593616293384235490000006112140589798943897_);}
	.st110{fill:url(#SVGID_00000118399002243696428050000006609636259335279519_);}
	.st111{fill:url(#SVGID_00000132080920418799007690000001512201243653471880_);}
	.st112{fill:url(#SVGID_00000178169449223415078590000012272471345750183834_);}
	.st113{fill:url(#SVGID_00000099627777057275266610000014718038996352106371_);}
	.st114{fill:url(#SVGID_00000111882987330299819220000004182122253721423760_);}
	.st115{fill:url(#SVGID_00000029014294566591730730000005331423183559078278_);}
	.st116{fill:url(#SVGID_00000094615434125533606990000006666087194373504906_);}
	.st117{fill:url(#SVGID_00000101799471183868762750000005554300401890422169_);}
	.st118{fill:url(#SVGID_00000002355252084647899860000008254130970015038383_);}
	.st119{fill:url(#SVGID_00000140003560540680535430000006187800202724791997_);}
	.st120{fill:url(#SVGID_00000180329250344144352980000015332402531459847575_);}
	.st121{fill:url(#SVGID_00000045579325537690271130000006900822533904449688_);}
	.st122{fill:url(#SVGID_00000042728744363765183610000007534584789025831086_);}
	.st123{fill:url(#SVGID_00000118360309324491743300000005394589369882241971_);}
	.st124{fill:url(#SVGID_00000116927596512279004730000014561335402017064099_);}
	.st125{fill:url(#SVGID_00000177475537022238544120000017079639943880442787_);}
	.st126{fill:url(#SVGID_00000037687970154823733600000016024658245810367397_);}
	.st127{fill:url(#SVGID_00000035523524787645040640000014123016833330797746_);}
	.st128{fill:url(#SVGID_00000000913977897336220840000008448102543424561841_);}
	.st129{fill:url(#SVGID_00000165941335534075882630000005368573976662305960_);}
	.st130{fill:url(#SVGID_00000082329285558177209200000015615023635215915959_);}
	.st131{fill:url(#SVGID_00000116948066132578152080000011316647665319768467_);}
	.st132{fill:url(#SVGID_00000107578969620110555060000017953896576137517756_);}
	.st133{fill:url(#SVGID_00000037672341297992228280000001678620019977626261_);}
	.st134{fill:url(#SVGID_00000145016294761641820580000011470260591852347325_);}
	.st135{fill:url(#SVGID_00000035497679689134004360000005909277523823203473_);}
	.st136{fill:url(#SVGID_00000066485908810172372910000000715997763721971127_);}
	.st137{fill:url(#SVGID_00000033359102174055330800000006092281851259111814_);}
	.st138{fill:url(#SVGID_00000083061678760514092210000018108124958302150529_);}
	.st139{fill:url(#SVGID_00000142172530574623478170000009534395779560977805_);}
	.st140{fill:url(#SVGID_00000158021929607143160410000015885610345214108061_);}
	.st141{fill:url(#SVGID_00000136385369151573839710000001868374592469444279_);}
	.st142{fill:url(#SVGID_00000096038636579027047350000014745999222601119658_);}
	.st143{fill:url(#SVGID_00000053516453905626313700000009126564902938657696_);}
	.st144{fill:url(#SVGID_00000058565765025521402780000004639323185872593335_);}
	.st145{fill:url(#SVGID_00000004544660198147652520000003570040495012614287_);}
	.st146{fill:url(#SVGID_00000094611562084663305830000003212272652144925863_);}
	.st147{fill:url(#SVGID_00000170962805570394158610000001953738791460031388_);}
	.st148{fill:url(#SVGID_00000076575620866856480110000017891202922737079942_);}
	.st149{fill:url(#SVGID_00000145046697849439300530000003658101051024053180_);}
</style>
<g>
	<path class="st0" d="M100.9,150c-0.4,0.2-0.9,0.4-1.4,0.6l0,0l-24.9,6.3l-6.7-9.2L14.8,53.5c-0.1-0.2-0.2-0.3-0.2-0.5l-0.4-0.7
		l-0.1,0c22.4-24,48.2-27.7,48.2-27.7c-0.3,0.1-0.6,0.2-0.9,0.3c0.3-0.1,0.6-0.2,0.9-0.3l21.5,10.8l16.5,10.4l3.3,5.8l1.3,2.3
		l37.9,65.6c1.5,2.6,0.6,5.9-2,7.4L100.9,150L100.9,150z"/>
	
		<linearGradient id="SVGID_1_" gradientUnits="userSpaceOnUse" x1="539.6312" y1="-332.8161" x2="539.9095" y2="-367.8894" gradientTransform="matrix(0.5 0.866 -0.866 0.5 -505.7606 -195.1243)">
		<stop  offset="0" style="stop-color:#5C5C5C"/>
		<stop  offset="0.1042" style="stop-color:#979797"/>
	</linearGradient>
	<path class="st1" d="M105.2,149l-7,1.7c-0.1,0-0.2,0.1-0.4,0.1l-0.3,0.1c-0.1,0-0.2,0-0.2,0.1l-0.1,0l-10,2.5l-4.1,1l-0.8,0.2
		l-0.9,0.2l-6.7-9.2l-1.8-3.1l-2.9-5.1c0,0,0,0,0,0l-4.4-7.7l-2.9-5.1L35,75.2l-2.8-5l-4.7-8.4l-2.8-5l-3.1-5.4l0,0
		c-0.2-0.4-0.2-0.8-0.1-1.1c0-0.1,0.1-0.2,0.2-0.3c0.1-0.1,0.2-0.2,0.4-0.3c0.1,0,0.2-0.1,0.3-0.1c0,0,0.1,0,0.1,0c0,0,0,0,0,0
		c0.1,0,0.1,0,0.2,0c0.3,0,0.6,0,1,0c6.3,0.2,11.5,3.3,16.1,7.8l18.7,16.6l4.2,7.3l37.5,65c0,0.1,0.1,0.2,0.2,0.2l0,0
		c0,0.1,0.1,0.2,0.2,0.3c1.3,2.2-0.8,3.3-2.2,3.7l6.5-1.7C105,149,105.1,149,105.2,149z"/>
	<g>
		<path class="st2" d="M53.7,30l-0.2,0C53.7,29.9,53.7,29.9,53.7,30z"/>
		<path class="st2" d="M53.2,65.8l-8.7-7.7c0,0,0,0,0,0c0.2-0.6,3.5-10,19.3-18.4c16.2-8.7,25.1-6.5,25.1-6.5c-0.1,0-0.1,0-0.2,0
			c0,0,0.1,0,0.1,0c4.6,2.8,10.4,6.1,14.4,9.1c0.8,0.6,0.5,1.9-0.4,2.2c-16.1,4.5-27.8,11.8-39.2,23.8
			C59.9,72.2,57.3,69.4,53.2,65.8z"/>
		<polygon class="st3" points="87.3,153.5 82.4,154.8 81.3,152.9 86.3,151.7 		"/>
		<polygon class="st4" points="83.2,154.6 22.6,49.6 21,50.5 81.5,155 		"/>
		<ellipse transform="matrix(0.866 -0.5 0.5 0.866 -29.0485 23.7486)" class="st4" cx="29.8" cy="66.1" rx="4.4" ry="10.5"/>
		<ellipse transform="matrix(0.866 -0.5 0.5 0.866 -29.0485 23.7486)" class="st2" cx="29.8" cy="66.1" rx="2" ry="4.8"/>
		<ellipse transform="matrix(0.866 -0.5 0.5 0.866 -57.4154 52.1155)" class="st4" cx="68.5" cy="133.2" rx="4.4" ry="10.5"/>
		<ellipse transform="matrix(0.866 -0.5 0.5 0.866 -57.4154 52.1155)" class="st2" cx="68.5" cy="133.2" rx="2" ry="4.8"/>
		
			<linearGradient id="SVGID_00000119806571783607329600000007845235972860846723_" gradientUnits="userSpaceOnUse" x1="562.7219" y1="250.5388" x2="562.7219" y2="242.2865" gradientTransform="matrix(0.5 0.866 -0.866 0.5 6.9264 -491.1243)">
			<stop  offset="0.3111" style="stop-color:#000000"/>
			<stop  offset="1" style="stop-color:#37475E"/>
		</linearGradient>
		<path style="fill:url(#SVGID_00000119806571783607329600000007845235972860846723_);" d="M59.2,87.4l-3.6,2c-1.1,0.7-1.6,2-1,3
			l32.5,56.4c0.6,1,1.3,1.4,3.1,1.1l4.5-1.1c1.8-0.6,1.6-2,1-3L62.3,88.1C61.7,87,60.3,86.8,59.2,87.4z"/>
		<path class="st2" d="M149.6,117.7l-42.5-73.5L90.7,33.7L69.2,22.9c0,0,0,0,0,0c-0.3,0.1-0.5,0.2-0.8,0.3c-0.1,0-0.1,0-0.1,0
			c-5.9,1.9-11.3,4-16.1,6.4l0.1,0l1.4,0.3c0.1,0,0.2,0,0.2,0l-0.2,0c-1.6,0.2-12.4,6.8-14.8,9.9l-0.8-1.9
			c-5.8,4-10.5,8.1-14.2,11.7c6.3,0.2,11.5,3.3,16.1,7.8l18.7,16.6l41.8,72.3c0,0.1,0.1,0.2,0.2,0.2l0,0c0,0.1,0.1,0.2,0.2,0.3
			c1.3,2.2-0.8,3.3-2.2,3.7l6.5-1.7c0.1,0,0.2,0,0.2,0c0.8,0,1.7-0.3,2.5-0.7l40-23.1C150.2,123.6,151.1,120.3,149.6,117.7z
			 M53.2,65.8l-8.7-7.7c0,0,0,0,0,0c0.2-0.6,3.5-10,19.3-18.4c16.2-8.7,25.1-6.5,25.1-6.5c-0.1,0-0.1,0-0.2,0c0,0,0.1,0,0.1,0
			c4.6,2.8,10.4,6.1,14.4,9.1c0.8,0.6,0.5,1.9-0.4,2.2c-16.1,4.5-27.8,11.8-39.2,23.8C59.9,72.2,57.3,69.4,53.2,65.8z"/>
		
			<linearGradient id="SVGID_00000075122727207118206620000010114804631219322550_" gradientUnits="userSpaceOnUse" x1="505.7397" y1="-379.3883" x2="493.9589" y2="-379.0549" gradientTransform="matrix(0.5 0.866 -0.866 0.5 -505.7606 -195.1243)">
			<stop  offset="0.3111" style="stop-color:#000000"/>
			<stop  offset="1" style="stop-color:#37475E"/>
		</linearGradient>
		<path style="fill:url(#SVGID_00000075122727207118206620000010114804631219322550_);" d="M53.2,65.8l-8.7-7.7c0,0,0,0,0,0
			c7.6-17,35.7-26.9,44.2-24.9c0,0,0.1,0,0.1,0c4.6,2.8,10.4,6.1,14.4,9.1c0.8,0.6,0.5,1.9-0.4,2.2c-16.1,4.5-27.8,11.8-39.2,23.8
			C59.9,72.2,57.3,69.4,53.2,65.8z"/>
		
			<linearGradient id="SVGID_00000012466038920258958140000016680538314194414771_" gradientUnits="userSpaceOnUse" x1="505.485" y1="250.3699" x2="505.485" y2="242.6803" gradientTransform="matrix(0.5 0.866 -0.866 0.5 6.9264 -491.1243)">
			<stop  offset="0.3111" style="stop-color:#000000"/>
			<stop  offset="1" style="stop-color:#37475E"/>
		</linearGradient>
		<path style="fill:url(#SVGID_00000012466038920258958140000016680538314194414771_);" d="M53,76.1l-4.4,2.5
			c-0.8,0.5-1.7,0.2-2.2-0.6l-7.2-12.5c-0.5-0.8-0.2-1.7,0.6-2.2l0.3-0.2c0.6-0.3,1.3-0.3,1.8,0.2l11.4,10.2
			C54.1,74.2,54,75.6,53,76.1z"/>
		<path d="M88.7,33.3c-20.2,3.4-33.3,13.2-44.2,24.9c0,0,0,0,0,0c0.2-0.6,3.5-10,19.3-18.4c16.2-8.7,25.1-6.5,25.1-6.5
			C88.8,33.2,88.8,33.3,88.7,33.3z"/>
		<path d="M23.1,50.2l-0.2,0l-1,0.1l-0.4,0.1L21,50.5c22-23.4,47.1-27.4,48.1-27.6c-0.3,0.1-0.5,0.2-0.8,0.3c-0.1,0-0.1,0-0.1,0
			c-5.9,1.9-11.3,4-16.1,6.4C46.7,32.2,42,35,37.9,37.9c-5.8,4-10.5,8.1-14.2,11.7C23.5,49.8,23.3,50,23.1,50.2z"/>
		<path d="M53.7,30l-0.2,0C53.7,29.9,53.7,29.9,53.7,30z"/>
		<path d="M38.7,39.8l-0.8-1.9l-0.1-0.3l-0.1-0.1l13.8-7.9l0.2,0.1l0.4,0.1l0.1,0l1.4,0.3C52,30.1,41.1,36.8,38.7,39.8z"/>
		<path class="st9" d="M97.2,150.9L97.2,150.9C97.3,150.9,97.3,150.9,97.2,150.9C97.2,150.9,97.2,150.9,97.2,150.9z"/>
		<path class="st9" d="M98.4,150.6c0,0-0.1,0-0.1,0c-0.1,0-0.2,0.1-0.4,0.1l-0.3,0.1c-0.1,0-0.2,0-0.2,0.1c0,0-0.1,0-0.1,0
			L98.4,150.6z"/>
	</g>
</g>
</svg>
