<?xml version="1.0" encoding="utf-8"?>
<!-- Generator: Adobe Illustrator 25.4.1, SVG Export Plug-In . SVG Version: 6.00 Build 0)  -->
<svg version="1.1" id="Layer_1" xmlns="http://www.w3.org/2000/svg" xmlns:xlink="http://www.w3.org/1999/xlink" x="0px" y="0px"
	 viewBox="0 0 168 168" style="enable-background:new 0 0 168 168;" xml:space="preserve">
<style type="text/css">
	.st0{opacity:0.2;fill:#151110;enable-background:new    ;}
	.st1{fill:url(#SVGID_1_);}
	.st2{fill:#FFFFFF;}
	.st3{fill:#C00D0D;}
	.st4{fill:#151110;}
	.st5{fill:url(#SVGID_00000150063203932590046680000009270591627697829249_);}
	.st6{fill:url(#SVGID_00000181773086546588636890000013040636250651359638_);}
	.st7{fill:none;stroke:#A03394;stroke-width:9;stroke-miterlimit:10;}
	.st8{fill:url(#SVGID_00000163062801629130021140000014423453281908443569_);}
	.st9{fill:#F0F0F0;}
	.st10{fill:url(#SVGID_00000088848153102205759690000008625618341662412200_);}
	.st11{fill:url(#SVGID_00000091017472181369569720000013712730896351483794_);}
	.st12{fill:url(#SVGID_00000111908359915125057320000006212974029537875866_);}
	.st13{fill:url(#SVGID_00000157304733105678931180000014338530313755962764_);}
	.st14{fill:url(#SVGID_00000111879246114556088480000007422493097062010555_);}
	.st15{fill:url(#SVGID_00000137837066781160701990000016140538187284584609_);}
	.st16{fill:url(#SVGID_00000116938047142275880630000006509742991938827167_);}
	.st17{fill:url(#SVGID_00000115502689310302839350000004572166634512535200_);}
	.st18{fill:url(#SVGID_00000112604980786371880220000012077191403159582344_);}
	.st19{fill:url(#SVGID_00000032650286769469645980000012067962484610224312_);}
	.st20{fill:url(#SVGID_00000137099735244817673970000015288844668494628021_);}
	.st21{fill:url(#SVGID_00000000918322228397946980000001540521718873275782_);}
	.st22{fill:url(#SVGID_00000020380357090622033490000004081977750291132575_);}
	.st23{fill:url(#SVGID_00000001629835417244827110000007590589228277650320_);}
	.st24{fill:url(#SVGID_00000129178792335926649470000007754590299031673221_);}
	.st25{fill:url(#SVGID_00000012430737571699028100000017050949179501890493_);}
	.st26{fill:url(#SVGID_00000115486581139472561310000006144520042667145369_);}
	.st27{fill:url(#SVGID_00000068644471789608463220000008302789214743144840_);}
	.st28{fill:url(#SVGID_00000090985040797076005500000010642293058957128379_);}
	.st29{fill:url(#SVGID_00000060000547146761463820000005417092228643900604_);}
	.st30{fill:url(#SVGID_00000158751113765148992720000014827624819944156090_);}
	.st31{fill:url(#SVGID_00000072245492340284849660000000188823532419920261_);}
	.st32{fill:url(#SVGID_00000047019500088552645690000003789738555570493312_);}
	.st33{fill:url(#SVGID_00000155114917588483465380000014883601316551862686_);}
	.st34{fill:url(#SVGID_00000047027328817924482940000001180671701772772781_);}
	.st35{fill:url(#SVGID_00000006667740847440409000000015226968641246329481_);}
	.st36{fill:url(#SVGID_00000053522235902065519480000018356714375555266486_);}
	.st37{fill:url(#SVGID_00000104666464518209248970000003633314652760344974_);}
	.st38{fill:url(#SVGID_00000097494058792668263360000005107063531578795666_);}
	.st39{fill:url(#SVGID_00000027569495448045009260000013872064449464423303_);}
	.st40{fill:url(#SVGID_00000107552822511116612090000000294960552744310170_);}
	.st41{fill:url(#SVGID_00000175318807927924571680000010468631614418676158_);}
	.st42{fill:url(#SVGID_00000072979772985374532810000000712410104397043356_);}
	.st43{fill:url(#SVGID_00000091008333155271274060000006492116176497803450_);}
	.st44{fill:url(#SVGID_00000166673972237569905920000002812803195471984062_);}
	.st45{fill:url(#SVGID_00000157310028787979588030000001144973932498331302_);}
	.st46{fill:url(#SVGID_00000143594786450240282390000017604493291708722856_);}
	.st47{fill:url(#SVGID_00000043450784564476784710000018112718886304234890_);}
	.st48{fill:url(#SVGID_00000107572130852286909930000003675640123553048996_);}
	.st49{fill:url(#SVGID_00000111870680035091224750000005450831292705106607_);}
	.st50{fill:url(#SVGID_00000034051415548750894690000013107655846556850835_);}
	.st51{fill:url(#SVGID_00000045621434878142664880000007896658986317385380_);}
	.st52{fill:url(#SVGID_00000002376563511039982770000013703294733057629350_);}
	.st53{fill:url(#SVGID_00000159461554570498928800000017891034018577382799_);}
	.st54{fill:url(#SVGID_00000134941797266952288720000012448810647985323429_);}
	.st55{fill:url(#SVGID_00000164495309751725794340000001001427945698254494_);}
	.st56{fill:url(#SVGID_00000165937759203975746300000018070894202292081573_);}
	.st57{fill:url(#SVGID_00000145034420314292584410000002389418541067451534_);}
	.st58{fill:url(#SVGID_00000179625570855015485870000015899380958594251961_);}
	.st59{fill:url(#SVGID_00000108993753829335178560000013654748056853620388_);}
	.st60{fill:url(#SVGID_00000075874660000470303570000011763448947332279936_);}
	.st61{fill:url(#SVGID_00000044180162370296396160000018375751130830212738_);}
	.st62{fill:url(#SVGID_00000145054461751709669590000003378276196610718089_);}
	.st63{fill:url(#SVGID_00000125592478952415826980000009908461809753717678_);}
	.st64{fill:url(#SVGID_00000044156324899565935340000017930478984574598805_);}
	.st65{fill:url(#SVGID_00000041991997351962918510000001785913348797250985_);}
	.st66{fill:url(#SVGID_00000182501401346954506600000005940943285080965538_);}
	.st67{fill:url(#SVGID_00000087371814315740629090000004877775393971160978_);}
	.st68{fill:url(#SVGID_00000129903602584567878010000005782738474837267092_);}
	.st69{fill:url(#SVGID_00000174569591389154198520000006585379196706712212_);}
	.st70{fill:url(#SVGID_00000094601743694586244490000017064791781186837689_);}
	.st71{fill:url(#SVGID_00000089534478662402571670000003824522916959917972_);}
	.st72{fill:url(#SVGID_00000137101688512427638800000012328654760297734536_);}
	.st73{fill:url(#SVGID_00000031205208427785031220000004159226363680721325_);}
	.st74{fill:url(#SVGID_00000054949352086257871150000008239627833677275272_);}
	.st75{fill:url(#SVGID_00000168090836260707991000000015582953712254997380_);}
	.st76{fill:url(#SVGID_00000081609184384893037790000000117818812096259004_);}
	.st77{fill:url(#SVGID_00000077306051963626179030000004787829803748977075_);}
	.st78{fill:url(#SVGID_00000057853879761854191710000000857940214845199240_);}
	.st79{fill:url(#SVGID_00000018957898889129679800000016119205737652257956_);}
	.st80{fill:url(#SVGID_00000148640671440870492990000000915409972137000856_);}
	.st81{fill:url(#SVGID_00000128442732205883084790000008516926485483445915_);}
	.st82{fill:url(#SVGID_00000012466185999586063370000000272310821035476100_);}
	.st83{fill:url(#SVGID_00000117653592671767985450000008665041968762914730_);}
	.st84{fill:url(#SVGID_00000016789436691329885180000005845605110001930921_);}
	.st85{fill:url(#SVGID_00000070100931925887234650000015633980752454180538_);}
	.st86{fill:url(#SVGID_00000078046729746490252920000014725421238543164043_);}
	.st87{fill:url(#SVGID_00000142870256778282725320000007131056729083732152_);}
	.st88{fill:url(#SVGID_00000081641447858551709440000006680794459825493642_);}
	.st89{fill:url(#SVGID_00000125589157532055565860000018130861954843623354_);}
	.st90{fill:url(#SVGID_00000143609174340172773070000014332424739584961953_);}
	.st91{fill:url(#SVGID_00000078020459381821491270000002997527737570280595_);}
	.st92{fill:url(#SVGID_00000038386636325721462290000010996542111282104710_);}
	.st93{fill:url(#SVGID_00000163768413491103169750000007669630393230913720_);}
	.st94{fill:url(#SVGID_00000026158172149988040990000002562477200684435880_);}
	.st95{fill:url(#SVGID_00000153706249648715232290000011669136479520934046_);}
	.st96{fill:url(#SVGID_00000151540169126833323570000009506299012998258333_);}
	.st97{fill:url(#SVGID_00000098904927800983630060000014728419023659309754_);}
	.st98{fill:url(#SVGID_00000166658248914881346070000014767846470844612243_);}
	.st99{fill:url(#SVGID_00000077291651142302191670000002856724730435955360_);}
	.st100{fill:url(#SVGID_00000183949845437628916090000002692267058188082877_);}
	.st101{fill:url(#SVGID_00000135687961875631024410000010462955306466646951_);}
	.st102{fill:url(#SVGID_00000172407573810500747520000003485186767303392900_);}
	.st103{fill:url(#SVGID_00000116216281543007940660000003008798406011753393_);}
	.st104{fill:url(#SVGID_00000067938205447166624240000005457825106630846129_);}
	.st105{fill:url(#SVGID_00000097467814879476917550000010229226411012765863_);}
	.st106{fill:url(#SVGID_00000039100076104310752040000017580397801905908616_);}
	.st107{fill:url(#SVGID_00000093152677418432723470000007360272476520697785_);}
	.st108{fill:url(#SVGID_00000146471308823802684280000006012467671988764567_);}
	.st109{fill:url(#SVGID_00000038406013699897547480000013878634083485680009_);}
	.st110{fill:url(#SVGID_00000181773901262964752150000000021770009227363983_);}
	.st111{fill:url(#SVGID_00000057832503056354357810000018314136423329217439_);}
	.st112{fill:url(#SVGID_00000100370660630555248360000016380454516363728281_);}
	.st113{fill:url(#SVGID_00000122719004083918855360000003613014555615596162_);}
	.st114{fill:url(#SVGID_00000066514224088689004100000006203254089223666853_);}
	.st115{fill:url(#SVGID_00000099661643062144430980000006755159846356683401_);}
	.st116{fill:url(#SVGID_00000021099185086310894690000006938756535364036756_);}
	.st117{fill:url(#SVGID_00000050644664731129209760000002266597413594942387_);}
	.st118{fill:url(#SVGID_00000145025916619970009190000016913547548998193296_);}
	.st119{fill:url(#SVGID_00000165931166057544789520000003622963941528188574_);}
	.st120{fill:url(#SVGID_00000127732920177517164960000017806029502236878733_);}
	.st121{fill:url(#SVGID_00000139256149757786157800000001773343936332691633_);}
	.st122{fill:url(#SVGID_00000050649159938490081970000003697464592367223173_);}
	.st123{fill:url(#SVGID_00000150790667463234601810000001483860433587388851_);}
	.st124{fill:url(#SVGID_00000078036071994484067380000005404366709156840084_);}
	.st125{fill:url(#SVGID_00000016760428787603684970000010287569726294107824_);}
	.st126{fill:url(#SVGID_00000069385337174838035650000009106462422956485534_);}
	.st127{fill:url(#SVGID_00000033364544270731672170000016775276772908801463_);}
	.st128{fill:url(#SVGID_00000049206753544977979620000006328553560092245413_);}
	.st129{fill:url(#SVGID_00000091714570699412294750000005327564860533478547_);}
	.st130{fill:url(#SVGID_00000034800572882085574440000015832308809937607077_);}
	.st131{fill:url(#SVGID_00000123427050782170191070000001125232647672250008_);}
	.st132{fill:url(#SVGID_00000134941789026794258660000001824111421563464350_);}
	.st133{fill:url(#SVGID_00000078033170656663068630000012275036931207637166_);}
	.st134{fill:url(#SVGID_00000134232892253460863820000005274528060215331479_);}
	.st135{fill:url(#SVGID_00000029018224078785594420000009947584943447341715_);}
	.st136{fill:url(#SVGID_00000134235564764949778730000011517794003720588723_);}
	.st137{fill:url(#SVGID_00000096051779436617130520000001480392034483416194_);}
	.st138{fill:url(#SVGID_00000000937363208870692040000001078794488141952941_);}
	.st139{fill:url(#SVGID_00000016793231804222801960000016836555508327193016_);}
	.st140{fill:url(#SVGID_00000021834660638375011420000010862281343261126801_);}
	.st141{fill:url(#SVGID_00000127032189341427715130000003308629237517982093_);}
	.st142{fill:url(#SVGID_00000078736473672396872610000008562605640097621680_);}
	.st143{fill:url(#SVGID_00000093154338403392310830000005085759604340382882_);}
	.st144{fill:url(#SVGID_00000072245655667870188010000012226375831912629157_);}
	.st145{fill:url(#SVGID_00000032623112359026702270000017989866539293289096_);}
	.st146{fill:url(#SVGID_00000109011083004024931060000012900165239123482502_);}
	.st147{fill:url(#SVGID_00000173132667776933387350000005094186515076263573_);}
	.st148{fill:url(#SVGID_00000080891789281264376610000015102671011789890491_);}
	.st149{fill:url(#SVGID_00000091697707609628214420000009356153030503502263_);}
</style>
<g>
	<path class="st0" d="M90.1,152.3c-0.5,0.2-1,0.2-1.5,0.3l0,0l-25.6,1.9l-5-10.2l-35.9-102c-0.1-0.2-0.1-0.4-0.1-0.5l-0.3-0.8
		l-0.1,0C47.9,21.4,74,22.2,74,22.2c-0.3,0-0.6,0.1-0.9,0.1c0.3,0,0.6-0.1,0.9-0.1l19.3,14.4l14.5,13.1L110,56l0.9,2.4l25.9,71.1
		c1,2.8-0.4,5.9-3.2,6.9L90.1,152.3L90.1,152.3z"/>
	
		<linearGradient id="SVGID_1_" gradientUnits="userSpaceOnUse" x1="539.6312" y1="-332.8161" x2="539.9095" y2="-367.8894" gradientTransform="matrix(0.342 0.9397 -0.9397 0.342 -447.3379 -292.9011)">
		<stop  offset="0" style="stop-color:#5C5C5C"/>
		<stop  offset="0.1042" style="stop-color:#979797"/>
	</linearGradient>
	<path class="st1" d="M94.6,152l-7.1,0.5c-0.1,0-0.3,0-0.4,0l-0.3,0c-0.1,0-0.2,0-0.2,0l-0.1,0l-10.3,0.7l-4.3,0.3l-0.8,0.1
		l-0.9,0.1l-5-10.2l-1.2-3.4l-2-5.6c0,0,0,0,0,0l-2.9-8.4l-2-5.6L38.2,67.2l-1.9-5.4l-3.2-9l-1.9-5.4l-2.1-5.9l0,0
		c-0.1-0.4-0.1-0.8,0.1-1.1c0.1-0.1,0.2-0.2,0.3-0.3c0.1-0.1,0.3-0.2,0.4-0.2c0.1,0,0.2-0.1,0.3-0.1c0.1,0,0.1,0,0.1,0c0,0,0,0,0,0
		c0.1,0,0.1,0,0.2,0c0.3,0.1,0.6,0.1,0.9,0.2c6.2,1.3,10.7,5.3,14.5,10.5l15.5,19.6l2.9,8l25.7,70.5c0,0.1,0.1,0.2,0.1,0.2l0,0
		c0,0.1,0.1,0.2,0.1,0.4c0.9,2.4-1.4,3.1-2.9,3.3l6.7-0.5C94.4,152,94.5,152,94.6,152z"/>
	<g>
		<path class="st2" d="M64.6,25.9l-0.2-0.1C64.5,25.9,64.6,25.9,64.6,25.9z"/>
		<path class="st2" d="M57.8,61.2l-7.2-9.1c0,0,0,0,0,0c0.3-0.5,5.2-9.2,22.2-14.8c17.5-5.7,25.9-2.1,25.9-2.1c-0.1,0-0.1,0-0.2,0
			c0,0,0.1,0,0.1,0c4.1,3.5,9.1,7.8,12.6,11.5c0.7,0.7,0.2,2-0.8,2.1c-16.7,1.6-29.5,6.8-42.7,16.6C63.3,68.6,61.3,65.3,57.8,61.2z"
			/>
		<polygon class="st3" points="76.2,153.4 71.1,153.8 70.4,151.8 75.5,151.5 		"/>
		<polygon class="st4" points="72,153.8 30.5,39.8 28.8,40.4 70.2,153.8 		"/>
		<ellipse transform="matrix(0.9397 -0.342 0.342 0.9397 -17.5148 15.3325)" class="st4" cx="34.7" cy="57.3" rx="4.4" ry="10.5"/>
		<ellipse transform="matrix(0.9397 -0.342 0.342 0.9397 -17.5148 15.3325)" class="st2" cx="34.7" cy="57.3" rx="2" ry="4.8"/>
		<ellipse transform="matrix(0.9397 -0.342 0.342 0.9397 -40.8243 28.7902)" class="st4" cx="61.2" cy="130.2" rx="4.4" ry="10.5"/>
		<ellipse transform="matrix(0.9397 -0.342 0.342 0.9397 -40.8243 28.7902)" class="st2" cx="61.2" cy="130.2" rx="2" ry="4.8"/>
		
			<linearGradient id="SVGID_00000017500170598577149220000002333221368059254915_" gradientUnits="userSpaceOnUse" x1="562.7219" y1="250.5388" x2="562.7219" y2="242.2865" gradientTransform="matrix(0.342 0.9397 -0.9397 0.342 108.9601 -495.377)">
			<stop  offset="0.3111" style="stop-color:#000000"/>
			<stop  offset="1" style="stop-color:#37475E"/>
		</linearGradient>
		<path style="fill:url(#SVGID_00000017500170598577149220000002333221368059254915_);" d="M60,83.5l-3.9,1.4
			c-1.2,0.4-1.9,1.7-1.5,2.8l22.3,61.2c0.4,1.1,1,1.6,2.8,1.6l4.6-0.3c1.8-0.2,1.9-1.7,1.5-2.8L63,84.6C62.5,83.5,61.2,83,60,83.5z"
			/>
		<path class="st2" d="M143.8,128.9l-29-79.8L100.3,36L81,21.6c0,0,0,0,0,0c-0.3,0.1-0.6,0.1-0.9,0.1c-0.1,0-0.1,0-0.1,0
			c-6.2,0.8-11.8,2-17,3.5l0.1,0l1.3,0.5c0.1,0,0.2,0,0.2,0.1l-0.2-0.1C62.8,25.8,51,30.4,48.1,33l-0.5-2c-6.4,2.9-11.7,6.1-16,9.1
			c6.2,1.3,10.7,5.3,14.5,10.5l15.5,19.6l28.6,78.5c0,0.1,0.1,0.2,0.1,0.2l0,0c0,0.1,0.1,0.2,0.1,0.4c0.9,2.4-1.4,3.1-2.9,3.3
			l6.7-0.5c0.1,0,0.2,0,0.2,0.1c0.8,0.1,1.7,0,2.6-0.3l43.4-15.8C143.3,134.9,144.8,131.8,143.8,128.9z M57.8,61.2l-7.2-9.1
			c0,0,0,0,0,0c0.3-0.5,5.2-9.2,22.2-14.8c17.5-5.7,25.9-2.1,25.9-2.1c-0.1,0-0.1,0-0.2,0c0,0,0.1,0,0.1,0
			c4.1,3.5,9.1,7.8,12.6,11.5c0.7,0.7,0.2,2-0.8,2.1c-16.7,1.6-29.5,6.8-42.7,16.6C63.3,68.6,61.3,65.3,57.8,61.2z"/>
		
			<linearGradient id="SVGID_00000150097384136640825160000018118435863653739431_" gradientUnits="userSpaceOnUse" x1="505.7397" y1="-379.3883" x2="493.9589" y2="-379.0549" gradientTransform="matrix(0.342 0.9397 -0.9397 0.342 -447.3379 -292.9011)">
			<stop  offset="0.3111" style="stop-color:#000000"/>
			<stop  offset="1" style="stop-color:#37475E"/>
		</linearGradient>
		<path style="fill:url(#SVGID_00000150097384136640825160000018118435863653739431_);" d="M57.8,61.2l-7.2-9.1c0,0,0,0,0,0
			C61,36.6,90.4,31.8,98.4,35.2c0,0,0.1,0,0.1,0c4.1,3.5,9.1,7.8,12.6,11.5c0.7,0.7,0.2,2-0.8,2.1c-16.7,1.6-29.5,6.8-42.7,16.6
			C63.3,68.6,61.3,65.3,57.8,61.2z"/>
		
			<linearGradient id="SVGID_00000179645111749271352160000016936703009101409959_" gradientUnits="userSpaceOnUse" x1="505.485" y1="250.3699" x2="505.485" y2="242.6803" gradientTransform="matrix(0.342 0.9397 -0.9397 0.342 108.9601 -495.377)">
			<stop  offset="0.3111" style="stop-color:#000000"/>
			<stop  offset="1" style="stop-color:#37475E"/>
		</linearGradient>
		<path style="fill:url(#SVGID_00000179645111749271352160000016936703009101409959_);" d="M55.9,71.2L51.1,73
			c-0.8,0.3-1.7-0.1-2.1-1l-4.9-13.5c-0.3-0.8,0.1-1.7,1-2.1l0.3-0.1c0.7-0.2,1.4-0.1,1.8,0.5l9.5,12C57.3,69.6,56.9,70.9,55.9,71.2
			z"/>
		<path d="M98.4,35.2c-20.5-0.1-35,7.2-47.9,16.8c0,0,0,0,0,0c0.3-0.5,5.2-9.2,22.2-14.8c17.5-5.7,25.9-2.1,25.9-2.1
			C98.6,35.2,98.5,35.2,98.4,35.2z"/>
		<path d="M30.9,40.5l-0.2,0l-1,0l-0.4,0l-0.5,0C54.5,21.2,79.9,21.6,81,21.6c-0.3,0-0.6,0.1-0.9,0.1c-0.1,0-0.1,0-0.1,0
			c-6.2,0.8-11.8,2-17,3.5c-5.7,1.6-10.8,3.6-15.4,5.7c-6.4,2.9-11.7,6.1-16,9.1C31.4,40.2,31.2,40.4,30.9,40.5z"/>
		<path d="M64.6,25.9l-0.2-0.1C64.5,25.9,64.6,25.9,64.6,25.9z"/>
		<path d="M48.1,33l-0.5-2l-0.1-0.4l0-0.1L62.4,25l0.2,0.1l0.4,0.2l0.1,0l1.3,0.5C62.8,25.8,51,30.4,48.1,33z"/>
		<path class="st9" d="M86.4,152.6L86.4,152.6C86.5,152.6,86.4,152.6,86.4,152.6C86.4,152.6,86.4,152.6,86.4,152.6z"/>
		<path class="st9" d="M87.6,152.5c-0.1,0-0.1,0-0.2,0c-0.1,0-0.3,0-0.4,0l-0.3,0c-0.1,0-0.2,0-0.2,0c0,0-0.1,0-0.1,0L87.6,152.5z"
			/>
	</g>
</g>
</svg>
