<?xml version="1.0" encoding="utf-8"?>
<!-- Generator: Adobe Illustrator 25.4.1, SVG Export Plug-In . SVG Version: 6.00 Build 0)  -->
<svg version="1.1" id="Layer_1" xmlns="http://www.w3.org/2000/svg" xmlns:xlink="http://www.w3.org/1999/xlink" x="0px" y="0px"
	 viewBox="0 0 168 168" style="enable-background:new 0 0 168 168;" xml:space="preserve">
<style type="text/css">
	.st0{opacity:0.2;fill:#151110;enable-background:new    ;}
	.st1{fill:url(#SVGID_1_);}
	.st2{fill:#FFFFFF;}
	.st3{fill:#C00D0D;}
	.st4{fill:#151110;}
	.st5{fill:url(#SVGID_00000178190234327651854430000008429609130831427263_);}
	.st6{fill:url(#SVGID_00000093178042187264108580000001952338908719149480_);}
	.st7{fill:none;stroke:#A03394;stroke-width:9;stroke-miterlimit:10;}
	.st8{fill:url(#SVGID_00000048471252961533983940000006831344740002366891_);}
	.st9{fill:#F0F0F0;}
	.st10{fill:url(#SVGID_00000094578656138259122010000006551491492547922855_);}
	.st11{fill:url(#SVGID_00000062888943752127442970000007898828029897544870_);}
	.st12{fill:url(#SVGID_00000072256563405850551880000003300340910247399095_);}
	.st13{fill:url(#SVGID_00000110462416234649953790000003340467206605857937_);}
	.st14{fill:url(#SVGID_00000115479652541273527220000004067846115361672614_);}
	.st15{fill:url(#SVGID_00000016066240456531951260000011772186871366741169_);}
	.st16{fill:url(#SVGID_00000176757598329803234980000014869111593309062055_);}
	.st17{fill:url(#SVGID_00000063607769078272315880000004472011610726987653_);}
	.st18{fill:url(#SVGID_00000157287138244740146610000007532078337785395083_);}
	.st19{fill:url(#SVGID_00000158721452995617679930000007858245973445190831_);}
	.st20{fill:url(#SVGID_00000176753937661619921250000017887647433064148875_);}
	.st21{fill:url(#SVGID_00000156572268174039197890000000807982600724340640_);}
	.st22{fill:url(#SVGID_00000157280478488307254180000003000943646651523723_);}
	.st23{fill:url(#SVGID_00000103962330446937940320000017891079802497873313_);}
	.st24{fill:url(#SVGID_00000150820332909679433300000000605073872650477730_);}
	.st25{fill:url(#SVGID_00000088825286014530941590000010612409992239524757_);}
	.st26{fill:url(#SVGID_00000177479514267517977070000012565354840222691239_);}
	.st27{fill:url(#SVGID_00000181068852317417965600000013957194914597739165_);}
	.st28{fill:url(#SVGID_00000088098471517957284620000014040080486628112529_);}
	.st29{fill:url(#SVGID_00000177452442838950307570000010709135441668309427_);}
	.st30{fill:url(#SVGID_00000152946131800296987070000011897471751359375268_);}
	.st31{fill:url(#SVGID_00000077283182400515394870000006916414685204320147_);}
	.st32{fill:url(#SVGID_00000062189144243577072840000010279759311250778511_);}
	.st33{fill:url(#SVGID_00000106148128311345232410000015532859856196540040_);}
	.st34{fill:url(#SVGID_00000044153633183812609120000006318223276404912564_);}
	.st35{fill:url(#SVGID_00000085212575374349862210000002871936988874998672_);}
	.st36{fill:url(#SVGID_00000101786661429023335690000017751431929908652172_);}
	.st37{fill:url(#SVGID_00000068650732532917683230000001048502803795290001_);}
	.st38{fill:url(#SVGID_00000046332322872475377590000011982311806057170309_);}
	.st39{fill:url(#SVGID_00000173123631791634181840000015044793267943399820_);}
	.st40{fill:url(#SVGID_00000103242625484994936700000002377960480294822318_);}
	.st41{fill:url(#SVGID_00000085929984895352464750000010523578813358982556_);}
	.st42{fill:url(#SVGID_00000038390081420210827230000006912909380044955838_);}
	.st43{fill:url(#SVGID_00000063616848406288832710000004424425715837244341_);}
	.st44{fill:url(#SVGID_00000119813743826547156890000014571169480867729295_);}
	.st45{fill:url(#SVGID_00000062181172366025608780000012666974438663225001_);}
	.st46{fill:url(#SVGID_00000086691718383729649090000006501777451895017856_);}
	.st47{fill:url(#SVGID_00000134221549263264768660000007824883218320161722_);}
	.st48{fill:url(#SVGID_00000056428475846178402160000004893269563246774686_);}
	.st49{fill:url(#SVGID_00000049910165833786935200000015246514677712949175_);}
	.st50{fill:url(#SVGID_00000181076887572369079710000002153870215346942356_);}
	.st51{fill:url(#SVGID_00000016055021729620238270000003517136072893236380_);}
	.st52{fill:url(#SVGID_00000018919122433319462440000010632911517145869446_);}
	.st53{fill:url(#SVGID_00000038399912173780214060000014549913161845461436_);}
	.st54{fill:url(#SVGID_00000119093971381458404560000005249020586696681091_);}
	.st55{fill:url(#SVGID_00000168100916552571811740000003398517402140057218_);}
	.st56{fill:url(#SVGID_00000129927164998541877000000010051634111330974631_);}
	.st57{fill:url(#SVGID_00000055693813542493061960000003652822750407801228_);}
	.st58{fill:url(#SVGID_00000069384555529966009300000014266520575077155503_);}
	.st59{fill:url(#SVGID_00000168089001270981368620000007283826678600784022_);}
	.st60{fill:url(#SVGID_00000086691275788051571620000008851685952365959067_);}
	.st61{fill:url(#SVGID_00000061431775351956358050000008106038443390081725_);}
	.st62{fill:url(#SVGID_00000010994518970683508050000008592200426759152042_);}
	.st63{fill:url(#SVGID_00000115507398066617131890000004282934486383082169_);}
	.st64{fill:url(#SVGID_00000016056391325493116220000001659542917868648882_);}
	.st65{fill:url(#SVGID_00000178926769426005538660000007185737833796603038_);}
	.st66{fill:url(#SVGID_00000029047708098521527290000000041856384033954193_);}
	.st67{fill:url(#SVGID_00000099663995149217384140000000391862277156434612_);}
	.st68{fill:url(#SVGID_00000128485483552653350080000005964113166694858923_);}
	.st69{fill:url(#SVGID_00000178168507837425079870000013752625408576419732_);}
	.st70{fill:url(#SVGID_00000047779020147182836310000018221982960359534472_);}
	.st71{fill:url(#SVGID_00000036930678870721444360000008980837031663687854_);}
	.st72{fill:url(#SVGID_00000031178845783044458250000004268117740061781167_);}
	.st73{fill:url(#SVGID_00000093883824421819224790000008763401704733570484_);}
	.st74{fill:url(#SVGID_00000012431694446709997120000008546211099638818224_);}
	.st75{fill:url(#SVGID_00000057120445262947616630000016402155312622655154_);}
	.st76{fill:url(#SVGID_00000160177629764799893900000016698087365860148394_);}
	.st77{fill:url(#SVGID_00000070822115397803110030000009597024670422664590_);}
	.st78{fill:url(#SVGID_00000080893579957952884890000003617383643847785644_);}
	.st79{fill:url(#SVGID_00000157296166553110169180000005917091521648763307_);}
	.st80{fill:url(#SVGID_00000107558125938363158640000017432351108631011743_);}
	.st81{fill:url(#SVGID_00000034772783853701793230000009392092241566891158_);}
	.st82{fill:url(#SVGID_00000145039162489187522700000015791077776173313708_);}
	.st83{fill:url(#SVGID_00000164502915329306078570000003944765702054119595_);}
	.st84{fill:url(#SVGID_00000042738149683079190440000010949592488312778673_);}
	.st85{fill:url(#SVGID_00000080175011164420269030000011084920490434031005_);}
	.st86{fill:url(#SVGID_00000067233552867977767310000013982416760542760331_);}
	.st87{fill:url(#SVGID_00000138536325360891597160000001205011825747166646_);}
	.st88{fill:url(#SVGID_00000123413140087605294800000009821954185775238812_);}
	.st89{fill:url(#SVGID_00000123414319039412155330000017466999932421529244_);}
	.st90{fill:url(#SVGID_00000065059100237121481340000015260410339865355402_);}
	.st91{fill:url(#SVGID_00000160154642268071663780000000949054012731590302_);}
	.st92{fill:url(#SVGID_00000137831876167311734700000004028645846251132853_);}
	.st93{fill:url(#SVGID_00000013179265763725379670000013107204648137067434_);}
	.st94{fill:url(#SVGID_00000088850426056999033870000005048387615604175245_);}
	.st95{fill:url(#SVGID_00000137106207047615246330000012791240445153642136_);}
	.st96{fill:url(#SVGID_00000015333031557325543710000000962214538284375721_);}
	.st97{fill:url(#SVGID_00000012466571690680054310000012415007444843459968_);}
	.st98{fill:url(#SVGID_00000177470620371694741700000018327598761833108654_);}
	.st99{fill:url(#SVGID_00000096757445683950831230000015480221170366344089_);}
	.st100{fill:url(#SVGID_00000146462048194760999240000002035431284429952407_);}
	.st101{fill:url(#SVGID_00000159453681347468438560000016414404748220749736_);}
	.st102{fill:url(#SVGID_00000016792152176781812470000003637825889105392270_);}
	.st103{fill:url(#SVGID_00000114756791319319861330000005363279653107712434_);}
	.st104{fill:url(#SVGID_00000036961552259333963240000016574683010925993098_);}
	.st105{fill:url(#SVGID_00000008126637449899585340000011955409460200833720_);}
	.st106{fill:url(#SVGID_00000011004239187974777680000015457255203813159299_);}
	.st107{fill:url(#SVGID_00000050649705669639422620000015299453452206878875_);}
	.st108{fill:url(#SVGID_00000082326611460995159570000012740035228466549431_);}
	.st109{fill:url(#SVGID_00000014604628475499805610000014164561870659414162_);}
	.st110{fill:url(#SVGID_00000105403481495380446950000001019679125661247620_);}
	.st111{fill:url(#SVGID_00000170975412878075031520000014637708090943964306_);}
	.st112{fill:url(#SVGID_00000160881227784931240080000008677719950137962427_);}
	.st113{fill:url(#SVGID_00000006702069438651372010000001900855208493719701_);}
	.st114{fill:url(#SVGID_00000110449184371695464500000004512578172756715416_);}
	.st115{fill:url(#SVGID_00000075843451999237748050000008481576555695404944_);}
	.st116{fill:url(#SVGID_00000133506321611824084830000007156203272876250031_);}
	.st117{fill:url(#SVGID_00000160188473394902522380000016062229542555668126_);}
	.st118{fill:url(#SVGID_00000074407576642372766450000013522006497837468825_);}
	.st119{fill:url(#SVGID_00000033356753087600408260000003349931044342240943_);}
	.st120{fill:url(#SVGID_00000171708614794649684930000001151763273396154774_);}
	.st121{fill:url(#SVGID_00000161630612977810938920000013931353534519200403_);}
	.st122{fill:url(#SVGID_00000001624838529647277700000016498276623052245643_);}
	.st123{fill:url(#SVGID_00000018951926576830160290000017919657546250845597_);}
	.st124{fill:url(#SVGID_00000005966288332110025510000016462867524503160207_);}
	.st125{fill:url(#SVGID_00000119114507950781826450000003316853105433255340_);}
	.st126{fill:url(#SVGID_00000125563317415013724560000005582817824756549271_);}
	.st127{fill:url(#SVGID_00000121995170321401932630000013623762103690548644_);}
	.st128{fill:url(#SVGID_00000145050967280102910780000017838397544684316843_);}
	.st129{fill:url(#SVGID_00000038377516750464165590000000707543509328903574_);}
	.st130{fill:url(#SVGID_00000162321180745541282120000014215113990674165685_);}
	.st131{fill:url(#SVGID_00000124124537425443535080000011476165919961865907_);}
	.st132{fill:url(#SVGID_00000066473382121843570700000005557126773361545865_);}
	.st133{fill:url(#SVGID_00000174565240354455133270000012595814513747389586_);}
	.st134{fill:url(#SVGID_00000096765049313513215530000014669587469446127242_);}
	.st135{fill:url(#SVGID_00000029018839934309450690000016986000006329938367_);}
	.st136{fill:url(#SVGID_00000064318061536671498140000010547607876617249943_);}
	.st137{fill:url(#SVGID_00000097470165730279100930000013521427783655267499_);}
	.st138{fill:url(#SVGID_00000155846967094523733010000005862399426598514569_);}
	.st139{fill:url(#SVGID_00000008112584343187748350000012854854577955554436_);}
	.st140{fill:url(#SVGID_00000062913097813252244520000003584917799606812817_);}
	.st141{fill:url(#SVGID_00000101088013475828529740000015822663206339258806_);}
	.st142{fill:url(#SVGID_00000021822151919594979570000013281536196705345977_);}
	.st143{fill:url(#SVGID_00000020379708942434560680000011968433007127012237_);}
	.st144{fill:url(#SVGID_00000100351439693338080590000010058040055280136888_);}
	.st145{fill:url(#SVGID_00000068662663353357820670000013942432979464177825_);}
	.st146{fill:url(#SVGID_00000139999408317340001370000015396965603299348908_);}
	.st147{fill:url(#SVGID_00000012454240080757284880000011730136036897409201_);}
	.st148{fill:url(#SVGID_00000154422308412974796030000005320472095080704142_);}
	.st149{fill:url(#SVGID_00000058584163581505286450000017416526755193876915_);}
</style>
<g>
	<path class="st0" d="M78.9,152.6c-0.5,0.1-1,0.1-1.5,0.1l0,0L51.8,150l-3.1-10.9L31,32.5c0-0.2-0.1-0.4,0-0.5l-0.1-0.8l-0.1,0
		c29.3-14.9,54.8-9.6,54.8-9.6c-0.3,0-0.6,0-0.9,0c0.3,0,0.6,0,0.9,0L102,39.1l12,15.5l1.2,6.6l0.5,2.6l13.1,74.5
		c0.5,3-1.4,5.7-4.4,6.3L78.9,152.6L78.9,152.6z"/>
	
		<linearGradient id="SVGID_1_" gradientUnits="userSpaceOnUse" x1="539.6312" y1="-332.8161" x2="539.9095" y2="-367.8894" gradientTransform="matrix(0.1736 0.9848 -0.9848 0.1736 -373.1273 -379.188)">
		<stop  offset="0" style="stop-color:#5C5C5C"/>
		<stop  offset="0.1042" style="stop-color:#979797"/>
	</linearGradient>
	<path class="st1" d="M83.3,153.1l-7.1-0.8c-0.1,0-0.3,0-0.4,0l-0.3,0c-0.1,0-0.2,0-0.2,0l-0.1,0l-10.3-1.1l-4.2-0.5l-0.8-0.1
		l-0.9-0.1l-3.1-10.9l-0.6-3.6l-1-5.8c0,0,0,0,0,0l-1.5-8.8l-1-5.8l-9.3-55.8l-0.9-5.6L40,44.7l-0.9-5.6l-1-6.1l0,0
		c-0.1-0.4,0.1-0.8,0.3-1.1c0.1-0.1,0.2-0.2,0.3-0.3c0.1-0.1,0.3-0.1,0.4-0.2c0.1,0,0.2,0,0.3,0c0.1,0,0.1,0,0.1,0c0,0,0,0,0,0
		c0.1,0,0.1,0,0.2,0.1c0.3,0.1,0.6,0.2,0.9,0.3c5.9,2.3,9.6,7.1,12.5,12.8l11.9,22l1.5,8.4l13,73.9c0,0.1,0,0.2,0.1,0.3l0,0
		c0,0.1,0,0.2,0,0.4c0.4,2.5-1.9,2.8-3.4,2.8l6.7,0.7C83.2,153.1,83.2,153.1,83.3,153.1z"/>
	<g>
		<path class="st2" d="M75.6,23.7l-0.2-0.1C75.6,23.6,75.6,23.6,75.6,23.7z"/>
		<path class="st2" d="M62.9,57.2L57.3,47c0,0,0,0,0,0c0.4-0.5,6.7-8.2,24.4-10.7c18.2-2.6,25.8,2.5,25.8,2.5c-0.1,0-0.1,0-0.2,0
			c0,0,0.1,0,0.1,0c3.4,4.2,7.6,9.3,10.4,13.5c0.6,0.8-0.2,2-1.2,1.9c-16.7-1.3-30.2,1.6-44.9,8.9C67,65.5,65.5,61.9,62.9,57.2z"/>
		<polygon class="st3" points="64.9,151.3 59.9,150.8 59.5,148.7 64.6,149.2 		"/>
		<polygon class="st4" points="60.7,150.9 39.7,31.5 37.9,31.8 58.9,150.6 		"/>
		<ellipse transform="matrix(0.9848 -0.1736 0.1736 0.9848 -7.9642 7.8341)" class="st4" cx="40.8" cy="49.4" rx="4.4" ry="10.5"/>
		<ellipse transform="matrix(0.9848 -0.1736 0.1736 0.9848 -7.9642 7.8341)" class="st2" cx="40.8" cy="49.4" rx="2" ry="4.8"/>
		
			<ellipse transform="matrix(0.9848 -0.1736 0.1736 0.9848 -21.0131 11.3305)" class="st4" cx="54.2" cy="125.8" rx="4.4" ry="10.5"/>
		<ellipse transform="matrix(0.9848 -0.1736 0.1736 0.9848 -21.0131 11.3305)" class="st2" cx="54.2" cy="125.8" rx="2" ry="4.8"/>
		
			<linearGradient id="SVGID_00000029009888070066042910000003235617017312314295_" gradientUnits="userSpaceOnUse" x1="562.7219" y1="250.5388" x2="562.7219" y2="242.2865" gradientTransform="matrix(0.1736 0.9848 -0.9848 0.1736 209.8789 -481.9877)">
			<stop  offset="0.3111" style="stop-color:#000000"/>
			<stop  offset="1" style="stop-color:#37475E"/>
		</linearGradient>
		<path style="fill:url(#SVGID_00000029009888070066042910000003235617017312314295_);" d="M61.1,79.6l-4,0.7
			c-1.3,0.2-2.2,1.3-2,2.5l11.3,64.1c0.2,1.2,0.7,1.8,2.5,2.1l4.6,0.5c1.8,0.1,2.2-1.3,2-2.5L63.9,81.2C63.6,80,62.4,79.3,61.1,79.6
			z"/>
		<path class="st2" d="M135.8,138.9L121,55.3l-12-15.5L92.6,22.3c0,0,0,0,0,0c-0.3,0-0.6,0-0.9,0c-0.1,0-0.1,0-0.1,0
			c-6.2-0.3-12-0.1-17.3,0.5l0.1,0l1.2,0.8c0.1,0,0.2,0.1,0.2,0.1l-0.2-0.1c-1.5-0.4-14,2.2-17.3,4.2l-0.1-2.1
			c-6.8,1.8-12.6,4-17.3,6.2c5.9,2.3,9.6,7.1,12.5,12.8l11.9,22l14.5,82.2c0,0.1,0,0.2,0.1,0.3l0,0c0,0.1,0,0.2,0,0.4
			c0.4,2.5-1.9,2.8-3.4,2.8l6.7,0.7c0.1,0,0.2,0.1,0.2,0.1c0.8,0.3,1.7,0.3,2.6,0.2l45.5-8C134.2,144.7,136.3,141.9,135.8,138.9z
			 M62.9,57.2L57.3,47c0,0,0,0,0,0c0.4-0.5,6.7-8.2,24.4-10.7c18.2-2.6,25.8,2.5,25.8,2.5c-0.1,0-0.1,0-0.2,0c0,0,0.1,0,0.1,0
			c3.4,4.2,7.6,9.3,10.4,13.5c0.6,0.8-0.2,2-1.2,1.9c-16.7-1.3-30.2,1.6-44.9,8.9C67,65.5,65.5,61.9,62.9,57.2z"/>
		
			<linearGradient id="SVGID_00000139269204027253319110000000998505939596264623_" gradientUnits="userSpaceOnUse" x1="505.7397" y1="-379.3883" x2="493.9589" y2="-379.0549" gradientTransform="matrix(0.1736 0.9848 -0.9848 0.1736 -373.1273 -379.188)">
			<stop  offset="0.3111" style="stop-color:#000000"/>
			<stop  offset="1" style="stop-color:#37475E"/>
		</linearGradient>
		<path style="fill:url(#SVGID_00000139269204027253319110000000998505939596264623_);" d="M62.9,57.2L57.3,47c0,0,0,0,0,0
			c12.9-13.4,42.8-13,50-8.3c0,0,0.1,0,0.1,0c3.4,4.2,7.6,9.3,10.4,13.5c0.6,0.8-0.2,2-1.2,1.9c-16.7-1.3-30.2,1.6-44.9,8.9
			C67,65.5,65.5,61.9,62.9,57.2z"/>
		
			<linearGradient id="SVGID_00000075855370829579609130000018169193843149589944_" gradientUnits="userSpaceOnUse" x1="505.485" y1="250.3699" x2="505.485" y2="242.6803" gradientTransform="matrix(0.1736 0.9848 -0.9848 0.1736 209.8789 -481.9877)">
			<stop  offset="0.3111" style="stop-color:#000000"/>
			<stop  offset="1" style="stop-color:#37475E"/>
		</linearGradient>
		<path style="fill:url(#SVGID_00000075855370829579609130000018169193843149589944_);" d="M59.2,66.8l-5,0.9
			c-0.9,0.2-1.7-0.4-1.9-1.3l-2.5-14.2c-0.2-0.9,0.4-1.7,1.3-1.9l0.3-0.1c0.7-0.1,1.3,0.2,1.7,0.8l7.2,13.4
			C60.9,65.4,60.3,66.6,59.2,66.8z"/>
		<path d="M107.4,38.7c-20.2-3.7-35.8,1-50.1,8.3c0,0,0,0,0,0c0.4-0.5,6.7-8.2,24.4-10.7c18.2-2.6,25.8,2.5,25.8,2.5
			C107.5,38.8,107.4,38.8,107.4,38.7z"/>
		<path d="M40,32.2l-0.2,0L38.8,32l-0.4-0.1l-0.5-0.1c28.7-14.5,53.6-9.7,54.7-9.4c-0.3,0-0.6,0-0.9,0c-0.1,0-0.1,0-0.1,0
			c-6.2-0.3-12-0.1-17.3,0.5c-5.9,0.6-11.3,1.6-16.1,2.9c-6.8,1.8-12.6,4-17.3,6.2C40.5,32,40.2,32.1,40,32.2z"/>
		<path d="M75.6,23.7l-0.2-0.1C75.6,23.6,75.6,23.6,75.6,23.7z"/>
		<path d="M58.2,27.8l-0.1-2.1l0-0.4l0-0.2l15.7-2.8l0.2,0.1l0.3,0.2l0.1,0l1.2,0.8C73.9,23.2,61.5,25.8,58.2,27.8z"/>
		<path class="st9" d="M75.2,152.2L75.2,152.2C75.2,152.2,75.2,152.2,75.2,152.2C75.2,152.2,75.2,152.2,75.2,152.2z"/>
		<path class="st9" d="M76.3,152.3c-0.1,0-0.1,0-0.2,0c-0.1,0-0.3,0-0.4,0l-0.3,0c-0.1,0-0.2,0-0.2,0c0,0-0.1,0-0.1,0L76.3,152.3z"
			/>
	</g>
</g>
</svg>
