<?xml version="1.0" encoding="utf-8"?>
<!-- Generator: Adobe Illustrator 25.4.1, SVG Export Plug-In . SVG Version: 6.00 Build 0)  -->
<svg version="1.1" id="Layer_1" xmlns="http://www.w3.org/2000/svg" xmlns:xlink="http://www.w3.org/1999/xlink" x="0px" y="0px"
	 viewBox="0 0 168 168" style="enable-background:new 0 0 168 168;" xml:space="preserve">
<style type="text/css">
	.st0{opacity:0.2;fill:#151110;enable-background:new    ;}
	.st1{fill:url(#SVGID_1_);}
	.st2{fill:#FFFFFF;}
	.st3{fill:#C00D0D;}
	.st4{fill:#151110;}
	.st5{fill:url(#SVGID_00000087396942541044899290000006649198316040169378_);}
	.st6{fill:url(#SVGID_00000083064878643544540660000005484182088361110424_);}
	.st7{fill:none;stroke:#A03394;stroke-width:9;stroke-miterlimit:10;}
	.st8{fill:url(#SVGID_00000121996820824911721970000005229665456261860745_);}
	.st9{fill:#F0F0F0;}
	.st10{fill:url(#SVGID_00000179634067394673401120000016418165159164468615_);}
	.st11{fill:url(#SVGID_00000098212607788171180550000015666604091675414452_);}
	.st12{fill:url(#SVGID_00000019678486697292263100000009156210705000763534_);}
	.st13{fill:url(#SVGID_00000075139593765347597410000011627697658986091420_);}
	.st14{fill:url(#SVGID_00000034801588335941887580000000974215412011977629_);}
	.st15{fill:url(#SVGID_00000153663109761341246280000008001942007530955699_);}
	.st16{fill:url(#SVGID_00000110436871621761318470000011007867205367929728_);}
	.st17{fill:url(#SVGID_00000154427603114401356660000005524581089670636969_);}
	.st18{fill:url(#SVGID_00000109742720181496888180000010244636655981266362_);}
	.st19{fill:url(#SVGID_00000109013059104004177680000015696958227470251657_);}
	.st20{fill:url(#SVGID_00000030461462493413262740000000280097199800179080_);}
	.st21{fill:url(#SVGID_00000097493684102902743010000000010062826079188103_);}
	.st22{fill:url(#SVGID_00000156546237863316866380000003671271655792237994_);}
	.st23{fill:url(#SVGID_00000093858278760042445840000009866533099807568530_);}
	.st24{fill:url(#SVGID_00000013896237726910276120000006415640872566483597_);}
	.st25{fill:url(#SVGID_00000166650018818665921540000010816752748562164358_);}
	.st26{fill:url(#SVGID_00000171683194998194565010000011722261503849719177_);}
	.st27{fill:url(#SVGID_00000000215097502540862310000000364661634956726922_);}
	.st28{fill:url(#SVGID_00000029729058678663731400000013873725142048304053_);}
	.st29{fill:url(#SVGID_00000021799715991041775760000008922808034779429563_);}
	.st30{fill:url(#SVGID_00000058574140975105972520000006091068470590290066_);}
	.st31{fill:url(#SVGID_00000076573050196159835100000013485185119683959473_);}
	.st32{fill:url(#SVGID_00000035508409654006759800000016198285247777710986_);}
	.st33{fill:url(#SVGID_00000080899729598351852980000011190835613974763148_);}
	.st34{fill:url(#SVGID_00000093890528732218832890000017966744957892071813_);}
	.st35{fill:url(#SVGID_00000059307092250099592000000014654998700558891924_);}
	.st36{fill:url(#SVGID_00000023246244276959056770000004990407674506121861_);}
	.st37{fill:url(#SVGID_00000154394010597887737520000010359095448702571191_);}
	.st38{fill:url(#SVGID_00000054968919023055503540000018377729896595306400_);}
	.st39{fill:url(#SVGID_00000142891978282750499000000016044308419714565011_);}
	.st40{fill:url(#SVGID_00000160182342555949589320000001694013292094640297_);}
	.st41{fill:url(#SVGID_00000075143262932590578610000016662032372316166316_);}
	.st42{fill:url(#SVGID_00000005258856457947597170000013704423019695286659_);}
	.st43{fill:url(#SVGID_00000073707865342744683800000000757529023240381573_);}
	.st44{fill:url(#SVGID_00000162338253663700182200000000189207842341792931_);}
	.st45{fill:url(#SVGID_00000034776459451928938160000016176965239575100047_);}
	.st46{fill:url(#SVGID_00000003063132306080573710000009796292037628459404_);}
	.st47{fill:url(#SVGID_00000178204471762393406970000005931842315187247019_);}
	.st48{fill:url(#SVGID_00000169540797751948642960000014720320168128661384_);}
	.st49{fill:url(#SVGID_00000181051865677069010450000014821581416633036451_);}
	.st50{fill:url(#SVGID_00000121979558126111092180000003830810580517286529_);}
	.st51{fill:url(#SVGID_00000182490602261836528340000014265526086843338404_);}
	.st52{fill:url(#SVGID_00000116935699172639414160000012001484800072500391_);}
	.st53{fill:url(#SVGID_00000152943163024119476540000014107449487344457901_);}
	.st54{fill:url(#SVGID_00000157268570001148205670000017330772872018553233_);}
	.st55{fill:url(#SVGID_00000064340344663494139160000011656772467263990671_);}
	.st56{fill:url(#SVGID_00000098213116803671651740000007407269142009049222_);}
	.st57{fill:url(#SVGID_00000075140808652834197810000007634996793018376854_);}
	.st58{fill:url(#SVGID_00000132799657454198007190000014189048097738302372_);}
	.st59{fill:url(#SVGID_00000099627907378895901830000002487641934269540029_);}
	.st60{fill:url(#SVGID_00000168086390048656904440000005334327194727667135_);}
	.st61{fill:url(#SVGID_00000067916591847198207870000006345889133506569096_);}
	.st62{fill:url(#SVGID_00000148629884973428437680000001497837308572148159_);}
	.st63{fill:url(#SVGID_00000174566702104557578550000003065831025107434664_);}
	.st64{fill:url(#SVGID_00000112590213776100521650000015403753098641381263_);}
	.st65{fill:url(#SVGID_00000168825459278182327540000009549028480732844187_);}
	.st66{fill:url(#SVGID_00000155121012518783576700000012444825847052509102_);}
	.st67{fill:url(#SVGID_00000072995205905328868300000015596362799447631003_);}
	.st68{fill:url(#SVGID_00000161630996339549323930000004246354104191386045_);}
	.st69{fill:url(#SVGID_00000028322855093556472360000014443495344991401641_);}
	.st70{fill:url(#SVGID_00000042001986385432423700000009538577701887655315_);}
	.st71{fill:url(#SVGID_00000150097285654763888910000006298212533298154378_);}
	.st72{fill:url(#SVGID_00000023262527046069248320000018247946281163351955_);}
	.st73{fill:url(#SVGID_00000029753624512165262420000017686334902139037358_);}
	.st74{fill:url(#SVGID_00000144308606937813528670000012297425604875508398_);}
	.st75{fill:url(#SVGID_00000148622066116901619160000010926468461447136436_);}
	.st76{fill:url(#SVGID_00000178906459875153334490000011177341610051101873_);}
	.st77{fill:url(#SVGID_00000147178070273519752250000001889848768576736910_);}
	.st78{fill:url(#SVGID_00000101801848594710512820000007818113566800510366_);}
	.st79{fill:url(#SVGID_00000143591499938771869270000008465817167392082304_);}
	.st80{fill:url(#SVGID_00000125575790504878883180000004340745851405574799_);}
	.st81{fill:url(#SVGID_00000085943632191247193760000004394931050910759338_);}
	.st82{fill:url(#SVGID_00000148650053055051746280000010249400085056590983_);}
	.st83{fill:url(#SVGID_00000103265138324038567270000005556574759304353975_);}
	.st84{fill:url(#SVGID_00000128444850250017108340000005028608855879402887_);}
	.st85{fill:url(#SVGID_00000047743534425616117430000012933129848283139727_);}
	.st86{fill:url(#SVGID_00000039125395984367182790000009680676390506250687_);}
	.st87{fill:url(#SVGID_00000163030540501700296790000012880145704396944526_);}
	.st88{fill:url(#SVGID_00000161606288462058398050000015020813273018043031_);}
	.st89{fill:url(#SVGID_00000060741228402605282060000013542571134103861139_);}
	.st90{fill:url(#SVGID_00000170240196261161128170000014874549326286565511_);}
	.st91{fill:url(#SVGID_00000054225803680415043510000016004987033534021018_);}
	.st92{fill:url(#SVGID_00000180343936523504357760000006356921153770779269_);}
	.st93{fill:url(#SVGID_00000098922011871807711720000014865002314660567688_);}
	.st94{fill:url(#SVGID_00000038389901127096543850000013516784781648776323_);}
	.st95{fill:url(#SVGID_00000135670950037900289440000017764366608310894721_);}
	.st96{fill:url(#SVGID_00000074435538284197166660000015708809522780079506_);}
	.st97{fill:url(#SVGID_00000034784040238424182090000005573796470260543399_);}
	.st98{fill:url(#SVGID_00000090295075972634434970000012490594409583188402_);}
	.st99{fill:url(#SVGID_00000016076047364919459440000002105244892878839724_);}
	.st100{fill:url(#SVGID_00000172410738858135647600000013502479957081915053_);}
	.st101{fill:url(#SVGID_00000069375613876176630310000003398349093404784050_);}
	.st102{fill:url(#SVGID_00000114788581382275819600000010869027347319120036_);}
	.st103{fill:url(#SVGID_00000135669569991969702220000013268459084744921767_);}
	.st104{fill:url(#SVGID_00000092449338625864686090000010568012847877849246_);}
	.st105{fill:url(#SVGID_00000080891081250072479900000014740346780109543310_);}
	.st106{fill:url(#SVGID_00000104670637591940090700000008268125657108231817_);}
	.st107{fill:url(#SVGID_00000049930303220666996960000001691038905796353410_);}
	.st108{fill:url(#SVGID_00000029006007475894738590000009927235390791428256_);}
	.st109{fill:url(#SVGID_00000126295909935884099190000008251524249595590839_);}
	.st110{fill:url(#SVGID_00000029737203681029195490000010198208407197945277_);}
	.st111{fill:url(#SVGID_00000087378307844149412880000014725516929261109434_);}
	.st112{fill:url(#SVGID_00000000943872434336747820000002288913458694476451_);}
	.st113{fill:url(#SVGID_00000098187844779265255370000015550059238087629454_);}
	.st114{fill:url(#SVGID_00000145765171275086050560000003818713521261415864_);}
	.st115{fill:url(#SVGID_00000119816027158955653280000012432809908555711631_);}
	.st116{fill:url(#SVGID_00000035513469000811459510000009226304212524421268_);}
	.st117{fill:url(#SVGID_00000098215509994763554750000014590245636732528789_);}
	.st118{fill:url(#SVGID_00000043415854036872169090000015914855084168764840_);}
	.st119{fill:url(#SVGID_00000176757588073501660350000010761039649111065518_);}
	.st120{fill:url(#SVGID_00000029007322682752928100000016497817909702876321_);}
	.st121{fill:url(#SVGID_00000149344508605689601490000001512628664190158982_);}
	.st122{fill:url(#SVGID_00000014604867132917882140000012459772151252625060_);}
	.st123{fill:url(#SVGID_00000076571383661458422070000013858924327403392676_);}
	.st124{fill:url(#SVGID_00000092435062684381186570000004524811181190480562_);}
	.st125{fill:url(#SVGID_00000054970834933136350150000003701951653344894397_);}
	.st126{fill:url(#SVGID_00000045613320696058014540000015507654313593800324_);}
	.st127{fill:url(#SVGID_00000058589601467284149180000003162549656560945795_);}
	.st128{fill:url(#SVGID_00000070797885908017201270000000130169066213609899_);}
	.st129{fill:url(#SVGID_00000090973168525274731500000013625691101255032477_);}
	.st130{fill:url(#SVGID_00000081639346067623352010000013164828500029325233_);}
	.st131{fill:url(#SVGID_00000175302434241908909030000001633695946701318590_);}
	.st132{fill:url(#SVGID_00000052098434197900768130000009849818491788425108_);}
	.st133{fill:url(#SVGID_00000040554874552920573750000005529887401457027253_);}
	.st134{fill:url(#SVGID_00000000917262471215498960000012439230664371048580_);}
	.st135{fill:url(#SVGID_00000057110657827424019970000001771899480230460598_);}
	.st136{fill:url(#SVGID_00000150783176318130267990000005057090718348078738_);}
	.st137{fill:url(#SVGID_00000128483938723075366120000013778662404615043216_);}
	.st138{fill:url(#SVGID_00000034773362136710172050000011719863047487673258_);}
	.st139{fill:url(#SVGID_00000034768377542494407390000015617440615918860422_);}
	.st140{fill:url(#SVGID_00000162334199803566434280000007575144531466293912_);}
	.st141{fill:url(#SVGID_00000165194069596456967060000013523082469246168980_);}
	.st142{fill:url(#SVGID_00000000191372911829446690000014435116481855027865_);}
	.st143{fill:url(#SVGID_00000109745830000261502170000007186266137183421580_);}
	.st144{fill:url(#SVGID_00000044177572812095059110000006954969111322844057_);}
	.st145{fill:url(#SVGID_00000026873338872756642120000009953134982564872103_);}
	.st146{fill:url(#SVGID_00000002345946104486877130000004125412074082430395_);}
	.st147{fill:url(#SVGID_00000157987609992939041890000010475436154320828059_);}
	.st148{fill:url(#SVGID_00000145776729727394342640000009077290890005047710_);}
	.st149{fill:url(#SVGID_00000096055427428189808580000001251085732005977485_);}
</style>
<g>
	<path class="st0" d="M29.8,128.4c-0.4-0.3-0.7-0.7-1-1.1l0,0L14.3,106l6.3-9.4L91,14.5c0.1-0.2,0.3-0.3,0.4-0.3l0.5-0.6l-0.1-0.1
		c30.2,12.8,42.5,35.8,42.5,35.8c-0.2-0.3-0.4-0.5-0.6-0.7c0.2,0.3,0.4,0.5,0.6,0.7l-2.8,23.9l-4.1,19.1l-4.3,5.1l-1.7,2l-48.7,58
		c-1.9,2.3-5.3,2.6-7.6,0.7L29.8,128.4L29.8,128.4z"/>
	
		<linearGradient id="SVGID_1_" gradientUnits="userSpaceOnUse" x1="85.6317" y1="121.1834" x2="85.91" y2="86.1101" gradientTransform="matrix(-0.6428 0.766 -0.766 -0.6428 202.5424 79.9024)">
		<stop  offset="0" style="stop-color:#5C5C5C"/>
		<stop  offset="0.1042" style="stop-color:#979797"/>
	</linearGradient>
	<path class="st1" d="M32.2,132.1l-4-5.9c-0.1-0.1-0.2-0.2-0.2-0.3l-0.2-0.2c-0.1-0.1-0.1-0.1-0.1-0.2l-0.1-0.1l-5.8-8.5l-2.4-3.5
		l-0.5-0.7l-0.5-0.8l6.3-9.4l2.3-2.7l3.8-4.5c0,0,0,0,0,0l5.8-6.7l3.8-4.5l36.8-43l3.7-4.3l6.2-7.3l3.7-4.3l4-4.7l0,0
		c0.3-0.3,0.6-0.5,1-0.4c0.1,0,0.3,0,0.4,0.1c0.1,0.1,0.3,0.1,0.4,0.2c0.1,0.1,0.1,0.1,0.2,0.2c0,0,0.1,0.1,0.1,0.1c0,0,0,0,0,0
		c0,0.1,0.1,0.1,0.1,0.2c0.1,0.3,0.2,0.6,0.3,0.9c2,6,0.8,11.9-1.8,17.8l-9.2,23.2l-5.5,6.5l-48.2,57.5c-0.1,0.1-0.1,0.1-0.2,0.2
		l0,0c-0.1,0.1-0.2,0.2-0.3,0.3c-1.6,1.9-3.4,0.4-4.3-0.8l3.8,5.6C32.2,131.9,32.2,132,32.2,132.1z"/>
	<g>
		<path class="st2" d="M126.4,43l0-0.2C126.4,42.9,126.5,43,126.4,43z"/>
		<path class="st2" d="M92.5,54.8L96.8,44c0,0,0,0,0,0c0.6,0,10.6-0.1,23.9,11.8c13.7,12.3,14.7,21.4,14.7,21.4
			c0-0.1-0.1-0.1-0.1-0.2c0,0,0,0.1,0,0.1c-1,5.3-2.2,11.8-3.7,16.6c-0.3,0.9-1.6,1.1-2.2,0.3c-9.7-13.6-20.6-22.1-35.7-28.7
			C88.8,63.3,90.6,59.9,92.5,54.8z"/>
		<polygon class="st3" points="21.8,116.9 18.9,112.6 20.3,111 23.2,115.2 		"/>
		<polygon class="st4" points="19.4,113.4 97.3,20.5 96,19.3 18.5,111.8 		"/>
		<ellipse transform="matrix(0.6428 -0.766 0.766 0.6428 4.9229 76.3258)" class="st4" cx="84.3" cy="32.9" rx="10.5" ry="4.4"/>
		<ellipse transform="matrix(0.6428 -0.766 0.766 0.6428 4.9229 76.3258)" class="st2" cx="84.3" cy="32.9" rx="4.8" ry="2"/>
		<ellipse transform="matrix(0.6428 -0.766 0.766 0.6428 -58.3508 59.3717)" class="st4" cx="34.5" cy="92.3" rx="10.5" ry="4.4"/>
		<ellipse transform="matrix(0.6428 -0.766 0.766 0.6428 -58.3508 59.3717)" class="st2" cx="34.5" cy="92.3" rx="4.8" ry="2"/>
		
			<linearGradient id="SVGID_00000062908451312490368590000010582946217748686515_" gradientUnits="userSpaceOnUse" x1="108.7224" y1="704.5383" x2="108.7224" y2="696.286" gradientTransform="matrix(-0.6428 0.766 -0.766 -0.6428 656.0408 460.4326)">
			<stop  offset="0.3111" style="stop-color:#000000"/>
			<stop  offset="1" style="stop-color:#37475E"/>
		</linearGradient>
		<path style="fill:url(#SVGID_00000062908451312490368590000010582946217748686515_);" d="M74.3,67.8l-3.1-2.6
			c-1-0.8-2.4-0.9-3.2,0.1l-41.8,49.9c-0.8,0.9-0.9,1.7,0,3.3l2.5,3.8c1.1,1.5,2.4,0.9,3.2-0.1L74.8,71
			C75.6,70.1,75.3,68.7,74.3,67.8z"/>
		<path class="st2" d="M76.8,163.1l54.6-65l4.1-19.1l2.8-23.9c0,0,0,0,0,0c-0.2-0.2-0.4-0.4-0.5-0.7c0,0,0-0.1-0.1-0.1
			c-3.8-4.9-7.7-9.2-11.5-13l0,0.1l0.2,1.4c0,0.1,0.1,0.2,0,0.2l0-0.2c-0.7-1.4-10.7-9.3-14.3-10.6l1.5-1.4
			c-5.7-4.1-11.2-7.1-15.9-9.3c2,6,0.8,11.9-1.8,17.8l-9.2,23.2l-53.7,64c-0.1,0.1-0.1,0.1-0.2,0.2l0,0c-0.1,0.1-0.2,0.2-0.3,0.3
			c-1.6,1.9-3.4,0.4-4.3-0.8l3.8,5.6c0,0.1,0,0.2,0.1,0.2c0.3,0.8,0.8,1.5,1.5,2.1l35.4,29.7C71.4,165.7,74.9,165.4,76.8,163.1z
			 M92.5,54.8L96.8,44c0,0,0,0,0,0c0.6,0,10.6-0.1,23.9,11.8c13.7,12.3,14.7,21.4,14.7,21.4c0-0.1-0.1-0.1-0.1-0.2c0,0,0,0.1,0,0.1
			c-1,5.3-2.2,11.8-3.7,16.6c-0.3,0.9-1.6,1.1-2.2,0.3c-9.7-13.6-20.6-22.1-35.7-28.7C88.8,63.3,90.6,59.9,92.5,54.8z"/>
		
			<linearGradient id="SVGID_00000140720070463854852120000001157861474906907813_" gradientUnits="userSpaceOnUse" x1="51.7402" y1="74.6112" x2="39.9593" y2="74.9446" gradientTransform="matrix(-0.6428 0.766 -0.766 -0.6428 202.5424 79.9024)">
			<stop  offset="0.3111" style="stop-color:#000000"/>
			<stop  offset="1" style="stop-color:#37475E"/>
		</linearGradient>
		<path style="fill:url(#SVGID_00000140720070463854852120000001157861474906907813_);" d="M92.5,54.8L96.8,44c0,0,0,0,0,0
			c18.6,1.3,37.5,24.4,38.5,33c0,0,0,0.1,0,0.1c-1,5.3-2.2,11.8-3.7,16.6c-0.3,0.9-1.6,1.1-2.2,0.3c-9.7-13.6-20.6-22.1-35.7-28.7
			C88.8,63.3,90.6,59.9,92.5,54.8z"/>
		
			<linearGradient id="SVGID_00000151532385893897396720000004088617440628014500_" gradientUnits="userSpaceOnUse" x1="51.4855" y1="704.3694" x2="51.4855" y2="696.6798" gradientTransform="matrix(-0.6428 0.766 -0.766 -0.6428 656.0408 460.4326)">
			<stop  offset="0.3111" style="stop-color:#000000"/>
			<stop  offset="1" style="stop-color:#37475E"/>
		</linearGradient>
		<path style="fill:url(#SVGID_00000151532385893897396720000004088617440628014500_);" d="M82.8,58.1l-3.9-3.3
			c-0.7-0.6-0.8-1.6-0.2-2.3l9.3-11c0.6-0.7,1.6-0.8,2.3-0.2l0.2,0.2c0.5,0.4,0.7,1.1,0.4,1.8l-5.6,14.2
			C85,58.5,83.7,58.8,82.8,58.1z"/>
		<path d="M135.3,77c-10.1-17.8-23.7-26.7-38.5-33c0,0,0,0,0,0c0.6,0,10.6-0.1,23.9,11.8c13.7,12.3,14.7,21.4,14.7,21.4
			C135.3,77.1,135.3,77.1,135.3,77z"/>
		<path d="M97,21.2L96.9,21l-0.5-0.8l-0.2-0.4L96,19.3c29.5,12.6,41.9,34.9,42.4,35.8c-0.2-0.2-0.3-0.5-0.5-0.7c0,0,0-0.1-0.1-0.1
			c-3.8-4.9-7.7-9.2-11.5-13c-4.3-4.1-8.5-7.6-12.6-10.5c-5.7-4.1-11.2-7.1-15.9-9.3C97.5,21.4,97.2,21.3,97,21.2z"/>
		<path d="M126.4,43l0-0.2C126.4,42.9,126.5,43,126.4,43z"/>
		<path d="M112.1,32.3l1.5-1.4l0.3-0.3l0.1-0.1l12.2,10.2l0,0.2l0,0.4l0,0.1l0.2,1.4C125.7,41.4,115.7,33.5,112.1,32.3z"/>
		<path class="st9" d="M27.7,125.3L27.7,125.3C27.7,125.3,27.7,125.3,27.7,125.3C27.7,125.3,27.7,125.3,27.7,125.3z"/>
		<path class="st9" d="M28.3,126.3c0,0-0.1-0.1-0.1-0.1c-0.1-0.1-0.2-0.2-0.2-0.3l-0.2-0.2c-0.1-0.1-0.1-0.1-0.1-0.2c0,0,0,0,0-0.1
			L28.3,126.3z"/>
	</g>
</g>
</svg>
