<?xml version="1.0" encoding="utf-8"?>
<!-- Generator: Adobe Illustrator 25.4.1, SVG Export Plug-In . SVG Version: 6.00 Build 0)  -->
<svg version="1.1" id="Layer_1" xmlns="http://www.w3.org/2000/svg" xmlns:xlink="http://www.w3.org/1999/xlink" x="0px" y="0px"
	 viewBox="0 0 168 168" style="enable-background:new 0 0 168 168;" xml:space="preserve">
<style type="text/css">
	.st0{opacity:0.2;fill:#151110;enable-background:new    ;}
	.st1{fill:url(#SVGID_1_);}
	.st2{fill:#FFFFFF;}
	.st3{fill:#C00D0D;}
	.st4{fill:#151110;}
	.st5{fill:url(#SVGID_00000152240574183696590630000006958047934670208423_);}
	.st6{fill:url(#SVGID_00000001655574915156031330000015818462572417351098_);}
	.st7{fill:none;stroke:#A03394;stroke-width:9;stroke-miterlimit:10;}
	.st8{fill:url(#SVGID_00000034790737832707693000000008722108958247981452_);}
	.st9{fill:#F0F0F0;}
	.st10{fill:url(#SVGID_00000111152364162433043420000001725326435092459914_);}
	.st11{fill:url(#SVGID_00000105390426868995548480000012370496227878480567_);}
	.st12{fill:url(#SVGID_00000056387724376158467020000018307050520523224983_);}
	.st13{fill:url(#SVGID_00000088855841935418370220000008801323746058871194_);}
	.st14{fill:url(#SVGID_00000155846123761607577280000016053789587469894017_);}
	.st15{fill:url(#SVGID_00000023276324367988739270000006918310564433259156_);}
	.st16{fill:url(#SVGID_00000101100671803720793550000001991711876154078639_);}
	.st17{fill:url(#SVGID_00000008859615921513732310000013185767914470781828_);}
	.st18{fill:url(#SVGID_00000071535569507643318200000000842258285613630121_);}
	.st19{fill:url(#SVGID_00000173122261628370422750000006390665955959056816_);}
	.st20{fill:url(#SVGID_00000072973239052352020900000005286268612395198894_);}
	.st21{fill:url(#SVGID_00000134962522496568122630000005376950111295337373_);}
	.st22{fill:url(#SVGID_00000139261275819227314710000000873926137294169744_);}
	.st23{fill:url(#SVGID_00000065756674126349508850000009532981341736446358_);}
	.st24{fill:url(#SVGID_00000168820433014268655500000002042794412756672407_);}
	.st25{fill:url(#SVGID_00000018239239861156510280000001863941657066868655_);}
	.st26{fill:url(#SVGID_00000116207721843613097260000003610060801875749259_);}
	.st27{fill:url(#SVGID_00000053516197880844959330000010480091693876525246_);}
	.st28{fill:url(#SVGID_00000141418960489765743660000000074689132173008034_);}
	.st29{fill:url(#SVGID_00000085935515182789733590000005162483132443118513_);}
	.st30{fill:url(#SVGID_00000004511445740342683710000003379115944788036243_);}
	.st31{fill:url(#SVGID_00000131353878150059643610000001251619349917483704_);}
	.st32{fill:url(#SVGID_00000181045369400984071060000010518492680405697175_);}
	.st33{fill:url(#SVGID_00000111911505587522027850000010558032655683009716_);}
	.st34{fill:url(#SVGID_00000100350061413898356130000003517393450791085493_);}
	.st35{fill:url(#SVGID_00000098200194229302728860000001302924918719916445_);}
	.st36{fill:url(#SVGID_00000125568071132591483930000000627178529798743985_);}
	.st37{fill:url(#SVGID_00000124848766708557819980000001195641903526468522_);}
	.st38{fill:url(#SVGID_00000118379506469727732770000005868774500651471022_);}
	.st39{fill:url(#SVGID_00000124151923294830975020000012053147349869165743_);}
	.st40{fill:url(#SVGID_00000044894345895554575160000007539042058614072969_);}
	.st41{fill:url(#SVGID_00000142875763386801285950000009265301348415261332_);}
	.st42{fill:url(#SVGID_00000026141588670164743840000005464010881242980781_);}
	.st43{fill:url(#SVGID_00000175287171961073638450000004642290903568537744_);}
	.st44{fill:url(#SVGID_00000092417231218522685000000011515313189470851976_);}
	.st45{fill:url(#SVGID_00000137102661276392719790000009079507669930969764_);}
	.st46{fill:url(#SVGID_00000008838585588568316280000003377577000817910180_);}
	.st47{fill:url(#SVGID_00000114754539702761973040000003032452080932239509_);}
	.st48{fill:url(#SVGID_00000102521178613940631470000014375514701956494469_);}
	.st49{fill:url(#SVGID_00000160150252979126837530000000289951269450909069_);}
	.st50{fill:url(#SVGID_00000004523513164069711050000010502969027711669907_);}
	.st51{fill:url(#SVGID_00000057855594727020876760000017565672041578544013_);}
	.st52{fill:url(#SVGID_00000072993877517342283610000014846490643344338590_);}
	.st53{fill:url(#SVGID_00000112625609736004797930000000562093594878679461_);}
	.st54{fill:url(#SVGID_00000011022375992271230240000005810575785131841672_);}
	.st55{fill:url(#SVGID_00000060708816263696289700000007792255940082476955_);}
	.st56{fill:url(#SVGID_00000127045242014134576250000000069589110557214888_);}
	.st57{fill:url(#SVGID_00000147209863310956595020000018343604773670026423_);}
	.st58{fill:url(#SVGID_00000127748515720042761180000016215697422006081692_);}
	.st59{fill:url(#SVGID_00000146465565755907918030000013630379907700903868_);}
	.st60{fill:url(#SVGID_00000046313921111438415900000015941529298578980992_);}
	.st61{fill:url(#SVGID_00000182507819016846071720000010259757304491066801_);}
	.st62{fill:url(#SVGID_00000128453913534374728340000000862859667737694863_);}
	.st63{fill:url(#SVGID_00000130611248005655758570000005115984854932598171_);}
	.st64{fill:url(#SVGID_00000106845861708531984550000014440686318116432547_);}
	.st65{fill:url(#SVGID_00000171704989431315481250000016131580582420264067_);}
	.st66{fill:url(#SVGID_00000057107441951806270150000011731794503945806765_);}
	.st67{fill:url(#SVGID_00000117637162137493114500000017770888141816820649_);}
	.st68{fill:url(#SVGID_00000144320191788632353620000005986217688560392340_);}
	.st69{fill:url(#SVGID_00000048461372073519997680000002346353070006203784_);}
	.st70{fill:url(#SVGID_00000066517170079686626750000003921998687807696513_);}
	.st71{fill:url(#SVGID_00000128472809796790130780000001246772098809130380_);}
	.st72{fill:url(#SVGID_00000170971314385835171290000000333799015380622763_);}
	.st73{fill:url(#SVGID_00000002375885517933305170000018280493866063038607_);}
	.st74{fill:url(#SVGID_00000037673108715250364150000018376837831923805585_);}
	.st75{fill:url(#SVGID_00000163754510948594813500000017245030356819879868_);}
	.st76{fill:url(#SVGID_00000019646258328267571850000002939221728371800965_);}
	.st77{fill:url(#SVGID_00000042703836634979626520000009226551900043824558_);}
	.st78{fill:url(#SVGID_00000041273330058433274060000006029636131082113413_);}
	.st79{fill:url(#SVGID_00000029761318861153679260000005456216209949029532_);}
	.st80{fill:url(#SVGID_00000137134386719169543630000003086694603559167635_);}
	.st81{fill:url(#SVGID_00000083787581410162381560000000112104493644007339_);}
	.st82{fill:url(#SVGID_00000082331177815910556310000013518684018448355225_);}
	.st83{fill:url(#SVGID_00000037680589565793494540000005529348659780967083_);}
	.st84{fill:url(#SVGID_00000067953536148532713430000009787323613811072140_);}
	.st85{fill:url(#SVGID_00000012462986896905764110000010177735004333469826_);}
	.st86{fill:url(#SVGID_00000163770684200682531420000017791339953748541841_);}
	.st87{fill:url(#SVGID_00000143593457706223958240000016712741424975383970_);}
	.st88{fill:url(#SVGID_00000106855490609421207820000010485010717116767397_);}
	.st89{fill:url(#SVGID_00000173124566648789718240000004033867798995579326_);}
	.st90{fill:url(#SVGID_00000022553838994498787750000011379018186627690668_);}
	.st91{fill:url(#SVGID_00000090986150615727288970000001750157106502509203_);}
	.st92{fill:url(#SVGID_00000066501200116843202590000013460334646722286513_);}
	.st93{fill:url(#SVGID_00000094588442640617785010000015359195368393433762_);}
	.st94{fill:url(#SVGID_00000036941972553532637480000013769646225988183718_);}
	.st95{fill:url(#SVGID_00000018947810398493365030000002439663223841896857_);}
	.st96{fill:url(#SVGID_00000083088255372094853830000000034937820235768989_);}
	.st97{fill:url(#SVGID_00000145053855563021776670000009381359125141270974_);}
	.st98{fill:url(#SVGID_00000091009680153887712480000008442869927172841867_);}
	.st99{fill:url(#SVGID_00000093862001567143592830000004880758739578170517_);}
	.st100{fill:url(#SVGID_00000152226734619041328370000004015985623685336472_);}
	.st101{fill:url(#SVGID_00000049210649236813504420000005118991814782972846_);}
	.st102{fill:url(#SVGID_00000152229210618286910090000014297707597383257732_);}
	.st103{fill:url(#SVGID_00000006688399106938304480000007705959957009387706_);}
	.st104{fill:url(#SVGID_00000179643117689771720870000017527058890303900342_);}
	.st105{fill:url(#SVGID_00000015321555584487605550000012450115717912170669_);}
	.st106{fill:url(#SVGID_00000098187736957496892320000012811895865905532854_);}
	.st107{fill:url(#SVGID_00000107567285190411328670000007934704156818561200_);}
	.st108{fill:url(#SVGID_00000163048153830247812440000004821141437927328176_);}
	.st109{fill:url(#SVGID_00000133517982152888357930000003116856301322998441_);}
	.st110{fill:url(#SVGID_00000161632181269296545650000012700285810144973213_);}
	.st111{fill:url(#SVGID_00000163067194482469836380000005248713044803397302_);}
	.st112{fill:url(#SVGID_00000003821941462305474380000010374768274432658863_);}
	.st113{fill:url(#SVGID_00000085236624387409748060000009194622150887375530_);}
	.st114{fill:url(#SVGID_00000089570454734217036020000002872656980994222266_);}
	.st115{fill:url(#SVGID_00000027606079969342519210000006027241637132104377_);}
	.st116{fill:url(#SVGID_00000178885927568320578000000004347022279391071875_);}
	.st117{fill:url(#SVGID_00000170275577361922201060000010720668729007808393_);}
	.st118{fill:url(#SVGID_00000039111904027692317710000016723665239684820384_);}
	.st119{fill:url(#SVGID_00000120534611116693477870000010121396227521283769_);}
	.st120{fill:url(#SVGID_00000176726755803265500960000004840423895816007836_);}
	.st121{fill:url(#SVGID_00000131355724978974040790000010265300533879291326_);}
	.st122{fill:url(#SVGID_00000099622641260594555390000001455570443124953273_);}
	.st123{fill:url(#SVGID_00000161610274172743810810000005460625075863324811_);}
	.st124{fill:url(#SVGID_00000173849753280415251540000000174039758295063428_);}
	.st125{fill:url(#SVGID_00000025403928639345196360000018236051520683625356_);}
	.st126{fill:url(#SVGID_00000110467693075171998940000007397049909548632253_);}
	.st127{fill:url(#SVGID_00000119119884256850461850000003397092366997012411_);}
	.st128{fill:url(#SVGID_00000156548502508563312820000002612941493777280902_);}
	.st129{fill:url(#SVGID_00000127038232815046779310000009492005004898145408_);}
	.st130{fill:url(#SVGID_00000110447297128379567110000008941792512715651765_);}
	.st131{fill:url(#SVGID_00000155131176541989742130000007154540029889663882_);}
	.st132{fill:url(#SVGID_00000015315725735984075940000012422156571992896154_);}
	.st133{fill:url(#SVGID_00000124130053104566181800000000017520241209016487_);}
	.st134{fill:url(#SVGID_00000138565387090096528930000009110863224369429150_);}
	.st135{fill:url(#SVGID_00000117657164820218910880000008192333453633342638_);}
	.st136{fill:url(#SVGID_00000082349365633702107570000017103632665833429401_);}
	.st137{fill:url(#SVGID_00000097498035221510215500000009650684581986944410_);}
	.st138{fill:url(#SVGID_00000051358044376326338400000000632351388482375315_);}
	.st139{fill:url(#SVGID_00000081619042108096014310000001190155986409301945_);}
	.st140{fill:url(#SVGID_00000038414255022842070640000002955502543304182161_);}
	.st141{fill:url(#SVGID_00000044152966357650615810000017493907374293431973_);}
	.st142{fill:url(#SVGID_00000073716715628416991610000015431253752177182620_);}
	.st143{fill:url(#SVGID_00000032627169058404890690000001808493784131022737_);}
	.st144{fill:url(#SVGID_00000180355252783107771080000010902410367586878905_);}
	.st145{fill:url(#SVGID_00000090269201412551384440000009415673381836357564_);}
	.st146{fill:url(#SVGID_00000024710057093852906950000012829677531618441090_);}
	.st147{fill:url(#SVGID_00000086657777946144968210000015684603191622770048_);}
	.st148{fill:url(#SVGID_00000010994518499135094330000018333959105119061166_);}
	.st149{fill:url(#SVGID_00000000202360948421965730000004092627459962454915_);}
</style>
<g>
	<path class="st0" d="M23.7,119.7c-0.3-0.4-0.6-0.8-0.8-1.3l0,0L12.4,95l7.9-8.2l83.5-68.6c0.2-0.1,0.3-0.3,0.4-0.2l0.6-0.5
		l-0.1-0.1C132.3,35.2,140.4,60,140.4,60c-0.1-0.3-0.3-0.5-0.4-0.8c0.1,0.3,0.3,0.5,0.4,0.8l-6.9,23l-7.4,18.1l-5.1,4.3l-2,1.7
		l-58,48.7c-2.3,1.9-5.7,1.6-7.6-0.7L23.7,119.7L23.7,119.7z"/>
	
		<linearGradient id="SVGID_1_" gradientUnits="userSpaceOnUse" x1="85.6317" y1="121.1834" x2="85.91" y2="86.1101" gradientTransform="matrix(-0.766 0.6428 -0.6428 -0.766 202.2536 101.9603)">
		<stop  offset="0" style="stop-color:#5C5C5C"/>
		<stop  offset="0.1042" style="stop-color:#979797"/>
	</linearGradient>
	<path class="st1" d="M25.5,123.8l-2.9-6.5c-0.1-0.1-0.1-0.2-0.2-0.3l-0.1-0.3c0-0.1-0.1-0.2-0.1-0.2l0-0.1l-4.2-9.4l-1.7-3.9
		l-0.3-0.8l-0.4-0.9l7.9-8.2l2.8-2.3l4.6-3.7c0,0,0,0,0,0l6.9-5.6l4.6-3.8l43.7-36l4.4-3.6l7.4-6.1l4.4-3.6l4.8-3.9l0,0
		c0.3-0.3,0.7-0.3,1.1-0.2c0.1,0,0.3,0.1,0.4,0.1c0.1,0.1,0.3,0.2,0.4,0.3c0.1,0.1,0.1,0.2,0.2,0.3c0,0,0,0.1,0.1,0.1c0,0,0,0,0,0
		c0,0.1,0.1,0.1,0.1,0.2c0.1,0.3,0.1,0.6,0.2,0.9c0.9,6.3-1.3,11.9-4.9,17.2L91.2,64.8l-6.5,5.5l-57.5,48.2
		c-0.1,0.1-0.1,0.1-0.2,0.2l0,0c-0.1,0.1-0.2,0.1-0.3,0.2c-1.9,1.6-3.4-0.2-4.1-1.5l2.8,6.1C25.4,123.6,25.4,123.7,25.5,123.8z"/>
	<g>
		<path class="st2" d="M133.7,52.4l0-0.2C133.7,52.3,133.7,52.4,133.7,52.4z"/>
		<path class="st2" d="M98.3,58.1l6-9.9c0,0,0,0,0,0c0.6,0.1,10.4,1.7,21.4,15.8c11.4,14.5,10.8,23.6,10.8,23.6c0-0.1,0-0.1-0.1-0.2
			c0,0,0,0.1,0,0.1c-1.9,5-4.3,11.3-6.5,15.8c-0.4,0.9-1.8,0.8-2.3-0.1c-7.2-15.1-16.4-25.4-30.2-34.4
			C93.1,65.9,95.5,62.8,98.3,58.1z"/>
		<polygon class="st3" points="17.8,107 15.8,102.3 17.4,101 19.5,105.6 		"/>
		<polygon class="st4" points="16.1,103.1 109,25.2 107.8,23.8 15.4,101.4 		"/>
		<ellipse transform="matrix(0.766 -0.6428 0.6428 0.766 -0.5917 68.623)" class="st4" cx="94" cy="35.1" rx="10.5" ry="4.4"/>
		<ellipse transform="matrix(0.766 -0.6428 0.6428 0.766 -0.5917 68.623)" class="st2" cx="94" cy="35.1" rx="4.8" ry="2"/>
		<ellipse transform="matrix(0.766 -0.6428 0.6428 0.766 -46.5024 42.1164)" class="st4" cx="34.6" cy="84.9" rx="10.5" ry="4.4"/>
		<ellipse transform="matrix(0.766 -0.6428 0.6428 0.766 -46.5024 42.1164)" class="st2" cx="34.6" cy="84.9" rx="4.8" ry="2"/>
		
			<linearGradient id="SVGID_00000021809390605308952750000017285051239670355092_" gradientUnits="userSpaceOnUse" x1="108.7224" y1="704.5383" x2="108.7224" y2="696.286" gradientTransform="matrix(-0.766 0.6428 -0.6428 -0.766 582.7839 555.4586)">
			<stop  offset="0.3111" style="stop-color:#000000"/>
			<stop  offset="1" style="stop-color:#37475E"/>
		</linearGradient>
		<path style="fill:url(#SVGID_00000021809390605308952750000017285051239670355092_);" d="M78.1,67.8l-2.6-3.1
			c-0.8-1-2.2-1.3-3.2-0.5L22.4,106c-0.9,0.8-1.2,1.5-0.6,3.2l1.8,4.2c0.9,1.6,2.2,1.3,3.2,0.5L78,71C78.9,70.2,78.9,68.8,78.1,67.8
			z"/>
		<path class="st2" d="M64,162.1l65-54.6l7.4-18.1l6.9-23c0,0,0,0,0,0c-0.2-0.2-0.3-0.5-0.4-0.8c0-0.1,0-0.1-0.1-0.1
			c-2.9-5.5-5.9-10.4-9.1-14.8l0,0.1l-0.1,1.4c0,0.1,0,0.2,0,0.2l0-0.2c-0.5-1.5-8.9-11-12.3-12.9l1.8-1.2c-4.9-5-9.8-8.9-14-11.9
			c0.9,6.3-1.3,11.9-4.9,17.2L91.2,64.8l-64,53.7c-0.1,0.1-0.1,0.1-0.2,0.2l0,0c-0.1,0.1-0.2,0.1-0.3,0.2c-1.9,1.6-3.4-0.2-4.1-1.5
			l2.8,6.1c0,0.1,0,0.2,0,0.2c0.2,0.8,0.6,1.6,1.2,2.3l29.7,35.4C58.2,163.7,61.7,164,64,162.1z M98.3,58.1l6-9.9c0,0,0,0,0,0
			c0.6,0.1,10.4,1.7,21.4,15.8c11.4,14.5,10.8,23.6,10.8,23.6c0-0.1,0-0.1-0.1-0.2c0,0,0,0.1,0,0.1c-1.9,5-4.3,11.3-6.5,15.8
			c-0.4,0.9-1.8,0.8-2.3-0.1c-7.2-15.1-16.4-25.4-30.2-34.4C93.1,65.9,95.5,62.8,98.3,58.1z"/>
		
			<linearGradient id="SVGID_00000115501762389015406550000005321812328643265424_" gradientUnits="userSpaceOnUse" x1="51.7402" y1="74.6112" x2="39.9593" y2="74.9446" gradientTransform="matrix(-0.766 0.6428 -0.6428 -0.766 202.2536 101.9603)">
			<stop  offset="0.3111" style="stop-color:#000000"/>
			<stop  offset="1" style="stop-color:#37475E"/>
		</linearGradient>
		<path style="fill:url(#SVGID_00000115501762389015406550000005321812328643265424_);" d="M98.3,58.1l6-9.9c0,0,0,0,0,0
			c18.1,4.5,32.7,30.5,32.2,39.2c0,0,0,0.1,0,0.1c-1.9,5-4.3,11.3-6.5,15.8c-0.4,0.9-1.8,0.8-2.3-0.1c-7.2-15.1-16.4-25.4-30.2-34.4
			C93.1,65.9,95.5,62.8,98.3,58.1z"/>
		
			<linearGradient id="SVGID_00000028286088054862149190000015759513463556453025_" gradientUnits="userSpaceOnUse" x1="51.4855" y1="704.3694" x2="51.4855" y2="696.6798" gradientTransform="matrix(-0.766 0.6428 -0.6428 -0.766 582.7839 555.4586)">
			<stop  offset="0.3111" style="stop-color:#000000"/>
			<stop  offset="1" style="stop-color:#37475E"/>
		</linearGradient>
		<path style="fill:url(#SVGID_00000028286088054862149190000015759513463556453025_);" d="M88.1,59.7l-3.3-3.9
			c-0.6-0.7-0.5-1.7,0.2-2.3l11-9.3c0.7-0.6,1.7-0.5,2.3,0.2l0.2,0.2c0.4,0.5,0.5,1.3,0.1,1.9l-8,13C90.2,60.5,88.8,60.6,88.1,59.7z
			"/>
		<path d="M136.5,87.4c-6.9-19.3-18.7-30.5-32.2-39.2c0,0,0,0,0,0c0.6,0.1,10.4,1.7,21.4,15.8c11.4,14.5,10.8,23.6,10.8,23.6
			C136.6,87.6,136.5,87.5,136.5,87.4z"/>
		<path d="M108.5,25.8l-0.1-0.2l-0.3-0.9l-0.1-0.4l-0.2-0.5c26.9,17.6,35.2,41.6,35.5,42.6c-0.1-0.3-0.3-0.5-0.4-0.8
			c0-0.1,0-0.1-0.1-0.1c-2.9-5.5-5.9-10.4-9.1-14.8c-3.5-4.8-7.1-9-10.6-12.5c-4.9-5-9.8-8.9-14-11.9
			C108.9,26.1,108.7,26,108.5,25.8z"/>
		<path d="M133.7,52.4l0-0.2C133.7,52.3,133.7,52.4,133.7,52.4z"/>
		<path d="M121.4,39.4l1.8-1.2l0.3-0.2l0.1-0.1l10.2,12.2l0,0.2l0,0.4l0,0.1l-0.1,1.4C133.3,50.7,124.8,41.2,121.4,39.4z"/>
		<path class="st9" d="M22.1,116.3L22.1,116.3C22.2,116.3,22.1,116.3,22.1,116.3C22.1,116.3,22.1,116.3,22.1,116.3z"/>
		<path class="st9" d="M22.6,117.4c0,0,0-0.1-0.1-0.1c-0.1-0.1-0.1-0.2-0.2-0.3l-0.1-0.3c0-0.1-0.1-0.2-0.1-0.2c0,0,0-0.1,0-0.1
			L22.6,117.4z"/>
	</g>
</g>
</svg>
