<?xml version="1.0" encoding="utf-8"?>
<!-- Generator: Adobe Illustrator 25.4.1, SVG Export Plug-In . SVG Version: 6.00 Build 0)  -->
<svg version="1.1" id="Layer_1" xmlns="http://www.w3.org/2000/svg" xmlns:xlink="http://www.w3.org/1999/xlink" x="0px" y="0px"
	 viewBox="0 0 168 168" style="enable-background:new 0 0 168 168;" xml:space="preserve">
<style type="text/css">
	.st0{opacity:0.2;fill:#151110;enable-background:new    ;}
	.st1{fill:url(#SVGID_1_);}
	.st2{fill:#FFFFFF;}
	.st3{fill:#C00D0D;}
	.st4{fill:#151110;}
	.st5{fill:url(#SVGID_00000054267363903912557690000014418181063320753582_);}
	.st6{fill:url(#SVGID_00000147900002407567672980000012937259088635474081_);}
	.st7{fill:none;stroke:#A03394;stroke-width:9;stroke-miterlimit:10;}
	.st8{fill:url(#SVGID_00000100356027869006580750000012607726343665216181_);}
	.st9{fill:#F0F0F0;}
	.st10{fill:url(#SVGID_00000000194294579566093250000001697695358762092958_);}
	.st11{fill:url(#SVGID_00000181089647897135545840000016790840436335606692_);}
	.st12{fill:url(#SVGID_00000145753071730495390060000005459937395111071370_);}
	.st13{fill:url(#SVGID_00000023239769106479969440000007327829623744731835_);}
	.st14{fill:url(#SVGID_00000054247895801134096520000005145901913031450755_);}
	.st15{fill:url(#SVGID_00000129199940879777736640000014060425343777259932_);}
	.st16{fill:url(#SVGID_00000106842839277410157450000008708075789092131237_);}
	.st17{fill:url(#SVGID_00000038395066408220953640000016306839718354835380_);}
	.st18{fill:url(#SVGID_00000159459735325317134910000008322358793004274066_);}
	.st19{fill:url(#SVGID_00000156576983226015756720000015153581642514714247_);}
	.st20{fill:url(#SVGID_00000003823380295321719840000005003785530354496934_);}
	.st21{fill:url(#SVGID_00000031903081550058953440000004358380873182621834_);}
	.st22{fill:url(#SVGID_00000018953450371663559690000006883745712326008741_);}
	.st23{fill:url(#SVGID_00000154398151646018368180000013009349943348578956_);}
	.st24{fill:url(#SVGID_00000127723694627713626000000013674437345230113202_);}
	.st25{fill:url(#SVGID_00000074434762812727693900000017094032327636678052_);}
	.st26{fill:url(#SVGID_00000078746670692184993370000007240202908767518848_);}
	.st27{fill:url(#SVGID_00000119820615082573187280000000454504123105201076_);}
	.st28{fill:url(#SVGID_00000024003317259629244280000010429170963798693038_);}
	.st29{fill:url(#SVGID_00000042729331237339493690000001654218822111846564_);}
	.st30{fill:url(#SVGID_00000087383961831811862280000001650650371538913174_);}
	.st31{fill:url(#SVGID_00000054986541811130262080000001166854387769921931_);}
	.st32{fill:url(#SVGID_00000165208304381683551250000009508443891409977252_);}
	.st33{fill:url(#SVGID_00000051346106293592589440000005738037439483465130_);}
	.st34{fill:url(#SVGID_00000183961366232264644850000010036816400078169254_);}
	.st35{fill:url(#SVGID_00000042738718475205733230000000922973520542382012_);}
	.st36{fill:url(#SVGID_00000012437717560404392140000006379007749174002088_);}
	.st37{fill:url(#SVGID_00000084526915662052118800000006491607253053159827_);}
	.st38{fill:url(#SVGID_00000046325434991036408690000002667939467136086692_);}
	.st39{fill:url(#SVGID_00000083807506869659104070000016616817562351826086_);}
	.st40{fill:url(#SVGID_00000108990610079625485510000013981032929409621686_);}
	.st41{fill:url(#SVGID_00000165204980464985186490000000548026844118512051_);}
	.st42{fill:url(#SVGID_00000116924196767407554460000007096933181224573609_);}
	.st43{fill:url(#SVGID_00000119103543935164823510000017936378985749903291_);}
	.st44{fill:url(#SVGID_00000010312435605798163500000011530968403846902681_);}
	.st45{fill:url(#SVGID_00000052074768031541433310000014132479818810379407_);}
	.st46{fill:url(#SVGID_00000036236967290687848420000006765298649677592716_);}
	.st47{fill:url(#SVGID_00000079454442612213266500000011877827860864267929_);}
	.st48{fill:url(#SVGID_00000132782979909426638480000014184693063576607370_);}
	.st49{fill:url(#SVGID_00000011003567254428011400000000255859826004756612_);}
	.st50{fill:url(#SVGID_00000012470120517151352840000000096565876613023384_);}
	.st51{fill:url(#SVGID_00000016753840735553414320000009829559056058369186_);}
	.st52{fill:url(#SVGID_00000148626114803092186230000010513492279634492051_);}
	.st53{fill:url(#SVGID_00000023249280544844285070000008524176338676434108_);}
	.st54{fill:url(#SVGID_00000158707839745546450260000005882163159886984874_);}
	.st55{fill:url(#SVGID_00000086671821038241543030000011642283459114688703_);}
	.st56{fill:url(#SVGID_00000041282446769165352510000012108450553394088854_);}
	.st57{fill:url(#SVGID_00000004519948270159570580000017016694957592050870_);}
	.st58{fill:url(#SVGID_00000163795371608541759840000017656093248855598759_);}
	.st59{fill:url(#SVGID_00000018204949059130861970000014477821703170251184_);}
	.st60{fill:url(#SVGID_00000111155322384698353620000017031854126675791247_);}
	.st61{fill:url(#SVGID_00000183965428384583361930000002721089072942934945_);}
	.st62{fill:url(#SVGID_00000106844280601587189710000008938606278640948902_);}
	.st63{fill:url(#SVGID_00000148643821333003368570000013367618773063551932_);}
	.st64{fill:url(#SVGID_00000171688682911315290040000016078935991214214321_);}
	.st65{fill:url(#SVGID_00000002373750462258947950000004771848108497051832_);}
	.st66{fill:url(#SVGID_00000073699838542342144010000012714729574426571429_);}
	.st67{fill:url(#SVGID_00000093871753620119070120000017433058093021577859_);}
	.st68{fill:url(#SVGID_00000142177636007272923670000013669821328019250060_);}
	.st69{fill:url(#SVGID_00000062166969884013241740000001120295541196231563_);}
	.st70{fill:url(#SVGID_00000111876964683103615950000002248404324563820726_);}
	.st71{fill:url(#SVGID_00000137102804991527229480000012696613666518279299_);}
	.st72{fill:url(#SVGID_00000096739036805012858860000000143109969346720922_);}
	.st73{fill:url(#SVGID_00000114073471297848356820000015672726972465185927_);}
	.st74{fill:url(#SVGID_00000183930669327212267200000001837792823973843635_);}
	.st75{fill:url(#SVGID_00000088120067619049415070000000477682352826298806_);}
	.st76{fill:url(#SVGID_00000155140415120064790280000009667636593922668949_);}
	.st77{fill:url(#SVGID_00000093170387979289191650000016871995910362287239_);}
	.st78{fill:url(#SVGID_00000108297857445010104120000013513893161573932456_);}
	.st79{fill:url(#SVGID_00000178914606986949425630000004788624210706585984_);}
	.st80{fill:url(#SVGID_00000071522290471497765740000007987685826487693750_);}
	.st81{fill:url(#SVGID_00000114036223352170270430000005581290337116702373_);}
	.st82{fill:url(#SVGID_00000037671237247385293690000000638700804877873315_);}
	.st83{fill:url(#SVGID_00000128458572677368156190000001679533085256844465_);}
	.st84{fill:url(#SVGID_00000094588577087900069570000002925356030822244244_);}
	.st85{fill:url(#SVGID_00000049911554039731027250000016125956800048808615_);}
	.st86{fill:url(#SVGID_00000092438137471872139020000010321492936636697527_);}
	.st87{fill:url(#SVGID_00000077294997254363663140000009962470515132607630_);}
	.st88{fill:url(#SVGID_00000008109222343416530860000011254170396612719787_);}
	.st89{fill:url(#SVGID_00000122709142952339284820000016344821453699742599_);}
	.st90{fill:url(#SVGID_00000025418370604736605270000004361935542641935014_);}
	.st91{fill:url(#SVGID_00000001632340113668197820000013175347489922132140_);}
	.st92{fill:url(#SVGID_00000021835016433447779020000017001974383421236402_);}
	.st93{fill:url(#SVGID_00000054975053787591288360000009306677788625254801_);}
	.st94{fill:url(#SVGID_00000083807483470124611240000003482183801424737931_);}
	.st95{fill:url(#SVGID_00000106112025208907222700000003532112898818226873_);}
	.st96{fill:url(#SVGID_00000049915543754820266690000009941384987827822743_);}
	.st97{fill:url(#SVGID_00000069399627347864175560000010873817011424799928_);}
	.st98{fill:url(#SVGID_00000123427357694921014430000012328523138627887253_);}
	.st99{fill:url(#SVGID_00000058580935911385976090000015271635423145549468_);}
	.st100{fill:url(#SVGID_00000049911150961033952680000007518936117820474251_);}
	.st101{fill:url(#SVGID_00000159464787228324642120000014007998122993264539_);}
	.st102{fill:url(#SVGID_00000026848562673356099150000013133826016596103059_);}
	.st103{fill:url(#SVGID_00000077302504036796736830000017589764406608114603_);}
	.st104{fill:url(#SVGID_00000052792392473429426030000002156363146524019091_);}
	.st105{fill:url(#SVGID_00000034063490761509705990000003881778165997731720_);}
	.st106{fill:url(#SVGID_00000015327091164954308120000013902919921897062076_);}
	.st107{fill:url(#SVGID_00000086679553929293560500000002112495259150935969_);}
	.st108{fill:url(#SVGID_00000167371999471106993700000012611869965350220697_);}
	.st109{fill:url(#SVGID_00000087407067266520341210000015271620506019422087_);}
	.st110{fill:url(#SVGID_00000018205897114933189000000018392710127704140222_);}
	.st111{fill:url(#SVGID_00000043432215227765644520000007791439730188708508_);}
	.st112{fill:url(#SVGID_00000086660247610889389270000017976881520368410043_);}
	.st113{fill:url(#SVGID_00000056411881002765710650000007224454208409705148_);}
	.st114{fill:url(#SVGID_00000133509613352021295600000013780107277967452554_);}
	.st115{fill:url(#SVGID_00000181770496623453540900000015239205007459700155_);}
	.st116{fill:url(#SVGID_00000174582608696406093680000017672745691152865680_);}
	.st117{fill:url(#SVGID_00000155832226142405916480000004206908795671405212_);}
	.st118{fill:url(#SVGID_00000035499584221403856140000006613741969021234568_);}
	.st119{fill:url(#SVGID_00000181789666018841975640000015496856743007538308_);}
	.st120{fill:url(#SVGID_00000157297629786778201990000015615321843362738598_);}
	.st121{fill:url(#SVGID_00000063633078240841720800000009614464160345329304_);}
	.st122{fill:url(#SVGID_00000150810723403319707620000004059213558168252803_);}
	.st123{fill:url(#SVGID_00000078741220784272074400000007893345165182721417_);}
	.st124{fill:url(#SVGID_00000035528670231965198640000011366563123246614177_);}
	.st125{fill:url(#SVGID_00000100375223704324591760000006510480385602583719_);}
	.st126{fill:url(#SVGID_00000002356915694335121070000001569504792209732234_);}
	.st127{fill:url(#SVGID_00000065779333508228432000000002876257495614447542_);}
	.st128{fill:url(#SVGID_00000013906648562898379710000012032744957224335781_);}
	.st129{fill:url(#SVGID_00000003822050746421715090000010102787779206049709_);}
	.st130{fill:url(#SVGID_00000106143001858083519370000014214507595970138016_);}
	.st131{fill:url(#SVGID_00000100349581583466345010000008053465737731166367_);}
	.st132{fill:url(#SVGID_00000047059750468147877290000003988600371317141160_);}
	.st133{fill:url(#SVGID_00000103252531894495737460000004937958404966597294_);}
	.st134{fill:url(#SVGID_00000128443229815365310510000003814122395576875398_);}
	.st135{fill:url(#SVGID_00000096737604855148907740000008116621229641682867_);}
	.st136{fill:url(#SVGID_00000182502529974450967360000008141896468881294984_);}
	.st137{fill:url(#SVGID_00000150099581481263637860000014178389834103103396_);}
	.st138{fill:url(#SVGID_00000131366440380892238400000010181236476118451899_);}
	.st139{fill:url(#SVGID_00000075164493198031461270000002296109064563758247_);}
	.st140{fill:url(#SVGID_00000039127736501257610440000008085113767807337368_);}
	.st141{fill:url(#SVGID_00000083794191806071656040000017054112023282795186_);}
	.st142{fill:url(#SVGID_00000003062891415923707100000013120302188750286498_);}
	.st143{fill:url(#SVGID_00000140717999492460721270000012973704066405539753_);}
	.st144{fill:url(#SVGID_00000096774625825724249020000012740175476171335572_);}
	.st145{fill:url(#SVGID_00000005974375923778657370000010399613286398230439_);}
	.st146{fill:url(#SVGID_00000120549095683202913120000003549971976173803443_);}
	.st147{fill:url(#SVGID_00000045613474061025786130000009319937792862157728_);}
	.st148{fill:url(#SVGID_00000147932237164477257820000002968370854446594490_);}
	.st149{fill:url(#SVGID_00000127011188849687990250000016485792330355343545_);}
</style>
<g>
	<path class="st0" d="M19.4,109.8c-0.2-0.4-0.4-0.9-0.6-1.4l0,0l-6.3-24.9l9.2-6.7l94.2-53.1c0.2-0.1,0.3-0.2,0.5-0.2l0.7-0.4
		l-0.1-0.1c24,22.4,27.7,48.2,27.7,48.2c-0.1-0.3-0.2-0.6-0.3-0.9c0.1,0.3,0.2,0.6,0.3,0.9l-10.8,21.5l-10.4,16.5l-5.8,3.3l-2.3,1.3
		l-65.6,37.8c-2.6,1.5-5.9,0.6-7.4-2L19.4,109.8L19.4,109.8z"/>
	
		<linearGradient id="SVGID_1_" gradientUnits="userSpaceOnUse" x1="85.6317" y1="121.1834" x2="85.91" y2="86.1101" gradientTransform="matrix(-0.866 0.5 -0.5 -0.866 198.347 123.3865)">
		<stop  offset="0" style="stop-color:#5C5C5C"/>
		<stop  offset="0.1042" style="stop-color:#979797"/>
	</linearGradient>
	<path class="st1" d="M20.4,114.2l-1.7-7c0-0.1-0.1-0.2-0.1-0.4l-0.1-0.3c0-0.1,0-0.2-0.1-0.2l0-0.1l-2.5-10l-1-4.1l-0.2-0.8
		l-0.2-0.9l9.2-6.7l3.1-1.8L32,79c0,0,0,0,0,0l7.7-4.4l5.1-2.9l49.3-27.8l5-2.8l8.4-4.7l5-2.8l5.4-3.1l0,0c0.4-0.2,0.8-0.2,1.1-0.1
		c0.1,0,0.2,0.1,0.3,0.2c0.1,0.1,0.2,0.2,0.3,0.4c0,0.1,0.1,0.2,0.1,0.3c0,0,0,0.1,0,0.1c0,0,0,0,0,0c0,0.1,0,0.1,0,0.2
		c0,0.3,0,0.6,0,1c-0.2,6.3-3.3,11.5-7.8,16.1L95.5,67.5l-7.3,4.2l-65,37.5c-0.1,0-0.2,0.1-0.2,0.2l0,0c-0.1,0-0.2,0.1-0.3,0.2
		c-2.2,1.3-3.3-0.8-3.7-2.2l1.7,6.5C20.4,114,20.4,114.1,20.4,114.2z"/>
	<g>
		<path class="st2" d="M139.4,62.7l0-0.2C139.5,62.6,139.5,62.7,139.4,62.7z"/>
		<path class="st2" d="M103.6,62.2l7.7-8.7c0,0,0,0,0,0c0.6,0.2,10,3.5,18.4,19.3c8.7,16.2,6.5,25.1,6.5,25.1c0-0.1,0-0.1,0-0.2
			c0,0,0,0.1,0,0.1c-2.8,4.6-6.1,10.4-9.1,14.4c-0.6,0.8-1.9,0.5-2.2-0.4C120.3,95.6,113,83.9,101,72.5
			C97.2,68.9,100,66.3,103.6,62.2z"/>
		<polygon class="st3" points="15.9,96.3 14.6,91.4 16.4,90.3 17.7,95.2 		"/>
		<polygon class="st4" points="14.8,92.2 119.8,31.5 118.9,30 14.4,90.4 		"/>
		<ellipse transform="matrix(0.866 -0.5 0.5 0.866 -5.5396 56.8526)" class="st4" cx="103.3" cy="38.8" rx="10.5" ry="4.4"/>
		<ellipse transform="matrix(0.866 -0.5 0.5 0.866 -5.5396 56.8526)" class="st2" cx="103.3" cy="38.8" rx="4.8" ry="2"/>
		<ellipse transform="matrix(0.866 -0.5 0.5 0.866 -33.9066 28.4856)" class="st4" cx="36.2" cy="77.5" rx="10.5" ry="4.4"/>
		<ellipse transform="matrix(0.866 -0.5 0.5 0.866 -33.9066 28.4856)" class="st2" cx="36.2" cy="77.5" rx="4.8" ry="2"/>
		
			<linearGradient id="SVGID_00000090974166223487720620000008183030318054281136_" gradientUnits="userSpaceOnUse" x1="108.7224" y1="704.5383" x2="108.7224" y2="696.286" gradientTransform="matrix(-0.866 0.5 -0.5 -0.866 494.347 636.0735)">
			<stop  offset="0.3111" style="stop-color:#000000"/>
			<stop  offset="1" style="stop-color:#37475E"/>
		</linearGradient>
		<path style="fill:url(#SVGID_00000090974166223487720620000008183030318054281136_);" d="M82,68.2l-2-3.6c-0.7-1.1-2-1.6-3-1
			L20.5,96.2c-1,0.6-1.4,1.3-1.1,3.1l1.1,4.5c0.6,1.8,2,1.6,3,1l57.9-33.4C82.4,70.7,82.6,69.3,82,68.2z"/>
		<path class="st2" d="M51.7,158.6l73.5-42.5l10.4-16.5l10.8-21.5c0,0,0,0,0,0c-0.1-0.3-0.2-0.5-0.3-0.8c0-0.1,0-0.1,0-0.1
			c-1.9-5.9-4-11.3-6.4-16.1l0,0.1l-0.3,1.4c0,0.1,0,0.2,0,0.2l0-0.2c-0.2-1.6-6.8-12.4-9.9-14.8l1.9-0.8c-4-5.8-8.1-10.5-11.7-14.2
			c-0.2,6.3-3.3,11.5-7.8,16.1L95.5,67.5l-72.3,41.8c-0.1,0-0.2,0.1-0.2,0.2l0,0c-0.1,0-0.2,0.1-0.3,0.2c-2.2,1.3-3.3-0.8-3.7-2.2
			l1.7,6.5c0,0.1,0,0.2,0,0.2c0,0.8,0.3,1.7,0.7,2.5l23.1,40C45.8,159.1,49.1,160.1,51.7,158.6z M103.6,62.2l7.7-8.7c0,0,0,0,0,0
			c0.6,0.2,10,3.5,18.4,19.3c8.7,16.2,6.5,25.1,6.5,25.1c0-0.1,0-0.1,0-0.2c0,0,0,0.1,0,0.1c-2.8,4.6-6.1,10.4-9.1,14.4
			c-0.6,0.8-1.9,0.5-2.2-0.4C120.3,95.6,113,83.9,101,72.5C97.2,68.9,100,66.3,103.6,62.2z"/>
		
			<linearGradient id="SVGID_00000165945924084684989450000009330795008186811573_" gradientUnits="userSpaceOnUse" x1="51.7402" y1="74.6112" x2="39.9593" y2="74.9446" gradientTransform="matrix(-0.866 0.5 -0.5 -0.866 198.347 123.3865)">
			<stop  offset="0.3111" style="stop-color:#000000"/>
			<stop  offset="1" style="stop-color:#37475E"/>
		</linearGradient>
		<path style="fill:url(#SVGID_00000165945924084684989450000009330795008186811573_);" d="M103.6,62.2l7.7-8.7c0,0,0,0,0,0
			c17,7.6,26.9,35.7,24.9,44.2c0,0,0,0.1,0,0.1c-2.8,4.6-6.1,10.4-9.1,14.4c-0.6,0.8-1.9,0.5-2.2-0.4C120.3,95.6,113,83.9,101,72.5
			C97.2,68.9,100,66.3,103.6,62.2z"/>
		
			<linearGradient id="SVGID_00000096776740570794534200000004389127652257038245_" gradientUnits="userSpaceOnUse" x1="51.4855" y1="704.3694" x2="51.4855" y2="696.6798" gradientTransform="matrix(-0.866 0.5 -0.5 -0.866 494.347 636.0735)">
			<stop  offset="0.3111" style="stop-color:#000000"/>
			<stop  offset="1" style="stop-color:#37475E"/>
		</linearGradient>
		<path style="fill:url(#SVGID_00000096776740570794534200000004389127652257038245_);" d="M93.3,62l-2.6-4.4
			c-0.4-0.8-0.2-1.7,0.6-2.2l12.5-7.2c0.8-0.5,1.7-0.2,2.2,0.6l0.2,0.3c0.3,0.6,0.3,1.3-0.2,1.8L95.8,62.3
			C95.2,63.1,93.8,62.9,93.3,62z"/>
		<path d="M136.1,97.7c-3.4-20.2-13.2-33.3-24.9-44.2c0,0,0,0,0,0c0.6,0.2,10,3.5,18.4,19.3c8.7,16.2,6.5,25.1,6.5,25.1
			C136.2,97.8,136.1,97.7,136.1,97.7z"/>
		<path d="M119.2,32.1l0-0.2l-0.1-1l-0.1-0.4l-0.1-0.5c23.4,22,27.4,47.1,27.6,48.1c-0.1-0.3-0.2-0.5-0.3-0.8c0-0.1,0-0.1,0-0.1
			c-1.9-5.9-4-11.3-6.4-16.1c-2.6-5.4-5.4-10.1-8.3-14.2c-4-5.8-8.1-10.5-11.7-14.2C119.6,32.5,119.4,32.3,119.2,32.1z"/>
		<path d="M139.4,62.7l0-0.2C139.5,62.6,139.5,62.7,139.4,62.7z"/>
		<path d="M129.6,47.7l1.9-0.8l0.3-0.1l0.1-0.1l7.9,13.8l-0.1,0.2l-0.1,0.4l0,0.1l-0.3,1.4C139.3,60.9,132.6,50.1,129.6,47.7z"/>
		<path class="st9" d="M18.5,106.2L18.5,106.2C18.5,106.3,18.5,106.2,18.5,106.2C18.5,106.2,18.5,106.2,18.5,106.2z"/>
		<path class="st9" d="M18.8,107.4c0,0,0-0.1,0-0.1c0-0.1-0.1-0.2-0.1-0.4l-0.1-0.3c0-0.1,0-0.2-0.1-0.2c0,0,0-0.1,0-0.1L18.8,107.4
			z"/>
	</g>
</g>
</svg>
