<?xml version="1.0" encoding="utf-8"?>
<!-- Generator: Adobe Illustrator 25.4.1, SVG Export Plug-In . SVG Version: 6.00 Build 0)  -->
<svg version="1.1" id="Layer_1" xmlns="http://www.w3.org/2000/svg" xmlns:xlink="http://www.w3.org/1999/xlink" x="0px" y="0px"
	 viewBox="0 0 168 168" style="enable-background:new 0 0 168 168;" xml:space="preserve">
<style type="text/css">
	.st0{opacity:0.2;fill:#151110;enable-background:new    ;}
	.st1{fill:url(#SVGID_1_);}
	.st2{fill:#FFFFFF;}
	.st3{fill:#C00D0D;}
	.st4{fill:#151110;}
	.st5{fill:url(#SVGID_00000028298326496642983680000013837709386362483894_);}
	.st6{fill:url(#SVGID_00000139985690050157849740000013236079523504144027_);}
	.st7{fill:none;stroke:#A03394;stroke-width:9;stroke-miterlimit:10;}
	.st8{fill:url(#SVGID_00000069363433165048693630000017975647401960661166_);}
	.st9{fill:#F0F0F0;}
	.st10{fill:url(#SVGID_00000116931709854783371150000011256973939305363118_);}
	.st11{fill:url(#SVGID_00000160164635480844883350000007225472143268805791_);}
	.st12{fill:url(#SVGID_00000055690196626565137400000017972876502227585691_);}
	.st13{fill:url(#SVGID_00000018211313165872001710000008086645828498497424_);}
	.st14{fill:url(#SVGID_00000101088860257777469170000012627832220476359359_);}
	.st15{fill:url(#SVGID_00000175293895007445711620000001944590549724727448_);}
	.st16{fill:url(#SVGID_00000111909680443941589180000018316817398339451018_);}
	.st17{fill:url(#SVGID_00000161605090688635927350000016284675200726069633_);}
	.st18{fill:url(#SVGID_00000126283071792842127440000006247197997027950250_);}
	.st19{fill:url(#SVGID_00000060716760962038993120000001755684604471567002_);}
	.st20{fill:url(#SVGID_00000025408462238346795490000005143206414841386127_);}
	.st21{fill:url(#SVGID_00000160912009099282394940000004306871404781651860_);}
	.st22{fill:url(#SVGID_00000055701570433168780310000008047304949590997163_);}
	.st23{fill:url(#SVGID_00000183214986194472221270000004066803238766200204_);}
	.st24{fill:url(#SVGID_00000096021387450404453590000008700695590961202322_);}
	.st25{fill:url(#SVGID_00000137119911355453766310000002447714832887506560_);}
	.st26{fill:url(#SVGID_00000008855918859384641530000011700636565430411674_);}
	.st27{fill:url(#SVGID_00000115484870383571450740000005441311345001724347_);}
	.st28{fill:url(#SVGID_00000149377515009185231820000013126723787303521182_);}
	.st29{fill:url(#SVGID_00000168817330222903805780000009813354459718779564_);}
	.st30{fill:url(#SVGID_00000148643082968647213590000009349722655534132118_);}
	.st31{fill:url(#SVGID_00000182520658600436761600000003310953782849922489_);}
	.st32{fill:url(#SVGID_00000048485548503102303340000001982330004594675125_);}
	.st33{fill:url(#SVGID_00000053516684575507769310000016647631400950575244_);}
	.st34{fill:url(#SVGID_00000027569955442679043950000005098498371182928294_);}
	.st35{fill:url(#SVGID_00000061443811372383579680000008247548034334222231_);}
	.st36{fill:url(#SVGID_00000025439139174412299580000009974161667054166927_);}
	.st37{fill:url(#SVGID_00000093884456882318694200000012529409123420473017_);}
	.st38{fill:url(#SVGID_00000081607746236132764780000003029990752421264806_);}
	.st39{fill:url(#SVGID_00000011002136801830498620000016835499122738832301_);}
	.st40{fill:url(#SVGID_00000163042713492080468220000016667492494721418899_);}
	.st41{fill:url(#SVGID_00000005243829804739428150000007080958465977660093_);}
	.st42{fill:url(#SVGID_00000134959711949854856030000009006531330258911881_);}
	.st43{fill:url(#SVGID_00000022530685819148405720000015667644375082659456_);}
	.st44{fill:url(#SVGID_00000011726292229074234730000006782235020037003699_);}
	.st45{fill:url(#SVGID_00000112623910173349779390000005193239595832395168_);}
	.st46{fill:url(#SVGID_00000049930869792502492160000013079581477883001022_);}
	.st47{fill:url(#SVGID_00000072278988144299029180000004114917932333627060_);}
	.st48{fill:url(#SVGID_00000139289864590513873390000007375562440862863235_);}
	.st49{fill:url(#SVGID_00000067946672044387335040000011474004028531540111_);}
	.st50{fill:url(#SVGID_00000036240181499149508670000012559899886428706739_);}
	.st51{fill:url(#SVGID_00000102515031277703007130000008278041051585536131_);}
	.st52{fill:url(#SVGID_00000095297551394371851750000015783517358243866015_);}
	.st53{fill:url(#SVGID_00000039851625154955447160000010554065490041920944_);}
	.st54{fill:url(#SVGID_00000075871581368055625430000002929791227603717291_);}
	.st55{fill:url(#SVGID_00000173852251347983402090000005339002371668729732_);}
	.st56{fill:url(#SVGID_00000028304340648002416500000009908258807386177922_);}
	.st57{fill:url(#SVGID_00000085222811907728029320000015925527601009467564_);}
	.st58{fill:url(#SVGID_00000072278215346811165060000001243697887734447489_);}
	.st59{fill:url(#SVGID_00000075130028385264593740000017739099926674658713_);}
	.st60{fill:url(#SVGID_00000101796101224535452120000000796423287559439525_);}
	.st61{fill:url(#SVGID_00000070821150523251931670000014909585563530103486_);}
	.st62{fill:url(#SVGID_00000102525431451791480020000001488951406495703457_);}
	.st63{fill:url(#SVGID_00000126304735861896438190000002532898737948418456_);}
	.st64{fill:url(#SVGID_00000154388072986930104430000002662015701601421483_);}
	.st65{fill:url(#SVGID_00000182505900780318484830000014685340650835692204_);}
	.st66{fill:url(#SVGID_00000014597253512657141030000016444832982658845869_);}
	.st67{fill:url(#SVGID_00000174576048184622184720000002557990835624320447_);}
	.st68{fill:url(#SVGID_00000004544399624483887580000018369046808690669974_);}
	.st69{fill:url(#SVGID_00000168809203515532318480000011770251587363252159_);}
	.st70{fill:url(#SVGID_00000049216420641265578360000012825479711056396675_);}
	.st71{fill:url(#SVGID_00000024003939046833380460000016964561599107878059_);}
	.st72{fill:url(#SVGID_00000002355938276016554290000004660725725979675783_);}
	.st73{fill:url(#SVGID_00000008854810898070814940000016224037701724637864_);}
	.st74{fill:url(#SVGID_00000028288166749876761460000001934718780178230463_);}
	.st75{fill:url(#SVGID_00000059296278921326182500000014778573881696427416_);}
	.st76{fill:url(#SVGID_00000126321170862265464250000005122880466381077672_);}
	.st77{fill:url(#SVGID_00000119835190266911690480000015474285226024656015_);}
	.st78{fill:url(#SVGID_00000170251628466136324830000002108448247120313519_);}
	.st79{fill:url(#SVGID_00000068652290226818885990000009764521376162006419_);}
	.st80{fill:url(#SVGID_00000071535261458096899940000014959918087972605866_);}
	.st81{fill:url(#SVGID_00000162337905103494060600000006590557395020215431_);}
	.st82{fill:url(#SVGID_00000154384445705586339690000004022185160376752829_);}
	.st83{fill:url(#SVGID_00000023243821567623035710000012191039652197568676_);}
	.st84{fill:url(#SVGID_00000062900592706930625310000001576973468305821080_);}
	.st85{fill:url(#SVGID_00000143593759474615851420000014107744390360737936_);}
	.st86{fill:url(#SVGID_00000182507934395072650660000015680203790272215986_);}
	.st87{fill:url(#SVGID_00000155111818879246839210000011956119052458344097_);}
	.st88{fill:url(#SVGID_00000081644658910186237160000018349108544041342087_);}
	.st89{fill:url(#SVGID_00000033339478929483821470000000922114733535398306_);}
	.st90{fill:url(#SVGID_00000070813812297692707840000010052130822510503817_);}
	.st91{fill:url(#SVGID_00000143582219505006975480000009960956592579900802_);}
	.st92{fill:url(#SVGID_00000061456622240546061240000000462074553050246059_);}
	.st93{fill:url(#SVGID_00000137816440501996108820000007082646526730965129_);}
	.st94{fill:url(#SVGID_00000154421421585720297550000015994529469531874994_);}
	.st95{fill:url(#SVGID_00000050642246399650129600000012694208058807414975_);}
	.st96{fill:url(#SVGID_00000114063670874653183220000013025936330013449096_);}
	.st97{fill:url(#SVGID_00000121975136942329915830000002161116668516229018_);}
	.st98{fill:url(#SVGID_00000037685044574576506160000010269659724321101214_);}
	.st99{fill:url(#SVGID_00000124155990741886740390000012481345823692215730_);}
	.st100{fill:url(#SVGID_00000051381077612311792900000002340649532996058755_);}
	.st101{fill:url(#SVGID_00000152222537239235949600000016679665561066223519_);}
	.st102{fill:url(#SVGID_00000067200263714155926930000008747781219177206706_);}
	.st103{fill:url(#SVGID_00000047036633967533898230000017388592661163024278_);}
	.st104{fill:url(#SVGID_00000067953245995911098000000016777552106718500483_);}
	.st105{fill:url(#SVGID_00000013904029646602130300000003580544695236078983_);}
	.st106{fill:url(#SVGID_00000136370995680659781610000009511447392969102220_);}
	.st107{fill:url(#SVGID_00000149363664799619168380000005187145558157132425_);}
	.st108{fill:url(#SVGID_00000152985411425516385050000004860532723323169965_);}
	.st109{fill:url(#SVGID_00000124158508714413066390000012538403238707786385_);}
	.st110{fill:url(#SVGID_00000011730585396351288400000007642237160759301764_);}
	.st111{fill:url(#SVGID_00000083771160181626492750000012263927031131976851_);}
	.st112{fill:url(#SVGID_00000154404226015640600560000009937190604789083535_);}
	.st113{fill:url(#SVGID_00000142137571807422451010000003252393230837646249_);}
	.st114{fill:url(#SVGID_00000181054370217023830680000010716855390024132512_);}
	.st115{fill:url(#SVGID_00000040572923456766828580000005059942568250592185_);}
	.st116{fill:url(#SVGID_00000025405550088755457000000001770497044372253624_);}
	.st117{fill:url(#SVGID_00000103263710751625889470000009883298314805156494_);}
	.st118{fill:url(#SVGID_00000109007255345887144030000017474424963293224891_);}
	.st119{fill:url(#SVGID_00000132780055807083300470000013336472725415349907_);}
	.st120{fill:url(#SVGID_00000142862396223792937780000015449515352924752279_);}
	.st121{fill:url(#SVGID_00000094579847060254565670000003622191361376917914_);}
	.st122{fill:url(#SVGID_00000023267077878536296280000003118875863976826544_);}
	.st123{fill:url(#SVGID_00000173876000174234170860000018405744390595691924_);}
	.st124{fill:url(#SVGID_00000145022094645934915650000017854040039467261106_);}
	.st125{fill:url(#SVGID_00000181806448371367618850000008926581380684116889_);}
	.st126{fill:url(#SVGID_00000121266374272189214670000013443583920418776979_);}
	.st127{fill:url(#SVGID_00000087413620200110992770000013877268595797770389_);}
	.st128{fill:url(#SVGID_00000041263581747517546660000015890851738529244560_);}
	.st129{fill:url(#SVGID_00000038384327678274290270000009994165709846414472_);}
	.st130{fill:url(#SVGID_00000060729001979589834930000016872531283136474769_);}
	.st131{fill:url(#SVGID_00000129200756189340236160000013440401739813874839_);}
	.st132{fill:url(#SVGID_00000155116736887586450870000011476619896293751962_);}
	.st133{fill:url(#SVGID_00000064319834099604339690000009172767735519772824_);}
	.st134{fill:url(#SVGID_00000113323270900120096670000012904410521670100151_);}
	.st135{fill:url(#SVGID_00000082361813205434035950000017817206370184936599_);}
	.st136{fill:url(#SVGID_00000154396895532751984180000005962720196164305540_);}
	.st137{fill:url(#SVGID_00000026149608785366278700000005031307508702497425_);}
	.st138{fill:url(#SVGID_00000013915433890947624980000013008248036179199657_);}
	.st139{fill:url(#SVGID_00000054247708353786638810000010813621662240876180_);}
	.st140{fill:url(#SVGID_00000090274330217150315010000012807451154164427687_);}
	.st141{fill:url(#SVGID_00000116931517171730790700000009726711727775052460_);}
	.st142{fill:url(#SVGID_00000057848682168502814380000000507713676736996767_);}
	.st143{fill:url(#SVGID_00000143618359725249852670000013726907612793364610_);}
	.st144{fill:url(#SVGID_00000142149440392215860110000012339259726652681620_);}
	.st145{fill:url(#SVGID_00000096781807809502859440000012451345507721242008_);}
	.st146{fill:url(#SVGID_00000159443101667230395890000009092004416060345742_);}
	.st147{fill:url(#SVGID_00000051372896142859099390000011606450907667959172_);}
	.st148{fill:url(#SVGID_00000011000482319472245910000007411709587847953853_);}
	.st149{fill:url(#SVGID_00000173129171353209563010000014801935299494591383_);}
</style>
<g>
	<path class="st0" d="M17.1,99.1c-0.2-0.5-0.2-1-0.3-1.5l0,0L14.9,72l10.2-5l102-35.9c0.2-0.1,0.4-0.1,0.5-0.1l0.8-0.3l0-0.1
		c19.8,26.2,18.9,52.3,18.9,52.3c0-0.3-0.1-0.6-0.1-0.9c0,0.3,0.1,0.6,0.1,0.9l-14.4,19.3l-13.1,14.5l-6.3,2.3l-2.4,0.9l-71.1,25.9
		c-2.8,1-5.9-0.4-6.9-3.2L17.1,99.1L17.1,99.1z"/>
	
		<linearGradient id="SVGID_1_" gradientUnits="userSpaceOnUse" x1="85.6317" y1="121.1834" x2="85.91" y2="86.1101" gradientTransform="matrix(-0.9397 0.342 -0.342 -0.9397 190.956 143.5313)">
		<stop  offset="0" style="stop-color:#5C5C5C"/>
		<stop  offset="0.1042" style="stop-color:#979797"/>
	</linearGradient>
	<path class="st1" d="M17.4,103.6l-0.5-7.1c0-0.1,0-0.3,0-0.4l0-0.3c0-0.1,0-0.2,0-0.2l0-0.1l-0.7-10.3l-0.3-4.3L15.7,80l-0.1-0.9
		l10.2-5l3.4-1.2l5.6-2c0,0,0,0,0,0l8.4-2.9l5.6-2l53.4-18.8l5.4-1.9l9-3.2l5.4-1.9l5.9-2.1l0,0c0.4-0.1,0.8-0.1,1.1,0.1
		c0.1,0.1,0.2,0.2,0.3,0.3c0.1,0.1,0.2,0.3,0.2,0.4c0,0.1,0.1,0.2,0.1,0.3c0,0.1,0,0.1,0,0.1c0,0,0,0,0,0c0,0.1,0,0.1,0,0.2
		c-0.1,0.3-0.1,0.6-0.2,0.9c-1.3,6.2-5.3,10.7-10.5,14.5L99.3,70.7l-8,2.9L20.9,99.2c-0.1,0-0.2,0.1-0.2,0.1l0,0
		c-0.1,0-0.2,0.1-0.4,0.1c-2.4,0.9-3.1-1.4-3.3-2.9l0.5,6.7C17.4,103.4,17.4,103.5,17.4,103.6z"/>
	<g>
		<path class="st2" d="M143.5,73.6l0.1-0.2C143.5,73.5,143.5,73.5,143.5,73.6z"/>
		<path class="st2" d="M108.2,66.8l9.1-7.2c0,0,0,0,0,0c0.5,0.3,9.2,5.2,14.8,22.2c5.7,17.5,2.1,25.9,2.1,25.9c0-0.1,0-0.1,0-0.2
			c0,0,0,0.1,0,0.1c-3.5,4.1-7.8,9.1-11.5,12.6c-0.7,0.7-2,0.2-2.1-0.8c-1.6-16.7-6.8-29.5-16.6-42.7
			C100.8,72.3,104.1,70.2,108.2,66.8z"/>
		<polygon class="st3" points="16,85.2 15.6,80.1 17.6,79.4 17.9,84.4 		"/>
		<polygon class="st4" points="15.6,80.9 129.6,39.4 129,37.8 15.6,79.1 		"/>
		<ellipse transform="matrix(0.9397 -0.342 0.342 0.9397 -8.1852 40.9638)" class="st4" cx="112.1" cy="43.7" rx="10.5" ry="4.4"/>
		<ellipse transform="matrix(0.9397 -0.342 0.342 0.9397 -8.1852 40.9638)" class="st2" cx="112.1" cy="43.7" rx="4.8" ry="2"/>
		<ellipse transform="matrix(0.9397 -0.342 0.342 0.9397 -21.643 17.6543)" class="st4" cx="39.2" cy="70.2" rx="10.5" ry="4.4"/>
		<ellipse transform="matrix(0.9397 -0.342 0.342 0.9397 -21.643 17.6543)" class="st2" cx="39.2" cy="70.2" rx="4.8" ry="2"/>
		
			<linearGradient id="SVGID_00000109011479460418243490000010233546343467375529_" gradientUnits="userSpaceOnUse" x1="108.7224" y1="704.5383" x2="108.7224" y2="696.286" gradientTransform="matrix(-0.9397 0.342 -0.342 -0.9397 393.4319 699.8293)">
			<stop  offset="0.3111" style="stop-color:#000000"/>
			<stop  offset="1" style="stop-color:#37475E"/>
		</linearGradient>
		<path style="fill:url(#SVGID_00000109011479460418243490000010233546343467375529_);" d="M85.9,69l-1.4-3.9
			c-0.4-1.2-1.7-1.9-2.8-1.5L20.6,85.8c-1.1,0.4-1.6,1-1.6,2.8l0.3,4.6c0.2,1.8,1.7,1.9,2.8,1.5l62.8-22.8
			C85.9,71.5,86.4,70.2,85.9,69z"/>
		<path class="st2" d="M40.5,152.8l79.8-29l13.1-14.5L147.7,90c0,0,0,0,0,0c-0.1-0.3-0.1-0.6-0.1-0.9c0-0.1,0-0.1,0-0.1
			c-0.8-6.2-2-11.8-3.5-17l0,0.1l-0.5,1.3c0,0.1,0,0.2-0.1,0.2l0.1-0.2c0.1-1.6-4.6-13.4-7.1-16.3l2-0.5c-2.9-6.4-6.1-11.7-9.1-16
			c-1.3,6.2-5.3,10.7-10.5,14.5L99.3,70.7L20.9,99.2c-0.1,0-0.2,0.1-0.2,0.1l0,0c-0.1,0-0.2,0.1-0.4,0.1c-2.4,0.9-3.1-1.4-3.3-2.9
			l0.5,6.7c0,0.1,0,0.2-0.1,0.2c-0.1,0.8,0,1.7,0.3,2.6l15.8,43.4C34.5,152.3,37.6,153.8,40.5,152.8z M108.2,66.8l9.1-7.2
			c0,0,0,0,0,0c0.5,0.3,9.2,5.2,14.8,22.2c5.7,17.5,2.1,25.9,2.1,25.9c0-0.1,0-0.1,0-0.2c0,0,0,0.1,0,0.1
			c-3.5,4.1-7.8,9.1-11.5,12.6c-0.7,0.7-2,0.2-2.1-0.8c-1.6-16.7-6.8-29.5-16.6-42.7C100.8,72.3,104.1,70.2,108.2,66.8z"/>
		
			<linearGradient id="SVGID_00000057128919671873534120000002623287570199953548_" gradientUnits="userSpaceOnUse" x1="51.7402" y1="74.6112" x2="39.9593" y2="74.9446" gradientTransform="matrix(-0.9397 0.342 -0.342 -0.9397 190.956 143.5313)">
			<stop  offset="0.3111" style="stop-color:#000000"/>
			<stop  offset="1" style="stop-color:#37475E"/>
		</linearGradient>
		<path style="fill:url(#SVGID_00000057128919671873534120000002623287570199953548_);" d="M108.2,66.8l9.1-7.2c0,0,0,0,0,0
			c15.4,10.4,20.3,39.8,16.8,47.8c0,0,0,0.1,0,0.1c-3.5,4.1-7.8,9.1-11.5,12.6c-0.7,0.7-2,0.2-2.1-0.8c-1.6-16.7-6.8-29.5-16.6-42.7
			C100.8,72.3,104.1,70.2,108.2,66.8z"/>
		
			<linearGradient id="SVGID_00000164496880301940702570000009821551897166260616_" gradientUnits="userSpaceOnUse" x1="51.4855" y1="704.3694" x2="51.4855" y2="696.6798" gradientTransform="matrix(-0.9397 0.342 -0.342 -0.9397 393.4319 699.8293)">
			<stop  offset="0.3111" style="stop-color:#000000"/>
			<stop  offset="1" style="stop-color:#37475E"/>
		</linearGradient>
		<path style="fill:url(#SVGID_00000164496880301940702570000009821551897166260616_);" d="M98.2,64.8L96.4,60
			c-0.3-0.8,0.1-1.7,1-2.1l13.5-4.9c0.8-0.3,1.7,0.1,2.1,1l0.1,0.3c0.2,0.7,0.1,1.4-0.5,1.8l-12,9.5C99.8,66.2,98.5,65.9,98.2,64.8z
			"/>
		<path d="M134.2,107.4c0.1-20.5-7.2-35-16.8-47.9c0,0,0,0,0,0c0.5,0.3,9.2,5.2,14.8,22.2c5.7,17.5,2.1,25.9,2.1,25.9
			C134.2,107.5,134.2,107.5,134.2,107.4z"/>
		<path d="M128.9,39.9l0-0.2l0-1l0-0.4l0-0.5c19.3,25.7,18.8,51.1,18.8,52.2c0-0.3-0.1-0.6-0.1-0.9c0-0.1,0-0.1,0-0.1
			c-0.8-6.2-2-11.8-3.5-17c-1.6-5.7-3.6-10.8-5.7-15.4c-2.9-6.4-6.1-11.7-9.1-16C129.2,40.4,129,40.1,128.9,39.9z"/>
		<path d="M143.5,73.6l0.1-0.2C143.5,73.5,143.5,73.5,143.5,73.6z"/>
		<path d="M136.4,57.1l2-0.5l0.4-0.1l0.1,0l5.4,14.9l-0.1,0.2l-0.2,0.4l0,0.1l-0.5,1.3C143.6,71.8,139,60,136.4,57.1z"/>
		<path class="st9" d="M16.8,95.4L16.8,95.4C16.8,95.4,16.8,95.4,16.8,95.4C16.8,95.4,16.8,95.4,16.8,95.4z"/>
		<path class="st9" d="M16.9,96.6c0-0.1,0-0.1,0-0.2c0-0.1,0-0.3,0-0.4l0-0.3c0-0.1,0-0.2,0-0.2c0,0,0-0.1,0-0.1L16.9,96.6z"/>
	</g>
</g>
</svg>
