<?xml version="1.0" encoding="utf-8"?>
<!-- Generator: Adobe Illustrator 25.4.1, SVG Export Plug-In . SVG Version: 6.00 Build 0)  -->
<svg version="1.1" id="Layer_1" xmlns="http://www.w3.org/2000/svg" xmlns:xlink="http://www.w3.org/1999/xlink" x="0px" y="0px"
	 viewBox="0 0 168 168" style="enable-background:new 0 0 168 168;" xml:space="preserve">
<style type="text/css">
	.st0{opacity:0.2;fill:#151110;enable-background:new    ;}
	.st1{fill:url(#SVGID_1_);}
	.st2{fill:#FFFFFF;}
	.st3{fill:#C00D0D;}
	.st4{fill:#151110;}
	.st5{fill:url(#SVGID_00000139272331351033296180000000319177863849869476_);}
	.st6{fill:url(#SVGID_00000061462265283488289700000015341092263873298050_);}
	.st7{fill:none;stroke:#A03394;stroke-width:9;stroke-miterlimit:10;}
	.st8{fill:url(#SVGID_00000109000627860014747370000008915100222046262952_);}
	.st9{fill:#F0F0F0;}
	.st10{fill:url(#SVGID_00000016053882181198512070000015315030439245360022_);}
	.st11{fill:url(#SVGID_00000114039721497713336450000017052923962183584154_);}
	.st12{fill:url(#SVGID_00000034079877852525621400000003252124678768506039_);}
	.st13{fill:url(#SVGID_00000074407905100187361410000013919249288807940499_);}
	.st14{fill:url(#SVGID_00000069366459036450576240000009917746890877974198_);}
	.st15{fill:url(#SVGID_00000077313346575661165690000016383529797998372287_);}
	.st16{fill:url(#SVGID_00000083088126471135566530000001810126886179567792_);}
	.st17{fill:url(#SVGID_00000060001264142740574360000011982923870719769266_);}
	.st18{fill:url(#SVGID_00000075884573779895770760000015734870163598175376_);}
	.st19{fill:url(#SVGID_00000111893860881912979500000011936294530493104831_);}
	.st20{fill:url(#SVGID_00000073720280794027936080000017696145112975697580_);}
	.st21{fill:url(#SVGID_00000142143461439467501570000004524298021364280765_);}
	.st22{fill:url(#SVGID_00000177473297828090391200000013291784085136914831_);}
	.st23{fill:url(#SVGID_00000045608435287430031970000012485732512360589246_);}
	.st24{fill:url(#SVGID_00000071531080731915041830000017537593948309267357_);}
	.st25{fill:url(#SVGID_00000013876347025568345090000012560585908874120889_);}
	.st26{fill:url(#SVGID_00000166676640402312694930000007609011815288413326_);}
	.st27{fill:url(#SVGID_00000098939829404911322090000018165300186495893391_);}
	.st28{fill:url(#SVGID_00000141445568333748898490000013711884589860045967_);}
	.st29{fill:url(#SVGID_00000013899090353245866960000002107966701485994881_);}
	.st30{fill:url(#SVGID_00000004542319069359556790000008458737279131333764_);}
	.st31{fill:url(#SVGID_00000058564160581087925660000009466940299886933933_);}
	.st32{fill:url(#SVGID_00000047043134724098291450000001627735911697019817_);}
	.st33{fill:url(#SVGID_00000065055419672983226340000006085617674520255116_);}
	.st34{fill:url(#SVGID_00000059308954678021218370000006423853593514376599_);}
	.st35{fill:url(#SVGID_00000159446107153853924880000015825193695593849274_);}
	.st36{fill:url(#SVGID_00000102516298959408763290000008200691604338285203_);}
	.st37{fill:url(#SVGID_00000096020936026301836030000004212859628322888085_);}
	.st38{fill:url(#SVGID_00000072270614709690911440000015354901088539774116_);}
	.st39{fill:url(#SVGID_00000044890183375013862790000005106722711607912876_);}
	.st40{fill:url(#SVGID_00000002377894844624785290000012162127980122211727_);}
	.st41{fill:url(#SVGID_00000041999238451730417340000000907370551808049543_);}
	.st42{fill:url(#SVGID_00000036231785580007335630000002307651211785550731_);}
	.st43{fill:url(#SVGID_00000021830934548924915050000003142512344883111357_);}
	.st44{fill:url(#SVGID_00000052080828069948619710000006995507845586402436_);}
	.st45{fill:url(#SVGID_00000057831349577544431470000000555561531408315540_);}
	.st46{fill:url(#SVGID_00000026147947649802407560000014819075962380801694_);}
	.st47{fill:url(#SVGID_00000021118696078159177640000013647395556179847835_);}
	.st48{fill:url(#SVGID_00000145755777664500794960000008922179507702662820_);}
	.st49{fill:url(#SVGID_00000145743434292193670450000015130583944774541995_);}
	.st50{fill:url(#SVGID_00000075866407791672922350000007222725261415842190_);}
	.st51{fill:url(#SVGID_00000000922542315475246890000012740750061587531405_);}
	.st52{fill:url(#SVGID_00000177457058077867779780000014758321445657885601_);}
	.st53{fill:url(#SVGID_00000125571298143431419700000000568000285115336072_);}
	.st54{fill:url(#SVGID_00000011029202168908447140000007892277338651349150_);}
	.st55{fill:url(#SVGID_00000044873956409550397250000008660029344084072334_);}
	.st56{fill:url(#SVGID_00000005969874273734020070000018285453464776538550_);}
	.st57{fill:url(#SVGID_00000107572625352712918890000012432112024186409636_);}
	.st58{fill:url(#SVGID_00000134246764518045746030000009401954470826841787_);}
	.st59{fill:url(#SVGID_00000144336706637517289750000008275922972368629947_);}
	.st60{fill:url(#SVGID_00000178885714653632187790000002525264584384097458_);}
	.st61{fill:url(#SVGID_00000002345270071337187480000000758593469038872479_);}
	.st62{fill:url(#SVGID_00000165943455112240101720000009192034747540272005_);}
	.st63{fill:url(#SVGID_00000049932307440449771670000011673913641290547351_);}
	.st64{fill:url(#SVGID_00000076586798022248524910000002781986558335209864_);}
	.st65{fill:url(#SVGID_00000114767779012716529360000003497404399803772828_);}
	.st66{fill:url(#SVGID_00000141441121635970805790000002465112796577560960_);}
	.st67{fill:url(#SVGID_00000075129583426646167470000010088934690732032155_);}
	.st68{fill:url(#SVGID_00000102511898221480793110000008712181179272998785_);}
	.st69{fill:url(#SVGID_00000124866412167323799020000017019748658744009659_);}
	.st70{fill:url(#SVGID_00000067237178700707017840000013141148669309465013_);}
	.st71{fill:url(#SVGID_00000101085153788154441610000009625668369701900717_);}
	.st72{fill:url(#SVGID_00000003811466200887594130000017944598073832039068_);}
	.st73{fill:url(#SVGID_00000064340159388446236340000002210196770167865771_);}
	.st74{fill:url(#SVGID_00000170987048819234430450000011194052223510011541_);}
	.st75{fill:url(#SVGID_00000016034200958757217590000001048273254256552329_);}
	.st76{fill:url(#SVGID_00000136411438013095045530000001269285303645067176_);}
	.st77{fill:url(#SVGID_00000167366395199841984090000007842874925979619495_);}
	.st78{fill:url(#SVGID_00000024687410302478855100000008420596840693879722_);}
	.st79{fill:url(#SVGID_00000113320041735646536780000000658929605627911306_);}
	.st80{fill:url(#SVGID_00000018231947543333231290000002800409384786883720_);}
	.st81{fill:url(#SVGID_00000119811670521654943230000014176541174673177770_);}
	.st82{fill:url(#SVGID_00000122691698920576385010000006312756122199536034_);}
	.st83{fill:url(#SVGID_00000050661961221082617260000013856458664189870483_);}
	.st84{fill:url(#SVGID_00000031887086942515422500000010888846095556547979_);}
	.st85{fill:url(#SVGID_00000160888390889753458060000017110146426017799862_);}
	.st86{fill:url(#SVGID_00000034058654392972358050000017919698296902841749_);}
	.st87{fill:url(#SVGID_00000112597430897183200850000005682566283841181885_);}
	.st88{fill:url(#SVGID_00000182509386006300052330000000928062657017791901_);}
	.st89{fill:url(#SVGID_00000074441758274418560200000009242122166499165321_);}
	.st90{fill:url(#SVGID_00000129186203820379768650000005062427581599506087_);}
	.st91{fill:url(#SVGID_00000040559771916888519420000012829087059286371244_);}
	.st92{fill:url(#SVGID_00000069390710823799869100000016662755925306743742_);}
	.st93{fill:url(#SVGID_00000127035827355877531450000008728928930454334084_);}
	.st94{fill:url(#SVGID_00000180355026055686298950000016775862150551896214_);}
	.st95{fill:url(#SVGID_00000085220862483748366810000002829715922446207406_);}
	.st96{fill:url(#SVGID_00000119817860320267512170000000638586038519426750_);}
	.st97{fill:url(#SVGID_00000135655117823730433610000002825009874599971748_);}
	.st98{fill:url(#SVGID_00000139260532146759216900000017833998324724576447_);}
	.st99{fill:url(#SVGID_00000160893771394551018970000002328331258871291567_);}
	.st100{fill:url(#SVGID_00000026881989977959301130000015357918953295189894_);}
	.st101{fill:url(#SVGID_00000138556225459763469680000003452650476289631395_);}
	.st102{fill:url(#SVGID_00000049184888741627126190000005426199682200450191_);}
	.st103{fill:url(#SVGID_00000178185076252653812040000000769907688945811593_);}
	.st104{fill:url(#SVGID_00000173128597363385104780000015123318203817369496_);}
	.st105{fill:url(#SVGID_00000183966641085483760690000002519863675530653362_);}
	.st106{fill:url(#SVGID_00000145755344101869404620000010326438295346496924_);}
	.st107{fill:url(#SVGID_00000145765432316476911310000014446315865087715213_);}
	.st108{fill:url(#SVGID_00000168101346396055343490000006300020700014746257_);}
	.st109{fill:url(#SVGID_00000046323671734851736580000015056935018501776300_);}
	.st110{fill:url(#SVGID_00000112614069191206329930000010953372364810461848_);}
	.st111{fill:url(#SVGID_00000121992409636401255210000000780095701703771065_);}
	.st112{fill:url(#SVGID_00000132046816303801173620000000789370235894174100_);}
	.st113{fill:url(#SVGID_00000005986178676679141100000011957703818418064315_);}
	.st114{fill:url(#SVGID_00000056417305152141474720000007946204427851734444_);}
	.st115{fill:url(#SVGID_00000018238820019179420510000017390968215583864725_);}
	.st116{fill:url(#SVGID_00000163050751069985214000000001471464713265973695_);}
	.st117{fill:url(#SVGID_00000010287630080200713970000011361530124299136953_);}
	.st118{fill:url(#SVGID_00000140724327146891115450000005219012743444199081_);}
	.st119{fill:url(#SVGID_00000100345626900318860010000006809361401792204715_);}
	.st120{fill:url(#SVGID_00000085960539041140270480000016958412147893639057_);}
	.st121{fill:url(#SVGID_00000143619751705767361980000004241300095115667638_);}
	.st122{fill:url(#SVGID_00000102530013933220146370000002338066882374004386_);}
	.st123{fill:url(#SVGID_00000057143804857159599540000009230413916716654239_);}
	.st124{fill:url(#SVGID_00000159456797813929749230000002179947788811552446_);}
	.st125{fill:url(#SVGID_00000183214861403429947760000013132538806091974311_);}
	.st126{fill:url(#SVGID_00000111874170805206518150000000683675288249002393_);}
	.st127{fill:url(#SVGID_00000106846592032143897900000013813655601009814917_);}
	.st128{fill:url(#SVGID_00000152951266662205061890000002162190725574044570_);}
	.st129{fill:url(#SVGID_00000055670694972473192900000015570043757557584011_);}
	.st130{fill:url(#SVGID_00000057116659603296202200000008726345526875840931_);}
	.st131{fill:url(#SVGID_00000109031442944000094280000011409018888676513963_);}
	.st132{fill:url(#SVGID_00000058586921934905415840000005953817357081900673_);}
	.st133{fill:url(#SVGID_00000013193186626551438980000000591856156376381832_);}
	.st134{fill:url(#SVGID_00000099663791102034257480000018185877871250065038_);}
	.st135{fill:url(#SVGID_00000070084787365591756220000016406716539198489756_);}
	.st136{fill:url(#SVGID_00000044894627648409248860000009967275020204553904_);}
	.st137{fill:url(#SVGID_00000084515907251315803310000007426861540663046306_);}
	.st138{fill:url(#SVGID_00000057150118349557819340000013866753314552416668_);}
	.st139{fill:url(#SVGID_00000049218424388871518920000015074469926388131731_);}
	.st140{fill:url(#SVGID_00000047060437336629056460000005719782924842292866_);}
	.st141{fill:url(#SVGID_00000096023808908796100370000004066360130049915306_);}
	.st142{fill:url(#SVGID_00000046300294162487409350000001476195546147962788_);}
	.st143{fill:url(#SVGID_00000137816522674338586230000012923252429654760883_);}
	.st144{fill:url(#SVGID_00000158727744489335741670000012502045967793604249_);}
	.st145{fill:url(#SVGID_00000036219017906986166110000013487784156198996668_);}
	.st146{fill:url(#SVGID_00000127035744203977515150000010921340359969503414_);}
	.st147{fill:url(#SVGID_00000026864123713661306740000010034861489976011428_);}
	.st148{fill:url(#SVGID_00000134968176790323390850000009574284234727159988_);}
	.st149{fill:url(#SVGID_00000033362449413043645400000012530783429926152359_);}
</style>
<g>
	<path class="st0" d="M16.8,87.9c-0.1-0.5-0.1-1-0.1-1.5l0,0l2.6-25.5l10.9-3.1L136.9,40c0.2,0,0.4-0.1,0.5,0l0.8-0.1l0-0.1
		c14.9,29.3,9.6,54.8,9.6,54.8c0-0.3,0-0.6,0-0.9c0,0.3,0,0.6,0,0.9L130.3,111l-15.5,12l-6.6,1.2l-2.6,0.5l-74.5,13.1
		c-3,0.5-5.7-1.4-6.3-4.4L16.8,87.9L16.8,87.9z"/>
	
		<linearGradient id="SVGID_1_" gradientUnits="userSpaceOnUse" x1="85.6317" y1="121.1834" x2="85.91" y2="86.1101" gradientTransform="matrix(-0.9848 0.1736 -0.1736 -0.9848 180.3199 161.7834)">
		<stop  offset="0" style="stop-color:#5C5C5C"/>
		<stop  offset="0.1042" style="stop-color:#979797"/>
	</linearGradient>
	<path class="st1" d="M16.3,92.3l0.8-7.1c0-0.1,0-0.3,0-0.4l0-0.3c0-0.1,0-0.2,0-0.2l0-0.1l1.1-10.3l0.5-4.2l0.1-0.8l0.1-0.9
		l10.9-3.1l3.6-0.6l5.8-1c0,0,0,0,0,0l8.8-1.5l5.8-1l55.8-9.3l5.6-0.9l9.5-1.6l5.6-0.9l6.1-1l0,0c0.4-0.1,0.8,0.1,1.1,0.3
		c0.1,0.1,0.2,0.2,0.3,0.3c0.1,0.1,0.1,0.3,0.2,0.4c0,0.1,0,0.2,0,0.3c0,0.1,0,0.1,0,0.1c0,0,0,0,0,0c0,0.1,0,0.1-0.1,0.2
		c-0.1,0.3-0.2,0.6-0.3,0.9c-2.3,5.9-7.1,9.6-12.8,12.5l-22,11.9l-8.4,1.5l-73.9,13c-0.1,0-0.2,0-0.3,0.1l0,0c-0.1,0-0.2,0-0.4,0
		c-2.5,0.4-2.8-1.9-2.8-3.4l-0.7,6.7C16.3,92.1,16.3,92.2,16.3,92.3z"/>
	<g>
		<path class="st2" d="M145.7,84.6l0.1-0.2C145.8,84.6,145.8,84.6,145.7,84.6z"/>
		<path class="st2" d="M112.2,71.8l10.2-5.6c0,0,0,0,0,0c0.5,0.4,8.2,6.7,10.7,24.4c2.6,18.2-2.5,25.8-2.5,25.8c0-0.1,0-0.1,0-0.2
			c0,0,0,0.1,0,0.1c-4.2,3.4-9.3,7.6-13.5,10.4c-0.8,0.6-2-0.2-1.9-1.2c1.3-16.7-1.6-30.2-8.9-44.9C103.9,76,107.5,74.5,112.2,71.8z
			"/>
		<polygon class="st3" points="18.1,73.9 18.6,68.8 20.7,68.5 20.2,73.6 		"/>
		<polygon class="st4" points="18.5,69.7 137.9,48.6 137.6,46.9 18.8,67.9 		"/>
		<ellipse transform="matrix(0.9848 -0.1736 0.1736 0.9848 -6.8185 21.5877)" class="st4" cx="120" cy="49.8" rx="10.5" ry="4.4"/>
		<ellipse transform="matrix(0.9848 -0.1736 0.1736 0.9848 -6.8185 21.5877)" class="st2" cx="120" cy="49.8" rx="4.8" ry="2"/>
		<ellipse transform="matrix(0.9848 -0.1736 0.1736 0.9848 -10.315 8.5389)" class="st4" cx="43.6" cy="63.2" rx="10.5" ry="4.4"/>
		<ellipse transform="matrix(0.9848 -0.1736 0.1736 0.9848 -10.315 8.5389)" class="st2" cx="43.6" cy="63.2" rx="4.8" ry="2"/>
		
			<linearGradient id="SVGID_00000108308971699598654330000014778490310404439182_" gradientUnits="userSpaceOnUse" x1="108.7224" y1="704.5383" x2="108.7224" y2="696.286" gradientTransform="matrix(-0.9848 0.1736 -0.1736 -0.9848 283.1197 744.7896)">
			<stop  offset="0.3111" style="stop-color:#000000"/>
			<stop  offset="1" style="stop-color:#37475E"/>
		</linearGradient>
		<path style="fill:url(#SVGID_00000108308971699598654330000014778490310404439182_);" d="M89.8,70.1l-0.7-4
			c-0.2-1.3-1.3-2.2-2.5-2L22.5,75.4c-1.2,0.2-1.8,0.7-2.1,2.5l-0.5,4.6c-0.1,1.8,1.3,2.2,2.5,2l65.8-11.6
			C89.4,72.6,90.1,71.4,89.8,70.1z"/>
		<path class="st2" d="M30.5,144.7l83.6-14.7l15.5-12l17.5-16.5c0,0,0,0,0,0c0-0.3,0-0.6,0-0.9c0-0.1,0-0.1,0-0.1
			c0.3-6.2,0.1-12-0.5-17.3l0,0.1l-0.8,1.2c0,0.1-0.1,0.2-0.1,0.2l0.1-0.2c0.4-1.5-2.2-14-4.2-17.3l2.1-0.1
			c-1.8-6.8-4-12.6-6.2-17.3c-2.3,5.9-7.1,9.6-12.8,12.5l-22,11.9L20.5,88.6c-0.1,0-0.2,0-0.3,0.1l0,0c-0.1,0-0.2,0-0.4,0
			c-2.5,0.4-2.8-1.9-2.8-3.4l-0.7,6.7c0,0.1-0.1,0.2-0.1,0.2C16,93.1,16,94,16.1,94.9l8,45.5C24.7,143.2,27.5,145.3,30.5,144.7z
			 M112.2,71.8l10.2-5.6c0,0,0,0,0,0c0.5,0.4,8.2,6.7,10.7,24.4c2.6,18.2-2.5,25.8-2.5,25.8c0-0.1,0-0.1,0-0.2c0,0,0,0.1,0,0.1
			c-4.2,3.4-9.3,7.6-13.5,10.4c-0.8,0.6-2-0.2-1.9-1.2c1.3-16.7-1.6-30.2-8.9-44.9C103.9,76,107.5,74.5,112.2,71.8z"/>
		
			<linearGradient id="SVGID_00000154407025662580210020000002913887465143601288_" gradientUnits="userSpaceOnUse" x1="51.7402" y1="74.6112" x2="39.9593" y2="74.9446" gradientTransform="matrix(-0.9848 0.1736 -0.1736 -0.9848 180.3199 161.7834)">
			<stop  offset="0.3111" style="stop-color:#000000"/>
			<stop  offset="1" style="stop-color:#37475E"/>
		</linearGradient>
		<path style="fill:url(#SVGID_00000154407025662580210020000002913887465143601288_);" d="M112.2,71.8l10.2-5.6c0,0,0,0,0,0
			c13.4,12.9,13,42.8,8.3,50c0,0,0,0.1,0,0.1c-4.2,3.4-9.3,7.6-13.5,10.4c-0.8,0.6-2-0.2-1.9-1.2c1.3-16.7-1.6-30.2-8.9-44.9
			C103.9,76,107.5,74.5,112.2,71.8z"/>
		
			<linearGradient id="SVGID_00000108300363492915148180000003697952656447223684_" gradientUnits="userSpaceOnUse" x1="51.4855" y1="704.3694" x2="51.4855" y2="696.6798" gradientTransform="matrix(-0.9848 0.1736 -0.1736 -0.9848 283.1197 744.7896)">
			<stop  offset="0.3111" style="stop-color:#000000"/>
			<stop  offset="1" style="stop-color:#37475E"/>
		</linearGradient>
		<path style="fill:url(#SVGID_00000108300363492915148180000003697952656447223684_);" d="M102.6,68.2l-0.9-5
			c-0.2-0.9,0.4-1.7,1.3-1.9l14.2-2.5c0.9-0.2,1.7,0.4,1.9,1.3l0.1,0.3c0.1,0.7-0.2,1.3-0.8,1.7l-13.4,7.2
			C104,69.8,102.8,69.2,102.6,68.2z"/>
		<path d="M130.7,116.3c3.7-20.2-1-35.8-8.3-50.1c0,0,0,0,0,0c0.5,0.4,8.2,6.7,10.7,24.4c2.6,18.2-2.5,25.8-2.5,25.8
			C130.6,116.5,130.6,116.4,130.7,116.3z"/>
		<path d="M137.2,49l0-0.2l0.2-0.9l0.1-0.4l0.1-0.5c14.5,28.7,9.7,53.6,9.4,54.7c0-0.3,0-0.6,0-0.9c0-0.1,0-0.1,0-0.1
			c0.3-6.2,0.1-12-0.5-17.3c-0.6-5.9-1.6-11.3-2.9-16.1c-1.8-6.8-4-12.6-6.2-17.3C137.4,49.5,137.3,49.2,137.2,49z"/>
		<path d="M145.7,84.6l0.1-0.2C145.8,84.6,145.8,84.6,145.7,84.6z"/>
		<path d="M141.6,67.2l2.1-0.1l0.4,0l0.2,0l2.8,15.7l-0.1,0.2l-0.2,0.3l0,0.1l-0.8,1.2C146.2,82.9,143.6,70.4,141.6,67.2z"/>
		<path class="st9" d="M17.2,84.1L17.2,84.1C17.2,84.2,17.2,84.2,17.2,84.1C17.2,84.1,17.2,84.1,17.2,84.1z"/>
		<path class="st9" d="M17.1,85.3c0-0.1,0-0.1,0-0.2c0-0.1,0-0.3,0-0.4l0-0.3c0-0.1,0-0.2,0-0.2c0,0,0-0.1,0-0.1L17.1,85.3z"/>
	</g>
</g>
</svg>
