<?xml version="1.0" encoding="utf-8"?>
<!-- Generator: Adobe Illustrator 25.4.1, SVG Export Plug-In . SVG Version: 6.00 Build 0)  -->
<svg version="1.1" id="Layer_1" xmlns="http://www.w3.org/2000/svg" xmlns:xlink="http://www.w3.org/1999/xlink" x="0px" y="0px"
	 viewBox="0 0 168 168" style="enable-background:new 0 0 168 168;" xml:space="preserve">
<style type="text/css">
	.st0{opacity:0.2;fill:#151110;enable-background:new    ;}
	.st1{fill:url(#SVGID_1_);}
	.st2{fill:#FFFFFF;}
	.st3{fill:#C00D0D;}
	.st4{fill:#151110;}
	.st5{fill:url(#SVGID_00000129182440010701390220000009269517745856416388_);}
	.st6{fill:url(#SVGID_00000170276192127261513360000006892965037106741137_);}
	.st7{fill:none;stroke:#A03394;stroke-width:9;stroke-miterlimit:10;}
	.st8{fill:url(#SVGID_00000075164460226345308160000004363144832727689632_);}
	.st9{fill:#F0F0F0;}
	.st10{fill:url(#SVGID_00000147185931197859347470000015927721332420384184_);}
	.st11{fill:url(#SVGID_00000138553633065001596530000010362448497908416942_);}
	.st12{fill:url(#SVGID_00000021834983917959998800000009960958157453641389_);}
	.st13{fill:url(#SVGID_00000154423149107039969790000013797335728278146696_);}
	.st14{fill:url(#SVGID_00000036932281684181733140000013636016476012168599_);}
	.st15{fill:url(#SVGID_00000155867970507036184340000009249220376366467474_);}
	.st16{fill:url(#SVGID_00000091716233609380953900000003365043965595976638_);}
	.st17{fill:url(#SVGID_00000090999501735013589910000014993616826443719860_);}
	.st18{fill:url(#SVGID_00000171710872748061462310000008173892077786135966_);}
	.st19{fill:url(#SVGID_00000028312839780084873010000009259234236402915494_);}
	.st20{fill:url(#SVGID_00000111908932115122208160000002490148793574647474_);}
	.st21{fill:url(#SVGID_00000028318550705820047120000003158086668927102881_);}
	.st22{fill:url(#SVGID_00000039113223136065518480000005668461784476905135_);}
	.st23{fill:url(#SVGID_00000026885004197923488300000014904047861398556553_);}
	.st24{fill:url(#SVGID_00000066478554604378338520000006293004280785753779_);}
	.st25{fill:url(#SVGID_00000145750062563223110850000008073761596945668017_);}
	.st26{fill:url(#SVGID_00000043456262769043153560000005052103272972915903_);}
	.st27{fill:url(#SVGID_00000129171529263007521010000009289276903423651511_);}
	.st28{fill:url(#SVGID_00000161601155528418906200000016335115589007109560_);}
	.st29{fill:url(#SVGID_00000011030755206203201840000013246462657086612625_);}
	.st30{fill:url(#SVGID_00000016780460881256125880000016309868538982572219_);}
	.st31{fill:url(#SVGID_00000060023010413375670550000008713991687866316729_);}
	.st32{fill:url(#SVGID_00000017505944946668331620000009245809933632563621_);}
	.st33{fill:url(#SVGID_00000041989284674884896270000004560535478664497038_);}
	.st34{fill:url(#SVGID_00000011753043619918877060000001464704907663120827_);}
	.st35{fill:url(#SVGID_00000098913043614532269970000007541358971284534947_);}
	.st36{fill:url(#SVGID_00000066506957551302037950000003414002104252417433_);}
	.st37{fill:url(#SVGID_00000072278640971576474570000007199160905826821533_);}
	.st38{fill:url(#SVGID_00000181067838171249066030000011728973471652929163_);}
	.st39{fill:url(#SVGID_00000120547479280995934160000005559643028871643578_);}
	.st40{fill:url(#SVGID_00000069391458192100090670000005024267310615170458_);}
	.st41{fill:url(#SVGID_00000103264450325344452630000018313377142049820297_);}
	.st42{fill:url(#SVGID_00000091697318990039293100000008744341944401025931_);}
	.st43{fill:url(#SVGID_00000062884075345687456530000010192619616099524760_);}
	.st44{fill:url(#SVGID_00000111893600874830758230000016327138634412076959_);}
	.st45{fill:url(#SVGID_00000172404040450390089420000008939157440432886681_);}
	.st46{fill:url(#SVGID_00000109738927147477199520000007770757969315892867_);}
	.st47{fill:url(#SVGID_00000029749596230641609880000007448709048901843630_);}
	.st48{fill:url(#SVGID_00000070112051778589922360000017281068137891424669_);}
	.st49{fill:url(#SVGID_00000016792476718655910810000010987489582996581052_);}
	.st50{fill:url(#SVGID_00000034791796926910610860000000600247835283104172_);}
	.st51{fill:url(#SVGID_00000097495616765409849620000012095779398779757742_);}
	.st52{fill:url(#SVGID_00000119086063693897166530000009738386737270294963_);}
	.st53{fill:url(#SVGID_00000157992993070562405560000007533484963312807333_);}
	.st54{fill:url(#SVGID_00000152965387956273988550000011978984710305444786_);}
	.st55{fill:url(#SVGID_00000168082737072579508350000006101189559314779040_);}
	.st56{fill:url(#SVGID_00000171721554873308988320000015165427124239936944_);}
	.st57{fill:url(#SVGID_00000021836681911970015490000014124679728517011088_);}
	.st58{fill:url(#SVGID_00000034781519289136757720000005684970097485907338_);}
	.st59{fill:url(#SVGID_00000168831129945978561470000017996043820913960576_);}
	.st60{fill:url(#SVGID_00000183936814396670547640000008605043299170134201_);}
	.st61{fill:url(#SVGID_00000028294613842809697170000006059295398818361020_);}
	.st62{fill:url(#SVGID_00000013874613999583000600000015549229480410730404_);}
	.st63{fill:url(#SVGID_00000103264214450308227510000008078621236046746523_);}
	.st64{fill:url(#SVGID_00000116235756274697110660000016147009541490526132_);}
	.st65{fill:url(#SVGID_00000075862382554921603730000001565800714132002443_);}
	.st66{fill:url(#SVGID_00000075158770693342365720000010045456656758505372_);}
	.st67{fill:url(#SVGID_00000092455499757079247330000008295586287273157765_);}
	.st68{fill:url(#SVGID_00000138547635755922137710000017825603072272448698_);}
	.st69{fill:url(#SVGID_00000099622974786119034120000017784383167866945196_);}
	.st70{fill:url(#SVGID_00000025417976254921742620000004316983859559608500_);}
	.st71{fill:url(#SVGID_00000148624707184703363050000009232439787782435236_);}
	.st72{fill:url(#SVGID_00000105427486573601584520000015702953264681390219_);}
	.st73{fill:url(#SVGID_00000165209807701251581080000016019722926079105945_);}
	.st74{fill:url(#SVGID_00000143579837155103507940000006204391739675476656_);}
	.st75{fill:url(#SVGID_00000003093271063817559330000018182115419209588910_);}
	.st76{fill:url(#SVGID_00000013875621117032735100000009613324313389418400_);}
	.st77{fill:url(#SVGID_00000093134523562450019530000013599317011028394131_);}
	.st78{fill:url(#SVGID_00000146464336632403080010000009002093593226182038_);}
	.st79{fill:url(#SVGID_00000036951957452650085870000017314578402789964435_);}
	.st80{fill:url(#SVGID_00000155142212093114513190000006740023906849449652_);}
	.st81{fill:url(#SVGID_00000093145159821095466330000015273971978112726163_);}
	.st82{fill:url(#SVGID_00000163059227596178305290000004030273474614725521_);}
	.st83{fill:url(#SVGID_00000068648388627050211480000010474169175539966645_);}
	.st84{fill:url(#SVGID_00000105414973597551354590000012938184011818120883_);}
	.st85{fill:url(#SVGID_00000157994896180050004130000004647376286888811675_);}
	.st86{fill:url(#SVGID_00000160152682444372473760000002860857604964744072_);}
	.st87{fill:url(#SVGID_00000160879469817947627040000016920743636829898117_);}
	.st88{fill:url(#SVGID_00000012447530136615256980000013158375341827091372_);}
	.st89{fill:url(#SVGID_00000172415337205143862810000012722897640894445503_);}
	.st90{fill:url(#SVGID_00000065764436045983324520000011343744558753915788_);}
	.st91{fill:url(#SVGID_00000142166420556502556830000010104788213470934958_);}
	.st92{fill:url(#SVGID_00000123410358575411849920000000296877585752262589_);}
	.st93{fill:url(#SVGID_00000110468342793049293910000001380547423219333517_);}
	.st94{fill:url(#SVGID_00000105400806256293201490000012073883446623227056_);}
	.st95{fill:url(#SVGID_00000035491415524752313640000003167633628528229762_);}
	.st96{fill:url(#SVGID_00000134948884443214249050000013117388113145437315_);}
	.st97{fill:url(#SVGID_00000101799413241808945680000004076324247594474409_);}
	.st98{fill:url(#SVGID_00000041291658303894729750000012726392628584094378_);}
	.st99{fill:url(#SVGID_00000162326858929589330540000007250438022879916456_);}
	.st100{fill:url(#SVGID_00000152241575411067043210000008704680126209812878_);}
	.st101{fill:url(#SVGID_00000178926055396372806640000013958834572125334709_);}
	.st102{fill:url(#SVGID_00000182525438462815159560000009025762373434323360_);}
	.st103{fill:url(#SVGID_00000061438251771104790680000011374711112756739231_);}
	.st104{fill:url(#SVGID_00000117661913667138259500000015259249162802596525_);}
	.st105{fill:url(#SVGID_00000125598378409126736540000004224309550818463414_);}
	.st106{fill:url(#SVGID_00000024687848452491283250000002328876398276544411_);}
	.st107{fill:url(#SVGID_00000054949357542914120010000009236687393593726083_);}
	.st108{fill:url(#SVGID_00000133499026960058164280000002960165656639110319_);}
	.st109{fill:url(#SVGID_00000123401452168526074000000018290330990852851900_);}
	.st110{fill:url(#SVGID_00000129890153948822693110000000148746333774204595_);}
	.st111{fill:url(#SVGID_00000162317499258524541050000003192798833874719901_);}
	.st112{fill:url(#SVGID_00000131364429935772203760000003835595918430577052_);}
	.st113{fill:url(#SVGID_00000002366472685117787700000013952109420082611877_);}
	.st114{fill:url(#SVGID_00000000192213346424986470000016739231800065565611_);}
	.st115{fill:url(#SVGID_00000005238233662129137640000007141012277113897914_);}
	.st116{fill:url(#SVGID_00000019647654561766353480000009427150188716891572_);}
	.st117{fill:url(#SVGID_00000030466152326555779830000015225127660241464501_);}
	.st118{fill:url(#SVGID_00000154411564170039456350000016567173610726590350_);}
	.st119{fill:url(#SVGID_00000033346435467704505290000017768119442472039854_);}
	.st120{fill:url(#SVGID_00000079482539240211997390000014204294854470154409_);}
	.st121{fill:url(#SVGID_00000119096965028410288080000017493135531644232348_);}
	.st122{fill:url(#SVGID_00000169556662257418861910000014041978698832842923_);}
	.st123{fill:url(#SVGID_00000041259306758280061150000009435679912692784521_);}
	.st124{fill:url(#SVGID_00000134247524972650955970000014800324444011360174_);}
	.st125{fill:url(#SVGID_00000157291040441440294500000001194796361892005565_);}
	.st126{fill:url(#SVGID_00000107557606468243941510000000414799675152929969_);}
	.st127{fill:url(#SVGID_00000132068497690802846470000000264794001926583703_);}
	.st128{fill:url(#SVGID_00000147929456968257098600000009433769775937305780_);}
	.st129{fill:url(#SVGID_00000003081607277399360670000002725486163888859023_);}
	.st130{fill:url(#SVGID_00000065036035799269840000000017311417757729017276_);}
	.st131{fill:url(#SVGID_00000008865862338861063600000009441411200034145155_);}
	.st132{fill:url(#SVGID_00000117676194972026885590000006445112257214187668_);}
	.st133{fill:url(#SVGID_00000003812818519669977360000015276740272660524222_);}
	.st134{fill:url(#SVGID_00000023975346187037176930000017789375156106370949_);}
	.st135{fill:url(#SVGID_00000165943144728970250240000016270316230517177003_);}
	.st136{fill:url(#SVGID_00000152943582537873410810000013929979720662227854_);}
	.st137{fill:url(#SVGID_00000132783375872937081760000007411279814174628276_);}
	.st138{fill:url(#SVGID_00000064328048700914679440000017612054289199839935_);}
	.st139{fill:url(#SVGID_00000099628972417542593690000007597465476804953002_);}
	.st140{fill:url(#SVGID_00000102527939097816582610000015635046788205851542_);}
	.st141{fill:url(#SVGID_00000163051719252662197590000011914351808040589731_);}
	.st142{fill:url(#SVGID_00000155844629180113128300000013718305063220380346_);}
	.st143{fill:url(#SVGID_00000035529738513943366520000005053123911347816879_);}
	.st144{fill:url(#SVGID_00000168094100881541396110000013585525186322003082_);}
	.st145{fill:url(#SVGID_00000178895545071728424590000004717246765243928963_);}
	.st146{fill:url(#SVGID_00000100353531369458080800000003230007256687834261_);}
	.st147{fill:url(#SVGID_00000041988062301934405640000009274708973872920202_);}
	.st148{fill:url(#SVGID_00000158713979688494337000000008881062327037318825_);}
	.st149{fill:url(#SVGID_00000080905062422402367960000014097759820030580096_);}
</style>
<g>
	<path class="st0" d="M18.6,76.5c0-0.5,0.1-1,0.2-1.5l0,0l7-24.7l11.3-1.2l108.1,1.1c0.2,0,0.4,0,0.5,0.1h0.8v-0.1
		c9.6,31.4-0.1,55.6-0.1,55.6c0.1-0.3,0.1-0.6,0.2-0.9c-0.1,0.3-0.1,0.6-0.2,0.9L126.3,119l-17.3,9.1h-6.7h-2.6H24
		c-3,0-5.4-2.4-5.4-5.4L18.6,76.5L18.6,76.5z"/>
	
		<linearGradient id="SVGID_1_" gradientUnits="userSpaceOnUse" x1="85.6317" y1="121.1834" x2="85.91" y2="86.1101" gradientTransform="matrix(-1 0 0 -1 166.7631 177.7373)">
		<stop  offset="0" style="stop-color:#5C5C5C"/>
		<stop  offset="0.1042" style="stop-color:#979797"/>
	</linearGradient>
	<path class="st1" d="M17.3,80.8l2-6.9c0-0.1,0.1-0.2,0.1-0.4l0.1-0.3c0-0.1,0.1-0.2,0.1-0.2l0-0.1l2.8-9.9l1.2-4.1l0.2-0.8l0.3-0.9
		L35.4,56l3.6,0l5.9,0.1c0,0,0,0,0,0l8.9,0.1l5.9,0.1l56.6,0.6l5.7,0.1l9.6,0.1l5.7,0.1l6.2,0.1h0c0.4,0,0.8,0.2,1,0.5
		c0.1,0.1,0.2,0.2,0.2,0.3c0,0.2,0.1,0.3,0.1,0.5c0,0.1,0,0.2,0,0.3c0,0,0,0.1,0,0.1c0,0,0,0,0,0c0,0.1,0,0.1-0.1,0.2
		c-0.2,0.3-0.3,0.5-0.5,0.8c-3.3,5.4-8.6,8.3-14.8,10.1l-23.7,7.9h-8.5h-75c-0.1,0-0.2,0-0.3,0h0c-0.1,0-0.2,0-0.4,0
		c-2.5,0-2.4-2.3-2.1-3.8l-1.8,6.5C17.4,80.7,17.3,80.7,17.3,80.8z"/>
	<g>
		<path class="st2" d="M146.1,95.7l0.1-0.1C146.2,95.7,146.1,95.7,146.1,95.7z"/>
		<path class="st2" d="M115.3,77.3l11-3.7c0,0,0,0,0,0c0.4,0.4,6.9,8,6.3,25.9c-0.6,18.4-6.9,25-6.9,25c0-0.1,0-0.1,0.1-0.2
			c0,0,0,0-0.1,0.1c-4.7,2.6-10.5,5.9-15.1,7.9c-0.9,0.4-1.9-0.5-1.7-1.5c4.2-16.2,3.7-30-1-45.8C106.4,79.9,110.2,79.1,115.3,77.3z
			"/>
		<polygon class="st3" points="22.3,63 23.7,58.1 25.8,58.1 24.4,63 		"/>
		<polygon class="st4" points="23.4,58.9 144.7,58.9 144.7,57.1 24,57.2 		"/>
		<ellipse class="st4" cx="126.8" cy="56.9" rx="10.5" ry="4.4"/>
		<ellipse class="st2" cx="126.8" cy="56.9" rx="4.8" ry="2"/>
		<ellipse class="st4" cx="49.3" cy="56.9" rx="10.5" ry="4.4"/>
		<ellipse class="st2" cx="49.3" cy="56.9" rx="4.8" ry="2"/>
		
			<linearGradient id="SVGID_00000082351990862750470690000002293782284529816749_" gradientUnits="userSpaceOnUse" x1="108.7224" y1="704.5383" x2="108.7224" y2="696.286" gradientTransform="matrix(-1 0 0 -1 166.7631 769.7372)">
			<stop  offset="0.3111" style="stop-color:#000000"/>
			<stop  offset="1" style="stop-color:#37475E"/>
		</linearGradient>
		<path style="fill:url(#SVGID_00000082351990862750470690000002293782284529816749_);" d="M93.6,71.7v-4.1c0-1.3-0.9-2.4-2.1-2.4
			H26.4c-1.2,0-1.9,0.4-2.5,2.1l-1.3,4.4c-0.4,1.8,0.9,2.4,2.1,2.4h66.8C92.7,74.1,93.6,73,93.6,71.7z"/>
		<path class="st2" d="M22.2,134.9h84.9l17.3-9.1l20.1-13.2c0,0,0,0,0,0c0-0.3,0.1-0.6,0.2-0.8c0-0.1,0-0.1,0-0.1
			c1.4-6.1,2.2-11.8,2.5-17.2l-0.1,0.1l-1,1.1c0,0.1-0.1,0.1-0.1,0.1l0.1-0.1c0.6-1.5,0.3-14.2-1.1-17.8l2.1,0.2
			c-0.6-7-1.8-13.1-3.1-18.1c-3.3,5.4-8.6,8.3-14.8,10.1l-23.7,7.9H22.1c-0.1,0-0.2,0-0.3,0h0c-0.1,0-0.2,0-0.4,0
			c-2.5,0-2.4-2.3-2.1-3.8l-1.8,6.5c0,0.1-0.1,0.1-0.1,0.2c-0.4,0.8-0.6,1.6-0.6,2.5v46.2C16.8,132.4,19.2,134.9,22.2,134.9z
			 M115.3,77.3l11-3.7c0,0,0,0,0,0c0.4,0.4,6.9,8,6.3,25.9c-0.6,18.4-6.9,25-6.9,25c0-0.1,0-0.1,0.1-0.2c0,0,0,0-0.1,0.1
			c-4.7,2.6-10.5,5.9-15.1,7.9c-0.9,0.4-1.9-0.5-1.7-1.5c4.2-16.2,3.7-30-1-45.8C106.4,79.9,110.2,79.1,115.3,77.3z"/>
		
			<linearGradient id="SVGID_00000168089530094928269360000000758659376265244822_" gradientUnits="userSpaceOnUse" x1="51.7402" y1="74.6112" x2="39.9593" y2="74.9446" gradientTransform="matrix(-1 0 0 -1 166.7631 177.7373)">
			<stop  offset="0.3111" style="stop-color:#000000"/>
			<stop  offset="1" style="stop-color:#37475E"/>
		</linearGradient>
		<path style="fill:url(#SVGID_00000168089530094928269360000000758659376265244822_);" d="M115.3,77.3l11-3.7c0,0,0,0,0,0
			c10.9,15.1,5.4,44.4-0.6,50.7c0,0,0,0-0.1,0.1c-4.7,2.6-10.5,5.9-15.1,7.9c-0.9,0.4-1.9-0.5-1.7-1.5c4.2-16.2,3.7-30-1-45.8
			C106.4,79.9,110.2,79.1,115.3,77.3z"/>
		
			<linearGradient id="SVGID_00000082335626023446878970000009330287065546251452_" gradientUnits="userSpaceOnUse" x1="51.4855" y1="704.3694" x2="51.4855" y2="696.6798" gradientTransform="matrix(-1 0 0 -1 166.7631 769.7372)">
			<stop  offset="0.3111" style="stop-color:#000000"/>
			<stop  offset="1" style="stop-color:#37475E"/>
		</linearGradient>
		<path style="fill:url(#SVGID_00000082335626023446878970000009330287065546251452_);" d="M106.5,72v-5.1c0-0.9,0.7-1.6,1.6-1.6
			h14.4c0.9,0,1.6,0.7,1.6,1.6v0.3c0,0.7-0.4,1.3-1.1,1.5l-14.5,4.8C107.6,73.9,106.5,73.1,106.5,72z"/>
		<path d="M125.7,124.4c7.1-19.2,5.2-35.4,0.5-50.7c0,0,0,0,0,0c0.4,0.4,6.9,8,6.3,25.9c-0.6,18.4-6.9,25-6.9,25
			C125.7,124.5,125.7,124.4,125.7,124.4z"/>
		<path d="M143.9,59.1l0.1-0.2l0.4-0.9l0.2-0.4l0.2-0.5c9.3,30.7,0.2,54.5-0.2,55.5c0.1-0.3,0.1-0.6,0.2-0.8c0-0.1,0-0.1,0-0.1
			c1.4-6.1,2.2-11.8,2.5-17.2c0.4-5.9,0.3-11.4-0.1-16.4c-0.6-7-1.8-13.1-3.1-18.1C144,59.7,143.9,59.4,143.9,59.1z"/>
		<path d="M146.1,95.7l0.1-0.1C146.2,95.7,146.1,95.7,146.1,95.7z"/>
		<path d="M145.1,77.8l2.1,0.2l0.4,0l0.2,0V94l-0.2,0.2l-0.3,0.3l-0.1,0.1l-1,1.1C146.8,94.1,146.5,81.4,145.1,77.8z"/>
		<path class="st9" d="M19.6,72.9L19.6,72.9C19.6,73,19.6,73,19.6,72.9C19.6,72.9,19.6,72.9,19.6,72.9z"/>
		<path class="st9" d="M19.3,74.1c0-0.1,0-0.1,0-0.2c0-0.1,0.1-0.2,0.1-0.4l0.1-0.3c0-0.1,0.1-0.2,0.1-0.2c0,0,0,0,0-0.1L19.3,74.1z
			"/>
	</g>
</g>
</svg>
