<?xml version="1.0" encoding="utf-8"?>
<!-- Generator: Adobe Illustrator 25.4.1, SVG Export Plug-In . SVG Version: 6.00 Build 0)  -->
<svg version="1.1" id="Capa_1" xmlns="http://www.w3.org/2000/svg" xmlns:xlink="http://www.w3.org/1999/xlink" x="0px" y="0px"
	 viewBox="0 0 310 310" style="enable-background:new 0 0 310 310;" xml:space="preserve">
<style type="text/css">
	.st0{opacity:0.2;fill:#110C0A;enable-background:new    ;}
	.st1{fill:#999999;}
	.st2{fill:#FFFFFF;}
	.st3{fill:url(#SVGID_1_);}
	.st4{fill:none;stroke:#A0349D;stroke-width:9;stroke-miterlimit:10;}
	.st5{fill:#C00C0A;}
	.st6{fill:#110C0A;}
	.st7{fill:url(#SVGID_00000109030318181824514500000018199974314375592332_);}
	.st8{fill:url(#SVGID_00000021817661593490669020000012036232658980914090_);}
	.st9{fill:url(#SVGID_00000165235084994411115660000007299632655321267348_);}
	.st10{fill:url(#SVGID_00000083793962276794550300000005034989527226760625_);}
	.st11{fill:url(#SVGID_00000131363461559174987190000016340767972079702144_);}
	.st12{fill:url(#SVGID_00000016073182440448459700000005802508537850312883_);}
	.st13{fill:url(#SVGID_00000166641820119964743410000012323506777648521662_);}
	.st14{fill:url(#SVGID_00000139982354406477871720000013738285505240524704_);}
	.st15{fill:url(#SVGID_00000178190258749721939720000004863750121615759010_);}
	.st16{fill:url(#SVGID_00000103265506707437056410000005697771170520276155_);}
	.st17{fill:url(#SVGID_00000037680793618702581210000008428448443907277234_);}
	.st18{fill:url(#SVGID_00000162339235846952587680000000830184311898844838_);}
	.st19{fill:url(#SVGID_00000060714810248698022330000016856782415456738945_);}
	.st20{fill:url(#SVGID_00000098192766162141641830000006008261785695149481_);}
	.st21{fill:url(#SVGID_00000067918855953309771110000005735585318368982195_);}
	.st22{fill:url(#SVGID_00000049200782495121434190000001040547834952192900_);}
	.st23{fill:url(#SVGID_00000150063777449063869090000011985745466498940571_);}
	.st24{fill:url(#SVGID_00000135669421522788634690000008883861578800313731_);}
	.st25{fill:url(#SVGID_00000015319776430925414160000001177780146570005397_);}
	.st26{fill:url(#SVGID_00000044153448814537536050000006356018858689118390_);}
	.st27{fill:url(#SVGID_00000116204681968454775370000016377702106227458180_);}
	.st28{fill:url(#SVGID_00000123441325867708779960000011375658654638618255_);}
	.st29{fill:url(#SVGID_00000121982799517671690170000014483079391288657308_);}
	.st30{fill:url(#SVGID_00000116950127872682218230000000792503634731489411_);}
	.st31{fill:url(#SVGID_00000179614773710242918010000015829190622921453219_);}
	.st32{fill:url(#SVGID_00000083798062800664456230000003495171784130719628_);}
	.st33{fill:url(#SVGID_00000143601720997274005060000002015810699434266245_);}
	.st34{fill:url(#SVGID_00000166652097712698716860000002589142659837028992_);}
	.st35{fill:url(#SVGID_00000171712665296739131960000007708034406830072468_);}
	.st36{fill:url(#SVGID_00000026867515321910142110000003840463741531394457_);}
	.st37{fill:url(#SVGID_00000060727248180379954320000008978539112584428945_);}
	.st38{fill:url(#SVGID_00000114790841819464919350000008485402289095158707_);}
	.st39{fill:url(#SVGID_00000005258211083282207040000012007789266113846434_);}
	.st40{fill:url(#SVGID_00000151526007592030083000000006164996106492257681_);}
	.st41{fill:url(#SVGID_00000162322587060867030170000004501579909635002510_);}
	.st42{fill:url(#SVGID_00000063600528959967888290000015294940680372003509_);}
	.st43{fill:url(#SVGID_00000082343376068057196960000018071291041013649823_);}
	.st44{fill:url(#SVGID_00000171693752938545988750000003404700914382815902_);}
	.st45{fill:url(#SVGID_00000031201653328749875820000009822864328442044833_);}
	.st46{fill:url(#SVGID_00000032637699701659484980000007818332377118056841_);}
	.st47{fill:url(#SVGID_00000165917728518788335780000014184106581913304966_);}
	.st48{fill:url(#SVGID_00000011736622355947794420000010917982292115426435_);}
	.st49{fill:url(#SVGID_00000007387985518668595150000009341780188068024235_);}
	.st50{fill:url(#SVGID_00000112599841221997810950000008233324166776303023_);}
	.st51{fill:url(#SVGID_00000013182584617710209970000013779125522094433462_);}
	.st52{fill:url(#SVGID_00000074410361119698816410000017350591035355475611_);}
	.st53{fill:url(#SVGID_00000036973764670133978430000017754482645246233233_);}
	.st54{fill:url(#SVGID_00000124139953783781631890000010903040808528654011_);}
	.st55{fill:url(#SVGID_00000068662459056385225550000015183011269782768256_);}
	.st56{fill:url(#SVGID_00000137134446804631638050000007716085541380524931_);}
	.st57{fill:url(#SVGID_00000165232851178000183590000010815260529127160977_);}
	.st58{fill:url(#SVGID_00000147204552457930154660000004964281494302546858_);}
	.st59{fill:url(#SVGID_00000132079188173191183170000001186625535836204707_);}
	.st60{fill:url(#SVGID_00000072278931061521434950000006156680123426754206_);}
	.st61{fill:url(#SVGID_00000181078878716554451780000002495933337832512184_);}
	.st62{fill:url(#SVGID_00000102502036436699259450000008788393991692931003_);}
	.st63{fill:url(#SVGID_00000055669055825508829190000003319153081906097339_);}
	.st64{fill:url(#SVGID_00000128471876737874269390000013283842541881201813_);}
	.st65{fill:url(#SVGID_00000114060370896181338460000000004689198235258282_);}
	.st66{fill:url(#SVGID_00000005245791779929983710000011413696169396544132_);}
	.st67{fill:url(#SVGID_00000060010091415137328480000007537348316114358917_);}
	.st68{fill:url(#SVGID_00000138563584064899787600000017688376468432359296_);}
	.st69{fill:url(#SVGID_00000074424991724393975320000008789903648615936408_);}
	.st70{fill:url(#SVGID_00000098933812542809949470000015837995206885491343_);}
	.st71{fill:url(#SVGID_00000091709891511048165290000001610525216151428785_);}
	.st72{fill:url(#SVGID_00000048480233178087949290000000278183777021727650_);}
	.st73{fill:url(#SVGID_00000062912493303725091660000001327904167460767162_);}
	.st74{fill:url(#SVGID_00000157988725259778164730000008373198460352698543_);}
	.st75{fill:url(#SVGID_00000029040989076493326640000005960342315433597372_);}
	.st76{fill:url(#SVGID_00000036939219406736021550000009487176929885627011_);}
	.st77{fill:url(#SVGID_00000149371704878233160530000001690624751395203466_);}
</style>
<g>
	<path class="st0" d="M199.1,23l0-0.6c0.2-3.8-2.7-7.1-6.5-7.5l-61.2-6.6L89,242.6l2.1,11.5l0,0l4.5,3.5l0,0l5.2,4.2
		c0,0,34.9-174.8,33.6-180.5L199.1,23z"/>
	<g>
		<polygon class="st1" points="96.9,259.2 113.4,272.4 153.9,27.7 137.4,13.2 94.8,247.6 		"/>
		
			<rect x="151.1" y="30.2" transform="matrix(0.1736 -0.9848 0.9848 0.1736 95.7289 176.1063)" class="st2" width="3.4" height="1.6"/>
		<path class="st2" d="M217.7,37.8l-15.4-14.9c-1.8-1.7-4.2-2.9-6.7-3.1L137.2,13l16.3,17.5L217.7,37.8z"/>
		
			<linearGradient id="SVGID_1_" gradientUnits="userSpaceOnUse" x1="-218.9538" y1="506.3448" x2="-218.9538" y2="517.8958" gradientTransform="matrix(-0.1736 0.9848 0.9848 0.1736 -418.254 267.8496)">
			<stop  offset="0.3111" style="stop-color:#000000"/>
			<stop  offset="1" style="stop-color:#37475E"/>
		</linearGradient>
		<path class="st3" d="M111.8,266.1l41.1-233.3c0.4-2.3-0.4-4.6-2.2-6.2l-9.8-9.5c-0.5,1.6,0.9,23.5,0.9,23.5l-37.7,213.9
			L111.8,266.1z"/>
		<path class="st2" d="M175.2,278.7l42.5-240.9L153.4,30l-41.9,237.4c-0.5,3,1.4,5.7,4.4,6.3L169,283
			C171.9,283.6,174.7,281.6,175.2,278.7z"/>
		<polygon class="st5" points="101.4,262.8 96.9,259.2 97.3,257.1 101.7,260.7 		"/>
		<path class="st2" d="M106.4,266.8c0,0,4.6,3.4,5.1,0.2c0.2-1.4,0.4-2.3,0.4-2.3l1.7,7.9L106.4,266.8z"/>
		
			<ellipse transform="matrix(0.1736 -0.9848 0.9848 0.1736 58.1662 170.1823)" class="st6" cx="130.5" cy="50.4" rx="10.5" ry="4.5"/>
		<ellipse transform="matrix(0.1736 -0.9848 0.9848 0.1736 58.1662 170.1823)" class="st2" cx="130.5" cy="50.4" rx="4.8" ry="2"/>
		<g>
			
				<ellipse transform="matrix(0.1736 -0.9848 0.9848 0.1736 -125.0896 275.9851)" class="st6" cx="101.9" cy="212.5" rx="10.5" ry="4.5"/>
			
				<ellipse transform="matrix(0.1736 -0.9848 0.9848 0.1736 -125.0896 275.9851)" class="st2" cx="101.9" cy="212.5" rx="4.8" ry="2"/>
		</g>
		<g>
			
				<ellipse transform="matrix(0.1736 -0.9848 0.9848 0.1736 -149.9171 290.3193)" class="st6" cx="98" cy="234.5" rx="10.5" ry="4.5"/>
			<ellipse transform="matrix(0.1736 -0.9848 0.9848 0.1736 -149.9171 290.3193)" class="st2" cx="98" cy="234.5" rx="4.8" ry="2"/>
		</g>
		
			<linearGradient id="SVGID_00000026127261035877820500000006336169712698197661_" gradientUnits="userSpaceOnUse" x1="-347.3038" y1="548.8538" x2="-334.2269" y2="548.8538" gradientTransform="matrix(-0.1736 0.9848 0.9848 0.1736 -418.254 267.8496)">
			<stop  offset="0.3111" style="stop-color:#000000"/>
			<stop  offset="1" style="stop-color:#37475E"/>
		</linearGradient>
		<path style="fill:url(#SVGID_00000026127261035877820500000006336169712698197661_);" d="M155.2,29.6l7.7,0.9l0,0l54.6,6.9
			l-13-12.5l-59.1-6.8l8.5,8.7C153.8,26.9,155.2,28.5,155.2,29.6z"/>
	</g>
</g>
</svg>
