<?xml version="1.0" encoding="utf-8"?>
<!-- Generator: Adobe Illustrator 25.4.1, SVG Export Plug-In . SVG Version: 6.00 Build 0)  -->
<svg version="1.1" id="Capa_1" xmlns="http://www.w3.org/2000/svg" xmlns:xlink="http://www.w3.org/1999/xlink" x="0px" y="0px"
	 viewBox="0 0 310 310" style="enable-background:new 0 0 310 310;" xml:space="preserve">
<style type="text/css">
	.st0{opacity:0.2;fill:#110C0A;enable-background:new    ;}
	.st1{fill:#999999;}
	.st2{fill:#FFFFFF;}
	.st3{fill:url(#SVGID_1_);}
	.st4{fill:none;stroke:#A0349D;stroke-width:9;stroke-miterlimit:10;}
	.st5{fill:#C00C0A;}
	.st6{fill:#110C0A;}
	.st7{fill:url(#SVGID_00000150780736653655110270000007100487495066230416_);}
	.st8{fill:url(#SVGID_00000047061431842542220810000010078925361835597482_);}
	.st9{fill:url(#SVGID_00000124149194456088549070000012854282871146777008_);}
	.st10{fill:url(#SVGID_00000029764357797002969840000014710094489741616522_);}
	.st11{fill:url(#SVGID_00000016761945894092016680000016938946201174697386_);}
	.st12{fill:url(#SVGID_00000027562083473253931900000010682187940883628714_);}
	.st13{fill:url(#SVGID_00000034075925013728580510000009192886169536977295_);}
	.st14{fill:url(#SVGID_00000168086718166536578490000005726077373233500573_);}
	.st15{fill:url(#SVGID_00000106854972002857833200000006336089372904726157_);}
	.st16{fill:url(#SVGID_00000172434489412836102250000017233267042425567667_);}
	.st17{fill:url(#SVGID_00000019659558846380720420000004630484865683641758_);}
	.st18{fill:url(#SVGID_00000005970031381439733490000018371805490944718497_);}
	.st19{fill:url(#SVGID_00000071520863903633277460000001559875349990308246_);}
	.st20{fill:url(#SVGID_00000119099610445388986790000000410306706804402056_);}
	.st21{fill:url(#SVGID_00000123402676913533076740000014988945886082319493_);}
	.st22{fill:url(#SVGID_00000090979841539418435460000010205045077984446642_);}
	.st23{fill:url(#SVGID_00000021081190195581925810000000505478868721980303_);}
	.st24{fill:url(#SVGID_00000036959564488828413970000010536104743438807978_);}
	.st25{fill:url(#SVGID_00000173871803675413397200000000529146243299331212_);}
	.st26{fill:url(#SVGID_00000155868398067206971610000016966377271031149728_);}
	.st27{fill:url(#SVGID_00000105392437264633572410000010364145791143035804_);}
	.st28{fill:url(#SVGID_00000112625176489235115700000017787183146062908305_);}
	.st29{fill:url(#SVGID_00000003815324780987497440000005274412436398690711_);}
	.st30{fill:url(#SVGID_00000034807950079386393900000000234034210504150930_);}
	.st31{fill:url(#SVGID_00000128484338914063729400000005268519037982921914_);}
	.st32{fill:url(#SVGID_00000055688152480114436190000002708241235835593602_);}
	.st33{fill:url(#SVGID_00000134215175842294491170000003859990880956436671_);}
	.st34{fill:url(#SVGID_00000023258611442700372650000015426273224434400660_);}
	.st35{fill:url(#SVGID_00000138534855789773045830000012870125543749724307_);}
	.st36{fill:url(#SVGID_00000112606025185809166820000004013834863425917614_);}
	.st37{fill:url(#SVGID_00000094579516559668041300000011811163590619065000_);}
	.st38{fill:url(#SVGID_00000115475962464135574500000018311508897573367479_);}
	.st39{fill:url(#SVGID_00000121961496353594492800000004873011137730938537_);}
	.st40{fill:url(#SVGID_00000002347126612585658860000018085627739805289364_);}
	.st41{fill:url(#SVGID_00000061433823901813937840000013067985891464008577_);}
	.st42{fill:url(#SVGID_00000018938002627511861610000015234161180482586287_);}
	.st43{fill:url(#SVGID_00000125565243759053301760000017119419982761549230_);}
	.st44{fill:url(#SVGID_00000010306918315720594570000000588562760138331293_);}
	.st45{fill:url(#SVGID_00000067917298086413649410000005819485312556486328_);}
	.st46{fill:url(#SVGID_00000005248648372902515040000010543759080349646997_);}
	.st47{fill:url(#SVGID_00000009560571414560757000000014721436797375290259_);}
	.st48{fill:url(#SVGID_00000157285400341818846260000000749407152612113570_);}
	.st49{fill:url(#SVGID_00000137133061399928521210000012539807221099987616_);}
	.st50{fill:url(#SVGID_00000150811530080152257920000009984575684889598371_);}
	.st51{fill:url(#SVGID_00000008854018576956563920000002990924074805472922_);}
	.st52{fill:url(#SVGID_00000080910051402888681350000016393200162609126044_);}
	.st53{fill:url(#SVGID_00000062165928620305440420000000768220601069099178_);}
	.st54{fill:url(#SVGID_00000163046365006349243780000003185679948401543331_);}
	.st55{fill:url(#SVGID_00000163790814149155643640000007607690580472251276_);}
	.st56{fill:url(#SVGID_00000053505993487312744580000007445588356257573534_);}
	.st57{fill:url(#SVGID_00000173857280059660657200000010461133812480119474_);}
	.st58{fill:url(#SVGID_00000008106842197810519830000002365622749046851507_);}
	.st59{fill:url(#SVGID_00000041980548797453084830000013675434587720052146_);}
	.st60{fill:url(#SVGID_00000106870263386419796910000006436965744062414496_);}
	.st61{fill:url(#SVGID_00000170978193605869403450000013729379988386286479_);}
	.st62{fill:url(#SVGID_00000143587876236617957010000015402861767628331168_);}
	.st63{fill:url(#SVGID_00000034081268724909230270000013496981518627877511_);}
	.st64{fill:url(#SVGID_00000064335446537394173320000014876913358271666076_);}
	.st65{fill:url(#SVGID_00000139292975933348899630000014005866343324150706_);}
	.st66{fill:url(#SVGID_00000142139603155558551140000016746341936603771837_);}
	.st67{fill:url(#SVGID_00000176010453034470332040000008129361638187902893_);}
	.st68{fill:url(#SVGID_00000018235508206074902670000009078098244956195761_);}
	.st69{fill:url(#SVGID_00000040543816975750850640000010105680924838689707_);}
	.st70{fill:url(#SVGID_00000158006696604964609530000008479804527910569638_);}
	.st71{fill:url(#SVGID_00000072966340352031987350000016008788669511275955_);}
	.st72{fill:url(#SVGID_00000000917997322584600830000016589848680101707186_);}
	.st73{fill:url(#SVGID_00000054948105975782213020000005541079141684757950_);}
	.st74{fill:url(#SVGID_00000177444075499808751420000003303888849499427726_);}
	.st75{fill:url(#SVGID_00000094578379255922259190000000101089118101904317_);}
	.st76{fill:url(#SVGID_00000153702765949254365370000018285317204707449518_);}
	.st77{fill:url(#SVGID_00000142134334031390378480000017027468260105334915_);}
</style>
<g>
	<path class="st0" d="M284.4,143.6l0.6,0.2c3.7,1.2,5.7,5,4.9,8.7l-14.7,59.8L40.4,171.9L30.2,166l0,0l-1.8-5.4l0,0l-2.1-6.3
		c0,0,176.2,27,181.1,30.2L284.4,143.6z"/>
	<g>
		<polygon class="st1" points="27.5,158.8 20.7,138.8 264.5,184.5 272.5,205 37.7,164.8 		"/>
		
			<rect x="260.3" y="182.7" transform="matrix(0.1736 -0.9848 0.9848 0.1736 34.1663 409.428)" class="st2" width="1.6" height="3.4"/>
		<path class="st2" d="M276.9,121l8.7,19.6c1,2.3,1.3,4.9,0.6,7.3l-13.6,57.2l-10.9-21.3L276.9,121z"/>
		
			<linearGradient id="SVGID_1_" gradientUnits="userSpaceOnUse" x1="-3588.6912" y1="3876.0823" x2="-3588.6912" y2="3887.6331" gradientTransform="matrix(-0.9848 -0.1736 0.1736 -0.9848 -4060.509 3373.3633)">
			<stop  offset="0.3111" style="stop-color:#000000"/>
			<stop  offset="1" style="stop-color:#37475E"/>
		</linearGradient>
		<path class="st3" d="M26.1,142.5l233.3,41.1c2.3,0.4,4.2,2,5.1,4.1l5.6,12.5c-1.7-0.1-21.8-8.9-21.8-8.9L34.4,153.6L26.1,142.5z"
			/>
		<path class="st2" d="M36,78.6L276.9,121l-14.7,63.1L24.8,142.3c-3-0.5-4.9-3.3-4.4-6.3l9.4-53.1C30.3,80,33,78,36,78.6z"/>
		<polygon class="st5" points="25.6,153.4 27.5,158.8 29.6,159.2 27.7,153.8 		"/>
		<path class="st2" d="M23.6,147.3c0,0-1.7-5.5,1.6-4.9c1.4,0.2,2.3,0.4,2.3,0.4l-6.9-4.3L23.6,147.3z"/>
		
			<ellipse transform="matrix(0.1736 -0.9848 0.9848 0.1736 -1.326 395.777)" class="st6" cx="235.2" cy="198.7" rx="4.5" ry="10.5"/>
		<ellipse transform="matrix(0.1736 -0.9848 0.9848 0.1736 -1.326 395.777)" class="st2" cx="235.2" cy="198.7" rx="2" ry="4.8"/>
		<g>
			
				<ellipse transform="matrix(0.1736 -0.9848 0.9848 0.1736 -107.1288 212.5211)" class="st6" cx="73.1" cy="170.1" rx="4.5" ry="10.5"/>
			
				<ellipse transform="matrix(0.1736 -0.9848 0.9848 0.1736 -107.1288 212.5211)" class="st2" cx="73.1" cy="170.1" rx="2" ry="4.8"/>
		</g>
		<g>
			
				<ellipse transform="matrix(0.1736 -0.9848 0.9848 0.1736 -121.463 187.6936)" class="st6" cx="51.1" cy="166.2" rx="4.5" ry="10.5"/>
			
				<ellipse transform="matrix(0.1736 -0.9848 0.9848 0.1736 -121.463 187.6936)" class="st2" cx="51.1" cy="166.2" rx="2" ry="4.8"/>
		</g>
		
			<linearGradient id="SVGID_00000048462885637424048490000010422253645123212422_" gradientUnits="userSpaceOnUse" x1="-3717.0413" y1="3918.5913" x2="-3703.9644" y2="3918.5913" gradientTransform="matrix(-0.9848 -0.1736 0.1736 -0.9848 -4060.509 3373.3633)">
			<stop  offset="0.3111" style="stop-color:#000000"/>
			<stop  offset="1" style="stop-color:#37475E"/>
		</linearGradient>
		<path style="fill:url(#SVGID_00000048462885637424048490000010422253645123212422_);" d="M263.2,182.6l1.7-7.5l0,0l12.2-53.7
			l7.2,16.5l-13.9,57.9l-5.3-11C265.2,184.8,264.2,183,263.2,182.6z"/>
	</g>
</g>
</svg>
