<?xml version="1.0" encoding="utf-8"?>
<!-- Generator: Adobe Illustrator 25.4.1, SVG Export Plug-In . SVG Version: 6.00 Build 0)  -->
<svg version="1.1" id="Capa_1" xmlns="http://www.w3.org/2000/svg" xmlns:xlink="http://www.w3.org/1999/xlink" x="0px" y="0px"
	 viewBox="0 0 310 310" style="enable-background:new 0 0 310 310;" xml:space="preserve">
<style type="text/css">
	.st0{opacity:0.2;fill:#110C0A;enable-background:new    ;}
	.st1{fill:#999999;}
	.st2{fill:#FFFFFF;}
	.st3{fill:url(#SVGID_1_);}
	.st4{fill:none;stroke:#A0349D;stroke-width:9;stroke-miterlimit:10;}
	.st5{fill:#C00C0A;}
	.st6{fill:#110C0A;}
	.st7{fill:url(#SVGID_00000057870025677703456920000006215164902286135204_);}
	.st8{fill:url(#SVGID_00000011751705005136604060000006264227683495552663_);}
	.st9{fill:url(#SVGID_00000102533614489932796560000004951076550443891896_);}
	.st10{fill:url(#SVGID_00000113320105568784910190000013306786227404092052_);}
	.st11{fill:url(#SVGID_00000177451991192262692030000003401950005505830280_);}
	.st12{fill:url(#SVGID_00000106111973095630494230000003200221562552406421_);}
	.st13{fill:url(#SVGID_00000102511688793350576950000013987692823957487521_);}
	.st14{fill:url(#SVGID_00000135668649337566169040000015079446324918909334_);}
	.st15{fill:url(#SVGID_00000072273426162037246430000013737736717461329087_);}
	.st16{fill:url(#SVGID_00000171721860641662682210000015701380246638706583_);}
	.st17{fill:url(#SVGID_00000137812533308496640890000012179020620114759086_);}
	.st18{fill:url(#SVGID_00000008853104432595859470000017630371904052506298_);}
	.st19{fill:url(#SVGID_00000011019316034484602300000016369486548719810466_);}
	.st20{fill:url(#SVGID_00000176747855701969917900000011992257553109562260_);}
	.st21{fill:url(#SVGID_00000173134047728193955210000008769286677492160910_);}
	.st22{fill:url(#SVGID_00000036227028119714563300000001761197273295206812_);}
	.st23{fill:url(#SVGID_00000132809142125228459280000017141660922861620112_);}
	.st24{fill:url(#SVGID_00000118370944811184597180000012308521132949369787_);}
	.st25{fill:url(#SVGID_00000069373540486854744250000017489815340296662459_);}
	.st26{fill:url(#SVGID_00000146491362194275424090000015710312294150609048_);}
	.st27{fill:url(#SVGID_00000012447400990695157200000014158616475022855045_);}
	.st28{fill:url(#SVGID_00000039095444578656052190000017338913774350881426_);}
	.st29{fill:url(#SVGID_00000000927415478997137810000011503987258971284630_);}
	.st30{fill:url(#SVGID_00000142854360112402674690000008002413033395662506_);}
	.st31{fill:url(#SVGID_00000036956027435284305070000006036268152686474916_);}
	.st32{fill:url(#SVGID_00000069391244191626453370000017579865243625502633_);}
	.st33{fill:url(#SVGID_00000120545478115621338090000004973592374048372158_);}
	.st34{fill:url(#SVGID_00000146502010389501679230000009730164406973343161_);}
	.st35{fill:url(#SVGID_00000170279332107299066370000016704692010129536418_);}
	.st36{fill:url(#SVGID_00000152247625685829718090000006269805010565334192_);}
	.st37{fill:url(#SVGID_00000135683882003298106140000001567077930354663325_);}
	.st38{fill:url(#SVGID_00000180364865525231274590000007285962613819376297_);}
	.st39{fill:url(#SVGID_00000173154993152653946610000002136659939110386050_);}
	.st40{fill:url(#SVGID_00000182494465431961636540000000971879674426855599_);}
	.st41{fill:url(#SVGID_00000125591446149025324510000018378112176333644962_);}
	.st42{fill:url(#SVGID_00000090266912400509010420000010248446650125144210_);}
	.st43{fill:url(#SVGID_00000098940661295998261660000001086573109691706758_);}
	.st44{fill:url(#SVGID_00000018935403484736442350000003405294230449475234_);}
	.st45{fill:url(#SVGID_00000146477040942345997340000004345007448809410725_);}
	.st46{fill:url(#SVGID_00000111894736931026346340000000007425732084228533_);}
	.st47{fill:url(#SVGID_00000018216066694365193040000018348548072160820111_);}
	.st48{fill:url(#SVGID_00000001650320891646501330000014409407834345051829_);}
	.st49{fill:url(#SVGID_00000087410797519870668320000012026092217263222954_);}
	.st50{fill:url(#SVGID_00000151504678194370270290000014790446394304892595_);}
	.st51{fill:url(#SVGID_00000170273752165558220550000002232445549416170409_);}
	.st52{fill:url(#SVGID_00000096775879879806086430000015776257570386064052_);}
	.st53{fill:url(#SVGID_00000068654284554145669790000012973462540175796159_);}
	.st54{fill:url(#SVGID_00000085218994243894864160000013989210456624002987_);}
	.st55{fill:url(#SVGID_00000051360567530907368530000012883968532696277659_);}
	.st56{fill:url(#SVGID_00000145740666090173590360000016070035417345518226_);}
	.st57{fill:url(#SVGID_00000084515630521895758870000012681895154042474154_);}
	.st58{fill:url(#SVGID_00000057867013180217976850000005227161726896146358_);}
	.st59{fill:url(#SVGID_00000052789070595731086220000012243576569356833214_);}
	.st60{fill:url(#SVGID_00000168078530530508875470000011410954199380769155_);}
	.st61{fill:url(#SVGID_00000113340505965262214030000018027782258102787716_);}
	.st62{fill:url(#SVGID_00000010282045121823119060000004659261697962599057_);}
	.st63{fill:url(#SVGID_00000070090940193956772050000009397624363984399761_);}
	.st64{fill:url(#SVGID_00000104669061452488776230000000307540029353644198_);}
	.st65{fill:url(#SVGID_00000127727022501259809000000006864311957264428672_);}
	.st66{fill:url(#SVGID_00000039851096717690506000000007296578424769830055_);}
	.st67{fill:url(#SVGID_00000026880332428603765300000010718060769344586685_);}
	.st68{fill:url(#SVGID_00000129899350609148211660000007405199127502998709_);}
	.st69{fill:url(#SVGID_00000044867148734248279550000000480991799615058862_);}
	.st70{fill:url(#SVGID_00000148658779967927588400000000632963936366233528_);}
	.st71{fill:url(#SVGID_00000120553753955669120800000018379116033440422308_);}
	.st72{fill:url(#SVGID_00000021833248281850392760000015176793370198316990_);}
	.st73{fill:url(#SVGID_00000170252732331501876790000017326763238505161627_);}
	.st74{fill:url(#SVGID_00000045594308138557833650000013391218146102822817_);}
	.st75{fill:url(#SVGID_00000125566521784211249740000016270206754323162038_);}
	.st76{fill:url(#SVGID_00000180351135048271161490000012687216250599984004_);}
	.st77{fill:url(#SVGID_00000001644487964540123320000013728399264995487404_);}
</style>
<g>
	<path class="st0" d="M282.7,166.1l0.5,0.3c3.4,1.8,4.8,5.9,3.3,9.4L261.7,232L37.5,151.6l-8.9-7.6l0,0l-0.8-5.6l0,0l-1-6.5
		c0,0,168.8,57.2,173.1,61.2L282.7,166.1z"/>
	<g>
		<polygon class="st1" points="27.1,136.5 23.9,115.6 256,202.8 260.4,224.4 36.1,144.1 		"/>
		
			<rect x="251.9" y="200.5" transform="matrix(0.342 -0.9397 0.9397 0.342 -23.7071 370.4434)" class="st2" width="1.6" height="3.4"/>
		<path class="st2" d="M279.3,142.5l5.2,20.8c0.6,2.5,0.4,5-0.6,7.3l-23.4,54l-7-22.9L279.3,142.5z"/>
		
			<linearGradient id="SVGID_1_" gradientUnits="userSpaceOnUse" x1="-3964.7451" y1="4252.1362" x2="-3964.7451" y2="4263.687" gradientTransform="matrix(-0.9397 -0.342 0.342 -0.9397 -5038.9946 2817.0361)">
			<stop  offset="0.3111" style="stop-color:#000000"/>
			<stop  offset="1" style="stop-color:#37475E"/>
		</linearGradient>
		<path class="st3" d="M28.6,120.2l222.6,81c2.2,0.8,3.8,2.7,4.3,5l3.4,13.3c-1.7-0.4-19.9-12.6-19.9-12.6L34.8,132.5L28.6,120.2z"
			/>
		<path class="st2" d="M49.4,58.9l229.8,83.7l-25.4,59.6L27.3,119.7c-2.8-1-4.3-4.1-3.2-6.9l18.4-50.6
			C43.5,59.3,46.6,57.9,49.4,58.9z"/>
		<polygon class="st5" points="26.2,130.8 27.1,136.5 29.1,137.2 28.2,131.5 		"/>
		<path class="st2" d="M25.3,124.4c0,0-0.7-5.7,2.4-4.6c1.3,0.5,2.2,0.8,2.2,0.8l-6-5.4L25.3,124.4z"/>
		
			<ellipse transform="matrix(0.342 -0.9397 0.9397 0.342 -51.1459 350.4804)" class="st6" cx="224.7" cy="211.8" rx="4.5" ry="10.5"/>
		<ellipse transform="matrix(0.342 -0.9397 0.9397 0.342 -51.1459 350.4804)" class="st2" cx="224.7" cy="211.8" rx="2" ry="4.8"/>
		<g>
			<ellipse transform="matrix(0.342 -0.9397 0.9397 0.342 -100.0165 168.093)" class="st6" cx="70" cy="155.5" rx="4.5" ry="10.5"/>
			<ellipse transform="matrix(0.342 -0.9397 0.9397 0.342 -100.0165 168.093)" class="st2" cx="70" cy="155.5" rx="2" ry="4.8"/>
		</g>
		<g>
			
				<ellipse transform="matrix(0.342 -0.9397 0.9397 0.342 -106.6375 143.3831)" class="st6" cx="49.1" cy="147.8" rx="4.5" ry="10.5"/>
			<ellipse transform="matrix(0.342 -0.9397 0.9397 0.342 -106.6375 143.3831)" class="st2" cx="49.1" cy="147.8" rx="2" ry="4.8"/>
		</g>
		
			<linearGradient id="SVGID_00000043431517285984227150000015157290997623532731_" gradientUnits="userSpaceOnUse" x1="-4093.095" y1="4294.645" x2="-4080.0181" y2="4294.645" gradientTransform="matrix(-0.9397 -0.342 0.342 -0.9397 -5038.9946 2817.0361)">
			<stop  offset="0.3111" style="stop-color:#000000"/>
			<stop  offset="1" style="stop-color:#37475E"/>
		</linearGradient>
		<path style="fill:url(#SVGID_00000043431517285984227150000015157290997623532731_);" d="M255.1,200.8l3-7.1l0,0l21.3-50.8
			l4.3,17.5L260,215l-3.3-11.7C256.7,203.3,256,201.4,255.1,200.8z"/>
	</g>
</g>
</svg>
