<?xml version="1.0" encoding="utf-8"?>
<!-- Generator: Adobe Illustrator 25.4.1, SVG Export Plug-In . SVG Version: 6.00 Build 0)  -->
<svg version="1.1" id="Capa_1" xmlns="http://www.w3.org/2000/svg" xmlns:xlink="http://www.w3.org/1999/xlink" x="0px" y="0px"
	 viewBox="0 0 310 310" style="enable-background:new 0 0 310 310;" xml:space="preserve">
<style type="text/css">
	.st0{opacity:0.2;fill:#110C0A;enable-background:new    ;}
	.st1{fill:#999999;}
	.st2{fill:#FFFFFF;}
	.st3{fill:url(#SVGID_1_);}
	.st4{fill:none;stroke:#A0349D;stroke-width:9;stroke-miterlimit:10;}
	.st5{fill:#C00C0A;}
	.st6{fill:#110C0A;}
	.st7{fill:url(#SVGID_00000170267244850328562830000010610051029060591807_);}
	.st8{fill:url(#SVGID_00000023253896544169218810000004087690715757248131_);}
	.st9{fill:url(#SVGID_00000021815673279511759710000006312766220230625708_);}
	.st10{fill:url(#SVGID_00000108282230056430692730000010594173079481200559_);}
	.st11{fill:url(#SVGID_00000005231203842238735940000002711077307558130109_);}
	.st12{fill:url(#SVGID_00000039098570977080366950000013248707727973539971_);}
	.st13{fill:url(#SVGID_00000024001387012562344420000014216630583180186540_);}
	.st14{fill:url(#SVGID_00000158012146025982433770000003725447276360670893_);}
	.st15{fill:url(#SVGID_00000056427256827223074110000000405491814439766660_);}
	.st16{fill:url(#SVGID_00000146489716674679029070000010298441500303837347_);}
	.st17{fill:url(#SVGID_00000016041690179546630510000012465984068613084577_);}
	.st18{fill:url(#SVGID_00000039130931094345105550000010570821613854108578_);}
	.st19{fill:url(#SVGID_00000090987310818864487720000001060976420784073608_);}
	.st20{fill:url(#SVGID_00000057107117468916238440000002831246775711018907_);}
	.st21{fill:url(#SVGID_00000003096517305264759600000014951722893821816737_);}
	.st22{fill:url(#SVGID_00000003792077851938126670000012841189320550377351_);}
	.st23{fill:url(#SVGID_00000156551544079282186130000003755880634475353767_);}
	.st24{fill:url(#SVGID_00000177475342722643154190000014819969883608186761_);}
	.st25{fill:url(#SVGID_00000154383570013133211340000013788201808330493080_);}
	.st26{fill:url(#SVGID_00000072240818015877073100000018035553684579390607_);}
	.st27{fill:url(#SVGID_00000136393086957985783220000013060425846908937615_);}
	.st28{fill:url(#SVGID_00000039111879096654609820000017225092947862064055_);}
	.st29{fill:url(#SVGID_00000142885258409826555500000001818132869492827523_);}
	.st30{fill:url(#SVGID_00000069357794221491346330000012110976137621751214_);}
	.st31{fill:url(#SVGID_00000021820710942666251160000010996964051475126952_);}
	.st32{fill:url(#SVGID_00000005969896015659735050000017366124598099915395_);}
	.st33{fill:url(#SVGID_00000023266242125545031630000016666468537889264574_);}
	.st34{fill:url(#SVGID_00000115473000630284693480000012418576913709365395_);}
	.st35{fill:url(#SVGID_00000139275218400275615470000008745320811839713676_);}
	.st36{fill:url(#SVGID_00000018925016574571460790000013645482031966792092_);}
	.st37{fill:url(#SVGID_00000090253824029535964260000009536412057260450455_);}
	.st38{fill:url(#SVGID_00000166639058225592447810000003370549044403503278_);}
	.st39{fill:url(#SVGID_00000020367996148025578410000007903018682333719426_);}
	.st40{fill:url(#SVGID_00000101824735173075643380000014625142913496945066_);}
	.st41{fill:url(#SVGID_00000114779931626506877120000006749663661694633088_);}
	.st42{fill:url(#SVGID_00000155123207403459558050000015560267341996337313_);}
	.st43{fill:url(#SVGID_00000011729349036056754090000011388096482963651468_);}
	.st44{fill:url(#SVGID_00000027592425984446820620000010466989877355476361_);}
	.st45{fill:url(#SVGID_00000176034853239876854220000008779982829418645394_);}
	.st46{fill:url(#SVGID_00000111896715859685364840000004520369515709548200_);}
	.st47{fill:url(#SVGID_00000067217813534866809280000008543541438469662139_);}
	.st48{fill:url(#SVGID_00000109002431115854355940000009865608235297200050_);}
	.st49{fill:url(#SVGID_00000152971066402706071410000009261315146565293743_);}
	.st50{fill:url(#SVGID_00000010301845646640834700000017935148660988282278_);}
	.st51{fill:url(#SVGID_00000176744617528793756920000000607691320283685802_);}
	.st52{fill:url(#SVGID_00000002353406155419026660000015280050619139350157_);}
	.st53{fill:url(#SVGID_00000135650197143683294540000008679682684677081504_);}
	.st54{fill:url(#SVGID_00000106146718459701320680000016908037301126534785_);}
	.st55{fill:url(#SVGID_00000141420743613142928040000004593993316894305441_);}
	.st56{fill:url(#SVGID_00000031171620022616188690000001282941140938420106_);}
	.st57{fill:url(#SVGID_00000037656239118820992510000006637959070947033496_);}
	.st58{fill:url(#SVGID_00000074402472818009616350000007523683438727667636_);}
	.st59{fill:url(#SVGID_00000158025080312167829070000014035596476873384834_);}
	.st60{fill:url(#SVGID_00000018236200891918708910000007691740393040929964_);}
	.st61{fill:url(#SVGID_00000149347351160119268650000016047940235852937879_);}
	.st62{fill:url(#SVGID_00000093890520023302154980000017064902588962633662_);}
	.st63{fill:url(#SVGID_00000083798648520732348250000009156443698223179654_);}
	.st64{fill:url(#SVGID_00000070107467049846258990000015643597747890459814_);}
	.st65{fill:url(#SVGID_00000066501161453780779040000018221516779215950983_);}
	.st66{fill:url(#SVGID_00000174587802288733656880000007504897773433797545_);}
	.st67{fill:url(#SVGID_00000115517088503370275970000014519138484291480754_);}
	.st68{fill:url(#SVGID_00000145054462823717661990000015909702594990328224_);}
	.st69{fill:url(#SVGID_00000070805734556554050030000009986624330078982805_);}
	.st70{fill:url(#SVGID_00000137830731703327802580000014122650145430274697_);}
	.st71{fill:url(#SVGID_00000122721834472085785690000008960115836530727557_);}
	.st72{fill:url(#SVGID_00000018215478879896138590000013741181020943922822_);}
	.st73{fill:url(#SVGID_00000093885496842588952730000012805823474286522546_);}
	.st74{fill:url(#SVGID_00000093179339973484711100000004181208912513407620_);}
	.st75{fill:url(#SVGID_00000096018225885157493290000007240529871863788957_);}
	.st76{fill:url(#SVGID_00000067919919387209514690000014406445388717038731_);}
	.st77{fill:url(#SVGID_00000173877883508356235000000017082505215382675613_);}
</style>
<g>
	<path class="st0" d="M277.2,187.8l0.5,0.4c3,2.3,3.7,6.6,1.6,9.8L245,249.2L38.2,131l-7.5-9.1l0,0l0.2-5.7l0,0l0.1-6.6
		c0,0,156.3,85.6,159.9,90.3L277.2,187.8z"/>
	<g>
		<polygon class="st1" points="30.6,114.3 31,93.2 244.5,219.4 245.1,241.5 38.1,123.4 		"/>
		<rect x="240.5" y="216.5" transform="matrix(0.5 -0.866 0.866 0.5 -68.282 318.0762)" class="st2" width="1.6" height="3.4"/>
		<path class="st2" d="M277.9,164.1l1.5,21.4c0.2,2.5-0.5,5-1.9,7.1l-32.4,49.1l-2.9-23.7L277.9,164.1z"/>
		
			<linearGradient id="SVGID_1_" gradientUnits="userSpaceOnUse" x1="550.8541" y1="-263.463" x2="550.8541" y2="-251.9121" gradientTransform="matrix(-0.866 -0.5 0.5 -0.866 744.4011 221.6199)">
			<stop  offset="0.3111" style="stop-color:#000000"/>
			<stop  offset="1" style="stop-color:#37475E"/>
		</linearGradient>
		<path class="st3" d="M34.9,98.5L240,217c2,1.1,3.3,3.3,3.3,5.6l1,13.6c-1.6-0.7-17.4-15.8-17.4-15.8L38.9,111.8L34.9,98.5z"/>
		<path class="st2" d="M66,41.8l211.8,122.3l-35.4,54.3L33.7,97.8c-2.6-1.5-3.5-4.8-2-7.4l26.9-46.7C60.1,41.2,63.4,40.3,66,41.8z"
			/>
		<polygon class="st5" points="30.7,108.6 30.6,114.3 32.4,115.4 32.5,109.6 		"/>
		<path class="st2" d="M30.9,102.1c0,0,0.3-5.7,3.2-4.1c1.2,0.7,2,1.1,2,1.1l-5-6.3L30.9,102.1z"/>
		<ellipse transform="matrix(0.5 -0.866 0.866 0.5 -86.882 295.0762)" class="st6" cx="212.1" cy="222.8" rx="4.5" ry="10.5"/>
		<ellipse transform="matrix(0.5 -0.866 0.866 0.5 -86.882 295.0763)" class="st2" cx="212.1" cy="222.8" rx="2" ry="4.8"/>
		<g>
			<ellipse transform="matrix(0.5 -0.866 0.866 0.5 -86.882 130.4762)" class="st6" cx="69.6" cy="140.5" rx="4.5" ry="10.5"/>
			<ellipse transform="matrix(0.5 -0.866 0.866 0.5 -86.882 130.4762)" class="st2" cx="69.6" cy="140.5" rx="2" ry="4.8"/>
		</g>
		<g>
			<ellipse transform="matrix(0.5 -0.866 0.866 0.5 -86.882 108.1762)" class="st6" cx="50.2" cy="129.3" rx="4.5" ry="10.5"/>
			<ellipse transform="matrix(0.5 -0.866 0.866 0.5 -86.882 108.1762)" class="st2" cx="50.2" cy="129.3" rx="2" ry="4.8"/>
		</g>
		
			<linearGradient id="SVGID_00000004534678671618562150000009429871954981318539_" gradientUnits="userSpaceOnUse" x1="422.504" y1="-220.954" x2="435.5809" y2="-220.954" gradientTransform="matrix(-0.866 -0.5 0.5 -0.866 744.4011 221.6199)">
			<stop  offset="0.3111" style="stop-color:#000000"/>
			<stop  offset="1" style="stop-color:#37475E"/>
		</linearGradient>
		<path style="fill:url(#SVGID_00000004534678671618562150000009429871954981318539_);" d="M243.9,217.3l4.2-6.5l0,0l29.8-46.3
			l1.2,18l-32.8,49.6l-1.2-12.1C245.1,220,244.8,218,243.9,217.3z"/>
	</g>
</g>
</svg>
