<?xml version="1.0" encoding="utf-8"?>
<!-- Generator: Adobe Illustrator 25.4.1, SVG Export Plug-In . SVG Version: 6.00 Build 0)  -->
<svg version="1.1" id="Capa_1" xmlns="http://www.w3.org/2000/svg" xmlns:xlink="http://www.w3.org/1999/xlink" x="0px" y="0px"
	 viewBox="0 0 310 310" style="enable-background:new 0 0 310 310;" xml:space="preserve">
<style type="text/css">
	.st0{opacity:0.2;fill:#110C0A;enable-background:new    ;}
	.st1{fill:#999999;}
	.st2{fill:#FFFFFF;}
	.st3{fill:url(#SVGID_1_);}
	.st4{fill:none;stroke:#A0349D;stroke-width:9;stroke-miterlimit:10;}
	.st5{fill:#C00C0A;}
	.st6{fill:#110C0A;}
	.st7{fill:url(#SVGID_00000101787204865812857500000007907140835511438014_);}
	.st8{fill:url(#SVGID_00000094577771812358106250000016248204840095615914_);}
	.st9{fill:url(#SVGID_00000010293175304288515860000015468447038744980916_);}
	.st10{fill:url(#SVGID_00000081610105840539206980000009233571539711856030_);}
	.st11{fill:url(#SVGID_00000051353437439573105560000010584084916308931985_);}
	.st12{fill:url(#SVGID_00000018194659174222639840000007078171894387462289_);}
	.st13{fill:url(#SVGID_00000062194151739033926910000004362372915221941937_);}
	.st14{fill:url(#SVGID_00000154387498270279059600000011674959331854795683_);}
	.st15{fill:url(#SVGID_00000170266875303958737140000006414437674221410198_);}
	.st16{fill:url(#SVGID_00000034791699078319586830000009681865850482998974_);}
	.st17{fill:url(#SVGID_00000085236683152263402210000017208526200190356668_);}
	.st18{fill:url(#SVGID_00000052087697789043819710000003963713349820318627_);}
	.st19{fill:url(#SVGID_00000030469242799827354940000009008491677223154102_);}
	.st20{fill:url(#SVGID_00000065073677246392439300000011441903661966453127_);}
	.st21{fill:url(#SVGID_00000096029385196028749920000006654186307247537295_);}
	.st22{fill:url(#SVGID_00000139260129467865112260000017056648336839172486_);}
	.st23{fill:url(#SVGID_00000125571206734808515230000013768103883455909766_);}
	.st24{fill:url(#SVGID_00000121280508537029753640000013691624031930618274_);}
	.st25{fill:url(#SVGID_00000113315828289394645180000014428099442784002982_);}
	.st26{fill:url(#SVGID_00000118365691396055492690000002068504502028050606_);}
	.st27{fill:url(#SVGID_00000165955440731749744100000000801686454275328413_);}
	.st28{fill:url(#SVGID_00000084514216688783828810000017654084566406479756_);}
	.st29{fill:url(#SVGID_00000058562304449531287670000005145682948612724152_);}
	.st30{fill:url(#SVGID_00000081649334942452101190000001636917923748337801_);}
	.st31{fill:url(#SVGID_00000020398478587328026450000014255103926450286227_);}
	.st32{fill:url(#SVGID_00000127009195578960815850000005046386848609181339_);}
	.st33{fill:url(#SVGID_00000080904112575012744050000011819941303526389135_);}
	.st34{fill:url(#SVGID_00000126304201263694111440000013943775186173248149_);}
	.st35{fill:url(#SVGID_00000130635941695715700630000001794914468878957727_);}
	.st36{fill:url(#SVGID_00000156565758153186290350000010516003489984029370_);}
	.st37{fill:url(#SVGID_00000038403058099683837290000010498570978582796182_);}
	.st38{fill:url(#SVGID_00000152257880177977988630000018408630143174866617_);}
	.st39{fill:url(#SVGID_00000150104339168594115270000008949573482970582427_);}
	.st40{fill:url(#SVGID_00000170989717054875891100000004830235192744608685_);}
	.st41{fill:url(#SVGID_00000178902879224838881770000000361405106767674499_);}
	.st42{fill:url(#SVGID_00000051342861536863447510000010426378137691986865_);}
	.st43{fill:url(#SVGID_00000142894435539024640250000000502154191879450554_);}
	.st44{fill:url(#SVGID_00000163031639442962181770000014762866954224351678_);}
	.st45{fill:url(#SVGID_00000036243901731262443020000000655197827556869522_);}
	.st46{fill:url(#SVGID_00000114761887062520930290000013881502377650158011_);}
	.st47{fill:url(#SVGID_00000026870551549431595870000001068789722587236026_);}
	.st48{fill:url(#SVGID_00000013188538404737759260000007225567499902576261_);}
	.st49{fill:url(#SVGID_00000080173234055807645480000005664263236557503419_);}
	.st50{fill:url(#SVGID_00000176032009334852837270000012484255476919552391_);}
	.st51{fill:url(#SVGID_00000059272869131453366950000003461725317302066106_);}
	.st52{fill:url(#SVGID_00000029014231795362601470000011457362791635810694_);}
	.st53{fill:url(#SVGID_00000075881089664584380550000000815367499309093038_);}
	.st54{fill:url(#SVGID_00000025424164561027091090000015679147275087482785_);}
	.st55{fill:url(#SVGID_00000022521247286762904250000011178571907694575492_);}
	.st56{fill:url(#SVGID_00000135685585057386171760000001833724590686009776_);}
	.st57{fill:url(#SVGID_00000092436567501343923010000011840348285972167319_);}
	.st58{fill:url(#SVGID_00000135683072729270766810000012212879550031087259_);}
	.st59{fill:url(#SVGID_00000089563958574441583860000009087989305068008349_);}
	.st60{fill:url(#SVGID_00000166634976618196666720000014399166255943228581_);}
	.st61{fill:url(#SVGID_00000049213270632167721690000005111855071371961752_);}
	.st62{fill:url(#SVGID_00000173160649277590557050000011411659735688808884_);}
	.st63{fill:url(#SVGID_00000148648954966991175670000018273408269456313995_);}
	.st64{fill:url(#SVGID_00000070804697560780776910000010810279823493423282_);}
	.st65{fill:url(#SVGID_00000147198519921273469270000016298003847165809337_);}
	.st66{fill:url(#SVGID_00000137131849670916128050000013177161327228860590_);}
	.st67{fill:url(#SVGID_00000044864016402151234510000009163529682561599909_);}
	.st68{fill:url(#SVGID_00000022555608313229096650000007000948049682976664_);}
	.st69{fill:url(#SVGID_00000125587976111732496450000007204089536079976115_);}
	.st70{fill:url(#SVGID_00000138536461460972028220000006593108089045503386_);}
	.st71{fill:url(#SVGID_00000057866978180358306500000012755539415655943832_);}
	.st72{fill:url(#SVGID_00000088104753846415417860000013026974516637174968_);}
	.st73{fill:url(#SVGID_00000162327120857394308870000015924115543281480833_);}
	.st74{fill:url(#SVGID_00000070106471196955850090000014680768325988093873_);}
	.st75{fill:url(#SVGID_00000132795611557350077280000001723694486171971751_);}
	.st76{fill:url(#SVGID_00000018937873880343897550000004612485823622108066_);}
	.st77{fill:url(#SVGID_00000175287945360030452640000009090804763504539542_);}
</style>
<g>
	<path class="st0" d="M267.9,208.3l0.4,0.5c2.6,2.8,2.5,7.2-0.1,9.9l-42.6,44.4L42.4,110.9l-5.8-10.2l0,0l1.1-5.6l0,0l1.3-6.5
		c0,0,139.1,111.5,141.7,116.7L267.9,208.3z"/>
	<g>
		<polygon class="st1" points="37.9,93.1 42,72.4 230.3,233.8 227,255.6 43.7,103.3 		"/>
		
			<rect x="226.5" y="230.3" transform="matrix(0.6428 -0.766 0.766 0.6428 -96.483 257.0043)" class="st2" width="1.6" height="3.4"/>
		<path class="st2" d="M272.7,185l-2.2,21.3c-0.3,2.5-1.3,4.9-3.1,6.7l-40.4,42.7l1.2-23.9L272.7,185z"/>
		
			<linearGradient id="SVGID_1_" gradientUnits="userSpaceOnUse" x1="174.8002" y1="112.5908" x2="174.8002" y2="124.1417" gradientTransform="matrix(-0.766 -0.6428 0.6428 -0.766 192.3739 369.062)">
			<stop  offset="0.3111" style="stop-color:#000000"/>
			<stop  offset="1" style="stop-color:#37475E"/>
		</linearGradient>
		<path class="st3" d="M44.8,78.3l181.5,152.3c1.8,1.5,2.7,3.8,2.3,6.1l-1.4,13.6c-1.4-0.9-14.4-18.6-14.4-18.6L46.4,92.1L44.8,78.3
			z"/>
		<path class="st2" d="M85.3,27.8L272.7,185l-44.3,47.3L43.7,77.4c-2.3-1.9-2.6-5.3-0.7-7.6l34.6-41.3C79.6,26.2,83,25.9,85.3,27.8z
			"/>
		<polygon class="st5" points="38.9,87.5 37.9,93.1 39.5,94.4 40.6,88.8 		"/>
		<path class="st2" d="M40.2,81.1c0,0,1.3-5.6,3.8-3.5c1.1,0.9,1.8,1.5,1.8,1.5L42,72L40.2,81.1z"/>
		
			<ellipse transform="matrix(0.6428 -0.766 0.766 0.6428 -106.6371 234.1573)" class="st6" cx="197.8" cy="231.4" rx="4.5" ry="10.5"/>
		<ellipse transform="matrix(0.6428 -0.766 0.766 0.6428 -106.6371 234.1573)" class="st2" cx="197.8" cy="231.4" rx="2" ry="4.8"/>
		<g>
			
				<ellipse transform="matrix(0.6428 -0.766 0.766 0.6428 -70.6287 99.7719)" class="st6" cx="71.7" cy="125.6" rx="4.5" ry="10.5"/>
			<ellipse transform="matrix(0.6428 -0.766 0.766 0.6428 -70.6287 99.7719)" class="st2" cx="71.7" cy="125.6" rx="2" ry="4.8"/>
		</g>
		<g>
			
				<ellipse transform="matrix(0.6428 -0.766 0.766 0.6428 -65.7503 81.5654)" class="st6" cx="54.6" cy="111.3" rx="4.5" ry="10.5"/>
			<ellipse transform="matrix(0.6428 -0.766 0.766 0.6428 -65.7503 81.5654)" class="st2" cx="54.6" cy="111.3" rx="2" ry="4.8"/>
		</g>
		
			<linearGradient id="SVGID_00000112597322468551022860000001335030347299716483_" gradientUnits="userSpaceOnUse" x1="46.4502" y1="155.0998" x2="59.5271" y2="155.0998" gradientTransform="matrix(-0.766 -0.6428 0.6428 -0.766 192.3739 369.062)">
			<stop  offset="0.3111" style="stop-color:#000000"/>
			<stop  offset="1" style="stop-color:#37475E"/>
		</linearGradient>
		<path style="fill:url(#SVGID_00000112597322468551022860000001335030347299716483_);" d="M230.1,231.5l5.3-5.6l0,0l37.4-40.4
			l-2,17.9l-40.9,43.2l0.9-12.1C230.7,234.4,230.8,232.4,230.1,231.5z"/>
	</g>
</g>
</svg>
