<?xml version="1.0" encoding="utf-8"?>
<!-- Generator: Adobe Illustrator 25.4.1, SVG Export Plug-In . SVG Version: 6.00 Build 0)  -->
<svg version="1.1" id="Capa_1" xmlns="http://www.w3.org/2000/svg" xmlns:xlink="http://www.w3.org/1999/xlink" x="0px" y="0px"
	 viewBox="0 0 310 310" style="enable-background:new 0 0 310 310;" xml:space="preserve">
<style type="text/css">
	.st0{opacity:0.2;fill:#110C0A;enable-background:new    ;}
	.st1{fill:#999999;}
	.st2{fill:#FFFFFF;}
	.st3{fill:url(#SVGID_1_);}
	.st4{fill:none;stroke:#A0349D;stroke-width:9;stroke-miterlimit:10;}
	.st5{fill:#C00C0A;}
	.st6{fill:#110C0A;}
	.st7{fill:url(#SVGID_00000027579116858235839540000006724224069865931949_);}
	.st8{fill:url(#SVGID_00000130647685818440744980000015838944160355329456_);}
	.st9{fill:url(#SVGID_00000098190041766305538480000013874470729902474144_);}
	.st10{fill:url(#SVGID_00000163783358839757643840000008190569036580635010_);}
	.st11{fill:url(#SVGID_00000145751365339261165150000010715753131768044215_);}
	.st12{fill:url(#SVGID_00000021811036934830289780000012737605057594145706_);}
	.st13{fill:url(#SVGID_00000036215328047528061760000012729176126111283852_);}
	.st14{fill:url(#SVGID_00000022547467119282511610000000318749957287380359_);}
	.st15{fill:url(#SVGID_00000171705671345264628590000014768989855648754578_);}
	.st16{fill:url(#SVGID_00000010282603853311734870000008041439199857156517_);}
	.st17{fill:url(#SVGID_00000082343133300777153220000015972228915370961062_);}
	.st18{fill:url(#SVGID_00000103970312437980680860000000081450812826931132_);}
	.st19{fill:url(#SVGID_00000102505660925718462330000010606514733024334506_);}
	.st20{fill:url(#SVGID_00000071558111302487311620000008252627665972510378_);}
	.st21{fill:url(#SVGID_00000031202925047096614980000008776692381049833895_);}
	.st22{fill:url(#SVGID_00000103255369172268566750000006011448051012770705_);}
	.st23{fill:url(#SVGID_00000158025356989204094710000007478236406840838321_);}
	.st24{fill:url(#SVGID_00000110438245244070506400000016911697063576206481_);}
	.st25{fill:url(#SVGID_00000138557834367565705690000008645477705393841055_);}
	.st26{fill:url(#SVGID_00000082365091754533866130000013335705694823457980_);}
	.st27{fill:url(#SVGID_00000011721783120818573170000014531085892705374636_);}
	.st28{fill:url(#SVGID_00000118355964663814535280000002576457241021572528_);}
	.st29{fill:url(#SVGID_00000053519874852396914130000005019353487800315054_);}
	.st30{fill:url(#SVGID_00000116203853630279354720000017357524523816006585_);}
	.st31{fill:url(#SVGID_00000006709779634389373810000008521673077333208984_);}
	.st32{fill:url(#SVGID_00000162352131791606389140000015851677897500936578_);}
	.st33{fill:url(#SVGID_00000133495055444562336200000013159440867206981306_);}
	.st34{fill:url(#SVGID_00000085971507995692588950000010532887122191558578_);}
	.st35{fill:url(#SVGID_00000054227265616146890530000013857000909583752851_);}
	.st36{fill:url(#SVGID_00000180362243049414414560000007887656377061860534_);}
	.st37{fill:url(#SVGID_00000157295064595018704600000016788912552832422815_);}
	.st38{fill:url(#SVGID_00000031178910789881953920000017590739488988153500_);}
	.st39{fill:url(#SVGID_00000128468652367508764600000016771957715316768680_);}
	.st40{fill:url(#SVGID_00000120543188901474311180000003258634449993471889_);}
	.st41{fill:url(#SVGID_00000125574964537786502110000017791177954680600492_);}
	.st42{fill:url(#SVGID_00000021800707675644930020000017182527733946286981_);}
	.st43{fill:url(#SVGID_00000036226513951189826660000018337224722903456914_);}
	.st44{fill:url(#SVGID_00000016778094470706290030000004147555741349680038_);}
	.st45{fill:url(#SVGID_00000145741709234478811560000006410516086967792812_);}
	.st46{fill:url(#SVGID_00000110443691443243749110000017855643201458697346_);}
	.st47{fill:url(#SVGID_00000103252490166855001420000012971343409525922691_);}
	.st48{fill:url(#SVGID_00000161612246877526206650000011591271650212379021_);}
	.st49{fill:url(#SVGID_00000096023262854263677350000017364954251984010915_);}
	.st50{fill:url(#SVGID_00000087370319936482335360000000353386448471628932_);}
	.st51{fill:url(#SVGID_00000012434818394408031400000007267316331565553577_);}
	.st52{fill:url(#SVGID_00000114068596857209432590000014526341102594105730_);}
	.st53{fill:url(#SVGID_00000047042396136715864190000005676070922205178240_);}
	.st54{fill:url(#SVGID_00000109725773511853865910000008236420578643674241_);}
	.st55{fill:url(#SVGID_00000031893881944871511340000010378720207873189030_);}
	.st56{fill:url(#SVGID_00000151535818536114928150000001605369474320712108_);}
	.st57{fill:url(#SVGID_00000030478482883325582460000013355008064567400617_);}
	.st58{fill:url(#SVGID_00000070801854597389424230000014278419526237972382_);}
	.st59{fill:url(#SVGID_00000152971782221753422600000016315778755743007915_);}
	.st60{fill:url(#SVGID_00000140002000368288377340000018325451235077242273_);}
	.st61{fill:url(#SVGID_00000013176577524140239520000018155019461700681089_);}
	.st62{fill:url(#SVGID_00000149364677447240558820000010938768413308982690_);}
	.st63{fill:url(#SVGID_00000114770593255935255570000015937090786646451333_);}
	.st64{fill:url(#SVGID_00000115514950759830652580000007656970049021973655_);}
	.st65{fill:url(#SVGID_00000084511520961829887230000016531753773543659190_);}
	.st66{fill:url(#SVGID_00000105406108725910708330000017885699725375269047_);}
	.st67{fill:url(#SVGID_00000132774324520895638150000011016341857778343355_);}
	.st68{fill:url(#SVGID_00000145053067867717428850000001189938412523071932_);}
	.st69{fill:url(#SVGID_00000063624585269587261860000017924734566152084652_);}
	.st70{fill:url(#SVGID_00000099643587724908484660000007710236154294496909_);}
	.st71{fill:url(#SVGID_00000163031311183371799760000005828868153208566460_);}
	.st72{fill:url(#SVGID_00000011740988985398123080000007711497839221449641_);}
	.st73{fill:url(#SVGID_00000102523062684142106750000012330266387714399677_);}
	.st74{fill:url(#SVGID_00000183248355196797490580000006877187309665276053_);}
	.st75{fill:url(#SVGID_00000078046059712365740470000014444920557359808166_);}
	.st76{fill:url(#SVGID_00000123425342283393527090000009404054410589959565_);}
	.st77{fill:url(#SVGID_00000057116498949815105870000008077838152130746271_);}
</style>
<g>
	<path class="st0" d="M255.2,227l0.3,0.5c2.1,3.2,1.2,7.5-1.8,9.8L204,273.6L50,91.9l-3.9-11.1l0,0l2.1-5.3l0,0l2.4-6.2
		c0,0,117.6,133.9,119.3,139.6L255.2,227z"/>
	<g>
		<polygon class="st1" points="48.6,73.6 56.3,53.9 213.7,245.5 206.7,266.4 52.6,84.6 		"/>
		
			<rect x="210.3" y="241.5" transform="matrix(0.766 -0.6428 0.6428 0.766 -106.9557 192.5984)" class="st2" width="1.6" height="3.4"/>
		<path class="st2" d="M263.9,204.9l-5.9,20.6c-0.7,2.4-2.2,4.6-4.2,6l-47.2,35.1l5.4-23.3L263.9,204.9z"/>
		
			<linearGradient id="SVGID_1_" gradientUnits="userSpaceOnUse" x1="-201.2536" y1="488.6447" x2="-201.2536" y2="500.1956" gradientTransform="matrix(-0.6428 -0.766 0.766 -0.6428 -376.9301 325.8294)">
			<stop  offset="0.3111" style="stop-color:#000000"/>
			<stop  offset="1" style="stop-color:#37475E"/>
		</linearGradient>
		<path class="st3" d="M58,60.2l152.3,181.5c1.5,1.8,2,4.2,1.2,6.4l-3.7,13.2c-1.2-1.2-11-20.8-11-20.8L57.3,74L58,60.2z"/>
		<path class="st2" d="M106.7,17.5l157.2,187.4l-51.8,38.9L57.1,59.1c-1.9-2.3-1.6-5.7,0.7-7.6l41.3-34.6
			C101.4,14.9,104.8,15.2,106.7,17.5z"/>
		<polygon class="st5" points="50.7,68.2 48.6,73.6 50,75.2 52,69.8 		"/>
		<path class="st2" d="M53,62.2c0,0,2.2-5.3,4.4-2.7c0.9,1.1,1.5,1.8,1.5,1.8l-2.5-7.7L53,62.2z"/>
		
			<ellipse transform="matrix(0.766 -0.6428 0.6428 0.766 -110.1078 172.6117)" class="st6" cx="182.1" cy="237.6" rx="4.5" ry="10.5"/>
		<ellipse transform="matrix(0.766 -0.6428 0.6428 0.766 -110.1078 172.6117)" class="st2" cx="182.1" cy="237.6" rx="2" ry="4.8"/>
		<g>
			
				<ellipse transform="matrix(0.766 -0.6428 0.6428 0.766 -53.8113 75.1033)" class="st6" cx="76.3" cy="111.5" rx="4.5" ry="10.5"/>
			<ellipse transform="matrix(0.766 -0.6428 0.6428 0.766 -53.8113 75.1033)" class="st2" cx="76.3" cy="111.5" rx="2" ry="4.8"/>
		</g>
		<g>
			<ellipse transform="matrix(0.766 -0.6428 0.6428 0.766 -46.1842 61.8928)" class="st6" cx="61.9" cy="94.4" rx="4.5" ry="10.5"/>
			<ellipse transform="matrix(0.766 -0.6428 0.6428 0.766 -46.1842 61.8928)" class="st2" cx="61.9" cy="94.4" rx="2" ry="4.8"/>
		</g>
		
			<linearGradient id="SVGID_00000148627149950669562220000014184134796869399696_" gradientUnits="userSpaceOnUse" x1="-329.6037" y1="531.1537" x2="-316.5268" y2="531.1537" gradientTransform="matrix(-0.6428 -0.766 0.766 -0.6428 -376.9301 325.8294)">
			<stop  offset="0.3111" style="stop-color:#000000"/>
			<stop  offset="1" style="stop-color:#37475E"/>
		</linearGradient>
		<path style="fill:url(#SVGID_00000148627149950669562220000014184134796869399696_);" d="M213.9,243.3l6.2-4.6l0,0l43.9-33.3
			l-5.1,17.3L211,258.1l3-11.8C214,246.3,214.4,244.2,213.9,243.3z"/>
	</g>
</g>
</svg>
