<?xml version="1.0" encoding="utf-8"?>
<!-- Generator: Adobe Illustrator 25.4.1, SVG Export Plug-In . SVG Version: 6.00 Build 0)  -->
<svg version="1.1" id="Capa_1" xmlns="http://www.w3.org/2000/svg" xmlns:xlink="http://www.w3.org/1999/xlink" x="0px" y="0px"
	 viewBox="0 0 310 310" style="enable-background:new 0 0 310 310;" xml:space="preserve">
<style type="text/css">
	.st0{opacity:0.2;fill:#110C0A;enable-background:new    ;}
	.st1{fill:#999999;}
	.st2{fill:#FFFFFF;}
	.st3{fill:url(#SVGID_1_);}
	.st4{fill:none;stroke:#A0349D;stroke-width:9;stroke-miterlimit:10;}
	.st5{fill:#C00C0A;}
	.st6{fill:#110C0A;}
	.st7{fill:url(#SVGID_00000031923448829001023680000006476843959094431141_);}
	.st8{fill:url(#SVGID_00000173848498454062993010000007763802842999009980_);}
	.st9{fill:url(#SVGID_00000137821531640006654430000006656880228460283785_);}
	.st10{fill:url(#SVGID_00000162315876680043719890000004293710787444136849_);}
	.st11{fill:url(#SVGID_00000014595319095035188200000004537075416948250268_);}
	.st12{fill:url(#SVGID_00000137108627298380335110000008147107296489892494_);}
	.st13{fill:url(#SVGID_00000042737283020550124020000010803346240698348934_);}
	.st14{fill:url(#SVGID_00000157997496345818439780000003252198789242413454_);}
	.st15{fill:url(#SVGID_00000173882327486971108940000014980040834666449052_);}
	.st16{fill:url(#SVGID_00000065769332696739324220000004936636528792118924_);}
	.st17{fill:url(#SVGID_00000178913727706008535490000011844511252013882778_);}
	.st18{fill:url(#SVGID_00000058551777128473413850000001846428769459263640_);}
	.st19{fill:url(#SVGID_00000095297487585240879110000011356508914043060121_);}
	.st20{fill:url(#SVGID_00000127751356003606436180000018423804176398049202_);}
	.st21{fill:url(#SVGID_00000039819512490475502620000005583191466084458114_);}
	.st22{fill:url(#SVGID_00000093170965219002771410000002729221038457066126_);}
	.st23{fill:url(#SVGID_00000167375895986610062420000018323228804351369902_);}
	.st24{fill:url(#SVGID_00000082355476533236222970000000559142685628682374_);}
	.st25{fill:url(#SVGID_00000144330267841314262530000003560115033065465479_);}
	.st26{fill:url(#SVGID_00000072987922768685546890000006594621985880000907_);}
	.st27{fill:url(#SVGID_00000003817617869524992890000016252331916371761584_);}
	.st28{fill:url(#SVGID_00000127757384741927030650000011775933060804982714_);}
	.st29{fill:url(#SVGID_00000117674256832453930510000009504678826683534251_);}
	.st30{fill:url(#SVGID_00000088094461132461112180000002506265442597961914_);}
	.st31{fill:url(#SVGID_00000017489780864427389830000001004894147690931857_);}
	.st32{fill:url(#SVGID_00000005257589869306182090000013472106072665104034_);}
	.st33{fill:url(#SVGID_00000169556340529000075300000011417142272745370008_);}
	.st34{fill:url(#SVGID_00000078026766054075502730000008523516753920837260_);}
	.st35{fill:url(#SVGID_00000077284273863513909480000001757813567834934941_);}
	.st36{fill:url(#SVGID_00000168093034936061332630000010504937277596815266_);}
	.st37{fill:url(#SVGID_00000109008758198822714740000017065052516446715831_);}
	.st38{fill:url(#SVGID_00000023963855536249607350000011711208766165974947_);}
	.st39{fill:url(#SVGID_00000114757081104404763350000005608077435855773610_);}
	.st40{fill:url(#SVGID_00000165215921596194929410000005828203140887970964_);}
	.st41{fill:url(#SVGID_00000086679187694378434650000011285843974393462933_);}
	.st42{fill:url(#SVGID_00000074441125626548491140000010714903900868677047_);}
	.st43{fill:url(#SVGID_00000139990278617360002780000000424992757726577597_);}
	.st44{fill:url(#SVGID_00000083772701230956821140000004907628747472626335_);}
	.st45{fill:url(#SVGID_00000000188456037632569200000001077511814554085515_);}
	.st46{fill:url(#SVGID_00000085942542834447074510000017843079374846788015_);}
	.st47{fill:url(#SVGID_00000129172142712076669610000000198933175114690694_);}
	.st48{fill:url(#SVGID_00000034069538951735802990000013557746256058542980_);}
	.st49{fill:url(#SVGID_00000010289161834569619740000011147120060007715250_);}
	.st50{fill:url(#SVGID_00000005237143598173585420000008209809195340370326_);}
	.st51{fill:url(#SVGID_00000170973623040823353360000009029364487417521833_);}
	.st52{fill:url(#SVGID_00000127018495318051001660000018445587797397923774_);}
	.st53{fill:url(#SVGID_00000067956354985199197830000010240268104997037729_);}
	.st54{fill:url(#SVGID_00000156573029203379944120000000402852805827355049_);}
	.st55{fill:url(#SVGID_00000164510379710384357320000017590596994201738133_);}
	.st56{fill:url(#SVGID_00000096045377687325987630000009278916752650776496_);}
	.st57{fill:url(#SVGID_00000089550082520550828450000007650425807523153541_);}
	.st58{fill:url(#SVGID_00000037674749230666314800000016165053235691862661_);}
	.st59{fill:url(#SVGID_00000115513294936329035440000002504526927516624523_);}
	.st60{fill:url(#SVGID_00000036241520487910823310000011678251632612213409_);}
	.st61{fill:url(#SVGID_00000170994550172395468600000017822376776078871458_);}
	.st62{fill:url(#SVGID_00000027605814749597589120000014501775261107123860_);}
	.st63{fill:url(#SVGID_00000151523149420784056990000006270422523629049511_);}
	.st64{fill:url(#SVGID_00000137122989715476777290000004225154950772849073_);}
	.st65{fill:url(#SVGID_00000009578024717562779210000002986723769261105855_);}
	.st66{fill:url(#SVGID_00000054988764061202076760000001422239453895343778_);}
	.st67{fill:url(#SVGID_00000032647911478021388330000015759937121300392861_);}
	.st68{fill:url(#SVGID_00000055691684545251447200000011625693505195474835_);}
	.st69{fill:url(#SVGID_00000111190951636131397410000014693465567627786160_);}
	.st70{fill:url(#SVGID_00000087373750539231455450000013896436547402377351_);}
	.st71{fill:url(#SVGID_00000034070597852212791790000000730993643868345986_);}
	.st72{fill:url(#SVGID_00000101782212222583493440000017368359627732530351_);}
	.st73{fill:url(#SVGID_00000155144597159710004880000016404898274363931556_);}
	.st74{fill:url(#SVGID_00000162310200183809182960000007299891833073720198_);}
	.st75{fill:url(#SVGID_00000008108926596190603000000009284023989907846575_);}
	.st76{fill:url(#SVGID_00000099657592165390597410000014941543692708431523_);}
	.st77{fill:url(#SVGID_00000071560342130683210950000007400955788465147022_);}
</style>
<g>
	<path class="st0" d="M239.4,243l0.2,0.6c1.5,3.5-0.1,7.6-3.5,9.3l-55.2,27.1L60.8,74.3l-1.9-11.6l0,0l3-4.8l0,0l3.4-5.7
		c0,0,92.6,152.3,93.3,158.2L239.4,243z"/>
	<g>
		<polygon class="st1" points="62.6,56.1 73.5,38 195.3,254.1 184.7,273.4 64.5,67.6 		"/>
		<rect x="192.3" y="249.7" transform="matrix(0.866 -0.5 0.5 0.866 -99.805 130.2431)" class="st2" width="1.6" height="3.4"/>
		<path class="st2" d="M251.8,222.8l-9.4,19.3c-1.1,2.3-2.9,4.1-5.2,5.2l-52.6,26.3l9.3-22L251.8,222.8z"/>
		
			<linearGradient id="SVGID_1_" gradientUnits="userSpaceOnUse" x1="-577.3075" y1="864.6985" x2="-577.3075" y2="876.2494" gradientTransform="matrix(-0.5 -0.866 0.866 -0.5 -914.0068 92.9504)">
			<stop  offset="0.3111" style="stop-color:#000000"/>
			<stop  offset="1" style="stop-color:#37475E"/>
		</linearGradient>
		<path class="st3" d="M74.2,44.5l118.4,205.2c1.2,2,1.2,4.5,0.1,6.5l-5.9,12.3c-1-1.4-7.2-22.4-7.2-22.4L71,58L74.2,44.5z"/>
		<path class="st2" d="M129.5,11l122.3,211.8L194,252.1L73.5,43.3c-1.5-2.6-0.6-5.9,2-7.4L122.1,9C124.7,7.5,128,8.4,129.5,11z"/>
		<polygon class="st5" points="65.5,51.1 62.6,56.1 63.6,57.9 66.6,53 		"/>
		<path class="st2" d="M68.9,45.6c0,0,3.1-4.8,4.8-1.9c0.7,1.2,1.1,2,1.1,2l-1.2-8L68.9,45.6z"/>
		<ellipse transform="matrix(0.866 -0.5 0.5 0.866 -98.1945 115.0164)" class="st6" cx="165.5" cy="240.7" rx="4.5" ry="10.5"/>
		<ellipse transform="matrix(0.866 -0.5 0.5 0.866 -98.1945 115.0164)" class="st2" cx="165.5" cy="240.7" rx="2" ry="4.8"/>
		<g>
			<ellipse transform="matrix(0.866 -0.5 0.5 0.866 -37.9467 54.7686)" class="st6" cx="83.2" cy="98.2" rx="4.5" ry="10.5"/>
			<ellipse transform="matrix(0.866 -0.5 0.5 0.866 -37.9467 54.7686)" class="st2" cx="83.2" cy="98.2" rx="2" ry="4.8"/>
		</g>
		<g>
			<ellipse transform="matrix(0.866 -0.5 0.5 0.866 -29.7843 46.6063)" class="st6" cx="72.1" cy="78.9" rx="4.5" ry="10.5"/>
			<ellipse transform="matrix(0.866 -0.5 0.5 0.866 -29.7843 46.6063)" class="st2" cx="72.1" cy="78.9" rx="2" ry="4.8"/>
		</g>
		
			<linearGradient id="SVGID_00000036954913702918663080000001240132492820677249_" gradientUnits="userSpaceOnUse" x1="-705.6575" y1="907.2075" x2="-692.5806" y2="907.2075" gradientTransform="matrix(-0.5 -0.866 0.866 -0.5 -914.0068 92.9504)">
			<stop  offset="0.3111" style="stop-color:#000000"/>
			<stop  offset="1" style="stop-color:#37475E"/>
		</linearGradient>
		<path style="fill:url(#SVGID_00000036954913702918663080000001240132492820677249_);" d="M195.9,251.9l6.9-3.5l0,0l49-25.2
			l-8,16.2l-53.2,26.6l5-11.1C195.5,254.8,196.2,252.9,195.9,251.9z"/>
	</g>
</g>
</svg>
