<?xml version="1.0" encoding="utf-8"?>
<!-- Generator: Adobe Illustrator 25.4.1, SVG Export Plug-In . SVG Version: 6.00 Build 0)  -->
<svg version="1.1" id="Capa_1" xmlns="http://www.w3.org/2000/svg" xmlns:xlink="http://www.w3.org/1999/xlink" x="0px" y="0px"
	 viewBox="0 0 310 310" style="enable-background:new 0 0 310 310;" xml:space="preserve">
<style type="text/css">
	.st0{opacity:0.2;fill:#110C0A;enable-background:new    ;}
	.st1{fill:#999999;}
	.st2{fill:#FFFFFF;}
	.st3{fill:url(#SVGID_1_);}
	.st4{fill:none;stroke:#A0349D;stroke-width:9;stroke-miterlimit:10;}
	.st5{fill:#C00C0A;}
	.st6{fill:#110C0A;}
	.st7{fill:url(#SVGID_00000034085175890710064030000009466492772937918613_);}
	.st8{fill:url(#SVGID_00000087413525182059188330000016728239116508508545_);}
	.st9{fill:url(#SVGID_00000085226522565033434360000014510231302219840698_);}
	.st10{fill:url(#SVGID_00000103982406208746168780000013350048145793671065_);}
	.st11{fill:url(#SVGID_00000070116654468578669420000018415686669579963580_);}
	.st12{fill:url(#SVGID_00000048496339677289115530000006181651457901046198_);}
	.st13{fill:url(#SVGID_00000021811354308683778080000012176785472015492487_);}
	.st14{fill:url(#SVGID_00000085242917913906331630000015631597704859569556_);}
	.st15{fill:url(#SVGID_00000140699098020982445720000001276848279290746280_);}
	.st16{fill:url(#SVGID_00000170280353730047122370000011955513474816061869_);}
	.st17{fill:url(#SVGID_00000118396273362220542720000005908645429737714836_);}
	.st18{fill:url(#SVGID_00000135648732709416567970000007015384246004207241_);}
	.st19{fill:url(#SVGID_00000090989298440911388450000007627024949503148945_);}
	.st20{fill:url(#SVGID_00000000928764734626153610000008695149311945036932_);}
	.st21{fill:url(#SVGID_00000176037620714452593630000015164847638810057888_);}
	.st22{fill:url(#SVGID_00000131340311158353128670000012303826618791421313_);}
	.st23{fill:url(#SVGID_00000129922126243990333720000005940649951069638552_);}
	.st24{fill:url(#SVGID_00000017494905239530575890000005775737859113469824_);}
	.st25{fill:url(#SVGID_00000004528883335052931420000014978609285663543211_);}
	.st26{fill:url(#SVGID_00000165946359281290532580000017021672953514790293_);}
	.st27{fill:url(#SVGID_00000083087881011148420710000002378383410954716036_);}
	.st28{fill:url(#SVGID_00000148636324841484588910000005995879130904752301_);}
	.st29{fill:url(#SVGID_00000079446026714134843640000008248478421403698618_);}
	.st30{fill:url(#SVGID_00000177472532876477988320000002133834363706147004_);}
	.st31{fill:url(#SVGID_00000078044653013413074740000017682229644213969820_);}
	.st32{fill:url(#SVGID_00000154413910763963458830000014808701729919198106_);}
	.st33{fill:url(#SVGID_00000007412230171424013320000001865529470945321877_);}
	.st34{fill:url(#SVGID_00000091712357234850523210000005277362218633394605_);}
	.st35{fill:url(#SVGID_00000140009804339350187020000012360194831060977341_);}
	.st36{fill:url(#SVGID_00000053513270696148485020000013074661962200585904_);}
	.st37{fill:url(#SVGID_00000154416159785430586140000007750032130722001807_);}
	.st38{fill:url(#SVGID_00000018212692669776263540000014900723076728750485_);}
	.st39{fill:url(#SVGID_00000049931376444034449740000012080683044757886345_);}
	.st40{fill:url(#SVGID_00000152947938223323711380000007690411569406695559_);}
	.st41{fill:url(#SVGID_00000093860278596416600860000001735171283714507437_);}
	.st42{fill:url(#SVGID_00000010302641632521475120000000067685579245206434_);}
	.st43{fill:url(#SVGID_00000054945849637987508420000016343785561989516445_);}
	.st44{fill:url(#SVGID_00000021112508937650813180000014045431809891105201_);}
	.st45{fill:url(#SVGID_00000025415225279420579080000001586231431781859733_);}
	.st46{fill:url(#SVGID_00000176039790159763703160000017748191882122592674_);}
	.st47{fill:url(#SVGID_00000096038372287916078020000015742278779817882291_);}
	.st48{fill:url(#SVGID_00000054235551579200545800000002439448735717446027_);}
	.st49{fill:url(#SVGID_00000004509674538863126480000008457187858193189295_);}
	.st50{fill:url(#SVGID_00000047060471142491613270000014498547426040484748_);}
	.st51{fill:url(#SVGID_00000112592318895072429460000009346364633574602172_);}
	.st52{fill:url(#SVGID_00000142173681349395621320000005080999538427869085_);}
	.st53{fill:url(#SVGID_00000056387023662007589060000008323992631274315934_);}
	.st54{fill:url(#SVGID_00000157269585768450214350000012608871645511985846_);}
	.st55{fill:url(#SVGID_00000011009559073583873280000010296900657083379118_);}
	.st56{fill:url(#SVGID_00000161595813658558950420000014295000881535592115_);}
	.st57{fill:url(#SVGID_00000120523367070754994150000013471042419576389255_);}
	.st58{fill:url(#SVGID_00000097493422813862148880000003758302676990025611_);}
	.st59{fill:url(#SVGID_00000052786270772934226230000010446114006976603809_);}
	.st60{fill:url(#SVGID_00000099658008064205108390000003298962546065416598_);}
	.st61{fill:url(#SVGID_00000119079361704872326960000004969328445291269275_);}
	.st62{fill:url(#SVGID_00000095320098391640156580000006367905863940941741_);}
	.st63{fill:url(#SVGID_00000063628704536480406200000017791019793585034939_);}
	.st64{fill:url(#SVGID_00000150063560986691101830000007490244175639893903_);}
	.st65{fill:url(#SVGID_00000070821219755881052840000012200838871547172480_);}
	.st66{fill:url(#SVGID_00000010294431318432074970000004307820544756053391_);}
	.st67{fill:url(#SVGID_00000014621612102957337510000003675065561784292272_);}
	.st68{fill:url(#SVGID_00000075880390908528635810000007484674279328126885_);}
	.st69{fill:url(#SVGID_00000157993286245631637840000015641811146820207276_);}
	.st70{fill:url(#SVGID_00000118398766305881249880000015124989049827788423_);}
	.st71{fill:url(#SVGID_00000092417588194803557470000018010374891721158061_);}
	.st72{fill:url(#SVGID_00000176012024259574556890000017812438803496379777_);}
	.st73{fill:url(#SVGID_00000014600042422459006970000003741758387898775181_);}
	.st74{fill:url(#SVGID_00000050644481948713274590000002834228567951935652_);}
	.st75{fill:url(#SVGID_00000136378340741768262150000006611382142117542312_);}
	.st76{fill:url(#SVGID_00000138572267832526732050000005121099703880526467_);}
	.st77{fill:url(#SVGID_00000083087563644875907080000000830125084907072419_);}
</style>
<g>
	<path class="st0" d="M220.9,255.9l0.1,0.6c0.8,3.7-1.4,7.4-5.1,8.6l-59.1,17.1L74.4,58.8L74.5,47l0,0l3.8-4.2l0,0l4.4-5
		c0,0,64.7,166.1,64.4,171.9L220.9,255.9z"/>
	<g>
		<polygon class="st1" points="79.3,41.1 93.2,25.2 175.6,259.1 161.9,276.4 79.2,52.8 		"/>
		
			<rect x="173.2" y="254.4" transform="matrix(0.9397 -0.342 0.342 0.9397 -77.1014 74.9431)" class="st2" width="1.6" height="3.4"/>
		<path class="st2" d="M236.7,238.2l-12.6,17.4c-1.5,2-3.6,3.5-6,4.2l-56.4,16.8l13-20.1L236.7,238.2z"/>
		
			<linearGradient id="SVGID_1_" gradientUnits="userSpaceOnUse" x1="-942.3009" y1="1229.6919" x2="-942.3009" y2="1241.2428" gradientTransform="matrix(-0.342 -0.9397 0.9397 -0.342 -1356.6694 -310.2992)">
			<stop  offset="0.3111" style="stop-color:#000000"/>
			<stop  offset="1" style="stop-color:#37475E"/>
		</linearGradient>
		<path class="st3" d="M92.7,31.8l81,222.6c0.8,2.2,0.4,4.6-1.1,6.5l-8,11.1c-0.8-1.5-3.2-23.3-3.2-23.3L87.3,44.5L92.7,31.8z"/>
		<path class="st2" d="M153.1,8.3l83.7,229.8l-62,18.8L92.3,30.4c-1-2.8,0.4-5.9,3.2-6.9l50.6-18.4C148.9,4.1,152,5.5,153.1,8.3z"/>
		<polygon class="st5" points="83.1,36.8 79.3,41.1 80,43.1 83.8,38.7 		"/>
		<path class="st2" d="M87.4,31.9c0,0,3.9-4.2,5-1.1c0.5,1.3,0.8,2.2,0.8,2.2l0.3-8.1L87.4,31.9z"/>
		
			<ellipse transform="matrix(0.9397 -0.342 0.342 0.9397 -73.4137 65.3549)" class="st6" cx="148.6" cy="240.9" rx="4.5" ry="10.5"/>
		<ellipse transform="matrix(0.9397 -0.342 0.342 0.9397 -73.4137 65.3549)" class="st2" cx="148.6" cy="240.9" rx="2" ry="4.8"/>
		<g>
			<ellipse transform="matrix(0.9397 -0.342 0.342 0.9397 -23.9073 36.7724)" class="st6" cx="92.3" cy="86.2" rx="4.5" ry="10.5"/>
			<ellipse transform="matrix(0.9397 -0.342 0.342 0.9397 -23.9073 36.7724)" class="st2" cx="92.3" cy="86.2" rx="2" ry="4.8"/>
		</g>
		<g>
			<ellipse transform="matrix(0.9397 -0.342 0.342 0.9397 -17.2002 32.9001)" class="st6" cx="84.7" cy="65.2" rx="4.5" ry="10.5"/>
			<ellipse transform="matrix(0.9397 -0.342 0.342 0.9397 -17.2002 32.9001)" class="st2" cx="84.7" cy="65.2" rx="2" ry="4.8"/>
		</g>
		
			<linearGradient id="SVGID_00000148629651227230542490000006190515796837466510_" gradientUnits="userSpaceOnUse" x1="-1070.651" y1="1272.2009" x2="-1057.5741" y2="1272.2009" gradientTransform="matrix(-0.342 -0.9397 0.9397 -0.342 -1356.6694 -310.2992)">
			<stop  offset="0.3111" style="stop-color:#000000"/>
			<stop  offset="1" style="stop-color:#37475E"/>
		</linearGradient>
		<path style="fill:url(#SVGID_00000148629651227230542490000006190515796837466510_);" d="M176.5,257.1l7.4-2.3l0,0l52.6-16.3
			l-10.7,14.5l-57,16.9l6.9-10.1C175.7,259.9,176.7,258.2,176.5,257.1z"/>
	</g>
</g>
</svg>
