<?xml version="1.0" encoding="utf-8"?>
<!-- Generator: Adobe Illustrator 25.4.1, SVG Export Plug-In . SVG Version: 6.00 Build 0)  -->
<svg version="1.1" id="Capa_1" xmlns="http://www.w3.org/2000/svg" xmlns:xlink="http://www.w3.org/1999/xlink" x="0px" y="0px"
	 viewBox="0 0 310 310" style="enable-background:new 0 0 310 310;" xml:space="preserve">
<style type="text/css">
	.st0{opacity:0.2;fill:#110C0A;enable-background:new    ;}
	.st1{fill:#999999;}
	.st2{fill:#FFFFFF;}
	.st3{fill:url(#SVGID_1_);}
	.st4{fill:none;stroke:#A0349D;stroke-width:9;stroke-miterlimit:10;}
	.st5{fill:#C00C0A;}
	.st6{fill:#110C0A;}
	.st7{fill:url(#SVGID_00000083790499545407115600000007542555333739020199_);}
	.st8{fill:url(#SVGID_00000046312300729297464260000010674666909701294471_);}
	.st9{fill:url(#SVGID_00000073720288978342995050000011738134727112039067_);}
	.st10{fill:url(#SVGID_00000095320107647199339910000014489859837178569147_);}
	.st11{fill:url(#SVGID_00000017509729915104133420000016478560249520590512_);}
	.st12{fill:url(#SVGID_00000096056067880923323150000004392750854723683220_);}
	.st13{fill:url(#SVGID_00000153694917303924217390000014117377974564269216_);}
	.st14{fill:url(#SVGID_00000115493268327885215790000005346343464962380714_);}
	.st15{fill:url(#SVGID_00000131360445915164088360000015252728907091165098_);}
	.st16{fill:url(#SVGID_00000020362601679076492680000005476507798575103667_);}
	.st17{fill:url(#SVGID_00000076575541220119301220000016981473985213248189_);}
	.st18{fill:url(#SVGID_00000088133823062678065830000009548591905688279194_);}
	.st19{fill:url(#SVGID_00000132048489450302910600000000941114150271241889_);}
	.st20{fill:url(#SVGID_00000050664963075309678230000010710501095084093342_);}
	.st21{fill:url(#SVGID_00000103242597938391464470000008532477776130176433_);}
	.st22{fill:url(#SVGID_00000083800497510394815710000015132084063845666699_);}
	.st23{fill:url(#SVGID_00000121262804219526044480000017319778853748658354_);}
	.st24{fill:url(#SVGID_00000153706482434764270890000011740088949909834926_);}
	.st25{fill:url(#SVGID_00000089550968271810079920000007416942986279486139_);}
	.st26{fill:url(#SVGID_00000044867529648435457950000015845016314393709184_);}
	.st27{fill:url(#SVGID_00000125563561518590113580000015821819036832175529_);}
	.st28{fill:url(#SVGID_00000007426307632164159570000003811827637220793013_);}
	.st29{fill:url(#SVGID_00000050631447823918624550000006521756882630876050_);}
	.st30{fill:url(#SVGID_00000015338228526262987410000010778559813394395038_);}
	.st31{fill:url(#SVGID_00000079486349770589876790000005284965098136977554_);}
	.st32{fill:url(#SVGID_00000129190823231484693350000002211240595575162034_);}
	.st33{fill:url(#SVGID_00000023971766599349852170000011122751523541556639_);}
	.st34{fill:url(#SVGID_00000107589548658944920800000012746123699970219138_);}
	.st35{fill:url(#SVGID_00000103961956349371468560000017042641891543583371_);}
	.st36{fill:url(#SVGID_00000080914464421565996460000010109373456420547497_);}
	.st37{fill:url(#SVGID_00000093888341416288615040000007372619717835457453_);}
	.st38{fill:url(#SVGID_00000155133849259387488670000012842739259756782266_);}
	.st39{fill:url(#SVGID_00000174565665954849696140000005126151495311036343_);}
	.st40{fill:url(#SVGID_00000165210582535011635460000006068285834158814886_);}
	.st41{fill:url(#SVGID_00000049934684260726479370000004875932666384085171_);}
	.st42{fill:url(#SVGID_00000028299622513740577150000016148437459317272767_);}
	.st43{fill:url(#SVGID_00000096741116713292609510000012136891092148790677_);}
	.st44{fill:url(#SVGID_00000001665363909030352260000012406254694364935609_);}
	.st45{fill:url(#SVGID_00000174584112211866971530000002524436031168180099_);}
	.st46{fill:url(#SVGID_00000127011544078505956740000005905472793475903123_);}
	.st47{fill:url(#SVGID_00000138551837672600374420000015487530853376861367_);}
	.st48{fill:url(#SVGID_00000073685564003379018200000011759453101507483049_);}
	.st49{fill:url(#SVGID_00000067952488931415831630000005056856471023283858_);}
	.st50{fill:url(#SVGID_00000034787865011420226160000000484778351909520063_);}
	.st51{fill:url(#SVGID_00000063595928483445725260000014025801402739376033_);}
	.st52{fill:url(#SVGID_00000060746954382123168840000001481600919166351542_);}
	.st53{fill:url(#SVGID_00000123409563575444302760000009246443130904368520_);}
	.st54{fill:url(#SVGID_00000034088320658450565090000013633150859066987654_);}
	.st55{fill:url(#SVGID_00000174579956993555710760000007000541552995059370_);}
	.st56{fill:url(#SVGID_00000133506535294365743280000008765411862156640145_);}
	.st57{fill:url(#SVGID_00000155124636374983407950000001771516576055579574_);}
	.st58{fill:url(#SVGID_00000128486168289841101880000003152482103577072541_);}
	.st59{fill:url(#SVGID_00000070083318698371075420000002534283777462927500_);}
	.st60{fill:url(#SVGID_00000049182359897048635160000002458878488195508361_);}
	.st61{fill:url(#SVGID_00000130630580618744398720000004594729227740674485_);}
	.st62{fill:url(#SVGID_00000101096835657312659130000007803337417766197933_);}
	.st63{fill:url(#SVGID_00000161592386130607631060000010007627481693016985_);}
	.st64{fill:url(#SVGID_00000000186793529090711420000004615673841620368011_);}
	.st65{fill:url(#SVGID_00000091711320332011578830000007574712663042258085_);}
	.st66{fill:url(#SVGID_00000180353905893889126330000015615355521827703719_);}
	.st67{fill:url(#SVGID_00000147916306145974653390000004007796188636605603_);}
	.st68{fill:url(#SVGID_00000132805135298977577000000009280016270781556117_);}
	.st69{fill:url(#SVGID_00000027598477435364967330000003011818424924760238_);}
	.st70{fill:url(#SVGID_00000049184310266723583550000006246421586215843215_);}
	.st71{fill:url(#SVGID_00000098901604063379788000000003136724763015403185_);}
	.st72{fill:url(#SVGID_00000122692998672390722600000009777280480330416024_);}
	.st73{fill:url(#SVGID_00000141447022290051426730000011170991943870716596_);}
	.st74{fill:url(#SVGID_00000007415382240208273410000015991649286030858158_);}
	.st75{fill:url(#SVGID_00000071552568337387186180000017102934592528576187_);}
	.st76{fill:url(#SVGID_00000117658622105422416670000000138241351363549839_);}
	.st77{fill:url(#SVGID_00000171707166602052895100000007381942750324265891_);}
</style>
<g>
	<path class="st0" d="M200.4,265.3l0,0.6c0.2,3.8-2.7,7.1-6.5,7.5l-61.2,6.6L90.3,45.7l2.1-11.5l0,0l4.5-3.5l0,0l5.2-4.2
		c0,0,34.9,174.8,33.6,180.5L200.4,265.3z"/>
	<g>
		<polygon class="st1" points="98.3,29.2 114.7,15.9 155.2,260.6 138.7,275.2 96.2,40.7 		"/>
		
			<rect x="153.3" y="255.6" transform="matrix(0.9848 -0.1736 0.1736 0.9848 -42.3414 30.6771)" class="st2" width="1.6" height="3.4"/>
		<path class="st2" d="M219.1,250.5l-15.4,14.9c-1.8,1.7-4.2,2.9-6.7,3.1l-58.4,6.7l16.3-17.5L219.1,250.5z"/>
		
			<linearGradient id="SVGID_1_" gradientUnits="userSpaceOnUse" x1="-1318.3547" y1="1605.7458" x2="-1318.3547" y2="1617.2966" gradientTransform="matrix(-0.1736 -0.9848 0.9848 -0.1736 -1690.5142 -871.3077)">
			<stop  offset="0.3111" style="stop-color:#000000"/>
			<stop  offset="1" style="stop-color:#37475E"/>
		</linearGradient>
		<path class="st3" d="M113.1,22.3l41.1,233.3c0.4,2.3-0.4,4.6-2.2,6.2l-9.8,9.5c-0.5-1.6,0.9-23.5,0.9-23.5L105.5,33.9L113.1,22.3z
			"/>
		<path class="st2" d="M176.6,9.7l42.5,240.9l-64.3,7.8L112.9,20.9c-0.5-3,1.4-5.7,4.4-6.3l53.1-9.4C173.3,4.8,176.1,6.7,176.6,9.7z
			"/>
		<polygon class="st5" points="102.7,25.5 98.3,29.2 98.6,31.2 103.1,27.6 		"/>
		<path class="st2" d="M107.8,21.5c0,0,4.6-3.4,5.1-0.2c0.2,1.4,0.4,2.3,0.4,2.3l1.7-7.9L107.8,21.5z"/>
		
			<ellipse transform="matrix(0.9848 -0.1736 0.1736 0.9848 -39.308 26.5077)" class="st6" cx="131.8" cy="237.9" rx="4.5" ry="10.5"/>
		<ellipse transform="matrix(0.9848 -0.1736 0.1736 0.9848 -39.3081 26.5077)" class="st2" cx="131.8" cy="237.9" rx="2" ry="4.8"/>
		<g>
			
				<ellipse transform="matrix(0.9848 -0.1736 0.1736 0.9848 -11.594 19.0818)" class="st6" cx="103.3" cy="75.8" rx="4.5" ry="10.5"/>
			<ellipse transform="matrix(0.9848 -0.1736 0.1736 0.9848 -11.594 19.0818)" class="st2" cx="103.3" cy="75.8" rx="2" ry="4.8"/>
		</g>
		<g>
			
				<ellipse transform="matrix(0.9848 -0.1736 0.1736 0.9848 -7.8393 18.0757)" class="st6" cx="99.4" cy="53.8" rx="4.5" ry="10.5"/>
			<ellipse transform="matrix(0.9848 -0.1736 0.1736 0.9848 -7.8393 18.0757)" class="st2" cx="99.4" cy="53.8" rx="2" ry="4.8"/>
		</g>
		
			<linearGradient id="SVGID_00000041264879676245894150000010676117528404097436_" gradientUnits="userSpaceOnUse" x1="-1446.7048" y1="1648.2548" x2="-1433.6279" y2="1648.2548" gradientTransform="matrix(-0.1736 -0.9848 0.9848 -0.1736 -1690.5142 -871.3077)">
			<stop  offset="0.3111" style="stop-color:#000000"/>
			<stop  offset="1" style="stop-color:#37475E"/>
		</linearGradient>
		<path style="fill:url(#SVGID_00000041264879676245894150000010676117528404097436_);" d="M156.5,258.7l7.7-0.9l0,0l54.6-6.9
			l-13,12.5l-59.1,6.8l8.5-8.7C155.2,261.4,156.5,259.8,156.5,258.7z"/>
	</g>
</g>
</svg>
