<?xml version="1.0" encoding="utf-8"?>
<!-- Generator: Adobe Illustrator 25.4.1, SVG Export Plug-In . SVG Version: 6.00 Build 0)  -->
<svg version="1.1" id="Capa_1" xmlns="http://www.w3.org/2000/svg" xmlns:xlink="http://www.w3.org/1999/xlink" x="0px" y="0px"
	 viewBox="0 0 310 310" style="enable-background:new 0 0 310 310;" xml:space="preserve">
<style type="text/css">
	.st0{opacity:0.2;fill:#110C0A;enable-background:new    ;}
	.st1{fill:#999999;}
	.st2{fill:#FFFFFF;}
	.st3{fill:url(#SVGID_1_);}
	.st4{fill:none;stroke:#A0349D;stroke-width:9;stroke-miterlimit:10;}
	.st5{fill:#C00C0A;}
	.st6{fill:#110C0A;}
	.st7{fill:url(#SVGID_00000013901609706607028430000012682079861518916011_);}
	.st8{fill:url(#SVGID_00000178168379768620198830000015575503507534059929_);}
	.st9{fill:url(#SVGID_00000150799431297417088810000006469156786575187078_);}
	.st10{fill:url(#SVGID_00000119108336628300557950000012426813953065178516_);}
	.st11{fill:url(#SVGID_00000159472409989821250780000015590152679806129591_);}
	.st12{fill:url(#SVGID_00000009592255801755690280000011522125964435210661_);}
	.st13{fill:url(#SVGID_00000062155820199242944970000010848573938783334813_);}
	.st14{fill:url(#SVGID_00000060720023361277647080000015515825514679313796_);}
	.st15{fill:url(#SVGID_00000145056405825779869360000009044886420576612015_);}
	.st16{fill:url(#SVGID_00000034797869790322135320000012946225114724944784_);}
	.st17{fill:url(#SVGID_00000125575513278569982580000003954514792353570482_);}
	.st18{fill:url(#SVGID_00000115487527675928782230000008317387289562627481_);}
	.st19{fill:url(#SVGID_00000073706333570972390540000007950652912705234317_);}
	.st20{fill:url(#SVGID_00000129206338641826131890000010425772000897892248_);}
	.st21{fill:url(#SVGID_00000175295743198033834890000013206608225283638929_);}
	.st22{fill:url(#SVGID_00000058571078539297616720000016466731320492976047_);}
	.st23{fill:url(#SVGID_00000156551209780203160560000010207967942013622912_);}
	.st24{fill:url(#SVGID_00000096758314036332454050000004270771074577960075_);}
	.st25{fill:url(#SVGID_00000130647822239064432130000014176217433122824120_);}
	.st26{fill:url(#SVGID_00000170989501487086724770000002367983869496035230_);}
	.st27{fill:url(#SVGID_00000029037497145353316780000002048129712654255253_);}
	.st28{fill:url(#SVGID_00000088091913137911790760000003208196478815952296_);}
	.st29{fill:url(#SVGID_00000000208201040637131710000000087139245676027560_);}
	.st30{fill:url(#SVGID_00000062889784921027422960000015185463299524517261_);}
	.st31{fill:url(#SVGID_00000131332756416871311680000018307295885526588840_);}
	.st32{fill:url(#SVGID_00000137124853587502515000000005652081745229775031_);}
	.st33{fill:url(#SVGID_00000171705844092234254290000013039116794364294567_);}
	.st34{fill:url(#SVGID_00000056392265960232372400000005081494953545335189_);}
	.st35{fill:url(#SVGID_00000151503595383871634620000011617640851176872367_);}
	.st36{fill:url(#SVGID_00000075859416740084224350000010660837341299611792_);}
	.st37{fill:url(#SVGID_00000056412867957272214870000009741001426085503650_);}
	.st38{fill:url(#SVGID_00000028307673151315715920000013506819265233861766_);}
	.st39{fill:url(#SVGID_00000008150566059114992660000004616541922813159055_);}
	.st40{fill:url(#SVGID_00000047766887435227979320000004474852565297770387_);}
	.st41{fill:url(#SVGID_00000023243872804048142580000001359515459373399424_);}
	.st42{fill:url(#SVGID_00000018926309889798949930000014356722783273762464_);}
	.st43{fill:url(#SVGID_00000129187730987185819870000015021797986817879214_);}
	.st44{fill:url(#SVGID_00000119090332212699464800000006227348726018458533_);}
	.st45{fill:url(#SVGID_00000041261251257057236610000000960728787044816281_);}
	.st46{fill:url(#SVGID_00000124163727413726051700000002650450030870980280_);}
	.st47{fill:url(#SVGID_00000124141928700898611630000000183576964038842241_);}
	.st48{fill:url(#SVGID_00000178920089766912936720000005702498772598827696_);}
	.st49{fill:url(#SVGID_00000090278007230455620470000017870795450261554311_);}
	.st50{fill:url(#SVGID_00000160159051874403609430000009701656396479012997_);}
	.st51{fill:url(#SVGID_00000152253813178522122660000001758883582841558434_);}
	.st52{fill:url(#SVGID_00000113346470532885665020000000083683906569891500_);}
	.st53{fill:url(#SVGID_00000137820302644513236890000004881668921706445756_);}
	.st54{fill:url(#SVGID_00000005973114952412740330000008721444892981852566_);}
	.st55{fill:url(#SVGID_00000048485629582456523040000010266917636978194595_);}
	.st56{fill:url(#SVGID_00000072971154575754315900000014027840347901828228_);}
	.st57{fill:url(#SVGID_00000096777052890071607660000006803217661508585919_);}
	.st58{fill:url(#SVGID_00000069395716333531993880000012917832990181785519_);}
	.st59{fill:url(#SVGID_00000033328507117655658730000015194005687213803655_);}
	.st60{fill:url(#SVGID_00000011019293143638601800000000218229190952441786_);}
	.st61{fill:url(#SVGID_00000075156699093799128830000002568405733978497423_);}
	.st62{fill:url(#SVGID_00000150798263854321061640000008628081444004540087_);}
	.st63{fill:url(#SVGID_00000010999249498127632870000006169371009204893111_);}
	.st64{fill:url(#SVGID_00000065789507214412357740000001850457589145888908_);}
	.st65{fill:url(#SVGID_00000025442413632379934600000003979104508809373080_);}
	.st66{fill:url(#SVGID_00000090272145014246189720000004490825324357961102_);}
	.st67{fill:url(#SVGID_00000013151629890930635050000014942161976603948716_);}
	.st68{fill:url(#SVGID_00000043443085346092689420000004440895016474918545_);}
	.st69{fill:url(#SVGID_00000181072202883422147920000010077408354535713422_);}
	.st70{fill:url(#SVGID_00000135653759035680676210000001151326396707597473_);}
	.st71{fill:url(#SVGID_00000008141907814290834360000008381036726898809521_);}
	.st72{fill:url(#SVGID_00000147926534273502582340000007892259324472378808_);}
	.st73{fill:url(#SVGID_00000119816148104115261570000002595199471064404659_);}
	.st74{fill:url(#SVGID_00000030449672728828444810000000162044487161742745_);}
	.st75{fill:url(#SVGID_00000158014209628405775750000009461097446731384479_);}
	.st76{fill:url(#SVGID_00000058587312234488750110000005665321852773847724_);}
	.st77{fill:url(#SVGID_00000026154884394794855460000000806734376341107351_);}
</style>
<g>
	<path class="st0" d="M156,273l-0.2,0.6c-1.2,3.7-5,5.7-8.7,4.9l-59.8-14.7L127.7,29l5.9-10.1l0,0l5.4-1.8l0,0l6.3-2.1
		c0,0-27,176.2-30.2,181.1L156,273z"/>
	<g>
		<polygon class="st1" points="140.8,16.2 160.8,9.3 115.2,253.1 94.7,261.2 134.9,26.3 		"/>
		
			<rect x="113.6" y="248.9" transform="matrix(0.1736 -0.9848 0.9848 0.1736 -150.6137 319.8398)" class="st2" width="3.4" height="1.6"/>
		<path class="st2" d="M178.6,265.5l-19.6,8.7c-2.3,1-4.9,1.3-7.3,0.6l-57.2-13.6l21.3-10.9L178.6,265.5z"/>
		
			<linearGradient id="SVGID_1_" gradientUnits="userSpaceOnUse" x1="-2070.4624" y1="2357.8535" x2="-2070.4624" y2="2369.4043" gradientTransform="matrix(0.1736 -0.9848 0.9848 0.1736 -1842.2042 -2313.0928)">
			<stop  offset="0.3111" style="stop-color:#000000"/>
			<stop  offset="1" style="stop-color:#37475E"/>
		</linearGradient>
		<path class="st3" d="M157.1,14.8L116,248.1c-0.4,2.3-2,4.2-4.1,5.1l-12.5,5.6c0.1-1.7,8.9-21.8,8.9-21.8L146,23.1L157.1,14.8z"/>
		<path class="st2" d="M221.1,24.6l-42.5,240.9l-63.1-14.7l41.9-237.4c0.5-3,3.3-4.9,6.3-4.4l53.1,9.4
			C219.6,18.9,221.6,21.7,221.1,24.6z"/>
		<polygon class="st5" points="146.2,14.3 140.8,16.2 140.5,18.2 145.9,16.3 		"/>
		<path class="st2" d="M152.4,12.2c0,0,5.5-1.7,4.9,1.6c-0.2,1.4-0.4,2.3-0.4,2.3l4.3-6.9L152.4,12.2z"/>
		
			<ellipse transform="matrix(0.1736 -0.9848 0.9848 0.1736 -136.9628 284.3475)" class="st6" cx="101" cy="223.8" rx="10.5" ry="4.5"/>
		<ellipse transform="matrix(0.1736 -0.9848 0.9848 0.1736 -136.9628 284.3475)" class="st2" cx="101" cy="223.8" rx="4.8" ry="2"/>
		<g>
			
				<ellipse transform="matrix(0.1736 -0.9848 0.9848 0.1736 46.2931 178.5447)" class="st6" cx="129.5" cy="61.7" rx="10.5" ry="4.5"/>
			<ellipse transform="matrix(0.1736 -0.9848 0.9848 0.1736 46.2931 178.5447)" class="st2" cx="129.5" cy="61.7" rx="4.8" ry="2"/>
		</g>
		<g>
			
				<ellipse transform="matrix(0.1736 -0.9848 0.9848 0.1736 71.1206 164.2105)" class="st6" cx="133.4" cy="39.7" rx="10.5" ry="4.5"/>
			<ellipse transform="matrix(0.1736 -0.9848 0.9848 0.1736 71.1206 164.2105)" class="st2" cx="133.4" cy="39.7" rx="4.8" ry="2"/>
		</g>
		
			<linearGradient id="SVGID_00000132776704158456855380000012610963503042593458_" gradientUnits="userSpaceOnUse" x1="-2198.8125" y1="2400.3625" x2="-2185.7356" y2="2400.3625" gradientTransform="matrix(0.1736 -0.9848 0.9848 0.1736 -1842.2042 -2313.0928)">
			<stop  offset="0.3111" style="stop-color:#000000"/>
			<stop  offset="1" style="stop-color:#37475E"/>
		</linearGradient>
		<path style="fill:url(#SVGID_00000132776704158456855380000012610963503042593458_);" d="M117,251.8l7.5,1.7l0,0l53.7,12.2
			l-16.5,7.2l-57.9-13.9l11-5.3C114.8,253.9,116.6,252.9,117,251.8z"/>
	</g>
</g>
</svg>
