<?xml version="1.0" encoding="utf-8"?>
<!-- Generator: Adobe Illustrator 25.4.1, SVG Export Plug-In . SVG Version: 6.00 Build 0)  -->
<svg version="1.1" id="Capa_1" xmlns="http://www.w3.org/2000/svg" xmlns:xlink="http://www.w3.org/1999/xlink" x="0px" y="0px"
	 viewBox="0 0 310 310" style="enable-background:new 0 0 310 310;" xml:space="preserve">
<style type="text/css">
	.st0{opacity:0.2;fill:#110C0A;enable-background:new    ;}
	.st1{fill:#999999;}
	.st2{fill:#FFFFFF;}
	.st3{fill:url(#SVGID_1_);}
	.st4{fill:none;stroke:#A0349D;stroke-width:9;stroke-miterlimit:10;}
	.st5{fill:#C00C0A;}
	.st6{fill:#110C0A;}
	.st7{fill:url(#SVGID_00000091726893540775504000000006804197030386341566_);}
	.st8{fill:url(#SVGID_00000129897400418844482530000004555997100733674906_);}
	.st9{fill:url(#SVGID_00000180367702698233690020000008798038665261169846_);}
	.st10{fill:url(#SVGID_00000004531647684203699940000004599128087280273824_);}
	.st11{fill:url(#SVGID_00000058563830257566348840000003963837971136348056_);}
	.st12{fill:url(#SVGID_00000152236419110164373160000003445561672164980104_);}
	.st13{fill:url(#SVGID_00000070096151217493861640000002083700363532621700_);}
	.st14{fill:url(#SVGID_00000143609500607354197290000014397282325352840079_);}
	.st15{fill:url(#SVGID_00000039126033920649162650000013092729842819115449_);}
	.st16{fill:url(#SVGID_00000124163531998356935720000016218997552010445972_);}
	.st17{fill:url(#SVGID_00000120547939827976404320000001286492653646221499_);}
	.st18{fill:url(#SVGID_00000047045803544380591910000017349040859920235197_);}
	.st19{fill:url(#SVGID_00000183964312175341823540000001823946866440913553_);}
	.st20{fill:url(#SVGID_00000155827171866364323700000014717779830647268275_);}
	.st21{fill:url(#SVGID_00000044170055287594806190000017708881196018197888_);}
	.st22{fill:url(#SVGID_00000180347932000405698660000016142450355770598272_);}
	.st23{fill:url(#SVGID_00000096059837436666537410000002256997613399368612_);}
	.st24{fill:url(#SVGID_00000029749799232988871410000018294496789343586998_);}
	.st25{fill:url(#SVGID_00000044179595484248372450000007444768307440676798_);}
	.st26{fill:url(#SVGID_00000095322680857589792450000011870204762339275703_);}
	.st27{fill:url(#SVGID_00000001652954401869517530000006413436762526577844_);}
	.st28{fill:url(#SVGID_00000042703280897553915260000017608459598965201849_);}
	.st29{fill:url(#SVGID_00000181045051078318067730000001749255195996175774_);}
	.st30{fill:url(#SVGID_00000113321335942462571340000001392573382746088097_);}
	.st31{fill:url(#SVGID_00000114071296552021069020000003228339065964751490_);}
	.st32{fill:url(#SVGID_00000164501399822245368830000003534157597526292400_);}
	.st33{fill:url(#SVGID_00000156548490733988326010000012558911976403466113_);}
	.st34{fill:url(#SVGID_00000029041805795879678680000010819137843382686352_);}
	.st35{fill:url(#SVGID_00000129887776407716090760000016116442942779342976_);}
	.st36{fill:url(#SVGID_00000135657830959049846290000008475403186853816216_);}
	.st37{fill:url(#SVGID_00000021107055562961829170000003627831903314745753_);}
	.st38{fill:url(#SVGID_00000088109511327777013180000012449023167838361244_);}
	.st39{fill:url(#SVGID_00000075877910232978830220000002764293108040528022_);}
	.st40{fill:url(#SVGID_00000078729579225263520630000016414177250685841281_);}
	.st41{fill:url(#SVGID_00000046302025565753758170000011240718209091191432_);}
	.st42{fill:url(#SVGID_00000008871641048777031200000001627348554490094492_);}
	.st43{fill:url(#SVGID_00000052069008641714835620000012964395940094423216_);}
	.st44{fill:url(#SVGID_00000052801110616368158110000011891450086892981636_);}
	.st45{fill:url(#SVGID_00000044872906500132356540000003072445046199596211_);}
	.st46{fill:url(#SVGID_00000000219511243224490170000017529970389715804598_);}
	.st47{fill:url(#SVGID_00000168116059724468859660000009956664767113870995_);}
	.st48{fill:url(#SVGID_00000014613472722480061870000014912442357128122523_);}
	.st49{fill:url(#SVGID_00000171710844757643415990000000373198862248856735_);}
	.st50{fill:url(#SVGID_00000113342334745891453730000013387658102147906969_);}
	.st51{fill:url(#SVGID_00000079453911910978553080000012163702635004794552_);}
	.st52{fill:url(#SVGID_00000044143830875188289420000014151745025746604691_);}
	.st53{fill:url(#SVGID_00000021108152270274894870000010037877557565422217_);}
	.st54{fill:url(#SVGID_00000050637883304256098100000000891661957860152723_);}
	.st55{fill:url(#SVGID_00000133514139242967774910000012638795193705746359_);}
	.st56{fill:url(#SVGID_00000172436463764755542480000017631058178441443981_);}
	.st57{fill:url(#SVGID_00000127762959839968762830000014991043310792183735_);}
	.st58{fill:url(#SVGID_00000070819509489592959090000002945834460432083866_);}
	.st59{fill:url(#SVGID_00000083047673206086329220000009080625783125632417_);}
	.st60{fill:url(#SVGID_00000158742439983509763650000006816765611909737097_);}
	.st61{fill:url(#SVGID_00000018919587980574284090000009537429906605064620_);}
	.st62{fill:url(#SVGID_00000178169835444917827300000001647272185413582228_);}
	.st63{fill:url(#SVGID_00000061469537388927222700000008667803458549656970_);}
	.st64{fill:url(#SVGID_00000170269148348211505250000011322787640542453147_);}
	.st65{fill:url(#SVGID_00000021114264271276901410000003917195139063541421_);}
	.st66{fill:url(#SVGID_00000171708907680818758900000006439720506597394098_);}
	.st67{fill:url(#SVGID_00000005238911111008031260000007517048945839915648_);}
	.st68{fill:url(#SVGID_00000007413213206889274620000000673838788415049131_);}
	.st69{fill:url(#SVGID_00000065044870533977430670000002543073996076886915_);}
	.st70{fill:url(#SVGID_00000101783925123877913790000014637791108426009778_);}
	.st71{fill:url(#SVGID_00000018220064418079943740000016666184043840623781_);}
	.st72{fill:url(#SVGID_00000085249449614660043130000005499721330636863393_);}
	.st73{fill:url(#SVGID_00000090995640935318791980000007547698783560287675_);}
	.st74{fill:url(#SVGID_00000065045172658057893380000005021099110423196595_);}
	.st75{fill:url(#SVGID_00000142857469068014922370000002488798088856459410_);}
	.st76{fill:url(#SVGID_00000139973790504547326250000003187173149795096709_);}
	.st77{fill:url(#SVGID_00000057847369750757866230000015708774706232831919_);}
</style>
<g>
	<path class="st0" d="M219.7,32.5l0.1-0.6c0.8-3.7-1.4-7.4-5.1-8.6L155.7,6.2L73.2,229.7l0.1,11.7l0,0l3.8,4.2l0,0l4.4,5
		c0,0,64.7-166.1,64.4-171.9L219.7,32.5z"/>
	<g>
		<polygon class="st1" points="78.1,247.3 92,263.2 174.4,29.3 160.7,12.1 78,235.6 		"/>
		
			<rect x="171.1" y="31.5" transform="matrix(0.342 -0.9397 0.9397 0.342 83.3005 183.6006)" class="st2" width="3.4" height="1.6"/>
		<path class="st2" d="M235.5,50.3l-12.6-17.4c-1.5-2-3.6-3.5-6-4.2l-56.4-16.8l13,20.1L235.5,50.3z"/>
		
			<linearGradient id="SVGID_1_" gradientUnits="userSpaceOnUse" x1="-595.0077" y1="882.3987" x2="-595.0077" y2="893.9496" gradientTransform="matrix(-0.342 0.9397 0.9397 0.342 -912.7455 391.1527)">
			<stop  offset="0.3111" style="stop-color:#000000"/>
			<stop  offset="1" style="stop-color:#37475E"/>
		</linearGradient>
		<path class="st3" d="M91.5,256.7l81-222.6c0.8-2.2,0.4-4.6-1.1-6.5l-8-11.1c-0.8,1.5-3.2,23.3-3.2,23.3L86.1,243.9L91.5,256.7z"/>
		<path class="st2" d="M151.8,280.1l83.7-229.8l-62-18.8L91,258c-1,2.8,0.4,5.9,3.2,6.9l50.6,18.4
			C147.7,284.4,150.8,282.9,151.8,280.1z"/>
		<polygon class="st5" points="81.9,251.7 78.1,247.3 78.8,245.3 82.6,249.7 		"/>
		<path class="st2" d="M86.2,256.5c0,0,3.9,4.2,5,1.1c0.5-1.3,0.8-2.2,0.8-2.2l0.3,8.1L86.2,256.5z"/>
		<ellipse transform="matrix(0.342 -0.9397 0.9397 0.342 52.2926 169.8194)" class="st6" cx="147.4" cy="47.6" rx="10.5" ry="4.5"/>
		<ellipse transform="matrix(0.342 -0.9397 0.9397 0.342 52.2926 169.8194)" class="st2" cx="147.4" cy="47.6" rx="4.8" ry="2"/>
		<g>
			
				<ellipse transform="matrix(0.342 -0.9397 0.9397 0.342 -130.0948 218.69)" class="st6" cx="91.1" cy="202.2" rx="10.5" ry="4.5"/>
			<ellipse transform="matrix(0.342 -0.9397 0.9397 0.342 -130.0948 218.69)" class="st2" cx="91.1" cy="202.2" rx="4.8" ry="2"/>
		</g>
		<g>
			
				<ellipse transform="matrix(0.342 -0.9397 0.9397 0.342 -154.8047 225.3109)" class="st6" cx="83.5" cy="223.2" rx="10.5" ry="4.5"/>
			<ellipse transform="matrix(0.342 -0.9397 0.9397 0.342 -154.8047 225.3109)" class="st2" cx="83.5" cy="223.2" rx="4.8" ry="2"/>
		</g>
		
			<linearGradient id="SVGID_00000114066948432955781240000001559153275810826372_" gradientUnits="userSpaceOnUse" x1="-723.3577" y1="924.9077" x2="-710.2808" y2="924.9077" gradientTransform="matrix(-0.342 0.9397 0.9397 0.342 -912.7455 391.1527)">
			<stop  offset="0.3111" style="stop-color:#000000"/>
			<stop  offset="1" style="stop-color:#37475E"/>
		</linearGradient>
		<path style="fill:url(#SVGID_00000114066948432955781240000001559153275810826372_);" d="M175.3,31.3l7.4,2.3l0,0l52.6,16.3
			l-10.7-14.5l-57-16.9l6.9,10.1C174.5,28.5,175.5,30.2,175.3,31.3z"/>
	</g>
</g>
</svg>
