<?xml version="1.0" encoding="utf-8"?>
<!-- Generator: Adobe Illustrator 25.4.1, SVG Export Plug-In . SVG Version: 6.00 Build 0)  -->
<svg version="1.1" id="Capa_1" xmlns="http://www.w3.org/2000/svg" xmlns:xlink="http://www.w3.org/1999/xlink" x="0px" y="0px"
	 viewBox="0 0 310 310" style="enable-background:new 0 0 310 310;" xml:space="preserve">
<style type="text/css">
	.st0{opacity:0.2;fill:#110C0A;enable-background:new    ;}
	.st1{fill:#999999;}
	.st2{fill:#FFFFFF;}
	.st3{fill:url(#SVGID_1_);}
	.st4{fill:none;stroke:#A0349D;stroke-width:9;stroke-miterlimit:10;}
	.st5{fill:#C00C0A;}
	.st6{fill:#110C0A;}
	.st7{fill:url(#SVGID_00000022537704571493549900000003222847494059870130_);}
	.st8{fill:url(#SVGID_00000021087730588928786270000008276044395573527976_);}
	.st9{fill:url(#SVGID_00000085967793947894704750000012216364007392414112_);}
	.st10{fill:url(#SVGID_00000175314671131537294530000015443935915714937237_);}
	.st11{fill:url(#SVGID_00000115511398194196896220000004593323639157879441_);}
	.st12{fill:url(#SVGID_00000065053933736049395950000010327591918653698722_);}
	.st13{fill:url(#SVGID_00000103249105767208227590000008308449725281047988_);}
	.st14{fill:url(#SVGID_00000108303328534168468940000011343937572481924004_);}
	.st15{fill:url(#SVGID_00000062914922312475689630000004142707769399452565_);}
	.st16{fill:url(#SVGID_00000131326763502662837420000011585082857205600699_);}
	.st17{fill:url(#SVGID_00000110451533479918640730000007677527340716355261_);}
	.st18{fill:url(#SVGID_00000121265625751951006600000015014871917470294170_);}
	.st19{fill:url(#SVGID_00000105403761306781612090000000332262518373419940_);}
	.st20{fill:url(#SVGID_00000059272379350757438550000006202053698583740065_);}
	.st21{fill:url(#SVGID_00000027606434000327661010000015442156857783310264_);}
	.st22{fill:url(#SVGID_00000030479771550460295900000004534368945191060620_);}
	.st23{fill:url(#SVGID_00000155146344463052679230000015941825717317626038_);}
	.st24{fill:url(#SVGID_00000048480534266438691840000011275005363337600653_);}
	.st25{fill:url(#SVGID_00000035506031170644376370000000238828527472628921_);}
	.st26{fill:url(#SVGID_00000171681452051110190930000016049190747834512287_);}
	.st27{fill:url(#SVGID_00000176762196892925543490000018167860939240749715_);}
	.st28{fill:url(#SVGID_00000138536824786472500070000010019430331979936921_);}
	.st29{fill:url(#SVGID_00000036233757098273786470000000079008051960464039_);}
	.st30{fill:url(#SVGID_00000089570133452777609400000007908064003529309092_);}
	.st31{fill:url(#SVGID_00000128458613201430619660000006332290089829665471_);}
	.st32{fill:url(#SVGID_00000076566879561423323870000002995054592259766933_);}
	.st33{fill:url(#SVGID_00000163765003577375435210000008722088066142232710_);}
	.st34{fill:url(#SVGID_00000102508046842661347280000016010568274322577282_);}
	.st35{fill:url(#SVGID_00000000931858370774441110000016662310866762105001_);}
	.st36{fill:url(#SVGID_00000160884161233192041040000002825588898962688156_);}
	.st37{fill:url(#SVGID_00000000209895261920550150000011319834865384346292_);}
	.st38{fill:url(#SVGID_00000168808824379992929600000005519983786753513112_);}
	.st39{fill:url(#SVGID_00000150070941309729294370000000997732345683214772_);}
	.st40{fill:url(#SVGID_00000132804743668726846620000018375536428634029470_);}
	.st41{fill:url(#SVGID_00000013187050388171226090000013306341356538616239_);}
	.st42{fill:url(#SVGID_00000034799508031277897820000003271868478856351678_);}
	.st43{fill:url(#SVGID_00000053525851747967963860000002687532190130792852_);}
	.st44{fill:url(#SVGID_00000096023448353743667090000001470074138044675481_);}
	.st45{fill:url(#SVGID_00000070118802572400836640000003108795374788268478_);}
	.st46{fill:url(#SVGID_00000041279671125637796620000015584394655871009702_);}
	.st47{fill:url(#SVGID_00000004532672193215076340000008924853310652908471_);}
	.st48{fill:url(#SVGID_00000085251656376138432930000012735976499272972433_);}
	.st49{fill:url(#SVGID_00000060746913694178389080000006700530274071047606_);}
	.st50{fill:url(#SVGID_00000019646536039067436490000011377439269335974299_);}
	.st51{fill:url(#SVGID_00000183953378354931784130000015143015557056152725_);}
	.st52{fill:url(#SVGID_00000111174596189279129370000002848679974673619087_);}
	.st53{fill:url(#SVGID_00000083800205562278047790000006405066693384085392_);}
	.st54{fill:url(#SVGID_00000090286116835961018710000017394014755742538380_);}
	.st55{fill:url(#SVGID_00000094596164472709749200000010154663092344295343_);}
	.st56{fill:url(#SVGID_00000116951421512150278320000005199228815634632079_);}
	.st57{fill:url(#SVGID_00000060014994788084940510000017171597918591511456_);}
	.st58{fill:url(#SVGID_00000042010828298444529580000016503614177478793658_);}
	.st59{fill:url(#SVGID_00000005964148474999899440000008172598887708062625_);}
	.st60{fill:url(#SVGID_00000014592047807698355270000005388979744137109380_);}
	.st61{fill:url(#SVGID_00000127014710700644138040000014198883708583643060_);}
	.st62{fill:url(#SVGID_00000178185117049365090790000006226315767937679491_);}
	.st63{fill:url(#SVGID_00000121958610755961755690000001299131416426087317_);}
	.st64{fill:url(#SVGID_00000083054906394955400010000018125733699579607716_);}
	.st65{fill:url(#SVGID_00000178187490101943557310000014055104680004139174_);}
	.st66{fill:url(#SVGID_00000176018292167512164090000014389191344608610458_);}
	.st67{fill:url(#SVGID_00000016066673400938252750000004280975314723043462_);}
	.st68{fill:url(#SVGID_00000168813834483293576910000017501306554193050760_);}
	.st69{fill:url(#SVGID_00000143577248808174888360000011225275254877021572_);}
	.st70{fill:url(#SVGID_00000020379434380600937730000011281584651049348786_);}
	.st71{fill:url(#SVGID_00000067208664541883375990000017234741543278191800_);}
	.st72{fill:url(#SVGID_00000071533979865978696440000004116254448040980132_);}
	.st73{fill:url(#SVGID_00000054229170166460735710000013989632748908929674_);}
	.st74{fill:url(#SVGID_00000049943413607574293170000007306717213555166848_);}
	.st75{fill:url(#SVGID_00000047056956107421160870000008574828524911502769_);}
	.st76{fill:url(#SVGID_00000007420870252182416900000017129706787095847848_);}
	.st77{fill:url(#SVGID_00000026884792285706035960000008317583207551824049_);}
</style>
<g>
	<path class="st0" d="M133.6,271.3l-0.3,0.5c-1.8,3.4-5.9,4.8-9.4,3.3l-56.3-24.9L148,26.1l7.6-8.9l0,0l5.6-0.8l0,0l6.5-1
		c0,0-57.2,168.8-61.2,173.1L133.6,271.3z"/>
	<g>
		<polygon class="st1" points="163.2,15.8 184.1,12.5 96.8,244.7 75.2,249 155.6,24.7 		"/>
		
			<rect x="95.8" y="240.5" transform="matrix(0.342 -0.9397 0.9397 0.342 -162.5927 250.3653)" class="st2" width="3.4" height="1.6"/>
		<path class="st2" d="M157.1,267.9l-20.8,5.2c-2.5,0.6-5,0.4-7.3-0.6l-54-23.4l22.9-7L157.1,267.9z"/>
		
			<linearGradient id="SVGID_1_" gradientUnits="userSpaceOnUse" x1="-2442.8296" y1="2730.2205" x2="-2442.8296" y2="2741.7715" gradientTransform="matrix(0.342 -0.9397 0.9397 0.342 -1607.7959 -3099.7207)">
			<stop  offset="0.3111" style="stop-color:#000000"/>
			<stop  offset="1" style="stop-color:#37475E"/>
		</linearGradient>
		<path class="st3" d="M179.5,17.2l-81,222.6c-0.8,2.2-2.7,3.8-5,4.3l-13.3,3.4c0.4-1.7,12.6-19.9,12.6-19.9l74.3-204.1L179.5,17.2z
			"/>
		<path class="st2" d="M240.7,38l-83.7,229.8l-59.6-25.4l82.5-226.6c1-2.8,4.1-4.3,6.9-3.2l50.6,18.4
			C240.3,32.1,241.8,35.2,240.7,38z"/>
		<polygon class="st5" points="168.8,14.8 163.2,15.8 162.5,17.7 168.1,16.8 		"/>
		<path class="st2" d="M175.3,13.9c0,0,5.7-0.7,4.6,2.4c-0.5,1.3-0.8,2.2-0.8,2.2l5.4-6L175.3,13.9z"/>
		
			<ellipse transform="matrix(0.342 -0.9397 0.9397 0.342 -142.6296 222.9264)" class="st6" cx="87.9" cy="213.3" rx="10.5" ry="4.5"/>
		<ellipse transform="matrix(0.342 -0.9397 0.9397 0.342 -142.6296 222.9265)" class="st2" cx="87.9" cy="213.3" rx="4.8" ry="2"/>
		<g>
			
				<ellipse transform="matrix(0.342 -0.9397 0.9397 0.342 39.7578 174.0559)" class="st6" cx="144.2" cy="58.6" rx="10.5" ry="4.5"/>
			<ellipse transform="matrix(0.342 -0.9397 0.9397 0.342 39.7578 174.0559)" class="st2" cx="144.2" cy="58.6" rx="4.8" ry="2"/>
		</g>
		<g>
			
				<ellipse transform="matrix(0.342 -0.9397 0.9397 0.342 64.4677 167.4349)" class="st6" cx="151.8" cy="37.7" rx="10.5" ry="4.5"/>
			<ellipse transform="matrix(0.342 -0.9397 0.9397 0.342 64.4677 167.4349)" class="st2" cx="151.8" cy="37.7" rx="4.8" ry="2"/>
		</g>
		
			<linearGradient id="SVGID_00000016755357674488587990000001081995316071680152_" gradientUnits="userSpaceOnUse" x1="-2571.1794" y1="2772.7295" x2="-2558.1025" y2="2772.7295" gradientTransform="matrix(0.342 -0.9397 0.9397 0.342 -1607.7959 -3099.7207)">
			<stop  offset="0.3111" style="stop-color:#000000"/>
			<stop  offset="1" style="stop-color:#37475E"/>
		</linearGradient>
		<path style="fill:url(#SVGID_00000016755357674488587990000001081995316071680152_);" d="M98.8,243.7l7.1,3l0,0l50.8,21.3
			l-17.5,4.3l-54.6-23.7l11.7-3.3C96.3,245.3,98.3,244.7,98.8,243.7z"/>
	</g>
</g>
</svg>
