<?xml version="1.0" encoding="utf-8"?>
<!-- Generator: Adobe Illustrator 25.4.1, SVG Export Plug-In . SVG Version: 6.00 Build 0)  -->
<svg version="1.1" id="Capa_1" xmlns="http://www.w3.org/2000/svg" xmlns:xlink="http://www.w3.org/1999/xlink" x="0px" y="0px"
	 viewBox="0 0 310 310" style="enable-background:new 0 0 310 310;" xml:space="preserve">
<style type="text/css">
	.st0{opacity:0.2;fill:#110C0A;enable-background:new    ;}
	.st1{fill:#999999;}
	.st2{fill:#FFFFFF;}
	.st3{fill:url(#SVGID_1_);}
	.st4{fill:none;stroke:#A0349D;stroke-width:9;stroke-miterlimit:10;}
	.st5{fill:#C00C0A;}
	.st6{fill:#110C0A;}
	.st7{fill:url(#SVGID_00000009588253166443848650000010512575022649538464_);}
	.st8{fill:url(#SVGID_00000025433845472887745060000005915786590513943978_);}
	.st9{fill:url(#SVGID_00000039839458288931603260000011995827341468175749_);}
	.st10{fill:url(#SVGID_00000163034361773570680240000013362204042640497578_);}
	.st11{fill:url(#SVGID_00000065774715809896566440000011800297192622932363_);}
	.st12{fill:url(#SVGID_00000034065801909329080360000011764737899882036865_);}
	.st13{fill:url(#SVGID_00000065793746199079886970000012579957761115416967_);}
	.st14{fill:url(#SVGID_00000060752930048231756620000012971815140157311390_);}
	.st15{fill:url(#SVGID_00000029750204784042047170000002970168631037217957_);}
	.st16{fill:url(#SVGID_00000036247697356477645140000004548757925180817841_);}
	.st17{fill:url(#SVGID_00000160896462955752728570000008920969463523166390_);}
	.st18{fill:url(#SVGID_00000173863510435118584860000007778371930186227349_);}
	.st19{fill:url(#SVGID_00000066506851142794144470000013397158342700200845_);}
	.st20{fill:url(#SVGID_00000128460492648177094990000017323788350045590923_);}
	.st21{fill:url(#SVGID_00000091719569358342663660000016454148987442346934_);}
	.st22{fill:url(#SVGID_00000025438525826336922900000000575618411457963438_);}
	.st23{fill:url(#SVGID_00000121247522121682314870000013869320483349375123_);}
	.st24{fill:url(#SVGID_00000144308553225497624400000003713750604131668385_);}
	.st25{fill:url(#SVGID_00000172403971839951218380000007131898046359597246_);}
	.st26{fill:url(#SVGID_00000165203566898285377850000016530856855200159637_);}
	.st27{fill:url(#SVGID_00000076575341496077069300000000252064115759713696_);}
	.st28{fill:url(#SVGID_00000009569476791756371310000014028164817079613574_);}
	.st29{fill:url(#SVGID_00000065067501095131740580000000418381452993381513_);}
	.st30{fill:url(#SVGID_00000111874933468770384990000000496361441880253631_);}
	.st31{fill:url(#SVGID_00000019673786717078365480000014431516496474195106_);}
	.st32{fill:url(#SVGID_00000171712663829615389050000017167008641763013001_);}
	.st33{fill:url(#SVGID_00000062913398332334758310000005761563954891614093_);}
	.st34{fill:url(#SVGID_00000088853188470764599710000010700206943166565311_);}
	.st35{fill:url(#SVGID_00000170988408148108018480000005968037838816466317_);}
	.st36{fill:url(#SVGID_00000154420094965599498180000000228955280307162242_);}
	.st37{fill:url(#SVGID_00000000924419546265231730000002770816895159062418_);}
	.st38{fill:url(#SVGID_00000031197421847514619940000014270842360762464417_);}
	.st39{fill:url(#SVGID_00000067210553214090421360000001249136621656112264_);}
	.st40{fill:url(#SVGID_00000147185804780443966340000006628754847357585586_);}
	.st41{fill:url(#SVGID_00000172405930123360591130000012715472232472435605_);}
	.st42{fill:url(#SVGID_00000069373740741831492450000011922018381499433652_);}
	.st43{fill:url(#SVGID_00000049921294200792632700000014655279951274006433_);}
	.st44{fill:url(#SVGID_00000079457695014278232250000004316736721531518097_);}
	.st45{fill:url(#SVGID_00000125590056193656634130000009507538954727981477_);}
	.st46{fill:url(#SVGID_00000107551739101096249160000004609947713632174976_);}
	.st47{fill:url(#SVGID_00000041999307786026274880000012245614279058107545_);}
	.st48{fill:url(#SVGID_00000024685249906384645650000005828431194719973562_);}
	.st49{fill:url(#SVGID_00000076575619220468865730000000253970342773113522_);}
	.st50{fill:url(#SVGID_00000182526293060074145560000012309144054154624695_);}
	.st51{fill:url(#SVGID_00000042711845874277621660000011658022227462572979_);}
	.st52{fill:url(#SVGID_00000162322956715591764580000015542606855240991167_);}
	.st53{fill:url(#SVGID_00000065764973574263599830000004548841171852868502_);}
	.st54{fill:url(#SVGID_00000110466248347514470600000004532370139616464296_);}
	.st55{fill:url(#SVGID_00000026842606362592605000000015424877192232623510_);}
	.st56{fill:url(#SVGID_00000171711876880571262900000000344133691606771116_);}
	.st57{fill:url(#SVGID_00000023993022293756692000000002296393699568529837_);}
	.st58{fill:url(#SVGID_00000012463683627067261940000005623478431129762220_);}
	.st59{fill:url(#SVGID_00000119802107879319922090000002271966491373801899_);}
	.st60{fill:url(#SVGID_00000045605998363495212920000016583806783685939615_);}
	.st61{fill:url(#SVGID_00000039120570152117787470000014593655246426534322_);}
	.st62{fill:url(#SVGID_00000141456887674074724000000012222554474154761869_);}
	.st63{fill:url(#SVGID_00000105423966969114757850000002360337616442662806_);}
	.st64{fill:url(#SVGID_00000163778187184398348460000010052214418808864689_);}
	.st65{fill:url(#SVGID_00000013890952358487437260000004890866124075555481_);}
	.st66{fill:url(#SVGID_00000013875463200738602300000008501269690610232466_);}
	.st67{fill:url(#SVGID_00000130613137125091151890000001163596762673794709_);}
	.st68{fill:url(#SVGID_00000139971989974019840750000006985102289653307026_);}
	.st69{fill:url(#SVGID_00000034082566328491653340000007456778334863350671_);}
	.st70{fill:url(#SVGID_00000039823911008846703970000007341680673148031891_);}
	.st71{fill:url(#SVGID_00000160875103971406602070000009846588019647361410_);}
	.st72{fill:url(#SVGID_00000121262848438315999940000008662086484694624423_);}
	.st73{fill:url(#SVGID_00000037677763822093649340000018331874797443610250_);}
	.st74{fill:url(#SVGID_00000177457497906634673610000005347607921801236659_);}
	.st75{fill:url(#SVGID_00000078763540343134597360000007414021553273689235_);}
	.st76{fill:url(#SVGID_00000021110558218910678750000009955734377513044871_);}
	.st77{fill:url(#SVGID_00000015334077875417270880000007907390029574330246_);}
</style>
<g>
	<path class="st0" d="M111.8,265.8l-0.4,0.5c-2.3,3-6.6,3.7-9.8,1.6l-51.1-34.3L168.6,26.8l9.1-7.5l0,0l5.7,0.2l0,0l6.6,0.1
		c0,0-85.6,156.3-90.3,159.9L111.8,265.8z"/>
	<g>
		<polygon class="st1" points="185.3,19.2 206.4,19.7 80.2,233.1 58.2,233.7 176.3,26.7 		"/>
		<rect x="79.8" y="229.1" transform="matrix(0.5 -0.866 0.866 0.5 -158.4002 185.5158)" class="st2" width="3.4" height="1.6"/>
		<path class="st2" d="M135.5,266.5l-21.4,1.5c-2.5,0.2-5-0.5-7.1-1.9l-49.1-32.4l23.7-2.9L135.5,266.5z"/>
		
			<linearGradient id="SVGID_1_" gradientUnits="userSpaceOnUse" x1="-2818.8833" y1="3106.2744" x2="-2818.8833" y2="3117.8252" gradientTransform="matrix(0.5 -0.866 0.866 0.5 -1155.3961 -3870.1304)">
			<stop  offset="0.3111" style="stop-color:#000000"/>
			<stop  offset="1" style="stop-color:#37475E"/>
		</linearGradient>
		<path class="st3" d="M201.1,23.5L82.7,228.7c-1.2,2-3.3,3.3-5.6,3.3l-13.6,1c0.7-1.6,15.8-17.4,15.8-17.4L187.8,27.5L201.1,23.5z"
			/>
		<path class="st2" d="M257.8,54.6L135.5,266.5l-54.3-35.4L201.8,22.3c1.5-2.6,4.8-3.5,7.4-2l46.7,26.9
			C258.5,48.8,259.3,52,257.8,54.6z"/>
		<polygon class="st5" points="191.1,19.3 185.3,19.2 184.3,21.1 190,21.1 		"/>
		<path class="st2" d="M197.5,19.5c0,0,5.7,0.3,4.1,3.2c-0.7,1.2-1.1,2-1.1,2l6.3-5L197.5,19.5z"/>
		<ellipse transform="matrix(0.5 -0.866 0.866 0.5 -135.4002 166.9158)" class="st6" cx="76.9" cy="200.7" rx="10.5" ry="4.5"/>
		<ellipse transform="matrix(0.5 -0.866 0.866 0.5 -135.4002 166.9158)" class="st2" cx="76.9" cy="200.7" rx="4.8" ry="2"/>
		<g>
			<ellipse transform="matrix(0.5 -0.866 0.866 0.5 29.1998 166.9158)" class="st6" cx="159.2" cy="58.2" rx="10.5" ry="4.5"/>
			<ellipse transform="matrix(0.5 -0.866 0.866 0.5 29.1998 166.9158)" class="st2" cx="159.2" cy="58.2" rx="4.8" ry="2"/>
		</g>
		<g>
			<ellipse transform="matrix(0.5 -0.866 0.866 0.5 51.4998 166.9158)" class="st6" cx="170.3" cy="38.9" rx="10.5" ry="4.5"/>
			<ellipse transform="matrix(0.5 -0.866 0.866 0.5 51.4998 166.9158)" class="st2" cx="170.3" cy="38.9" rx="4.8" ry="2"/>
		</g>
		
			<linearGradient id="SVGID_00000083075469150892027560000012309042105820802192_" gradientUnits="userSpaceOnUse" x1="-2947.2334" y1="3148.7834" x2="-2934.1565" y2="3148.7834" gradientTransform="matrix(0.5 -0.866 0.866 0.5 -1155.3961 -3870.1304)">
			<stop  offset="0.3111" style="stop-color:#000000"/>
			<stop  offset="1" style="stop-color:#37475E"/>
		</linearGradient>
		<path style="fill:url(#SVGID_00000083075469150892027560000012309042105820802192_);" d="M82.4,232.5l6.5,4.2l0,0l46.3,29.8
			l-18,1.2l-49.6-32.8l12.1-1.2C79.6,233.7,81.7,233.4,82.4,232.5z"/>
	</g>
</g>
</svg>
