<?xml version="1.0" encoding="utf-8"?>
<!-- Generator: Adobe Illustrator 25.4.1, SVG Export Plug-In . SVG Version: 6.00 Build 0)  -->
<svg version="1.1" id="Capa_1" xmlns="http://www.w3.org/2000/svg" xmlns:xlink="http://www.w3.org/1999/xlink" x="0px" y="0px"
	 viewBox="0 0 310 310" style="enable-background:new 0 0 310 310;" xml:space="preserve">
<style type="text/css">
	.st0{opacity:0.2;fill:#110C0A;enable-background:new    ;}
	.st1{fill:#999999;}
	.st2{fill:#FFFFFF;}
	.st3{fill:url(#SVGID_1_);}
	.st4{fill:none;stroke:#A0349D;stroke-width:9;stroke-miterlimit:10;}
	.st5{fill:#C00C0A;}
	.st6{fill:#110C0A;}
	.st7{fill:url(#SVGID_00000126292121005283195610000006399786513290942122_);}
	.st8{fill:url(#SVGID_00000114053962060401969730000013917075807135025318_);}
	.st9{fill:url(#SVGID_00000101808026862542497210000007974470251917111707_);}
	.st10{fill:url(#SVGID_00000044138297790707641580000013795236108266470055_);}
	.st11{fill:url(#SVGID_00000062896702038376637040000003061176669689957015_);}
	.st12{fill:url(#SVGID_00000111192577552613762680000016264528182159998138_);}
	.st13{fill:url(#SVGID_00000178167214087759870210000002334494056731643554_);}
	.st14{fill:url(#SVGID_00000022523250910268615930000011911354516937619365_);}
	.st15{fill:url(#SVGID_00000157283258932122355350000010153323098845330562_);}
	.st16{fill:url(#SVGID_00000103266251630748675180000012910584845524397487_);}
	.st17{fill:url(#SVGID_00000118392327609954327600000001371836931577531536_);}
	.st18{fill:url(#SVGID_00000052079941860174020680000013238357231002567056_);}
	.st19{fill:url(#SVGID_00000054963110439266316230000014993338316276679593_);}
	.st20{fill:url(#SVGID_00000021117902315457950390000017443582642079989396_);}
	.st21{fill:url(#SVGID_00000061457282059816833980000014474828931367502768_);}
	.st22{fill:url(#SVGID_00000026132459551709860830000008682825250032031656_);}
	.st23{fill:url(#SVGID_00000033341459705138209260000010658664544721032833_);}
	.st24{fill:url(#SVGID_00000150086155352456506590000000713180804238880132_);}
	.st25{fill:url(#SVGID_00000096753989985734925910000003149980368673870782_);}
	.st26{fill:url(#SVGID_00000010293817505219888280000016533421070288620709_);}
	.st27{fill:url(#SVGID_00000177473595078622111350000008763324308061025722_);}
	.st28{fill:url(#SVGID_00000166670598005350716400000012858330741483996847_);}
	.st29{fill:url(#SVGID_00000163783672915949962360000015683200187812067765_);}
	.st30{fill:url(#SVGID_00000114774770504059230840000012976504238600206266_);}
	.st31{fill:url(#SVGID_00000079482681030480335930000003427172375396948619_);}
	.st32{fill:url(#SVGID_00000003063787486996311950000017614959319835846069_);}
	.st33{fill:url(#SVGID_00000008867868364027337000000000924703746869160622_);}
	.st34{fill:url(#SVGID_00000102544289063657309280000002058533891588189863_);}
	.st35{fill:url(#SVGID_00000142174557792526656930000014367039775224666008_);}
	.st36{fill:url(#SVGID_00000179633656321463890110000008831494160616892824_);}
	.st37{fill:url(#SVGID_00000121255993547588813150000010654588972701674392_);}
	.st38{fill:url(#SVGID_00000088122625903325890300000010031975023363130291_);}
	.st39{fill:url(#SVGID_00000091009984901394077600000017275094934727183778_);}
	.st40{fill:url(#SVGID_00000054268284428256363840000007426249144315648945_);}
	.st41{fill:url(#SVGID_00000139295303442691667250000004931212228605068195_);}
	.st42{fill:url(#SVGID_00000008121683798793943520000016170374752889452715_);}
	.st43{fill:url(#SVGID_00000060743731683040871220000002322360117153285266_);}
	.st44{fill:url(#SVGID_00000062894855959843851850000015716287532566783675_);}
	.st45{fill:url(#SVGID_00000106119482748488826640000004901155450854879166_);}
	.st46{fill:url(#SVGID_00000165223288943300216710000002274812671193707164_);}
	.st47{fill:url(#SVGID_00000047757498454944900320000010682856626325599876_);}
	.st48{fill:url(#SVGID_00000028302144079400009280000006958824328883016876_);}
	.st49{fill:url(#SVGID_00000112592090141319329090000015987872800025389221_);}
	.st50{fill:url(#SVGID_00000173883626884505154340000002655948928290918277_);}
	.st51{fill:url(#SVGID_00000119825218179839953620000017685484095007485348_);}
	.st52{fill:url(#SVGID_00000052782232354028691780000007926189080222735801_);}
	.st53{fill:url(#SVGID_00000119086690398863428940000018284948145261352354_);}
	.st54{fill:url(#SVGID_00000096050449702981704440000007972414115163020688_);}
	.st55{fill:url(#SVGID_00000005987868077715218600000007706253394314187438_);}
	.st56{fill:url(#SVGID_00000115510709520242603510000009212631076681756070_);}
	.st57{fill:url(#SVGID_00000181047542714854968030000014152578414322922660_);}
	.st58{fill:url(#SVGID_00000049186439911843066470000001340242190500694705_);}
	.st59{fill:url(#SVGID_00000085221962308683712470000011650924651174950066_);}
	.st60{fill:url(#SVGID_00000050641203883924328570000004288446013451693204_);}
	.st61{fill:url(#SVGID_00000114765745251683586270000000491544536028299708_);}
	.st62{fill:url(#SVGID_00000053531342542591085700000013494097218767094173_);}
	.st63{fill:url(#SVGID_00000163785589494235595500000009818411982294281647_);}
	.st64{fill:url(#SVGID_00000158747065864536841690000005323423846171995573_);}
	.st65{fill:url(#SVGID_00000162350022428496669720000005717449477139570308_);}
	.st66{fill:url(#SVGID_00000092420450306598799090000008470123466726789791_);}
	.st67{fill:url(#SVGID_00000100356103088826570150000006940091352120827544_);}
	.st68{fill:url(#SVGID_00000031181617078573942900000012984209610190677139_);}
	.st69{fill:url(#SVGID_00000155829093033144211600000008901309842538151603_);}
	.st70{fill:url(#SVGID_00000098184608842267931090000004661549934415395221_);}
	.st71{fill:url(#SVGID_00000167363610541186754560000003431675714434470541_);}
	.st72{fill:url(#SVGID_00000065065859814451913050000016141056124470158508_);}
	.st73{fill:url(#SVGID_00000093861535512192716890000005748495572783596964_);}
	.st74{fill:url(#SVGID_00000119089204447637049990000013460517752107515265_);}
	.st75{fill:url(#SVGID_00000128483327318027328870000001100109427570564540_);}
	.st76{fill:url(#SVGID_00000182524866098149539160000008197485486901774259_);}
	.st77{fill:url(#SVGID_00000047029392627273668960000003702625829357486750_);}
</style>
<g>
	<path class="st0" d="M91.3,256.5l-0.5,0.4c-2.8,2.6-7.2,2.5-9.9-0.1l-44.4-42.6L188.8,31l10.2-5.8l0,0l5.6,1.1l0,0l6.5,1.3
		c0,0-111.5,139.1-116.7,141.7L91.3,256.5z"/>
	<g>
		<polygon class="st1" points="206.5,26.5 227.3,30.6 65.9,218.9 44.1,215.6 196.3,32.3 		"/>
		
			<rect x="66" y="215.1" transform="matrix(0.6428 -0.766 0.766 0.6428 -141.2504 128.9827)" class="st2" width="3.4" height="1.6"/>
		<path class="st2" d="M114.6,261.3l-21.3-2.2c-2.5-0.3-4.9-1.3-6.7-3.1l-42.7-40.4l23.9,1.2L114.6,261.3z"/>
		
			<linearGradient id="SVGID_1_" gradientUnits="userSpaceOnUse" x1="-3194.9373" y1="3482.3281" x2="-3194.9373" y2="3493.8792" gradientTransform="matrix(0.6428 -0.766 0.766 0.6428 -484.7719 -4566.4048)">
			<stop  offset="0.3111" style="stop-color:#000000"/>
			<stop  offset="1" style="stop-color:#37475E"/>
		</linearGradient>
		<path class="st3" d="M221.4,33.4L69.1,214.9c-1.5,1.8-3.8,2.7-6.1,2.3l-13.6-1.4c0.9-1.4,18.6-14.4,18.6-14.4L207.6,35.1
			L221.4,33.4z"/>
		<path class="st2" d="M271.8,73.9L114.6,261.3L67.3,217l155-184.7c1.9-2.3,5.3-2.6,7.6-0.7l41.3,34.6
			C273.4,68.3,273.7,71.6,271.8,73.9z"/>
		<polygon class="st5" points="212.2,27.6 206.5,26.5 205.2,28.1 210.8,29.2 		"/>
		<path class="st2" d="M218.5,28.8c0,0,5.6,1.3,3.5,3.8c-0.9,1.1-1.5,1.8-1.5,1.8l7.1-3.8L218.5,28.8z"/>
		
			<ellipse transform="matrix(0.6428 -0.766 0.766 0.6428 -118.4034 118.8286)" class="st6" cx="68.2" cy="186.4" rx="10.5" ry="4.5"/>
		<ellipse transform="matrix(0.6428 -0.766 0.766 0.6428 -118.4034 118.8286)" class="st2" cx="68.2" cy="186.4" rx="4.8" ry="2"/>
		<g>
			<ellipse transform="matrix(0.6428 -0.766 0.766 0.6428 15.982 154.837)" class="st6" cx="174" cy="60.3" rx="10.5" ry="4.5"/>
			<ellipse transform="matrix(0.6428 -0.766 0.766 0.6428 15.982 154.837)" class="st2" cx="174" cy="60.3" rx="4.8" ry="2"/>
		</g>
		<g>
			
				<ellipse transform="matrix(0.6428 -0.766 0.766 0.6428 34.1885 159.7154)" class="st6" cx="188.3" cy="43.2" rx="10.5" ry="4.5"/>
			<ellipse transform="matrix(0.6428 -0.766 0.766 0.6428 34.1885 159.7154)" class="st2" cx="188.3" cy="43.2" rx="4.8" ry="2"/>
		</g>
		
			<linearGradient id="SVGID_00000183932880851222091100000012779615013802931599_" gradientUnits="userSpaceOnUse" x1="-3323.2871" y1="3524.8372" x2="-3310.2102" y2="3524.8372" gradientTransform="matrix(0.6428 -0.766 0.766 0.6428 -484.7719 -4566.4048)">
			<stop  offset="0.3111" style="stop-color:#000000"/>
			<stop  offset="1" style="stop-color:#37475E"/>
		</linearGradient>
		<path style="fill:url(#SVGID_00000183932880851222091100000012779615013802931599_);" d="M68.1,218.7l5.6,5.3l0,0l40.4,37.4
			l-17.9-2l-43.2-40.9l12.1,0.9C65.2,219.4,67.3,219.4,68.1,218.7z"/>
	</g>
</g>
</svg>
