<?xml version="1.0" encoding="utf-8"?>
<!-- Generator: Adobe Illustrator 25.4.1, SVG Export Plug-In . SVG Version: 6.00 Build 0)  -->
<svg version="1.1" id="Capa_1" xmlns="http://www.w3.org/2000/svg" xmlns:xlink="http://www.w3.org/1999/xlink" x="0px" y="0px"
	 viewBox="0 0 310 310" style="enable-background:new 0 0 310 310;" xml:space="preserve">
<style type="text/css">
	.st0{opacity:0.2;fill:#110C0A;enable-background:new    ;}
	.st1{fill:#999999;}
	.st2{fill:#FFFFFF;}
	.st3{fill:url(#SVGID_1_);}
	.st4{fill:none;stroke:#A0349D;stroke-width:9;stroke-miterlimit:10;}
	.st5{fill:#C00C0A;}
	.st6{fill:#110C0A;}
	.st7{fill:url(#SVGID_00000105416951178459675410000005764147377971175862_);}
	.st8{fill:url(#SVGID_00000080187146075243284700000009383571878513145754_);}
	.st9{fill:url(#SVGID_00000095339735538404494310000011848149877022496952_);}
	.st10{fill:url(#SVGID_00000126319224195221332990000000241732386726934953_);}
	.st11{fill:url(#SVGID_00000167394124458268098420000001911981363098700183_);}
	.st12{fill:url(#SVGID_00000129193940484183228870000010715466888281233046_);}
	.st13{fill:url(#SVGID_00000108992955096996329840000002851967479381225124_);}
	.st14{fill:url(#SVGID_00000122698026496751782630000012511799730116929450_);}
	.st15{fill:url(#SVGID_00000049901064055735810300000013055996112973825166_);}
	.st16{fill:url(#SVGID_00000072960077582375627940000017094024756034223490_);}
	.st17{fill:url(#SVGID_00000183941419913659204530000007725134213744187839_);}
	.st18{fill:url(#SVGID_00000006707784680713037430000000534075447317099710_);}
	.st19{fill:url(#SVGID_00000106828139744691870720000003015529853305962940_);}
	.st20{fill:url(#SVGID_00000011723814141821013950000003340493125514030239_);}
	.st21{fill:url(#SVGID_00000088827144021814433790000003645546894261494437_);}
	.st22{fill:url(#SVGID_00000026849870589429012370000001265046897532997775_);}
	.st23{fill:url(#SVGID_00000067199323490092325060000011858165163208861069_);}
	.st24{fill:url(#SVGID_00000000917538996919263430000016652641614956986517_);}
	.st25{fill:url(#SVGID_00000105385970681611753060000001651160360945959606_);}
	.st26{fill:url(#SVGID_00000160156179722406857740000009972712468734129294_);}
	.st27{fill:url(#SVGID_00000119092707933012005960000003856978770253763498_);}
	.st28{fill:url(#SVGID_00000111188033135451389270000012979253841773869697_);}
	.st29{fill:url(#SVGID_00000032645318680666176840000005769473473111773572_);}
	.st30{fill:url(#SVGID_00000162353108407277559670000004119563867659722903_);}
	.st31{fill:url(#SVGID_00000052811147966133426570000013309245266898515594_);}
	.st32{fill:url(#SVGID_00000040540923414100701990000010369191018070943901_);}
	.st33{fill:url(#SVGID_00000126290149684122775210000009492196449724865464_);}
	.st34{fill:url(#SVGID_00000124861632160049082000000008043082962676769174_);}
	.st35{fill:url(#SVGID_00000012463655836560047690000001151646350485954746_);}
	.st36{fill:url(#SVGID_00000178193227236737412530000016827972469694066087_);}
	.st37{fill:url(#SVGID_00000091000463795214901730000002653077081460715909_);}
	.st38{fill:url(#SVGID_00000001637006426172919170000014826589866161156026_);}
	.st39{fill:url(#SVGID_00000164480492243501525360000006824548513841566129_);}
	.st40{fill:url(#SVGID_00000153703533120958142860000015501829332865304746_);}
	.st41{fill:url(#SVGID_00000152969461661993108930000002940637071200198282_);}
	.st42{fill:url(#SVGID_00000088119968243027919490000010143719375151821980_);}
	.st43{fill:url(#SVGID_00000047017712722555374300000001682414614766727871_);}
	.st44{fill:url(#SVGID_00000173878650859302624320000005181603386234548631_);}
	.st45{fill:url(#SVGID_00000013898085291873920070000002052784401443999139_);}
	.st46{fill:url(#SVGID_00000013891122878866539360000005327526784692311463_);}
	.st47{fill:url(#SVGID_00000117663647981531696760000008974391706862980756_);}
	.st48{fill:url(#SVGID_00000146461548827512873190000013474629076307933589_);}
	.st49{fill:url(#SVGID_00000062881194758373266710000007605906314141646474_);}
	.st50{fill:url(#SVGID_00000170250248383231849270000013849838385839868545_);}
	.st51{fill:url(#SVGID_00000005961471621838057680000000554648086200207266_);}
	.st52{fill:url(#SVGID_00000013903393999238308370000014792923625059923356_);}
	.st53{fill:url(#SVGID_00000178206999279891940910000013705026566532409791_);}
	.st54{fill:url(#SVGID_00000035527861727815045530000016073871271453283993_);}
	.st55{fill:url(#SVGID_00000129170221208617444170000012750112717568552867_);}
	.st56{fill:url(#SVGID_00000158003030860012638230000009792482136537918859_);}
	.st57{fill:url(#SVGID_00000112604052783429256020000010815940396691952028_);}
	.st58{fill:url(#SVGID_00000168811784540702479940000001000009210582689972_);}
	.st59{fill:url(#SVGID_00000029734712936078516870000006659890941026953657_);}
	.st60{fill:url(#SVGID_00000163074104833450998940000014451042790873895326_);}
	.st61{fill:url(#SVGID_00000145043639798231203850000014126834754263110029_);}
	.st62{fill:url(#SVGID_00000039856614857582824050000018174787861994340488_);}
	.st63{fill:url(#SVGID_00000070812264589006783190000013021356526548126618_);}
	.st64{fill:url(#SVGID_00000134966280683885399210000001101394036547854744_);}
	.st65{fill:url(#SVGID_00000036944285995225059390000003694491382447147951_);}
	.st66{fill:url(#SVGID_00000101090281158189110630000015658386817024878230_);}
	.st67{fill:url(#SVGID_00000174574205401217147710000008633341998635066529_);}
	.st68{fill:url(#SVGID_00000059305177671859540540000011739852574059204013_);}
	.st69{fill:url(#SVGID_00000138537207830753591240000000352383497245103037_);}
	.st70{fill:url(#SVGID_00000008871996686675734060000009809178315200170939_);}
	.st71{fill:url(#SVGID_00000147928927378245526410000008162310925395315849_);}
	.st72{fill:url(#SVGID_00000145029877537897052360000000521473431493505195_);}
	.st73{fill:url(#SVGID_00000113347559285656618110000001823643656934964877_);}
	.st74{fill:url(#SVGID_00000037675909832523579390000006997141372333832103_);}
	.st75{fill:url(#SVGID_00000155122855924935082430000001817467232100249788_);}
	.st76{fill:url(#SVGID_00000171000864946585524170000012827406660487292048_);}
	.st77{fill:url(#SVGID_00000036209225112906339670000014846959424604989321_);}
</style>
<g>
	<path class="st0" d="M72.6,243.8l-0.5,0.3c-3.2,2.1-7.5,1.2-9.8-1.8L26,192.6l181.8-154l11.1-3.9l0,0l5.3,2.1l0,0l6.2,2.4
		c0,0-133.9,117.6-139.6,119.3L72.6,243.8z"/>
	<g>
		<polygon class="st1" points="226.1,37.3 245.8,44.9 54.1,202.3 33.2,195.3 215,41.2 		"/>
		
			<rect x="54.7" y="198.9" transform="matrix(0.766 -0.6428 0.6428 0.766 -115.1796 82.9814)" class="st2" width="3.4" height="1.6"/>
		<path class="st2" d="M94.7,252.5l-20.6-5.9c-2.4-0.7-4.6-2.2-6-4.2L33,195.2l23.3,5.4L94.7,252.5z"/>
		
			<linearGradient id="SVGID_1_" gradientUnits="userSpaceOnUse" x1="-3570.991" y1="3858.3821" x2="-3570.991" y2="3869.9329" gradientTransform="matrix(0.766 -0.6428 0.6428 0.766 389.1471 -5135.7085)">
			<stop  offset="0.3111" style="stop-color:#000000"/>
			<stop  offset="1" style="stop-color:#37475E"/>
		</linearGradient>
		<path class="st3" d="M239.4,46.7L58,198.9c-1.8,1.5-4.2,2-6.4,1.2l-13.2-3.7c1.2-1.2,20.8-11,20.8-11L225.6,45.9L239.4,46.7z"/>
		<path class="st2" d="M282.1,95.3L94.7,252.5l-38.9-51.8l184.7-155c2.3-1.9,5.7-1.6,7.6,0.7l34.6,41.3
			C284.7,90,284.4,93.4,282.1,95.3z"/>
		<polygon class="st5" points="231.4,39.3 226.1,37.3 224.5,38.6 229.8,40.6 		"/>
		<path class="st2" d="M237.5,41.7c0,0,5.3,2.2,2.7,4.4c-1.1,0.9-1.8,1.5-1.8,1.5l7.7-2.5L237.5,41.7z"/>
		<ellipse transform="matrix(0.766 -0.6428 0.6428 0.766 -95.1929 79.8293)" class="st6" cx="62.1" cy="170.7" rx="10.5" ry="4.5"/>
		<ellipse transform="matrix(0.766 -0.6428 0.6428 0.766 -95.1929 79.8293)" class="st2" cx="62.1" cy="170.7" rx="4.8" ry="2"/>
		<g>
			<ellipse transform="matrix(0.766 -0.6428 0.6428 0.766 2.3155 136.1258)" class="st6" cx="188.2" cy="64.9" rx="10.5" ry="4.5"/>
			<ellipse transform="matrix(0.766 -0.6428 0.6428 0.766 2.3155 136.1258)" class="st2" cx="188.2" cy="64.9" rx="4.8" ry="2"/>
		</g>
		<g>
			
				<ellipse transform="matrix(0.766 -0.6428 0.6428 0.766 15.5259 143.7529)" class="st6" cx="205.2" cy="50.5" rx="10.5" ry="4.5"/>
			<ellipse transform="matrix(0.766 -0.6428 0.6428 0.766 15.5259 143.7529)" class="st2" cx="205.2" cy="50.5" rx="4.8" ry="2"/>
		</g>
		
			<linearGradient id="SVGID_00000152223417357458966830000008671696382596693639_" gradientUnits="userSpaceOnUse" x1="-3699.3411" y1="3900.8911" x2="-3686.2642" y2="3900.8911" gradientTransform="matrix(0.766 -0.6428 0.6428 0.766 389.1471 -5135.7085)">
			<stop  offset="0.3111" style="stop-color:#000000"/>
			<stop  offset="1" style="stop-color:#37475E"/>
		</linearGradient>
		<path style="fill:url(#SVGID_00000152223417357458966830000008671696382596693639_);" d="M56.4,202.5l4.6,6.2l0,0l33.3,43.9
			L77,247.4l-35.4-47.8l11.8,3C53.4,202.6,55.4,203,56.4,202.5z"/>
	</g>
</g>
</svg>
