<?xml version="1.0" encoding="utf-8"?>
<!-- Generator: Adobe Illustrator 25.4.1, SVG Export Plug-In . SVG Version: 6.00 Build 0)  -->
<svg version="1.1" id="Capa_1" xmlns="http://www.w3.org/2000/svg" xmlns:xlink="http://www.w3.org/1999/xlink" x="0px" y="0px"
	 viewBox="0 0 310 310" style="enable-background:new 0 0 310 310;" xml:space="preserve">
<style type="text/css">
	.st0{opacity:0.2;fill:#110C0A;enable-background:new    ;}
	.st1{fill:#999999;}
	.st2{fill:#FFFFFF;}
	.st3{fill:url(#SVGID_1_);}
	.st4{fill:none;stroke:#A0349D;stroke-width:9;stroke-miterlimit:10;}
	.st5{fill:#C00C0A;}
	.st6{fill:#110C0A;}
	.st7{fill:url(#SVGID_00000084510887055183231650000012518113156736617364_);}
	.st8{fill:url(#SVGID_00000095331258809453789780000016813666689666700195_);}
	.st9{fill:url(#SVGID_00000047024404821542674600000004688217422983601595_);}
	.st10{fill:url(#SVGID_00000003077967818967838820000017083401338141397432_);}
	.st11{fill:url(#SVGID_00000050644184391255679380000015597350960381316525_);}
	.st12{fill:url(#SVGID_00000003809000546990133270000000293953173946232484_);}
	.st13{fill:url(#SVGID_00000010288562500446212820000005806280092289789883_);}
	.st14{fill:url(#SVGID_00000183230498487637671930000009599468962092712100_);}
	.st15{fill:url(#SVGID_00000101104734114739163480000000234420386649891230_);}
	.st16{fill:url(#SVGID_00000181073080565592080470000008134272450206794659_);}
	.st17{fill:url(#SVGID_00000150060397735938340310000015042856916627965079_);}
	.st18{fill:url(#SVGID_00000107556687920597346190000007654675303294820746_);}
	.st19{fill:url(#SVGID_00000044872525600844438520000004724327405747626116_);}
	.st20{fill:url(#SVGID_00000093885343342213670440000008732263823737780875_);}
	.st21{fill:url(#SVGID_00000127745171777374330730000003366064287151991941_);}
	.st22{fill:url(#SVGID_00000078011003117622656180000001837034576659569825_);}
	.st23{fill:url(#SVGID_00000153702413167553174170000013890557672034151571_);}
	.st24{fill:url(#SVGID_00000085938018095446248190000008825290333891052178_);}
	.st25{fill:url(#SVGID_00000155130183754187862780000004889008751013240506_);}
	.st26{fill:url(#SVGID_00000072253021245050764650000015089243618484373153_);}
	.st27{fill:url(#SVGID_00000088102992899532903400000013153093606617770115_);}
	.st28{fill:url(#SVGID_00000125597438142366461310000017659219072764459451_);}
	.st29{fill:url(#SVGID_00000036236918990220200610000015190392166107715460_);}
	.st30{fill:url(#SVGID_00000085966080145373231420000003668184989391317655_);}
	.st31{fill:url(#SVGID_00000151522587033450821710000003927556218085393074_);}
	.st32{fill:url(#SVGID_00000138559947953507102460000016443310773089503652_);}
	.st33{fill:url(#SVGID_00000094579670011748511350000013082461044198371213_);}
	.st34{fill:url(#SVGID_00000150787108755436285860000001323058249995511704_);}
	.st35{fill:url(#SVGID_00000156573458877048728600000012740595862728142006_);}
	.st36{fill:url(#SVGID_00000143595743735683996410000015909621195646279310_);}
	.st37{fill:url(#SVGID_00000015319281070994022580000010023538240421401753_);}
	.st38{fill:url(#SVGID_00000142165438337809643580000010268112647638441860_);}
	.st39{fill:url(#SVGID_00000087392759739281666260000015384548263471276698_);}
	.st40{fill:url(#SVGID_00000083071349018329875370000007828295207517852811_);}
	.st41{fill:url(#SVGID_00000134223302964001369090000000951527699019227267_);}
	.st42{fill:url(#SVGID_00000145749992665425700880000005675231632035137426_);}
	.st43{fill:url(#SVGID_00000012444027239686789700000014756857590248901299_);}
	.st44{fill:url(#SVGID_00000116918547467357762000000012642980539356162209_);}
	.st45{fill:url(#SVGID_00000182519802432294866920000013645647284648496517_);}
	.st46{fill:url(#SVGID_00000033338579704240641450000009574717823027762320_);}
	.st47{fill:url(#SVGID_00000158744957817377658750000016958089464410218160_);}
	.st48{fill:url(#SVGID_00000016795648002176038310000014624493317864669364_);}
	.st49{fill:url(#SVGID_00000098936783790528733140000008999880601442838154_);}
	.st50{fill:url(#SVGID_00000029742070477603291180000012854004620786149256_);}
	.st51{fill:url(#SVGID_00000176750783059823531930000001255768012452316820_);}
	.st52{fill:url(#SVGID_00000068646956738023591090000009903828784885581489_);}
	.st53{fill:url(#SVGID_00000147932434172664462630000015199080551244550832_);}
	.st54{fill:url(#SVGID_00000110452926689346224700000013370455935369742760_);}
	.st55{fill:url(#SVGID_00000096050171128620258120000007221036748306037393_);}
	.st56{fill:url(#SVGID_00000088843399283847185450000004686068796029633161_);}
	.st57{fill:url(#SVGID_00000173125673993204411590000016095073792857581217_);}
	.st58{fill:url(#SVGID_00000122714757658364892210000002028970734074692772_);}
	.st59{fill:url(#SVGID_00000062186903656917550000000008522907783031456696_);}
	.st60{fill:url(#SVGID_00000136409726742429204180000001058720565174158735_);}
	.st61{fill:url(#SVGID_00000083089571015574204130000014449307547610424724_);}
	.st62{fill:url(#SVGID_00000122717911691948242390000009008692349570399117_);}
	.st63{fill:url(#SVGID_00000168108789112719046010000014078578152032773043_);}
	.st64{fill:url(#SVGID_00000008117789595906046350000010662931957850151849_);}
	.st65{fill:url(#SVGID_00000098920157327475478430000011412881319028732855_);}
	.st66{fill:url(#SVGID_00000051358273191402117240000009962775402343673789_);}
	.st67{fill:url(#SVGID_00000053525209576529682940000014601034199336866225_);}
	.st68{fill:url(#SVGID_00000034778287322796823490000014563650399098226857_);}
	.st69{fill:url(#SVGID_00000018918461256853604140000005071977283890742411_);}
	.st70{fill:url(#SVGID_00000016760397596894232170000009450283092273528471_);}
	.st71{fill:url(#SVGID_00000008135037646536001590000007333830795573393543_);}
	.st72{fill:url(#SVGID_00000170265841061399061000000016564097433438686642_);}
	.st73{fill:url(#SVGID_00000093866387574900805440000009058668188791576206_);}
	.st74{fill:url(#SVGID_00000162311166415676218850000000683346136533149615_);}
	.st75{fill:url(#SVGID_00000089536763627780228440000007551365947443370154_);}
	.st76{fill:url(#SVGID_00000106839914474080112120000016019146688235772854_);}
	.st77{fill:url(#SVGID_00000049185836273776348090000013761802514541597620_);}
</style>
<g>
	<path class="st0" d="M56.6,228l-0.6,0.2c-3.5,1.5-7.6-0.1-9.3-3.5l-27.1-55.2L225.3,49.4l11.6-1.9l0,0l4.8,3l0,0l5.7,3.4
		c0,0-152.3,92.6-158.2,93.3L56.6,228z"/>
	<g>
		<polygon class="st1" points="243.6,51.2 261.7,62.1 45.6,183.9 26.2,173.4 232,53.2 		"/>
		<rect x="46.6" y="180.9" transform="matrix(0.866 -0.5 0.5 0.866 -84.4075 48.4864)" class="st2" width="3.4" height="1.6"/>
		<path class="st2" d="M76.8,240.4L57.5,231c-2.3-1.1-4.1-2.9-5.2-5.2L26,173.2l22,9.3L76.8,240.4z"/>
		
			<linearGradient id="SVGID_1_" gradientUnits="userSpaceOnUse" x1="949.5923" y1="-662.2013" x2="949.5923" y2="-650.6504" gradientTransform="matrix(0.866 -0.5 0.5 0.866 -352.2012 1160.3925)">
			<stop  offset="0.3111" style="stop-color:#000000"/>
			<stop  offset="1" style="stop-color:#37475E"/>
		</linearGradient>
		<path class="st3" d="M255.1,62.8L49.9,181.2c-2,1.2-4.5,1.2-6.5,0.1l-12.3-5.9c1.4-1,22.4-7.2,22.4-7.2L241.6,59.6L255.1,62.8z"/>
		<path class="st2" d="M288.7,118.1L76.8,240.4l-29.3-57.8L256.3,62.1c2.6-1.5,5.9-0.6,7.4,2l27,46.7
			C292.1,113.3,291.3,116.6,288.7,118.1z"/>
		<polygon class="st5" points="248.5,54.1 243.6,51.2 241.8,52.3 246.7,55.2 		"/>
		<path class="st2" d="M254,57.5c0,0,4.8,3.1,1.9,4.8c-1.2,0.7-2,1.1-2,1.1l8-1.2L254,57.5z"/>
		<ellipse transform="matrix(0.866 -0.5 0.5 0.866 -69.1808 50.0969)" class="st6" cx="58.9" cy="154.1" rx="10.5" ry="4.5"/>
		<ellipse transform="matrix(0.866 -0.5 0.5 0.866 -69.1808 50.0969)" class="st2" cx="58.9" cy="154.1" rx="4.8" ry="2"/>
		<g>
			<ellipse transform="matrix(0.866 -0.5 0.5 0.866 -8.933 110.3447)" class="st6" cx="201.4" cy="71.8" rx="10.5" ry="4.5"/>
			<ellipse transform="matrix(0.866 -0.5 0.5 0.866 -8.933 110.3447)" class="st2" cx="201.4" cy="71.8" rx="4.8" ry="2"/>
		</g>
		<g>
			<ellipse transform="matrix(0.866 -0.5 0.5 0.866 -0.7707 118.5071)" class="st6" cx="220.8" cy="60.7" rx="10.5" ry="4.5"/>
			<ellipse transform="matrix(0.866 -0.5 0.5 0.866 -0.7707 118.5071)" class="st2" cx="220.8" cy="60.7" rx="4.8" ry="2"/>
		</g>
		
			<linearGradient id="SVGID_00000109729636607207364050000005995004661094763946_" gradientUnits="userSpaceOnUse" x1="821.2422" y1="-619.6923" x2="834.3192" y2="-619.6923" gradientTransform="matrix(0.866 -0.5 0.5 0.866 -352.2012 1160.3925)">
			<stop  offset="0.3111" style="stop-color:#000000"/>
			<stop  offset="1" style="stop-color:#37475E"/>
		</linearGradient>
		<path style="fill:url(#SVGID_00000109729636607207364050000005995004661094763946_);" d="M47.8,184.5l3.5,6.9l0,0l25.2,49l-16.2-8
			l-26.6-53.2l11.1,5C44.8,184.1,46.7,184.8,47.8,184.5z"/>
	</g>
</g>
</svg>
