<?xml version="1.0" encoding="utf-8"?>
<!-- Generator: Adobe Illustrator 25.4.1, SVG Export Plug-In . SVG Version: 6.00 Build 0)  -->
<svg version="1.1" id="Capa_1" xmlns="http://www.w3.org/2000/svg" xmlns:xlink="http://www.w3.org/1999/xlink" x="0px" y="0px"
	 viewBox="0 0 310 310" style="enable-background:new 0 0 310 310;" xml:space="preserve">
<style type="text/css">
	.st0{opacity:0.2;fill:#110C0A;enable-background:new    ;}
	.st1{fill:#999999;}
	.st2{fill:#FFFFFF;}
	.st3{fill:url(#SVGID_1_);}
	.st4{fill:none;stroke:#A0349D;stroke-width:9;stroke-miterlimit:10;}
	.st5{fill:#C00C0A;}
	.st6{fill:#110C0A;}
	.st7{fill:url(#SVGID_00000007424729942227584830000003174071941070495372_);}
	.st8{fill:url(#SVGID_00000070837622819063065120000008601783756027561110_);}
	.st9{fill:url(#SVGID_00000004529541376798968320000017780404869154967228_);}
	.st10{fill:url(#SVGID_00000106856038197790334960000013017480683724361150_);}
	.st11{fill:url(#SVGID_00000144322066558942592240000002732523752794204331_);}
	.st12{fill:url(#SVGID_00000044881581382748403490000017216599123019757717_);}
	.st13{fill:url(#SVGID_00000057832563803942872630000011198576217764367499_);}
	.st14{fill:url(#SVGID_00000072267262462044727560000015500124557039915168_);}
	.st15{fill:url(#SVGID_00000157266687141099106030000002346378632637152422_);}
	.st16{fill:url(#SVGID_00000031929677331403379110000007462945339379788166_);}
	.st17{fill:url(#SVGID_00000049222146146812533930000018379522890156508093_);}
	.st18{fill:url(#SVGID_00000127765477931116471790000015342864444499631778_);}
	.st19{fill:url(#SVGID_00000044888341186153003930000015870913603118510728_);}
	.st20{fill:url(#SVGID_00000031900445474765108010000008586890837490658207_);}
	.st21{fill:url(#SVGID_00000026141306601922717740000010391758770474151871_);}
	.st22{fill:url(#SVGID_00000170997316885049406590000002440569520005866420_);}
	.st23{fill:url(#SVGID_00000105388445071553180440000012584570118484988076_);}
	.st24{fill:url(#SVGID_00000174564110582262916530000005755540926233273735_);}
	.st25{fill:url(#SVGID_00000134941244056217532660000006530541371103736250_);}
	.st26{fill:url(#SVGID_00000051358470950922190790000010822728221853152923_);}
	.st27{fill:url(#SVGID_00000085234867219312272730000007179791555051015044_);}
	.st28{fill:url(#SVGID_00000034771113399685605260000007547890163354021021_);}
	.st29{fill:url(#SVGID_00000116196874996710669500000007177315408283263882_);}
	.st30{fill:url(#SVGID_00000022558095085623018740000005177009507769381256_);}
	.st31{fill:url(#SVGID_00000014620562937624514430000002679186063882014893_);}
	.st32{fill:url(#SVGID_00000178196912285871292400000010835985952515394204_);}
	.st33{fill:url(#SVGID_00000135664500446883427630000008058713352337214856_);}
	.st34{fill:url(#SVGID_00000073692784367876659730000005144453082838225799_);}
	.st35{fill:url(#SVGID_00000082337763445823401370000010140003411100426639_);}
	.st36{fill:url(#SVGID_00000168813653254258680270000001736208734396575876_);}
	.st37{fill:url(#SVGID_00000031178565706486830410000017637686315924649604_);}
	.st38{fill:url(#SVGID_00000038378070849461361920000010481363762930580149_);}
	.st39{fill:url(#SVGID_00000031927688589969683860000001651128742207399328_);}
	.st40{fill:url(#SVGID_00000113354119234959689660000004720702102481175938_);}
	.st41{fill:url(#SVGID_00000012473986782977579410000012370865465013607312_);}
	.st42{fill:url(#SVGID_00000048465043569975454330000011015687455813561279_);}
	.st43{fill:url(#SVGID_00000101789063509033864550000001790748355223141276_);}
	.st44{fill:url(#SVGID_00000140003057876628827510000014958320731689426610_);}
	.st45{fill:url(#SVGID_00000107551668748170503790000011010819102274134684_);}
	.st46{fill:url(#SVGID_00000050639581510202299390000007369568857109290124_);}
	.st47{fill:url(#SVGID_00000124859797303561279780000006604130952269670024_);}
	.st48{fill:url(#SVGID_00000163756101106949293240000011119469101806257078_);}
	.st49{fill:url(#SVGID_00000057123008227887506240000006408894966750602880_);}
	.st50{fill:url(#SVGID_00000155141474937547833200000012487851826929356950_);}
	.st51{fill:url(#SVGID_00000122713390682938170730000014472298944154485411_);}
	.st52{fill:url(#SVGID_00000003795362420903104800000002399270481572588972_);}
	.st53{fill:url(#SVGID_00000115510546039173020820000011304912961327878799_);}
	.st54{fill:url(#SVGID_00000127041082952439380950000017403897313653545663_);}
	.st55{fill:url(#SVGID_00000129919521183560266210000016892890028302117798_);}
	.st56{fill:url(#SVGID_00000132785660839812216640000013646642697172711328_);}
	.st57{fill:url(#SVGID_00000168116080281173228490000011416968949245434802_);}
	.st58{fill:url(#SVGID_00000101794486925454430230000005200361496061126794_);}
	.st59{fill:url(#SVGID_00000017477374668906441240000004329842718743961267_);}
	.st60{fill:url(#SVGID_00000124861004480730603440000016828326467379740319_);}
	.st61{fill:url(#SVGID_00000044136727162994584160000016158029664656823948_);}
	.st62{fill:url(#SVGID_00000176043066408151653110000008294484130423441307_);}
	.st63{fill:url(#SVGID_00000163054894045535095600000015367006946828960685_);}
	.st64{fill:url(#SVGID_00000143604251103516487700000011297507459221354889_);}
	.st65{fill:url(#SVGID_00000131326527861470677610000013850876355186538116_);}
	.st66{fill:url(#SVGID_00000180364443157082168160000002571160278670358705_);}
	.st67{fill:url(#SVGID_00000073681923634893602090000000667113761639260566_);}
	.st68{fill:url(#SVGID_00000154384207825449208340000012403197356397205426_);}
	.st69{fill:url(#SVGID_00000142154994209606676650000018111698807749275827_);}
	.st70{fill:url(#SVGID_00000060030146545857377970000002122620264615325115_);}
	.st71{fill:url(#SVGID_00000124157024221958261700000007885875054253015465_);}
	.st72{fill:url(#SVGID_00000040548850861023291310000015413463358481398177_);}
	.st73{fill:url(#SVGID_00000025424618325953876780000010154623145917186945_);}
	.st74{fill:url(#SVGID_00000140006663236474315150000013419376058280909751_);}
	.st75{fill:url(#SVGID_00000107552311579720085920000000523842787967620757_);}
	.st76{fill:url(#SVGID_00000101819406827155938990000008176596150908290228_);}
	.st77{fill:url(#SVGID_00000075136916870427336910000001132649503782945171_);}
</style>
<g>
	<path class="st0" d="M43.7,209.5l-0.6,0.1c-3.7,0.8-7.4-1.4-8.6-5.1l-17.1-59.1L240.9,63l11.7,0.1l0,0l4.2,3.8l0,0l5,4.4
		c0,0-166.1,64.7-171.9,64.4L43.7,209.5z"/>
	<g>
		<polygon class="st1" points="258.5,67.9 274.4,81.8 40.5,164.2 23.3,150.5 246.8,67.8 		"/>
		
			<rect x="41.8" y="161.8" transform="matrix(0.9397 -0.342 0.342 0.9397 -52.9792 24.6926)" class="st2" width="3.4" height="1.6"/>
		<path class="st2" d="M61.5,225.3l-17.4-12.6c-2-1.5-3.5-3.6-4.2-6l-16.8-56.4l20.1,13L61.5,225.3z"/>
		
			<linearGradient id="SVGID_1_" gradientUnits="userSpaceOnUse" x1="573.5385" y1="-286.1474" x2="573.5385" y2="-274.5965" gradientTransform="matrix(0.9397 -0.342 0.342 0.9397 -296.0429 574.8166)">
			<stop  offset="0.3111" style="stop-color:#000000"/>
			<stop  offset="1" style="stop-color:#37475E"/>
		</linearGradient>
		<path class="st3" d="M267.9,81.3l-222.6,81c-2.2,0.8-4.6,0.4-6.5-1.1l-11.1-8c1.5-0.8,23.3-3.2,23.3-3.2l204.1-74.3L267.9,81.3z"
			/>
		<path class="st2" d="M291.3,141.7L61.5,225.3l-18.8-62l226.6-82.5c2.8-1,5.9,0.4,6.9,3.2l18.4,50.6
			C295.6,137.6,294.1,140.6,291.3,141.7z"/>
		<polygon class="st5" points="262.9,71.7 258.5,67.9 256.6,68.7 260.9,72.4 		"/>
		<path class="st2" d="M267.7,76c0,0,4.2,3.9,1.1,5c-1.3,0.5-2.2,0.8-2.2,0.8l8.1,0.3L267.7,76z"/>
		<ellipse transform="matrix(0.9397 -0.342 0.342 0.9397 -43.391 28.3804)" class="st6" cx="58.8" cy="137.2" rx="10.5" ry="4.5"/>
		<ellipse transform="matrix(0.9397 -0.342 0.342 0.9397 -43.391 28.3804)" class="st2" cx="58.8" cy="137.2" rx="4.8" ry="2"/>
		<g>
			
				<ellipse transform="matrix(0.9397 -0.342 0.342 0.9397 -14.8085 77.8867)" class="st6" cx="213.5" cy="80.9" rx="10.5" ry="4.5"/>
			<ellipse transform="matrix(0.9397 -0.342 0.342 0.9397 -14.8085 77.8867)" class="st2" cx="213.5" cy="80.9" rx="4.8" ry="2"/>
		</g>
		<g>
			
				<ellipse transform="matrix(0.9397 -0.342 0.342 0.9397 -10.9362 84.5938)" class="st6" cx="234.4" cy="73.3" rx="10.5" ry="4.5"/>
			<ellipse transform="matrix(0.9397 -0.342 0.342 0.9397 -10.9362 84.5938)" class="st2" cx="234.4" cy="73.3" rx="4.8" ry="2"/>
		</g>
		
			<linearGradient id="SVGID_00000089572227026830429750000010722899425689182636_" gradientUnits="userSpaceOnUse" x1="445.1884" y1="-243.6384" x2="458.2653" y2="-243.6384" gradientTransform="matrix(0.9397 -0.342 0.342 0.9397 -296.0429 574.8166)">
			<stop  offset="0.3111" style="stop-color:#000000"/>
			<stop  offset="1" style="stop-color:#37475E"/>
		</linearGradient>
		<path style="fill:url(#SVGID_00000089572227026830429750000010722899425689182636_);" d="M42.6,165.2l2.3,7.4l0,0l16.3,52.6
			l-14.5-10.7l-16.9-57l10.1,6.9C39.7,164.3,41.5,165.4,42.6,165.2z"/>
	</g>
</g>
</svg>
