<?xml version="1.0" encoding="utf-8"?>
<!-- Generator: Adobe Illustrator 25.4.1, SVG Export Plug-In . SVG Version: 6.00 Build 0)  -->
<svg version="1.1" id="Capa_1" xmlns="http://www.w3.org/2000/svg" xmlns:xlink="http://www.w3.org/1999/xlink" x="0px" y="0px"
	 viewBox="0 0 310 310" style="enable-background:new 0 0 310 310;" xml:space="preserve">
<style type="text/css">
	.st0{opacity:0.2;fill:#110C0A;enable-background:new    ;}
	.st1{fill:#999999;}
	.st2{fill:#FFFFFF;}
	.st3{fill:url(#SVGID_1_);}
	.st4{fill:none;stroke:#A0349D;stroke-width:9;stroke-miterlimit:10;}
	.st5{fill:#C00C0A;}
	.st6{fill:#110C0A;}
	.st7{fill:url(#SVGID_00000182497831179269732790000013034413716626959288_);}
	.st8{fill:url(#SVGID_00000049908997227813480610000017429504221415692724_);}
	.st9{fill:url(#SVGID_00000065767585915461871650000016074514218919843205_);}
	.st10{fill:url(#SVGID_00000022536228645701975140000012863726117353593225_);}
	.st11{fill:url(#SVGID_00000049926071877848022720000006516141569273582490_);}
	.st12{fill:url(#SVGID_00000112616881220128854360000000370377811264997003_);}
	.st13{fill:url(#SVGID_00000018918393333644739330000014623427571238276247_);}
	.st14{fill:url(#SVGID_00000107590007816900496310000005112903624515443072_);}
	.st15{fill:url(#SVGID_00000087375502572629823990000001145948121118191763_);}
	.st16{fill:url(#SVGID_00000012433482484486426550000000689635620324190859_);}
	.st17{fill:url(#SVGID_00000022525650909143952950000018355612896080627357_);}
	.st18{fill:url(#SVGID_00000118374865752181778650000000027478318783848358_);}
	.st19{fill:url(#SVGID_00000150806721607794379980000004554745642465774994_);}
	.st20{fill:url(#SVGID_00000063614290123476333930000016415336203917908127_);}
	.st21{fill:url(#SVGID_00000182519143984213711120000015148460590544149163_);}
	.st22{fill:url(#SVGID_00000035489898799075327040000011662787011492092840_);}
	.st23{fill:url(#SVGID_00000046330755538816086820000015759530820749685911_);}
	.st24{fill:url(#SVGID_00000148626395416631473370000013674179047028106680_);}
	.st25{fill:url(#SVGID_00000068663097118789060430000000063728705794563747_);}
	.st26{fill:url(#SVGID_00000051364938576655425020000004735573856510926978_);}
	.st27{fill:url(#SVGID_00000099640328344141637050000001291642836010330764_);}
	.st28{fill:url(#SVGID_00000137131322025741313680000010401907574617583276_);}
	.st29{fill:url(#SVGID_00000145022679325689697430000015829142737863644066_);}
	.st30{fill:url(#SVGID_00000035518337651748168890000005197547303591580314_);}
	.st31{fill:url(#SVGID_00000135649692218534604680000014145387122373869987_);}
	.st32{fill:url(#SVGID_00000048477110273963524840000004773446830837058493_);}
	.st33{fill:url(#SVGID_00000139285061233901873190000003831442514989913233_);}
	.st34{fill:url(#SVGID_00000130617302338848856450000013934038011676987295_);}
	.st35{fill:url(#SVGID_00000072261385248444196060000008564490456919317430_);}
	.st36{fill:url(#SVGID_00000159451745031235404440000017790278388416489607_);}
	.st37{fill:url(#SVGID_00000123400829629373479230000010497508612110454680_);}
	.st38{fill:url(#SVGID_00000114050464798341793800000009528645169522824368_);}
	.st39{fill:url(#SVGID_00000129190872803752582420000001505492976702312625_);}
	.st40{fill:url(#SVGID_00000010279449195205473130000001027426095354017213_);}
	.st41{fill:url(#SVGID_00000129179633547510879860000007828547343503350162_);}
	.st42{fill:url(#SVGID_00000147210546752127135730000016168434611271947153_);}
	.st43{fill:url(#SVGID_00000134950112648639269170000007207303476356656272_);}
	.st44{fill:url(#SVGID_00000088117095254998800510000011858063447882820016_);}
	.st45{fill:url(#SVGID_00000008856542527352648690000004024288780686620835_);}
	.st46{fill:url(#SVGID_00000130647555910921643530000001532037802614650275_);}
	.st47{fill:url(#SVGID_00000021079063163350778450000016057804468400997773_);}
	.st48{fill:url(#SVGID_00000182492073038527396050000011718088711711186618_);}
	.st49{fill:url(#SVGID_00000016782001046810804750000012142907476897967260_);}
	.st50{fill:url(#SVGID_00000177484157874810091820000002719340646983714698_);}
	.st51{fill:url(#SVGID_00000106852432892057435360000003700054049234823847_);}
	.st52{fill:url(#SVGID_00000006690574900720553310000013919814849983329166_);}
	.st53{fill:url(#SVGID_00000013884497557741555050000017026494872527081379_);}
	.st54{fill:url(#SVGID_00000149379515371524317330000010247966583494649512_);}
	.st55{fill:url(#SVGID_00000039108446618578970660000005846602273631656346_);}
	.st56{fill:url(#SVGID_00000157995587098193706170000012213529366892892846_);}
	.st57{fill:url(#SVGID_00000183232215323596181800000000504846889171981722_);}
	.st58{fill:url(#SVGID_00000179623146351570975020000012182245434903396249_);}
	.st59{fill:url(#SVGID_00000104702974911092850300000013265708324092746375_);}
	.st60{fill:url(#SVGID_00000003815061910892480050000013963161282830014381_);}
	.st61{fill:url(#SVGID_00000147195008416970583710000015524160752826315414_);}
	.st62{fill:url(#SVGID_00000106864164566830397930000004643853161233380017_);}
	.st63{fill:url(#SVGID_00000008124529833493399640000016225194562804795582_);}
	.st64{fill:url(#SVGID_00000118366157908814715670000002882637254497973180_);}
	.st65{fill:url(#SVGID_00000168797707936425999530000002342653003301012102_);}
	.st66{fill:url(#SVGID_00000154416419549792592510000000662223885858066080_);}
	.st67{fill:url(#SVGID_00000034780538914229728660000006417663054876879008_);}
	.st68{fill:url(#SVGID_00000115477713254064624240000010854471549565452975_);}
	.st69{fill:url(#SVGID_00000040564899166363003460000016432448498212862854_);}
	.st70{fill:url(#SVGID_00000085219891009099087820000017287307519470915248_);}
	.st71{fill:url(#SVGID_00000035505099197096695950000010041265924682244522_);}
	.st72{fill:url(#SVGID_00000129914364469572579820000000330784648860687749_);}
	.st73{fill:url(#SVGID_00000025430338337721583750000004047502929013078195_);}
	.st74{fill:url(#SVGID_00000093157940801009819730000015852547698571024824_);}
	.st75{fill:url(#SVGID_00000018944931472922962740000015703889667259499689_);}
	.st76{fill:url(#SVGID_00000078725939758335534240000016402467289644039847_);}
	.st77{fill:url(#SVGID_00000119812342518746090900000011754559993951265213_);}
</style>
<g>
	<path class="st0" d="M34.3,189.1l-0.6,0c-3.8,0.2-7.1-2.7-7.5-6.5l-6.6-61.2l234.4-42.4l11.5,2.1l0,0l3.5,4.5l0,0l4.2,5.2
		c0,0-174.8,34.9-180.5,33.6L34.3,189.1z"/>
	<g>
		<polygon class="st1" points="270.5,86.9 283.7,103.3 39.1,143.8 24.5,127.3 258.9,84.8 		"/>
		<rect x="40.6" y="142" transform="matrix(0.9848 -0.1736 0.1736 0.9848 -24.1481 9.5164)" class="st2" width="3.4" height="1.6"/>
		<path class="st2" d="M49.1,207.7l-14.9-15.4c-1.7-1.8-2.9-4.2-3.1-6.7l-6.7-58.4l17.5,16.3L49.1,207.7z"/>
		
			<linearGradient id="SVGID_1_" gradientUnits="userSpaceOnUse" x1="197.4846" y1="89.9064" x2="197.4846" y2="101.4573" gradientTransform="matrix(0.9848 -0.1736 0.1736 0.9848 -58.6466 54.1343)">
			<stop  offset="0.3111" style="stop-color:#000000"/>
			<stop  offset="1" style="stop-color:#37475E"/>
		</linearGradient>
		<path class="st3" d="M277.4,101.7L44.1,142.9c-2.3,0.4-4.6-0.4-6.2-2.2l-9.5-9.8c1.6-0.5,23.5,0.9,23.5,0.9l213.9-37.7
			L277.4,101.7z"/>
		<path class="st2" d="M290,165.2L49.1,207.7l-7.8-64.3l237.4-41.9c3-0.5,5.7,1.4,6.3,4.4l9.4,53.1
			C294.9,161.9,292.9,164.7,290,165.2z"/>
		<polygon class="st5" points="274.1,91.3 270.5,86.9 268.4,87.3 272,91.7 		"/>
		<path class="st2" d="M278.1,96.4c0,0,3.4,4.6,0.2,5.1c-1.4,0.2-2.3,0.4-2.3,0.4l7.9,1.7L278.1,96.4z"/>
		
			<ellipse transform="matrix(0.9848 -0.1736 0.1736 0.9848 -19.9787 12.5498)" class="st6" cx="61.7" cy="120.5" rx="10.5" ry="4.5"/>
		<ellipse transform="matrix(0.9848 -0.1736 0.1736 0.9848 -19.9787 12.5498)" class="st2" cx="61.7" cy="120.5" rx="4.8" ry="2"/>
		<g>
			
				<ellipse transform="matrix(0.9848 -0.1736 0.1736 0.9848 -12.5527 40.2638)" class="st6" cx="223.8" cy="91.9" rx="10.5" ry="4.5"/>
			<ellipse transform="matrix(0.9848 -0.1736 0.1736 0.9848 -12.5527 40.2638)" class="st2" cx="223.8" cy="91.9" rx="4.8" ry="2"/>
		</g>
		<g>
			
				<ellipse transform="matrix(0.9848 -0.1736 0.1736 0.9848 -11.5467 44.0185)" class="st6" cx="245.8" cy="88" rx="10.5" ry="4.5"/>
			<ellipse transform="matrix(0.9848 -0.1736 0.1736 0.9848 -11.5467 44.0185)" class="st2" cx="245.8" cy="88" rx="4.8" ry="2"/>
		</g>
		
			<linearGradient id="SVGID_00000164473901068425922570000010124018925679937213_" gradientUnits="userSpaceOnUse" x1="69.1346" y1="132.4154" x2="82.2115" y2="132.4154" gradientTransform="matrix(0.9848 -0.1736 0.1736 0.9848 -58.6466 54.1343)">
			<stop  offset="0.3111" style="stop-color:#000000"/>
			<stop  offset="1" style="stop-color:#37475E"/>
		</linearGradient>
		<path style="fill:url(#SVGID_00000164473901068425922570000010124018925679937213_);" d="M40.9,145.1l0.9,7.7l0,0l6.9,54.6
			l-12.5-13l-6.8-59.1l8.7,8.5C38.2,143.8,39.8,145.1,40.9,145.1z"/>
	</g>
</g>
</svg>
