<?xml version="1.0" encoding="utf-8"?>
<!-- Generator: Adobe Illustrator 25.4.1, SVG Export Plug-In . SVG Version: 6.00 Build 0)  -->
<svg version="1.1" id="Capa_1" xmlns="http://www.w3.org/2000/svg" xmlns:xlink="http://www.w3.org/1999/xlink" x="0px" y="0px"
	 viewBox="0 0 310 310" style="enable-background:new 0 0 310 310;" xml:space="preserve">
<style type="text/css">
	.st0{opacity:0.2;fill:#110C0A;enable-background:new    ;}
	.st1{fill:#999999;}
	.st2{fill:#FFFFFF;}
	.st3{fill:url(#SVGID_1_);}
	.st4{fill:none;stroke:#A0349D;stroke-width:9;stroke-miterlimit:10;}
	.st5{fill:#C00C0A;}
	.st6{fill:#110C0A;}
	.st7{fill:url(#SVGID_00000139976195119854189310000004682436553161697471_);}
	.st8{fill:url(#SVGID_00000076576862384049333650000005204483768057269899_);}
	.st9{fill:url(#SVGID_00000154399407320176986670000002841875955306803895_);}
	.st10{fill:url(#SVGID_00000008843889283243104210000008786047152469797269_);}
	.st11{fill:url(#SVGID_00000170972670587973347150000014453564988770295228_);}
	.st12{fill:url(#SVGID_00000059285978350455816490000000577016419390606240_);}
	.st13{fill:url(#SVGID_00000096769961326015992790000001363363724385572281_);}
	.st14{fill:url(#SVGID_00000122703387233157773270000004212158979147537030_);}
	.st15{fill:url(#SVGID_00000156582660085765717860000009351892387216406407_);}
	.st16{fill:url(#SVGID_00000147187431829544113690000009505827524848924825_);}
	.st17{fill:url(#SVGID_00000145780446269069295310000009759143792321436044_);}
	.st18{fill:url(#SVGID_00000084515509976415865610000017539006859558396342_);}
	.st19{fill:url(#SVGID_00000030477935993823604970000012888497259528628375_);}
	.st20{fill:url(#SVGID_00000007425819311747674150000009694013371798764429_);}
	.st21{fill:url(#SVGID_00000118389634509188344540000009241331835149541009_);}
	.st22{fill:url(#SVGID_00000010271865707705454030000009751281411134268557_);}
	.st23{fill:url(#SVGID_00000127737454633754679720000013371980633676037542_);}
	.st24{fill:url(#SVGID_00000039821212384919729690000004116941120880118707_);}
	.st25{fill:url(#SVGID_00000020379853377712873340000000764889666860211346_);}
	.st26{fill:url(#SVGID_00000096780449260532378620000007018526151324180121_);}
	.st27{fill:url(#SVGID_00000052066104870337012460000015880495731410121658_);}
	.st28{fill:url(#SVGID_00000066502720996387809150000016894698338742946479_);}
	.st29{fill:url(#SVGID_00000123419894309939050160000012097831053242228122_);}
	.st30{fill:url(#SVGID_00000079452053618503501580000011449239666270286480_);}
	.st31{fill:url(#SVGID_00000103227624138195268610000007063031496066984579_);}
	.st32{fill:url(#SVGID_00000083079327233592388370000018429742202802626975_);}
	.st33{fill:url(#SVGID_00000072274521901225039090000009192251276755918500_);}
	.st34{fill:url(#SVGID_00000036226584645691414440000014750553297728967599_);}
	.st35{fill:url(#SVGID_00000028307557297080981550000015093051120559861431_);}
	.st36{fill:url(#SVGID_00000028284150988778643400000018127672005013870987_);}
	.st37{fill:url(#SVGID_00000012468843751696910070000002542018361121223054_);}
	.st38{fill:url(#SVGID_00000091722348276627681420000017047722692323295377_);}
	.st39{fill:url(#SVGID_00000041997490933416293310000001860958806230026164_);}
	.st40{fill:url(#SVGID_00000098214256523754771870000002867593868731993501_);}
	.st41{fill:url(#SVGID_00000147216223431562811380000015187868276338660237_);}
	.st42{fill:url(#SVGID_00000136395356810501550360000012705933667392340622_);}
	.st43{fill:url(#SVGID_00000139291648963505482420000010517324965839843761_);}
	.st44{fill:url(#SVGID_00000170988766791547247330000010394344204357724546_);}
	.st45{fill:url(#SVGID_00000078003064680248760070000011273543124690092683_);}
	.st46{fill:url(#SVGID_00000181784413889622035330000004966783054676727473_);}
	.st47{fill:url(#SVGID_00000173141236460544464910000015275655284470548925_);}
	.st48{fill:url(#SVGID_00000076571186525500928450000015390423637089720986_);}
	.st49{fill:url(#SVGID_00000021114238137293708590000005021153716550932132_);}
	.st50{fill:url(#SVGID_00000097471444604597684190000005347874472776325513_);}
	.st51{fill:url(#SVGID_00000158735652391258234650000012876629296380258714_);}
	.st52{fill:url(#SVGID_00000162320513370517063170000003185016175273768095_);}
	.st53{fill:url(#SVGID_00000142887886274065146360000006669455611850436998_);}
	.st54{fill:url(#SVGID_00000130624375970875341760000014490283330019358629_);}
	.st55{fill:url(#SVGID_00000131326858596730595670000006324870470352266157_);}
	.st56{fill:url(#SVGID_00000183221943321500468460000003373106721290158477_);}
	.st57{fill:url(#SVGID_00000091724174937238378060000012888430074793744308_);}
	.st58{fill:url(#SVGID_00000060737188525490634390000000703892189132211598_);}
	.st59{fill:url(#SVGID_00000134942795971489258870000013747481503305857698_);}
	.st60{fill:url(#SVGID_00000085962879724330110600000001299398165345712058_);}
	.st61{fill:url(#SVGID_00000169551785598079591520000002345358622079580574_);}
	.st62{fill:url(#SVGID_00000071527549353160789480000014228385038114460580_);}
	.st63{fill:url(#SVGID_00000070105656291040295360000014726513416174737798_);}
	.st64{fill:url(#SVGID_00000137852328929305360120000013787375474555516830_);}
	.st65{fill:url(#SVGID_00000129885286899418584560000008416192728583201420_);}
	.st66{fill:url(#SVGID_00000072959298882043471800000002041585091285486988_);}
	.st67{fill:url(#SVGID_00000105387269644006067550000011158413138213221558_);}
	.st68{fill:url(#SVGID_00000039850730080714149480000003092481124766951833_);}
	.st69{fill:url(#SVGID_00000116920631665735511620000015468633929925765046_);}
	.st70{fill:url(#SVGID_00000170270961409017137160000017486782626977921431_);}
	.st71{fill:url(#SVGID_00000031900846325792121180000008727276237840475820_);}
	.st72{fill:url(#SVGID_00000108269566122687245080000016354594212627956642_);}
	.st73{fill:url(#SVGID_00000159428425441942090660000009617902188212272308_);}
	.st74{fill:url(#SVGID_00000013179009776191718620000000245877372361705662_);}
	.st75{fill:url(#SVGID_00000170969951374095906830000007766824578109625516_);}
	.st76{fill:url(#SVGID_00000052815641779572605990000014628314503046941588_);}
	.st77{fill:url(#SVGID_00000129907764144250887640000004674232308792018363_);}
</style>
<g>
	<path class="st0" d="M33.4,99.4l-0.6,0c-3.8-0.2-7.1,2.7-7.5,6.5L18.7,167l234.4,42.4l11.5-2.1l0,0l3.5-4.5l0,0l4.2-5.2
		c0,0-174.8-34.9-180.5-33.6L33.4,99.4z"/>
	<g>
		<polygon class="st1" points="269.6,201.5 282.8,185.1 38.2,144.6 23.6,161.1 258,203.7 		"/>
		
			<rect x="40.6" y="144" transform="matrix(0.1736 -0.9848 0.9848 0.1736 -109.2275 161.1587)" class="st2" width="1.6" height="3.4"/>
		<path class="st2" d="M48.2,80.8L33.3,96.2c-1.7,1.8-2.9,4.2-3.1,6.7l-6.7,58.4L40.9,145L48.2,80.8z"/>
		
			<linearGradient id="SVGID_1_" gradientUnits="userSpaceOnUse" x1="-543.5627" y1="830.9537" x2="-543.5627" y2="842.5046" gradientTransform="matrix(0.9848 0.1736 0.1736 -0.9848 541.5657 1092.7667)">
			<stop  offset="0.3111" style="stop-color:#000000"/>
			<stop  offset="1" style="stop-color:#37475E"/>
		</linearGradient>
		<path class="st3" d="M276.5,186.7L43.2,145.6c-2.3-0.4-4.6,0.4-6.2,2.2l-9.5,9.8c1.6,0.5,23.5-0.9,23.5-0.9l213.9,37.7
			L276.5,186.7z"/>
		<path class="st2" d="M289.1,123.2L48.2,80.8l-7.8,64.3l237.4,41.9c3,0.5,5.7-1.4,6.3-4.4l9.4-53.1
			C294,126.5,292,123.8,289.1,123.2z"/>
		<polygon class="st5" points="273.2,197.1 269.6,201.5 267.5,201.2 271.1,196.7 		"/>
		<path class="st2" d="M277.3,192c0,0,3.4-4.6,0.2-5.1c-1.4-0.2-2.3-0.4-2.3-0.4l7.9-1.7L277.3,192z"/>
		
			<ellipse transform="matrix(0.1736 -0.9848 0.9848 0.1736 -115.1515 198.7214)" class="st6" cx="60.8" cy="168" rx="4.5" ry="10.5"/>
		<ellipse transform="matrix(0.1736 -0.9848 0.9848 0.1736 -115.1515 198.7214)" class="st2" cx="60.8" cy="168" rx="2" ry="4.8"/>
		<g>
			
				<ellipse transform="matrix(0.1736 -0.9848 0.9848 0.1736 -9.3487 381.9773)" class="st6" cx="222.9" cy="196.6" rx="4.5" ry="10.5"/>
			
				<ellipse transform="matrix(0.1736 -0.9848 0.9848 0.1736 -9.3487 381.9773)" class="st2" cx="222.9" cy="196.6" rx="2" ry="4.8"/>
		</g>
		<g>
			
				<ellipse transform="matrix(0.1736 -0.9848 0.9848 0.1736 4.9855 406.8048)" class="st6" cx="244.9" cy="200.4" rx="4.5" ry="10.5"/>
			<ellipse transform="matrix(0.1736 -0.9848 0.9848 0.1736 4.9855 406.8048)" class="st2" cx="244.9" cy="200.4" rx="2" ry="4.8"/>
		</g>
		
			<linearGradient id="SVGID_00000093142955287450461980000012853244826694048403_" gradientUnits="userSpaceOnUse" x1="-671.9127" y1="873.4627" x2="-658.8358" y2="873.4627" gradientTransform="matrix(0.9848 0.1736 0.1736 -0.9848 541.5657 1092.7667)">
			<stop  offset="0.3111" style="stop-color:#000000"/>
			<stop  offset="1" style="stop-color:#37475E"/>
		</linearGradient>
		<path style="fill:url(#SVGID_00000093142955287450461980000012853244826694048403_);" d="M40,143.3l0.9-7.7l0,0L47.8,81L35.4,94
			l-6.8,59.1l8.7-8.5C37.3,144.6,38.9,143.3,40,143.3z"/>
	</g>
</g>
</svg>
