<?xml version="1.0" encoding="utf-8"?>
<!-- Generator: Adobe Illustrator 25.4.1, SVG Export Plug-In . SVG Version: 6.00 Build 0)  -->
<svg version="1.1" id="Capa_1" xmlns="http://www.w3.org/2000/svg" xmlns:xlink="http://www.w3.org/1999/xlink" x="0px" y="0px"
	 viewBox="0 0 310 310" style="enable-background:new 0 0 310 310;" xml:space="preserve">
<style type="text/css">
	.st0{opacity:0.2;fill:#110C0A;enable-background:new    ;}
	.st1{fill:#999999;}
	.st2{fill:#FFFFFF;}
	.st3{fill:url(#SVGID_1_);}
	.st4{fill:none;stroke:#A0349D;stroke-width:9;stroke-miterlimit:10;}
	.st5{fill:#C00C0A;}
	.st6{fill:#110C0A;}
	.st7{fill:url(#SVGID_00000158007124724362477150000011334420520035927976_);}
	.st8{fill:url(#SVGID_00000139975223519432596380000007472073848262965909_);}
	.st9{fill:url(#SVGID_00000040545378923752714420000002285591780410563996_);}
	.st10{fill:url(#SVGID_00000077308356154120596660000009062459731418996402_);}
	.st11{fill:url(#SVGID_00000081628913068268094710000008269257984017437339_);}
	.st12{fill:url(#SVGID_00000092448485255887014770000003340511732204464796_);}
	.st13{fill:url(#SVGID_00000129173629689263603320000003715180316197203106_);}
	.st14{fill:url(#SVGID_00000063608310672021027400000005640310411004163507_);}
	.st15{fill:url(#SVGID_00000063600611089951454050000017572507444552305799_);}
	.st16{fill:url(#SVGID_00000046324257580546394970000004060718673952898434_);}
	.st17{fill:url(#SVGID_00000008111832237049137360000014450294425383766187_);}
	.st18{fill:url(#SVGID_00000160161158217036927210000008339963852691997112_);}
	.st19{fill:url(#SVGID_00000018201227228793779850000013619213527061134757_);}
	.st20{fill:url(#SVGID_00000074421284993871960560000001560668021080873143_);}
	.st21{fill:url(#SVGID_00000178907511561614323670000006607568545106198930_);}
	.st22{fill:url(#SVGID_00000046339136025545697710000003027587268576464001_);}
	.st23{fill:url(#SVGID_00000168092892398828143460000010990058851871668653_);}
	.st24{fill:url(#SVGID_00000119830212089854986430000004084036903089187259_);}
	.st25{fill:url(#SVGID_00000072983155733204077310000016728140468597132467_);}
	.st26{fill:url(#SVGID_00000113322857550670949410000001035081614920316050_);}
	.st27{fill:url(#SVGID_00000034064261820408404820000006212089417799534521_);}
	.st28{fill:url(#SVGID_00000031183758459792264420000004449994953920819885_);}
	.st29{fill:url(#SVGID_00000034048426882912871380000012078921143505206452_);}
	.st30{fill:url(#SVGID_00000042000395961280159580000008757134243604667520_);}
	.st31{fill:url(#SVGID_00000003093009707226900870000002066434073772215471_);}
	.st32{fill:url(#SVGID_00000108300590280642044570000005279299617583544488_);}
	.st33{fill:url(#SVGID_00000018934601955508575280000018155060482935115149_);}
	.st34{fill:url(#SVGID_00000108301549440719069840000003959905714700513438_);}
	.st35{fill:url(#SVGID_00000022537816955799504010000002451298006822954158_);}
	.st36{fill:url(#SVGID_00000059298402587417135550000002991161126529893507_);}
	.st37{fill:url(#SVGID_00000016066705232358476410000016182243443601675165_);}
	.st38{fill:url(#SVGID_00000029767351925837775040000012669157951799263416_);}
	.st39{fill:url(#SVGID_00000047042996351984216310000007029536951311802792_);}
	.st40{fill:url(#SVGID_00000006678666135121170910000004472045196116393090_);}
	.st41{fill:url(#SVGID_00000069361760044187489250000013582684762389695634_);}
	.st42{fill:url(#SVGID_00000028282775964683343910000004024739104418797459_);}
	.st43{fill:url(#SVGID_00000149364893926681748090000014466580560050198203_);}
	.st44{fill:url(#SVGID_00000072979456665183195140000005575960643448310971_);}
	.st45{fill:url(#SVGID_00000182493601844198835770000011709425968293962929_);}
	.st46{fill:url(#SVGID_00000167389280465859027800000011034500876302416575_);}
	.st47{fill:url(#SVGID_00000155831100251540320710000008107278943810273447_);}
	.st48{fill:url(#SVGID_00000066511222482009133930000004993430505572271247_);}
	.st49{fill:url(#SVGID_00000155863695193973471820000017213362034109546170_);}
	.st50{fill:url(#SVGID_00000051359973499677074320000017486275589488386493_);}
	.st51{fill:url(#SVGID_00000111182362791573347740000002992296034010320568_);}
	.st52{fill:url(#SVGID_00000183231554060633597850000006696499390636710833_);}
	.st53{fill:url(#SVGID_00000163050156759852285620000007763314978810455430_);}
	.st54{fill:url(#SVGID_00000156547762610998337080000010693197128463661972_);}
	.st55{fill:url(#SVGID_00000049931549741700429340000001994925256690668937_);}
	.st56{fill:url(#SVGID_00000113348961995473826290000002649539693559695550_);}
	.st57{fill:url(#SVGID_00000179638701762777156170000007066935114454371460_);}
	.st58{fill:url(#SVGID_00000140014838958695297270000000366520978368610964_);}
	.st59{fill:url(#SVGID_00000134208602062513860260000012970964614815527563_);}
	.st60{fill:url(#SVGID_00000039102017597768679250000012948393422298746011_);}
	.st61{fill:url(#SVGID_00000038380316043131141270000011400323264292199355_);}
	.st62{fill:url(#SVGID_00000174574410778109627140000007704681401728088251_);}
	.st63{fill:url(#SVGID_00000080888486180074999210000004617479633472306830_);}
	.st64{fill:url(#SVGID_00000015353457775021016310000009367404576956363933_);}
	.st65{fill:url(#SVGID_00000163780573680298301180000001891696972188579981_);}
	.st66{fill:url(#SVGID_00000100362552893542341030000008759991125597375131_);}
	.st67{fill:url(#SVGID_00000070119789569907654150000000757304845275630982_);}
	.st68{fill:url(#SVGID_00000114049003782785230420000010997320107615347114_);}
	.st69{fill:url(#SVGID_00000121973886145841253440000017338874616487233433_);}
	.st70{fill:url(#SVGID_00000058568515242380907710000009184004292898052005_);}
	.st71{fill:url(#SVGID_00000008149090454406202850000003605625609190195844_);}
	.st72{fill:url(#SVGID_00000010309362606809302660000006955473687679791287_);}
	.st73{fill:url(#SVGID_00000101065915434581290770000004994347661247478974_);}
	.st74{fill:url(#SVGID_00000086656002165663397190000010278425082695557515_);}
	.st75{fill:url(#SVGID_00000102506601234574400750000009993732213402324904_);}
	.st76{fill:url(#SVGID_00000016774032730763596890000014014392480672069774_);}
	.st77{fill:url(#SVGID_00000018231439212973388390000001957252651996187795_);}
</style>
<g>
	<path class="st0" d="M42.9,78.7l-0.6-0.1c-3.7-0.8-7.4,1.4-8.6,5.1l-17.1,59.1l223.5,82.5l11.7-0.1l0,0l4.2-3.8l0,0l5-4.4
		c0,0-166.1-64.7-171.9-64.4L42.9,78.7z"/>
	<g>
		<polygon class="st1" points="257.7,220.4 273.6,206.5 39.7,124.1 22.5,137.8 246,220.4 		"/>
		<rect x="41.9" y="124" transform="matrix(0.342 -0.9397 0.9397 0.342 -90.0199 122.864)" class="st2" width="1.6" height="3.4"/>
		<path class="st2" d="M60.7,63L43.3,75.6c-2,1.5-3.5,3.6-4.2,6L22.3,138l20.1-13L60.7,63z"/>
		
			<linearGradient id="SVGID_1_" gradientUnits="userSpaceOnUse" x1="-919.6165" y1="1207.0076" x2="-919.6165" y2="1218.5585" gradientTransform="matrix(0.9397 0.342 0.342 -0.9397 595.569 1627.2684)">
			<stop  offset="0.3111" style="stop-color:#000000"/>
			<stop  offset="1" style="stop-color:#37475E"/>
		</linearGradient>
		<path class="st3" d="M267.1,206.9l-222.6-81c-2.2-0.8-4.6-0.4-6.5,1.1l-11.1,8c1.5,0.8,23.3,3.2,23.3,3.2l204.1,74.3L267.1,206.9z
			"/>
		<path class="st2" d="M290.5,146.6L60.7,63l-18.8,62l226.6,82.5c2.8,1,5.9-0.4,6.9-3.2l18.4-50.6
			C294.8,150.7,293.3,147.6,290.5,146.6z"/>
		<polygon class="st5" points="262.1,216.6 257.7,220.4 255.7,219.6 260.1,215.9 		"/>
		<path class="st2" d="M266.9,212.3c0,0,4.2-3.9,1.1-5c-1.3-0.5-2.2-0.8-2.2-0.8l8.1-0.3L266.9,212.3z"/>
		<ellipse transform="matrix(0.342 -0.9397 0.9397 0.342 -103.8011 153.8719)" class="st6" cx="58" cy="151.1" rx="4.5" ry="10.5"/>
		<ellipse transform="matrix(0.342 -0.9397 0.9397 0.342 -103.8011 153.8719)" class="st2" cx="58" cy="151.1" rx="2" ry="4.8"/>
		<g>
			
				<ellipse transform="matrix(0.342 -0.9397 0.9397 0.342 -54.9306 336.2594)" class="st6" cx="212.6" cy="207.4" rx="4.5" ry="10.5"/>
			<ellipse transform="matrix(0.342 -0.9397 0.9397 0.342 -54.9306 336.2594)" class="st2" cx="212.6" cy="207.4" rx="2" ry="4.8"/>
		</g>
		<g>
			
				<ellipse transform="matrix(0.342 -0.9397 0.9397 0.342 -48.3096 360.9692)" class="st6" cx="233.6" cy="215" rx="4.5" ry="10.5"/>
			<ellipse transform="matrix(0.342 -0.9397 0.9397 0.342 -48.3096 360.9692)" class="st2" cx="233.6" cy="215" rx="2" ry="4.8"/>
		</g>
		
			<linearGradient id="SVGID_00000087386704086760929340000012963240416462795434_" gradientUnits="userSpaceOnUse" x1="-1047.9666" y1="1249.5165" x2="-1034.8896" y2="1249.5165" gradientTransform="matrix(0.9397 0.342 0.342 -0.9397 595.569 1627.2684)">
			<stop  offset="0.3111" style="stop-color:#000000"/>
			<stop  offset="1" style="stop-color:#37475E"/>
		</linearGradient>
		<path style="fill:url(#SVGID_00000087386704086760929340000012963240416462795434_);" d="M41.8,123.1l2.3-7.4l0,0l16.3-52.6
			L45.8,73.8l-16.9,57l10.1-6.9C38.9,124,40.6,122.9,41.8,123.1z"/>
	</g>
</g>
</svg>
