<?xml version="1.0" encoding="utf-8"?>
<!-- Generator: Adobe Illustrator 25.4.1, SVG Export Plug-In . SVG Version: 6.00 Build 0)  -->
<svg version="1.1" id="Capa_1" xmlns="http://www.w3.org/2000/svg" xmlns:xlink="http://www.w3.org/1999/xlink" x="0px" y="0px"
	 viewBox="0 0 310 310" style="enable-background:new 0 0 310 310;" xml:space="preserve">
<style type="text/css">
	.st0{opacity:0.2;fill:#110C0A;enable-background:new    ;}
	.st1{fill:#999999;}
	.st2{fill:#FFFFFF;}
	.st3{fill:url(#SVGID_1_);}
	.st4{fill:none;stroke:#A0349D;stroke-width:9;stroke-miterlimit:10;}
	.st5{fill:#C00C0A;}
	.st6{fill:#110C0A;}
	.st7{fill:url(#SVGID_00000042727240096647406970000006666722211610574247_);}
	.st8{fill:url(#SVGID_00000001658885825324166240000006303429677898131884_);}
	.st9{fill:url(#SVGID_00000112627499006380261960000003079422025830283704_);}
	.st10{fill:url(#SVGID_00000072969285477841778670000007620810850758085816_);}
	.st11{fill:url(#SVGID_00000132089705013404302750000016393450094802708648_);}
	.st12{fill:url(#SVGID_00000106827803257776182170000012128039791529832889_);}
	.st13{fill:url(#SVGID_00000009560069311680851390000005265603095703813266_);}
	.st14{fill:url(#SVGID_00000079463717020334245620000017971826128556457633_);}
	.st15{fill:url(#SVGID_00000100346632134865269110000003447022510160020923_);}
	.st16{fill:url(#SVGID_00000034053308034047846170000014753852875908809887_);}
	.st17{fill:url(#SVGID_00000129921008807791257150000003154193305220849796_);}
	.st18{fill:url(#SVGID_00000083062518952871476270000009364138837293052299_);}
	.st19{fill:url(#SVGID_00000013153472672001181410000010698673009786632375_);}
	.st20{fill:url(#SVGID_00000070109708113333587250000008135142160626943902_);}
	.st21{fill:url(#SVGID_00000047046165155777124260000000748236968336223661_);}
	.st22{fill:url(#SVGID_00000018236991200647827440000001857113991560674438_);}
	.st23{fill:url(#SVGID_00000155127998871739628780000012372845502627351978_);}
	.st24{fill:url(#SVGID_00000152969797959503112940000009524359542062002331_);}
	.st25{fill:url(#SVGID_00000052105132844647171730000016354147506176622976_);}
	.st26{fill:url(#SVGID_00000113314527453927368680000001254905369625289897_);}
	.st27{fill:url(#SVGID_00000173161323394311353750000007448483139117720966_);}
	.st28{fill:url(#SVGID_00000066475167969605109030000009912803486239552699_);}
	.st29{fill:url(#SVGID_00000097494358530881090520000008580779484551188628_);}
	.st30{fill:url(#SVGID_00000165931141617452847360000001305752133076493709_);}
	.st31{fill:url(#SVGID_00000003808779332353901730000015157044469555664256_);}
	.st32{fill:url(#SVGID_00000176760014004163763090000007786762893130307731_);}
	.st33{fill:url(#SVGID_00000182520602483133678840000003437622188668201121_);}
	.st34{fill:url(#SVGID_00000002386257479555026920000010930058548841410199_);}
	.st35{fill:url(#SVGID_00000091713200498388458820000013560331380778550936_);}
	.st36{fill:url(#SVGID_00000085234952703303808650000001464427504283680404_);}
	.st37{fill:url(#SVGID_00000075871164861172369120000014256675017613436059_);}
	.st38{fill:url(#SVGID_00000131333776324917496970000009397783778180217256_);}
	.st39{fill:url(#SVGID_00000130623484282827594650000000078414519633645698_);}
	.st40{fill:url(#SVGID_00000164506529696713738380000014353502930412989873_);}
	.st41{fill:url(#SVGID_00000176001197808243372250000017694295168858312892_);}
	.st42{fill:url(#SVGID_00000087388731735590048650000014126828912388457864_);}
	.st43{fill:url(#SVGID_00000049210122515390189470000014724771078746415770_);}
	.st44{fill:url(#SVGID_00000031900579881624385830000000995946752180208529_);}
	.st45{fill:url(#SVGID_00000077318932772480380850000003196459617481608355_);}
	.st46{fill:url(#SVGID_00000158007146103537461280000001506135930187799710_);}
	.st47{fill:url(#SVGID_00000109002907019800060950000001130581119951853730_);}
	.st48{fill:url(#SVGID_00000165947076445263833150000000476401887860025277_);}
	.st49{fill:url(#SVGID_00000032617063613518014490000012469500078783619261_);}
	.st50{fill:url(#SVGID_00000062880094866638160830000014855144959182684584_);}
	.st51{fill:url(#SVGID_00000039821488201760310170000011993980871372564366_);}
	.st52{fill:url(#SVGID_00000050632202136999347760000016615781434815999105_);}
	.st53{fill:url(#SVGID_00000087402082015620186510000013023656927508255380_);}
	.st54{fill:url(#SVGID_00000089557839396625080510000012488709792338752411_);}
	.st55{fill:url(#SVGID_00000087412854120260681730000000719382248866452383_);}
	.st56{fill:url(#SVGID_00000150080235748354236680000011369820932148000701_);}
	.st57{fill:url(#SVGID_00000004520214787893260460000004984311717228507269_);}
	.st58{fill:url(#SVGID_00000044156013777561749910000014665085983406936502_);}
	.st59{fill:url(#SVGID_00000164484652791105901080000002019971994935553937_);}
	.st60{fill:url(#SVGID_00000062874275058522537580000015047307932235893422_);}
	.st61{fill:url(#SVGID_00000040568755265643407570000003091161066635967873_);}
	.st62{fill:url(#SVGID_00000059992719992193904240000015801886483768384403_);}
	.st63{fill:url(#SVGID_00000047761499475702027800000002629654328087072139_);}
	.st64{fill:url(#SVGID_00000044160664815926338900000016197218653550395574_);}
	.st65{fill:url(#SVGID_00000138551851857382661920000015926005599904725633_);}
	.st66{fill:url(#SVGID_00000060717245098444516590000011203484734633656489_);}
	.st67{fill:url(#SVGID_00000008113060886972081990000014111415307103040186_);}
	.st68{fill:url(#SVGID_00000085241958633660020220000015232477910980306617_);}
	.st69{fill:url(#SVGID_00000172420955489238142550000002612112044533502120_);}
	.st70{fill:url(#SVGID_00000046314470542019388120000010608885593191502221_);}
	.st71{fill:url(#SVGID_00000002359131730408502070000003262523414608963758_);}
	.st72{fill:url(#SVGID_00000105416132317911787000000013158604245629951653_);}
	.st73{fill:url(#SVGID_00000008835770357891132020000004386614650122215071_);}
	.st74{fill:url(#SVGID_00000036248273317332985960000004821532190932013185_);}
	.st75{fill:url(#SVGID_00000043451029690309606970000017317384701433897131_);}
	.st76{fill:url(#SVGID_00000075864522294628013950000016631757032367346323_);}
	.st77{fill:url(#SVGID_00000156552089213194250110000017246858326133508772_);}
</style>
<g>
	<path class="st0" d="M238.3,45.3l0.2-0.6c1.5-3.5-0.1-7.6-3.5-9.3L179.8,8.3L59.7,214l-1.9,11.6l0,0l3,4.8l0,0l3.4,5.7
		c0,0,92.6-152.3,93.3-158.2L238.3,45.3z"/>
	<g>
		<polygon class="st1" points="61.5,232.3 72.4,250.3 194.2,34.3 183.7,14.9 63.5,220.7 		"/>
		<rect x="190.4" y="36.2" transform="matrix(0.5 -0.866 0.866 0.5 64.0214 184.8017)" class="st2" width="3.4" height="1.6"/>
		<path class="st2" d="M250.7,65.5l-9.4-19.3c-1.1-2.3-2.9-4.1-5.2-5.2l-52.6-26.3l9.3,22L250.7,65.5z"/>
		
			<linearGradient id="SVGID_1_" gradientUnits="userSpaceOnUse" x1="-971.0615" y1="1258.4525" x2="-971.0615" y2="1270.0034" gradientTransform="matrix(-0.5 0.866 0.866 0.5 -1452.9655 339.4904)">
			<stop  offset="0.3111" style="stop-color:#000000"/>
			<stop  offset="1" style="stop-color:#37475E"/>
		</linearGradient>
		<path class="st3" d="M73.1,243.8L191.6,38.6c1.1-2,1.2-4.5,0.1-6.5l-5.9-12.3c-1,1.4-7.2,22.4-7.2,22.4L69.9,230.3L73.1,243.8z"/>
		<path class="st2" d="M128.4,277.4L250.7,65.5L193,36.2L72.4,245c-1.5,2.6-0.6,5.9,2,7.4l46.7,26.9
			C123.7,280.8,126.9,280,128.4,277.4z"/>
		<polygon class="st5" points="64.4,237.2 61.5,232.3 62.6,230.4 65.5,235.4 		"/>
		<path class="st2" d="M67.8,242.7c0,0,3.1,4.8,4.8,1.9c0.7-1.2,1.1-2,1.1-2l-1.2,8L67.8,242.7z"/>
		<ellipse transform="matrix(0.5 -0.866 0.866 0.5 41.0214 166.2017)" class="st6" cx="164.4" cy="47.6" rx="10.5" ry="4.5"/>
		<ellipse transform="matrix(0.5 -0.866 0.866 0.5 41.0214 166.2017)" class="st2" cx="164.4" cy="47.6" rx="4.8" ry="2"/>
		<g>
			<ellipse transform="matrix(0.5 -0.866 0.866 0.5 -123.5786 166.2017)" class="st6" cx="82.1" cy="190.1" rx="10.5" ry="4.5"/>
			<ellipse transform="matrix(0.5 -0.866 0.866 0.5 -123.5786 166.2017)" class="st2" cx="82.1" cy="190.1" rx="4.8" ry="2"/>
		</g>
		<g>
			<ellipse transform="matrix(0.5 -0.866 0.866 0.5 -145.8786 166.2017)" class="st6" cx="71" cy="209.4" rx="10.5" ry="4.5"/>
			<ellipse transform="matrix(0.5 -0.866 0.866 0.5 -145.8786 166.2017)" class="st2" cx="71" cy="209.4" rx="4.8" ry="2"/>
		</g>
		
			<linearGradient id="SVGID_00000149342037651295529560000007274220089356603022_" gradientUnits="userSpaceOnUse" x1="-1099.4115" y1="1300.9615" x2="-1086.3346" y2="1300.9615" gradientTransform="matrix(-0.5 0.866 0.866 0.5 -1452.9655 339.4904)">
			<stop  offset="0.3111" style="stop-color:#000000"/>
			<stop  offset="1" style="stop-color:#37475E"/>
		</linearGradient>
		<path style="fill:url(#SVGID_00000149342037651295529560000007274220089356603022_);" d="M194.8,36.4l6.9,3.5l0,0l49,25.2l-8-16.2
			l-53.2-26.6l5,11.1C194.4,33.5,195.1,35.4,194.8,36.4z"/>
	</g>
</g>
</svg>
