<?xml version="1.0" encoding="utf-8"?>
<!-- Generator: Adobe Illustrator 25.4.1, SVG Export Plug-In . SVG Version: 6.00 Build 0)  -->
<svg version="1.1" id="Capa_1" xmlns="http://www.w3.org/2000/svg" xmlns:xlink="http://www.w3.org/1999/xlink" x="0px" y="0px"
	 viewBox="0 0 310 310" style="enable-background:new 0 0 310 310;" xml:space="preserve">
<style type="text/css">
	.st0{opacity:0.2;fill:#110C0A;enable-background:new    ;}
	.st1{fill:#999999;}
	.st2{fill:#FFFFFF;}
	.st3{fill:url(#SVGID_1_);}
	.st4{fill:none;stroke:#A0349D;stroke-width:9;stroke-miterlimit:10;}
	.st5{fill:#C00C0A;}
	.st6{fill:#110C0A;}
	.st7{fill:url(#SVGID_00000085229850256322050620000017314332598120677533_);}
	.st8{fill:url(#SVGID_00000000945285804047004210000016268309262497042111_);}
	.st9{fill:url(#SVGID_00000146465718652804243140000001091551566960464025_);}
	.st10{fill:url(#SVGID_00000014611761524806327820000005307574134241235134_);}
	.st11{fill:url(#SVGID_00000018934681777299681030000013334538831567670687_);}
	.st12{fill:url(#SVGID_00000081633377897342267830000006815134508995444619_);}
	.st13{fill:url(#SVGID_00000045611393470801786070000010450978524234421412_);}
	.st14{fill:url(#SVGID_00000150066636813511007700000000787417640541469059_);}
	.st15{fill:url(#SVGID_00000070119644908757687010000013333432420129027229_);}
	.st16{fill:url(#SVGID_00000008841540992152702080000013265903657185044652_);}
	.st17{fill:url(#SVGID_00000167388413202546542520000000248147207071375289_);}
	.st18{fill:url(#SVGID_00000093863211154926635610000003515476590479500724_);}
	.st19{fill:url(#SVGID_00000068653963639104864740000003364783146610089372_);}
	.st20{fill:url(#SVGID_00000095312248018251349340000002952151189474480540_);}
	.st21{fill:url(#SVGID_00000016796296290717844340000015926447099469663133_);}
	.st22{fill:url(#SVGID_00000031193776306378562010000013405309972333298361_);}
	.st23{fill:url(#SVGID_00000034787954564697611860000006482232886878090402_);}
	.st24{fill:url(#SVGID_00000036932810700137303960000002054857867029899949_);}
	.st25{fill:url(#SVGID_00000144303962398313488170000010015807528099326614_);}
	.st26{fill:url(#SVGID_00000085225077320373388230000005093106340043689897_);}
	.st27{fill:url(#SVGID_00000062877197222842151940000009373319521570040481_);}
	.st28{fill:url(#SVGID_00000139273752463224738030000012607821937175445638_);}
	.st29{fill:url(#SVGID_00000043451458663515416290000014259955016761802890_);}
	.st30{fill:url(#SVGID_00000132076892634920462870000003091491976046142125_);}
	.st31{fill:url(#SVGID_00000140724430301363487970000007491018752739261095_);}
	.st32{fill:url(#SVGID_00000130615569494574469750000010493510077387059883_);}
	.st33{fill:url(#SVGID_00000168110633469252833580000004836558438741858479_);}
	.st34{fill:url(#SVGID_00000079480902133307168790000008110082651130823098_);}
	.st35{fill:url(#SVGID_00000114067081356840685760000006658196441988886455_);}
	.st36{fill:url(#SVGID_00000132046497200101850220000009100827336818642826_);}
	.st37{fill:url(#SVGID_00000113334968590156920880000001078162108848016557_);}
	.st38{fill:url(#SVGID_00000139267018763544846550000003797483738812940460_);}
	.st39{fill:url(#SVGID_00000142887023620648033290000012700809655897512341_);}
	.st40{fill:url(#SVGID_00000122699717262292354260000009409470631752417469_);}
	.st41{fill:url(#SVGID_00000017512208888201827720000016284298722462192266_);}
	.st42{fill:url(#SVGID_00000169533456047644500770000018068802117042811038_);}
	.st43{fill:url(#SVGID_00000011733206744758920540000002322522515156015254_);}
	.st44{fill:url(#SVGID_00000108297707124480988270000010051183038633860782_);}
	.st45{fill:url(#SVGID_00000178888420353975811060000011379141102822817678_);}
	.st46{fill:url(#SVGID_00000068678843680841561330000011176111042689723793_);}
	.st47{fill:url(#SVGID_00000108297622444411172730000012242063509222343327_);}
	.st48{fill:url(#SVGID_00000129887458166593870710000009683258370514462369_);}
	.st49{fill:url(#SVGID_00000127728145895565481180000013007719422657627034_);}
	.st50{fill:url(#SVGID_00000088848000523999644480000013776377496671598996_);}
	.st51{fill:url(#SVGID_00000034056448559706223330000016553429252690653060_);}
	.st52{fill:url(#SVGID_00000049219963497279381770000017249733460845733820_);}
	.st53{fill:url(#SVGID_00000086676011239637183140000003608684332229261222_);}
	.st54{fill:url(#SVGID_00000048477868671581018750000007211163852373764013_);}
	.st55{fill:url(#SVGID_00000150818104489240453720000002812198657693267892_);}
	.st56{fill:url(#SVGID_00000072990804640089368960000006553648146776229512_);}
	.st57{fill:url(#SVGID_00000010279238901623056290000008395092718053671615_);}
	.st58{fill:url(#SVGID_00000011727795390987909980000017283921322471576505_);}
	.st59{fill:url(#SVGID_00000102537161736400737570000011144258240947284387_);}
	.st60{fill:url(#SVGID_00000101077459716098338950000009593899302805201317_);}
	.st61{fill:url(#SVGID_00000046316680216452088700000003140634939744960925_);}
	.st62{fill:url(#SVGID_00000115486895148447956180000000876587337619021483_);}
	.st63{fill:url(#SVGID_00000055697364085260575600000015540290296050143917_);}
	.st64{fill:url(#SVGID_00000067214150392735115200000009460434533047156658_);}
	.st65{fill:url(#SVGID_00000183930434616594166410000012232216826658567049_);}
	.st66{fill:url(#SVGID_00000062872837520912103290000016516935439328027542_);}
	.st67{fill:url(#SVGID_00000095329586436442628520000004176916528282044825_);}
	.st68{fill:url(#SVGID_00000074432496185210135850000012677672899678329749_);}
	.st69{fill:url(#SVGID_00000057123537925700398360000012228386124324794507_);}
	.st70{fill:url(#SVGID_00000056385385179033582540000012677940995479624084_);}
	.st71{fill:url(#SVGID_00000040570110658744390320000013265169332093017495_);}
	.st72{fill:url(#SVGID_00000064352689241614093140000006914126810304274817_);}
	.st73{fill:url(#SVGID_00000092449757414625904180000004075867479529478333_);}
	.st74{fill:url(#SVGID_00000157300200932108082390000016836135289801790118_);}
	.st75{fill:url(#SVGID_00000044864852905046603160000011656365080090120855_);}
	.st76{fill:url(#SVGID_00000055672586053073777710000013025291986935305634_);}
	.st77{fill:url(#SVGID_00000098904541408945215440000002696314842312391829_);}
</style>
<g>
	<path class="st0" d="M55.7,60.2L55.1,60c-3.5-1.5-7.6,0.1-9.3,3.5l-27.1,55.2l205.7,120.1l11.6,1.9l0,0l4.8-3l0,0l5.7-3.4
		c0,0-152.3-92.6-158.2-93.3L55.7,60.2z"/>
	<g>
		<polygon class="st1" points="242.7,237 260.7,226 44.7,104.3 25.3,114.8 231.1,235 		"/>
		<rect x="46.6" y="104.7" transform="matrix(0.5 -0.866 0.866 0.5 -68.4756 94.2247)" class="st2" width="1.6" height="3.4"/>
		<path class="st2" d="M75.9,47.7l-19.3,9.4c-2.3,1.1-4.1,2.9-5.2,5.2l-26.3,52.6l22-9.3L75.9,47.7z"/>
		
			<linearGradient id="SVGID_1_" gradientUnits="userSpaceOnUse" x1="-1295.6704" y1="1583.0614" x2="-1295.6704" y2="1594.6123" gradientTransform="matrix(0.866 0.5 0.5 -0.866 468.712 2194.8569)">
			<stop  offset="0.3111" style="stop-color:#000000"/>
			<stop  offset="1" style="stop-color:#37475E"/>
		</linearGradient>
		<path class="st3" d="M254.2,225.4L49,106.9c-2-1.1-4.5-1.2-6.5-0.1l-12.3,5.9c1.4,1,22.4,7.2,22.4,7.2l188.1,108.6L254.2,225.4z"
			/>
		<path class="st2" d="M287.8,170L75.9,47.7l-29.3,57.8l208.8,120.6c2.6,1.5,5.9,0.6,7.4-2l27-46.7
			C291.2,174.8,290.4,171.5,287.8,170z"/>
		<polygon class="st5" points="247.6,234 242.7,237 240.8,235.9 245.8,233 		"/>
		<path class="st2" d="M253.1,230.6c0,0,4.8-3.1,1.9-4.8c-1.2-0.7-2-1.1-2-1.1l8,1.2L253.1,230.6z"/>
		<ellipse transform="matrix(0.5 -0.866 0.866 0.5 -87.0756 117.2247)" class="st6" cx="58" cy="134" rx="4.5" ry="10.5"/>
		<ellipse transform="matrix(0.5 -0.866 0.866 0.5 -87.0756 117.2247)" class="st2" cx="58" cy="134" rx="2" ry="4.8"/>
		<g>
			<ellipse transform="matrix(0.5 -0.866 0.866 0.5 -87.0756 281.8247)" class="st6" cx="200.5" cy="216.3" rx="4.5" ry="10.5"/>
			<ellipse transform="matrix(0.5 -0.866 0.866 0.5 -87.0756 281.8247)" class="st2" cx="200.5" cy="216.3" rx="2" ry="4.8"/>
		</g>
		<g>
			<ellipse transform="matrix(0.5 -0.866 0.866 0.5 -87.0756 304.1247)" class="st6" cx="219.8" cy="227.5" rx="4.5" ry="10.5"/>
			<ellipse transform="matrix(0.5 -0.866 0.866 0.5 -87.0756 304.1247)" class="st2" cx="219.8" cy="227.5" rx="2" ry="4.8"/>
		</g>
		
			<linearGradient id="SVGID_00000090278818068217314970000011645425204881136303_" gradientUnits="userSpaceOnUse" x1="-1424.0204" y1="1625.5704" x2="-1410.9435" y2="1625.5704" gradientTransform="matrix(0.866 0.5 0.5 -0.866 468.712 2194.8569)">
			<stop  offset="0.3111" style="stop-color:#000000"/>
			<stop  offset="1" style="stop-color:#37475E"/>
		</linearGradient>
		<path style="fill:url(#SVGID_00000090278818068217314970000011645425204881136303_);" d="M46.9,103.7l3.5-6.9l0,0l25.2-49l-16.2,8
			l-26.6,53.2l11.1-5C43.9,104.1,45.8,103.3,46.9,103.7z"/>
	</g>
</g>
</svg>
