<?xml version="1.0" encoding="utf-8"?>
<!-- Generator: Adobe Illustrator 25.4.1, SVG Export Plug-In . SVG Version: 6.00 Build 0)  -->
<svg version="1.1" id="Capa_1" xmlns="http://www.w3.org/2000/svg" xmlns:xlink="http://www.w3.org/1999/xlink" x="0px" y="0px"
	 viewBox="0 0 310 310" style="enable-background:new 0 0 310 310;" xml:space="preserve">
<style type="text/css">
	.st0{opacity:0.2;fill:#110C0A;enable-background:new    ;}
	.st1{fill:#999999;}
	.st2{fill:#FFFFFF;}
	.st3{fill:url(#SVGID_1_);}
	.st4{fill:none;stroke:#A0349D;stroke-width:9;stroke-miterlimit:10;}
	.st5{fill:#C00C0A;}
	.st6{fill:#110C0A;}
	.st7{fill:url(#SVGID_00000140009477711265285860000018282172230377408691_);}
	.st8{fill:url(#SVGID_00000060013995056707117410000000502523190048140421_);}
	.st9{fill:url(#SVGID_00000142874312730237800670000015600634586437394851_);}
	.st10{fill:url(#SVGID_00000070837876955582784870000008824147731756174248_);}
	.st11{fill:url(#SVGID_00000091713358057149884390000016833264809858047638_);}
	.st12{fill:url(#SVGID_00000146477340739476072940000006699057273085729428_);}
	.st13{fill:url(#SVGID_00000055697654891490818980000001373932704095519672_);}
	.st14{fill:url(#SVGID_00000071524266349098777850000008077911460121307301_);}
	.st15{fill:url(#SVGID_00000042715761067294035000000017669005037691203497_);}
	.st16{fill:url(#SVGID_00000160887877781664328280000017405362862178311086_);}
	.st17{fill:url(#SVGID_00000089568125943052332130000006743396799709006221_);}
	.st18{fill:url(#SVGID_00000183946401741953952770000006893438735447856040_);}
	.st19{fill:url(#SVGID_00000098208945030700632050000004273892041941201578_);}
	.st20{fill:url(#SVGID_00000101815950124361191020000000617469340345247882_);}
	.st21{fill:url(#SVGID_00000008830171437607784460000009794705014541063328_);}
	.st22{fill:url(#SVGID_00000114068032214982610630000009812261286858943882_);}
	.st23{fill:url(#SVGID_00000178918186341012281200000011735756322540624289_);}
	.st24{fill:url(#SVGID_00000134247818879349007780000008854891443880373137_);}
	.st25{fill:url(#SVGID_00000042728514563524443450000007925970236574741431_);}
	.st26{fill:url(#SVGID_00000183971808676490620200000015713454444754323610_);}
	.st27{fill:url(#SVGID_00000039835482899669410230000015688421447823835780_);}
	.st28{fill:url(#SVGID_00000088828412888781231020000008475752448188784018_);}
	.st29{fill:url(#SVGID_00000031915949792728690520000008696773827423130523_);}
	.st30{fill:url(#SVGID_00000054970310947561635870000000389921217057927576_);}
	.st31{fill:url(#SVGID_00000165204793444556179460000001808030606049381007_);}
	.st32{fill:url(#SVGID_00000098215589946571299910000003078284715150556551_);}
	.st33{fill:url(#SVGID_00000017507642618766670870000007228452127755955335_);}
	.st34{fill:url(#SVGID_00000125592962404145365900000016112297374548594337_);}
	.st35{fill:url(#SVGID_00000133492761869869159840000016456546997880708001_);}
	.st36{fill:url(#SVGID_00000167359112847903232570000009019897535383065004_);}
	.st37{fill:url(#SVGID_00000057122238302735768630000003083219767268008870_);}
	.st38{fill:url(#SVGID_00000085932234966064390750000005524471459465311144_);}
	.st39{fill:url(#SVGID_00000033371641689258651880000003427565089116445319_);}
	.st40{fill:url(#SVGID_00000088848707838410427100000016908211163683256238_);}
	.st41{fill:url(#SVGID_00000145016457052773327140000013488183227465655956_);}
	.st42{fill:url(#SVGID_00000143612888808497002970000016374828760019363251_);}
	.st43{fill:url(#SVGID_00000015353967999945154300000017430171070025163925_);}
	.st44{fill:url(#SVGID_00000035522351136422205890000009305269296463872412_);}
	.st45{fill:url(#SVGID_00000176731355594631648180000008188069461067839678_);}
	.st46{fill:url(#SVGID_00000122693979728793157800000004727514751248298680_);}
	.st47{fill:url(#SVGID_00000124130096384078018650000009042398609010594690_);}
	.st48{fill:url(#SVGID_00000047750002344824787370000013615473481839805081_);}
	.st49{fill:url(#SVGID_00000162336198384118525760000018409445117645779367_);}
	.st50{fill:url(#SVGID_00000034803168570401171050000010001232046187012783_);}
	.st51{fill:url(#SVGID_00000144339027419413882200000007532564975046537131_);}
	.st52{fill:url(#SVGID_00000163043507421784772630000005090075389401288871_);}
	.st53{fill:url(#SVGID_00000012434518877589885350000012120362834249573016_);}
	.st54{fill:url(#SVGID_00000159455686502916995580000014356871507408898963_);}
	.st55{fill:url(#SVGID_00000047054103424092854700000018231010326247797945_);}
	.st56{fill:url(#SVGID_00000122693876015659330060000015241193230795998102_);}
	.st57{fill:url(#SVGID_00000134220827681360463370000010886073131151421591_);}
	.st58{fill:url(#SVGID_00000179631968981427072370000007972234316418518657_);}
	.st59{fill:url(#SVGID_00000046337368016241799870000007735510082735647379_);}
	.st60{fill:url(#SVGID_00000072259601941053067300000003322821724924794514_);}
	.st61{fill:url(#SVGID_00000022544550884503988400000006553184813721879203_);}
	.st62{fill:url(#SVGID_00000072249481501730628690000001629855587850166953_);}
	.st63{fill:url(#SVGID_00000165218986700130662330000001390987915252946098_);}
	.st64{fill:url(#SVGID_00000010306984306275005190000016970462248238295198_);}
	.st65{fill:url(#SVGID_00000090980908639799804670000010325401175093532073_);}
	.st66{fill:url(#SVGID_00000093146947917562307620000005515212716984794042_);}
	.st67{fill:url(#SVGID_00000096052123842087236640000001376455848047123112_);}
	.st68{fill:url(#SVGID_00000040567875348244653560000007157308117380684213_);}
	.st69{fill:url(#SVGID_00000001652380048443650310000007815633103273761442_);}
	.st70{fill:url(#SVGID_00000003075714445499966830000005182612906763341236_);}
	.st71{fill:url(#SVGID_00000121961541948919482130000017682748118758398137_);}
	.st72{fill:url(#SVGID_00000127761813603491577600000016533313539308323470_);}
	.st73{fill:url(#SVGID_00000069370824876772353240000008478533268513745299_);}
	.st74{fill:url(#SVGID_00000047742599345575731830000002365027509267278754_);}
	.st75{fill:url(#SVGID_00000134223182939539615560000008226206092232660651_);}
	.st76{fill:url(#SVGID_00000011727205752687872290000009670299664006191247_);}
	.st77{fill:url(#SVGID_00000096059912839200714100000005777300578795860886_);}
</style>
<g>
	<path class="st0" d="M71.6,44.3L71.1,44c-3.2-2.1-7.5-1.2-9.8,1.8L25,95.5l181.8,154l11.1,3.9l0,0l5.3-2.1l0,0l6.2-2.4
		c0,0-133.9-117.6-139.6-119.3L71.6,44.3z"/>
	<g>
		<polygon class="st1" points="225,250.8 244.7,243.2 53.1,85.8 32.2,92.8 214,246.9 		"/>
		<rect x="54.6" y="86.7" transform="matrix(0.6428 -0.766 0.766 0.6428 -47.9075 73.9729)" class="st2" width="1.6" height="3.4"/>
		<path class="st2" d="M93.7,35.5l-20.6,5.9c-2.4,0.7-4.6,2.2-6,4.2L32,92.9l23.3-5.4L93.7,35.5z"/>
		
			<linearGradient id="SVGID_1_" gradientUnits="userSpaceOnUse" x1="-1671.7242" y1="1959.1152" x2="-1671.7242" y2="1970.6661" gradientTransform="matrix(0.766 0.6428 0.6428 -0.766 154.0084 2748.0337)">
			<stop  offset="0.3111" style="stop-color:#000000"/>
			<stop  offset="1" style="stop-color:#37475E"/>
		</linearGradient>
		<path class="st3" d="M238.4,241.4L56.9,89.1c-1.8-1.5-4.2-2-6.4-1.2l-13.2,3.7c1.2,1.2,20.8,11,20.8,11l166.4,139.6L238.4,241.4z"
			/>
		<path class="st2" d="M281.1,192.8L93.7,35.5L54.8,87.3l184.7,155c2.3,1.9,5.7,1.6,7.6-0.7l34.6-41.3
			C283.7,198.1,283.4,194.7,281.1,192.8z"/>
		<polygon class="st5" points="230.4,248.8 225,250.8 223.4,249.5 228.8,247.4 		"/>
		<path class="st2" d="M236.4,246.4c0,0,5.3-2.2,2.7-4.4c-1.1-0.9-1.8-1.5-1.8-1.5l7.7,2.5L236.4,246.4z"/>
		<ellipse transform="matrix(0.6428 -0.766 0.766 0.6428 -68.1248 88.6819)" class="st6" cx="61" cy="117.4" rx="4.5" ry="10.5"/>
		<ellipse transform="matrix(0.6428 -0.766 0.766 0.6428 -68.1248 88.6819)" class="st2" cx="61" cy="117.4" rx="2" ry="4.8"/>
		<g>
			
				<ellipse transform="matrix(0.6428 -0.766 0.766 0.6428 -104.1332 223.0672)" class="st6" cx="187.1" cy="223.2" rx="4.5" ry="10.5"/>
			
				<ellipse transform="matrix(0.6428 -0.766 0.766 0.6428 -104.1332 223.0672)" class="st2" cx="187.1" cy="223.2" rx="2" ry="4.8"/>
		</g>
		<g>
			
				<ellipse transform="matrix(0.6428 -0.766 0.766 0.6428 -109.0117 241.2738)" class="st6" cx="204.2" cy="237.5" rx="4.5" ry="10.5"/>
			
				<ellipse transform="matrix(0.6428 -0.766 0.766 0.6428 -109.0117 241.2738)" class="st2" cx="204.2" cy="237.5" rx="2" ry="4.8"/>
		</g>
		
			<linearGradient id="SVGID_00000027586337791533265120000001262777542066595460_" gradientUnits="userSpaceOnUse" x1="-1800.0742" y1="2001.6243" x2="-1786.9973" y2="2001.6243" gradientTransform="matrix(0.766 0.6428 0.6428 -0.766 154.0084 2748.0337)">
			<stop  offset="0.3111" style="stop-color:#000000"/>
			<stop  offset="1" style="stop-color:#37475E"/>
		</linearGradient>
		<path style="fill:url(#SVGID_00000027586337791533265120000001262777542066595460_);" d="M55.3,85.6l4.6-6.2l0,0l33.3-43.9
			L76,40.6L40.5,88.4l11.8-3C52.3,85.4,54.4,85,55.3,85.6z"/>
	</g>
</g>
</svg>
