<?xml version="1.0" encoding="utf-8"?>
<!-- Generator: Adobe Illustrator 25.4.1, SVG Export Plug-In . SVG Version: 6.00 Build 0)  -->
<svg version="1.1" id="Capa_1" xmlns="http://www.w3.org/2000/svg" xmlns:xlink="http://www.w3.org/1999/xlink" x="0px" y="0px"
	 viewBox="0 0 310 310" style="enable-background:new 0 0 310 310;" xml:space="preserve">
<style type="text/css">
	.st0{opacity:0.2;fill:#110C0A;enable-background:new    ;}
	.st1{fill:#999999;}
	.st2{fill:#FFFFFF;}
	.st3{fill:url(#SVGID_1_);}
	.st4{fill:none;stroke:#A0349D;stroke-width:9;stroke-miterlimit:10;}
	.st5{fill:#C00C0A;}
	.st6{fill:#110C0A;}
	.st7{fill:url(#SVGID_00000170244182922582594920000012197743366583534993_);}
	.st8{fill:url(#SVGID_00000096749803902185875590000006220423963256775330_);}
	.st9{fill:url(#SVGID_00000101817980079682174710000012241083466411183292_);}
	.st10{fill:url(#SVGID_00000101068925726260295630000004978622253381171854_);}
	.st11{fill:url(#SVGID_00000057140191436723248340000001691168940432330651_);}
	.st12{fill:url(#SVGID_00000163059761118482485410000005028321868676418236_);}
	.st13{fill:url(#SVGID_00000065778877603945762620000012394935585727225483_);}
	.st14{fill:url(#SVGID_00000006709030504258868210000013529125688716660097_);}
	.st15{fill:url(#SVGID_00000008113336848249619650000000384402195066611349_);}
	.st16{fill:url(#SVGID_00000086662313026841445920000002312331572958328235_);}
	.st17{fill:url(#SVGID_00000144332004266040383370000011385808838356197042_);}
	.st18{fill:url(#SVGID_00000029005760814133091760000018151481789056275078_);}
	.st19{fill:url(#SVGID_00000176004757147178987910000002333180466751157143_);}
	.st20{fill:url(#SVGID_00000066480017873069523060000009915559363963549569_);}
	.st21{fill:url(#SVGID_00000131364013744634699170000013505010507244598461_);}
	.st22{fill:url(#SVGID_00000044150321557669444670000014430459069889190577_);}
	.st23{fill:url(#SVGID_00000062175296754469791730000005461256501770486206_);}
	.st24{fill:url(#SVGID_00000179630987939576337430000010270992797984188071_);}
	.st25{fill:url(#SVGID_00000082343271532984118030000003562310026383308169_);}
	.st26{fill:url(#SVGID_00000086688210409862773860000014707358202986737547_);}
	.st27{fill:url(#SVGID_00000122701364170093070310000004484797420450100651_);}
	.st28{fill:url(#SVGID_00000086674390674024138570000001488074798131109293_);}
	.st29{fill:url(#SVGID_00000029737975200233401420000007342945482302161312_);}
	.st30{fill:url(#SVGID_00000009570793962439444430000000237241383957597627_);}
	.st31{fill:url(#SVGID_00000178894401321733127150000017822045371818822040_);}
	.st32{fill:url(#SVGID_00000107570326367786196170000011210399178092011410_);}
	.st33{fill:url(#SVGID_00000104702012111183070110000009488826288492454544_);}
	.st34{fill:url(#SVGID_00000102536664417055213050000008003180298177542076_);}
	.st35{fill:url(#SVGID_00000119099317607368456280000015196372991392555160_);}
	.st36{fill:url(#SVGID_00000080904154843934553330000007703851029204612751_);}
	.st37{fill:url(#SVGID_00000012446030392532403960000003380871100736805300_);}
	.st38{fill:url(#SVGID_00000123418268684953826690000011652955460775061425_);}
	.st39{fill:url(#SVGID_00000025441041007527805690000004690618569591482762_);}
	.st40{fill:url(#SVGID_00000087384875593507295100000008324475009715957395_);}
	.st41{fill:url(#SVGID_00000183212804432781847690000004453764520634114991_);}
	.st42{fill:url(#SVGID_00000088105120122374565200000011164726396925482149_);}
	.st43{fill:url(#SVGID_00000137133752274153189930000007722650952721853582_);}
	.st44{fill:url(#SVGID_00000057851169044161591620000011768039860223377040_);}
	.st45{fill:url(#SVGID_00000098178496226889180890000014076728855191086266_);}
	.st46{fill:url(#SVGID_00000101105602743289026810000011391016403084061319_);}
	.st47{fill:url(#SVGID_00000172417569330224319420000005489352590647314573_);}
	.st48{fill:url(#SVGID_00000037655957858272044140000015952714994801405588_);}
	.st49{fill:url(#SVGID_00000104707466915129217320000016879031945894967957_);}
	.st50{fill:url(#SVGID_00000071533491878267798310000013859378362117861509_);}
	.st51{fill:url(#SVGID_00000082353437319585661050000015593418825583215003_);}
	.st52{fill:url(#SVGID_00000182499424127582975300000013178214327602795705_);}
	.st53{fill:url(#SVGID_00000073691453364369387680000007040304764675478665_);}
	.st54{fill:url(#SVGID_00000065775972829846499790000016758044673835630470_);}
	.st55{fill:url(#SVGID_00000036219430969343031980000014047028657160941208_);}
	.st56{fill:url(#SVGID_00000016753852332265571010000012176217216940170395_);}
	.st57{fill:url(#SVGID_00000136381441949604372850000006565126540867419572_);}
	.st58{fill:url(#SVGID_00000041976984713545669060000009122242811513985432_);}
	.st59{fill:url(#SVGID_00000114793654256536114690000009652989139908741033_);}
	.st60{fill:url(#SVGID_00000084517795177101011650000009867141170531130255_);}
	.st61{fill:url(#SVGID_00000068652126592529777340000007873643902126138252_);}
	.st62{fill:url(#SVGID_00000062882235856170699090000013689909787586633892_);}
	.st63{fill:url(#SVGID_00000069360165991638086850000004710957588812838324_);}
	.st64{fill:url(#SVGID_00000132047695487095335690000001057640377053086369_);}
	.st65{fill:url(#SVGID_00000065760803486172139900000018238003481369384116_);}
	.st66{fill:url(#SVGID_00000018955089264125208470000010735842802793191103_);}
	.st67{fill:url(#SVGID_00000161590823364420881730000014694304539727440772_);}
	.st68{fill:url(#SVGID_00000110444537615723565980000014569292291580845984_);}
	.st69{fill:url(#SVGID_00000119832954211529805100000004778253062362899348_);}
	.st70{fill:url(#SVGID_00000137853020122291405240000011310215922189709754_);}
	.st71{fill:url(#SVGID_00000142171501877263726390000007317790089427798415_);}
	.st72{fill:url(#SVGID_00000075871612579406744510000014308927753091133340_);}
	.st73{fill:url(#SVGID_00000049221397306522917660000008079479363073487792_);}
	.st74{fill:url(#SVGID_00000148647958252684877310000001451413697033285281_);}
	.st75{fill:url(#SVGID_00000078013316968872599980000017000141815969064836_);}
	.st76{fill:url(#SVGID_00000092441870940997790270000009064071022473770425_);}
	.st77{fill:url(#SVGID_00000169546233666370862640000014463952556792175278_);}
</style>
<g>
	<path class="st0" d="M90.1,31.5l-0.5-0.4c-2.8-2.6-7.2-2.5-9.9,0.1L35.3,73.8L187.6,257l10.2,5.8l0,0l5.6-1.1l0,0l6.5-1.3
		c0,0-111.5-139.1-116.7-141.7L90.1,31.5z"/>
	<g>
		<polygon class="st1" points="205.4,261.5 226.1,257.5 64.7,69.1 42.9,72.4 195.2,255.7 		"/>
		<rect x="65.7" y="70.4" transform="matrix(0.766 -0.6428 0.6428 0.766 -30.7713 59.6023)" class="st2" width="1.6" height="3.4"/>
		<path class="st2" d="M113.4,26.7L92.1,29c-2.5,0.3-4.9,1.3-6.7,3.1L42.7,72.5l23.9-1.2L113.4,26.7z"/>
		
			<linearGradient id="SVGID_1_" gradientUnits="userSpaceOnUse" x1="-2044.0913" y1="2331.4822" x2="-2044.0913" y2="2343.0332" gradientTransform="matrix(0.6428 0.766 0.766 -0.6428 -344.1069 3233.0767)">
			<stop  offset="0.3111" style="stop-color:#000000"/>
			<stop  offset="1" style="stop-color:#37475E"/>
		</linearGradient>
		<path class="st3" d="M220.2,254.6L67.9,73.1c-1.5-1.8-3.8-2.7-6.1-2.3l-13.6,1.4c0.9,1.4,18.6,14.4,18.6,14.4L206.4,253
			L220.2,254.6z"/>
		<path class="st2" d="M270.6,214.1L113.4,26.7L66.1,71l155,184.7c1.9,2.3,5.3,2.6,7.6,0.7l41.3-34.6
			C272.3,219.8,272.6,216.4,270.6,214.1z"/>
		<polygon class="st5" points="211,260.5 205.4,261.5 204,259.9 209.6,258.9 		"/>
		<path class="st2" d="M217.4,259.2c0,0,5.6-1.3,3.5-3.8c-0.9-1.1-1.5-1.8-1.5-1.8l7.1,3.8L217.4,259.2z"/>
		<ellipse transform="matrix(0.766 -0.6428 0.6428 0.766 -49.6563 66.8658)" class="st6" cx="67" cy="101.6" rx="4.5" ry="10.5"/>
		<ellipse transform="matrix(0.766 -0.6428 0.6428 0.766 -49.6563 66.8658)" class="st2" cx="67" cy="101.6" rx="2" ry="4.8"/>
		<g>
			
				<ellipse transform="matrix(0.766 -0.6428 0.6428 0.766 -105.9528 164.3742)" class="st6" cx="172.8" cy="227.7" rx="4.5" ry="10.5"/>
			
				<ellipse transform="matrix(0.766 -0.6428 0.6428 0.766 -105.9528 164.3742)" class="st2" cx="172.8" cy="227.7" rx="2" ry="4.8"/>
		</g>
		<g>
			
				<ellipse transform="matrix(0.766 -0.6428 0.6428 0.766 -113.5799 177.5847)" class="st6" cx="187.2" cy="244.8" rx="4.5" ry="10.5"/>
			
				<ellipse transform="matrix(0.766 -0.6428 0.6428 0.766 -113.5799 177.5847)" class="st2" cx="187.2" cy="244.8" rx="2" ry="4.8"/>
		</g>
		
			<linearGradient id="SVGID_00000023250834865182807380000012241453365975291778_" gradientUnits="userSpaceOnUse" x1="-2172.4412" y1="2373.9912" x2="-2159.3643" y2="2373.9912" gradientTransform="matrix(0.6428 0.766 0.766 -0.6428 -344.1069 3233.0767)">
			<stop  offset="0.3111" style="stop-color:#000000"/>
			<stop  offset="1" style="stop-color:#37475E"/>
		</linearGradient>
		<path style="fill:url(#SVGID_00000023250834865182807380000012241453365975291778_);" d="M66.9,69.3l5.6-5.3l0,0L113,26.7l-17.9,2
			L51.9,69.6L64,68.7C64,68.7,66.1,68.6,66.9,69.3z"/>
	</g>
</g>
</svg>
