<?xml version="1.0" encoding="utf-8"?>
<!-- Generator: Adobe Illustrator 25.4.1, SVG Export Plug-In . SVG Version: 6.00 Build 0)  -->
<svg version="1.1" id="Capa_1" xmlns="http://www.w3.org/2000/svg" xmlns:xlink="http://www.w3.org/1999/xlink" x="0px" y="0px"
	 viewBox="0 0 310 310" style="enable-background:new 0 0 310 310;" xml:space="preserve">
<style type="text/css">
	.st0{opacity:0.2;fill:#110C0A;enable-background:new    ;}
	.st1{fill:#999999;}
	.st2{fill:#FFFFFF;}
	.st3{fill:url(#SVGID_1_);}
	.st4{fill:none;stroke:#A0349D;stroke-width:9;stroke-miterlimit:10;}
	.st5{fill:#C00C0A;}
	.st6{fill:#110C0A;}
	.st7{fill:url(#SVGID_00000132782283120842483030000012440537797180985255_);}
	.st8{fill:url(#SVGID_00000181782169537175862890000012023302981244042131_);}
	.st9{fill:url(#SVGID_00000068672307624328510800000000106643641769252025_);}
	.st10{fill:url(#SVGID_00000170967129600562833080000000801050438500419501_);}
	.st11{fill:url(#SVGID_00000149347718470398108630000007467611776230033552_);}
	.st12{fill:url(#SVGID_00000124841157715532841540000002979068001723075754_);}
	.st13{fill:url(#SVGID_00000005983942609401737580000005170286330301194155_);}
	.st14{fill:url(#SVGID_00000000180746528276316350000010299853594217437346_);}
	.st15{fill:url(#SVGID_00000173843916482415304700000002387652197522982322_);}
	.st16{fill:url(#SVGID_00000160155186432695735250000012908173698700335026_);}
	.st17{fill:url(#SVGID_00000033328416248363355900000017176769532029265077_);}
	.st18{fill:url(#SVGID_00000043441059624558186800000016225518118911443110_);}
	.st19{fill:url(#SVGID_00000024712499766265296520000008911551986552788123_);}
	.st20{fill:url(#SVGID_00000051377010811226477190000014319365896627284362_);}
	.st21{fill:url(#SVGID_00000172436212356693161260000004696416214097318312_);}
	.st22{fill:url(#SVGID_00000116202727922729524450000017764923519050486928_);}
	.st23{fill:url(#SVGID_00000049216341734609467890000003934943156318857869_);}
	.st24{fill:url(#SVGID_00000163794273278366516440000001638243742375688582_);}
	.st25{fill:url(#SVGID_00000181784703615397699640000006971504563602923144_);}
	.st26{fill:url(#SVGID_00000126282486337980123590000006817073067395985792_);}
	.st27{fill:url(#SVGID_00000171699174817124799060000018088198044206992034_);}
	.st28{fill:url(#SVGID_00000144308207171228434080000013505117582237506946_);}
	.st29{fill:url(#SVGID_00000035533384096997484150000007606082531906112929_);}
	.st30{fill:url(#SVGID_00000158748156271297834570000012590120211695655325_);}
	.st31{fill:url(#SVGID_00000169555578626740673050000012761861932903762609_);}
	.st32{fill:url(#SVGID_00000032645137655649354760000003029183271144329611_);}
	.st33{fill:url(#SVGID_00000101824509152882135660000009860488708301278394_);}
	.st34{fill:url(#SVGID_00000183960105509841712400000002164421118213329315_);}
	.st35{fill:url(#SVGID_00000138563982273427720550000014284265759254548381_);}
	.st36{fill:url(#SVGID_00000173856914352060046000000000109036327685863347_);}
	.st37{fill:url(#SVGID_00000119093652793790341160000014089624628497820095_);}
	.st38{fill:url(#SVGID_00000050621979329805467400000012550328740073464237_);}
	.st39{fill:url(#SVGID_00000061442116733544051520000012700364257978891406_);}
	.st40{fill:url(#SVGID_00000096741195987644644960000007398102538369772204_);}
	.st41{fill:url(#SVGID_00000134945683226189567720000002790711636055445889_);}
	.st42{fill:url(#SVGID_00000123434609080247033540000016778718277947176086_);}
	.st43{fill:url(#SVGID_00000008145286965373655410000003525600388919185045_);}
	.st44{fill:url(#SVGID_00000065796241043141585300000001375462506247649955_);}
	.st45{fill:url(#SVGID_00000168803685576450662130000001583095808303876515_);}
	.st46{fill:url(#SVGID_00000182497242147199426450000011916524644022953613_);}
	.st47{fill:url(#SVGID_00000038398239183514464200000007223029848372457893_);}
	.st48{fill:url(#SVGID_00000139982855356798579260000004359805979534609327_);}
	.st49{fill:url(#SVGID_00000060023145176034531140000006781902391810278574_);}
	.st50{fill:url(#SVGID_00000108267016932913843750000018186186232511507900_);}
	.st51{fill:url(#SVGID_00000149371990609836674050000017183785380296527751_);}
	.st52{fill:url(#SVGID_00000180335170733214640870000007887467314423367042_);}
	.st53{fill:url(#SVGID_00000078016762966473085450000012620941462338002106_);}
	.st54{fill:url(#SVGID_00000072985285168748405940000015899127321274831531_);}
	.st55{fill:url(#SVGID_00000182494468227081998560000007952067351317438598_);}
	.st56{fill:url(#SVGID_00000157285858091514283800000006281137184056903102_);}
	.st57{fill:url(#SVGID_00000025429867332280314820000004786206493672058252_);}
	.st58{fill:url(#SVGID_00000140731613595316757580000016506948035953677444_);}
	.st59{fill:url(#SVGID_00000154383416286389125780000007307173200957979582_);}
	.st60{fill:url(#SVGID_00000093165759879544694810000012123901501891747203_);}
	.st61{fill:url(#SVGID_00000055671823140058152390000006016635037657761969_);}
	.st62{fill:url(#SVGID_00000054952487838599156970000017715891470787045253_);}
	.st63{fill:url(#SVGID_00000098206148307874292050000002680394526704250547_);}
	.st64{fill:url(#SVGID_00000109008872461109823330000017274249620074723460_);}
	.st65{fill:url(#SVGID_00000133515503080834413360000017425124963423564682_);}
	.st66{fill:url(#SVGID_00000139294665639069725220000002082912578889882521_);}
	.st67{fill:url(#SVGID_00000088095780530614775630000010323002805946261418_);}
	.st68{fill:url(#SVGID_00000009591091155360802640000015757368652579342727_);}
	.st69{fill:url(#SVGID_00000164494140405713267590000010986426688929812372_);}
	.st70{fill:url(#SVGID_00000177452493238619508940000017656747974733256637_);}
	.st71{fill:url(#SVGID_00000142865587815457034440000017466980950849655690_);}
	.st72{fill:url(#SVGID_00000105406820755512195650000008393147235121448855_);}
	.st73{fill:url(#SVGID_00000029757803041830623570000007905149121472738202_);}
	.st74{fill:url(#SVGID_00000170243461050331041660000012833340430340093829_);}
	.st75{fill:url(#SVGID_00000161612267507595539770000017704565195072909223_);}
	.st76{fill:url(#SVGID_00000062159550482288012860000000664811114423816867_);}
	.st77{fill:url(#SVGID_00000142177946208964992780000011959259145747713940_);}
</style>
<g>
	<path class="st0" d="M110.7,22.2l-0.4-0.5c-2.3-3-6.6-3.7-9.8-1.6L49.4,54.4l118.1,206.8l9.1,7.5l0,0l5.7-0.2l0,0l6.6-0.1
		c0,0-85.6-156.3-90.3-159.9L110.7,22.2z"/>
	<g>
		<polygon class="st1" points="184.3,268.7 205.4,268.3 79.1,54.9 57.1,54.3 175.2,261.3 		"/>
		<rect x="79.6" y="56.3" transform="matrix(0.866 -0.5 0.5 0.866 -18.2502 47.9825)" class="st2" width="1.6" height="3.4"/>
		<path class="st2" d="M134.5,21.5L113.1,20c-2.5-0.2-5,0.5-7.1,1.9L56.9,54.3l23.7,2.9L134.5,21.5z"/>
		
			<linearGradient id="SVGID_1_" gradientUnits="userSpaceOnUse" x1="-2420.145" y1="2707.5361" x2="-2420.145" y2="2719.0869" gradientTransform="matrix(0.5 0.866 0.866 -0.5 -1010.4977 3613.427)">
			<stop  offset="0.3111" style="stop-color:#000000"/>
			<stop  offset="1" style="stop-color:#37475E"/>
		</linearGradient>
		<path class="st3" d="M200.1,264.5L81.6,59.3c-1.2-2-3.3-3.3-5.6-3.3l-13.6-1c0.7,1.6,15.8,17.4,15.8,17.4l108.6,188.1L200.1,264.5
			z"/>
		<path class="st2" d="M256.8,233.3L134.5,21.5L80.2,56.9l120.6,208.8c1.5,2.6,4.8,3.5,7.4,2l46.7-26.9
			C257.4,239.2,258.3,235.9,256.8,233.3z"/>
		<polygon class="st5" points="190,268.7 184.3,268.7 183.2,266.9 189,266.8 		"/>
		<path class="st2" d="M196.5,268.5c0,0,5.7-0.3,4.1-3.2c-0.7-1.2-1.1-2-1.1-2l6.3,5L196.5,268.5z"/>
		<ellipse transform="matrix(0.866 -0.5 0.5 0.866 -33.4769 49.593)" class="st6" cx="75.8" cy="87.3" rx="4.5" ry="10.5"/>
		<ellipse transform="matrix(0.866 -0.5 0.5 0.866 -33.4769 49.593)" class="st2" cx="75.8" cy="87.3" rx="2" ry="4.8"/>
		<g>
			<ellipse transform="matrix(0.866 -0.5 0.5 0.866 -93.7247 109.8408)" class="st6" cx="158.1" cy="229.8" rx="4.5" ry="10.5"/>
			<ellipse transform="matrix(0.866 -0.5 0.5 0.866 -93.7247 109.8408)" class="st2" cx="158.1" cy="229.8" rx="2" ry="4.8"/>
		</g>
		<g>
			<ellipse transform="matrix(0.866 -0.5 0.5 0.866 -101.887 118.0031)" class="st6" cx="169.3" cy="249.1" rx="4.5" ry="10.5"/>
			<ellipse transform="matrix(0.866 -0.5 0.5 0.866 -101.887 118.0031)" class="st2" cx="169.3" cy="249.1" rx="2" ry="4.8"/>
		</g>
		
			<linearGradient id="SVGID_00000168102574592075274630000015887862750286848924_" gradientUnits="userSpaceOnUse" x1="-2548.4951" y1="2750.0452" x2="-2535.4182" y2="2750.0452" gradientTransform="matrix(0.5 0.866 0.866 -0.5 -1010.4977 3613.427)">
			<stop  offset="0.3111" style="stop-color:#000000"/>
			<stop  offset="1" style="stop-color:#37475E"/>
		</linearGradient>
		<path style="fill:url(#SVGID_00000168102574592075274630000015887862750286848924_);" d="M81.3,55.4l6.5-4.2l0,0l46.3-29.8
			l-18-1.2L66.4,53.1l12.1,1.2C78.6,54.3,80.6,54.6,81.3,55.4z"/>
	</g>
</g>
</svg>
