<?xml version="1.0" encoding="utf-8"?>
<!-- Generator: Adobe Illustrator 25.4.1, SVG Export Plug-In . SVG Version: 6.00 Build 0)  -->
<svg version="1.1" id="Capa_1" xmlns="http://www.w3.org/2000/svg" xmlns:xlink="http://www.w3.org/1999/xlink" x="0px" y="0px"
	 viewBox="0 0 310 310" style="enable-background:new 0 0 310 310;" xml:space="preserve">
<style type="text/css">
	.st0{opacity:0.2;fill:#110C0A;enable-background:new    ;}
	.st1{fill:#999999;}
	.st2{fill:#FFFFFF;}
	.st3{fill:url(#SVGID_1_);}
	.st4{fill:none;stroke:#A0349D;stroke-width:9;stroke-miterlimit:10;}
	.st5{fill:#C00C0A;}
	.st6{fill:#110C0A;}
	.st7{fill:url(#SVGID_00000039107193994114931320000017248377342783994281_);}
	.st8{fill:url(#SVGID_00000034083015790974884780000016736099617350384039_);}
	.st9{fill:url(#SVGID_00000052797715697226007620000001001665859641523854_);}
	.st10{fill:url(#SVGID_00000160189984162690006330000008492717957870630582_);}
	.st11{fill:url(#SVGID_00000128479377659654806230000012177351790729049743_);}
	.st12{fill:url(#SVGID_00000086650297218108573350000001182939374884259988_);}
	.st13{fill:url(#SVGID_00000042001509410244802860000010509245224357672583_);}
	.st14{fill:url(#SVGID_00000151529478500783751580000001235859480143467711_);}
	.st15{fill:url(#SVGID_00000088848772452094059210000009064659547537450687_);}
	.st16{fill:url(#SVGID_00000093874161747112228460000010870235851291093386_);}
	.st17{fill:url(#SVGID_00000085241515994305985090000007212920794682418097_);}
	.st18{fill:url(#SVGID_00000140005752609221557640000002198931650177018000_);}
	.st19{fill:url(#SVGID_00000081621150347393893320000011989700215840471740_);}
	.st20{fill:url(#SVGID_00000140708422997516994590000003445277052563218825_);}
	.st21{fill:url(#SVGID_00000029032385544192495650000004036271831857642938_);}
	.st22{fill:url(#SVGID_00000066504863729314760690000007125964977654561695_);}
	.st23{fill:url(#SVGID_00000101094572472168796870000004440447928696650638_);}
	.st24{fill:url(#SVGID_00000158727726710854328920000004533641285546890628_);}
	.st25{fill:url(#SVGID_00000098923077261285607370000012131279301135930261_);}
	.st26{fill:url(#SVGID_00000041284033151326327500000017460857543698078623_);}
	.st27{fill:url(#SVGID_00000071555804626601245350000002274433038223255684_);}
	.st28{fill:url(#SVGID_00000137828997980794866270000015365770487848668551_);}
	.st29{fill:url(#SVGID_00000016772595464555684890000017335638416678246057_);}
	.st30{fill:url(#SVGID_00000049943846253639360880000002202234364073827229_);}
	.st31{fill:url(#SVGID_00000132792519713377597610000001723042918965224594_);}
	.st32{fill:url(#SVGID_00000008136352921508765600000013762481576692398257_);}
	.st33{fill:url(#SVGID_00000173880096467642456330000017817240389054825620_);}
	.st34{fill:url(#SVGID_00000083769750208219036280000001053790880097417400_);}
	.st35{fill:url(#SVGID_00000126312161401135313260000012156586805609573822_);}
	.st36{fill:url(#SVGID_00000103263777933476185190000011095164971729869451_);}
	.st37{fill:url(#SVGID_00000059306523163998320760000012274625314936588441_);}
	.st38{fill:url(#SVGID_00000153673490470113494330000005057415526387625897_);}
	.st39{fill:url(#SVGID_00000010289098713147856160000003119744748935297705_);}
	.st40{fill:url(#SVGID_00000112602020016470384520000013959423014230436026_);}
	.st41{fill:url(#SVGID_00000055672971554288003230000005031566497082420628_);}
	.st42{fill:url(#SVGID_00000128472842317009435690000016625374522214798984_);}
	.st43{fill:url(#SVGID_00000003065719096076660400000016047509776194232254_);}
	.st44{fill:url(#SVGID_00000148641971970591446730000010470887790464836527_);}
	.st45{fill:url(#SVGID_00000183959501001342119070000010563767225284288657_);}
	.st46{fill:url(#SVGID_00000019662169177743480100000018200799321930461344_);}
	.st47{fill:url(#SVGID_00000042703617399443980730000011083053714844493720_);}
	.st48{fill:url(#SVGID_00000158732927508020294900000002803549969217737652_);}
	.st49{fill:url(#SVGID_00000114783373755759648400000018058807431258481595_);}
	.st50{fill:url(#SVGID_00000117675640974193658120000017572252293324510873_);}
	.st51{fill:url(#SVGID_00000121246480723277877660000001285543473648294076_);}
	.st52{fill:url(#SVGID_00000006666528893544544770000011029896462855023546_);}
	.st53{fill:url(#SVGID_00000171713207058749111220000005224410512625727119_);}
	.st54{fill:url(#SVGID_00000092440759544796887490000012997728967381731480_);}
	.st55{fill:url(#SVGID_00000183936628671067726170000016284541502806244018_);}
	.st56{fill:url(#SVGID_00000015336800137821223160000005625739807444174516_);}
	.st57{fill:url(#SVGID_00000134971503751346566100000012458923551757949840_);}
	.st58{fill:url(#SVGID_00000127750861876465489010000003212695600024607361_);}
	.st59{fill:url(#SVGID_00000165935795051469276310000005892324763376391838_);}
	.st60{fill:url(#SVGID_00000008139930677654162570000000156227956267393197_);}
	.st61{fill:url(#SVGID_00000056393087473305840820000002496343257641732031_);}
	.st62{fill:url(#SVGID_00000044877994519537770100000016597291186903253923_);}
	.st63{fill:url(#SVGID_00000013161510825843107890000017567339505207761037_);}
	.st64{fill:url(#SVGID_00000067924270301908014010000001971422619888267955_);}
	.st65{fill:url(#SVGID_00000066485748131989846580000002934696479714570919_);}
	.st66{fill:url(#SVGID_00000105391376557304772260000017596878261429864356_);}
	.st67{fill:url(#SVGID_00000138545793285957052190000007884702665077439163_);}
	.st68{fill:url(#SVGID_00000073710388907997505610000008541513645275775160_);}
	.st69{fill:url(#SVGID_00000174592884069420667160000007620350795698191002_);}
	.st70{fill:url(#SVGID_00000083078623395405801030000014414807168659537051_);}
	.st71{fill:url(#SVGID_00000014623310895207691410000015687415318112560302_);}
	.st72{fill:url(#SVGID_00000170250653778220513230000014610650698023597967_);}
	.st73{fill:url(#SVGID_00000152229762102772816860000008950572678651772841_);}
	.st74{fill:url(#SVGID_00000128469923257005419150000005754052088619058086_);}
	.st75{fill:url(#SVGID_00000039842299337087659120000010539596742530044317_);}
	.st76{fill:url(#SVGID_00000029757008156967504870000007872163029924251554_);}
	.st77{fill:url(#SVGID_00000008144607983939929220000016695048008971088288_);}
</style>
<g>
	<path class="st0" d="M132.5,16.6l-0.3-0.5c-1.8-3.4-5.9-4.8-9.4-3.3L66.5,37.6L147,261.9l7.6,8.9l0,0l5.6,0.8l0,0l6.5,1
		c0,0-57.2-168.8-61.2-173.1L132.5,16.6z"/>
	<g>
		<polygon class="st1" points="162.1,272.2 183,275.5 95.7,43.3 74.1,38.9 154.5,263.3 		"/>
		<rect x="95.6" y="45" transform="matrix(0.9397 -0.342 0.342 0.9397 -10.1454 35.7902)" class="st2" width="1.6" height="3.4"/>
		<path class="st2" d="M156,20.1l-20.8-5.2c-2.5-0.6-5-0.4-7.3,0.6l-54,23.4l22.9,7L156,20.1z"/>
		
			<linearGradient id="SVGID_1_" gradientUnits="userSpaceOnUse" x1="-2796.199" y1="3083.5898" x2="-2796.199" y2="3095.1409" gradientTransform="matrix(0.342 0.9397 0.9397 -0.342 -1820.0626 3840.5886)">
			<stop  offset="0.3111" style="stop-color:#000000"/>
			<stop  offset="1" style="stop-color:#37475E"/>
		</linearGradient>
		<path class="st3" d="M178.4,270.7l-81-222.6c-0.8-2.2-2.7-3.8-5-4.3l-13.3-3.4c0.4,1.7,12.6,19.9,12.6,19.9L166,264.5L178.4,270.7
			z"/>
		<path class="st2" d="M239.7,249.9L156,20.1L96.4,45.5l82.5,226.6c1,2.8,4.1,4.3,6.9,3.2l50.6-18.4
			C239.3,255.8,240.7,252.7,239.7,249.9z"/>
		<polygon class="st5" points="167.8,273.1 162.1,272.2 161.4,270.2 167.1,271.1 		"/>
		<path class="st2" d="M174.2,274.1c0,0,5.7,0.7,4.6-2.4c-0.5-1.3-0.8-2.2-0.8-2.2l5.4,6L174.2,274.1z"/>
		<ellipse transform="matrix(0.9397 -0.342 0.342 0.9397 -20.2929 34.1898)" class="st6" cx="86.8" cy="74.6" rx="4.5" ry="10.5"/>
		<ellipse transform="matrix(0.9397 -0.342 0.342 0.9397 -20.2929 34.1898)" class="st2" cx="86.8" cy="74.6" rx="2" ry="4.8"/>
		<g>
			
				<ellipse transform="matrix(0.9397 -0.342 0.342 0.9397 -69.7993 62.7723)" class="st6" cx="143.1" cy="229.3" rx="4.5" ry="10.5"/>
			<ellipse transform="matrix(0.9397 -0.342 0.342 0.9397 -69.7993 62.7723)" class="st2" cx="143.1" cy="229.3" rx="2" ry="4.8"/>
		</g>
		<g>
			
				<ellipse transform="matrix(0.9397 -0.342 0.342 0.9397 -76.5064 66.6447)" class="st6" cx="150.7" cy="250.3" rx="4.5" ry="10.5"/>
			<ellipse transform="matrix(0.9397 -0.342 0.342 0.9397 -76.5064 66.6447)" class="st2" cx="150.7" cy="250.3" rx="2" ry="4.8"/>
		</g>
		
			<linearGradient id="SVGID_00000160892645275653595680000001823243224105718203_" gradientUnits="userSpaceOnUse" x1="-2924.5491" y1="3126.0989" x2="-2911.4722" y2="3126.0989" gradientTransform="matrix(0.342 0.9397 0.9397 -0.342 -1820.0626 3840.5886)">
			<stop  offset="0.3111" style="stop-color:#000000"/>
			<stop  offset="1" style="stop-color:#37475E"/>
		</linearGradient>
		<path style="fill:url(#SVGID_00000160892645275653595680000001823243224105718203_);" d="M97.8,44.3l7.1-3l0,0l50.8-21.3
			l-17.5-4.3L83.5,39.3l11.7,3.3C95.3,42.6,97.2,43.3,97.8,44.3z"/>
	</g>
</g>
</svg>
