<?xml version="1.0" encoding="utf-8"?>
<!-- Generator: Adobe Illustrator 25.4.1, SVG Export Plug-In . SVG Version: 6.00 Build 0)  -->
<svg version="1.1" id="Capa_1" xmlns="http://www.w3.org/2000/svg" xmlns:xlink="http://www.w3.org/1999/xlink" x="0px" y="0px"
	 viewBox="0 0 310 310" style="enable-background:new 0 0 310 310;" xml:space="preserve">
<style type="text/css">
	.st0{opacity:0.2;fill:#110C0A;enable-background:new    ;}
	.st1{fill:#999999;}
	.st2{fill:#FFFFFF;}
	.st3{fill:url(#SVGID_1_);}
	.st4{fill:none;stroke:#A0349D;stroke-width:9;stroke-miterlimit:10;}
	.st5{fill:#C00C0A;}
	.st6{fill:#110C0A;}
	.st7{fill:url(#SVGID_00000161614205569480044610000003112924464619294124_);}
	.st8{fill:url(#SVGID_00000088854579292642165560000008350901037797535678_);}
	.st9{fill:url(#SVGID_00000060028205968783431460000012000616677695158185_);}
	.st10{fill:url(#SVGID_00000018201752196499248700000016513497865469436085_);}
	.st11{fill:url(#SVGID_00000113334300582076792330000002204779415833041033_);}
	.st12{fill:url(#SVGID_00000125602858799189091360000006018520301110796474_);}
	.st13{fill:url(#SVGID_00000147203242083845108320000012577066864059646380_);}
	.st14{fill:url(#SVGID_00000155837870638074812340000013574762746646145694_);}
	.st15{fill:url(#SVGID_00000048473429692524902350000001231484347378866610_);}
	.st16{fill:url(#SVGID_00000000942369898288887790000012739302593805509784_);}
	.st17{fill:url(#SVGID_00000160877297019589653800000004859250796795249816_);}
	.st18{fill:url(#SVGID_00000027583939819492058690000016331511047063824561_);}
	.st19{fill:url(#SVGID_00000139265435033532527980000005599446268933209984_);}
	.st20{fill:url(#SVGID_00000026875489953861041210000015502472666239609008_);}
	.st21{fill:url(#SVGID_00000172407331313561252160000008857252091601806254_);}
	.st22{fill:url(#SVGID_00000081642394899967992850000005118307034797140097_);}
	.st23{fill:url(#SVGID_00000179618602303015571600000009774984424093185423_);}
	.st24{fill:url(#SVGID_00000073703241308122318970000017619298709531563452_);}
	.st25{fill:url(#SVGID_00000136402398174021019170000004477067405376483755_);}
	.st26{fill:url(#SVGID_00000120550814325459703720000007537031687610054846_);}
	.st27{fill:url(#SVGID_00000155121670133726626620000002109897645656980615_);}
	.st28{fill:url(#SVGID_00000074430221457816388730000013718298549195421097_);}
	.st29{fill:url(#SVGID_00000135682220203571857030000008483264761794279612_);}
	.st30{fill:url(#SVGID_00000183222962149938900960000009934079806768772520_);}
	.st31{fill:url(#SVGID_00000127740351592037478220000015900982526475104159_);}
	.st32{fill:url(#SVGID_00000150097282155600024810000012865904055638582714_);}
	.st33{fill:url(#SVGID_00000026124118707919204860000002437328508722310053_);}
	.st34{fill:url(#SVGID_00000086674028312755063410000010943481907099216018_);}
	.st35{fill:url(#SVGID_00000104692179704470263570000004456792363377221046_);}
	.st36{fill:url(#SVGID_00000103968340408492663680000014798201117038941075_);}
	.st37{fill:url(#SVGID_00000138547654430915528870000013410466995420983205_);}
	.st38{fill:url(#SVGID_00000041989175294006283760000017024202062951448201_);}
	.st39{fill:url(#SVGID_00000000210864473385000690000013007689661168614319_);}
	.st40{fill:url(#SVGID_00000082346053937689508350000003312302673552113846_);}
	.st41{fill:url(#SVGID_00000135685268749874523680000016256611452111380877_);}
	.st42{fill:url(#SVGID_00000080205616888989146680000008622352530042018736_);}
	.st43{fill:url(#SVGID_00000172435800082517619680000010516363993725799050_);}
	.st44{fill:url(#SVGID_00000165937380469754175800000017585916835747373449_);}
	.st45{fill:url(#SVGID_00000079475152210656862510000004715819022498289595_);}
	.st46{fill:url(#SVGID_00000132065056576979605680000017991603384152499089_);}
	.st47{fill:url(#SVGID_00000098208968631193884730000016377872166163857543_);}
	.st48{fill:url(#SVGID_00000000194314232021991170000016094423462462762146_);}
	.st49{fill:url(#SVGID_00000021829646176537084950000005162014558031123112_);}
	.st50{fill:url(#SVGID_00000136377872368522015880000011531869417410788762_);}
	.st51{fill:url(#SVGID_00000179607508678073445630000007174576260021965228_);}
	.st52{fill:url(#SVGID_00000123426848006418188170000016391775421806037432_);}
	.st53{fill:url(#SVGID_00000020378938480860762640000000656506758325664173_);}
	.st54{fill:url(#SVGID_00000076602419923432951940000014215363400041963191_);}
	.st55{fill:url(#SVGID_00000049188338703854471990000007302921708931542155_);}
	.st56{fill:url(#SVGID_00000114060267158382455250000005613509091456591773_);}
	.st57{fill:url(#SVGID_00000165229519686186601540000011117153697053858216_);}
	.st58{fill:url(#SVGID_00000179635334123009413480000005061223681491400850_);}
	.st59{fill:url(#SVGID_00000131335180216826253720000002226585416736705723_);}
	.st60{fill:url(#SVGID_00000111876659166570101500000011301397169205888186_);}
	.st61{fill:url(#SVGID_00000004534815286533215420000004276319931587512204_);}
	.st62{fill:url(#SVGID_00000011019155598995399210000006437533193422900101_);}
	.st63{fill:url(#SVGID_00000060735447556269975910000000945018712345128110_);}
	.st64{fill:url(#SVGID_00000057862268831455093190000017509818777932780952_);}
	.st65{fill:url(#SVGID_00000177462453841849832710000001327400718695253378_);}
	.st66{fill:url(#SVGID_00000065034737059968574730000010553891909537342119_);}
	.st67{fill:url(#SVGID_00000045580055355302658860000003466443598750876856_);}
	.st68{fill:url(#SVGID_00000103947090519495942830000004847677705702214838_);}
	.st69{fill:url(#SVGID_00000021112343211505856460000012965865239718783369_);}
	.st70{fill:url(#SVGID_00000084501847591524023440000008925643159387290017_);}
	.st71{fill:url(#SVGID_00000164488990983435291260000017080532309407163533_);}
	.st72{fill:url(#SVGID_00000031892257806180873620000009018338989102449081_);}
	.st73{fill:url(#SVGID_00000010293181750276708630000017530589720397956267_);}
	.st74{fill:url(#SVGID_00000178900133931386260980000009616489322374231993_);}
	.st75{fill:url(#SVGID_00000087402695551635044620000007584852366131581586_);}
	.st76{fill:url(#SVGID_00000022555279910275855430000017571792840966586527_);}
	.st77{fill:url(#SVGID_00000057833925155437594770000002465397148118982542_);}
</style>
<g>
	<path class="st0" d="M154.9,14.9l-0.2-0.6c-1.2-3.7-5-5.7-8.7-4.9L86.3,24.2L126.6,259l5.9,10.1l0,0l5.4,1.8l0,0l6.3,2.1
		c0,0-27-176.2-30.2-181.1L154.9,14.9z"/>
	<g>
		<polygon class="st1" points="139.7,271.8 159.7,278.6 114.1,34.8 93.6,26.8 133.8,261.7 		"/>
		
			<rect x="113.4" y="36.6" transform="matrix(0.9848 -0.1736 0.1736 0.9848 -4.9109 20.4059)" class="st2" width="1.6" height="3.4"/>
		<path class="st2" d="M177.5,22.4l-19.6-8.7c-2.3-1-4.9-1.3-7.3-0.6L93.3,26.7l21.3,10.9L177.5,22.4z"/>
		
			<linearGradient id="SVGID_1_" gradientUnits="userSpaceOnUse" x1="-3172.2527" y1="3459.6438" x2="-3172.2527" y2="3471.1946" gradientTransform="matrix(0.1736 0.9848 0.9848 -0.1736 -2737.0457 3877.4043)">
			<stop  offset="0.3111" style="stop-color:#000000"/>
			<stop  offset="1" style="stop-color:#37475E"/>
		</linearGradient>
		<path class="st3" d="M156,273.2L114.9,39.9c-0.4-2.3-2-4.2-4.1-5.1l-12.5-5.6c0.1,1.7,8.9,21.8,8.9,21.8l37.7,213.9L156,273.2z"/>
		<path class="st2" d="M220,263.3L177.5,22.4l-63.1,14.7l41.9,237.4c0.5,3,3.3,4.9,6.3,4.4l53.1-9.4
			C218.5,269.1,220.5,266.3,220,263.3z"/>
		<polygon class="st5" points="145.1,273.7 139.7,271.8 139.3,269.7 144.7,271.6 		"/>
		<path class="st2" d="M151.3,275.7c0,0,5.5,1.7,4.9-1.6c-0.2-1.4-0.4-2.3-0.4-2.3l4.3,6.9L151.3,275.7z"/>
		<ellipse transform="matrix(0.9848 -0.1736 0.1736 0.9848 -9.6226 18.3118)" class="st6" cx="99.8" cy="64.1" rx="4.5" ry="10.5"/>
		<ellipse transform="matrix(0.9848 -0.1736 0.1736 0.9848 -9.6226 18.3118)" class="st2" cx="99.8" cy="64.1" rx="2" ry="4.8"/>
		<g>
			
				<ellipse transform="matrix(0.9848 -0.1736 0.1736 0.9848 -37.3367 25.7377)" class="st6" cx="128.4" cy="226.2" rx="4.5" ry="10.5"/>
			
				<ellipse transform="matrix(0.9848 -0.1736 0.1736 0.9848 -37.3367 25.7377)" class="st2" cx="128.4" cy="226.2" rx="2" ry="4.8"/>
		</g>
		<g>
			
				<ellipse transform="matrix(0.9848 -0.1736 0.1736 0.9848 -41.0914 26.7438)" class="st6" cx="132.3" cy="248.2" rx="4.5" ry="10.5"/>
			
				<ellipse transform="matrix(0.9848 -0.1736 0.1736 0.9848 -41.0914 26.7438)" class="st2" cx="132.3" cy="248.2" rx="2" ry="4.8"/>
		</g>
		
			<linearGradient id="SVGID_00000038388169340051151760000012095822653152957374_" gradientUnits="userSpaceOnUse" x1="-3300.6028" y1="3502.1528" x2="-3287.5259" y2="3502.1528" gradientTransform="matrix(0.1736 0.9848 0.9848 -0.1736 -2737.0457 3877.4043)">
			<stop  offset="0.3111" style="stop-color:#000000"/>
			<stop  offset="1" style="stop-color:#37475E"/>
		</linearGradient>
		<path style="fill:url(#SVGID_00000038388169340051151760000012095822653152957374_);" d="M115.9,36.1l7.5-1.7l0,0l53.7-12.2
			l-16.5-7.2l-57.9,13.9l11,5.3C113.7,34.1,115.5,35.1,115.9,36.1z"/>
	</g>
</g>
</svg>
