<?xml version="1.0" encoding="utf-8"?>
<!-- Generator: Adobe Illustrator 25.4.1, SVG Export Plug-In . SVG Version: 6.00 Build 0)  -->
<svg version="1.1" id="Capa_1" xmlns="http://www.w3.org/2000/svg" xmlns:xlink="http://www.w3.org/1999/xlink" x="0px" y="0px"
	 viewBox="0 0 310 310" style="enable-background:new 0 0 310 310;" xml:space="preserve">
<style type="text/css">
	.st0{opacity:0.2;fill:#110C0A;enable-background:new    ;}
	.st1{fill:#999999;}
	.st2{fill:#FFFFFF;}
	.st3{fill:url(#SVGID_1_);}
	.st4{fill:none;stroke:#A0349D;stroke-width:9;stroke-miterlimit:10;}
	.st5{fill:#C00C0A;}
	.st6{fill:#110C0A;}
	.st7{fill:url(#SVGID_00000049223805285951510990000000432218928139073951_);}
	.st8{fill:url(#SVGID_00000075879940010046078940000001596808574477124541_);}
	.st9{fill:url(#SVGID_00000010269153753094402090000000542638125969380251_);}
	.st10{fill:url(#SVGID_00000003094983860939717620000008698004051319151015_);}
	.st11{fill:url(#SVGID_00000137100000777444845070000006416860366535350713_);}
	.st12{fill:url(#SVGID_00000003793677348215420490000016275588135644878269_);}
	.st13{fill:url(#SVGID_00000007404275103448972650000005768998108995474097_);}
	.st14{fill:url(#SVGID_00000018196441099858588520000007075424531257431431_);}
	.st15{fill:url(#SVGID_00000170258325157980787740000006047123650784232887_);}
	.st16{fill:url(#SVGID_00000121996866515612128540000009700393262805006766_);}
	.st17{fill:url(#SVGID_00000154389882734511048240000004419337386549679503_);}
	.st18{fill:url(#SVGID_00000054951342096277988610000008760842820236534164_);}
	.st19{fill:url(#SVGID_00000169526449565502073320000006469995355671606920_);}
	.st20{fill:url(#SVGID_00000012445103655156609790000011966004706040288186_);}
	.st21{fill:url(#SVGID_00000010269465591808601560000017937221094397960370_);}
	.st22{fill:url(#SVGID_00000116940164102367007570000013049059759403040391_);}
	.st23{fill:url(#SVGID_00000096041358065007982580000011601020641801101721_);}
	.st24{fill:url(#SVGID_00000003069194946729831210000005237832153876747448_);}
	.st25{fill:url(#SVGID_00000011714612153940213490000001159210904482040739_);}
	.st26{fill:url(#SVGID_00000004513827708001761240000010587463531889313925_);}
	.st27{fill:url(#SVGID_00000147919308574140370330000007948219585091264161_);}
	.st28{fill:url(#SVGID_00000140721765811417987650000002615422888510961575_);}
	.st29{fill:url(#SVGID_00000134967159474655927370000010893302945067879077_);}
	.st30{fill:url(#SVGID_00000045601608258056070790000009079173268984145557_);}
	.st31{fill:url(#SVGID_00000178905894070218102940000011921295328912135557_);}
	.st32{fill:url(#SVGID_00000155135982673583444880000017922399566548831637_);}
	.st33{fill:url(#SVGID_00000151516647547939901020000015232353964534227355_);}
	.st34{fill:url(#SVGID_00000003806621683033423950000017981372185269768862_);}
	.st35{fill:url(#SVGID_00000144300379287799860020000017087826318469104294_);}
	.st36{fill:url(#SVGID_00000035496867362049161030000001218468700070921127_);}
	.st37{fill:url(#SVGID_00000163054273930464256050000009092194686688226196_);}
	.st38{fill:url(#SVGID_00000050651043350560825570000000953991893100611976_);}
	.st39{fill:url(#SVGID_00000160170843163420788040000000259203460345663907_);}
	.st40{fill:url(#SVGID_00000107573503304433298650000001172690223809183926_);}
	.st41{fill:url(#SVGID_00000147215258095214176740000014720016571002611127_);}
	.st42{fill:url(#SVGID_00000156564579294839020650000008108260647477554828_);}
	.st43{fill:url(#SVGID_00000155857409264640982060000004969652851448119742_);}
	.st44{fill:url(#SVGID_00000167375954755697827760000017549282742342386865_);}
	.st45{fill:url(#SVGID_00000062902835693265011840000017484763158470707879_);}
	.st46{fill:url(#SVGID_00000129178634802037494200000007216691053520680084_);}
	.st47{fill:url(#SVGID_00000053509407686915797660000007462174462024089012_);}
	.st48{fill:url(#SVGID_00000137094300599654350370000012506125903859393675_);}
	.st49{fill:url(#SVGID_00000106126196130073301770000007727217648801690002_);}
	.st50{fill:url(#SVGID_00000164501619644143522270000013107614497403664268_);}
	.st51{fill:url(#SVGID_00000158744756277011295380000017140066203369786518_);}
	.st52{fill:url(#SVGID_00000088838740582337624690000013729944164836971696_);}
	.st53{fill:url(#SVGID_00000170967127647479097510000008075744753560546195_);}
	.st54{fill:url(#SVGID_00000072276544162793624500000000801034697250188215_);}
	.st55{fill:url(#SVGID_00000015351613613448224480000001431542264446947467_);}
	.st56{fill:url(#SVGID_00000092418059370683837790000008718232541547587753_);}
	.st57{fill:url(#SVGID_00000170252164705259313740000004018138770439935148_);}
	.st58{fill:url(#SVGID_00000159471222246299737090000006769674707444700306_);}
	.st59{fill:url(#SVGID_00000124868059992780084390000004079571150870468262_);}
	.st60{fill:url(#SVGID_00000032650434395463872910000013457044837676985524_);}
	.st61{fill:url(#SVGID_00000121266886896409979830000003602327629695946170_);}
	.st62{fill:url(#SVGID_00000120560029857235454030000003093649150435277211_);}
	.st63{fill:url(#SVGID_00000094608802427023651290000006360577431693017014_);}
	.st64{fill:url(#SVGID_00000031179393055815625780000011969479277636826783_);}
	.st65{fill:url(#SVGID_00000155140256056520771910000007376668356100746157_);}
	.st66{fill:url(#SVGID_00000121986492258674342510000004049539260834615187_);}
	.st67{fill:url(#SVGID_00000176021505785437884060000015837271933418719382_);}
	.st68{fill:url(#SVGID_00000179635169891081285170000005439340581980316819_);}
	.st69{fill:url(#SVGID_00000081620789470935254370000009583369556836582847_);}
	.st70{fill:url(#SVGID_00000091718879850402721260000004139140739381962115_);}
	.st71{fill:url(#SVGID_00000001622887706970606660000011872424186338718640_);}
	.st72{fill:url(#SVGID_00000172436964867451630330000000186810367745251970_);}
	.st73{fill:url(#SVGID_00000165925137654727916420000017211575362581361334_);}
	.st74{fill:url(#SVGID_00000108989188782218167740000006012517348048112018_);}
	.st75{fill:url(#SVGID_00000180327116212187098580000014815113211304948402_);}
	.st76{fill:url(#SVGID_00000102530450384831489900000000357657427194405052_);}
	.st77{fill:url(#SVGID_00000016785109131131741510000008417797853843729319_);}
</style>
<g>
	<path class="st0" d="M254.2,61.2l0.3-0.5c2.1-3.2,1.2-7.5-1.8-9.8L203,14.6L49,196.3l-3.9,11.1l0,0l2.1,5.3l0,0l2.4,6.2
		c0,0,117.6-133.9,119.3-139.6L254.2,61.2z"/>
	<g>
		<polygon class="st1" points="47.6,214.6 55.3,234.3 212.7,42.7 205.7,21.8 51.6,203.6 		"/>
		
			<rect x="208.4" y="44.2" transform="matrix(0.6428 -0.766 0.766 0.6428 40.6152 177.0146)" class="st2" width="3.4" height="1.6"/>
		<path class="st2" d="M262.9,83.3L257,62.6c-0.7-2.4-2.2-4.6-4.2-6l-47.2-35.1l5.4,23.3L262.9,83.3z"/>
		
			<linearGradient id="SVGID_1_" gradientUnits="userSpaceOnUse" x1="-1336.0549" y1="1623.4459" x2="-1336.0549" y2="1634.9968" gradientTransform="matrix(-0.6428 0.766 0.766 0.6428 -1976.6644 102.2284)">
			<stop  offset="0.3111" style="stop-color:#000000"/>
			<stop  offset="1" style="stop-color:#37475E"/>
		</linearGradient>
		<path class="st3" d="M57,228L209.3,46.5c1.5-1.8,2-4.2,1.2-6.4l-3.7-13.2c-1.2,1.2-11,20.8-11,20.8L56.3,214.1L57,228z"/>
		<path class="st2" d="M105.7,270.7L262.9,83.3l-51.8-38.9l-155,184.7c-1.9,2.3-1.6,5.7,0.7,7.6l41.3,34.6
			C100.4,273.2,103.8,273,105.7,270.7z"/>
		<polygon class="st5" points="49.7,220 47.6,214.6 49,213 51,218.4 		"/>
		<path class="st2" d="M52,226c0,0,2.2,5.3,4.4,2.7c0.9-1.1,1.5-1.8,1.5-1.8l-2.5,7.7L52,226z"/>
		<ellipse transform="matrix(0.6428 -0.766 0.766 0.6428 25.9062 156.7973)" class="st6" cx="181.1" cy="50.6" rx="10.5" ry="4.5"/>
		<ellipse transform="matrix(0.6428 -0.766 0.766 0.6428 25.9062 156.7973)" class="st2" cx="181.1" cy="50.6" rx="4.8" ry="2"/>
		<g>
			
				<ellipse transform="matrix(0.6428 -0.766 0.766 0.6428 -108.4791 120.7889)" class="st6" cx="75.3" cy="176.7" rx="10.5" ry="4.5"/>
			<ellipse transform="matrix(0.6428 -0.766 0.766 0.6428 -108.4791 120.7889)" class="st2" cx="75.3" cy="176.7" rx="4.8" ry="2"/>
		</g>
		<g>
			
				<ellipse transform="matrix(0.6428 -0.766 0.766 0.6428 -126.6856 115.9104)" class="st6" cx="60.9" cy="193.8" rx="10.5" ry="4.5"/>
			<ellipse transform="matrix(0.6428 -0.766 0.766 0.6428 -126.6856 115.9104)" class="st2" cx="60.9" cy="193.8" rx="4.8" ry="2"/>
		</g>
		
			<linearGradient id="SVGID_00000103243923054850076600000013716685126867082926_" gradientUnits="userSpaceOnUse" x1="-1464.4049" y1="1665.955" x2="-1451.328" y2="1665.955" gradientTransform="matrix(-0.6428 0.766 0.766 0.6428 -1976.6644 102.2284)">
			<stop  offset="0.3111" style="stop-color:#000000"/>
			<stop  offset="1" style="stop-color:#37475E"/>
		</linearGradient>
		<path style="fill:url(#SVGID_00000103243923054850076600000013716685126867082926_);" d="M212.9,44.9l6.2,4.6l0,0l43.9,33.3
			l-5.1-17.3L210,30.1l3,11.8C213,41.9,213.4,44,212.9,44.9z"/>
	</g>
</g>
</svg>
