<?xml version="1.0" encoding="utf-8"?>
<!-- Generator: Adobe Illustrator 25.4.1, SVG Export Plug-In . SVG Version: 6.00 Build 0)  -->
<svg version="1.1" id="Capa_1" xmlns="http://www.w3.org/2000/svg" xmlns:xlink="http://www.w3.org/1999/xlink" x="0px" y="0px"
	 viewBox="0 0 310 310" style="enable-background:new 0 0 310 310;" xml:space="preserve">
<style type="text/css">
	.st0{opacity:0.2;fill:#110C0A;enable-background:new    ;}
	.st1{fill:#999999;}
	.st2{fill:#FFFFFF;}
	.st3{fill:url(#SVGID_1_);}
	.st4{fill:none;stroke:#A0349D;stroke-width:9;stroke-miterlimit:10;}
	.st5{fill:#C00C0A;}
	.st6{fill:#110C0A;}
	.st7{fill:url(#SVGID_00000073679919929941593740000000761091108436005276_);}
	.st8{fill:url(#SVGID_00000120544114071914706530000013273365281171578042_);}
	.st9{fill:url(#SVGID_00000149342588074451256700000005007798661223701667_);}
	.st10{fill:url(#SVGID_00000088110323611784750830000002135447759996924590_);}
	.st11{fill:url(#SVGID_00000009555700720602002100000014979528816621890723_);}
	.st12{fill:url(#SVGID_00000158012193472631233950000003838177046043813789_);}
	.st13{fill:url(#SVGID_00000158723193665171914370000014402994370260869768_);}
	.st14{fill:url(#SVGID_00000013904612598534453170000013671746397464630201_);}
	.st15{fill:url(#SVGID_00000025403583986001428320000002152983922060551595_);}
	.st16{fill:url(#SVGID_00000120542630745322758000000001503969373848081055_);}
	.st17{fill:url(#SVGID_00000083059497161809156560000010348120918373489056_);}
	.st18{fill:url(#SVGID_00000152967602229245496410000008038749576282688938_);}
	.st19{fill:url(#SVGID_00000006683994348989045170000005292496537247601288_);}
	.st20{fill:url(#SVGID_00000057134852714234143130000007911991568659921074_);}
	.st21{fill:url(#SVGID_00000155137026226154581630000004482557437300955559_);}
	.st22{fill:url(#SVGID_00000140001316721597928310000006443001245852715694_);}
	.st23{fill:url(#SVGID_00000057856239463375727090000010814146737869454498_);}
	.st24{fill:url(#SVGID_00000101808888005631367130000002415776285836475281_);}
	.st25{fill:url(#SVGID_00000151531530011936669110000016423725851917186433_);}
	.st26{fill:url(#SVGID_00000001653769954813674930000001422648986507541178_);}
	.st27{fill:url(#SVGID_00000155856930528248940750000005063449683434443169_);}
	.st28{fill:url(#SVGID_00000137133810678081452270000016555488457296071847_);}
	.st29{fill:url(#SVGID_00000099637015953870369420000017482775550113474750_);}
	.st30{fill:url(#SVGID_00000036967416758917061220000013350792104227363236_);}
	.st31{fill:url(#SVGID_00000041978258881176799300000018387068391741096878_);}
	.st32{fill:url(#SVGID_00000163775379511255840380000004064017125928528263_);}
	.st33{fill:url(#SVGID_00000054236310465313635850000009718665746691536001_);}
	.st34{fill:url(#SVGID_00000042731415730166368550000008852418588652700347_);}
	.st35{fill:url(#SVGID_00000005971505527070488940000010739405829185161912_);}
	.st36{fill:url(#SVGID_00000034048040621855414990000016200846407282477470_);}
	.st37{fill:url(#SVGID_00000071528716845219833390000003103216451230070422_);}
	.st38{fill:url(#SVGID_00000049186885430802713360000006144433412695614632_);}
	.st39{fill:url(#SVGID_00000173850780102352206640000009885213445969516450_);}
	.st40{fill:url(#SVGID_00000075883522870381844220000013331138450741615514_);}
	.st41{fill:url(#SVGID_00000181089690091087510560000002683482595477897397_);}
	.st42{fill:url(#SVGID_00000120526585905636863580000011959465586940580482_);}
	.st43{fill:url(#SVGID_00000084529613830256256260000009057162732350065068_);}
	.st44{fill:url(#SVGID_00000173130379523972343650000012111106660208273544_);}
	.st45{fill:url(#SVGID_00000009563188165248966170000013993649395350755226_);}
	.st46{fill:url(#SVGID_00000038406392865603973070000008106351219728630921_);}
	.st47{fill:url(#SVGID_00000011718861565348976570000007923413492876016292_);}
	.st48{fill:url(#SVGID_00000010988859982164604040000009309631670159548816_);}
	.st49{fill:url(#SVGID_00000012438849553041251530000005009247510437009805_);}
	.st50{fill:url(#SVGID_00000086672182280022680180000008661335892229438606_);}
	.st51{fill:url(#SVGID_00000057847828685103614500000005186111142276793527_);}
	.st52{fill:url(#SVGID_00000140696742439809067240000015861210046915334292_);}
	.st53{fill:url(#SVGID_00000088822098463053271600000015166769603858816672_);}
	.st54{fill:url(#SVGID_00000106862748027167688810000004697934755709495988_);}
	.st55{fill:url(#SVGID_00000139998355681506051650000011201419653444701315_);}
	.st56{fill:url(#SVGID_00000047747553407341914670000011136009733460515470_);}
	.st57{fill:url(#SVGID_00000054253650389100389380000005880376626814870975_);}
	.st58{fill:url(#SVGID_00000114772473760928198340000013235102143364670084_);}
	.st59{fill:url(#SVGID_00000073720920779558745420000018129799442453710519_);}
	.st60{fill:url(#SVGID_00000018217344416617777130000009797010337530406026_);}
	.st61{fill:url(#SVGID_00000081613059055798020390000005113061405273666947_);}
	.st62{fill:url(#SVGID_00000030471941890333924350000013674532557176726195_);}
	.st63{fill:url(#SVGID_00000014634411953521109700000014092458260448273812_);}
	.st64{fill:url(#SVGID_00000026883637500646137930000013899752611439707562_);}
	.st65{fill:url(#SVGID_00000089553873582847973950000006329736791652731061_);}
	.st66{fill:url(#SVGID_00000054979584195142361640000011754357009306170299_);}
	.st67{fill:url(#SVGID_00000042001338772971636400000002088152746332895896_);}
	.st68{fill:url(#SVGID_00000142163420454549012140000003944993034957384070_);}
	.st69{fill:url(#SVGID_00000088114051849503640000000007368444518827717522_);}
	.st70{fill:url(#SVGID_00000049916811048989852490000003498907234780252558_);}
	.st71{fill:url(#SVGID_00000072964754869704272910000005945761776108374146_);}
	.st72{fill:url(#SVGID_00000070089978892254213720000002994385666209382074_);}
	.st73{fill:url(#SVGID_00000085973296160319836300000006315826466874104999_);}
	.st74{fill:url(#SVGID_00000057133995472546248290000007868260828808178067_);}
	.st75{fill:url(#SVGID_00000019637308670340571920000011495568980594728612_);}
	.st76{fill:url(#SVGID_00000039823018211125356250000009983608631341916347_);}
	.st77{fill:url(#SVGID_00000174598901459220058300000008876805441704887210_);}
</style>
<g>
	<path class="st0" d="M267,79.7l0.4-0.5c2.6-2.8,2.5-7.2-0.1-9.9l-42.6-44.4L41.5,177.2l-5.8,10.2l0,0l1.1,5.6l0,0l1.3,6.5
		c0,0,139.1-111.5,141.7-116.7L267,79.7z"/>
	<g>
		<polygon class="st1" points="36.9,195 41,215.7 229.3,54.3 226,32.5 42.7,184.7 		"/>
		<rect x="224.7" y="55.3" transform="matrix(0.766 -0.6428 0.6428 0.766 16.915 158.6453)" class="st2" width="3.4" height="1.6"/>
		<path class="st2" d="M271.8,103l-2.2-21.3c-0.3-2.5-1.3-4.9-3.1-6.7L226,32.3l1.2,23.9L271.8,103z"/>
		
			<linearGradient id="SVGID_1_" gradientUnits="userSpaceOnUse" x1="-1712.1088" y1="1999.4998" x2="-1712.1088" y2="2011.0507" gradientTransform="matrix(-0.766 0.6428 0.6428 0.766 -2466.9014 -313.5943)">
			<stop  offset="0.3111" style="stop-color:#000000"/>
			<stop  offset="1" style="stop-color:#37475E"/>
		</linearGradient>
		<path class="st3" d="M43.9,209.8L225.3,57.5c1.8-1.5,2.7-3.8,2.3-6.1l-1.4-13.6c-1.4,0.9-14.4,18.6-14.4,18.6L45.5,196L43.9,209.8
			z"/>
		<path class="st2" d="M84.4,260.2L271.8,103l-44.3-47.3l-184.7,155c-2.3,1.9-2.6,5.3-0.7,7.6l34.6,41.3
			C78.7,261.9,82.1,262.2,84.4,260.2z"/>
		<polygon class="st5" points="38,200.6 36.9,195 38.5,193.6 39.6,199.2 		"/>
		<path class="st2" d="M39.3,206.9c0,0,1.3,5.6,3.8,3.5c1.1-0.9,1.8-1.5,1.8-1.5l-3.8,7.1L39.3,206.9z"/>
		<ellipse transform="matrix(0.766 -0.6428 0.6428 0.766 9.6515 139.7603)" class="st6" cx="196.8" cy="56.6" rx="10.5" ry="4.5"/>
		<ellipse transform="matrix(0.766 -0.6428 0.6428 0.766 9.6515 139.7603)" class="st2" cx="196.8" cy="56.6" rx="4.8" ry="2"/>
		<g>
			
				<ellipse transform="matrix(0.766 -0.6428 0.6428 0.766 -87.8569 83.4638)" class="st6" cx="70.7" cy="162.4" rx="10.5" ry="4.5"/>
			<ellipse transform="matrix(0.766 -0.6428 0.6428 0.766 -87.8569 83.4638)" class="st2" cx="70.7" cy="162.4" rx="4.8" ry="2"/>
		</g>
		<g>
			
				<ellipse transform="matrix(0.766 -0.6428 0.6428 0.766 -101.0674 75.8367)" class="st6" cx="53.6" cy="176.8" rx="10.5" ry="4.5"/>
			<ellipse transform="matrix(0.766 -0.6428 0.6428 0.766 -101.0674 75.8367)" class="st2" cx="53.6" cy="176.8" rx="4.8" ry="2"/>
		</g>
		
			<linearGradient id="SVGID_00000063624906282990778350000006304084341662745009_" gradientUnits="userSpaceOnUse" x1="-1840.4589" y1="2042.0088" x2="-1827.382" y2="2042.0088" gradientTransform="matrix(-0.766 0.6428 0.6428 0.766 -2466.9014 -313.5943)">
			<stop  offset="0.3111" style="stop-color:#000000"/>
			<stop  offset="1" style="stop-color:#37475E"/>
		</linearGradient>
		<path style="fill:url(#SVGID_00000063624906282990778350000006304084341662745009_);" d="M229.1,56.5l5.3,5.6l0,0l37.4,40.4
			l-2-17.9l-40.9-43.2l0.9,12.1C229.8,53.6,229.8,55.7,229.1,56.5z"/>
	</g>
</g>
</svg>
