<?xml version="1.0" encoding="utf-8"?>
<!-- Generator: Adobe Illustrator 25.4.1, SVG Export Plug-In . SVG Version: 6.00 Build 0)  -->
<svg version="1.1" id="Capa_1" xmlns="http://www.w3.org/2000/svg" xmlns:xlink="http://www.w3.org/1999/xlink" x="0px" y="0px"
	 viewBox="0 0 310 310" style="enable-background:new 0 0 310 310;" xml:space="preserve">
<style type="text/css">
	.st0{opacity:0.2;fill:#110C0A;enable-background:new    ;}
	.st1{fill:#999999;}
	.st2{fill:#FFFFFF;}
	.st3{fill:url(#SVGID_1_);}
	.st4{fill:none;stroke:#A0349D;stroke-width:9;stroke-miterlimit:10;}
	.st5{fill:#C00C0A;}
	.st6{fill:#110C0A;}
	.st7{fill:url(#SVGID_00000041981384298986531440000010400927073910011070_);}
	.st8{fill:url(#SVGID_00000179605523906829172060000004264753085623990945_);}
	.st9{fill:url(#SVGID_00000181061667750154587110000010288014769548122041_);}
	.st10{fill:url(#SVGID_00000143579220676320096090000014629912418679787655_);}
	.st11{fill:url(#SVGID_00000018228580618558492980000009495533591119341995_);}
	.st12{fill:url(#SVGID_00000001643042145504510210000017314302323775355314_);}
	.st13{fill:url(#SVGID_00000016790852311250092750000001266499567355410367_);}
	.st14{fill:url(#SVGID_00000174572307567799136510000017581759034942871706_);}
	.st15{fill:url(#SVGID_00000047031730467778822320000017873095320523608225_);}
	.st16{fill:url(#SVGID_00000041264006547673754160000006482689676739811509_);}
	.st17{fill:url(#SVGID_00000158017094362822132630000007453784813889045691_);}
	.st18{fill:url(#SVGID_00000006701308909005723460000003888953483307575711_);}
	.st19{fill:url(#SVGID_00000173856065840390350630000013496658961724959421_);}
	.st20{fill:url(#SVGID_00000119838204109601621060000007580876573695015573_);}
	.st21{fill:url(#SVGID_00000148645160045286516880000016076223531522734527_);}
	.st22{fill:url(#SVGID_00000047057369865306117760000004288881582518938795_);}
	.st23{fill:url(#SVGID_00000041976720044709944870000015313128380295445939_);}
	.st24{fill:url(#SVGID_00000147214876564660588080000010041717728077520319_);}
	.st25{fill:url(#SVGID_00000057113020758150929730000015893762122173318058_);}
	.st26{fill:url(#SVGID_00000018936849374492494850000004198663213382120632_);}
	.st27{fill:url(#SVGID_00000164505683275090794610000012034804651795191467_);}
	.st28{fill:url(#SVGID_00000168839765919106757360000017367790841709924529_);}
	.st29{fill:url(#SVGID_00000094614726000282386840000011842112944675808144_);}
	.st30{fill:url(#SVGID_00000137825853201845781720000015401875834092580765_);}
	.st31{fill:url(#SVGID_00000070796672769336169780000012854723359031390647_);}
	.st32{fill:url(#SVGID_00000176015758688710263720000010689617111022279073_);}
	.st33{fill:url(#SVGID_00000101087384448360943490000010334461559535060112_);}
	.st34{fill:url(#SVGID_00000117643797950021669320000003752447981737248689_);}
	.st35{fill:url(#SVGID_00000103232174073934549760000003132850515170968455_);}
	.st36{fill:url(#SVGID_00000075870329421771348000000002930612213305288589_);}
	.st37{fill:url(#SVGID_00000001639565797198340870000015181308280114494630_);}
	.st38{fill:url(#SVGID_00000075150758540815405510000011920641161992943237_);}
	.st39{fill:url(#SVGID_00000097483800077464485870000015468466608136299697_);}
	.st40{fill:url(#SVGID_00000170276832482219028390000002616381237188767104_);}
	.st41{fill:url(#SVGID_00000109745178464896816950000016182826424527882425_);}
	.st42{fill:url(#SVGID_00000020384698258224880080000018069773707288257213_);}
	.st43{fill:url(#SVGID_00000133491067866764152180000007698549074892611475_);}
	.st44{fill:url(#SVGID_00000038397933996049607360000010340914493311615108_);}
	.st45{fill:url(#SVGID_00000068640680173903919910000004956120600291526789_);}
	.st46{fill:url(#SVGID_00000138561681801489931150000009578069206217668001_);}
	.st47{fill:url(#SVGID_00000018932643948054842840000008047859574432815281_);}
	.st48{fill:url(#SVGID_00000097481334447324579030000012789656560956407691_);}
	.st49{fill:url(#SVGID_00000090286040191045227500000007960371405887406993_);}
	.st50{fill:url(#SVGID_00000140698796323855715950000002589776302341190065_);}
	.st51{fill:url(#SVGID_00000113323576519420592000000006456152449941750936_);}
	.st52{fill:url(#SVGID_00000078031836039678198830000010225192793356653756_);}
	.st53{fill:url(#SVGID_00000041285889603775236710000003874506633579278491_);}
	.st54{fill:url(#SVGID_00000183241781589305070920000014812669849337943980_);}
	.st55{fill:url(#SVGID_00000044862417299575358130000001620479566920430503_);}
	.st56{fill:url(#SVGID_00000169537767544471408290000012838840761370954629_);}
	.st57{fill:url(#SVGID_00000173118585955909756140000008974091973913676988_);}
	.st58{fill:url(#SVGID_00000088100303808899879230000007423966921012582547_);}
	.st59{fill:url(#SVGID_00000009556192754936399140000018272123112457158581_);}
	.st60{fill:url(#SVGID_00000102515109263635562500000002673636000826706054_);}
	.st61{fill:url(#SVGID_00000050657449637480208540000015441942128263179432_);}
	.st62{fill:url(#SVGID_00000029736198580242142970000013482587862539337635_);}
	.st63{fill:url(#SVGID_00000168831963175656595150000005791289065397125567_);}
	.st64{fill:url(#SVGID_00000101060952213343043610000006959589647302813593_);}
	.st65{fill:url(#SVGID_00000119117066681608064300000013588523750970608319_);}
	.st66{fill:url(#SVGID_00000018233157895114219910000011015817212925479866_);}
	.st67{fill:url(#SVGID_00000097471087510940777020000000162111637481266091_);}
	.st68{fill:url(#SVGID_00000146491296175306147830000007848041334609218953_);}
	.st69{fill:url(#SVGID_00000000190175103310045970000003095759245715944322_);}
	.st70{fill:url(#SVGID_00000015343430716103731550000012614120054348734889_);}
	.st71{fill:url(#SVGID_00000034808908889780079660000005093758132013362356_);}
	.st72{fill:url(#SVGID_00000109739193673079917050000006402941647429004181_);}
	.st73{fill:url(#SVGID_00000182527728786681962680000013390278013212211127_);}
	.st74{fill:url(#SVGID_00000045600005558451689840000008889428233166718596_);}
	.st75{fill:url(#SVGID_00000029040603034285719600000012985439083772081324_);}
	.st76{fill:url(#SVGID_00000132085458327885276590000002687410152988263088_);}
	.st77{fill:url(#SVGID_00000049913428760467259250000004449097503500770228_);}
</style>
<g>
	<path class="st0" d="M276.3,100.3l0.5-0.4c3-2.3,3.7-6.6,1.6-9.8L244.1,39L37.3,157.2l-7.5,9.1l0,0l0.2,5.7l0,0l0.1,6.6
		c0,0,156.3-85.6,159.9-90.3L276.3,100.3z"/>
	<g>
		<polygon class="st1" points="29.7,173.9 30.1,195 243.6,68.7 244.2,46.7 37.2,164.8 		"/>
		<rect x="238.7" y="69.2" transform="matrix(0.866 -0.5 0.5 0.866 -2.7921 129.5894)" class="st2" width="3.4" height="1.6"/>
		<path class="st2" d="M277,124.1l1.5-21.4c0.2-2.5-0.5-5-1.9-7.1l-32.4-49.1l-2.9,23.7L277,124.1z"/>
		
			<linearGradient id="SVGID_1_" gradientUnits="userSpaceOnUse" x1="-2088.1626" y1="2375.5537" x2="-2088.1626" y2="2387.1045" gradientTransform="matrix(-0.866 0.5 0.5 0.866 -2861.4629 -899.3901)">
			<stop  offset="0.3111" style="stop-color:#000000"/>
			<stop  offset="1" style="stop-color:#37475E"/>
		</linearGradient>
		<path class="st3" d="M34,189.7L239.1,71.2c2-1.2,3.3-3.3,3.3-5.6l1-13.6c-1.6,0.7-17.4,15.8-17.4,15.8L38,176.4L34,189.7z"/>
		<path class="st2" d="M65.1,246.4L277,124.1l-35.4-54.3L32.8,190.4c-2.6,1.5-3.5,4.8-2,7.4l26.9,46.7
			C59.2,247,62.5,247.9,65.1,246.4z"/>
		<polygon class="st5" points="29.8,179.6 29.7,173.9 31.5,172.8 31.6,178.5 		"/>
		<path class="st2" d="M30,186.1c0,0,0.3,5.7,3.2,4.1c1.2-0.7,2-1.1,2-1.1l-5,6.3L30,186.1z"/>
		<ellipse transform="matrix(0.866 -0.5 0.5 0.866 -4.4027 114.3627)" class="st6" cx="211.2" cy="65.4" rx="10.5" ry="4.5"/>
		<ellipse transform="matrix(0.866 -0.5 0.5 0.866 -4.4027 114.3627)" class="st2" cx="211.2" cy="65.4" rx="4.8" ry="2"/>
		<g>
			<ellipse transform="matrix(0.866 -0.5 0.5 0.866 -64.6504 54.1149)" class="st6" cx="68.7" cy="147.7" rx="10.5" ry="4.5"/>
			<ellipse transform="matrix(0.866 -0.5 0.5 0.866 -64.6504 54.1149)" class="st2" cx="68.7" cy="147.7" rx="4.8" ry="2"/>
		</g>
		<g>
			<ellipse transform="matrix(0.866 -0.5 0.5 0.866 -72.8128 45.9526)" class="st6" cx="49.3" cy="158.8" rx="10.5" ry="4.5"/>
			<ellipse transform="matrix(0.866 -0.5 0.5 0.866 -72.8128 45.9526)" class="st2" cx="49.3" cy="158.8" rx="4.8" ry="2"/>
		</g>
		
			<linearGradient id="SVGID_00000130642171944526635010000014373486073451322758_" gradientUnits="userSpaceOnUse" x1="-2216.5127" y1="2418.0627" x2="-2203.4358" y2="2418.0627" gradientTransform="matrix(-0.866 0.5 0.5 0.866 -2861.4629 -899.3901)">
			<stop  offset="0.3111" style="stop-color:#000000"/>
			<stop  offset="1" style="stop-color:#37475E"/>
		</linearGradient>
		<path style="fill:url(#SVGID_00000130642171944526635010000014373486073451322758_);" d="M243,70.9l4.2,6.5l0,0l29.8,46.3l1.2-18
			L245.4,56l-1.2,12.1C244.2,68.2,243.9,70.2,243,70.9z"/>
	</g>
</g>
</svg>
