<?xml version="1.0" encoding="utf-8"?>
<!-- Generator: Adobe Illustrator 25.4.1, SVG Export Plug-In . SVG Version: 6.00 Build 0)  -->
<svg version="1.1" id="Capa_1" xmlns="http://www.w3.org/2000/svg" xmlns:xlink="http://www.w3.org/1999/xlink" x="0px" y="0px"
	 viewBox="0 0 310 310" style="enable-background:new 0 0 310 310;" xml:space="preserve">
<style type="text/css">
	.st0{opacity:0.2;fill:#110C0A;enable-background:new    ;}
	.st1{fill:#999999;}
	.st2{fill:#FFFFFF;}
	.st3{fill:url(#SVGID_1_);}
	.st4{fill:none;stroke:#A0349D;stroke-width:9;stroke-miterlimit:10;}
	.st5{fill:#C00C0A;}
	.st6{fill:#110C0A;}
	.st7{fill:url(#SVGID_00000143614282388399555370000003081678160862140585_);}
	.st8{fill:url(#SVGID_00000139995571953713893090000000150890393417668242_);}
	.st9{fill:url(#SVGID_00000029014334885915695390000009214483897366582718_);}
	.st10{fill:url(#SVGID_00000152943795918287607830000013308341305928044219_);}
	.st11{fill:url(#SVGID_00000173869897514961414190000005603830174423249312_);}
	.st12{fill:url(#SVGID_00000166668795899964052560000008434592640080036518_);}
	.st13{fill:url(#SVGID_00000138551243647067862710000003648147281572617384_);}
	.st14{fill:url(#SVGID_00000074407164207269139230000004656854990460941969_);}
	.st15{fill:url(#SVGID_00000088114738018321252740000004788156121671288481_);}
	.st16{fill:url(#SVGID_00000056409371291174251780000012664140132955772578_);}
	.st17{fill:url(#SVGID_00000049180013159743384430000007190270155960986497_);}
	.st18{fill:url(#SVGID_00000167394100439832096950000007086168668505137582_);}
	.st19{fill:url(#SVGID_00000168080681429698861080000011328770962149256337_);}
	.st20{fill:url(#SVGID_00000115512548931997735690000000057323237146548891_);}
	.st21{fill:url(#SVGID_00000085955385661243063770000015416070574863623093_);}
	.st22{fill:url(#SVGID_00000100372833216369363300000005911533653999611537_);}
	.st23{fill:url(#SVGID_00000036970162592737034620000005546269516247411363_);}
	.st24{fill:url(#SVGID_00000089550467479011738370000007982986137300500622_);}
	.st25{fill:url(#SVGID_00000041277033323019259400000016083982415277969549_);}
	.st26{fill:url(#SVGID_00000023249393687727592610000015857413711272275625_);}
	.st27{fill:url(#SVGID_00000096778346042752516700000005070156645060460424_);}
	.st28{fill:url(#SVGID_00000143596721444940795270000004292572926474406812_);}
	.st29{fill:url(#SVGID_00000048474663056435597530000014951853292774470034_);}
	.st30{fill:url(#SVGID_00000060002343366219671580000013888020029071925670_);}
	.st31{fill:url(#SVGID_00000063630670594788478890000000498039835335973017_);}
	.st32{fill:url(#SVGID_00000125561933393939157840000011835032794358566791_);}
	.st33{fill:url(#SVGID_00000085234611610126778170000003168325666979640200_);}
	.st34{fill:url(#SVGID_00000001623311959851049620000013724457242047492506_);}
	.st35{fill:url(#SVGID_00000135681837852357206150000013030412549114011530_);}
	.st36{fill:url(#SVGID_00000091705176321143568040000016177256446930502027_);}
	.st37{fill:url(#SVGID_00000172411505565777817730000009522293458893151677_);}
	.st38{fill:url(#SVGID_00000109004870801226998190000010910415585987927186_);}
	.st39{fill:url(#SVGID_00000181069806901375042000000012820403933500050312_);}
	.st40{fill:url(#SVGID_00000114774876164384990630000009498945915752891060_);}
	.st41{fill:url(#SVGID_00000049191273552416334650000011242324651741762715_);}
	.st42{fill:url(#SVGID_00000058580640693950360110000014416646498150249383_);}
	.st43{fill:url(#SVGID_00000052074820839644402360000003313264151809287812_);}
	.st44{fill:url(#SVGID_00000071549043529578543510000014883887919066929045_);}
	.st45{fill:url(#SVGID_00000177448745621723789340000017698672615733717693_);}
	.st46{fill:url(#SVGID_00000087406533150969901210000004454165370646289570_);}
	.st47{fill:url(#SVGID_00000098190567506341995060000007951551728513521557_);}
	.st48{fill:url(#SVGID_00000076579549742917706320000008386820949788862344_);}
	.st49{fill:url(#SVGID_00000047022444468971076240000008434396690726672261_);}
	.st50{fill:url(#SVGID_00000129170512094952959120000011235284004435422858_);}
	.st51{fill:url(#SVGID_00000181782457753854479030000013135992446357928353_);}
	.st52{fill:url(#SVGID_00000074409445007708868390000006125503504113559424_);}
	.st53{fill:url(#SVGID_00000067207225613121470260000006143711970150931644_);}
	.st54{fill:url(#SVGID_00000038415124834478842910000013519069333718508450_);}
	.st55{fill:url(#SVGID_00000080898810097443547910000002308582343353737630_);}
	.st56{fill:url(#SVGID_00000053522503928671612780000004130793192120342443_);}
	.st57{fill:url(#SVGID_00000088113930093850666790000015596281442522530194_);}
	.st58{fill:url(#SVGID_00000088121428530831298550000014082461845214879125_);}
	.st59{fill:url(#SVGID_00000112604220568931943120000001173421564354714044_);}
	.st60{fill:url(#SVGID_00000176732418990506883090000001420997334535728822_);}
	.st61{fill:url(#SVGID_00000050638336268569708250000004672752701374974353_);}
	.st62{fill:url(#SVGID_00000115481954600515979250000009497184416037388954_);}
	.st63{fill:url(#SVGID_00000046311134523757151250000009214867051123674509_);}
	.st64{fill:url(#SVGID_00000134208718265114681130000016342920476542174859_);}
	.st65{fill:url(#SVGID_00000000935150074931901740000002583635486087784602_);}
	.st66{fill:url(#SVGID_00000009564486012860834140000009269758476208826028_);}
	.st67{fill:url(#SVGID_00000095329214463880080820000010778552466411741831_);}
	.st68{fill:url(#SVGID_00000085930906530121588440000010119464265886125453_);}
	.st69{fill:url(#SVGID_00000063594722260351882470000009971055562705875096_);}
	.st70{fill:url(#SVGID_00000001623431615245709650000001396874555618196651_);}
	.st71{fill:url(#SVGID_00000027590514399014906210000005469218425393550521_);}
	.st72{fill:url(#SVGID_00000093879686991705261490000009290711410938869156_);}
	.st73{fill:url(#SVGID_00000018924938263055597370000005851982245132918172_);}
	.st74{fill:url(#SVGID_00000002356162501354062740000000726947361943894157_);}
	.st75{fill:url(#SVGID_00000039121183146289403400000013958363399128390528_);}
	.st76{fill:url(#SVGID_00000088853317125548502160000012311489022907517325_);}
	.st77{fill:url(#SVGID_00000103263142180633902360000002322385205949235083_);}
</style>
<g>
	<path class="st0" d="M281.9,122.1l0.5-0.3c3.4-1.8,4.8-5.9,3.3-9.4l-24.9-56.3L36.6,136.6l-8.9,7.6l0,0l-0.8,5.6l0,0l-1,6.5
		c0,0,168.8-57.2,173.1-61.2L281.9,122.1z"/>
	<g>
		<polygon class="st1" points="26.3,151.7 23,172.6 255.2,85.3 259.5,63.7 35.2,144.1 		"/>
		
			<rect x="250.1" y="85.2" transform="matrix(0.9397 -0.342 0.342 0.9397 -14.2312 91.3089)" class="st2" width="3.4" height="1.6"/>
		<path class="st2" d="M278.4,145.6l5.2-20.8c0.6-2.5,0.4-5-0.6-7.3l-23.4-54l-7,22.9L278.4,145.6z"/>
		
			<linearGradient id="SVGID_1_" gradientUnits="userSpaceOnUse" x1="-2464.2166" y1="2751.6074" x2="-2464.2166" y2="2763.1584" gradientTransform="matrix(-0.9397 0.342 0.342 0.9397 -3116.6147 -1632.0524)">
			<stop  offset="0.3111" style="stop-color:#000000"/>
			<stop  offset="1" style="stop-color:#37475E"/>
		</linearGradient>
		<path class="st3" d="M27.7,168l222.6-81c2.2-0.8,3.8-2.7,4.3-5l3.4-13.3c-1.7,0.4-19.9,12.6-19.9,12.6L34,155.6L27.7,168z"/>
		<path class="st2" d="M48.5,229.3l229.8-83.7L253,86L26.4,168.5c-2.8,1-4.3,4.1-3.2,6.9L41.6,226C42.6,228.9,45.7,230.3,48.5,229.3
			z"/>
		<polygon class="st5" points="25.4,157.4 26.3,151.7 28.2,151 27.3,156.6 		"/>
		<path class="st2" d="M24.4,163.8c0,0-0.7,5.7,2.4,4.6c1.3-0.5,2.2-0.8,2.2-0.8l-6,5.4L24.4,163.8z"/>
		<ellipse transform="matrix(0.9397 -0.342 0.342 0.9397 -12.6308 81.1614)" class="st6" cx="223.8" cy="76.4" rx="10.5" ry="4.5"/>
		<ellipse transform="matrix(0.9397 -0.342 0.342 0.9397 -12.6308 81.1614)" class="st2" cx="223.8" cy="76.4" rx="4.8" ry="2"/>
		<g>
			
				<ellipse transform="matrix(0.9397 -0.342 0.342 0.9397 -41.2133 31.6551)" class="st6" cx="69.2" cy="132.7" rx="10.5" ry="4.5"/>
			<ellipse transform="matrix(0.9397 -0.342 0.342 0.9397 -41.2133 31.6551)" class="st2" cx="69.2" cy="132.7" rx="4.8" ry="2"/>
		</g>
		<g>
			<ellipse transform="matrix(0.9397 -0.342 0.342 0.9397 -45.0856 24.948)" class="st6" cx="48.2" cy="140.3" rx="10.5" ry="4.5"/>
			<ellipse transform="matrix(0.9397 -0.342 0.342 0.9397 -45.0856 24.948)" class="st2" cx="48.2" cy="140.3" rx="4.8" ry="2"/>
		</g>
		
			<linearGradient id="SVGID_00000052068842892857784580000014839423482644749718_" gradientUnits="userSpaceOnUse" x1="-2592.5664" y1="2794.1165" x2="-2579.4895" y2="2794.1165" gradientTransform="matrix(-0.9397 0.342 0.342 0.9397 -3116.6147 -1632.0524)">
			<stop  offset="0.3111" style="stop-color:#000000"/>
			<stop  offset="1" style="stop-color:#37475E"/>
		</linearGradient>
		<path style="fill:url(#SVGID_00000052068842892857784580000014839423482644749718_);" d="M254.2,87.4l3,7.1l0,0l21.3,50.8
			l4.3-17.5l-23.7-54.6l-3.3,11.7C255.9,84.9,255.2,86.8,254.2,87.4z"/>
	</g>
</g>
</svg>
