<?xml version="1.0" encoding="utf-8"?>
<!-- Generator: Adobe Illustrator 25.4.1, SVG Export Plug-In . SVG Version: 6.00 Build 0)  -->
<svg version="1.1" id="Capa_1" xmlns="http://www.w3.org/2000/svg" xmlns:xlink="http://www.w3.org/1999/xlink" x="0px" y="0px"
	 viewBox="0 0 310 310" style="enable-background:new 0 0 310 310;" xml:space="preserve">
<style type="text/css">
	.st0{opacity:0.2;fill:#110C0A;enable-background:new    ;}
	.st1{fill:#999999;}
	.st2{fill:#FFFFFF;}
	.st3{fill:url(#SVGID_1_);}
	.st4{fill:none;stroke:#A0349D;stroke-width:9;stroke-miterlimit:10;}
	.st5{fill:#C00C0A;}
	.st6{fill:#110C0A;}
	.st7{fill:url(#SVGID_00000116216532243282845160000009729282849778225809_);}
	.st8{fill:url(#SVGID_00000147931751669662971070000010564895712597342087_);}
	.st9{fill:url(#SVGID_00000154417159937427041480000009384649009685080460_);}
	.st10{fill:url(#SVGID_00000060032347429839177310000007911665915864755379_);}
	.st11{fill:url(#SVGID_00000065790430393366971020000005349777310211865995_);}
	.st12{fill:url(#SVGID_00000022521602790243622630000017398232782568574859_);}
	.st13{fill:url(#SVGID_00000085973034895406248040000010318991657429379235_);}
	.st14{fill:url(#SVGID_00000078003934346123436690000003234617793315975068_);}
	.st15{fill:url(#SVGID_00000157305032195891222250000001110306092401113490_);}
	.st16{fill:url(#SVGID_00000181081807374711167680000004859460248870357941_);}
	.st17{fill:url(#SVGID_00000060006903399893825900000011400315243582463922_);}
	.st18{fill:url(#SVGID_00000052068493136777452140000016461342502229041561_);}
	.st19{fill:url(#SVGID_00000119834375810531758900000003522469424089001621_);}
	.st20{fill:url(#SVGID_00000146480962350899077560000013039118075215892625_);}
	.st21{fill:url(#SVGID_00000072963692109782453210000012916724081251408790_);}
	.st22{fill:url(#SVGID_00000128471835238967154880000012672831840611393438_);}
	.st23{fill:url(#SVGID_00000173883070722557162090000002455325638584758154_);}
	.st24{fill:url(#SVGID_00000044148919459324427740000006182662015949641860_);}
	.st25{fill:url(#SVGID_00000132073606793895766470000017588386620740887972_);}
	.st26{fill:url(#SVGID_00000028284483591167182290000000315081463775100321_);}
	.st27{fill:url(#SVGID_00000078749068857326351870000003201448296729194422_);}
	.st28{fill:url(#SVGID_00000001644252006854667120000001633872669357577350_);}
	.st29{fill:url(#SVGID_00000099632391473449283570000014122716831191479683_);}
	.st30{fill:url(#SVGID_00000116234349974498937620000017145382575289425855_);}
	.st31{fill:url(#SVGID_00000021090410232467697230000015656851532639521167_);}
	.st32{fill:url(#SVGID_00000172409829027017505610000017072908411758628279_);}
	.st33{fill:url(#SVGID_00000107572668301641791340000003890373097836878488_);}
	.st34{fill:url(#SVGID_00000017483897146763756820000000056345745432995220_);}
	.st35{fill:url(#SVGID_00000022544672354711985820000006037697120429685168_);}
	.st36{fill:url(#SVGID_00000068655260318562417070000002001589485851645884_);}
	.st37{fill:url(#SVGID_00000049207030175895012190000010299016553715100843_);}
	.st38{fill:url(#SVGID_00000130622531291684282400000006586715071628094138_);}
	.st39{fill:url(#SVGID_00000157286897418395509320000016466324626018453949_);}
	.st40{fill:url(#SVGID_00000142140693760179529120000006589342009837121976_);}
	.st41{fill:url(#SVGID_00000000217174209071327990000017693666171214209195_);}
	.st42{fill:url(#SVGID_00000109739041949669615150000004706088748494019765_);}
	.st43{fill:url(#SVGID_00000058577860567332245390000006840465561108634793_);}
	.st44{fill:url(#SVGID_00000059290236422707474980000003178183188442356137_);}
	.st45{fill:url(#SVGID_00000008855909282836194740000014982062255127096490_);}
	.st46{fill:url(#SVGID_00000011713139889740305210000006655487452028416155_);}
	.st47{fill:url(#SVGID_00000045606270199277439100000005713044028566406298_);}
	.st48{fill:url(#SVGID_00000163040852495532910150000011741157845860832160_);}
	.st49{fill:url(#SVGID_00000132782166119561968770000000233231449032236672_);}
	.st50{fill:url(#SVGID_00000031180880413499666540000001808379930850584733_);}
	.st51{fill:url(#SVGID_00000029021248175092697930000018406124426460009390_);}
	.st52{fill:url(#SVGID_00000015322950937993123640000008578288062146858400_);}
	.st53{fill:url(#SVGID_00000060736093985498043320000013802464908027303567_);}
	.st54{fill:url(#SVGID_00000148654867141001249590000013924694528908850563_);}
	.st55{fill:url(#SVGID_00000105415312804922746860000010013958575543036340_);}
	.st56{fill:url(#SVGID_00000083775526401570460390000017850385707894098836_);}
	.st57{fill:url(#SVGID_00000115479187958570983650000004310105878237239174_);}
	.st58{fill:url(#SVGID_00000096026678242691459950000014030786505144205710_);}
	.st59{fill:url(#SVGID_00000060741951933287970850000011055208797761381767_);}
	.st60{fill:url(#SVGID_00000119817753095634862860000008821745389979300263_);}
	.st61{fill:url(#SVGID_00000033348980482910140110000012134220301966365842_);}
	.st62{fill:url(#SVGID_00000147931567683772418850000004914109203218976413_);}
	.st63{fill:url(#SVGID_00000031900109736594628870000016758116968415890844_);}
	.st64{fill:url(#SVGID_00000126320447071804691160000011468650983199585194_);}
	.st65{fill:url(#SVGID_00000174577061035157885910000009999830159820162965_);}
	.st66{fill:url(#SVGID_00000026845693316690521600000006591751513033831593_);}
	.st67{fill:url(#SVGID_00000122000633462825756280000013447134558864629428_);}
	.st68{fill:url(#SVGID_00000046298985590910115030000000519381622639876498_);}
	.st69{fill:url(#SVGID_00000132788160412631223510000011794890192216796548_);}
	.st70{fill:url(#SVGID_00000141458022872297006820000003085246553254890908_);}
	.st71{fill:url(#SVGID_00000016792040819162807420000004925121277300661664_);}
	.st72{fill:url(#SVGID_00000168113269085631806530000007913996633491257518_);}
	.st73{fill:url(#SVGID_00000000926596142937842820000000646430407377003183_);}
	.st74{fill:url(#SVGID_00000154404706132629738960000012151336759602354092_);}
	.st75{fill:url(#SVGID_00000000929083869433405860000000021588161732065973_);}
	.st76{fill:url(#SVGID_00000030445235289297435670000016053262659268913841_);}
	.st77{fill:url(#SVGID_00000178176794479432687910000015566011623963887030_);}
</style>
<g>
	<path class="st0" d="M283.5,144.5l0.6-0.2c3.7-1.2,5.7-5,4.9-8.7l-14.7-59.8L39.5,116.2l-10.1,5.9l0,0l-1.8,5.4l0,0l-2.1,6.3
		c0,0,176.2-27,181.1-30.2L283.5,144.5z"/>
	<g>
		<polygon class="st1" points="26.7,129.3 19.9,149.3 263.6,103.7 271.7,83.1 36.8,123.3 		"/>
		
			<rect x="258.5" y="103" transform="matrix(0.9848 -0.1736 0.1736 0.9848 -14.0644 46.7593)" class="st2" width="3.4" height="1.6"/>
		<path class="st2" d="M276,167.1l8.7-19.6c1-2.3,1.3-4.9,0.6-7.3l-13.6-57.2l-10.9,21.3L276,167.1z"/>
		
			<linearGradient id="SVGID_1_" gradientUnits="userSpaceOnUse" x1="-2836.5835" y1="3123.9746" x2="-2836.5835" y2="3135.5254" gradientTransform="matrix(-0.9848 0.1736 0.1736 0.9848 -3190.0789 -2475.1709)">
			<stop  offset="0.3111" style="stop-color:#000000"/>
			<stop  offset="1" style="stop-color:#37475E"/>
		</linearGradient>
		<path class="st3" d="M25.3,145.6l233.3-41.1c2.3-0.4,4.2-2,5.1-4.1l5.6-12.5c-1.7,0.1-21.8,8.9-21.8,8.9L33.6,134.5L25.3,145.6z"
			/>
		<path class="st2" d="M35.1,209.5L276,167.1L261.4,104L23.9,145.8c-3,0.5-4.9,3.3-4.4,6.3l9.4,53.1
			C29.4,208.1,32.2,210.1,35.1,209.5z"/>
		<polygon class="st5" points="24.8,134.7 26.7,129.3 28.8,128.9 26.9,134.3 		"/>
		<path class="st2" d="M22.7,140.9c0,0-1.7,5.5,1.6,4.9c1.4-0.2,2.3-0.4,2.3-0.4l-6.9,4.3L22.7,140.9z"/>
		
			<ellipse transform="matrix(0.9848 -0.1736 0.1736 0.9848 -11.9703 42.0476)" class="st6" cx="234.3" cy="89.4" rx="10.5" ry="4.5"/>
		<ellipse transform="matrix(0.9848 -0.1736 0.1736 0.9848 -11.9703 42.0476)" class="st2" cx="234.3" cy="89.4" rx="4.8" ry="2"/>
		<g>
			
				<ellipse transform="matrix(0.9848 -0.1736 0.1736 0.9848 -19.3963 14.3336)" class="st6" cx="72.2" cy="118" rx="10.5" ry="4.5"/>
			<ellipse transform="matrix(0.9848 -0.1736 0.1736 0.9848 -19.3963 14.3336)" class="st2" cx="72.2" cy="118" rx="4.8" ry="2"/>
		</g>
		<g>
			
				<ellipse transform="matrix(0.9848 -0.1736 0.1736 0.9848 -20.4023 10.5789)" class="st6" cx="50.3" cy="121.9" rx="10.5" ry="4.5"/>
			<ellipse transform="matrix(0.9848 -0.1736 0.1736 0.9848 -20.4023 10.5789)" class="st2" cx="50.3" cy="121.9" rx="4.8" ry="2"/>
		</g>
		
			<linearGradient id="SVGID_00000088850042053403741930000008212371595465639575_" gradientUnits="userSpaceOnUse" x1="-2964.9336" y1="3166.4836" x2="-2951.8567" y2="3166.4836" gradientTransform="matrix(-0.9848 0.1736 0.1736 0.9848 -3190.0789 -2475.1709)">
			<stop  offset="0.3111" style="stop-color:#000000"/>
			<stop  offset="1" style="stop-color:#37475E"/>
		</linearGradient>
		<path style="fill:url(#SVGID_00000088850042053403741930000008212371595465639575_);" d="M262.3,105.5l1.7,7.5l0,0l12.2,53.7
			l7.2-16.5l-13.9-57.9l-5.3,11C264.4,103.3,263.4,105.1,262.3,105.5z"/>
	</g>
</g>
</svg>
